<?xml version="1.0" encoding="utf-8"?>
<svg xmlns="http://www.w3.org/2000/svg" xmlns:xlink="http://www.w3.org/1999/xlink" width="600" height="400" viewBox="0 0 2400 1600">
<defs>
  <clipPath id="clip290">
    <rect x="0" y="0" width="2400" height="1600"/>
  </clipPath>
</defs>
<path clip-path="url(#clip290)" d="M0 1600 L2400 1600 L2400 0 L0 0  Z" fill="#ffffff" fill-rule="evenodd" fill-opacity="1"/>
<defs>
  <clipPath id="clip291">
    <rect x="480" y="0" width="1681" height="1600"/>
  </clipPath>
</defs>
<path clip-path="url(#clip290)" d="M346.052 1401.58 L2352.76 1401.58 L2352.76 123.472 L346.052 123.472  Z" fill="#ffffff" fill-rule="evenodd" fill-opacity="1"/>
<defs>
  <clipPath id="clip292">
    <rect x="346" y="123" width="2008" height="1279"/>
  </clipPath>
</defs>
<polyline clip-path="url(#clip292)" style="stroke:#000000; stroke-linecap:round; stroke-linejoin:round; stroke-width:2; stroke-opacity:0.1; fill:none" points="705.108,1401.58 705.108,123.472 "/>
<polyline clip-path="url(#clip292)" style="stroke:#000000; stroke-linecap:round; stroke-linejoin:round; stroke-width:2; stroke-opacity:0.1; fill:none" points="1102.82,1401.58 1102.82,123.472 "/>
<polyline clip-path="url(#clip292)" style="stroke:#000000; stroke-linecap:round; stroke-linejoin:round; stroke-width:2; stroke-opacity:0.1; fill:none" points="1500.54,1401.58 1500.54,123.472 "/>
<polyline clip-path="url(#clip292)" style="stroke:#000000; stroke-linecap:round; stroke-linejoin:round; stroke-width:2; stroke-opacity:0.1; fill:none" points="1898.25,1401.58 1898.25,123.472 "/>
<polyline clip-path="url(#clip292)" style="stroke:#000000; stroke-linecap:round; stroke-linejoin:round; stroke-width:2; stroke-opacity:0.1; fill:none" points="2295.96,1401.58 2295.96,123.472 "/>
<polyline clip-path="url(#clip292)" style="stroke:#000000; stroke-linecap:round; stroke-linejoin:round; stroke-width:2; stroke-opacity:0.1; fill:none" points="346.052,1386.18 2352.76,1386.18 "/>
<polyline clip-path="url(#clip292)" style="stroke:#000000; stroke-linecap:round; stroke-linejoin:round; stroke-width:2; stroke-opacity:0.1; fill:none" points="346.052,1171.22 2352.76,1171.22 "/>
<polyline clip-path="url(#clip292)" style="stroke:#000000; stroke-linecap:round; stroke-linejoin:round; stroke-width:2; stroke-opacity:0.1; fill:none" points="346.052,956.256 2352.76,956.256 "/>
<polyline clip-path="url(#clip292)" style="stroke:#000000; stroke-linecap:round; stroke-linejoin:round; stroke-width:2; stroke-opacity:0.1; fill:none" points="346.052,741.291 2352.76,741.291 "/>
<polyline clip-path="url(#clip292)" style="stroke:#000000; stroke-linecap:round; stroke-linejoin:round; stroke-width:2; stroke-opacity:0.1; fill:none" points="346.052,526.326 2352.76,526.326 "/>
<polyline clip-path="url(#clip292)" style="stroke:#000000; stroke-linecap:round; stroke-linejoin:round; stroke-width:2; stroke-opacity:0.1; fill:none" points="346.052,311.362 2352.76,311.362 "/>
<polyline clip-path="url(#clip290)" style="stroke:#000000; stroke-linecap:round; stroke-linejoin:round; stroke-width:4; stroke-opacity:1; fill:none" points="346.052,1401.58 2352.76,1401.58 "/>
<polyline clip-path="url(#clip290)" style="stroke:#000000; stroke-linecap:round; stroke-linejoin:round; stroke-width:4; stroke-opacity:1; fill:none" points="705.108,1401.58 705.108,1382.68 "/>
<polyline clip-path="url(#clip290)" style="stroke:#000000; stroke-linecap:round; stroke-linejoin:round; stroke-width:4; stroke-opacity:1; fill:none" points="1102.82,1401.58 1102.82,1382.68 "/>
<polyline clip-path="url(#clip290)" style="stroke:#000000; stroke-linecap:round; stroke-linejoin:round; stroke-width:4; stroke-opacity:1; fill:none" points="1500.54,1401.58 1500.54,1382.68 "/>
<polyline clip-path="url(#clip290)" style="stroke:#000000; stroke-linecap:round; stroke-linejoin:round; stroke-width:4; stroke-opacity:1; fill:none" points="1898.25,1401.58 1898.25,1382.68 "/>
<polyline clip-path="url(#clip290)" style="stroke:#000000; stroke-linecap:round; stroke-linejoin:round; stroke-width:4; stroke-opacity:1; fill:none" points="2295.96,1401.58 2295.96,1382.68 "/>
<path clip-path="url(#clip290)" d="M674.696 1436.89 Q669.73 1436.89 667.216 1441.79 Q664.733 1446.66 664.733 1456.47 Q664.733 1466.24 667.216 1471.14 Q669.73 1476.01 674.696 1476.01 Q679.693 1476.01 682.175 1471.14 Q684.69 1466.24 684.69 1456.47 Q684.69 1446.66 682.175 1441.79 Q679.693 1436.89 674.696 1436.89 M674.696 1431.8 Q682.685 1431.8 686.886 1438.13 Q691.119 1444.44 691.119 1456.47 Q691.119 1468.47 686.886 1474.8 Q682.685 1481.1 674.696 1481.1 Q666.707 1481.1 662.473 1474.8 Q658.272 1468.47 658.272 1456.47 Q658.272 1444.44 662.473 1438.13 Q666.707 1431.8 674.696 1431.8 Z" fill="#000000" fill-rule="nonzero" fill-opacity="1" /><path clip-path="url(#clip290)" d="M702.418 1472.1 L709.134 1472.1 L709.134 1480.18 L702.418 1480.18 L702.418 1472.1 Z" fill="#000000" fill-rule="nonzero" fill-opacity="1" /><path clip-path="url(#clip290)" d="M723.202 1432.66 L748.442 1432.66 L748.442 1438.07 L729.091 1438.07 L729.091 1449.72 Q730.491 1449.24 731.892 1449.02 Q733.292 1448.77 734.692 1448.77 Q742.65 1448.77 747.297 1453.13 Q751.943 1457.49 751.943 1464.93 Q751.943 1472.6 747.169 1476.87 Q742.395 1481.1 733.706 1481.1 Q730.714 1481.1 727.595 1480.59 Q724.507 1480.08 721.197 1479.07 L721.197 1472.6 Q724.062 1474.16 727.117 1474.93 Q730.173 1475.69 733.578 1475.69 Q739.085 1475.69 742.299 1472.8 Q745.514 1469.9 745.514 1464.93 Q745.514 1459.97 742.299 1457.07 Q739.085 1454.18 733.578 1454.18 Q731 1454.18 728.422 1454.75 Q725.876 1455.32 723.202 1456.53 L723.202 1432.66 Z" fill="#000000" fill-rule="nonzero" fill-opacity="1" /><path clip-path="url(#clip290)" d="M1057.66 1474.77 L1068.16 1474.77 L1068.16 1438.52 L1056.73 1440.81 L1056.73 1434.95 L1068.1 1432.66 L1074.53 1432.66 L1074.53 1474.77 L1085.03 1474.77 L1085.03 1480.18 L1057.66 1480.18 L1057.66 1474.77 Z" fill="#000000" fill-rule="nonzero" fill-opacity="1" /><path clip-path="url(#clip290)" d="M1098.02 1472.1 L1104.73 1472.1 L1104.73 1480.18 L1098.02 1480.18 L1098.02 1472.1 Z" fill="#000000" fill-rule="nonzero" fill-opacity="1" /><path clip-path="url(#clip290)" d="M1132.49 1436.89 Q1127.52 1436.89 1125.01 1441.79 Q1122.52 1446.66 1122.52 1456.47 Q1122.52 1466.24 1125.01 1471.14 Q1127.52 1476.01 1132.49 1476.01 Q1137.48 1476.01 1139.97 1471.14 Q1142.48 1466.24 1142.48 1456.47 Q1142.48 1446.66 1139.97 1441.79 Q1137.48 1436.89 1132.49 1436.89 M1132.49 1431.8 Q1140.47 1431.8 1144.68 1438.13 Q1148.91 1444.44 1148.91 1456.47 Q1148.91 1468.47 1144.68 1474.8 Q1140.47 1481.1 1132.49 1481.1 Q1124.5 1481.1 1120.26 1474.8 Q1116.06 1468.47 1116.06 1456.47 Q1116.06 1444.44 1120.26 1438.13 Q1124.5 1431.8 1132.49 1431.8 Z" fill="#000000" fill-rule="nonzero" fill-opacity="1" /><path clip-path="url(#clip290)" d="M1456.05 1474.77 L1466.56 1474.77 L1466.56 1438.52 L1455.13 1440.81 L1455.13 1434.95 L1466.49 1432.66 L1472.92 1432.66 L1472.92 1474.77 L1483.43 1474.77 L1483.43 1480.18 L1456.05 1480.18 L1456.05 1474.77 Z" fill="#000000" fill-rule="nonzero" fill-opacity="1" /><path clip-path="url(#clip290)" d="M1496.41 1472.1 L1503.13 1472.1 L1503.13 1480.18 L1496.41 1480.18 L1496.41 1472.1 Z" fill="#000000" fill-rule="nonzero" fill-opacity="1" /><path clip-path="url(#clip290)" d="M1517.2 1432.66 L1542.44 1432.66 L1542.44 1438.07 L1523.09 1438.07 L1523.09 1449.72 Q1524.49 1449.24 1525.89 1449.02 Q1527.29 1448.77 1528.69 1448.77 Q1536.64 1448.77 1541.29 1453.13 Q1545.94 1457.49 1545.94 1464.93 Q1545.94 1472.6 1541.16 1476.87 Q1536.39 1481.1 1527.7 1481.1 Q1524.71 1481.1 1521.59 1480.59 Q1518.5 1480.08 1515.19 1479.07 L1515.19 1472.6 Q1518.06 1474.16 1521.11 1474.93 Q1524.17 1475.69 1527.57 1475.69 Q1533.08 1475.69 1536.29 1472.8 Q1539.51 1469.9 1539.51 1464.93 Q1539.51 1459.97 1536.29 1457.07 Q1533.08 1454.18 1527.57 1454.18 Q1525 1454.18 1522.42 1454.75 Q1519.87 1455.32 1517.2 1456.53 L1517.2 1432.66 Z" fill="#000000" fill-rule="nonzero" fill-opacity="1" /><path clip-path="url(#clip290)" d="M1858.7 1474.77 L1881.14 1474.77 L1881.14 1480.18 L1850.97 1480.18 L1850.97 1474.77 Q1854.63 1470.98 1860.93 1464.62 Q1867.26 1458.22 1868.89 1456.37 Q1871.97 1452.9 1873.18 1450.52 Q1874.43 1448.1 1874.43 1445.77 Q1874.43 1441.99 1871.75 1439.6 Q1869.11 1437.21 1864.84 1437.21 Q1861.82 1437.21 1858.45 1438.26 Q1855.11 1439.31 1851.29 1441.44 L1851.29 1434.95 Q1855.17 1433.39 1858.54 1432.6 Q1861.92 1431.8 1864.72 1431.8 Q1872.1 1431.8 1876.49 1435.49 Q1880.89 1439.18 1880.89 1445.36 Q1880.89 1448.29 1879.77 1450.93 Q1878.69 1453.54 1875.79 1457.1 Q1875 1458.03 1870.73 1462.45 Q1866.47 1466.84 1858.7 1474.77 Z" fill="#000000" fill-rule="nonzero" fill-opacity="1" /><path clip-path="url(#clip290)" d="M1894.64 1472.1 L1901.35 1472.1 L1901.35 1480.18 L1894.64 1480.18 L1894.64 1472.1 Z" fill="#000000" fill-rule="nonzero" fill-opacity="1" /><path clip-path="url(#clip290)" d="M1929.11 1436.89 Q1924.14 1436.89 1921.63 1441.79 Q1919.14 1446.66 1919.14 1456.47 Q1919.14 1466.24 1921.63 1471.14 Q1924.14 1476.01 1929.11 1476.01 Q1934.1 1476.01 1936.59 1471.14 Q1939.1 1466.24 1939.1 1456.47 Q1939.1 1446.66 1936.59 1441.79 Q1934.1 1436.89 1929.11 1436.89 M1929.11 1431.8 Q1937.1 1431.8 1941.3 1438.13 Q1945.53 1444.44 1945.53 1456.47 Q1945.53 1468.47 1941.3 1474.8 Q1937.1 1481.1 1929.11 1481.1 Q1921.12 1481.1 1916.88 1474.8 Q1912.68 1468.47 1912.68 1456.47 Q1912.68 1444.44 1916.88 1438.13 Q1921.12 1431.8 1929.11 1431.8 Z" fill="#000000" fill-rule="nonzero" fill-opacity="1" /><path clip-path="url(#clip290)" d="M2257.1 1474.77 L2279.54 1474.77 L2279.54 1480.18 L2249.37 1480.18 L2249.37 1474.77 Q2253.03 1470.98 2259.33 1464.62 Q2265.66 1458.22 2267.28 1456.37 Q2270.37 1452.9 2271.58 1450.52 Q2272.82 1448.1 2272.82 1445.77 Q2272.82 1441.99 2270.15 1439.6 Q2267.51 1437.21 2263.24 1437.21 Q2260.22 1437.21 2256.85 1438.26 Q2253.5 1439.31 2249.68 1441.44 L2249.68 1434.95 Q2253.57 1433.39 2256.94 1432.6 Q2260.31 1431.8 2263.12 1431.8 Q2270.5 1431.8 2274.89 1435.49 Q2279.28 1439.18 2279.28 1445.36 Q2279.28 1448.29 2278.17 1450.93 Q2277.09 1453.54 2274.19 1457.1 Q2273.4 1458.03 2269.13 1462.45 Q2264.87 1466.84 2257.1 1474.77 Z" fill="#000000" fill-rule="nonzero" fill-opacity="1" /><path clip-path="url(#clip290)" d="M2293.03 1472.1 L2299.75 1472.1 L2299.75 1480.18 L2293.03 1480.18 L2293.03 1472.1 Z" fill="#000000" fill-rule="nonzero" fill-opacity="1" /><path clip-path="url(#clip290)" d="M2313.82 1432.66 L2339.06 1432.66 L2339.06 1438.07 L2319.71 1438.07 L2319.71 1449.72 Q2321.11 1449.24 2322.51 1449.02 Q2323.91 1448.77 2325.31 1448.77 Q2333.27 1448.77 2337.91 1453.13 Q2342.56 1457.49 2342.56 1464.93 Q2342.56 1472.6 2337.79 1476.87 Q2333.01 1481.1 2324.32 1481.1 Q2321.33 1481.1 2318.21 1480.59 Q2315.12 1480.08 2311.81 1479.07 L2311.81 1472.6 Q2314.68 1474.16 2317.73 1474.93 Q2320.79 1475.69 2324.19 1475.69 Q2329.7 1475.69 2332.92 1472.8 Q2336.13 1469.9 2336.13 1464.93 Q2336.13 1459.97 2332.92 1457.07 Q2329.7 1454.18 2324.19 1454.18 Q2321.62 1454.18 2319.04 1454.75 Q2316.49 1455.32 2313.82 1456.53 L2313.82 1432.66 Z" fill="#000000" fill-rule="nonzero" fill-opacity="1" /><path clip-path="url(#clip290)" d="M1379.88 1516.76 Q1379.88 1517.49 1379.73 1518.1 L1377.6 1531.65 Q1377.48 1532.67 1377.25 1533.06 Q1377.06 1533.44 1376.46 1533.44 Q1375.5 1533.44 1375.5 1532.45 Q1375.5 1531.88 1375.73 1530.96 Q1376.38 1526.66 1376.38 1524.72 Q1376.38 1523.43 1376.11 1522.47 Q1375.88 1521.48 1375.5 1520.8 Q1375.16 1520.11 1374.36 1519.66 Q1373.56 1519.2 1372.8 1518.93 Q1372.04 1518.67 1370.67 1518.55 Q1369.3 1518.4 1368.12 1518.36 Q1366.94 1518.33 1365 1518.33 Q1360.77 1518.33 1360.09 1518.48 Q1359.37 1518.67 1358.99 1519.24 Q1358.64 1519.77 1358.26 1521.37 L1347.91 1562.74 L1347.6 1564.38 Q1347.6 1565.29 1348.18 1565.6 Q1348.75 1565.9 1350.5 1566.09 Q1353.01 1566.28 1355.48 1566.28 Q1355.56 1566.28 1355.71 1566.28 Q1356.55 1566.28 1356.89 1566.32 Q1357.23 1566.32 1357.58 1566.4 Q1357.92 1566.47 1358 1566.66 Q1358.11 1566.82 1358.11 1567.12 Q1358.11 1567.84 1357.81 1568.22 Q1357.5 1568.57 1357.2 1568.64 Q1356.93 1568.68 1356.4 1568.68 Q1355.33 1568.68 1353.05 1568.6 Q1350.76 1568.53 1349.62 1568.53 L1343.15 1568.45 L1336.53 1568.53 Q1335.5 1568.53 1333.33 1568.6 Q1331.16 1568.68 1330.13 1568.68 Q1328.8 1568.68 1328.8 1567.73 Q1328.8 1566.66 1329.3 1566.47 Q1329.83 1566.28 1332.08 1566.28 Q1335.23 1566.28 1336.95 1566.13 Q1338.66 1565.98 1339.57 1565.45 Q1340.53 1564.91 1340.79 1564.38 Q1341.06 1563.81 1341.36 1562.51 L1351.83 1520.91 Q1352.13 1520 1352.13 1519.28 Q1352.13 1518.9 1352.02 1518.74 Q1351.94 1518.59 1351.45 1518.48 Q1350.95 1518.33 1349.93 1518.33 L1346.88 1518.33 Q1343.76 1518.33 1341.82 1518.48 Q1339.92 1518.59 1338.09 1519.16 Q1336.3 1519.73 1335.23 1520.53 Q1334.21 1521.33 1333.07 1522.97 Q1331.92 1524.61 1331.09 1526.58 Q1330.29 1528.56 1329.14 1531.8 Q1328.76 1532.86 1328.54 1533.17 Q1328.35 1533.44 1327.81 1533.44 Q1327.43 1533.44 1327.13 1533.21 Q1326.86 1532.94 1326.86 1532.6 Q1327.24 1531.34 1327.32 1531.19 L1332 1517.45 Q1332.38 1516.35 1332.72 1516.16 Q1333.1 1515.93 1334.51 1515.93 L1377.75 1515.93 Q1378.43 1515.93 1378.66 1515.93 Q1378.89 1515.93 1379.27 1516 Q1379.65 1516.08 1379.77 1516.27 Q1379.88 1516.46 1379.88 1516.76 Z" fill="#000000" fill-rule="nonzero" fill-opacity="1" /><polyline clip-path="url(#clip290)" style="stroke:#000000; stroke-linecap:round; stroke-linejoin:round; stroke-width:4; stroke-opacity:1; fill:none" points="346.052,1401.58 346.052,123.472 "/>
<polyline clip-path="url(#clip290)" style="stroke:#000000; stroke-linecap:round; stroke-linejoin:round; stroke-width:4; stroke-opacity:1; fill:none" points="346.052,1386.18 364.95,1386.18 "/>
<polyline clip-path="url(#clip290)" style="stroke:#000000; stroke-linecap:round; stroke-linejoin:round; stroke-width:4; stroke-opacity:1; fill:none" points="346.052,1171.22 364.95,1171.22 "/>
<polyline clip-path="url(#clip290)" style="stroke:#000000; stroke-linecap:round; stroke-linejoin:round; stroke-width:4; stroke-opacity:1; fill:none" points="346.052,956.256 364.95,956.256 "/>
<polyline clip-path="url(#clip290)" style="stroke:#000000; stroke-linecap:round; stroke-linejoin:round; stroke-width:4; stroke-opacity:1; fill:none" points="346.052,741.291 364.95,741.291 "/>
<polyline clip-path="url(#clip290)" style="stroke:#000000; stroke-linecap:round; stroke-linejoin:round; stroke-width:4; stroke-opacity:1; fill:none" points="346.052,526.326 364.95,526.326 "/>
<polyline clip-path="url(#clip290)" style="stroke:#000000; stroke-linecap:round; stroke-linejoin:round; stroke-width:4; stroke-opacity:1; fill:none" points="346.052,311.362 364.95,311.362 "/>
<path clip-path="url(#clip290)" d="M122.9 1386.81 L163.704 1386.81 L163.704 1392.22 L122.9 1392.22 L122.9 1386.81 Z" fill="#000000" fill-rule="nonzero" fill-opacity="1" /><path clip-path="url(#clip290)" d="M191.332 1366.66 Q186.366 1366.66 183.852 1371.56 Q181.369 1376.43 181.369 1386.23 Q181.369 1396 183.852 1400.91 Q186.366 1405.78 191.332 1405.78 Q196.329 1405.78 198.811 1400.91 Q201.326 1396 201.326 1386.23 Q201.326 1376.43 198.811 1371.56 Q196.329 1366.66 191.332 1366.66 M191.332 1361.57 Q199.32 1361.57 203.522 1367.9 Q207.755 1374.2 207.755 1386.23 Q207.755 1398.23 203.522 1404.57 Q199.32 1410.87 191.332 1410.87 Q183.343 1410.87 179.109 1404.57 Q174.908 1398.23 174.908 1386.23 Q174.908 1374.2 179.109 1367.9 Q183.343 1361.57 191.332 1361.57 Z" fill="#000000" fill-rule="nonzero" fill-opacity="1" /><path clip-path="url(#clip290)" d="M219.054 1401.86 L225.77 1401.86 L225.77 1409.94 L219.054 1409.94 L219.054 1401.86 Z" fill="#000000" fill-rule="nonzero" fill-opacity="1" /><path clip-path="url(#clip290)" d="M245.313 1404.53 L267.752 1404.53 L267.752 1409.94 L237.578 1409.94 L237.578 1404.53 Q241.239 1400.75 247.541 1394.38 Q253.875 1387.98 255.498 1386.14 Q258.585 1382.67 259.795 1380.28 Q261.036 1377.86 261.036 1375.54 Q261.036 1371.75 258.362 1369.36 Q255.721 1366.98 251.456 1366.98 Q248.432 1366.98 245.058 1368.03 Q241.716 1369.08 237.897 1371.21 L237.897 1364.72 Q241.78 1363.16 245.154 1362.36 Q248.527 1361.57 251.328 1361.57 Q258.713 1361.57 263.105 1365.26 Q267.497 1368.95 267.497 1375.12 Q267.497 1378.05 266.383 1380.69 Q265.301 1383.3 262.405 1386.87 Q261.609 1387.79 257.344 1392.22 Q253.079 1396.61 245.313 1404.53 Z" fill="#000000" fill-rule="nonzero" fill-opacity="1" /><path clip-path="url(#clip290)" d="M281.311 1362.42 L306.551 1362.42 L306.551 1367.84 L287.199 1367.84 L287.199 1379.48 Q288.6 1379.01 290 1378.78 Q291.4 1378.53 292.801 1378.53 Q300.758 1378.53 305.405 1382.89 Q310.052 1387.25 310.052 1394.7 Q310.052 1402.37 305.278 1406.63 Q300.503 1410.87 291.814 1410.87 Q288.822 1410.87 285.703 1410.36 Q282.616 1409.85 279.306 1408.83 L279.306 1402.37 Q282.17 1403.93 285.226 1404.69 Q288.281 1405.46 291.687 1405.46 Q297.193 1405.46 300.408 1402.56 Q303.623 1399.66 303.623 1394.7 Q303.623 1389.73 300.408 1386.84 Q297.193 1383.94 291.687 1383.94 Q289.109 1383.94 286.531 1384.51 Q283.984 1385.09 281.311 1386.3 L281.311 1362.42 Z" fill="#000000" fill-rule="nonzero" fill-opacity="1" /><path clip-path="url(#clip290)" d="M189.963 1151.69 Q184.998 1151.69 182.483 1156.59 Q180.001 1161.46 180.001 1171.27 Q180.001 1181.04 182.483 1185.94 Q184.998 1190.81 189.963 1190.81 Q194.96 1190.81 197.443 1185.94 Q199.957 1181.04 199.957 1171.27 Q199.957 1161.46 197.443 1156.59 Q194.96 1151.69 189.963 1151.69 M189.963 1146.6 Q197.952 1146.6 202.153 1152.93 Q206.386 1159.24 206.386 1171.27 Q206.386 1183.27 202.153 1189.6 Q197.952 1195.9 189.963 1195.9 Q181.974 1195.9 177.741 1189.6 Q173.539 1183.27 173.539 1171.27 Q173.539 1159.24 177.741 1152.93 Q181.974 1146.6 189.963 1146.6 Z" fill="#000000" fill-rule="nonzero" fill-opacity="1" /><path clip-path="url(#clip290)" d="M217.686 1186.9 L224.401 1186.9 L224.401 1194.98 L217.686 1194.98 L217.686 1186.9 Z" fill="#000000" fill-rule="nonzero" fill-opacity="1" /><path clip-path="url(#clip290)" d="M252.156 1151.69 Q247.191 1151.69 244.676 1156.59 Q242.193 1161.46 242.193 1171.27 Q242.193 1181.04 244.676 1185.94 Q247.191 1190.81 252.156 1190.81 Q257.153 1190.81 259.636 1185.94 Q262.15 1181.04 262.15 1171.27 Q262.15 1161.46 259.636 1156.59 Q257.153 1151.69 252.156 1151.69 M252.156 1146.6 Q260.145 1146.6 264.346 1152.93 Q268.579 1159.24 268.579 1171.27 Q268.579 1183.27 264.346 1189.6 Q260.145 1195.9 252.156 1195.9 Q244.167 1195.9 239.934 1189.6 Q235.732 1183.27 235.732 1171.27 Q235.732 1159.24 239.934 1152.93 Q244.167 1146.6 252.156 1146.6 Z" fill="#000000" fill-rule="nonzero" fill-opacity="1" /><path clip-path="url(#clip290)" d="M293.628 1151.69 Q288.663 1151.69 286.149 1156.59 Q283.666 1161.46 283.666 1171.27 Q283.666 1181.04 286.149 1185.94 Q288.663 1190.81 293.628 1190.81 Q298.625 1190.81 301.108 1185.94 Q303.623 1181.04 303.623 1171.27 Q303.623 1161.46 301.108 1156.59 Q298.625 1151.69 293.628 1151.69 M293.628 1146.6 Q301.617 1146.6 305.819 1152.93 Q310.052 1159.24 310.052 1171.27 Q310.052 1183.27 305.819 1189.6 Q301.617 1195.9 293.628 1195.9 Q285.639 1195.9 281.406 1189.6 Q277.205 1183.27 277.205 1171.27 Q277.205 1159.24 281.406 1152.93 Q285.639 1146.6 293.628 1146.6 Z" fill="#000000" fill-rule="nonzero" fill-opacity="1" /><path clip-path="url(#clip290)" d="M191.332 936.729 Q186.366 936.729 183.852 941.63 Q181.369 946.5 181.369 956.303 Q181.369 966.075 183.852 970.976 Q186.366 975.846 191.332 975.846 Q196.329 975.846 198.811 970.976 Q201.326 966.075 201.326 956.303 Q201.326 946.5 198.811 941.63 Q196.329 936.729 191.332 936.729 M191.332 931.636 Q199.32 931.636 203.522 937.97 Q207.755 944.272 207.755 956.303 Q207.755 968.303 203.522 974.637 Q199.32 980.939 191.332 980.939 Q183.343 980.939 179.109 974.637 Q174.908 968.303 174.908 956.303 Q174.908 944.272 179.109 937.97 Q183.343 931.636 191.332 931.636 Z" fill="#000000" fill-rule="nonzero" fill-opacity="1" /><path clip-path="url(#clip290)" d="M219.054 971.931 L225.77 971.931 L225.77 980.016 L219.054 980.016 L219.054 971.931 Z" fill="#000000" fill-rule="nonzero" fill-opacity="1" /><path clip-path="url(#clip290)" d="M245.313 974.605 L267.752 974.605 L267.752 980.016 L237.578 980.016 L237.578 974.605 Q241.239 970.817 247.541 964.451 Q253.875 958.054 255.498 956.208 Q258.585 952.738 259.795 950.351 Q261.036 947.932 261.036 945.609 Q261.036 941.821 258.362 939.434 Q255.721 937.047 251.456 937.047 Q248.432 937.047 245.058 938.097 Q241.716 939.148 237.897 941.28 L237.897 934.787 Q241.78 933.228 245.154 932.432 Q248.527 931.636 251.328 931.636 Q258.713 931.636 263.105 935.328 Q267.497 939.02 267.497 945.195 Q267.497 948.123 266.383 950.765 Q265.301 953.375 262.405 956.94 Q261.609 957.863 257.344 962.287 Q253.079 966.679 245.313 974.605 Z" fill="#000000" fill-rule="nonzero" fill-opacity="1" /><path clip-path="url(#clip290)" d="M281.311 932.496 L306.551 932.496 L306.551 937.906 L287.199 937.906 L287.199 949.556 Q288.6 949.078 290 948.855 Q291.4 948.601 292.801 948.601 Q300.758 948.601 305.405 952.961 Q310.052 957.322 310.052 964.77 Q310.052 972.44 305.278 976.705 Q300.503 980.939 291.814 980.939 Q288.822 980.939 285.703 980.429 Q282.616 979.92 279.306 978.902 L279.306 972.44 Q282.17 974 285.226 974.764 Q288.281 975.528 291.687 975.528 Q297.193 975.528 300.408 972.631 Q303.623 969.735 303.623 964.77 Q303.623 959.804 300.408 956.908 Q297.193 954.012 291.687 954.012 Q289.109 954.012 286.531 954.585 Q283.984 955.157 281.311 956.367 L281.311 932.496 Z" fill="#000000" fill-rule="nonzero" fill-opacity="1" /><path clip-path="url(#clip290)" d="M189.963 721.764 Q184.998 721.764 182.483 726.666 Q180.001 731.535 180.001 741.339 Q180.001 751.11 182.483 756.012 Q184.998 760.881 189.963 760.881 Q194.96 760.881 197.443 756.012 Q199.957 751.11 199.957 741.339 Q199.957 731.535 197.443 726.666 Q194.96 721.764 189.963 721.764 M189.963 716.672 Q197.952 716.672 202.153 723.005 Q206.386 729.307 206.386 741.339 Q206.386 753.338 202.153 759.672 Q197.952 765.974 189.963 765.974 Q181.974 765.974 177.741 759.672 Q173.539 753.338 173.539 741.339 Q173.539 729.307 177.741 723.005 Q181.974 716.672 189.963 716.672 Z" fill="#000000" fill-rule="nonzero" fill-opacity="1" /><path clip-path="url(#clip290)" d="M217.686 756.966 L224.401 756.966 L224.401 765.051 L217.686 765.051 L217.686 756.966 Z" fill="#000000" fill-rule="nonzero" fill-opacity="1" /><path clip-path="url(#clip290)" d="M238.47 717.531 L263.71 717.531 L263.71 722.942 L244.358 722.942 L244.358 734.591 Q245.758 734.114 247.159 733.891 Q248.559 733.636 249.96 733.636 Q257.917 733.636 262.564 737.997 Q267.211 742.357 267.211 749.805 Q267.211 757.476 262.436 761.741 Q257.662 765.974 248.973 765.974 Q245.981 765.974 242.862 765.465 Q239.775 764.955 236.464 763.937 L236.464 757.476 Q239.329 759.035 242.384 759.799 Q245.44 760.563 248.846 760.563 Q254.352 760.563 257.567 757.667 Q260.781 754.77 260.781 749.805 Q260.781 744.84 257.567 741.943 Q254.352 739.047 248.846 739.047 Q246.268 739.047 243.689 739.62 Q241.143 740.193 238.47 741.402 L238.47 717.531 Z" fill="#000000" fill-rule="nonzero" fill-opacity="1" /><path clip-path="url(#clip290)" d="M293.628 721.764 Q288.663 721.764 286.149 726.666 Q283.666 731.535 283.666 741.339 Q283.666 751.11 286.149 756.012 Q288.663 760.881 293.628 760.881 Q298.625 760.881 301.108 756.012 Q303.623 751.11 303.623 741.339 Q303.623 731.535 301.108 726.666 Q298.625 721.764 293.628 721.764 M293.628 716.672 Q301.617 716.672 305.819 723.005 Q310.052 729.307 310.052 741.339 Q310.052 753.338 305.819 759.672 Q301.617 765.974 293.628 765.974 Q285.639 765.974 281.406 759.672 Q277.205 753.338 277.205 741.339 Q277.205 729.307 281.406 723.005 Q285.639 716.672 293.628 716.672 Z" fill="#000000" fill-rule="nonzero" fill-opacity="1" /><path clip-path="url(#clip290)" d="M191.332 506.799 Q186.366 506.799 183.852 511.701 Q181.369 516.571 181.369 526.374 Q181.369 536.145 183.852 541.047 Q186.366 545.917 191.332 545.917 Q196.329 545.917 198.811 541.047 Q201.326 536.145 201.326 526.374 Q201.326 516.571 198.811 511.701 Q196.329 506.799 191.332 506.799 M191.332 501.707 Q199.32 501.707 203.522 508.041 Q207.755 514.343 207.755 526.374 Q207.755 538.373 203.522 544.707 Q199.32 551.009 191.332 551.009 Q183.343 551.009 179.109 544.707 Q174.908 538.373 174.908 526.374 Q174.908 514.343 179.109 508.041 Q183.343 501.707 191.332 501.707 Z" fill="#000000" fill-rule="nonzero" fill-opacity="1" /><path clip-path="url(#clip290)" d="M219.054 542.002 L225.77 542.002 L225.77 550.086 L219.054 550.086 L219.054 542.002 Z" fill="#000000" fill-rule="nonzero" fill-opacity="1" /><path clip-path="url(#clip290)" d="M238.151 502.566 L268.707 502.566 L268.707 505.304 L251.456 550.086 L244.74 550.086 L260.972 507.977 L238.151 507.977 L238.151 502.566 Z" fill="#000000" fill-rule="nonzero" fill-opacity="1" /><path clip-path="url(#clip290)" d="M281.311 502.566 L306.551 502.566 L306.551 507.977 L287.199 507.977 L287.199 519.626 Q288.6 519.149 290 518.926 Q291.4 518.672 292.801 518.672 Q300.758 518.672 305.405 523.032 Q310.052 527.393 310.052 534.84 Q310.052 542.511 305.278 546.776 Q300.503 551.009 291.814 551.009 Q288.822 551.009 285.703 550.5 Q282.616 549.991 279.306 548.972 L279.306 542.511 Q282.17 544.071 285.226 544.835 Q288.281 545.598 291.687 545.598 Q297.193 545.598 300.408 542.702 Q303.623 539.806 303.623 534.84 Q303.623 529.875 300.408 526.979 Q297.193 524.082 291.687 524.082 Q289.109 524.082 286.531 524.655 Q283.984 525.228 281.311 526.438 L281.311 502.566 Z" fill="#000000" fill-rule="nonzero" fill-opacity="1" /><path clip-path="url(#clip290)" d="M177.327 329.711 L187.83 329.711 L187.83 293.458 L176.404 295.75 L176.404 289.893 L187.767 287.602 L194.196 287.602 L194.196 329.711 L204.699 329.711 L204.699 335.122 L177.327 335.122 L177.327 329.711 Z" fill="#000000" fill-rule="nonzero" fill-opacity="1" /><path clip-path="url(#clip290)" d="M217.686 327.037 L224.401 327.037 L224.401 335.122 L217.686 335.122 L217.686 327.037 Z" fill="#000000" fill-rule="nonzero" fill-opacity="1" /><path clip-path="url(#clip290)" d="M252.156 291.835 Q247.191 291.835 244.676 296.736 Q242.193 301.606 242.193 311.409 Q242.193 321.181 244.676 326.082 Q247.191 330.952 252.156 330.952 Q257.153 330.952 259.636 326.082 Q262.15 321.181 262.15 311.409 Q262.15 301.606 259.636 296.736 Q257.153 291.835 252.156 291.835 M252.156 286.742 Q260.145 286.742 264.346 293.076 Q268.579 299.378 268.579 311.409 Q268.579 323.409 264.346 329.743 Q260.145 336.045 252.156 336.045 Q244.167 336.045 239.934 329.743 Q235.732 323.409 235.732 311.409 Q235.732 299.378 239.934 293.076 Q244.167 286.742 252.156 286.742 Z" fill="#000000" fill-rule="nonzero" fill-opacity="1" /><path clip-path="url(#clip290)" d="M293.628 291.835 Q288.663 291.835 286.149 296.736 Q283.666 301.606 283.666 311.409 Q283.666 321.181 286.149 326.082 Q288.663 330.952 293.628 330.952 Q298.625 330.952 301.108 326.082 Q303.623 321.181 303.623 311.409 Q303.623 301.606 301.108 296.736 Q298.625 291.835 293.628 291.835 M293.628 286.742 Q301.617 286.742 305.819 293.076 Q310.052 299.378 310.052 311.409 Q310.052 323.409 305.819 329.743 Q301.617 336.045 293.628 336.045 Q285.639 336.045 281.406 329.743 Q277.205 323.409 277.205 311.409 Q277.205 299.378 281.406 293.076 Q285.639 286.742 293.628 286.742 Z" fill="#000000" fill-rule="nonzero" fill-opacity="1" /><path clip-path="url(#clip290)" d="M18.3474 795.521 L38.2155 800.431 Q39.4715 800.773 39.6237 801.002 Q39.776 801.192 39.776 801.801 Q39.776 802.981 38.9767 802.981 Q38.9006 802.981 37.911 802.867 Q36.8833 802.752 35.0183 802.752 Q28.1292 802.752 24.0566 806.102 Q19.984 809.413 19.984 815.313 Q19.984 820.413 22.5722 825.551 Q25.1604 830.651 29.3852 834.305 Q32.5824 837.046 36.6169 839.063 Q40.6514 841.042 44.3434 841.994 Q48.0353 842.907 50.8138 843.326 Q53.5923 843.745 55.6096 843.745 Q58.5403 843.745 61.0143 843.136 Q63.4883 842.489 65.2391 841.347 Q66.9519 840.205 68.284 838.759 Q69.5781 837.274 70.3393 835.561 Q71.1006 833.811 71.4812 832.06 Q71.8237 830.309 71.8237 828.482 Q71.8237 821.136 66.1145 814.133 Q61.433 808.576 53.7826 806.254 Q53.0214 806.064 53.0214 805.264 Q53.0214 804.313 53.7826 804.313 Q53.9348 804.313 54.6961 804.503 Q55.4192 804.694 56.9036 805.264 Q58.35 805.835 59.9866 806.711 Q61.6233 807.586 63.6786 809.223 Q65.7339 810.859 67.5228 812.877 Q70.4916 816.302 72.3566 820.641 Q74.2216 824.98 74.2216 829.738 Q74.2216 835.676 71.5954 840.471 Q68.9691 845.267 64.0592 848.084 Q59.1493 850.862 52.8691 850.862 Q46.2464 850.862 39.7379 847.817 Q33.2294 844.772 28.3956 839.938 Q23.5618 835.105 20.5549 828.71 Q17.5481 822.316 17.5481 815.922 Q17.5481 813.486 18.1951 811.316 Q18.8422 809.147 19.6415 807.853 Q20.4408 806.52 21.6207 805.341 Q22.7625 804.161 23.2954 803.78 Q23.8282 803.361 24.4753 802.981 L18.4996 797.538 Q17.5481 796.586 17.5481 796.358 Q17.5481 795.901 17.8145 795.711 Q18.0809 795.521 18.3474 795.521 Z" fill="#000000" fill-rule="nonzero" fill-opacity="1" /><path clip-path="url(#clip290)" d="M53.0214 786.314 Q39.8521 786.314 29.233 781.404 Q24.7798 779.311 21.0497 776.38 Q17.3197 773.449 15.6831 771.508 Q14.0464 769.567 14.0464 769.034 Q14.0464 768.273 14.8077 768.235 Q15.1883 768.235 16.1398 769.262 Q28.9285 781.823 53.0214 781.785 Q77.1904 781.785 89.4843 769.567 Q90.8164 768.235 91.2351 768.235 Q91.9963 768.235 91.9963 769.034 Q91.9963 769.567 90.4358 771.432 Q88.8753 773.297 85.2975 776.19 Q81.7197 779.082 77.3427 781.176 Q66.7235 786.314 53.0214 786.314 Z" fill="#000000" fill-rule="nonzero" fill-opacity="1" /><path clip-path="url(#clip290)" d="M20.593 709.291 Q21.3162 709.291 21.9251 709.443 L35.475 711.575 Q36.5027 711.689 36.8833 711.917 Q37.2639 712.108 37.2639 712.717 Q37.2639 713.668 36.2743 713.668 Q35.7034 713.668 34.7899 713.44 Q30.489 712.793 28.5478 712.793 Q27.2538 712.793 26.3022 713.059 Q25.3126 713.287 24.6275 713.668 Q23.9424 714.011 23.4857 714.81 Q23.0289 715.609 22.7625 716.37 Q22.4961 717.132 22.3819 718.502 Q22.2296 719.872 22.1916 721.052 Q22.1535 722.232 22.1535 724.173 Q22.1535 728.398 22.3058 729.083 Q22.4961 729.806 23.067 730.187 Q23.5999 730.529 25.1984 730.91 L66.5713 741.263 L68.2079 741.567 Q69.1214 741.567 69.4259 740.996 Q69.7304 740.425 69.9207 738.674 Q70.111 736.162 70.111 733.688 Q70.111 733.612 70.111 733.46 Q70.111 732.623 70.149 732.28 Q70.149 731.938 70.2252 731.595 Q70.3013 731.252 70.4916 731.176 Q70.6438 731.062 70.9483 731.062 Q71.6715 731.062 72.0521 731.367 Q72.3947 731.671 72.4708 731.976 Q72.5088 732.242 72.5088 732.775 Q72.5088 733.841 72.4327 736.124 Q72.3566 738.408 72.3566 739.55 L72.2805 746.02 L72.3566 752.643 Q72.3566 753.671 72.4327 755.84 Q72.5088 758.01 72.5088 759.037 Q72.5088 760.369 71.5573 760.369 Q70.4916 760.369 70.3013 759.875 Q70.111 759.342 70.111 757.096 Q70.111 753.937 69.9587 752.224 Q69.8065 750.512 69.2736 749.598 Q68.7408 748.647 68.2079 748.38 Q67.637 748.114 66.3429 747.809 L24.7417 737.342 Q23.8282 737.038 23.1051 737.038 Q22.7244 737.038 22.5722 737.152 Q22.4199 737.228 22.3058 737.723 Q22.1535 738.218 22.1535 739.245 L22.1535 742.29 Q22.1535 745.411 22.3058 747.352 Q22.4199 749.256 22.9909 751.082 Q23.5618 752.871 24.3611 753.937 Q25.1604 754.965 26.797 756.107 Q28.4337 757.248 30.4129 758.086 Q32.3921 758.885 35.6273 760.027 Q36.693 760.408 36.9975 760.636 Q37.2639 760.826 37.2639 761.359 Q37.2639 761.74 37.0356 762.044 Q36.7691 762.311 36.4266 762.311 Q35.1705 761.93 35.0183 761.854 L21.2781 757.172 Q20.1743 756.792 19.984 756.449 Q19.7556 756.069 19.7556 754.66 L19.7556 711.422 Q19.7556 710.737 19.7556 710.509 Q19.7556 710.281 19.8318 709.9 Q19.9079 709.519 20.0982 709.405 Q20.2885 709.291 20.593 709.291 Z" fill="#000000" fill-rule="nonzero" fill-opacity="1" /><path clip-path="url(#clip290)" d="M91.2351 704.121 Q90.8545 704.121 89.9029 703.132 Q77.1143 690.571 53.0214 690.571 Q28.8523 690.571 16.6346 702.637 Q15.2263 704.121 14.8077 704.121 Q14.0464 704.121 14.0464 703.36 Q14.0464 702.827 15.6069 700.962 Q17.1675 699.059 20.7452 696.204 Q24.323 693.312 28.7001 691.18 Q39.3192 686.042 53.0214 686.042 Q66.1906 686.042 76.8098 690.952 Q81.263 693.045 84.993 695.976 Q88.723 698.907 90.3597 700.848 Q91.9963 702.789 91.9963 703.36 Q91.9963 704.121 91.2351 704.121 Z" fill="#000000" fill-rule="nonzero" fill-opacity="1" /><path clip-path="url(#clip290)" d="M597.495 12.096 L605.678 12.096 L605.678 36.8875 L635.412 36.8875 L635.412 12.096 L643.595 12.096 L643.595 72.576 L635.412 72.576 L635.412 43.7741 L605.678 43.7741 L605.678 72.576 L597.495 72.576 L597.495 12.096 Z" fill="#000000" fill-rule="nonzero" fill-opacity="1" /><path clip-path="url(#clip290)" d="M698.363 48.0275 L698.363 51.6733 L664.092 51.6733 Q664.578 59.3701 668.71 63.421 Q672.883 67.4314 680.296 67.4314 Q684.59 67.4314 688.6 66.3781 Q692.651 65.3249 696.621 63.2184 L696.621 70.267 Q692.611 71.9684 688.398 72.8596 Q684.185 73.7508 679.85 73.7508 Q668.994 73.7508 662.634 67.4314 Q656.314 61.1119 656.314 50.3365 Q656.314 39.1965 662.31 32.6746 Q668.346 26.1121 678.554 26.1121 Q687.709 26.1121 693.016 32.0264 Q698.363 37.9003 698.363 48.0275 M690.909 45.84 Q690.828 39.7232 687.466 36.0774 Q684.144 32.4315 678.635 32.4315 Q672.397 32.4315 668.629 35.9558 Q664.902 39.4801 664.335 45.8805 L690.909 45.84 Z" fill="#000000" fill-rule="nonzero" fill-opacity="1" /><path clip-path="url(#clip290)" d="M731.216 49.7694 Q722.182 49.7694 718.698 51.8354 Q715.215 53.9013 715.215 58.8839 Q715.215 62.8538 717.807 65.2034 Q720.44 67.5124 724.937 67.5124 Q731.135 67.5124 734.861 63.1374 Q738.629 58.7219 738.629 51.4303 L738.629 49.7694 L731.216 49.7694 M746.082 46.6907 L746.082 72.576 L738.629 72.576 L738.629 65.6895 Q736.077 69.8214 732.269 71.8063 Q728.461 73.7508 722.952 73.7508 Q715.984 73.7508 711.852 69.8619 Q707.761 65.9325 707.761 59.3701 Q707.761 51.7138 712.865 47.825 Q718.01 43.9361 728.178 43.9361 L738.629 43.9361 L738.629 43.2069 Q738.629 38.0623 735.226 35.2672 Q731.864 32.4315 725.747 32.4315 Q721.858 32.4315 718.172 33.3632 Q714.485 34.295 711.083 36.1584 L711.083 29.2718 Q715.174 27.692 719.022 26.9223 Q722.871 26.1121 726.517 26.1121 Q736.36 26.1121 741.221 31.2163 Q746.082 36.3204 746.082 46.6907 Z" fill="#000000" fill-rule="nonzero" fill-opacity="1" /><path clip-path="url(#clip290)" d="M768.808 14.324 L768.808 27.2059 L784.161 27.2059 L784.161 32.9987 L768.808 32.9987 L768.808 57.6282 Q768.808 63.1779 770.307 64.7578 Q771.846 66.3376 776.505 66.3376 L784.161 66.3376 L784.161 72.576 L776.505 72.576 Q767.876 72.576 764.595 69.3758 Q761.314 66.1351 761.314 57.6282 L761.314 32.9987 L755.845 32.9987 L755.845 27.2059 L761.314 27.2059 L761.314 14.324 L768.808 14.324 Z" fill="#000000" fill-rule="nonzero" fill-opacity="1" /><path clip-path="url(#clip290)" d="M865.949 16.7545 L865.949 25.383 Q861.817 21.5346 857.118 19.6307 Q852.459 17.7268 847.193 17.7268 Q836.823 17.7268 831.314 24.0867 Q825.804 30.4061 825.804 42.3968 Q825.804 54.3469 831.314 60.7069 Q836.823 67.0263 847.193 67.0263 Q852.459 67.0263 857.118 65.1223 Q861.817 63.2184 865.949 59.3701 L865.949 67.9175 Q861.655 70.8341 856.834 72.2924 Q852.054 73.7508 846.707 73.7508 Q832.974 73.7508 825.075 65.3654 Q817.176 56.9395 817.176 42.3968 Q817.176 27.8135 825.075 19.4281 Q832.974 11.0023 846.707 11.0023 Q852.135 11.0023 856.915 12.4606 Q861.736 13.8784 865.949 16.7545 Z" fill="#000000" fill-rule="nonzero" fill-opacity="1" /><path clip-path="url(#clip290)" d="M898.883 49.7694 Q889.849 49.7694 886.365 51.8354 Q882.882 53.9013 882.882 58.8839 Q882.882 62.8538 885.474 65.2034 Q888.107 67.5124 892.604 67.5124 Q898.802 67.5124 902.528 63.1374 Q906.296 58.7219 906.296 51.4303 L906.296 49.7694 L898.883 49.7694 M913.749 46.6907 L913.749 72.576 L906.296 72.576 L906.296 65.6895 Q903.744 69.8214 899.936 71.8063 Q896.128 73.7508 890.619 73.7508 Q883.651 73.7508 879.519 69.8619 Q875.428 65.9325 875.428 59.3701 Q875.428 51.7138 880.532 47.825 Q885.677 43.9361 895.844 43.9361 L906.296 43.9361 L906.296 43.2069 Q906.296 38.0623 902.893 35.2672 Q899.531 32.4315 893.414 32.4315 Q889.525 32.4315 885.839 33.3632 Q882.152 34.295 878.75 36.1584 L878.75 29.2718 Q882.841 27.692 886.689 26.9223 Q890.538 26.1121 894.184 26.1121 Q904.027 26.1121 908.888 31.2163 Q913.749 36.3204 913.749 46.6907 Z" fill="#000000" fill-rule="nonzero" fill-opacity="1" /><path clip-path="url(#clip290)" d="M936.313 65.7705 L936.313 89.8329 L928.819 89.8329 L928.819 27.2059 L936.313 27.2059 L936.313 34.0924 Q938.662 30.0415 942.227 28.0971 Q945.833 26.1121 950.815 26.1121 Q959.079 26.1121 964.224 32.6746 Q969.409 39.2371 969.409 49.9314 Q969.409 60.6258 964.224 67.1883 Q959.079 73.7508 950.815 73.7508 Q945.833 73.7508 942.227 71.8063 Q938.662 69.8214 936.313 65.7705 M961.672 49.9314 Q961.672 41.7081 958.269 37.0496 Q954.907 32.3505 948.992 32.3505 Q943.078 32.3505 939.675 37.0496 Q936.313 41.7081 936.313 49.9314 Q936.313 58.1548 939.675 62.8538 Q943.078 67.5124 948.992 67.5124 Q954.907 67.5124 958.269 62.8538 Q961.672 58.1548 961.672 49.9314 Z" fill="#000000" fill-rule="nonzero" fill-opacity="1" /><path clip-path="url(#clip290)" d="M1002.38 49.7694 Q993.35 49.7694 989.866 51.8354 Q986.382 53.9013 986.382 58.8839 Q986.382 62.8538 988.975 65.2034 Q991.608 67.5124 996.104 67.5124 Q1002.3 67.5124 1006.03 63.1374 Q1009.8 58.7219 1009.8 51.4303 L1009.8 49.7694 L1002.38 49.7694 M1017.25 46.6907 L1017.25 72.576 L1009.8 72.576 L1009.8 65.6895 Q1007.24 69.8214 1003.44 71.8063 Q999.629 73.7508 994.119 73.7508 Q987.152 73.7508 983.02 69.8619 Q978.928 65.9325 978.928 59.3701 Q978.928 51.7138 984.033 47.825 Q989.177 43.9361 999.345 43.9361 L1009.8 43.9361 L1009.8 43.2069 Q1009.8 38.0623 1006.39 35.2672 Q1003.03 32.4315 996.914 32.4315 Q993.026 32.4315 989.339 33.3632 Q985.653 34.295 982.25 36.1584 L982.25 29.2718 Q986.342 27.692 990.19 26.9223 Q994.038 26.1121 997.684 26.1121 Q1007.53 26.1121 1012.39 31.2163 Q1017.25 36.3204 1017.25 46.6907 Z" fill="#000000" fill-rule="nonzero" fill-opacity="1" /><path clip-path="url(#clip290)" d="M1065.25 28.9478 L1065.25 35.9153 Q1062.09 34.1734 1058.89 33.3227 Q1055.73 32.4315 1052.49 32.4315 Q1045.24 32.4315 1041.23 37.0496 Q1037.22 41.6271 1037.22 49.9314 Q1037.22 58.2358 1041.23 62.8538 Q1045.24 67.4314 1052.49 67.4314 Q1055.73 67.4314 1058.89 66.5807 Q1062.09 65.6895 1065.25 63.9476 L1065.25 70.8341 Q1062.13 72.2924 1058.77 73.0216 Q1055.45 73.7508 1051.68 73.7508 Q1041.43 73.7508 1035.4 67.3098 Q1029.36 60.8689 1029.36 49.9314 Q1029.36 38.832 1035.44 32.472 Q1041.56 26.1121 1052.17 26.1121 Q1055.61 26.1121 1058.89 26.8413 Q1062.17 27.5299 1065.25 28.9478 Z" fill="#000000" fill-rule="nonzero" fill-opacity="1" /><path clip-path="url(#clip290)" d="M1078.22 27.2059 L1085.67 27.2059 L1085.67 72.576 L1078.22 72.576 L1078.22 27.2059 M1078.22 9.54393 L1085.67 9.54393 L1085.67 18.9825 L1078.22 18.9825 L1078.22 9.54393 Z" fill="#000000" fill-rule="nonzero" fill-opacity="1" /><path clip-path="url(#clip290)" d="M1108.64 14.324 L1108.64 27.2059 L1123.99 27.2059 L1123.99 32.9987 L1108.64 32.9987 L1108.64 57.6282 Q1108.64 63.1779 1110.14 64.7578 Q1111.68 66.3376 1116.34 66.3376 L1123.99 66.3376 L1123.99 72.576 L1116.34 72.576 Q1107.71 72.576 1104.43 69.3758 Q1101.14 66.1351 1101.14 57.6282 L1101.14 32.9987 L1095.68 32.9987 L1095.68 27.2059 L1101.14 27.2059 L1101.14 14.324 L1108.64 14.324 Z" fill="#000000" fill-rule="nonzero" fill-opacity="1" /><path clip-path="url(#clip290)" d="M1152.67 76.7889 Q1149.51 84.8907 1146.51 87.3618 Q1143.52 89.8329 1138.49 89.8329 L1132.54 89.8329 L1132.54 83.5945 L1136.91 83.5945 Q1139.99 83.5945 1141.69 82.1361 Q1143.4 80.6778 1145.46 75.2496 L1146.8 71.8468 L1128.45 27.2059 L1136.35 27.2059 L1150.52 62.6918 L1164.7 27.2059 L1172.6 27.2059 L1152.67 76.7889 Z" fill="#000000" fill-rule="nonzero" fill-opacity="1" /><path clip-path="url(#clip290)" d="M1226.84 32.4315 Q1220.85 32.4315 1217.36 37.1306 Q1213.88 41.7891 1213.88 49.9314 Q1213.88 58.0738 1217.32 62.7728 Q1220.81 67.4314 1226.84 67.4314 Q1232.8 67.4314 1236.28 62.7323 Q1239.77 58.0333 1239.77 49.9314 Q1239.77 41.8701 1236.28 37.1711 Q1232.8 32.4315 1226.84 32.4315 M1226.84 26.1121 Q1236.57 26.1121 1242.12 32.4315 Q1247.67 38.7509 1247.67 49.9314 Q1247.67 61.0714 1242.12 67.4314 Q1236.57 73.7508 1226.84 73.7508 Q1217.08 73.7508 1211.53 67.4314 Q1206.02 61.0714 1206.02 49.9314 Q1206.02 38.7509 1211.53 32.4315 Q1217.08 26.1121 1226.84 26.1121 Z" fill="#000000" fill-rule="nonzero" fill-opacity="1" /><path clip-path="url(#clip290)" d="M1282.99 9.54393 L1282.99 15.7418 L1275.86 15.7418 Q1271.85 15.7418 1270.27 17.3622 Q1268.73 18.9825 1268.73 23.1955 L1268.73 27.2059 L1281 27.2059 L1281 32.9987 L1268.73 32.9987 L1268.73 72.576 L1261.24 72.576 L1261.24 32.9987 L1254.11 32.9987 L1254.11 27.2059 L1261.24 27.2059 L1261.24 24.0462 Q1261.24 16.471 1264.76 13.0277 Q1268.28 9.54393 1275.94 9.54393 L1282.99 9.54393 Z" fill="#000000" fill-rule="nonzero" fill-opacity="1" /><path clip-path="url(#clip290)" d="M1322.97 14.324 L1322.97 27.2059 L1338.32 27.2059 L1338.32 32.9987 L1322.97 32.9987 L1322.97 57.6282 Q1322.97 63.1779 1324.47 64.7578 Q1326.01 66.3376 1330.67 66.3376 L1338.32 66.3376 L1338.32 72.576 L1330.67 72.576 Q1322.04 72.576 1318.76 69.3758 Q1315.48 66.1351 1315.48 57.6282 L1315.48 32.9987 L1310.01 32.9987 L1310.01 27.2059 L1315.48 27.2059 L1315.48 14.324 L1322.97 14.324 Z" fill="#000000" fill-rule="nonzero" fill-opacity="1" /><path clip-path="url(#clip290)" d="M1385.84 45.1919 L1385.84 72.576 L1378.39 72.576 L1378.39 45.4349 Q1378.39 38.994 1375.88 35.7938 Q1373.37 32.5936 1368.34 32.5936 Q1362.31 32.5936 1358.82 36.4419 Q1355.34 40.2903 1355.34 46.9338 L1355.34 72.576 L1347.84 72.576 L1347.84 9.54393 L1355.34 9.54393 L1355.34 34.2544 Q1358.01 30.163 1361.62 28.1376 Q1365.26 26.1121 1370 26.1121 Q1377.82 26.1121 1381.83 30.9732 Q1385.84 35.7938 1385.84 45.1919 Z" fill="#000000" fill-rule="nonzero" fill-opacity="1" /><path clip-path="url(#clip290)" d="M1439.52 48.0275 L1439.52 51.6733 L1405.25 51.6733 Q1405.73 59.3701 1409.86 63.421 Q1414.04 67.4314 1421.45 67.4314 Q1425.74 67.4314 1429.75 66.3781 Q1433.8 65.3249 1437.77 63.2184 L1437.77 70.267 Q1433.76 71.9684 1429.55 72.8596 Q1425.34 73.7508 1421 73.7508 Q1410.15 73.7508 1403.79 67.4314 Q1397.47 61.1119 1397.47 50.3365 Q1397.47 39.1965 1403.46 32.6746 Q1409.5 26.1121 1419.71 26.1121 Q1428.86 26.1121 1434.17 32.0264 Q1439.52 37.9003 1439.52 48.0275 M1432.06 45.84 Q1431.98 39.7232 1428.62 36.0774 Q1425.3 32.4315 1419.79 32.4315 Q1413.55 32.4315 1409.78 35.9558 Q1406.06 39.4801 1405.49 45.8805 L1432.06 45.84 Z" fill="#000000" fill-rule="nonzero" fill-opacity="1" /><path clip-path="url(#clip290)" d="M1497.69 39.075 Q1492.18 39.075 1488.94 42.8424 Q1485.74 46.6097 1485.74 53.1722 Q1485.74 59.6941 1488.94 63.502 Q1492.18 67.2693 1497.69 67.2693 Q1503.2 67.2693 1506.4 63.502 Q1509.64 59.6941 1509.64 53.1722 Q1509.64 46.6097 1506.4 42.8424 Q1503.2 39.075 1497.69 39.075 M1513.93 13.4328 L1513.93 20.8865 Q1510.85 19.4281 1507.69 18.6585 Q1504.57 17.8888 1501.5 17.8888 Q1493.39 17.8888 1489.1 23.3575 Q1484.85 28.8262 1484.24 39.8852 Q1486.63 36.3609 1490.23 34.4975 Q1493.84 32.5936 1498.17 32.5936 Q1507.29 32.5936 1512.55 38.1433 Q1517.86 43.6525 1517.86 53.1722 Q1517.86 62.4892 1512.35 68.12 Q1506.84 73.7508 1497.69 73.7508 Q1487.2 73.7508 1481.65 65.73 Q1476.1 57.6687 1476.1 42.3968 Q1476.1 28.0566 1482.9 19.5497 Q1489.71 11.0023 1501.17 11.0023 Q1504.25 11.0023 1507.37 11.6099 Q1510.53 12.2175 1513.93 13.4328 Z" fill="#000000" fill-rule="nonzero" fill-opacity="1" /><path clip-path="url(#clip290)" d="M1527.14 46.5287 L1548.97 46.5287 L1548.97 53.1722 L1527.14 53.1722 L1527.14 46.5287 Z" fill="#000000" fill-rule="nonzero" fill-opacity="1" /><path clip-path="url(#clip290)" d="M1597.42 14.0809 L1597.42 22.0612 Q1592.76 19.8332 1588.63 18.7395 Q1584.5 17.6457 1580.65 17.6457 Q1573.97 17.6457 1570.32 20.2383 Q1566.71 22.8309 1566.71 27.611 Q1566.71 31.6214 1569.1 33.6873 Q1571.54 35.7128 1578.26 36.9686 L1583.2 37.9813 Q1592.36 39.7232 1596.69 44.1387 Q1601.07 48.5136 1601.07 55.8863 Q1601.07 64.6767 1595.15 69.2137 Q1589.28 73.7508 1577.9 73.7508 Q1573.6 73.7508 1568.74 72.7785 Q1563.92 71.8063 1558.73 69.9024 L1558.73 61.4765 Q1563.72 64.2716 1568.5 65.6895 Q1573.28 67.1073 1577.9 67.1073 Q1584.9 67.1073 1588.71 64.3527 Q1592.52 61.598 1592.52 56.4939 Q1592.52 52.0379 1589.76 49.5264 Q1587.05 47.0148 1580.81 45.759 L1575.83 44.7868 Q1566.67 42.9639 1562.58 39.075 Q1558.49 35.1862 1558.49 28.2591 Q1558.49 20.2383 1564.12 15.6203 Q1569.79 11.0023 1579.72 11.0023 Q1583.97 11.0023 1588.39 11.7719 Q1592.8 12.5416 1597.42 14.0809 Z" fill="#000000" fill-rule="nonzero" fill-opacity="1" /><path clip-path="url(#clip290)" d="M1620.88 14.324 L1620.88 27.2059 L1636.23 27.2059 L1636.23 32.9987 L1620.88 32.9987 L1620.88 57.6282 Q1620.88 63.1779 1622.37 64.7578 Q1623.91 66.3376 1628.57 66.3376 L1636.23 66.3376 L1636.23 72.576 L1628.57 72.576 Q1619.94 72.576 1616.66 69.3758 Q1613.38 66.1351 1613.38 57.6282 L1613.38 32.9987 L1607.91 32.9987 L1607.91 27.2059 L1613.38 27.2059 L1613.38 14.324 L1620.88 14.324 Z" fill="#000000" fill-rule="nonzero" fill-opacity="1" /><path clip-path="url(#clip290)" d="M1666.65 49.7694 Q1657.62 49.7694 1654.13 51.8354 Q1650.65 53.9013 1650.65 58.8839 Q1650.65 62.8538 1653.24 65.2034 Q1655.88 67.5124 1660.37 67.5124 Q1666.57 67.5124 1670.3 63.1374 Q1674.06 58.7219 1674.06 51.4303 L1674.06 49.7694 L1666.65 49.7694 M1681.52 46.6907 L1681.52 72.576 L1674.06 72.576 L1674.06 65.6895 Q1671.51 69.8214 1667.7 71.8063 Q1663.9 73.7508 1658.39 73.7508 Q1651.42 73.7508 1647.29 69.8619 Q1643.2 65.9325 1643.2 59.3701 Q1643.2 51.7138 1648.3 47.825 Q1653.44 43.9361 1663.61 43.9361 L1674.06 43.9361 L1674.06 43.2069 Q1674.06 38.0623 1670.66 35.2672 Q1667.3 32.4315 1661.18 32.4315 Q1657.29 32.4315 1653.61 33.3632 Q1649.92 34.295 1646.52 36.1584 L1646.52 29.2718 Q1650.61 27.692 1654.46 26.9223 Q1658.31 26.1121 1661.95 26.1121 Q1671.8 26.1121 1676.66 31.2163 Q1681.52 36.3204 1681.52 46.6907 Z" fill="#000000" fill-rule="nonzero" fill-opacity="1" /><path clip-path="url(#clip290)" d="M1704.24 14.324 L1704.24 27.2059 L1719.6 27.2059 L1719.6 32.9987 L1704.24 32.9987 L1704.24 57.6282 Q1704.24 63.1779 1705.74 64.7578 Q1707.28 66.3376 1711.94 66.3376 L1719.6 66.3376 L1719.6 72.576 L1711.94 72.576 Q1703.31 72.576 1700.03 69.3758 Q1696.75 66.1351 1696.75 57.6282 L1696.75 32.9987 L1691.28 32.9987 L1691.28 27.2059 L1696.75 27.2059 L1696.75 14.324 L1704.24 14.324 Z" fill="#000000" fill-rule="nonzero" fill-opacity="1" /><path clip-path="url(#clip290)" d="M1768.21 48.0275 L1768.21 51.6733 L1733.94 51.6733 Q1734.42 59.3701 1738.55 63.421 Q1742.73 67.4314 1750.14 67.4314 Q1754.43 67.4314 1758.44 66.3781 Q1762.49 65.3249 1766.46 63.2184 L1766.46 70.267 Q1762.45 71.9684 1758.24 72.8596 Q1754.03 73.7508 1749.69 73.7508 Q1738.84 73.7508 1732.48 67.4314 Q1726.16 61.1119 1726.16 50.3365 Q1726.16 39.1965 1732.15 32.6746 Q1738.19 26.1121 1748.4 26.1121 Q1757.55 26.1121 1762.86 32.0264 Q1768.21 37.9003 1768.21 48.0275 M1760.75 45.84 Q1760.67 39.7232 1757.31 36.0774 Q1753.99 32.4315 1748.48 32.4315 Q1742.24 32.4315 1738.47 35.9558 Q1734.75 39.4801 1734.18 45.8805 L1760.75 45.84 Z" fill="#000000" fill-rule="nonzero" fill-opacity="1" /><path clip-path="url(#clip290)" d="M1843.39 14.0809 L1843.39 22.0612 Q1838.73 19.8332 1834.6 18.7395 Q1830.47 17.6457 1826.62 17.6457 Q1819.94 17.6457 1816.29 20.2383 Q1812.69 22.8309 1812.69 27.611 Q1812.69 31.6214 1815.08 33.6873 Q1817.51 35.7128 1824.23 36.9686 L1829.17 37.9813 Q1838.33 39.7232 1842.66 44.1387 Q1847.04 48.5136 1847.04 55.8863 Q1847.04 64.6767 1841.12 69.2137 Q1835.25 73.7508 1823.87 73.7508 Q1819.57 73.7508 1814.71 72.7785 Q1809.89 71.8063 1804.71 69.9024 L1804.71 61.4765 Q1809.69 64.2716 1814.47 65.6895 Q1819.25 67.1073 1823.87 67.1073 Q1830.87 67.1073 1834.68 64.3527 Q1838.49 61.598 1838.49 56.4939 Q1838.49 52.0379 1835.74 49.5264 Q1833.02 47.0148 1826.78 45.759 L1821.8 44.7868 Q1812.65 42.9639 1808.55 39.075 Q1804.46 35.1862 1804.46 28.2591 Q1804.46 20.2383 1810.09 15.6203 Q1815.76 11.0023 1825.69 11.0023 Q1829.94 11.0023 1834.36 11.7719 Q1838.77 12.5416 1843.39 14.0809 Z" fill="#000000" fill-rule="nonzero" fill-opacity="1" /><path clip-path="url(#clip290)" d="M1878.35 76.7889 Q1875.19 84.8907 1872.19 87.3618 Q1869.2 89.8329 1864.17 89.8329 L1858.22 89.8329 L1858.22 83.5945 L1862.59 83.5945 Q1865.67 83.5945 1867.37 82.1361 Q1869.07 80.6778 1871.14 75.2496 L1872.48 71.8468 L1854.13 27.2059 L1862.03 27.2059 L1876.2 62.6918 L1890.38 27.2059 L1898.28 27.2059 L1878.35 76.7889 Z" fill="#000000" fill-rule="nonzero" fill-opacity="1" /><path clip-path="url(#clip290)" d="M1937.49 28.5427 L1937.49 35.5912 Q1934.33 33.9709 1930.93 33.1607 Q1927.53 32.3505 1923.88 32.3505 Q1918.33 32.3505 1915.54 34.0519 Q1912.78 35.7533 1912.78 39.156 Q1912.78 41.7486 1914.77 43.2475 Q1916.75 44.7058 1922.75 46.0426 L1925.3 46.6097 Q1933.24 48.3111 1936.56 51.4303 Q1939.92 54.509 1939.92 60.0587 Q1939.92 66.3781 1934.9 70.0644 Q1929.92 73.7508 1921.17 73.7508 Q1917.52 73.7508 1913.55 73.0216 Q1909.62 72.3329 1905.25 70.9151 L1905.25 63.2184 Q1909.38 65.3654 1913.39 66.4591 Q1917.4 67.5124 1921.33 67.5124 Q1926.6 67.5124 1929.43 65.73 Q1932.27 63.9071 1932.27 60.6258 Q1932.27 57.5877 1930.2 55.9673 Q1928.18 54.3469 1921.25 52.8481 L1918.66 52.2405 Q1911.73 50.7821 1908.65 47.7845 Q1905.57 44.7463 1905.57 39.4801 Q1905.57 33.0797 1910.11 29.5959 Q1914.65 26.1121 1922.99 26.1121 Q1927.12 26.1121 1930.77 26.7198 Q1934.42 27.3274 1937.49 28.5427 Z" fill="#000000" fill-rule="nonzero" fill-opacity="1" /><path clip-path="url(#clip290)" d="M1959.17 14.324 L1959.17 27.2059 L1974.52 27.2059 L1974.52 32.9987 L1959.17 32.9987 L1959.17 57.6282 Q1959.17 63.1779 1960.67 64.7578 Q1962.2 66.3376 1966.86 66.3376 L1974.52 66.3376 L1974.52 72.576 L1966.86 72.576 Q1958.23 72.576 1954.95 69.3758 Q1951.67 66.1351 1951.67 57.6282 L1951.67 32.9987 L1946.2 32.9987 L1946.2 27.2059 L1951.67 27.2059 L1951.67 14.324 L1959.17 14.324 Z" fill="#000000" fill-rule="nonzero" fill-opacity="1" /><path clip-path="url(#clip290)" d="M2023.13 48.0275 L2023.13 51.6733 L1988.86 51.6733 Q1989.35 59.3701 1993.48 63.421 Q1997.65 67.4314 2005.06 67.4314 Q2009.36 67.4314 2013.37 66.3781 Q2017.42 65.3249 2021.39 63.2184 L2021.39 70.267 Q2017.38 71.9684 2013.16 72.8596 Q2008.95 73.7508 2004.62 73.7508 Q1993.76 73.7508 1987.4 67.4314 Q1981.08 61.1119 1981.08 50.3365 Q1981.08 39.1965 1987.08 32.6746 Q1993.11 26.1121 2003.32 26.1121 Q2012.48 26.1121 2017.78 32.0264 Q2023.13 37.9003 2023.13 48.0275 M2015.68 45.84 Q2015.6 39.7232 2012.23 36.0774 Q2008.91 32.4315 2003.4 32.4315 Q1997.16 32.4315 1993.4 35.9558 Q1989.67 39.4801 1989.1 45.8805 L2015.68 45.84 Z" fill="#000000" fill-rule="nonzero" fill-opacity="1" /><path clip-path="url(#clip290)" d="M2070.69 35.9153 Q2073.48 30.8922 2077.37 28.5022 Q2081.26 26.1121 2086.53 26.1121 Q2093.62 26.1121 2097.46 31.0947 Q2101.31 36.0368 2101.31 45.1919 L2101.31 72.576 L2093.82 72.576 L2093.82 45.4349 Q2093.82 38.913 2091.51 35.7533 Q2089.2 32.5936 2084.46 32.5936 Q2078.67 32.5936 2075.31 36.4419 Q2071.94 40.2903 2071.94 46.9338 L2071.94 72.576 L2064.45 72.576 L2064.45 45.4349 Q2064.45 38.8725 2062.14 35.7533 Q2059.83 32.5936 2055.01 32.5936 Q2049.3 32.5936 2045.94 36.4824 Q2042.57 40.3308 2042.57 46.9338 L2042.57 72.576 L2035.08 72.576 L2035.08 27.2059 L2042.57 27.2059 L2042.57 34.2544 Q2045.13 30.082 2048.69 28.0971 Q2052.26 26.1121 2057.16 26.1121 Q2062.1 26.1121 2065.54 28.6237 Q2069.03 31.1352 2070.69 35.9153 Z" fill="#000000" fill-rule="nonzero" fill-opacity="1" /><polyline clip-path="url(#clip292)" style="stroke:#0000ff; stroke-linecap:round; stroke-linejoin:round; stroke-width:8; stroke-opacity:1; fill:none" points="402.845,1156.82 410.8,1148 418.754,1136.48 426.708,1122.47 434.663,1106.13 442.617,1087.79 450.571,1067.81 458.525,1046.55 466.48,1024.35 474.434,1001.53 482.388,978.376 490.342,955.116 498.297,931.945 506.251,909.014 514.205,886.441 522.16,864.311 530.114,842.683 538.068,821.595 546.022,801.068 553.977,781.11 561.931,761.718 569.885,742.884 577.839,724.594 585.794,706.832 593.748,689.58 601.702,672.821 609.657,656.538 617.611,640.716 625.565,625.34 633.519,610.4 641.474,595.886 649.428,581.789 657.382,568.104 665.336,554.826 673.291,541.954 681.245,529.485 689.199,517.42 697.154,505.758 705.108,494.501 713.062,483.651 721.016,473.209 728.971,463.178 736.925,453.559 744.879,444.354 752.833,435.564 760.788,427.191 768.742,419.234 776.696,411.694 784.651,404.569 792.605,397.859 800.559,391.562 808.513,385.675 816.468,380.194 824.422,375.117 832.376,370.437 840.33,366.15 848.285,362.251 856.239,358.734 864.193,355.59 872.148,352.814 880.102,350.398 888.056,348.334 896.01,346.613 903.965,345.227 911.919,344.167 919.873,343.424 927.827,342.989 935.782,342.852 943.736,343.004 951.69,343.436 959.645,344.137 967.599,345.098 975.553,346.31 983.507,347.763 991.462,349.447 999.416,351.354 1007.37,353.473 1015.32,355.796 1023.28,358.313 1031.23,361.015 1039.19,363.895 1047.14,366.942 1055.1,370.15 1063.05,373.509 1071,377.012 1078.96,380.651 1086.91,384.417 1094.87,388.305 1102.82,392.306 1110.78,396.415 1118.73,400.623 1126.68,404.924 1134.64,409.313 1142.59,413.782 1150.55,418.327 1158.5,422.941 1166.46,427.62 1174.41,432.357 1182.36,437.148 1190.32,441.987 1198.27,446.871 1206.23,451.795 1214.18,456.754 1222.14,461.744 1230.09,466.761 1238.04,471.802 1246,476.864 1253.95,481.941 1261.91,487.032 1269.86,492.133 1277.82,497.241 1285.77,502.354 1293.72,507.468 1301.68,512.581 1309.63,517.691 1317.59,522.796 1325.54,527.892 1333.5,532.978 1341.45,538.053 1349.4,543.114 1357.36,548.159 1365.31,553.187 1373.27,558.196 1381.22,563.186 1389.18,568.153 1397.13,573.098 1405.08,578.019 1413.04,582.914 1420.99,587.783 1428.95,592.625 1436.9,597.439 1444.86,602.224 1452.81,606.979 1460.76,611.703 1468.72,616.396 1476.67,621.057 1484.63,625.686 1492.58,630.282 1500.54,634.844 1508.49,639.373 1516.44,643.867 1524.4,648.327 1532.35,652.751 1540.31,657.141 1548.26,661.494 1556.22,665.813 1564.17,670.095 1572.12,674.342 1580.08,678.552 1588.03,682.726 1595.99,686.864 1603.94,690.965 1611.89,695.03 1619.85,699.059 1627.8,703.052 1635.76,707.008 1643.71,710.928 1651.67,714.812 1659.62,718.66 1667.57,722.472 1675.53,726.248 1683.48,729.988 1691.44,733.693 1699.39,737.363 1707.35,740.997 1715.3,744.596 1723.25,748.161 1731.21,751.691 1739.16,755.186 1747.12,758.647 1755.07,762.074 1763.03,765.468 1770.98,768.828 1778.93,772.154 1786.89,775.447 1794.84,778.708 1802.8,781.936 1810.75,785.132 1818.71,788.296 1826.66,791.428 1834.61,794.528 1842.57,797.597 1850.52,800.636 1858.48,803.643 1866.43,806.62 1874.39,809.567 1882.34,812.484 1890.29,815.372 1898.25,818.23 1906.2,821.059 1914.16,823.86 1922.11,826.632 1930.07,829.376 1938.02,832.091 1945.97,834.78 1953.93,837.441 1961.88,840.074 1969.84,842.681 1977.79,845.262 1985.75,847.816 1993.7,850.344 2001.65,852.847 2009.61,855.324 2017.56,857.776 2025.52,860.203 2033.47,862.605 2041.43,864.983 2049.38,867.337 2057.33,869.667 2065.29,871.974 2073.24,874.257 2081.2,876.517 2089.15,878.754 2097.11,880.969 2105.06,883.161 2113.01,885.331 2120.97,887.48 2128.92,889.607 2136.88,891.712 2144.83,893.797 2152.79,895.861 2160.74,897.904 2168.69,899.926 2176.65,901.929 2184.6,903.911 2192.56,905.874 2200.51,907.817 2208.47,909.741 2216.42,911.646 2224.37,913.532 2232.33,915.4 2240.28,917.249 2248.24,919.08 2256.19,920.893 2264.15,922.688 2272.1,924.465 2280.05,926.226 2288.01,927.969 2295.96,929.695 "/>
<polyline clip-path="url(#clip292)" style="stroke:#008000; stroke-linecap:round; stroke-linejoin:round; stroke-width:8; stroke-opacity:1; fill:none" points="402.845,933.168 410.8,889.145 418.754,847.945 426.708,810.324 434.663,776.718 442.617,747.329 450.571,722.172 458.525,701.131 466.48,683.991 474.434,670.468 482.388,660.232 490.342,652.929 498.297,648.195 506.251,645.67 514.205,645.006 522.16,645.877 530.114,647.979 538.068,651.037 546.022,654.805 553.977,659.066 561.931,663.631 569.885,668.337 577.839,673.047 585.794,677.649 593.748,682.049 601.702,686.174 609.657,689.967 617.611,693.386 625.565,696.401 633.519,698.994 641.474,701.157 649.428,702.888 657.382,704.193 665.336,705.083 673.291,705.573 681.245,705.682 689.199,705.431 697.154,704.845 705.108,703.948 713.062,702.766 721.016,701.325 728.971,699.651 736.925,697.771 744.879,695.71 752.833,693.494 760.788,691.146 768.742,688.69 776.696,686.147 784.651,683.54 792.605,680.888 800.559,678.209 808.513,675.521 816.468,672.84 824.422,670.182 832.376,667.56 840.33,664.987 848.285,662.475 856.239,660.033 864.193,657.673 872.148,655.401 880.102,653.226 888.056,651.155 896.01,649.192 903.965,647.343 911.919,645.613 919.873,644.004 927.827,642.52 935.782,641.163 943.736,639.934 951.69,638.835 959.645,637.866 967.599,637.027 975.553,636.319 983.507,635.74 991.462,635.29 999.416,634.967 1007.37,634.77 1015.32,634.698 1023.28,634.747 1031.23,634.917 1039.19,635.204 1047.14,635.606 1055.1,636.121 1063.05,636.746 1071,637.477 1078.96,638.312 1086.91,639.248 1094.87,640.282 1102.82,641.411 1110.78,642.632 1118.73,643.941 1126.68,645.336 1134.64,646.813 1142.59,648.369 1150.55,650.002 1158.5,651.708 1166.46,653.483 1174.41,655.327 1182.36,657.234 1190.32,659.203 1198.27,661.23 1206.23,663.313 1214.18,665.449 1222.14,667.636 1230.09,669.87 1238.04,672.149 1246,674.471 1253.95,676.834 1261.91,679.234 1269.86,681.67 1277.82,684.139 1285.77,686.64 1293.72,689.17 1301.68,691.727 1309.63,694.309 1317.59,696.914 1325.54,699.541 1333.5,702.187 1341.45,704.851 1349.4,707.531 1357.36,710.227 1365.31,712.935 1373.27,715.654 1381.22,718.384 1389.18,721.123 1397.13,723.869 1405.08,726.622 1413.04,729.379 1420.99,732.14 1428.95,734.904 1436.9,737.669 1444.86,740.435 1452.81,743.2 1460.76,745.964 1468.72,748.726 1476.67,751.485 1484.63,754.239 1492.58,756.989 1500.54,759.734 1508.49,762.472 1516.44,765.203 1524.4,767.926 1532.35,770.642 1540.31,773.348 1548.26,776.045 1556.22,778.733 1564.17,781.41 1572.12,784.076 1580.08,786.731 1588.03,789.374 1595.99,792.005 1603.94,794.623 1611.89,797.229 1619.85,799.822 1627.8,802.401 1635.76,804.966 1643.71,807.517 1651.67,810.054 1659.62,812.576 1667.57,815.084 1675.53,817.576 1683.48,820.054 1691.44,822.516 1699.39,824.962 1707.35,827.393 1715.3,829.809 1723.25,832.208 1731.21,834.591 1739.16,836.958 1747.12,839.31 1755.07,841.644 1763.03,843.963 1770.98,846.265 1778.93,848.551 1786.89,850.82 1794.84,853.073 1802.8,855.309 1810.75,857.529 1818.71,859.732 1826.66,861.919 1834.61,864.089 1842.57,866.243 1850.52,868.38 1858.48,870.501 1866.43,872.605 1874.39,874.693 1882.34,876.765 1890.29,878.82 1898.25,880.859 1906.2,882.882 1914.16,884.889 1922.11,886.88 1930.07,888.854 1938.02,890.813 1945.97,892.756 1953.93,894.683 1961.88,896.595 1969.84,898.49 1977.79,900.371 1985.75,902.235 1993.7,904.085 2001.65,905.919 2009.61,907.738 2017.56,909.542 2025.52,911.331 2033.47,913.104 2041.43,914.864 2049.38,916.608 2057.33,918.338 2065.29,920.053 2073.24,921.754 2081.2,923.44 2089.15,925.113 2097.11,926.771 2105.06,928.415 2113.01,930.045 2120.97,931.662 2128.92,933.265 2136.88,934.854 2144.83,936.43 2152.79,937.992 2160.74,939.541 2168.69,941.077 2176.65,942.6 2184.6,944.11 2192.56,945.608 2200.51,947.092 2208.47,948.564 2216.42,950.023 2224.37,951.47 2232.33,952.905 2240.28,954.327 2248.24,955.738 2256.19,957.136 2264.15,958.523 2272.1,959.898 2280.05,961.261 2288.01,962.612 2295.96,963.952 "/>
<polyline clip-path="url(#clip292)" style="stroke:#ffa500; stroke-linecap:round; stroke-linejoin:round; stroke-width:8; stroke-opacity:1; fill:none" points="402.845,1170.11 410.8,1168.72 418.754,1166.28 426.708,1162.44 434.663,1156.8 442.617,1149.06 450.571,1138.96 458.525,1126.35 466.48,1111.16 474.434,1093.43 482.388,1073.26 490.342,1050.83 498.297,1026.35 506.251,1000.1 514.205,972.363 522.16,943.426 530.114,913.589 538.068,883.139 546.022,852.349 553.977,821.472 561.931,790.738 569.885,760.353 577.839,730.497 585.794,701.326 593.748,672.971 601.702,645.539 609.657,619.118 617.611,593.773 625.565,569.554 633.519,546.494 641.474,524.612 649.428,503.915 657.382,484.4 665.336,466.056 673.291,448.864 681.245,432.798 689.199,417.83 697.154,403.925 705.108,391.049 713.062,379.163 721.016,368.227 728.971,358.203 736.925,349.049 744.879,340.727 752.833,333.196 760.788,326.418 768.742,320.356 776.696,314.973 784.651,310.233 792.605,306.103 800.559,302.551 808.513,299.544 816.468,297.055 824.422,295.053 832.376,293.512 840.33,292.408 848.285,291.715 856.239,291.41 864.193,291.473 872.148,291.882 880.102,292.618 888.056,293.662 896.01,294.998 903.965,296.608 911.919,298.477 919.873,300.591 927.827,302.935 935.782,305.496 943.736,308.263 951.69,311.222 959.645,314.363 967.599,317.675 975.553,321.148 983.507,324.772 991.462,328.538 999.416,332.438 1007.37,336.463 1015.32,340.605 1023.28,344.857 1031.23,349.212 1039.19,353.662 1047.14,358.202 1055.1,362.825 1063.05,367.525 1071,372.296 1078.96,377.134 1086.91,382.032 1094.87,386.986 1102.82,391.992 1110.78,397.043 1118.73,402.137 1126.68,407.27 1134.64,412.436 1142.59,417.632 1150.55,422.855 1158.5,428.102 1166.46,433.368 1174.41,438.651 1182.36,443.947 1190.32,449.254 1198.27,454.569 1206.23,459.889 1214.18,465.212 1222.14,470.536 1230.09,475.857 1238.04,481.174 1246,486.485 1253.95,491.788 1261.91,497.08 1269.86,502.36 1277.82,507.627 1285.77,512.879 1293.72,518.113 1301.68,523.33 1309.63,528.526 1317.59,533.702 1325.54,538.855 1333.5,543.985 1341.45,549.09 1349.4,554.17 1357.36,559.223 1365.31,564.249 1373.27,569.247 1381.22,574.215 1389.18,579.154 1397.13,584.062 1405.08,588.938 1413.04,593.783 1420.99,598.596 1428.95,603.375 1436.9,608.122 1444.86,612.834 1452.81,617.512 1460.76,622.156 1468.72,626.765 1476.67,631.339 1484.63,635.877 1492.58,640.379 1500.54,644.846 1508.49,649.276 1516.44,653.671 1524.4,658.029 1532.35,662.35 1540.31,666.636 1548.26,670.884 1556.22,675.096 1564.17,679.272 1572.12,683.411 1580.08,687.513 1588.03,691.579 1595.99,695.608 1603.94,699.601 1611.89,703.558 1619.85,707.478 1627.8,711.363 1635.76,715.211 1643.71,719.024 1651.67,722.801 1659.62,726.543 1667.57,730.249 1675.53,733.92 1683.48,737.556 1691.44,741.157 1699.39,744.724 1707.35,748.257 1715.3,751.755 1723.25,755.219 1731.21,758.65 1739.16,762.047 1747.12,765.411 1755.07,768.743 1763.03,772.041 1770.98,775.307 1778.93,778.54 1786.89,781.742 1794.84,784.912 1802.8,788.051 1810.75,791.158 1818.71,794.234 1826.66,797.28 1834.61,800.296 1842.57,803.281 1850.52,806.236 1858.48,809.162 1866.43,812.059 1874.39,814.926 1882.34,817.765 1890.29,820.575 1898.25,823.357 1906.2,826.111 1914.16,828.838 1922.11,831.537 1930.07,834.209 1938.02,836.854 1945.97,839.472 1953.93,842.064 1961.88,844.631 1969.84,847.171 1977.79,849.686 1985.75,852.175 1993.7,854.64 2001.65,857.08 2009.61,859.495 2017.56,861.886 2025.52,864.254 2033.47,866.597 2041.43,868.917 2049.38,871.214 2057.33,873.488 2065.29,875.739 2073.24,877.968 2081.2,880.174 2089.15,882.359 2097.11,884.522 2105.06,886.663 2113.01,888.783 2120.97,890.882 2128.92,892.961 2136.88,895.018 2144.83,897.056 2152.79,899.073 2160.74,901.07 2168.69,903.048 2176.65,905.006 2184.6,906.945 2192.56,908.865 2200.51,910.767 2208.47,912.649 2216.42,914.513 2224.37,916.359 2232.33,918.187 2240.28,919.998 2248.24,921.79 2256.19,923.566 2264.15,925.324 2272.1,927.065 2280.05,928.789 2288.01,930.497 2295.96,932.188 "/>
<polyline clip-path="url(#clip292)" style="stroke:#ff0000; stroke-linecap:round; stroke-linejoin:round; stroke-width:8; stroke-opacity:1; fill:none" points="402.845,159.645 410.8,261.327 418.754,361.948 426.708,452.08 434.663,533.8 442.617,608.487 450.571,677.035 458.525,740.295 466.48,798.886 474.434,853.331 482.388,904.004 490.342,951.173 498.297,995.061 506.251,1035.84 514.205,1073.64 522.16,1108.6 530.114,1140.82 538.068,1170.41 546.022,1197.46 553.977,1222.08 561.931,1244.36 569.885,1264.39 577.839,1282.28 585.794,1298.13 593.748,1312.03 601.702,1324.08 609.657,1334.38 617.611,1343.03 625.565,1350.12 633.519,1355.75 641.474,1360.01 649.428,1362.98 657.382,1364.75 665.336,1365.41 673.291,1365.03 681.245,1363.7 689.199,1361.49 697.154,1358.47 705.108,1354.7 713.062,1350.26 721.016,1345.21 728.971,1339.6 736.925,1333.49 744.879,1326.93 752.833,1319.98 760.788,1312.68 768.742,1305.07 776.696,1297.19 784.651,1289.09 792.605,1280.8 800.559,1272.36 808.513,1263.79 816.468,1255.12 824.422,1246.39 832.376,1237.62 840.33,1228.83 848.285,1220.04 856.239,1211.27 864.193,1202.55 872.148,1193.88 880.102,1185.28 888.056,1176.77 896.01,1168.36 903.965,1160.06 911.919,1151.88 919.873,1143.82 927.827,1135.91 935.782,1128.13 943.736,1120.51 951.69,1113.04 959.645,1105.74 967.599,1098.59 975.553,1091.61 983.507,1084.8 991.462,1078.16 999.416,1071.7 1007.37,1065.4 1015.32,1059.28 1023.28,1053.34 1031.23,1047.57 1039.19,1041.97 1047.14,1036.54 1055.1,1031.29 1063.05,1026.2 1071,1021.28 1078.96,1016.53 1086.91,1011.94 1094.87,1007.51 1102.82,1003.25 1110.78,999.134 1118.73,995.176 1126.68,991.371 1134.64,987.713 1142.59,984.201 1150.55,980.832 1158.5,977.603 1166.46,974.511 1174.41,971.552 1182.36,968.724 1190.32,966.024 1198.27,963.449 1206.23,960.995 1214.18,958.659 1222.14,956.44 1230.09,954.332 1238.04,952.334 1246,950.443 1253.95,948.656 1261.91,946.969 1269.86,945.381 1277.82,943.887 1285.77,942.486 1293.72,941.175 1301.68,939.95 1309.63,938.811 1317.59,937.753 1325.54,936.774 1333.5,935.873 1341.45,935.045 1349.4,934.29 1357.36,933.605 1365.31,932.987 1373.27,932.435 1381.22,931.946 1389.18,931.518 1397.13,931.149 1405.08,930.837 1413.04,930.58 1420.99,930.376 1428.95,930.223 1436.9,930.12 1444.86,930.065 1452.81,930.056 1460.76,930.091 1468.72,930.169 1476.67,930.289 1484.63,930.447 1492.58,930.645 1500.54,930.878 1508.49,931.148 1516.44,931.451 1524.4,931.787 1532.35,932.154 1540.31,932.551 1548.26,932.978 1556.22,933.432 1564.17,933.912 1572.12,934.419 1580.08,934.95 1588.03,935.504 1595.99,936.08 1603.94,936.679 1611.89,937.297 1619.85,937.935 1627.8,938.593 1635.76,939.267 1643.71,939.96 1651.67,940.668 1659.62,941.392 1667.57,942.13 1675.53,942.883 1683.48,943.649 1691.44,944.427 1699.39,945.218 1707.35,946.02 1715.3,946.833 1723.25,947.656 1731.21,948.488 1739.16,949.33 1747.12,950.18 1755.07,951.038 1763.03,951.904 1770.98,952.776 1778.93,953.656 1786.89,954.541 1794.84,955.432 1802.8,956.329 1810.75,957.23 1818.71,958.136 1826.66,959.046 1834.61,959.959 1842.57,960.876 1850.52,961.796 1858.48,962.719 1866.43,963.645 1874.39,964.572 1882.34,965.502 1890.29,966.433 1898.25,967.365 1906.2,968.298 1914.16,969.233 1922.11,970.167 1930.07,971.102 1938.02,972.038 1945.97,972.973 1953.93,973.908 1961.88,974.842 1969.84,975.776 1977.79,976.709 1985.75,977.641 1993.7,978.571 2001.65,979.501 2009.61,980.429 2017.56,981.355 2025.52,982.279 2033.47,983.202 2041.43,984.122 2049.38,985.041 2057.33,985.957 2065.29,986.87 2073.24,987.781 2081.2,988.69 2089.15,989.596 2097.11,990.499 2105.06,991.399 2113.01,992.296 2120.97,993.19 2128.92,994.081 2136.88,994.969 2144.83,995.853 2152.79,996.734 2160.74,997.612 2168.69,998.486 2176.65,999.357 2184.6,1000.22 2192.56,1001.09 2200.51,1001.95 2208.47,1002.8 2216.42,1003.66 2224.37,1004.5 2232.33,1005.35 2240.28,1006.19 2248.24,1007.03 2256.19,1007.86 2264.15,1008.69 2272.1,1009.51 2280.05,1010.33 2288.01,1011.15 2295.96,1011.96 "/>
<path clip-path="url(#clip290)" d="M1796.45 522.476 L2285.87 522.476 L2285.87 166.076 L1796.45 166.076  Z" fill="#ffffff" fill-rule="evenodd" fill-opacity="1"/>
<polyline clip-path="url(#clip290)" style="stroke:#000000; stroke-linecap:round; stroke-linejoin:round; stroke-width:4; stroke-opacity:1; fill:none" points="1796.45,522.476 2285.87,522.476 2285.87,166.076 1796.45,166.076 1796.45,522.476 "/>
<polyline clip-path="url(#clip290)" style="stroke:#0000ff; stroke-linecap:round; stroke-linejoin:round; stroke-width:11; stroke-opacity:1; fill:none" points="1818.74,237.356 1952.52,237.356 "/>
<path clip-path="url(#clip290)" d="M2001.42 232.276 Q2001.42 232.952 2000.84 233.5 Q2000.3 234.047 1999.62 234.047 Q1999.23 234.047 1998.3 233.403 Q1995.63 231.535 1992.24 231.535 Q1989.22 231.535 1986.41 232.276 Q1983.61 233.017 1981.71 234.53 Q1979.84 236.012 1979.84 237.944 Q1979.84 240.359 1982.49 241.777 Q1985.22 240.521 1988.6 240.521 Q1989.7 240.521 1990.44 240.585 Q1991.21 240.649 1991.95 240.81 Q1992.69 240.971 1993.05 241.358 Q1993.44 241.712 1993.44 242.292 Q1993.44 244.353 1988.09 244.353 Q1984.61 244.353 1982.42 243.419 Q1979.62 244.804 1978.07 247.026 Q1976.53 249.248 1976.53 251.148 Q1976.53 252.791 1977.43 253.983 Q1978.36 255.174 1979.88 255.754 Q1981.42 256.334 1982.94 256.591 Q1984.48 256.817 1986.19 256.817 Q1988.99 256.817 1990.96 256.462 Q1992.95 256.076 1994.05 255.367 Q1995.17 254.659 1995.63 254.176 Q1996.11 253.661 1996.59 252.855 Q1996.88 252.404 1997.27 252.404 Q1997.56 252.404 1997.75 252.598 Q1997.98 252.759 1997.98 253.049 Q1997.98 253.403 1997.53 254.144 Q1997.11 254.884 1996.08 255.883 Q1995.08 256.849 1993.69 257.751 Q1992.34 258.62 1990.18 259.232 Q1988.02 259.844 1985.58 259.844 Q1980.59 259.844 1977.69 257.396 Q1974.82 254.949 1974.82 251.535 Q1974.82 249.152 1976.4 246.704 Q1978.01 244.224 1980.84 242.646 Q1978.2 240.682 1978.2 237.944 Q1978.2 235.496 1980.26 233.306 Q1982.36 231.116 1985.74 229.828 Q1989.15 228.508 1992.89 228.508 Q1994.98 228.508 1997.04 229.216 Q1999.1 229.893 2000.26 230.762 Q2001.42 231.632 2001.42 232.276 M1991.73 242.356 Q1990.31 241.97 1988.6 241.97 Q1986.29 241.97 1984.58 242.549 Q1985.96 242.904 1988.09 242.904 Q1989.86 242.904 1990.38 242.807 Q1990.92 242.711 1991.73 242.356 Z" fill="#000000" fill-rule="nonzero" fill-opacity="1" /><path clip-path="url(#clip290)" d="M2023.55 248.379 Q2023.62 247.574 2024.87 247.574 L2065.29 247.574 Q2067.19 247.574 2067.23 248.314 Q2067.23 249.119 2065.42 249.087 L2025.33 249.087 Q2023.55 249.119 2023.55 248.379 M2023.55 235.496 Q2023.55 234.691 2024.94 234.723 L2065.23 234.723 Q2067.19 234.723 2067.23 235.496 Q2067.23 236.237 2065.55 236.237 L2024.87 236.237 Q2023.55 236.237 2023.55 235.496 Z" fill="#000000" fill-rule="nonzero" fill-opacity="1" /><path clip-path="url(#clip290)" d="M2092.67 237.3 Q2092.67 227.606 2095.12 222.324 Q2098.53 214.466 2106.58 214.466 Q2108.29 214.466 2110.06 214.949 Q2111.87 215.4 2114.12 217.171 Q2116.41 218.943 2117.79 221.841 Q2120.43 227.445 2120.43 237.3 Q2120.43 246.929 2117.98 252.179 Q2114.41 259.844 2106.52 259.844 Q2103.56 259.844 2100.53 258.33 Q2097.53 256.817 2095.63 253.177 Q2092.67 247.735 2092.67 237.3 M2098.15 236.495 Q2098.15 246.446 2098.85 250.408 Q2099.66 254.691 2101.85 256.559 Q2104.07 258.395 2106.52 258.395 Q2109.16 258.395 2111.35 256.43 Q2113.57 254.433 2114.25 250.15 Q2114.99 245.931 2114.96 236.495 Q2114.96 227.316 2114.31 223.645 Q2113.44 219.361 2111.13 217.654 Q2108.84 215.915 2106.52 215.915 Q2105.65 215.915 2104.72 216.173 Q2103.81 216.431 2102.49 217.171 Q2101.17 217.912 2100.14 219.748 Q2099.14 221.583 2098.66 224.353 Q2098.15 227.928 2098.15 236.495 Z" fill="#000000" fill-rule="nonzero" fill-opacity="1" /><path clip-path="url(#clip290)" d="M2126.33 257.332 Q2125.34 256.269 2125.34 254.884 Q2125.34 253.499 2126.33 252.501 Q2127.33 251.471 2128.85 251.471 Q2130.29 251.471 2131.26 252.437 Q2132.26 253.371 2132.26 254.917 Q2132.26 256.43 2131.2 257.429 Q2130.17 258.395 2128.85 258.395 Q2127.33 258.395 2126.33 257.332 Z" fill="#000000" fill-rule="nonzero" fill-opacity="1" /><path clip-path="url(#clip290)" d="M2143.49 237.3 Q2143.49 227.606 2145.93 222.324 Q2149.35 214.466 2157.4 214.466 Q2159.11 214.466 2160.88 214.949 Q2162.68 215.4 2164.93 217.171 Q2167.22 218.943 2168.61 221.841 Q2171.25 227.445 2171.25 237.3 Q2171.25 246.929 2168.8 252.179 Q2165.22 259.844 2157.33 259.844 Q2154.37 259.844 2151.34 258.33 Q2148.35 256.817 2146.45 253.177 Q2143.49 247.735 2143.49 237.3 M2148.96 236.495 Q2148.96 246.446 2149.67 250.408 Q2150.47 254.691 2152.66 256.559 Q2154.89 258.395 2157.33 258.395 Q2159.97 258.395 2162.16 256.43 Q2164.39 254.433 2165.06 250.15 Q2165.8 245.931 2165.77 236.495 Q2165.77 227.316 2165.13 223.645 Q2164.26 219.361 2161.94 217.654 Q2159.65 215.915 2157.33 215.915 Q2156.46 215.915 2155.53 216.173 Q2154.63 216.431 2153.31 217.171 Q2151.99 217.912 2150.96 219.748 Q2149.96 221.583 2149.48 224.353 Q2148.96 227.928 2148.96 236.495 Z" fill="#000000" fill-rule="nonzero" fill-opacity="1" /><polyline clip-path="url(#clip290)" style="stroke:#008000; stroke-linecap:round; stroke-linejoin:round; stroke-width:11; stroke-opacity:1; fill:none" points="1818.74,308.636 1952.52,308.636 "/>
<path clip-path="url(#clip290)" d="M2001.42 303.556 Q2001.42 304.232 2000.84 304.78 Q2000.3 305.327 1999.62 305.327 Q1999.23 305.327 1998.3 304.683 Q1995.63 302.815 1992.24 302.815 Q1989.22 302.815 1986.41 303.556 Q1983.61 304.297 1981.71 305.81 Q1979.84 307.292 1979.84 309.224 Q1979.84 311.639 1982.49 313.057 Q1985.22 311.801 1988.6 311.801 Q1989.7 311.801 1990.44 311.865 Q1991.21 311.929 1991.95 312.09 Q1992.69 312.251 1993.05 312.638 Q1993.44 312.992 1993.44 313.572 Q1993.44 315.633 1988.09 315.633 Q1984.61 315.633 1982.42 314.699 Q1979.62 316.084 1978.07 318.306 Q1976.53 320.528 1976.53 322.428 Q1976.53 324.071 1977.43 325.263 Q1978.36 326.454 1979.88 327.034 Q1981.42 327.614 1982.94 327.871 Q1984.48 328.097 1986.19 328.097 Q1988.99 328.097 1990.96 327.742 Q1992.95 327.356 1994.05 326.647 Q1995.17 325.939 1995.63 325.456 Q1996.11 324.941 1996.59 324.135 Q1996.88 323.684 1997.27 323.684 Q1997.56 323.684 1997.75 323.878 Q1997.98 324.039 1997.98 324.329 Q1997.98 324.683 1997.53 325.424 Q1997.11 326.164 1996.08 327.163 Q1995.08 328.129 1993.69 329.031 Q1992.34 329.9 1990.18 330.512 Q1988.02 331.124 1985.58 331.124 Q1980.59 331.124 1977.69 328.676 Q1974.82 326.229 1974.82 322.815 Q1974.82 320.432 1976.4 317.984 Q1978.01 315.504 1980.84 313.926 Q1978.2 311.962 1978.2 309.224 Q1978.2 306.776 1980.26 304.586 Q1982.36 302.396 1985.74 301.108 Q1989.15 299.788 1992.89 299.788 Q1994.98 299.788 1997.04 300.496 Q1999.1 301.173 2000.26 302.042 Q2001.42 302.912 2001.42 303.556 M1991.73 313.636 Q1990.31 313.25 1988.6 313.25 Q1986.29 313.25 1984.58 313.829 Q1985.96 314.184 1988.09 314.184 Q1989.86 314.184 1990.38 314.087 Q1990.92 313.991 1991.73 313.636 Z" fill="#000000" fill-rule="nonzero" fill-opacity="1" /><path clip-path="url(#clip290)" d="M2023.55 319.659 Q2023.62 318.854 2024.87 318.854 L2065.29 318.854 Q2067.19 318.854 2067.23 319.594 Q2067.23 320.399 2065.42 320.367 L2025.33 320.367 Q2023.55 320.399 2023.55 319.659 M2023.55 306.776 Q2023.55 305.971 2024.94 306.003 L2065.23 306.003 Q2067.19 306.003 2067.23 306.776 Q2067.23 307.517 2065.55 307.517 L2024.87 307.517 Q2023.55 307.517 2023.55 306.776 Z" fill="#000000" fill-rule="nonzero" fill-opacity="1" /><path clip-path="url(#clip290)" d="M2092.67 308.58 Q2092.67 298.886 2095.12 293.604 Q2098.53 285.746 2106.58 285.746 Q2108.29 285.746 2110.06 286.229 Q2111.87 286.68 2114.12 288.451 Q2116.41 290.223 2117.79 293.121 Q2120.43 298.725 2120.43 308.58 Q2120.43 318.209 2117.98 323.459 Q2114.41 331.124 2106.52 331.124 Q2103.56 331.124 2100.53 329.61 Q2097.53 328.097 2095.63 324.457 Q2092.67 319.015 2092.67 308.58 M2098.15 307.775 Q2098.15 317.726 2098.85 321.688 Q2099.66 325.971 2101.85 327.839 Q2104.07 329.675 2106.52 329.675 Q2109.16 329.675 2111.35 327.71 Q2113.57 325.713 2114.25 321.43 Q2114.99 317.211 2114.96 307.775 Q2114.96 298.596 2114.31 294.925 Q2113.44 290.641 2111.13 288.934 Q2108.84 287.195 2106.52 287.195 Q2105.65 287.195 2104.72 287.453 Q2103.81 287.711 2102.49 288.451 Q2101.17 289.192 2100.14 291.028 Q2099.14 292.863 2098.66 295.633 Q2098.15 299.208 2098.15 307.775 Z" fill="#000000" fill-rule="nonzero" fill-opacity="1" /><path clip-path="url(#clip290)" d="M2126.33 328.612 Q2125.34 327.549 2125.34 326.164 Q2125.34 324.779 2126.33 323.781 Q2127.33 322.751 2128.85 322.751 Q2130.29 322.751 2131.26 323.717 Q2132.26 324.651 2132.26 326.197 Q2132.26 327.71 2131.2 328.709 Q2130.17 329.675 2128.85 329.675 Q2127.33 329.675 2126.33 328.612 Z" fill="#000000" fill-rule="nonzero" fill-opacity="1" /><path clip-path="url(#clip290)" d="M2143.49 319.047 Q2143.49 317.082 2144.55 316.342 Q2145.61 315.569 2146.74 315.569 Q2148.25 315.569 2149.12 316.535 Q2150.02 317.469 2150.02 318.789 Q2150.02 320.11 2149.12 321.076 Q2148.25 322.01 2146.74 322.01 Q2146 322.01 2145.61 321.881 Q2146.48 324.908 2149.12 327.098 Q2151.79 329.288 2155.31 329.288 Q2159.72 329.288 2162.36 325.005 Q2163.94 322.235 2163.94 315.955 Q2163.94 310.416 2162.74 307.646 Q2160.91 303.427 2157.14 303.427 Q2151.79 303.427 2148.64 308.032 Q2148.25 308.612 2147.8 308.644 Q2147.16 308.644 2147 308.29 Q2146.87 307.904 2146.87 306.905 L2146.87 287.388 Q2146.87 285.81 2147.51 285.81 Q2147.77 285.81 2148.32 286.004 Q2152.47 287.839 2157.08 287.872 Q2161.81 287.872 2166.06 285.939 Q2166.38 285.746 2166.58 285.746 Q2167.22 285.746 2167.25 286.487 Q2167.25 286.744 2166.71 287.517 Q2166.19 288.258 2165.06 289.256 Q2163.94 290.223 2162.49 291.157 Q2161.04 292.091 2158.91 292.735 Q2156.82 293.347 2154.5 293.347 Q2151.73 293.347 2148.9 292.477 L2148.9 305.327 Q2152.31 301.978 2157.27 301.978 Q2162.55 301.978 2166.19 306.229 Q2169.83 310.48 2169.83 316.406 Q2169.83 322.622 2165.51 326.873 Q2161.23 331.124 2155.43 331.124 Q2150.15 331.124 2146.8 327.356 Q2143.49 323.588 2143.49 319.047 Z" fill="#000000" fill-rule="nonzero" fill-opacity="1" /><polyline clip-path="url(#clip290)" style="stroke:#ffa500; stroke-linecap:round; stroke-linejoin:round; stroke-width:11; stroke-opacity:1; fill:none" points="1818.74,379.916 1952.52,379.916 "/>
<path clip-path="url(#clip290)" d="M2001.42 374.836 Q2001.42 375.512 2000.84 376.06 Q2000.3 376.607 1999.62 376.607 Q1999.23 376.607 1998.3 375.963 Q1995.63 374.095 1992.24 374.095 Q1989.22 374.095 1986.41 374.836 Q1983.61 375.577 1981.71 377.09 Q1979.84 378.572 1979.84 380.504 Q1979.84 382.919 1982.49 384.337 Q1985.22 383.081 1988.6 383.081 Q1989.7 383.081 1990.44 383.145 Q1991.21 383.209 1991.95 383.37 Q1992.69 383.531 1993.05 383.918 Q1993.44 384.272 1993.44 384.852 Q1993.44 386.913 1988.09 386.913 Q1984.61 386.913 1982.42 385.979 Q1979.62 387.364 1978.07 389.586 Q1976.53 391.808 1976.53 393.708 Q1976.53 395.351 1977.43 396.543 Q1978.36 397.734 1979.88 398.314 Q1981.42 398.894 1982.94 399.151 Q1984.48 399.377 1986.19 399.377 Q1988.99 399.377 1990.96 399.022 Q1992.95 398.636 1994.05 397.927 Q1995.17 397.219 1995.63 396.736 Q1996.11 396.221 1996.59 395.415 Q1996.88 394.964 1997.27 394.964 Q1997.56 394.964 1997.75 395.158 Q1997.98 395.319 1997.98 395.609 Q1997.98 395.963 1997.53 396.704 Q1997.11 397.444 1996.08 398.443 Q1995.08 399.409 1993.69 400.311 Q1992.34 401.18 1990.18 401.792 Q1988.02 402.404 1985.58 402.404 Q1980.59 402.404 1977.69 399.956 Q1974.82 397.509 1974.82 394.095 Q1974.82 391.712 1976.4 389.264 Q1978.01 386.784 1980.84 385.206 Q1978.2 383.242 1978.2 380.504 Q1978.2 378.056 1980.26 375.866 Q1982.36 373.676 1985.74 372.388 Q1989.15 371.068 1992.89 371.068 Q1994.98 371.068 1997.04 371.776 Q1999.1 372.453 2000.26 373.322 Q2001.42 374.192 2001.42 374.836 M1991.73 384.916 Q1990.31 384.53 1988.6 384.53 Q1986.29 384.53 1984.58 385.109 Q1985.96 385.464 1988.09 385.464 Q1989.86 385.464 1990.38 385.367 Q1990.92 385.271 1991.73 384.916 Z" fill="#000000" fill-rule="nonzero" fill-opacity="1" /><path clip-path="url(#clip290)" d="M2023.55 390.939 Q2023.62 390.134 2024.87 390.134 L2065.29 390.134 Q2067.19 390.134 2067.23 390.874 Q2067.23 391.679 2065.42 391.647 L2025.33 391.647 Q2023.55 391.679 2023.55 390.939 M2023.55 378.056 Q2023.55 377.251 2024.94 377.283 L2065.23 377.283 Q2067.19 377.283 2067.23 378.056 Q2067.23 378.797 2065.55 378.797 L2024.87 378.797 Q2023.55 378.797 2023.55 378.056 Z" fill="#000000" fill-rule="nonzero" fill-opacity="1" /><path clip-path="url(#clip290)" d="M2154.52 383.531 Q2154.9 383.918 2154.9 384.465 Q2154.9 385.013 2154.52 385.399 Q2154.13 385.786 2153.58 385.786 L2112.29 385.786 Q2111.75 385.786 2111.36 385.399 Q2110.97 385.013 2110.97 384.465 Q2110.97 383.918 2111.36 383.531 Q2111.75 383.145 2112.29 383.145 L2153.58 383.145 Q2154.13 383.145 2154.52 383.531 Z" fill="#000000" fill-rule="nonzero" fill-opacity="1" /><path clip-path="url(#clip290)" d="M2180.09 379.86 Q2180.09 370.166 2182.54 364.884 Q2185.95 357.026 2194 357.026 Q2195.71 357.026 2197.48 357.509 Q2199.29 357.96 2201.54 359.731 Q2203.83 361.503 2205.21 364.401 Q2207.85 370.005 2207.85 379.86 Q2207.85 389.489 2205.4 394.739 Q2201.83 402.404 2193.94 402.404 Q2190.98 402.404 2187.95 400.89 Q2184.95 399.377 2183.05 395.737 Q2180.09 390.295 2180.09 379.86 M2185.57 379.055 Q2185.57 389.006 2186.27 392.968 Q2187.08 397.251 2189.27 399.119 Q2191.49 400.955 2193.94 400.955 Q2196.58 400.955 2198.77 398.99 Q2200.99 396.993 2201.67 392.71 Q2202.41 388.491 2202.38 379.055 Q2202.38 369.876 2201.73 366.205 Q2200.86 361.921 2198.54 360.214 Q2196.26 358.475 2193.94 358.475 Q2193.07 358.475 2192.14 358.733 Q2191.23 358.991 2189.91 359.731 Q2188.59 360.472 2187.56 362.308 Q2186.56 364.143 2186.08 366.913 Q2185.57 370.488 2185.57 379.055 Z" fill="#000000" fill-rule="nonzero" fill-opacity="1" /><path clip-path="url(#clip290)" d="M2213.75 399.892 Q2212.75 398.829 2212.75 397.444 Q2212.75 396.059 2213.75 395.061 Q2214.75 394.031 2216.27 394.031 Q2217.71 394.031 2218.68 394.997 Q2219.68 395.931 2219.68 397.477 Q2219.68 398.99 2218.62 399.989 Q2217.59 400.955 2216.27 400.955 Q2214.75 400.955 2213.75 399.892 Z" fill="#000000" fill-rule="nonzero" fill-opacity="1" /><path clip-path="url(#clip290)" d="M2230.9 390.327 Q2230.9 388.362 2231.97 387.622 Q2233.03 386.849 2234.16 386.849 Q2235.67 386.849 2236.54 387.815 Q2237.44 388.749 2237.44 390.069 Q2237.44 391.39 2236.54 392.356 Q2235.67 393.29 2234.16 393.29 Q2233.42 393.29 2233.03 393.161 Q2233.9 396.188 2236.54 398.378 Q2239.21 400.568 2242.72 400.568 Q2247.14 400.568 2249.78 396.285 Q2251.36 393.515 2251.36 387.235 Q2251.36 381.696 2250.16 378.926 Q2248.33 374.707 2244.56 374.707 Q2239.21 374.707 2236.06 379.312 Q2235.67 379.892 2235.22 379.924 Q2234.58 379.924 2234.42 379.57 Q2234.29 379.184 2234.29 378.185 L2234.29 358.668 Q2234.29 357.09 2234.93 357.09 Q2235.19 357.09 2235.74 357.284 Q2239.89 359.119 2244.5 359.152 Q2249.23 359.152 2253.48 357.219 Q2253.8 357.026 2254 357.026 Q2254.64 357.026 2254.67 357.767 Q2254.67 358.024 2254.13 358.797 Q2253.61 359.538 2252.48 360.536 Q2251.36 361.503 2249.91 362.437 Q2248.46 363.371 2246.33 364.015 Q2244.24 364.627 2241.92 364.627 Q2239.15 364.627 2236.32 363.757 L2236.32 376.607 Q2239.73 373.258 2244.69 373.258 Q2249.97 373.258 2253.61 377.509 Q2257.25 381.76 2257.25 387.686 Q2257.25 393.902 2252.93 398.153 Q2248.65 402.404 2242.85 402.404 Q2237.57 402.404 2234.22 398.636 Q2230.9 394.868 2230.9 390.327 Z" fill="#000000" fill-rule="nonzero" fill-opacity="1" /><polyline clip-path="url(#clip290)" style="stroke:#ff0000; stroke-linecap:round; stroke-linejoin:round; stroke-width:11; stroke-opacity:1; fill:none" points="1818.74,451.196 1952.52,451.196 "/>
<path clip-path="url(#clip290)" d="M2001.42 446.116 Q2001.42 446.792 2000.84 447.34 Q2000.3 447.887 1999.62 447.887 Q1999.23 447.887 1998.3 447.243 Q1995.63 445.375 1992.24 445.375 Q1989.22 445.375 1986.41 446.116 Q1983.61 446.857 1981.71 448.37 Q1979.84 449.852 1979.84 451.784 Q1979.84 454.199 1982.49 455.617 Q1985.22 454.361 1988.6 454.361 Q1989.7 454.361 1990.44 454.425 Q1991.21 454.489 1991.95 454.65 Q1992.69 454.811 1993.05 455.198 Q1993.44 455.552 1993.44 456.132 Q1993.44 458.193 1988.09 458.193 Q1984.61 458.193 1982.42 457.259 Q1979.62 458.644 1978.07 460.866 Q1976.53 463.088 1976.53 464.988 Q1976.53 466.631 1977.43 467.823 Q1978.36 469.014 1979.88 469.594 Q1981.42 470.174 1982.94 470.431 Q1984.48 470.657 1986.19 470.657 Q1988.99 470.657 1990.96 470.302 Q1992.95 469.916 1994.05 469.207 Q1995.17 468.499 1995.63 468.016 Q1996.11 467.501 1996.59 466.695 Q1996.88 466.244 1997.27 466.244 Q1997.56 466.244 1997.75 466.438 Q1997.98 466.599 1997.98 466.889 Q1997.98 467.243 1997.53 467.984 Q1997.11 468.724 1996.08 469.723 Q1995.08 470.689 1993.69 471.591 Q1992.34 472.46 1990.18 473.072 Q1988.02 473.684 1985.58 473.684 Q1980.59 473.684 1977.69 471.236 Q1974.82 468.789 1974.82 465.375 Q1974.82 462.992 1976.4 460.544 Q1978.01 458.064 1980.84 456.486 Q1978.2 454.522 1978.2 451.784 Q1978.2 449.336 1980.26 447.146 Q1982.36 444.956 1985.74 443.668 Q1989.15 442.348 1992.89 442.348 Q1994.98 442.348 1997.04 443.056 Q1999.1 443.733 2000.26 444.602 Q2001.42 445.472 2001.42 446.116 M1991.73 456.196 Q1990.31 455.81 1988.6 455.81 Q1986.29 455.81 1984.58 456.389 Q1985.96 456.744 1988.09 456.744 Q1989.86 456.744 1990.38 456.647 Q1990.92 456.551 1991.73 456.196 Z" fill="#000000" fill-rule="nonzero" fill-opacity="1" /><path clip-path="url(#clip290)" d="M2023.55 462.219 Q2023.62 461.414 2024.87 461.414 L2065.29 461.414 Q2067.19 461.414 2067.23 462.154 Q2067.23 462.959 2065.42 462.927 L2025.33 462.927 Q2023.55 462.959 2023.55 462.219 M2023.55 449.336 Q2023.55 448.531 2024.94 448.563 L2065.23 448.563 Q2067.19 448.563 2067.23 449.336 Q2067.23 450.077 2065.55 450.077 L2024.87 450.077 Q2023.55 450.077 2023.55 449.336 Z" fill="#000000" fill-rule="nonzero" fill-opacity="1" /><path clip-path="url(#clip290)" d="M2092.67 451.14 Q2092.67 441.446 2095.12 436.164 Q2098.53 428.306 2106.58 428.306 Q2108.29 428.306 2110.06 428.789 Q2111.87 429.24 2114.12 431.011 Q2116.41 432.783 2117.79 435.681 Q2120.43 441.285 2120.43 451.14 Q2120.43 460.769 2117.98 466.019 Q2114.41 473.684 2106.52 473.684 Q2103.56 473.684 2100.53 472.17 Q2097.53 470.657 2095.63 467.017 Q2092.67 461.575 2092.67 451.14 M2098.15 450.335 Q2098.15 460.286 2098.85 464.248 Q2099.66 468.531 2101.85 470.399 Q2104.07 472.235 2106.52 472.235 Q2109.16 472.235 2111.35 470.27 Q2113.57 468.273 2114.25 463.99 Q2114.99 459.771 2114.96 450.335 Q2114.96 441.156 2114.31 437.485 Q2113.44 433.201 2111.13 431.494 Q2108.84 429.755 2106.52 429.755 Q2105.65 429.755 2104.72 430.013 Q2103.81 430.271 2102.49 431.011 Q2101.17 431.752 2100.14 433.588 Q2099.14 435.423 2098.66 438.193 Q2098.15 441.768 2098.15 450.335 Z" fill="#000000" fill-rule="nonzero" fill-opacity="1" /><path clip-path="url(#clip290)" d="M2126.33 471.172 Q2125.34 470.109 2125.34 468.724 Q2125.34 467.339 2126.33 466.341 Q2127.33 465.311 2128.85 465.311 Q2130.29 465.311 2131.26 466.277 Q2132.26 467.211 2132.26 468.757 Q2132.26 470.27 2131.2 471.269 Q2130.17 472.235 2128.85 472.235 Q2127.33 472.235 2126.33 471.172 Z" fill="#000000" fill-rule="nonzero" fill-opacity="1" /><path clip-path="url(#clip290)" d="M2143.49 443.153 Q2143.49 439.642 2144.52 437.259 Q2145.55 434.844 2147.7 432.461 Q2151.67 428.306 2157.4 428.306 Q2159.85 428.306 2162 429.337 Q2164.19 430.367 2166.26 432.718 Q2168.35 435.037 2169.6 439.642 Q2170.86 444.216 2170.86 450.528 Q2170.86 460.737 2165.9 467.211 Q2160.97 473.684 2154.31 473.684 Q2150.09 473.684 2147.61 471.784 Q2145.13 469.852 2145.13 466.567 Q2145.13 464.86 2146.09 464.151 Q2147.06 463.41 2148.16 463.41 Q2149.35 463.41 2150.28 464.216 Q2151.21 464.988 2151.21 466.438 Q2151.21 467.629 2150.44 468.563 Q2149.7 469.465 2147.77 469.465 Q2149.67 471.848 2154.24 471.848 Q2155.88 471.848 2157.53 471.108 Q2159.17 470.335 2160.94 468.499 Q2162.74 466.631 2163.84 462.734 Q2164.93 458.837 2164.93 453.362 L2164.93 451.269 Q2162.29 457.871 2156.69 457.871 Q2151.15 457.871 2147.32 453.62 Q2143.49 449.369 2143.49 443.153 M2149.41 443.217 Q2149.41 449.755 2150.6 452.171 Q2152.63 456.325 2156.75 456.325 Q2160.78 456.325 2162.78 452.75 Q2164.81 449.143 2164.81 444.473 Q2164.81 438 2163.74 435.166 Q2161.78 429.948 2157.4 429.948 Q2153.05 429.948 2150.8 434.103 Q2149.41 436.551 2149.41 443.217 Z" fill="#000000" fill-rule="nonzero" fill-opacity="1" /></svg>
