<?xml version="1.0" encoding="utf-8"?>
<svg xmlns="http://www.w3.org/2000/svg" xmlns:xlink="http://www.w3.org/1999/xlink" width="600" height="400" viewBox="0 0 2400 1600">
<defs>
  <clipPath id="clip980">
    <rect x="0" y="0" width="2400" height="1600"/>
  </clipPath>
</defs>
<path clip-path="url(#clip980)" d="M0 1600 L2400 1600 L2400 0 L0 0  Z" fill="#ffffff" fill-rule="evenodd" fill-opacity="1"/>
<defs>
  <clipPath id="clip981">
    <rect x="480" y="0" width="1681" height="1600"/>
  </clipPath>
</defs>
<path clip-path="url(#clip980)" d="M485.358 1552.76 L1914.64 1552.76 L1914.64 123.472 L485.358 123.472  Z" fill="#ffffff" fill-rule="evenodd" fill-opacity="1"/>
<defs>
  <clipPath id="clip982">
    <rect x="485" y="123" width="1430" height="1430"/>
  </clipPath>
</defs>
<path clip-path="url(#clip980)" d="M964.926 72.576 L941.836 12.096 L950.383 12.096 L969.544 63.0159 L988.745 12.096 L997.252 12.096 L974.203 72.576 L964.926 72.576 Z" fill="#000000" fill-rule="nonzero" fill-opacity="1" /><path clip-path="url(#clip980)" d="M1003.94 27.2059 L1011.39 27.2059 L1011.39 72.576 L1003.94 72.576 L1003.94 27.2059 M1003.94 9.54393 L1011.39 9.54393 L1011.39 18.9825 L1003.94 18.9825 L1003.94 9.54393 Z" fill="#000000" fill-rule="nonzero" fill-opacity="1" /><path clip-path="url(#clip980)" d="M1055.91 28.5427 L1055.91 35.5912 Q1052.75 33.9709 1049.35 33.1607 Q1045.94 32.3505 1042.3 32.3505 Q1036.75 32.3505 1033.95 34.0519 Q1031.2 35.7533 1031.2 39.156 Q1031.2 41.7486 1033.18 43.2475 Q1035.17 44.7058 1041.16 46.0426 L1043.72 46.6097 Q1051.66 48.3111 1054.98 51.4303 Q1058.34 54.509 1058.34 60.0587 Q1058.34 66.3781 1053.32 70.0644 Q1048.33 73.7508 1039.58 73.7508 Q1035.94 73.7508 1031.97 73.0216 Q1028.04 72.3329 1023.66 70.9151 L1023.66 63.2184 Q1027.8 65.3654 1031.81 66.4591 Q1035.82 67.5124 1039.75 67.5124 Q1045.01 67.5124 1047.85 65.73 Q1050.68 63.9071 1050.68 60.6258 Q1050.68 57.5877 1048.62 55.9673 Q1046.59 54.3469 1039.67 52.8481 L1037.07 52.2405 Q1030.15 50.7821 1027.07 47.7845 Q1023.99 44.7463 1023.99 39.4801 Q1023.99 33.0797 1028.53 29.5959 Q1033.06 26.1121 1041.41 26.1121 Q1045.54 26.1121 1049.18 26.7198 Q1052.83 27.3274 1055.91 28.5427 Z" fill="#000000" fill-rule="nonzero" fill-opacity="1" /><path clip-path="url(#clip980)" d="M1069.44 54.671 L1069.44 27.2059 L1076.89 27.2059 L1076.89 54.3874 Q1076.89 60.8284 1079.4 64.0691 Q1081.92 67.2693 1086.94 67.2693 Q1092.98 67.2693 1096.46 63.421 Q1099.98 59.5726 1099.98 52.9291 L1099.98 27.2059 L1107.44 27.2059 L1107.44 72.576 L1099.98 72.576 L1099.98 65.6084 Q1097.27 69.7404 1093.66 71.7658 Q1090.1 73.7508 1085.36 73.7508 Q1077.54 73.7508 1073.49 68.8897 Q1069.44 64.0286 1069.44 54.671 M1088.2 26.1121 L1088.2 26.1121 Z" fill="#000000" fill-rule="nonzero" fill-opacity="1" /><path clip-path="url(#clip980)" d="M1143.41 49.7694 Q1134.38 49.7694 1130.89 51.8354 Q1127.41 53.9013 1127.41 58.8839 Q1127.41 62.8538 1130 65.2034 Q1132.63 67.5124 1137.13 67.5124 Q1143.33 67.5124 1147.05 63.1374 Q1150.82 58.7219 1150.82 51.4303 L1150.82 49.7694 L1143.41 49.7694 M1158.28 46.6907 L1158.28 72.576 L1150.82 72.576 L1150.82 65.6895 Q1148.27 69.8214 1144.46 71.8063 Q1140.65 73.7508 1135.15 73.7508 Q1128.18 73.7508 1124.05 69.8619 Q1119.95 65.9325 1119.95 59.3701 Q1119.95 51.7138 1125.06 47.825 Q1130.2 43.9361 1140.37 43.9361 L1150.82 43.9361 L1150.82 43.2069 Q1150.82 38.0623 1147.42 35.2672 Q1144.06 32.4315 1137.94 32.4315 Q1134.05 32.4315 1130.36 33.3632 Q1126.68 34.295 1123.28 36.1584 L1123.28 29.2718 Q1127.37 27.692 1131.22 26.9223 Q1135.06 26.1121 1138.71 26.1121 Q1148.55 26.1121 1153.41 31.2163 Q1158.28 36.3204 1158.28 46.6907 Z" fill="#000000" fill-rule="nonzero" fill-opacity="1" /><path clip-path="url(#clip980)" d="M1173.63 9.54393 L1181.08 9.54393 L1181.08 72.576 L1173.63 72.576 L1173.63 9.54393 Z" fill="#000000" fill-rule="nonzero" fill-opacity="1" /><path clip-path="url(#clip980)" d="M1196.68 27.2059 L1204.13 27.2059 L1204.13 72.576 L1196.68 72.576 L1196.68 27.2059 M1196.68 9.54393 L1204.13 9.54393 L1204.13 18.9825 L1196.68 18.9825 L1196.68 9.54393 Z" fill="#000000" fill-rule="nonzero" fill-opacity="1" /><path clip-path="url(#clip980)" d="M1216.49 27.2059 L1251.89 27.2059 L1251.89 34.0114 L1223.86 66.6212 L1251.89 66.6212 L1251.89 72.576 L1215.47 72.576 L1215.47 65.7705 L1243.51 33.1607 L1216.49 33.1607 L1216.49 27.2059 Z" fill="#000000" fill-rule="nonzero" fill-opacity="1" /><path clip-path="url(#clip980)" d="M1283.89 49.7694 Q1274.86 49.7694 1271.38 51.8354 Q1267.89 53.9013 1267.89 58.8839 Q1267.89 62.8538 1270.49 65.2034 Q1273.12 67.5124 1277.62 67.5124 Q1283.81 67.5124 1287.54 63.1374 Q1291.31 58.7219 1291.31 51.4303 L1291.31 49.7694 L1283.89 49.7694 M1298.76 46.6907 L1298.76 72.576 L1291.31 72.576 L1291.31 65.6895 Q1288.76 69.8214 1284.95 71.8063 Q1281.14 73.7508 1275.63 73.7508 Q1268.66 73.7508 1264.53 69.8619 Q1260.44 65.9325 1260.44 59.3701 Q1260.44 51.7138 1265.54 47.825 Q1270.69 43.9361 1280.86 43.9361 L1291.31 43.9361 L1291.31 43.2069 Q1291.31 38.0623 1287.9 35.2672 Q1284.54 32.4315 1278.43 32.4315 Q1274.54 32.4315 1270.85 33.3632 Q1267.16 34.295 1263.76 36.1584 L1263.76 29.2718 Q1267.85 27.692 1271.7 26.9223 Q1275.55 26.1121 1279.2 26.1121 Q1289.04 26.1121 1293.9 31.2163 Q1298.76 36.3204 1298.76 46.6907 Z" fill="#000000" fill-rule="nonzero" fill-opacity="1" /><path clip-path="url(#clip980)" d="M1321.49 14.324 L1321.49 27.2059 L1336.84 27.2059 L1336.84 32.9987 L1321.49 32.9987 L1321.49 57.6282 Q1321.49 63.1779 1322.99 64.7578 Q1324.52 66.3376 1329.18 66.3376 L1336.84 66.3376 L1336.84 72.576 L1329.18 72.576 Q1320.55 72.576 1317.27 69.3758 Q1313.99 66.1351 1313.99 57.6282 L1313.99 32.9987 L1308.52 32.9987 L1308.52 27.2059 L1313.99 27.2059 L1313.99 14.324 L1321.49 14.324 Z" fill="#000000" fill-rule="nonzero" fill-opacity="1" /><path clip-path="url(#clip980)" d="M1346.64 27.2059 L1354.1 27.2059 L1354.1 72.576 L1346.64 72.576 L1346.64 27.2059 M1346.64 9.54393 L1354.1 9.54393 L1354.1 18.9825 L1346.64 18.9825 L1346.64 9.54393 Z" fill="#000000" fill-rule="nonzero" fill-opacity="1" /><path clip-path="url(#clip980)" d="M1387.27 32.4315 Q1381.28 32.4315 1377.79 37.1306 Q1374.31 41.7891 1374.31 49.9314 Q1374.31 58.0738 1377.75 62.7728 Q1381.24 67.4314 1387.27 67.4314 Q1393.23 67.4314 1396.71 62.7323 Q1400.2 58.0333 1400.2 49.9314 Q1400.2 41.8701 1396.71 37.1711 Q1393.23 32.4315 1387.27 32.4315 M1387.27 26.1121 Q1397 26.1121 1402.55 32.4315 Q1408.09 38.7509 1408.09 49.9314 Q1408.09 61.0714 1402.55 67.4314 Q1397 73.7508 1387.27 73.7508 Q1377.51 73.7508 1371.96 67.4314 Q1366.45 61.0714 1366.45 49.9314 Q1366.45 38.7509 1371.96 32.4315 Q1377.51 26.1121 1387.27 26.1121 Z" fill="#000000" fill-rule="nonzero" fill-opacity="1" /><path clip-path="url(#clip980)" d="M1458.16 45.1919 L1458.16 72.576 L1450.71 72.576 L1450.71 45.4349 Q1450.71 38.994 1448.2 35.7938 Q1445.69 32.5936 1440.66 32.5936 Q1434.63 32.5936 1431.14 36.4419 Q1427.66 40.2903 1427.66 46.9338 L1427.66 72.576 L1420.17 72.576 L1420.17 27.2059 L1427.66 27.2059 L1427.66 34.2544 Q1430.33 30.163 1433.94 28.1376 Q1437.59 26.1121 1442.33 26.1121 Q1450.14 26.1121 1454.15 30.9732 Q1458.16 35.7938 1458.16 45.1919 Z" fill="#000000" fill-rule="nonzero" fill-opacity="1" /><polyline clip-path="url(#clip982)" style="stroke:#000000; stroke-linecap:round; stroke-linejoin:round; stroke-width:4; stroke-opacity:1; fill:none" points="733.767,1348.57 729.751,1337.82 725.746,1327.07 721.761,1316.32 717.808,1305.57 713.896,1294.81 710.036,1284.05 706.239,1273.29 702.514,1262.51 698.872,1251.74 695.323,1240.95 691.878,1230.15 688.548,1219.35 685.341,1208.53 682.27,1197.71 679.344,1186.87 676.574,1176.02 673.97,1165.16 671.542,1154.28 669.301,1143.38 667.258,1132.47 665.421,1121.55 663.803,1110.6 662.413,1099.64 661.262,1088.65 660.359,1077.65 659.706,1066.63 659.29,1055.58 659.103,1044.52 659.134,1033.44 659.373,1022.34 659.809,1011.23 660.432,1000.1 661.231,988.957 662.196,977.8 663.317,966.63 664.583,955.448 665.984,944.256 667.509,933.053 669.149,921.841 670.892,910.62 672.729,899.391 674.649,888.156 676.642,876.915 678.697,865.669 680.803,854.418 682.951,843.164 685.131,831.908 687.331,820.65 689.542,809.39 "/>
<polyline clip-path="url(#clip982)" style="stroke:#000000; stroke-linecap:round; stroke-linejoin:round; stroke-width:4; stroke-opacity:1; fill:none" points="733.767,1348.57 741.737,1341.89 749.697,1335.21 757.641,1328.51 765.558,1321.8 773.44,1315.07 781.278,1308.31 789.063,1301.51 796.787,1294.67 804.441,1287.79 812.016,1280.86 819.503,1273.88 826.893,1266.83 834.178,1259.71 841.349,1252.52 848.398,1245.26 855.314,1237.91 862.09,1230.47 868.717,1222.93 875.186,1215.29 881.488,1207.55 887.615,1199.69 893.557,1191.72 899.306,1183.63 904.853,1175.4 910.19,1167.04 915.317,1158.55 920.242,1149.93 924.974,1141.18 929.521,1132.32 933.893,1123.34 938.098,1114.26 942.145,1105.08 946.043,1095.8 949.801,1086.43 953.427,1076.98 956.93,1067.45 960.319,1057.84 963.602,1048.17 966.789,1038.44 969.889,1028.65 972.909,1018.82 975.859,1008.93 978.748,999.01 981.584,989.054 984.376,979.07 987.133,969.063 989.863,959.04 992.576,949.005 995.281,938.965 "/>
<polyline clip-path="url(#clip982)" style="stroke:#000000; stroke-linecap:round; stroke-linejoin:round; stroke-width:4; stroke-opacity:1; fill:none" points="689.542,809.39 693.557,820.139 697.562,830.888 701.547,841.639 705.5,852.392 709.412,863.149 713.272,873.911 717.07,884.677 720.795,895.449 724.437,906.228 727.985,917.015 731.43,927.81 734.761,938.614 737.967,949.429 741.038,960.255 743.964,971.093 746.734,981.943 749.338,992.807 751.766,1003.69 754.007,1014.58 756.051,1025.49 757.887,1036.42 759.505,1047.36 760.895,1058.33 762.046,1069.31 762.949,1080.31 763.603,1091.34 764.018,1102.38 764.205,1113.44 764.174,1124.52 763.935,1135.62 763.499,1146.73 762.877,1157.86 762.078,1169.01 761.113,1180.16 759.992,1191.33 758.726,1202.51 757.325,1213.71 755.799,1224.91 754.159,1236.12 752.416,1247.34 750.579,1258.57 748.659,1269.81 746.667,1281.05 744.612,1292.29 742.505,1303.54 740.357,1314.8 738.177,1326.06 735.977,1337.31 733.767,1348.57 "/>
<polyline clip-path="url(#clip982)" style="stroke:#000000; stroke-linecap:round; stroke-linejoin:round; stroke-width:4; stroke-opacity:1; fill:none" points="689.542,809.39 694.562,814.911 699.587,820.421 704.62,825.913 709.665,831.376 714.726,836.8 719.808,842.177 724.914,847.496 730.049,852.747 735.216,857.923 740.419,863.011 745.664,868.004 750.953,872.892 756.29,877.664 761.681,882.312 767.128,886.826 772.636,891.195 778.21,895.412 783.852,899.465 789.568,903.346 795.361,907.045 801.235,910.552 807.194,913.857 813.243,916.952 819.385,919.826 825.625,922.47 831.962,924.885 838.392,927.079 844.912,929.062 851.517,930.844 858.203,932.434 864.967,933.842 871.804,935.078 878.709,936.15 885.68,937.069 892.712,937.844 899.801,938.485 906.942,939.001 914.132,939.403 921.367,939.699 928.643,939.898 935.955,940.012 943.299,940.049 950.673,940.019 958.07,939.931 965.488,939.796 972.922,939.622 980.368,939.419 987.822,939.197 995.281,938.965 "/>
<polyline clip-path="url(#clip982)" style="stroke:#000000; stroke-linecap:round; stroke-linejoin:round; stroke-width:4; stroke-opacity:1; fill:none" points="995.281,938.965 987.311,945.644 979.35,952.328 971.407,959.023 963.49,965.735 955.608,972.47 947.77,979.232 939.984,986.028 932.26,992.864 924.607,999.744 917.032,1006.67 909.545,1013.66 902.154,1020.71 894.869,1027.83 887.698,1035.01 880.65,1042.28 873.734,1049.63 866.957,1057.07 860.331,1064.61 853.862,1072.24 847.56,1079.99 841.433,1087.84 835.491,1095.82 829.742,1103.91 824.194,1112.14 818.857,1120.5 813.731,1128.99 808.806,1137.61 804.074,1146.36 799.526,1155.22 795.154,1164.2 790.949,1173.28 786.902,1182.46 783.004,1191.74 779.247,1201.11 775.621,1210.56 772.118,1220.09 768.729,1229.69 765.445,1239.36 762.258,1249.1 759.159,1258.88 756.139,1268.72 753.189,1278.61 750.3,1288.53 747.464,1298.48 744.672,1308.47 741.915,1318.47 739.184,1328.5 736.471,1338.53 733.767,1348.57 "/>
<polyline clip-path="url(#clip982)" style="stroke:#000000; stroke-linecap:round; stroke-linejoin:round; stroke-width:4; stroke-opacity:1; fill:none" points="995.281,938.965 990.26,933.445 985.235,927.934 980.202,922.443 975.157,916.98 970.096,911.556 965.014,906.179 959.908,900.86 954.774,895.608 949.606,890.433 944.403,885.344 939.159,880.351 933.87,875.464 928.532,870.691 923.142,866.044 917.694,861.53 912.186,857.16 906.612,852.944 900.97,848.891 895.254,845.01 889.462,841.311 883.588,837.804 877.628,834.499 871.579,831.404 865.437,828.53 859.198,825.886 852.861,823.471 846.43,821.277 839.911,819.294 833.305,817.512 826.619,815.922 819.856,814.514 813.019,813.278 806.113,812.206 799.142,811.287 792.11,810.512 785.022,809.871 777.88,809.354 770.69,808.953 763.455,808.657 756.18,808.457 748.867,808.344 741.523,808.307 734.15,808.337 726.752,808.425 719.335,808.56 711.9,808.734 704.454,808.937 697,809.159 689.542,809.39 "/>
<polyline clip-path="url(#clip982)" style="stroke:#000000; stroke-linecap:round; stroke-linejoin:round; stroke-width:4; stroke-opacity:1; fill:none" points="995.281,938.965 1005.04,937.63 1014.8,936.285 1024.55,934.921 1034.28,933.529 1044,932.1 1053.69,930.624 1063.36,929.093 1072.99,927.495 1082.58,925.824 1092.14,924.068 1101.65,922.218 1111.11,920.266 1120.51,918.202 1129.85,916.017 1139.13,913.701 1148.34,911.245 1157.47,908.639 1166.53,905.875 1175.5,902.942 1184.39,899.833 1193.18,896.536 1201.88,893.043 1210.47,889.345 1218.96,885.433 1227.34,881.296 1235.61,876.936 1243.78,872.361 1251.84,867.58 1259.8,862.604 1267.67,857.441 1275.46,852.1 1283.16,846.591 1290.78,840.924 1298.33,835.107 1305.81,829.15 1313.23,823.062 1320.59,816.853 1327.89,810.532 1335.14,804.108 1342.34,797.591 1349.5,790.99 1356.63,784.314 1363.72,777.573 1370.79,770.776 1377.83,763.932 1384.86,757.05 1391.87,750.141 1398.87,743.213 1405.86,736.276 "/>
<polyline clip-path="url(#clip982)" style="stroke:#000000; stroke-linecap:round; stroke-linejoin:round; stroke-width:4; stroke-opacity:1; fill:none" points="1405.86,736.276 1396.1,737.611 1386.34,738.956 1376.6,740.32 1366.86,741.712 1357.15,743.141 1347.45,744.617 1337.79,746.148 1328.16,747.746 1318.56,749.417 1309,751.173 1299.5,753.023 1290.04,754.974 1280.64,757.039 1271.29,759.224 1262.02,761.54 1252.81,763.996 1243.67,766.602 1234.62,769.366 1225.64,772.299 1216.76,775.408 1207.96,778.705 1199.27,782.198 1190.67,785.896 1182.18,789.808 1173.8,793.945 1165.53,798.305 1157.37,802.88 1149.31,807.661 1141.34,812.637 1133.47,817.8 1125.69,823.141 1117.98,828.65 1110.36,834.317 1102.81,840.134 1095.33,846.091 1087.91,852.179 1080.56,858.388 1073.26,864.709 1066.01,871.132 1058.8,877.65 1051.64,884.251 1044.51,890.927 1037.42,897.668 1030.36,904.465 1023.31,911.309 1016.29,918.191 1009.28,925.1 1002.28,932.028 995.281,938.965 "/>
<polyline clip-path="url(#clip982)" style="stroke:#000000; stroke-linecap:round; stroke-linejoin:round; stroke-width:4; stroke-opacity:1; fill:none" points="1405.86,736.276 1413.81,729.615 1421.75,722.949 1429.68,716.272 1437.57,709.578 1445.43,702.862 1453.25,696.118 1461.02,689.34 1468.72,682.523 1476.35,675.661 1483.91,668.749 1491.37,661.78 1498.74,654.751 1506.01,647.654 1513.16,640.484 1520.18,633.236 1527.08,625.904 1533.83,618.482 1540.44,610.966 1546.89,603.348 1553.17,595.625 1559.27,587.789 1565.19,579.836 1570.92,571.759 1576.45,563.554 1581.76,555.215 1586.87,546.742 1591.77,538.14 1596.48,529.415 1601,520.572 1605.35,511.617 1609.54,502.556 1613.56,493.395 1617.44,484.138 1621.17,474.791 1624.77,465.361 1628.25,455.852 1631.62,446.271 1634.88,436.622 1638.05,426.912 1641.12,417.146 1644.12,407.329 1647.05,397.468 1649.91,387.568 1652.72,377.634 1655.49,367.672 1658.23,357.687 1660.93,347.686 1663.62,337.674 1666.31,327.656 "/>
<polyline clip-path="url(#clip982)" style="stroke:#000000; stroke-linecap:round; stroke-linejoin:round; stroke-width:4; stroke-opacity:1; fill:none" points="1405.86,736.276 1410.86,741.796 1415.85,747.307 1420.86,752.799 1425.87,758.262 1430.91,763.686 1435.96,769.063 1441.04,774.382 1446.15,779.634 1451.29,784.81 1456.46,789.899 1461.68,794.893 1466.94,799.781 1472.25,804.554 1477.62,809.203 1483.04,813.717 1488.52,818.088 1494.07,822.305 1499.68,826.36 1505.37,830.242 1511.14,833.942 1516.99,837.451 1522.93,840.758 1528.95,843.854 1535.07,846.73 1541.29,849.377 1547.6,851.794 1554.01,853.991 1560.5,855.977 1567.09,857.761 1573.75,859.354 1580.49,860.765 1587.31,862.004 1594.2,863.08 1601.15,864.002 1608.16,864.781 1615.23,865.425 1622.35,865.945 1629.52,866.35 1636.73,866.65 1643.99,866.854 1651.28,866.971 1658.61,867.012 1665.96,866.986 1673.34,866.902 1680.74,866.771 1688.16,866.601 1695.58,866.402 1703.02,866.185 1710.46,865.957 "/>
<polyline clip-path="url(#clip982)" style="stroke:#000000; stroke-linecap:round; stroke-linejoin:round; stroke-width:4; stroke-opacity:1; fill:none" points="1666.31,327.656 1658.36,334.316 1650.42,340.982 1642.49,347.659 1634.6,354.353 1626.74,361.069 1618.92,367.814 1611.15,374.591 1603.45,381.409 1595.82,388.27 1588.26,395.183 1580.8,402.151 1573.43,409.181 1566.16,416.277 1559.01,423.447 1551.99,430.695 1545.09,438.027 1538.34,445.449 1531.73,452.965 1525.28,460.583 1519,468.307 1512.9,476.142 1506.98,484.095 1501.25,492.172 1495.72,500.377 1490.41,508.716 1485.3,517.189 1480.4,525.791 1475.69,534.517 1471.17,543.359 1466.82,552.314 1462.63,561.375 1458.61,570.536 1454.73,579.793 1451,589.14 1447.39,598.57 1443.91,608.079 1440.55,617.66 1437.29,627.309 1434.12,637.019 1431.05,646.785 1428.05,656.602 1425.12,666.463 1422.26,676.363 1419.44,686.297 1416.68,696.26 1413.94,706.244 1411.23,716.245 1408.54,726.258 1405.86,736.276 "/>
<polyline clip-path="url(#clip982)" style="stroke:#000000; stroke-linecap:round; stroke-linejoin:round; stroke-width:4; stroke-opacity:1; fill:none" points="1666.31,327.656 1664.09,338.897 1661.89,350.137 1659.71,361.375 1657.56,372.611 1655.45,383.844 1653.4,395.072 1651.4,406.296 1649.48,417.513 1647.64,428.723 1645.9,439.926 1644.26,451.12 1642.73,462.305 1641.33,473.48 1640.06,484.644 1638.94,495.795 1637.97,506.934 1637.17,518.059 1636.55,529.17 1636.11,540.266 1635.87,551.345 1635.84,562.408 1636.02,573.452 1636.44,584.478 1637.09,595.484 1637.99,606.47 1639.14,617.435 1640.53,628.381 1642.14,639.308 1643.98,650.217 1646.02,661.109 1648.26,671.985 1650.69,682.846 1653.29,693.692 1656.06,704.525 1658.98,715.344 1662.05,726.152 1665.26,736.949 1668.59,747.736 1672.03,758.513 1675.58,769.282 1679.22,780.043 1682.94,790.797 1686.74,801.545 1690.6,812.288 1694.51,823.027 1698.46,833.763 1702.44,844.496 1706.44,855.227 1710.46,865.957 "/>
<polyline clip-path="url(#clip982)" style="stroke:#000000; stroke-linecap:round; stroke-linejoin:round; stroke-width:4; stroke-opacity:1; fill:none" points="1710.46,865.957 1705.47,860.437 1700.47,854.926 1695.46,849.434 1690.45,843.971 1685.41,838.547 1680.36,833.17 1675.28,827.851 1670.17,822.598 1665.04,817.423 1659.86,812.334 1654.64,807.34 1649.38,802.452 1644.07,797.679 1638.71,793.03 1633.28,788.516 1627.8,784.145 1622.25,779.928 1616.64,775.873 1610.95,771.991 1605.18,768.291 1599.33,764.782 1593.4,761.475 1587.37,758.379 1581.25,755.503 1575.04,752.856 1568.72,750.439 1562.31,748.242 1555.82,746.256 1549.23,744.472 1542.57,742.879 1535.83,741.468 1529.01,740.229 1522.13,739.153 1515.18,738.231 1508.16,737.452 1501.1,736.808 1493.97,736.288 1486.8,735.883 1479.59,735.583 1472.33,735.379 1465.04,735.262 1457.71,735.221 1450.36,735.247 1442.98,735.331 1435.58,735.462 1428.17,735.632 1420.74,735.831 1413.3,736.048 1405.86,736.276 "/>
<polyline clip-path="url(#clip982)" style="stroke:#000000; stroke-linecap:round; stroke-linejoin:round; stroke-width:4; stroke-opacity:1; fill:none" points="1710.46,865.957 1712.67,854.716 1714.87,843.476 1717.05,832.237 1719.2,821.001 1721.31,809.769 1723.37,798.541 1725.36,787.317 1727.28,776.1 1729.12,764.89 1730.87,753.687 1732.51,742.493 1734.03,731.308 1735.44,720.133 1736.7,708.969 1737.83,697.818 1738.79,686.679 1739.59,675.553 1740.22,664.443 1740.65,653.347 1740.89,642.268 1740.93,631.205 1740.74,620.161 1740.33,609.135 1739.68,598.129 1738.77,587.143 1737.63,576.178 1736.24,565.232 1734.62,554.305 1732.79,543.396 1730.74,532.504 1728.5,521.628 1726.08,510.767 1723.47,499.921 1720.71,489.088 1717.78,478.269 1714.71,467.461 1711.51,456.664 1708.18,445.877 1704.73,435.1 1701.19,424.331 1697.55,413.57 1693.82,402.816 1690.03,392.068 1686.17,381.325 1682.26,370.586 1678.31,359.85 1674.32,349.117 1670.32,338.386 1666.31,327.656 "/>
<path clip-path="url(#clip982)" d="M828.177 1348.57 L827.878 1341.07 L826.985 1333.62 L825.502 1326.26 L823.439 1319.04 L820.81 1312.01 L817.63 1305.21 L813.919 1298.68 L809.702 1292.47 L805.005 1286.62 L799.858 1281.15 L794.293 1276.12 L788.345 1271.54 L782.051 1267.44 L775.453 1263.86 L768.591 1260.82 L761.509 1258.33 L754.252 1256.41 L746.865 1255.08 L739.395 1254.33 L731.89 1254.18 L724.396 1254.63 L716.962 1255.67 L709.634 1257.3 L702.459 1259.5 L695.481 1262.27 L688.746 1265.59 L682.295 1269.43 L676.17 1273.77 L670.408 1278.58 L665.048 1283.83 L660.121 1289.5 L655.661 1295.54 L651.694 1301.91 L648.246 1308.58 L645.339 1315.5 L642.991 1322.63 L641.217 1329.92 L640.028 1337.34 L639.431 1344.82 L639.431 1352.33 L640.028 1359.81 L641.217 1367.22 L642.991 1374.52 L645.339 1381.65 L648.246 1388.57 L651.694 1395.23 L655.661 1401.61 L660.121 1407.65 L665.048 1413.31 L670.408 1418.57 L676.17 1423.38 L682.295 1427.72 L688.746 1431.56 L695.481 1434.87 L702.459 1437.64 L709.634 1439.85 L716.962 1441.48 L724.396 1442.52 L731.89 1442.96 L739.395 1442.81 L746.865 1442.07 L754.252 1440.73 L761.509 1438.81 L768.591 1436.33 L775.453 1433.28 L782.051 1429.7 L788.345 1425.61 L794.293 1421.03 L799.858 1415.99 L805.005 1410.53 L809.702 1404.67 L813.919 1398.46 L817.63 1391.93 L820.81 1385.13 L823.439 1378.1 L825.502 1370.89 L826.985 1363.53 L827.878 1356.07 L828.177 1348.57 L828.177 1348.57  Z" fill="#009af9" fill-rule="evenodd" fill-opacity="1"/>
<polyline clip-path="url(#clip982)" style="stroke:#000000; stroke-linecap:round; stroke-linejoin:round; stroke-width:4; stroke-opacity:1; fill:none" points="828.177,1348.57 827.878,1341.07 826.985,1333.62 825.502,1326.26 823.439,1319.04 820.81,1312.01 817.63,1305.21 813.919,1298.68 809.702,1292.47 805.005,1286.62 799.858,1281.15 794.293,1276.12 788.345,1271.54 782.051,1267.44 775.453,1263.86 768.591,1260.82 761.509,1258.33 754.252,1256.41 746.865,1255.08 739.395,1254.33 731.89,1254.18 724.396,1254.63 716.962,1255.67 709.634,1257.3 702.459,1259.5 695.481,1262.27 688.746,1265.59 682.295,1269.43 676.17,1273.77 670.408,1278.58 665.048,1283.83 660.121,1289.5 655.661,1295.54 651.694,1301.91 648.246,1308.58 645.339,1315.5 642.991,1322.63 641.217,1329.92 640.028,1337.34 639.431,1344.82 639.431,1352.33 640.028,1359.81 641.217,1367.22 642.991,1374.52 645.339,1381.65 648.246,1388.57 651.694,1395.23 655.661,1401.61 660.121,1407.65 665.048,1413.31 670.408,1418.57 676.17,1423.38 682.295,1427.72 688.746,1431.56 695.481,1434.87 702.459,1437.64 709.634,1439.85 716.962,1441.48 724.396,1442.52 731.89,1442.96 739.395,1442.81 746.865,1442.07 754.252,1440.73 761.509,1438.81 768.591,1436.33 775.453,1433.28 782.051,1429.7 788.345,1425.61 794.293,1421.03 799.858,1415.99 805.005,1410.53 809.702,1404.67 813.919,1398.46 817.63,1391.93 820.81,1385.13 823.439,1378.1 825.502,1370.89 826.985,1363.53 827.878,1356.07 828.177,1348.57 "/>
<path clip-path="url(#clip982)" d="M783.952 809.39 L783.653 801.89 L782.76 794.436 L781.277 787.077 L779.214 779.859 L776.584 772.828 L773.404 766.028 L769.694 759.502 L765.477 753.292 L760.78 747.436 L755.633 741.972 L750.067 736.934 L744.119 732.354 L737.826 728.262 L731.228 724.682 L724.366 721.638 L717.284 719.148 L710.027 717.23 L702.64 715.893 L695.17 715.148 L687.664 714.999 L680.171 715.447 L672.737 716.488 L665.409 718.117 L658.233 720.323 L651.256 723.092 L644.52 726.406 L638.07 730.246 L631.944 734.585 L626.183 739.398 L620.822 744.653 L615.896 750.317 L611.436 756.355 L607.469 762.728 L604.021 769.397 L601.114 776.318 L598.766 783.448 L596.991 790.742 L595.802 798.154 L595.206 805.637 L595.206 813.144 L595.802 820.627 L596.991 828.039 L598.766 835.333 L601.114 842.463 L604.021 849.384 L607.469 856.053 L611.436 862.426 L615.896 868.464 L620.822 874.128 L626.183 879.383 L631.944 884.196 L638.07 888.535 L644.52 892.375 L651.256 895.689 L658.233 898.458 L665.409 900.664 L672.737 902.293 L680.171 903.334 L687.664 903.782 L695.17 903.633 L702.64 902.888 L710.027 901.551 L717.284 899.633 L724.366 897.143 L731.228 894.099 L737.826 890.519 L744.119 886.426 L750.067 881.847 L755.633 876.809 L760.78 871.345 L765.477 865.489 L769.694 859.279 L773.404 852.753 L776.584 845.953 L779.214 838.922 L781.277 831.704 L782.76 824.345 L783.653 816.891 L783.952 809.39 L783.952 809.39  Z" fill="#009af9" fill-rule="evenodd" fill-opacity="1"/>
<polyline clip-path="url(#clip982)" style="stroke:#000000; stroke-linecap:round; stroke-linejoin:round; stroke-width:4; stroke-opacity:1; fill:none" points="783.952,809.39 783.653,801.89 782.76,794.436 781.277,787.077 779.214,779.859 776.584,772.828 773.404,766.028 769.694,759.502 765.477,753.292 760.78,747.436 755.633,741.972 750.067,736.934 744.119,732.354 737.826,728.262 731.228,724.682 724.366,721.638 717.284,719.148 710.027,717.23 702.64,715.893 695.17,715.148 687.664,714.999 680.171,715.447 672.737,716.488 665.409,718.117 658.233,720.323 651.256,723.092 644.52,726.406 638.07,730.246 631.944,734.585 626.183,739.398 620.822,744.653 615.896,750.317 611.436,756.355 607.469,762.728 604.021,769.397 601.114,776.318 598.766,783.448 596.991,790.742 595.802,798.154 595.206,805.637 595.206,813.144 595.802,820.627 596.991,828.039 598.766,835.333 601.114,842.463 604.021,849.384 607.469,856.053 611.436,862.426 615.896,868.464 620.822,874.128 626.183,879.383 631.944,884.196 638.07,888.535 644.52,892.375 651.256,895.689 658.233,898.458 665.409,900.664 672.737,902.293 680.171,903.334 687.664,903.782 695.17,903.633 702.64,902.888 710.027,901.551 717.284,899.633 724.366,897.143 731.228,894.099 737.826,890.519 744.119,886.426 750.067,881.847 755.633,876.809 760.78,871.345 765.477,865.489 769.694,859.279 773.404,852.753 776.584,845.953 779.214,838.922 781.277,831.704 782.76,824.345 783.653,816.891 783.952,809.39 "/>
<path clip-path="url(#clip982)" d="M1089.69 938.965 L1089.39 931.464 L1088.5 924.011 L1087.02 916.652 L1084.95 909.434 L1082.32 902.403 L1079.14 895.603 L1075.43 889.077 L1071.22 882.867 L1066.52 877.011 L1061.37 871.547 L1055.81 866.509 L1049.86 861.929 L1043.57 857.837 L1036.97 854.257 L1030.11 851.213 L1023.02 848.723 L1015.77 846.804 L1008.38 845.468 L1000.91 844.723 L993.404 844.574 L985.91 845.021 L978.476 846.063 L971.148 847.692 L963.973 849.898 L956.995 852.667 L950.26 855.981 L943.809 859.82 L937.684 864.16 L931.922 868.973 L926.562 874.228 L921.635 879.892 L917.175 885.93 L913.208 892.303 L909.76 898.971 L906.853 905.892 L904.505 913.023 L902.731 920.317 L901.542 927.729 L900.945 935.212 L900.945 942.719 L901.542 950.202 L902.731 957.614 L904.505 964.908 L906.853 972.038 L909.76 978.959 L913.208 985.627 L917.175 992.001 L921.635 998.039 L926.562 1003.7 L931.922 1008.96 L937.684 1013.77 L943.809 1018.11 L950.26 1021.95 L956.995 1025.26 L963.973 1028.03 L971.148 1030.24 L978.476 1031.87 L985.91 1032.91 L993.404 1033.36 L1000.91 1033.21 L1008.38 1032.46 L1015.77 1031.13 L1023.02 1029.21 L1030.11 1026.72 L1036.97 1023.67 L1043.57 1020.09 L1049.86 1016 L1055.81 1011.42 L1061.37 1006.38 L1066.52 1000.92 L1071.22 995.064 L1075.43 988.853 L1079.14 982.328 L1082.32 975.528 L1084.95 968.496 L1087.02 961.279 L1088.5 953.92 L1089.39 946.466 L1089.69 938.965 L1089.69 938.965  Z" fill="#009af9" fill-rule="evenodd" fill-opacity="1"/>
<polyline clip-path="url(#clip982)" style="stroke:#000000; stroke-linecap:round; stroke-linejoin:round; stroke-width:4; stroke-opacity:1; fill:none" points="1089.69,938.965 1089.39,931.464 1088.5,924.011 1087.02,916.652 1084.95,909.434 1082.32,902.403 1079.14,895.603 1075.43,889.077 1071.22,882.867 1066.52,877.011 1061.37,871.547 1055.81,866.509 1049.86,861.929 1043.57,857.837 1036.97,854.257 1030.11,851.213 1023.02,848.723 1015.77,846.804 1008.38,845.468 1000.91,844.723 993.404,844.574 985.91,845.021 978.476,846.063 971.148,847.692 963.973,849.898 956.995,852.667 950.26,855.981 943.809,859.82 937.684,864.16 931.922,868.973 926.562,874.228 921.635,879.892 917.175,885.93 913.208,892.303 909.76,898.971 906.853,905.892 904.505,913.023 902.731,920.317 901.542,927.729 900.945,935.212 900.945,942.719 901.542,950.202 902.731,957.614 904.505,964.908 906.853,972.038 909.76,978.959 913.208,985.627 917.175,992.001 921.635,998.039 926.562,1003.7 931.922,1008.96 937.684,1013.77 943.809,1018.11 950.26,1021.95 956.995,1025.26 963.973,1028.03 971.148,1030.24 978.476,1031.87 985.91,1032.91 993.404,1033.36 1000.91,1033.21 1008.38,1032.46 1015.77,1031.13 1023.02,1029.21 1030.11,1026.72 1036.97,1023.67 1043.57,1020.09 1049.86,1016 1055.81,1011.42 1061.37,1006.38 1066.52,1000.92 1071.22,995.064 1075.43,988.853 1079.14,982.328 1082.32,975.528 1084.95,968.496 1087.02,961.279 1088.5,953.92 1089.39,946.466 1089.69,938.965 "/>
<path clip-path="url(#clip982)" d="M1500.27 736.276 L1499.98 728.775 L1499.08 721.321 L1497.6 713.962 L1495.54 706.744 L1492.91 699.713 L1489.73 692.913 L1486.02 686.387 L1481.8 680.177 L1477.1 674.321 L1471.95 668.857 L1466.39 663.819 L1460.44 659.24 L1454.15 655.147 L1447.55 651.567 L1440.69 648.523 L1433.61 646.034 L1426.35 644.115 L1418.96 642.778 L1411.49 642.033 L1403.99 641.884 L1396.49 642.332 L1389.06 643.373 L1381.73 645.002 L1374.56 647.208 L1367.58 649.977 L1360.84 653.291 L1354.39 657.131 L1348.27 661.47 L1342.5 666.283 L1337.14 671.538 L1332.22 677.202 L1327.76 683.24 L1323.79 689.613 L1320.34 696.282 L1317.44 703.203 L1315.09 710.333 L1313.31 717.627 L1312.12 725.039 L1311.53 732.522 L1311.53 740.029 L1312.12 747.512 L1313.31 754.924 L1315.09 762.218 L1317.44 769.348 L1320.34 776.27 L1323.79 782.938 L1327.76 789.311 L1332.22 795.349 L1337.14 801.013 L1342.5 806.268 L1348.27 811.081 L1354.39 815.421 L1360.84 819.26 L1367.58 822.574 L1374.56 825.343 L1381.73 827.549 L1389.06 829.178 L1396.49 830.22 L1403.99 830.667 L1411.49 830.518 L1418.96 829.773 L1426.35 828.437 L1433.61 826.518 L1440.69 824.028 L1447.55 820.984 L1454.15 817.404 L1460.44 813.312 L1466.39 808.732 L1471.95 803.694 L1477.1 798.23 L1481.8 792.374 L1486.02 786.164 L1489.73 779.638 L1492.91 772.838 L1495.54 765.807 L1497.6 758.589 L1499.08 751.23 L1499.98 743.776 L1500.27 736.276 L1500.27 736.276  Z" fill="#009af9" fill-rule="evenodd" fill-opacity="1"/>
<polyline clip-path="url(#clip982)" style="stroke:#000000; stroke-linecap:round; stroke-linejoin:round; stroke-width:4; stroke-opacity:1; fill:none" points="1500.27,736.276 1499.98,728.775 1499.08,721.321 1497.6,713.962 1495.54,706.744 1492.91,699.713 1489.73,692.913 1486.02,686.387 1481.8,680.177 1477.1,674.321 1471.95,668.857 1466.39,663.819 1460.44,659.24 1454.15,655.147 1447.55,651.567 1440.69,648.523 1433.61,646.034 1426.35,644.115 1418.96,642.778 1411.49,642.033 1403.99,641.884 1396.49,642.332 1389.06,643.373 1381.73,645.002 1374.56,647.208 1367.58,649.977 1360.84,653.291 1354.39,657.131 1348.27,661.47 1342.5,666.283 1337.14,671.538 1332.22,677.202 1327.76,683.24 1323.79,689.613 1320.34,696.282 1317.44,703.203 1315.09,710.333 1313.31,717.627 1312.12,725.039 1311.53,732.522 1311.53,740.029 1312.12,747.512 1313.31,754.924 1315.09,762.218 1317.44,769.348 1320.34,776.27 1323.79,782.938 1327.76,789.311 1332.22,795.349 1337.14,801.013 1342.5,806.268 1348.27,811.081 1354.39,815.421 1360.84,819.26 1367.58,822.574 1374.56,825.343 1381.73,827.549 1389.06,829.178 1396.49,830.22 1403.99,830.667 1411.49,830.518 1418.96,829.773 1426.35,828.437 1433.61,826.518 1440.69,824.028 1447.55,820.984 1454.15,817.404 1460.44,813.312 1466.39,808.732 1471.95,803.694 1477.1,798.23 1481.8,792.374 1486.02,786.164 1489.73,779.638 1492.91,772.838 1495.54,765.807 1497.6,758.589 1499.08,751.23 1499.98,743.776 1500.27,736.276 "/>
<path clip-path="url(#clip982)" d="M1760.72 327.656 L1760.42 320.155 L1759.52 312.701 L1758.04 305.342 L1755.98 298.124 L1753.35 291.093 L1750.17 284.293 L1746.46 277.767 L1742.24 271.557 L1737.54 265.701 L1732.4 260.237 L1726.83 255.199 L1720.88 250.62 L1714.59 246.527 L1707.99 242.947 L1701.13 239.903 L1694.05 237.413 L1686.79 235.495 L1679.4 234.158 L1671.93 233.413 L1664.43 233.264 L1656.93 233.712 L1649.5 234.753 L1642.17 236.382 L1635 238.588 L1628.02 241.357 L1621.28 244.671 L1614.83 248.511 L1608.71 252.85 L1602.95 257.663 L1597.59 262.918 L1592.66 268.582 L1588.2 274.62 L1584.23 280.993 L1580.78 287.662 L1577.88 294.583 L1575.53 301.713 L1573.76 309.007 L1572.57 316.419 L1571.97 323.902 L1571.97 331.409 L1572.57 338.892 L1573.76 346.304 L1575.53 353.598 L1577.88 360.728 L1580.78 367.649 L1584.23 374.318 L1588.2 380.691 L1592.66 386.729 L1597.59 392.393 L1602.95 397.648 L1608.71 402.461 L1614.83 406.8 L1621.28 410.64 L1628.02 413.954 L1635 416.723 L1642.17 418.929 L1649.5 420.558 L1656.93 421.599 L1664.43 422.047 L1671.93 421.898 L1679.4 421.153 L1686.79 419.816 L1694.05 417.898 L1701.13 415.408 L1707.99 412.364 L1714.59 408.784 L1720.88 404.692 L1726.83 400.112 L1732.4 395.074 L1737.54 389.61 L1742.24 383.754 L1746.46 377.544 L1750.17 371.018 L1753.35 364.218 L1755.98 357.187 L1758.04 349.969 L1759.52 342.61 L1760.42 335.156 L1760.72 327.656 L1760.72 327.656  Z" fill="#009af9" fill-rule="evenodd" fill-opacity="1"/>
<polyline clip-path="url(#clip982)" style="stroke:#000000; stroke-linecap:round; stroke-linejoin:round; stroke-width:4; stroke-opacity:1; fill:none" points="1760.72,327.656 1760.42,320.155 1759.52,312.701 1758.04,305.342 1755.98,298.124 1753.35,291.093 1750.17,284.293 1746.46,277.767 1742.24,271.557 1737.54,265.701 1732.4,260.237 1726.83,255.199 1720.88,250.62 1714.59,246.527 1707.99,242.947 1701.13,239.903 1694.05,237.413 1686.79,235.495 1679.4,234.158 1671.93,233.413 1664.43,233.264 1656.93,233.712 1649.5,234.753 1642.17,236.382 1635,238.588 1628.02,241.357 1621.28,244.671 1614.83,248.511 1608.71,252.85 1602.95,257.663 1597.59,262.918 1592.66,268.582 1588.2,274.62 1584.23,280.993 1580.78,287.662 1577.88,294.583 1575.53,301.713 1573.76,309.007 1572.57,316.419 1571.97,323.902 1571.97,331.409 1572.57,338.892 1573.76,346.304 1575.53,353.598 1577.88,360.728 1580.78,367.649 1584.23,374.318 1588.2,380.691 1592.66,386.729 1597.59,392.393 1602.95,397.648 1608.71,402.461 1614.83,406.8 1621.28,410.64 1628.02,413.954 1635,416.723 1642.17,418.929 1649.5,420.558 1656.93,421.599 1664.43,422.047 1671.93,421.898 1679.4,421.153 1686.79,419.816 1694.05,417.898 1701.13,415.408 1707.99,412.364 1714.59,408.784 1720.88,404.692 1726.83,400.112 1732.4,395.074 1737.54,389.61 1742.24,383.754 1746.46,377.544 1750.17,371.018 1753.35,364.218 1755.98,357.187 1758.04,349.969 1759.52,342.61 1760.42,335.156 1760.72,327.656 "/>
<path clip-path="url(#clip982)" d="M1804.87 865.957 L1804.57 858.456 L1803.68 851.003 L1802.19 843.644 L1800.13 836.426 L1797.5 829.395 L1794.32 822.595 L1790.61 816.069 L1786.39 809.859 L1781.7 804.003 L1776.55 798.539 L1770.98 793.501 L1765.04 788.921 L1758.74 784.829 L1752.14 781.249 L1745.28 778.205 L1738.2 775.715 L1730.94 773.796 L1723.56 772.46 L1716.09 771.715 L1708.58 771.566 L1701.09 772.013 L1693.65 773.055 L1686.33 774.684 L1679.15 776.89 L1672.17 779.659 L1665.44 782.973 L1658.99 786.812 L1652.86 791.152 L1647.1 795.965 L1641.74 801.22 L1636.81 806.884 L1632.35 812.922 L1628.39 819.295 L1624.94 825.963 L1622.03 832.884 L1619.68 840.015 L1617.91 847.309 L1616.72 854.721 L1616.12 862.204 L1616.12 869.711 L1616.72 877.194 L1617.91 884.606 L1619.68 891.9 L1622.03 899.03 L1624.94 905.951 L1628.39 912.619 L1632.35 918.993 L1636.81 925.031 L1641.74 930.695 L1647.1 935.95 L1652.86 940.763 L1658.99 945.102 L1665.44 948.942 L1672.17 952.256 L1679.15 955.025 L1686.33 957.231 L1693.65 958.86 L1701.09 959.901 L1708.58 960.349 L1716.09 960.2 L1723.56 959.454 L1730.94 958.118 L1738.2 956.199 L1745.28 953.71 L1752.14 950.666 L1758.74 947.086 L1765.04 942.993 L1770.98 938.414 L1776.55 933.376 L1781.7 927.912 L1786.39 922.056 L1790.61 915.846 L1794.32 909.32 L1797.5 902.52 L1800.13 895.489 L1802.19 888.271 L1803.68 880.912 L1804.57 873.458 L1804.87 865.957 L1804.87 865.957  Z" fill="#009af9" fill-rule="evenodd" fill-opacity="1"/>
<polyline clip-path="url(#clip982)" style="stroke:#000000; stroke-linecap:round; stroke-linejoin:round; stroke-width:4; stroke-opacity:1; fill:none" points="1804.87,865.957 1804.57,858.456 1803.68,851.003 1802.19,843.644 1800.13,836.426 1797.5,829.395 1794.32,822.595 1790.61,816.069 1786.39,809.859 1781.7,804.003 1776.55,798.539 1770.98,793.501 1765.04,788.921 1758.74,784.829 1752.14,781.249 1745.28,778.205 1738.2,775.715 1730.94,773.796 1723.56,772.46 1716.09,771.715 1708.58,771.566 1701.09,772.013 1693.65,773.055 1686.33,774.684 1679.15,776.89 1672.17,779.659 1665.44,782.973 1658.99,786.812 1652.86,791.152 1647.1,795.965 1641.74,801.22 1636.81,806.884 1632.35,812.922 1628.39,819.295 1624.94,825.963 1622.03,832.884 1619.68,840.015 1617.91,847.309 1616.72,854.721 1616.12,862.204 1616.12,869.711 1616.72,877.194 1617.91,884.606 1619.68,891.9 1622.03,899.03 1624.94,905.951 1628.39,912.619 1632.35,918.993 1636.81,925.031 1641.74,930.695 1647.1,935.95 1652.86,940.763 1658.99,945.102 1665.44,948.942 1672.17,952.256 1679.15,955.025 1686.33,957.231 1693.65,958.86 1701.09,959.901 1708.58,960.349 1716.09,960.2 1723.56,959.454 1730.94,958.118 1738.2,956.199 1745.28,953.71 1752.14,950.666 1758.74,947.086 1765.04,942.993 1770.98,938.414 1776.55,933.376 1781.7,927.912 1786.39,922.056 1790.61,915.846 1794.32,909.32 1797.5,902.52 1800.13,895.489 1802.19,888.271 1803.68,880.912 1804.57,873.458 1804.87,865.957 "/>
<circle clip-path="url(#clip982)" style="fill:#009af9; stroke:none; fill-opacity:0" cx="733.767" cy="1348.57" r="2"/>
<circle clip-path="url(#clip982)" style="fill:#009af9; stroke:none; fill-opacity:0" cx="689.542" cy="809.39" r="2"/>
<circle clip-path="url(#clip982)" style="fill:#009af9; stroke:none; fill-opacity:0" cx="995.281" cy="938.965" r="2"/>
<circle clip-path="url(#clip982)" style="fill:#009af9; stroke:none; fill-opacity:0" cx="1405.86" cy="736.276" r="2"/>
<circle clip-path="url(#clip982)" style="fill:#009af9; stroke:none; fill-opacity:0" cx="1666.31" cy="327.656" r="2"/>
<circle clip-path="url(#clip982)" style="fill:#009af9; stroke:none; fill-opacity:0" cx="1710.46" cy="865.957" r="2"/>
<path clip-path="url(#clip980)" d="M690.625 1368.59 L715.104 1368.59 L715.104 1374.49 L682.187 1374.49 L682.187 1368.59 Q686.18 1364.46 693.055 1357.51 Q699.965 1350.53 701.736 1348.52 Q705.104 1344.74 706.423 1342.13 Q707.777 1339.49 707.777 1336.96 Q707.777 1332.83 704.861 1330.22 Q701.979 1327.62 697.326 1327.62 Q694.027 1327.62 690.347 1328.76 Q686.701 1329.91 682.534 1332.24 L682.534 1325.15 Q686.771 1323.45 690.451 1322.58 Q694.132 1321.72 697.187 1321.72 Q705.243 1321.72 710.034 1325.74 Q714.826 1329.77 714.826 1336.51 Q714.826 1339.7 713.611 1342.58 Q712.43 1345.43 709.27 1349.32 Q708.402 1350.33 703.75 1355.15 Q699.097 1359.94 690.625 1368.59 Z" fill="#000000" fill-rule="nonzero" fill-opacity="1" /><path clip-path="url(#clip980)" d="M729.826 1365.67 L737.152 1365.67 L737.152 1374.49 L729.826 1374.49 L729.826 1365.67 Z" fill="#000000" fill-rule="nonzero" fill-opacity="1" /><path clip-path="url(#clip980)" d="M767.43 1327.27 Q762.013 1327.27 759.27 1332.62 Q756.562 1337.93 756.562 1348.62 Q756.562 1359.28 759.27 1364.63 Q762.013 1369.94 767.43 1369.94 Q772.881 1369.94 775.589 1364.63 Q778.333 1359.28 778.333 1348.62 Q778.333 1337.93 775.589 1332.62 Q772.881 1327.27 767.43 1327.27 M767.43 1321.72 Q776.145 1321.72 780.728 1328.62 Q785.346 1335.5 785.346 1348.62 Q785.346 1361.71 780.728 1368.62 Q776.145 1375.5 767.43 1375.5 Q758.715 1375.5 754.097 1368.62 Q749.513 1361.71 749.513 1348.62 Q749.513 1335.5 754.097 1328.62 Q758.715 1321.72 767.43 1321.72 Z" fill="#000000" fill-rule="nonzero" fill-opacity="1" /><path clip-path="url(#clip980)" d="M660.497 789.582 L642.788 817.255 L660.497 817.255 L660.497 789.582 M658.656 783.47 L667.476 783.47 L667.476 817.255 L674.871 817.255 L674.871 823.088 L667.476 823.088 L667.476 835.31 L660.497 835.31 L660.497 823.088 L637.094 823.088 L637.094 816.318 L658.656 783.47 Z" fill="#000000" fill-rule="nonzero" fill-opacity="1" /><path clip-path="url(#clip980)" d="M686.469 826.491 L693.795 826.491 L693.795 835.31 L686.469 835.31 L686.469 826.491 Z" fill="#000000" fill-rule="nonzero" fill-opacity="1" /><path clip-path="url(#clip980)" d="M724.073 788.089 Q718.656 788.089 715.913 793.436 Q713.205 798.748 713.205 809.443 Q713.205 820.102 715.913 825.449 Q718.656 830.762 724.073 830.762 Q729.524 830.762 732.232 825.449 Q734.975 820.102 734.975 809.443 Q734.975 798.748 732.232 793.436 Q729.524 788.089 724.073 788.089 M724.073 782.533 Q732.788 782.533 737.371 789.443 Q741.989 796.318 741.989 809.443 Q741.989 822.533 737.371 829.442 Q732.788 836.317 724.073 836.317 Q715.357 836.317 710.739 829.442 Q706.156 822.533 706.156 809.443 Q706.156 796.318 710.739 789.443 Q715.357 782.533 724.073 782.533 Z" fill="#000000" fill-rule="nonzero" fill-opacity="1" /><path clip-path="url(#clip980)" d="M967.243 936.934 Q972.277 938.01 975.09 941.413 Q977.937 944.816 977.937 949.816 Q977.937 957.49 972.659 961.691 Q967.382 965.892 957.659 965.892 Q954.396 965.892 950.923 965.233 Q947.486 964.608 943.805 963.323 L943.805 956.552 Q946.722 958.253 950.194 959.121 Q953.666 959.99 957.451 959.99 Q964.048 959.99 967.486 957.385 Q970.958 954.781 970.958 949.816 Q970.958 945.233 967.729 942.663 Q964.534 940.059 958.805 940.059 L952.764 940.059 L952.764 934.295 L959.083 934.295 Q964.257 934.295 967 932.247 Q969.743 930.163 969.743 926.274 Q969.743 922.281 966.896 920.163 Q964.083 918.011 958.805 918.011 Q955.923 918.011 952.625 918.636 Q949.326 919.261 945.368 920.58 L945.368 914.33 Q949.361 913.219 952.833 912.663 Q956.34 912.108 959.43 912.108 Q967.416 912.108 972.069 915.754 Q976.722 919.365 976.722 925.545 Q976.722 929.851 974.257 932.837 Q971.791 935.788 967.243 936.934 Z" fill="#000000" fill-rule="nonzero" fill-opacity="1" /><path clip-path="url(#clip980)" d="M991.236 956.066 L998.562 956.066 L998.562 964.885 L991.236 964.885 L991.236 956.066 Z" fill="#000000" fill-rule="nonzero" fill-opacity="1" /><path clip-path="url(#clip980)" d="M1028.84 917.663 Q1023.42 917.663 1020.68 923.011 Q1017.97 928.323 1017.97 939.017 Q1017.97 949.677 1020.68 955.024 Q1023.42 960.337 1028.84 960.337 Q1034.29 960.337 1037 955.024 Q1039.74 949.677 1039.74 939.017 Q1039.74 928.323 1037 923.011 Q1034.29 917.663 1028.84 917.663 M1028.84 912.108 Q1037.55 912.108 1042.14 919.018 Q1046.76 925.892 1046.76 939.017 Q1046.76 952.108 1042.14 959.017 Q1037.55 965.892 1028.84 965.892 Q1020.12 965.892 1015.51 959.017 Q1010.92 952.108 1010.92 939.017 Q1010.92 925.892 1015.51 919.018 Q1020.12 912.108 1028.84 912.108 Z" fill="#000000" fill-rule="nonzero" fill-opacity="1" /><path clip-path="url(#clip980)" d="M1372.67 733.48 Q1367.95 733.48 1365.17 736.71 Q1362.43 739.939 1362.43 745.564 Q1362.43 751.154 1365.17 754.418 Q1367.95 757.647 1372.67 757.647 Q1377.39 757.647 1380.13 754.418 Q1382.91 751.154 1382.91 745.564 Q1382.91 739.939 1380.13 736.71 Q1377.39 733.48 1372.67 733.48 M1386.59 711.501 L1386.59 717.89 Q1383.95 716.64 1381.25 715.981 Q1378.57 715.321 1375.93 715.321 Q1368.99 715.321 1365.31 720.008 Q1361.66 724.696 1361.14 734.175 Q1363.19 731.154 1366.28 729.557 Q1369.37 727.925 1373.09 727.925 Q1380.9 727.925 1385.41 732.682 Q1389.96 737.404 1389.96 745.564 Q1389.96 753.55 1385.24 758.376 Q1380.52 763.203 1372.67 763.203 Q1363.68 763.203 1358.92 756.328 Q1354.16 749.418 1354.16 736.328 Q1354.16 724.036 1360 716.744 Q1365.83 709.418 1375.66 709.418 Q1378.29 709.418 1380.97 709.939 Q1383.68 710.46 1386.59 711.501 Z" fill="#000000" fill-rule="nonzero" fill-opacity="1" /><path clip-path="url(#clip980)" d="M1402.04 753.376 L1409.37 753.376 L1409.37 762.196 L1402.04 762.196 L1402.04 753.376 Z" fill="#000000" fill-rule="nonzero" fill-opacity="1" /><path clip-path="url(#clip980)" d="M1439.65 714.974 Q1434.23 714.974 1431.49 720.321 Q1428.78 725.633 1428.78 736.328 Q1428.78 746.987 1431.49 752.335 Q1434.23 757.647 1439.65 757.647 Q1445.1 757.647 1447.81 752.335 Q1450.55 746.987 1450.55 736.328 Q1450.55 725.633 1447.81 720.321 Q1445.1 714.974 1439.65 714.974 M1439.65 709.418 Q1448.36 709.418 1452.95 716.328 Q1457.56 723.203 1457.56 736.328 Q1457.56 749.418 1452.95 756.328 Q1448.36 763.203 1439.65 763.203 Q1430.93 763.203 1426.31 756.328 Q1421.73 749.418 1421.73 736.328 Q1421.73 723.203 1426.31 716.328 Q1430.93 709.418 1439.65 709.418 Z" fill="#000000" fill-rule="nonzero" fill-opacity="1" /><path clip-path="url(#clip980)" d="M1617.05 301.736 L1644.59 301.736 L1644.59 307.638 L1623.48 307.638 L1623.48 320.347 Q1625 319.826 1626.53 319.583 Q1628.06 319.305 1629.59 319.305 Q1638.27 319.305 1643.34 324.062 Q1648.41 328.819 1648.41 336.944 Q1648.41 345.312 1643.2 349.964 Q1637.99 354.582 1628.51 354.582 Q1625.25 354.582 1621.84 354.027 Q1618.48 353.471 1614.86 352.36 L1614.86 345.312 Q1617.99 347.013 1621.32 347.846 Q1624.66 348.68 1628.37 348.68 Q1634.38 348.68 1637.89 345.52 Q1641.39 342.36 1641.39 336.944 Q1641.39 331.527 1637.89 328.367 Q1634.38 325.208 1628.37 325.208 Q1625.56 325.208 1622.75 325.833 Q1619.97 326.458 1617.05 327.777 L1617.05 301.736 Z" fill="#000000" fill-rule="nonzero" fill-opacity="1" /><path clip-path="url(#clip980)" d="M1662.23 344.756 L1669.55 344.756 L1669.55 353.576 L1662.23 353.576 L1662.23 344.756 Z" fill="#000000" fill-rule="nonzero" fill-opacity="1" /><path clip-path="url(#clip980)" d="M1699.83 306.354 Q1694.41 306.354 1691.67 311.701 Q1688.96 317.013 1688.96 327.708 Q1688.96 338.367 1691.67 343.714 Q1694.41 349.027 1699.83 349.027 Q1705.28 349.027 1707.99 343.714 Q1710.73 338.367 1710.73 327.708 Q1710.73 317.013 1707.99 311.701 Q1705.28 306.354 1699.83 306.354 M1699.83 300.798 Q1708.54 300.798 1713.13 307.708 Q1717.75 314.583 1717.75 327.708 Q1717.75 340.798 1713.13 347.707 Q1708.54 354.582 1699.83 354.582 Q1691.11 354.582 1686.5 347.707 Q1681.91 340.798 1681.91 327.708 Q1681.91 314.583 1686.5 307.708 Q1691.11 300.798 1699.83 300.798 Z" fill="#000000" fill-rule="nonzero" fill-opacity="1" /><path clip-path="url(#clip980)" d="M1661.21 840.037 L1688.74 840.037 L1688.74 845.94 L1667.63 845.94 L1667.63 858.648 Q1669.16 858.128 1670.68 857.884 Q1672.21 857.607 1673.74 857.607 Q1682.42 857.607 1687.49 862.364 Q1692.56 867.121 1692.56 875.245 Q1692.56 883.613 1687.35 888.266 Q1682.14 892.884 1672.66 892.884 Q1669.4 892.884 1666 892.329 Q1662.63 891.773 1659.02 890.662 L1659.02 883.613 Q1662.14 885.315 1665.48 886.148 Q1668.81 886.982 1672.52 886.982 Q1678.53 886.982 1682.04 883.822 Q1685.55 880.662 1685.55 875.245 Q1685.55 869.829 1682.04 866.669 Q1678.53 863.509 1672.52 863.509 Q1669.71 863.509 1666.9 864.134 Q1664.12 864.759 1661.21 866.079 L1661.21 840.037 Z" fill="#000000" fill-rule="nonzero" fill-opacity="1" /><path clip-path="url(#clip980)" d="M1706.38 883.058 L1713.71 883.058 L1713.71 891.877 L1706.38 891.877 L1706.38 883.058 Z" fill="#000000" fill-rule="nonzero" fill-opacity="1" /><path clip-path="url(#clip980)" d="M1743.98 844.655 Q1738.57 844.655 1735.82 850.003 Q1733.11 855.315 1733.11 866.009 Q1733.11 876.669 1735.82 882.016 Q1738.57 887.329 1743.98 887.329 Q1749.43 887.329 1752.14 882.016 Q1754.89 876.669 1754.89 866.009 Q1754.89 855.315 1752.14 850.003 Q1749.43 844.655 1743.98 844.655 M1743.98 839.1 Q1752.7 839.1 1757.28 846.01 Q1761.9 852.884 1761.9 866.009 Q1761.9 879.1 1757.28 886.009 Q1752.7 892.884 1743.98 892.884 Q1735.27 892.884 1730.65 886.009 Q1726.07 879.1 1726.07 866.009 Q1726.07 852.884 1730.65 846.01 Q1735.27 839.1 1743.98 839.1 Z" fill="#000000" fill-rule="nonzero" fill-opacity="1" /></svg>
