<?xml version="1.0" encoding="utf-8"?>
<svg xmlns="http://www.w3.org/2000/svg" xmlns:xlink="http://www.w3.org/1999/xlink" width="600" height="400" viewBox="0 0 2400 1600">
<defs>
  <clipPath id="clip120">
    <rect x="0" y="0" width="2400" height="1600"/>
  </clipPath>
</defs>
<path clip-path="url(#clip120)" d="M0 1600 L2400 1600 L2400 0 L0 0  Z" fill="#ffffff" fill-rule="evenodd" fill-opacity="1"/>
<defs>
  <clipPath id="clip121">
    <rect x="480" y="0" width="1681" height="1600"/>
  </clipPath>
</defs>
<path clip-path="url(#clip120)" d="M485.358 1552.76 L1914.64 1552.76 L1914.64 123.472 L485.358 123.472  Z" fill="#ffffff" fill-rule="evenodd" fill-opacity="1"/>
<defs>
  <clipPath id="clip122">
    <rect x="485" y="123" width="1430" height="1430"/>
  </clipPath>
</defs>
<path clip-path="url(#clip120)" d="M964.926 72.576 L941.836 12.096 L950.383 12.096 L969.544 63.0159 L988.745 12.096 L997.252 12.096 L974.203 72.576 L964.926 72.576 Z" fill="#000000" fill-rule="nonzero" fill-opacity="1" /><path clip-path="url(#clip120)" d="M1003.94 27.2059 L1011.39 27.2059 L1011.39 72.576 L1003.94 72.576 L1003.94 27.2059 M1003.94 9.54393 L1011.39 9.54393 L1011.39 18.9825 L1003.94 18.9825 L1003.94 9.54393 Z" fill="#000000" fill-rule="nonzero" fill-opacity="1" /><path clip-path="url(#clip120)" d="M1055.91 28.5427 L1055.91 35.5912 Q1052.75 33.9709 1049.35 33.1607 Q1045.94 32.3505 1042.3 32.3505 Q1036.75 32.3505 1033.95 34.0519 Q1031.2 35.7533 1031.2 39.156 Q1031.2 41.7486 1033.18 43.2475 Q1035.17 44.7058 1041.16 46.0426 L1043.72 46.6097 Q1051.66 48.3111 1054.98 51.4303 Q1058.34 54.509 1058.34 60.0587 Q1058.34 66.3781 1053.32 70.0644 Q1048.33 73.7508 1039.58 73.7508 Q1035.94 73.7508 1031.97 73.0216 Q1028.04 72.3329 1023.66 70.9151 L1023.66 63.2184 Q1027.8 65.3654 1031.81 66.4591 Q1035.82 67.5124 1039.75 67.5124 Q1045.01 67.5124 1047.85 65.73 Q1050.68 63.9071 1050.68 60.6258 Q1050.68 57.5877 1048.62 55.9673 Q1046.59 54.3469 1039.67 52.8481 L1037.07 52.2405 Q1030.15 50.7821 1027.07 47.7845 Q1023.99 44.7463 1023.99 39.4801 Q1023.99 33.0797 1028.53 29.5959 Q1033.06 26.1121 1041.41 26.1121 Q1045.54 26.1121 1049.18 26.7198 Q1052.83 27.3274 1055.91 28.5427 Z" fill="#000000" fill-rule="nonzero" fill-opacity="1" /><path clip-path="url(#clip120)" d="M1069.44 54.671 L1069.44 27.2059 L1076.89 27.2059 L1076.89 54.3874 Q1076.89 60.8284 1079.4 64.0691 Q1081.92 67.2693 1086.94 67.2693 Q1092.98 67.2693 1096.46 63.421 Q1099.98 59.5726 1099.98 52.9291 L1099.98 27.2059 L1107.44 27.2059 L1107.44 72.576 L1099.98 72.576 L1099.98 65.6084 Q1097.27 69.7404 1093.66 71.7658 Q1090.1 73.7508 1085.36 73.7508 Q1077.54 73.7508 1073.49 68.8897 Q1069.44 64.0286 1069.44 54.671 M1088.2 26.1121 L1088.2 26.1121 Z" fill="#000000" fill-rule="nonzero" fill-opacity="1" /><path clip-path="url(#clip120)" d="M1143.41 49.7694 Q1134.38 49.7694 1130.89 51.8354 Q1127.41 53.9013 1127.41 58.8839 Q1127.41 62.8538 1130 65.2034 Q1132.63 67.5124 1137.13 67.5124 Q1143.33 67.5124 1147.05 63.1374 Q1150.82 58.7219 1150.82 51.4303 L1150.82 49.7694 L1143.41 49.7694 M1158.28 46.6907 L1158.28 72.576 L1150.82 72.576 L1150.82 65.6895 Q1148.27 69.8214 1144.46 71.8063 Q1140.65 73.7508 1135.15 73.7508 Q1128.18 73.7508 1124.05 69.8619 Q1119.95 65.9325 1119.95 59.3701 Q1119.95 51.7138 1125.06 47.825 Q1130.2 43.9361 1140.37 43.9361 L1150.82 43.9361 L1150.82 43.2069 Q1150.82 38.0623 1147.42 35.2672 Q1144.06 32.4315 1137.94 32.4315 Q1134.05 32.4315 1130.36 33.3632 Q1126.68 34.295 1123.28 36.1584 L1123.28 29.2718 Q1127.37 27.692 1131.22 26.9223 Q1135.06 26.1121 1138.71 26.1121 Q1148.55 26.1121 1153.41 31.2163 Q1158.28 36.3204 1158.28 46.6907 Z" fill="#000000" fill-rule="nonzero" fill-opacity="1" /><path clip-path="url(#clip120)" d="M1173.63 9.54393 L1181.08 9.54393 L1181.08 72.576 L1173.63 72.576 L1173.63 9.54393 Z" fill="#000000" fill-rule="nonzero" fill-opacity="1" /><path clip-path="url(#clip120)" d="M1196.68 27.2059 L1204.13 27.2059 L1204.13 72.576 L1196.68 72.576 L1196.68 27.2059 M1196.68 9.54393 L1204.13 9.54393 L1204.13 18.9825 L1196.68 18.9825 L1196.68 9.54393 Z" fill="#000000" fill-rule="nonzero" fill-opacity="1" /><path clip-path="url(#clip120)" d="M1216.49 27.2059 L1251.89 27.2059 L1251.89 34.0114 L1223.86 66.6212 L1251.89 66.6212 L1251.89 72.576 L1215.47 72.576 L1215.47 65.7705 L1243.51 33.1607 L1216.49 33.1607 L1216.49 27.2059 Z" fill="#000000" fill-rule="nonzero" fill-opacity="1" /><path clip-path="url(#clip120)" d="M1283.89 49.7694 Q1274.86 49.7694 1271.38 51.8354 Q1267.89 53.9013 1267.89 58.8839 Q1267.89 62.8538 1270.49 65.2034 Q1273.12 67.5124 1277.62 67.5124 Q1283.81 67.5124 1287.54 63.1374 Q1291.31 58.7219 1291.31 51.4303 L1291.31 49.7694 L1283.89 49.7694 M1298.76 46.6907 L1298.76 72.576 L1291.31 72.576 L1291.31 65.6895 Q1288.76 69.8214 1284.95 71.8063 Q1281.14 73.7508 1275.63 73.7508 Q1268.66 73.7508 1264.53 69.8619 Q1260.44 65.9325 1260.44 59.3701 Q1260.44 51.7138 1265.54 47.825 Q1270.69 43.9361 1280.86 43.9361 L1291.31 43.9361 L1291.31 43.2069 Q1291.31 38.0623 1287.9 35.2672 Q1284.54 32.4315 1278.43 32.4315 Q1274.54 32.4315 1270.85 33.3632 Q1267.16 34.295 1263.76 36.1584 L1263.76 29.2718 Q1267.85 27.692 1271.7 26.9223 Q1275.55 26.1121 1279.2 26.1121 Q1289.04 26.1121 1293.9 31.2163 Q1298.76 36.3204 1298.76 46.6907 Z" fill="#000000" fill-rule="nonzero" fill-opacity="1" /><path clip-path="url(#clip120)" d="M1321.49 14.324 L1321.49 27.2059 L1336.84 27.2059 L1336.84 32.9987 L1321.49 32.9987 L1321.49 57.6282 Q1321.49 63.1779 1322.99 64.7578 Q1324.52 66.3376 1329.18 66.3376 L1336.84 66.3376 L1336.84 72.576 L1329.18 72.576 Q1320.55 72.576 1317.27 69.3758 Q1313.99 66.1351 1313.99 57.6282 L1313.99 32.9987 L1308.52 32.9987 L1308.52 27.2059 L1313.99 27.2059 L1313.99 14.324 L1321.49 14.324 Z" fill="#000000" fill-rule="nonzero" fill-opacity="1" /><path clip-path="url(#clip120)" d="M1346.64 27.2059 L1354.1 27.2059 L1354.1 72.576 L1346.64 72.576 L1346.64 27.2059 M1346.64 9.54393 L1354.1 9.54393 L1354.1 18.9825 L1346.64 18.9825 L1346.64 9.54393 Z" fill="#000000" fill-rule="nonzero" fill-opacity="1" /><path clip-path="url(#clip120)" d="M1387.27 32.4315 Q1381.28 32.4315 1377.79 37.1306 Q1374.31 41.7891 1374.31 49.9314 Q1374.31 58.0738 1377.75 62.7728 Q1381.24 67.4314 1387.27 67.4314 Q1393.23 67.4314 1396.71 62.7323 Q1400.2 58.0333 1400.2 49.9314 Q1400.2 41.8701 1396.71 37.1711 Q1393.23 32.4315 1387.27 32.4315 M1387.27 26.1121 Q1397 26.1121 1402.55 32.4315 Q1408.09 38.7509 1408.09 49.9314 Q1408.09 61.0714 1402.55 67.4314 Q1397 73.7508 1387.27 73.7508 Q1377.51 73.7508 1371.96 67.4314 Q1366.45 61.0714 1366.45 49.9314 Q1366.45 38.7509 1371.96 32.4315 Q1377.51 26.1121 1387.27 26.1121 Z" fill="#000000" fill-rule="nonzero" fill-opacity="1" /><path clip-path="url(#clip120)" d="M1458.16 45.1919 L1458.16 72.576 L1450.71 72.576 L1450.71 45.4349 Q1450.71 38.994 1448.2 35.7938 Q1445.69 32.5936 1440.66 32.5936 Q1434.63 32.5936 1431.14 36.4419 Q1427.66 40.2903 1427.66 46.9338 L1427.66 72.576 L1420.17 72.576 L1420.17 27.2059 L1427.66 27.2059 L1427.66 34.2544 Q1430.33 30.163 1433.94 28.1376 Q1437.59 26.1121 1442.33 26.1121 Q1450.14 26.1121 1454.15 30.9732 Q1458.16 35.7938 1458.16 45.1919 Z" fill="#000000" fill-rule="nonzero" fill-opacity="1" /><polyline clip-path="url(#clip122)" style="stroke:#000000; stroke-linecap:round; stroke-linejoin:round; stroke-width:4; stroke-opacity:1; fill:none" points="1645.69,1348.57 1650.05,1343.63 1654.4,1338.69 1658.74,1333.75 1663.04,1328.79 1667.3,1323.83 1671.51,1318.86 1675.66,1313.87 1679.74,1308.87 1683.74,1303.84 1687.65,1298.8 1691.45,1293.73 1695.15,1288.63 1698.72,1283.51 1702.16,1278.35 1705.46,1273.17 1708.6,1267.94 1711.59,1262.68 1714.4,1257.38 1717.03,1252.04 1719.47,1246.65 1721.7,1241.21 1723.72,1235.72 1725.52,1230.19 1727.08,1224.59 1728.41,1218.94 1729.49,1213.24 1730.33,1207.47 1730.95,1201.66 1731.36,1195.8 1731.57,1189.89 1731.58,1183.93 1731.42,1177.93 1731.08,1171.89 1730.57,1165.82 1729.92,1159.7 1729.12,1153.56 1728.19,1147.38 1727.14,1141.18 1725.98,1134.94 1724.72,1128.69 1723.36,1122.41 1721.93,1116.12 1720.42,1109.81 1718.85,1103.48 1717.24,1097.14 1715.58,1090.8 1713.89,1084.44 1712.18,1078.08 1710.46,1071.72 "/>
<polyline clip-path="url(#clip122)" style="stroke:#000000; stroke-linecap:round; stroke-linejoin:round; stroke-width:4; stroke-opacity:1; fill:none" points="1645.69,1348.57 1639.55,1344.1 1633.41,1339.63 1627.3,1335.14 1621.22,1330.64 1615.17,1326.12 1609.16,1321.57 1603.21,1316.99 1597.32,1312.37 1591.51,1307.72 1585.78,1303.02 1580.13,1298.26 1574.59,1293.45 1569.16,1288.58 1563.84,1283.64 1558.65,1278.63 1553.59,1273.54 1548.68,1268.37 1543.93,1263.11 1539.33,1257.76 1534.91,1252.31 1530.67,1246.75 1526.62,1241.09 1522.77,1235.32 1519.13,1229.43 1515.7,1223.41 1512.49,1217.27 1509.49,1211.01 1506.69,1204.64 1504.08,1198.16 1501.65,1191.58 1499.39,1184.9 1497.29,1178.12 1495.35,1171.26 1493.55,1164.32 1491.89,1157.3 1490.35,1150.2 1488.94,1143.04 1487.63,1135.82 1486.42,1128.54 1485.3,1121.21 1484.26,1113.84 1483.3,1106.42 1482.39,1098.96 1481.55,1091.48 1480.74,1083.97 1479.98,1076.44 1479.24,1068.89 1478.52,1061.34 1477.81,1053.77 "/>
<polyline clip-path="url(#clip122)" style="stroke:#000000; stroke-linecap:round; stroke-linejoin:round; stroke-width:4; stroke-opacity:1; fill:none" points="1710.46,1071.72 1706.1,1076.66 1701.74,1081.6 1697.41,1086.54 1693.11,1091.5 1688.84,1096.46 1684.63,1101.43 1680.48,1106.42 1676.4,1111.43 1672.41,1116.45 1668.5,1121.5 1664.69,1126.57 1661,1131.66 1657.43,1136.78 1653.99,1141.94 1650.69,1147.13 1647.54,1152.35 1644.56,1157.61 1641.74,1162.91 1639.12,1168.26 1636.68,1173.64 1634.44,1179.08 1632.42,1184.57 1630.63,1190.11 1629.06,1195.7 1627.74,1201.35 1626.66,1207.06 1625.81,1212.82 1625.19,1218.63 1624.78,1224.5 1624.57,1230.41 1624.56,1236.36 1624.73,1242.36 1625.07,1248.4 1625.57,1254.48 1626.23,1260.59 1627.02,1266.74 1627.95,1272.91 1629,1279.12 1630.16,1285.35 1631.43,1291.6 1632.78,1297.88 1634.22,1304.17 1635.72,1310.49 1637.29,1316.81 1638.91,1323.15 1640.57,1329.5 1642.26,1335.85 1643.97,1342.21 1645.69,1348.57 "/>
<polyline clip-path="url(#clip122)" style="stroke:#000000; stroke-linecap:round; stroke-linejoin:round; stroke-width:4; stroke-opacity:1; fill:none" points="1710.46,1071.72 1705.47,1074.47 1700.48,1077.21 1695.5,1079.92 1690.51,1082.61 1685.53,1085.25 1680.56,1087.84 1675.59,1090.37 1670.62,1092.83 1665.66,1095.21 1660.71,1097.49 1655.76,1099.66 1650.83,1101.73 1645.9,1103.66 1640.99,1105.47 1636.08,1107.13 1631.19,1108.63 1626.31,1109.96 1621.45,1111.12 1616.59,1112.1 1611.76,1112.87 1606.94,1113.44 1602.14,1113.79 1597.35,1113.91 1592.58,1113.79 1587.83,1113.43 1583.11,1112.81 1578.4,1111.96 1573.7,1110.88 1569.03,1109.58 1564.37,1108.07 1559.72,1106.36 1555.09,1104.47 1550.48,1102.4 1545.87,1100.17 1541.28,1097.78 1536.7,1095.24 1532.13,1092.57 1527.57,1089.77 1523.02,1086.87 1518.47,1083.85 1513.94,1080.75 1509.41,1077.56 1504.88,1074.29 1500.36,1070.97 1495.85,1067.59 1491.33,1064.17 1486.82,1060.72 1482.31,1057.25 1477.81,1053.77 "/>
<polyline clip-path="url(#clip122)" style="stroke:#000000; stroke-linecap:round; stroke-linejoin:round; stroke-width:4; stroke-opacity:1; fill:none" points="1477.81,1053.77 1483.95,1058.24 1490.08,1062.72 1496.19,1067.21 1502.28,1071.71 1508.33,1076.23 1514.33,1080.78 1520.28,1085.36 1526.17,1089.97 1531.98,1094.63 1537.72,1099.33 1543.36,1104.08 1548.9,1108.89 1554.34,1113.77 1559.65,1118.71 1564.84,1123.72 1569.9,1128.81 1574.81,1133.98 1579.56,1139.24 1584.16,1144.59 1588.58,1150.04 1592.82,1155.59 1596.87,1161.25 1600.72,1167.03 1604.36,1172.92 1607.79,1178.94 1611,1185.08 1614,1191.33 1616.8,1197.71 1619.41,1204.19 1621.85,1210.77 1624.1,1217.45 1626.2,1224.22 1628.14,1231.08 1629.94,1238.03 1631.6,1245.05 1633.14,1252.14 1634.56,1259.3 1635.87,1266.52 1637.07,1273.8 1638.19,1281.13 1639.23,1288.51 1640.2,1295.93 1641.1,1303.38 1641.95,1310.87 1642.75,1318.38 1643.51,1325.91 1644.25,1333.45 1644.97,1341.01 1645.69,1348.57 "/>
<polyline clip-path="url(#clip122)" style="stroke:#000000; stroke-linecap:round; stroke-linejoin:round; stroke-width:4; stroke-opacity:1; fill:none" points="1477.81,1053.77 1482.79,1051.03 1487.78,1048.29 1492.77,1045.57 1497.75,1042.88 1502.73,1040.24 1507.71,1037.65 1512.68,1035.12 1517.64,1032.66 1522.6,1030.29 1527.56,1028.01 1532.5,1025.83 1537.44,1023.77 1542.36,1021.83 1547.28,1020.02 1552.18,1018.37 1557.07,1016.86 1561.95,1015.53 1566.82,1014.37 1571.67,1013.4 1576.51,1012.62 1581.33,1012.05 1586.13,1011.7 1590.91,1011.58 1595.68,1011.7 1600.43,1012.07 1605.16,1012.68 1609.87,1013.54 1614.56,1014.62 1619.24,1015.92 1623.9,1017.43 1628.54,1019.13 1633.17,1021.02 1637.79,1023.09 1642.39,1025.33 1646.99,1027.72 1651.57,1030.25 1656.14,1032.92 1660.7,1035.72 1665.25,1038.63 1669.79,1041.64 1674.33,1044.75 1678.86,1047.94 1683.38,1051.2 1687.9,1054.52 1692.42,1057.9 1696.93,1061.32 1701.44,1064.77 1705.95,1068.24 1710.46,1071.72 "/>
<polyline clip-path="url(#clip122)" style="stroke:#000000; stroke-linecap:round; stroke-linejoin:round; stroke-width:4; stroke-opacity:1; fill:none" points="1477.81,1053.77 1470.21,1051.81 1462.63,1049.83 1455.05,1047.84 1447.5,1045.83 1439.97,1043.78 1432.47,1041.69 1425.01,1039.55 1417.6,1037.35 1410.23,1035.09 1402.93,1032.76 1395.69,1030.34 1388.52,1027.83 1381.42,1025.22 1374.41,1022.51 1367.49,1019.68 1360.67,1016.73 1353.95,1013.65 1347.33,1010.43 1340.83,1007.06 1334.46,1003.53 1328.21,999.841 1322.1,995.979 1316.13,991.936 1310.3,987.704 1304.63,983.276 1299.11,978.651 1293.74,973.838 1288.51,968.843 1283.42,963.677 1278.45,958.346 1273.61,952.859 1268.88,947.225 1264.26,941.451 1259.74,935.546 1255.32,929.517 1250.99,923.374 1246.74,917.124 1242.56,910.776 1238.46,904.337 1234.43,897.816 1230.45,891.222 1226.52,884.561 1222.63,877.843 1218.79,871.076 1214.98,864.268 1211.19,857.427 1207.42,850.562 1203.67,843.68 1199.92,836.79 "/>
<polyline clip-path="url(#clip122)" style="stroke:#000000; stroke-linecap:round; stroke-linejoin:round; stroke-width:4; stroke-opacity:1; fill:none" points="1199.92,836.79 1207.51,838.756 1215.1,840.731 1222.67,842.722 1230.23,844.737 1237.76,846.786 1245.25,848.875 1252.71,851.014 1260.13,853.21 1267.49,855.472 1274.8,857.807 1282.04,860.225 1289.21,862.733 1296.3,865.339 1303.31,868.053 1310.23,870.881 1317.06,873.832 1323.78,876.915 1330.39,880.137 1336.89,883.506 1343.26,887.032 1349.51,890.722 1355.63,894.584 1361.6,898.627 1367.42,902.859 1373.09,907.287 1378.61,911.912 1383.98,916.725 1389.21,921.72 1394.31,926.886 1399.27,932.217 1404.12,937.704 1408.85,943.338 1413.47,949.112 1417.98,955.017 1422.41,961.045 1426.74,967.189 1430.99,973.439 1435.16,979.787 1439.26,986.226 1443.3,992.747 1447.28,999.341 1451.21,1006 1455.09,1012.72 1458.93,1019.49 1462.75,1026.29 1466.53,1033.14 1470.3,1040 1474.06,1046.88 1477.81,1053.77 "/>
<polyline clip-path="url(#clip122)" style="stroke:#000000; stroke-linecap:round; stroke-linejoin:round; stroke-width:4; stroke-opacity:1; fill:none" points="1199.92,836.79 1192.24,834.758 1184.57,832.719 1176.91,830.662 1169.27,828.582 1161.66,826.468 1154.08,824.313 1146.54,822.11 1139.04,819.848 1131.59,817.521 1124.2,815.12 1116.88,812.638 1109.63,810.064 1102.45,807.393 1095.35,804.614 1088.35,801.721 1081.44,798.704 1074.64,795.557 1067.94,792.269 1061.36,788.834 1054.9,785.243 1048.57,781.488 1042.37,777.561 1036.32,773.453 1030.41,769.156 1024.65,764.663 1019.05,759.973 1013.6,755.094 1008.29,750.034 1003.11,744.803 998.057,739.407 993.129,733.855 988.316,728.155 983.612,722.316 979.011,716.346 974.506,710.252 970.09,704.044 965.758,697.728 961.502,691.315 957.317,684.811 953.197,678.225 949.134,671.565 945.122,664.839 941.155,658.056 937.226,651.224 933.33,644.351 929.459,637.445 925.607,630.514 921.769,623.567 917.936,616.612 "/>
<polyline clip-path="url(#clip122)" style="stroke:#000000; stroke-linecap:round; stroke-linejoin:round; stroke-width:4; stroke-opacity:1; fill:none" points="917.936,616.612 925.613,618.643 933.284,620.683 940.942,622.739 948.58,624.82 956.193,626.933 963.774,629.088 971.317,631.292 978.814,633.553 986.261,635.88 993.649,638.281 1000.97,640.764 1008.23,643.337 1015.41,646.009 1022.5,648.787 1029.5,651.681 1036.41,654.697 1043.22,657.845 1049.91,661.132 1056.49,664.567 1062.95,668.158 1069.28,671.913 1075.48,675.841 1081.54,679.949 1087.45,684.245 1093.2,688.739 1098.8,693.429 1104.26,698.308 1109.57,703.367 1114.75,708.599 1119.8,713.995 1124.72,719.547 1129.54,725.246 1134.24,731.085 1138.84,737.056 1143.35,743.149 1147.76,749.358 1152.1,755.673 1156.35,762.087 1160.54,768.591 1164.66,775.177 1168.72,781.837 1172.73,788.562 1176.7,795.345 1180.63,802.177 1184.52,809.051 1188.39,815.957 1192.25,822.887 1196.08,829.835 1199.92,836.79 "/>
<polyline clip-path="url(#clip122)" style="stroke:#000000; stroke-linecap:round; stroke-linejoin:round; stroke-width:4; stroke-opacity:1; fill:none" points="917.936,616.612 911.855,612.264 905.784,607.911 899.73,603.548 893.703,599.169 887.713,594.77 881.768,590.344 875.877,585.888 870.049,581.396 864.294,576.862 858.62,572.282 853.036,567.65 847.552,562.961 842.176,558.211 836.918,553.393 831.787,548.503 826.791,543.535 821.94,538.485 817.242,533.347 812.708,528.116 808.345,522.787 804.163,517.355 800.171,511.814 796.377,506.159 792.792,500.386 789.423,494.489 786.271,488.468 783.327,482.329 780.582,476.075 778.027,469.714 775.652,463.249 773.45,456.685 771.41,450.029 769.524,443.285 767.782,436.459 766.176,429.555 764.697,422.578 763.335,415.535 762.082,408.429 760.928,401.267 759.865,394.053 758.883,386.793 757.973,379.491 757.127,372.153 756.335,364.784 755.588,357.389 754.877,349.974 754.193,342.543 753.528,335.102 752.871,327.656 "/>
<polyline clip-path="url(#clip122)" style="stroke:#000000; stroke-linecap:round; stroke-linejoin:round; stroke-width:4; stroke-opacity:1; fill:none" points="917.936,616.612 913.026,619.352 908.117,622.083 903.209,624.792 898.304,627.471 893.402,630.108 888.504,632.693 883.612,635.216 878.725,637.666 873.844,640.033 868.972,642.306 864.107,644.476 859.252,646.532 854.406,648.463 849.572,650.259 844.749,651.91 839.938,653.405 835.141,654.734 830.358,655.887 825.59,656.853 820.837,657.621 816.102,658.182 811.383,658.525 806.683,658.64 802.002,658.516 797.341,658.143 792.7,657.521 788.078,656.661 783.474,655.573 778.887,654.266 774.318,652.752 769.763,651.04 765.224,649.142 760.699,647.067 756.188,644.827 751.688,642.43 747.201,639.888 742.724,637.212 738.257,634.41 733.799,631.495 729.35,628.476 724.908,625.363 720.473,622.167 716.043,618.899 711.619,615.568 707.198,612.185 702.781,608.761 698.366,605.306 693.954,601.83 689.542,598.344 "/>
<polyline clip-path="url(#clip122)" style="stroke:#000000; stroke-linecap:round; stroke-linejoin:round; stroke-width:4; stroke-opacity:1; fill:none" points="752.871,327.656 758.952,332.003 765.024,336.356 771.078,340.719 777.104,345.098 783.095,349.498 789.04,353.923 794.931,358.379 800.759,362.871 806.514,367.405 812.188,371.985 817.772,376.617 823.256,381.306 828.631,386.056 833.889,390.874 839.021,395.764 844.017,400.732 848.868,405.782 853.565,410.92 858.1,416.151 862.463,421.48 866.645,426.912 870.637,432.453 874.43,438.108 878.016,443.881 881.384,449.778 884.536,455.799 887.48,461.938 890.226,468.192 892.781,474.553 895.155,481.018 897.358,487.582 899.398,494.238 901.284,500.982 903.026,507.808 904.631,514.712 906.111,521.689 907.472,528.732 908.726,535.838 909.88,543 910.943,550.214 911.925,557.474 912.835,564.776 913.681,572.114 914.473,579.483 915.22,586.878 915.931,594.293 916.614,601.724 917.28,609.165 917.936,616.612 "/>
<polyline clip-path="url(#clip122)" style="stroke:#000000; stroke-linecap:round; stroke-linejoin:round; stroke-width:4; stroke-opacity:1; fill:none" points="752.871,327.656 754.62,333.891 756.359,340.125 758.078,346.353 759.766,352.575 761.413,358.787 763.01,364.987 764.546,371.173 766.011,377.343 767.395,383.493 768.688,389.622 769.879,395.728 770.959,401.807 771.917,407.858 772.743,413.877 773.428,419.864 773.96,425.815 774.33,431.729 774.527,437.601 774.542,443.432 774.365,449.217 773.985,454.954 773.391,460.642 772.575,466.278 771.526,471.859 770.233,477.383 768.698,482.851 766.929,488.263 764.937,493.624 762.733,498.935 760.326,504.198 757.726,509.417 754.943,514.592 751.988,519.728 748.871,524.825 745.602,529.887 742.191,534.915 738.648,539.913 734.983,544.882 731.207,549.825 727.329,554.745 723.361,559.643 719.311,564.522 715.19,569.385 711.008,574.233 706.775,579.069 702.502,583.896 698.199,588.716 693.875,593.531 689.542,598.344 "/>
<polyline clip-path="url(#clip122)" style="stroke:#000000; stroke-linecap:round; stroke-linejoin:round; stroke-width:4; stroke-opacity:1; fill:none" points="689.542,598.344 694.452,595.603 699.361,592.873 704.269,590.163 709.174,587.484 714.076,584.847 718.973,582.262 723.866,579.74 728.753,577.289 733.633,574.922 738.506,572.649 743.371,570.479 748.226,568.423 753.071,566.492 757.906,564.696 762.729,563.045 767.539,561.55 772.337,560.221 777.12,559.068 781.888,558.102 786.64,557.334 791.376,556.773 796.095,556.43 800.795,556.315 805.476,556.439 810.137,556.812 814.778,557.434 819.4,558.294 824.004,559.383 828.59,560.689 833.16,562.203 837.714,563.915 842.253,565.813 846.778,567.888 851.29,570.128 855.789,572.525 860.277,575.067 864.754,577.744 869.221,580.545 873.678,583.46 878.128,586.48 882.57,589.592 887.005,592.788 891.435,596.056 895.859,599.387 900.28,602.77 904.697,606.194 909.111,609.649 913.524,613.125 917.936,616.612 "/>
<polyline clip-path="url(#clip122)" style="stroke:#000000; stroke-linecap:round; stroke-linejoin:round; stroke-width:4; stroke-opacity:1; fill:none" points="689.542,598.344 687.793,592.108 686.054,585.874 684.335,579.646 682.647,573.424 681,567.212 679.403,561.012 677.867,554.826 676.402,548.656 675.018,542.506 673.725,536.377 672.534,530.272 671.454,524.192 670.496,518.142 669.67,512.122 668.985,506.135 668.453,500.184 668.083,494.271 667.886,488.398 667.87,482.568 668.048,476.783 668.428,471.045 669.022,465.357 669.838,459.721 670.887,454.14 672.18,448.616 673.715,443.149 675.484,437.736 677.475,432.375 679.68,427.064 682.087,421.801 684.687,416.583 687.47,411.407 690.425,406.272 693.542,401.174 696.811,396.112 700.222,391.084 703.765,386.086 707.43,381.117 711.206,376.174 715.084,371.254 719.052,366.356 723.102,361.477 727.223,356.615 731.405,351.766 735.638,346.93 739.911,342.103 744.214,337.283 748.538,332.468 752.871,327.656 "/>
<path clip-path="url(#clip122)" d="M1731.67 1348.57 L1731.4 1341.74 L1730.58 1334.95 L1729.23 1328.25 L1727.35 1321.68 L1724.96 1315.27 L1722.06 1309.08 L1718.68 1303.14 L1714.84 1297.48 L1710.56 1292.15 L1705.88 1287.17 L1700.81 1282.59 L1695.39 1278.41 L1689.66 1274.69 L1683.65 1271.43 L1677.4 1268.65 L1670.95 1266.39 L1664.34 1264.64 L1657.61 1263.42 L1650.81 1262.74 L1643.98 1262.61 L1637.15 1263.02 L1630.38 1263.96 L1623.71 1265.45 L1617.17 1267.46 L1610.82 1269.98 L1604.68 1273 L1598.81 1276.49 L1593.23 1280.45 L1587.98 1284.83 L1583.1 1289.62 L1578.62 1294.77 L1574.55 1300.27 L1570.94 1306.08 L1567.8 1312.15 L1565.15 1318.45 L1563.02 1324.95 L1561.4 1331.59 L1560.32 1338.34 L1559.77 1345.15 L1559.77 1351.99 L1560.32 1358.81 L1561.4 1365.56 L1563.02 1372.2 L1565.15 1378.69 L1567.8 1385 L1570.94 1391.07 L1574.55 1396.87 L1578.62 1402.37 L1583.1 1407.53 L1587.98 1412.32 L1593.23 1416.7 L1598.81 1420.65 L1604.68 1424.15 L1610.82 1427.17 L1617.17 1429.69 L1623.71 1431.7 L1630.38 1433.18 L1637.15 1434.13 L1643.98 1434.54 L1650.81 1434.4 L1657.61 1433.72 L1664.34 1432.5 L1670.95 1430.76 L1677.4 1428.49 L1683.65 1425.72 L1689.66 1422.46 L1695.39 1418.73 L1700.81 1414.56 L1705.88 1409.97 L1710.56 1405 L1714.84 1399.66 L1718.68 1394.01 L1722.06 1388.06 L1724.96 1381.87 L1727.35 1375.47 L1729.23 1368.89 L1730.58 1362.19 L1731.4 1355.4 L1731.67 1348.57 L1731.67 1348.57  Z" fill="#009af9" fill-rule="evenodd" fill-opacity="1"/>
<polyline clip-path="url(#clip122)" style="stroke:#000000; stroke-linecap:round; stroke-linejoin:round; stroke-width:4; stroke-opacity:1; fill:none" points="1731.67,1348.57 1731.4,1341.74 1730.58,1334.95 1729.23,1328.25 1727.35,1321.68 1724.96,1315.27 1722.06,1309.08 1718.68,1303.14 1714.84,1297.48 1710.56,1292.15 1705.88,1287.17 1700.81,1282.59 1695.39,1278.41 1689.66,1274.69 1683.65,1271.43 1677.4,1268.65 1670.95,1266.39 1664.34,1264.64 1657.61,1263.42 1650.81,1262.74 1643.98,1262.61 1637.15,1263.02 1630.38,1263.96 1623.71,1265.45 1617.17,1267.46 1610.82,1269.98 1604.68,1273 1598.81,1276.49 1593.23,1280.45 1587.98,1284.83 1583.1,1289.62 1578.62,1294.77 1574.55,1300.27 1570.94,1306.08 1567.8,1312.15 1565.15,1318.45 1563.02,1324.95 1561.4,1331.59 1560.32,1338.34 1559.77,1345.15 1559.77,1351.99 1560.32,1358.81 1561.4,1365.56 1563.02,1372.2 1565.15,1378.69 1567.8,1385 1570.94,1391.07 1574.55,1396.87 1578.62,1402.37 1583.1,1407.53 1587.98,1412.32 1593.23,1416.7 1598.81,1420.65 1604.68,1424.15 1610.82,1427.17 1617.17,1429.69 1623.71,1431.7 1630.38,1433.18 1637.15,1434.13 1643.98,1434.54 1650.81,1434.4 1657.61,1433.72 1664.34,1432.5 1670.95,1430.76 1677.4,1428.49 1683.65,1425.72 1689.66,1422.46 1695.39,1418.73 1700.81,1414.56 1705.88,1409.97 1710.56,1405 1714.84,1399.66 1718.68,1394.01 1722.06,1388.06 1724.96,1381.87 1727.35,1375.47 1729.23,1368.89 1730.58,1362.19 1731.4,1355.4 1731.67,1348.57 "/>
<path clip-path="url(#clip122)" d="M1796.44 1071.72 L1796.17 1064.89 L1795.35 1058.1 L1794 1051.4 L1792.12 1044.83 L1789.73 1038.42 L1786.83 1032.23 L1783.45 1026.29 L1779.61 1020.63 L1775.34 1015.3 L1770.65 1010.32 L1765.58 1005.73 L1760.16 1001.56 L1754.43 997.835 L1748.42 994.575 L1742.17 991.802 L1735.72 989.535 L1729.11 987.788 L1722.39 986.571 L1715.58 985.892 L1708.75 985.756 L1701.92 986.164 L1695.15 987.112 L1688.48 988.596 L1681.95 990.605 L1675.59 993.126 L1669.46 996.145 L1663.58 999.642 L1658 1003.59 L1652.76 1007.98 L1647.87 1012.76 L1643.39 1017.92 L1639.33 1023.42 L1635.71 1029.22 L1632.57 1035.3 L1629.93 1041.6 L1627.79 1048.09 L1626.17 1054.74 L1625.09 1061.49 L1624.55 1068.3 L1624.55 1075.14 L1625.09 1081.95 L1626.17 1088.7 L1627.79 1095.35 L1629.93 1101.84 L1632.57 1108.14 L1635.71 1114.22 L1639.33 1120.02 L1643.39 1125.52 L1647.87 1130.68 L1652.76 1135.46 L1658 1139.85 L1663.58 1143.8 L1669.46 1147.29 L1675.59 1150.31 L1681.95 1152.84 L1688.48 1154.84 L1695.15 1156.33 L1701.92 1157.28 L1708.75 1157.68 L1715.58 1157.55 L1722.39 1156.87 L1729.11 1155.65 L1735.72 1153.9 L1742.17 1151.64 L1748.42 1148.87 L1754.43 1145.6 L1760.16 1141.88 L1765.58 1137.71 L1770.65 1133.12 L1775.34 1128.14 L1779.61 1122.81 L1783.45 1117.15 L1786.83 1111.21 L1789.73 1105.02 L1792.12 1098.61 L1794 1092.04 L1795.35 1085.34 L1796.17 1078.55 L1796.44 1071.72 L1796.44 1071.72  Z" fill="#009af9" fill-rule="evenodd" fill-opacity="1"/>
<polyline clip-path="url(#clip122)" style="stroke:#000000; stroke-linecap:round; stroke-linejoin:round; stroke-width:4; stroke-opacity:1; fill:none" points="1796.44,1071.72 1796.17,1064.89 1795.35,1058.1 1794,1051.4 1792.12,1044.83 1789.73,1038.42 1786.83,1032.23 1783.45,1026.29 1779.61,1020.63 1775.34,1015.3 1770.65,1010.32 1765.58,1005.73 1760.16,1001.56 1754.43,997.835 1748.42,994.575 1742.17,991.802 1735.72,989.535 1729.11,987.788 1722.39,986.571 1715.58,985.892 1708.75,985.756 1701.92,986.164 1695.15,987.112 1688.48,988.596 1681.95,990.605 1675.59,993.126 1669.46,996.145 1663.58,999.642 1658,1003.59 1652.76,1007.98 1647.87,1012.76 1643.39,1017.92 1639.33,1023.42 1635.71,1029.22 1632.57,1035.3 1629.93,1041.6 1627.79,1048.09 1626.17,1054.74 1625.09,1061.49 1624.55,1068.3 1624.55,1075.14 1625.09,1081.95 1626.17,1088.7 1627.79,1095.35 1629.93,1101.84 1632.57,1108.14 1635.71,1114.22 1639.33,1120.02 1643.39,1125.52 1647.87,1130.68 1652.76,1135.46 1658,1139.85 1663.58,1143.8 1669.46,1147.29 1675.59,1150.31 1681.95,1152.84 1688.48,1154.84 1695.15,1156.33 1701.92,1157.28 1708.75,1157.68 1715.58,1157.55 1722.39,1156.87 1729.11,1155.65 1735.72,1153.9 1742.17,1151.64 1748.42,1148.87 1754.43,1145.6 1760.16,1141.88 1765.58,1137.71 1770.65,1133.12 1775.34,1128.14 1779.61,1122.81 1783.45,1117.15 1786.83,1111.21 1789.73,1105.02 1792.12,1098.61 1794,1092.04 1795.35,1085.34 1796.17,1078.55 1796.44,1071.72 "/>
<path clip-path="url(#clip122)" d="M1563.79 1053.77 L1563.52 1046.94 L1562.7 1040.15 L1561.35 1033.45 L1559.47 1026.88 L1557.08 1020.48 L1554.18 1014.28 L1550.8 1008.34 L1546.96 1002.68 L1542.68 997.35 L1538 992.374 L1532.93 987.786 L1527.51 983.615 L1521.78 979.888 L1515.77 976.628 L1509.52 973.855 L1503.07 971.588 L1496.46 969.841 L1489.73 968.624 L1482.93 967.945 L1476.1 967.809 L1469.27 968.217 L1462.5 969.165 L1455.83 970.649 L1449.29 972.658 L1442.94 975.179 L1436.8 978.198 L1430.93 981.695 L1425.35 985.647 L1420.1 990.03 L1415.22 994.816 L1410.74 999.974 L1406.67 1005.47 L1403.06 1011.28 L1399.92 1017.35 L1397.27 1023.65 L1395.14 1030.15 L1393.52 1036.79 L1392.44 1043.54 L1391.89 1050.35 L1391.89 1057.19 L1392.44 1064.01 L1393.52 1070.76 L1395.14 1077.4 L1397.27 1083.89 L1399.92 1090.2 L1403.06 1096.27 L1406.67 1102.07 L1410.74 1107.57 L1415.22 1112.73 L1420.1 1117.52 L1425.35 1121.9 L1430.93 1125.85 L1436.8 1129.35 L1442.94 1132.37 L1449.29 1134.89 L1455.83 1136.9 L1462.5 1138.38 L1469.27 1139.33 L1476.1 1139.74 L1482.93 1139.6 L1489.73 1138.92 L1496.46 1137.71 L1503.07 1135.96 L1509.52 1133.69 L1515.77 1130.92 L1521.78 1127.66 L1527.51 1123.93 L1532.93 1119.76 L1538 1115.17 L1542.68 1110.2 L1546.96 1104.86 L1550.8 1099.21 L1554.18 1093.26 L1557.08 1087.07 L1559.47 1080.67 L1561.35 1074.09 L1562.7 1067.39 L1563.52 1060.6 L1563.79 1053.77 L1563.79 1053.77  Z" fill="#009af9" fill-rule="evenodd" fill-opacity="1"/>
<polyline clip-path="url(#clip122)" style="stroke:#000000; stroke-linecap:round; stroke-linejoin:round; stroke-width:4; stroke-opacity:1; fill:none" points="1563.79,1053.77 1563.52,1046.94 1562.7,1040.15 1561.35,1033.45 1559.47,1026.88 1557.08,1020.48 1554.18,1014.28 1550.8,1008.34 1546.96,1002.68 1542.68,997.35 1538,992.374 1532.93,987.786 1527.51,983.615 1521.78,979.888 1515.77,976.628 1509.52,973.855 1503.07,971.588 1496.46,969.841 1489.73,968.624 1482.93,967.945 1476.1,967.809 1469.27,968.217 1462.5,969.165 1455.83,970.649 1449.29,972.658 1442.94,975.179 1436.8,978.198 1430.93,981.695 1425.35,985.647 1420.1,990.03 1415.22,994.816 1410.74,999.974 1406.67,1005.47 1403.06,1011.28 1399.92,1017.35 1397.27,1023.65 1395.14,1030.15 1393.52,1036.79 1392.44,1043.54 1391.89,1050.35 1391.89,1057.19 1392.44,1064.01 1393.52,1070.76 1395.14,1077.4 1397.27,1083.89 1399.92,1090.2 1403.06,1096.27 1406.67,1102.07 1410.74,1107.57 1415.22,1112.73 1420.1,1117.52 1425.35,1121.9 1430.93,1125.85 1436.8,1129.35 1442.94,1132.37 1449.29,1134.89 1455.83,1136.9 1462.5,1138.38 1469.27,1139.33 1476.1,1139.74 1482.93,1139.6 1489.73,1138.92 1496.46,1137.71 1503.07,1135.96 1509.52,1133.69 1515.77,1130.92 1521.78,1127.66 1527.51,1123.93 1532.93,1119.76 1538,1115.17 1542.68,1110.2 1546.96,1104.86 1550.8,1099.21 1554.18,1093.26 1557.08,1087.07 1559.47,1080.67 1561.35,1074.09 1562.7,1067.39 1563.52,1060.6 1563.79,1053.77 1563.79,1053.77 "/>
<path clip-path="url(#clip122)" d="M1285.9 836.79 L1285.63 829.959 L1284.81 823.171 L1283.46 816.469 L1281.58 809.895 L1279.19 803.492 L1276.29 797.299 L1272.91 791.356 L1269.07 785.7 L1264.8 780.367 L1260.11 775.391 L1255.04 770.803 L1249.62 766.632 L1243.89 762.905 L1237.88 759.645 L1231.63 756.872 L1225.18 754.605 L1218.57 752.858 L1211.85 751.641 L1205.04 750.962 L1198.21 750.826 L1191.38 751.234 L1184.61 752.182 L1177.94 753.666 L1171.4 755.675 L1165.05 758.196 L1158.92 761.215 L1153.04 764.711 L1147.46 768.664 L1142.22 773.047 L1137.33 777.832 L1132.85 782.991 L1128.79 788.49 L1125.17 794.294 L1122.03 800.367 L1119.38 806.67 L1117.25 813.163 L1115.63 819.806 L1114.55 826.557 L1114 833.372 L1114 840.208 L1114.55 847.023 L1115.63 853.773 L1117.25 860.416 L1119.38 866.91 L1122.03 873.213 L1125.17 879.286 L1128.79 885.09 L1132.85 890.589 L1137.33 895.747 L1142.22 900.533 L1147.46 904.916 L1153.04 908.868 L1158.92 912.365 L1165.05 915.383 L1171.4 917.905 L1177.94 919.914 L1184.61 921.398 L1191.38 922.346 L1198.21 922.754 L1205.04 922.618 L1211.85 921.939 L1218.57 920.722 L1225.18 918.975 L1231.63 916.707 L1237.88 913.935 L1243.89 910.675 L1249.62 906.948 L1255.04 902.777 L1260.11 898.189 L1264.8 893.213 L1269.07 887.88 L1272.91 882.224 L1276.29 876.281 L1279.19 870.088 L1281.58 863.684 L1283.46 857.111 L1284.81 850.409 L1285.63 843.621 L1285.9 836.79 L1285.9 836.79  Z" fill="#009af9" fill-rule="evenodd" fill-opacity="1"/>
<polyline clip-path="url(#clip122)" style="stroke:#000000; stroke-linecap:round; stroke-linejoin:round; stroke-width:4; stroke-opacity:1; fill:none" points="1285.9,836.79 1285.63,829.959 1284.81,823.171 1283.46,816.469 1281.58,809.895 1279.19,803.492 1276.29,797.299 1272.91,791.356 1269.07,785.7 1264.8,780.367 1260.11,775.391 1255.04,770.803 1249.62,766.632 1243.89,762.905 1237.88,759.645 1231.63,756.872 1225.18,754.605 1218.57,752.858 1211.85,751.641 1205.04,750.962 1198.21,750.826 1191.38,751.234 1184.61,752.182 1177.94,753.666 1171.4,755.675 1165.05,758.196 1158.92,761.215 1153.04,764.711 1147.46,768.664 1142.22,773.047 1137.33,777.832 1132.85,782.991 1128.79,788.49 1125.17,794.294 1122.03,800.367 1119.38,806.67 1117.25,813.163 1115.63,819.806 1114.55,826.557 1114,833.372 1114,840.208 1114.55,847.023 1115.63,853.773 1117.25,860.416 1119.38,866.91 1122.03,873.213 1125.17,879.286 1128.79,885.09 1132.85,890.589 1137.33,895.747 1142.22,900.533 1147.46,904.916 1153.04,908.868 1158.92,912.365 1165.05,915.383 1171.4,917.905 1177.94,919.914 1184.61,921.398 1191.38,922.346 1198.21,922.754 1205.04,922.618 1211.85,921.939 1218.57,920.722 1225.18,918.975 1231.63,916.707 1237.88,913.935 1243.89,910.675 1249.62,906.948 1255.04,902.777 1260.11,898.189 1264.8,893.213 1269.07,887.88 1272.91,882.224 1276.29,876.281 1279.19,870.088 1281.58,863.684 1283.46,857.111 1284.81,850.409 1285.63,843.621 1285.9,836.79 "/>
<path clip-path="url(#clip122)" d="M1003.92 616.612 L1003.65 609.78 L1002.83 602.992 L1001.48 596.29 L999.602 589.717 L997.207 583.314 L994.311 577.121 L990.932 571.178 L987.092 565.522 L982.814 560.189 L978.126 555.213 L973.058 550.625 L967.641 546.454 L961.91 542.726 L955.901 539.466 L949.651 536.694 L943.202 534.427 L936.592 532.679 L929.865 531.462 L923.062 530.784 L916.227 530.648 L909.402 531.055 L902.632 532.004 L895.958 533.487 L889.423 535.496 L883.069 538.018 L876.935 541.037 L871.06 544.533 L865.482 548.485 L860.235 552.868 L855.353 557.654 L850.866 562.813 L846.804 568.312 L843.191 574.116 L840.051 580.188 L837.404 586.492 L835.265 592.985 L833.65 599.628 L832.567 606.378 L832.024 613.193 L832.024 620.03 L832.567 626.845 L833.65 633.595 L835.265 640.238 L837.404 646.731 L840.051 653.035 L843.191 659.107 L846.804 664.912 L850.866 670.41 L855.353 675.569 L860.235 680.355 L865.482 684.738 L871.06 688.69 L876.935 692.186 L883.069 695.205 L889.423 697.727 L895.958 699.736 L902.632 701.219 L909.402 702.168 L916.227 702.575 L923.062 702.439 L929.865 701.761 L936.592 700.544 L943.202 698.796 L949.651 696.529 L955.901 693.757 L961.91 690.497 L967.641 686.769 L973.058 682.598 L978.126 678.01 L982.814 673.034 L987.092 667.701 L990.932 662.045 L994.311 656.102 L997.207 649.909 L999.602 643.506 L1001.48 636.933 L1002.83 630.231 L1003.65 623.443 L1003.92 616.612 L1003.92 616.612  Z" fill="#009af9" fill-rule="evenodd" fill-opacity="1"/>
<polyline clip-path="url(#clip122)" style="stroke:#000000; stroke-linecap:round; stroke-linejoin:round; stroke-width:4; stroke-opacity:1; fill:none" points="1003.92,616.612 1003.65,609.78 1002.83,602.992 1001.48,596.29 999.602,589.717 997.207,583.314 994.311,577.121 990.932,571.178 987.092,565.522 982.814,560.189 978.126,555.213 973.058,550.625 967.641,546.454 961.91,542.726 955.901,539.466 949.651,536.694 943.202,534.427 936.592,532.679 929.865,531.462 923.062,530.784 916.227,530.648 909.402,531.055 902.632,532.004 895.958,533.487 889.423,535.496 883.069,538.018 876.935,541.037 871.06,544.533 865.482,548.485 860.235,552.868 855.353,557.654 850.866,562.813 846.804,568.312 843.191,574.116 840.051,580.188 837.404,586.492 835.265,592.985 833.65,599.628 832.567,606.378 832.024,613.193 832.024,620.03 832.567,626.845 833.65,633.595 835.265,640.238 837.404,646.731 840.051,653.035 843.191,659.107 846.804,664.912 850.866,670.41 855.353,675.569 860.235,680.355 865.482,684.738 871.06,688.69 876.935,692.186 883.069,695.205 889.423,697.727 895.958,699.736 902.632,701.219 909.402,702.168 916.227,702.575 923.062,702.439 929.865,701.761 936.592,700.544 943.202,698.796 949.651,696.529 955.901,693.757 961.91,690.497 967.641,686.769 973.058,682.598 978.126,678.01 982.814,673.034 987.092,667.701 990.932,662.045 994.311,656.102 997.207,649.909 999.602,643.506 1001.48,636.933 1002.83,630.231 1003.65,623.443 1003.92,616.612 "/>
<path clip-path="url(#clip122)" d="M838.852 327.656 L838.58 320.824 L837.767 314.036 L836.416 307.334 L834.538 300.761 L832.143 294.358 L829.247 288.165 L825.868 282.222 L822.027 276.566 L817.749 271.233 L813.062 266.257 L807.993 261.669 L802.576 257.498 L796.845 253.77 L790.836 250.51 L784.587 247.738 L778.137 245.471 L771.527 243.723 L764.8 242.506 L757.997 241.828 L751.162 241.692 L744.338 242.099 L737.567 243.048 L730.893 244.531 L724.359 246.54 L718.004 249.062 L711.87 252.081 L705.995 255.577 L700.417 259.529 L695.17 263.912 L690.288 268.698 L685.802 273.857 L681.739 279.356 L678.127 285.16 L674.987 291.232 L672.339 297.536 L670.201 304.029 L668.585 310.672 L667.502 317.422 L666.959 324.237 L666.959 331.074 L667.502 337.889 L668.585 344.639 L670.201 351.282 L672.339 357.775 L674.987 364.079 L678.127 370.151 L681.739 375.956 L685.802 381.454 L690.288 386.613 L695.17 391.399 L700.417 395.782 L705.995 399.734 L711.87 403.23 L718.004 406.249 L724.359 408.771 L730.893 410.78 L737.567 412.263 L744.338 413.212 L751.162 413.619 L757.997 413.483 L764.8 412.805 L771.527 411.588 L778.137 409.84 L784.587 407.573 L790.836 404.801 L796.845 401.541 L802.576 397.813 L807.993 393.642 L813.062 389.054 L817.749 384.078 L822.027 378.745 L825.868 373.089 L829.247 367.146 L832.143 360.953 L834.538 354.55 L836.416 347.977 L837.767 341.275 L838.58 334.487 L838.852 327.656 L838.852 327.656  Z" fill="#009af9" fill-rule="evenodd" fill-opacity="1"/>
<polyline clip-path="url(#clip122)" style="stroke:#000000; stroke-linecap:round; stroke-linejoin:round; stroke-width:4; stroke-opacity:1; fill:none" points="838.852,327.656 838.58,320.824 837.767,314.036 836.416,307.334 834.538,300.761 832.143,294.358 829.247,288.165 825.868,282.222 822.027,276.566 817.749,271.233 813.062,266.257 807.993,261.669 802.576,257.498 796.845,253.77 790.836,250.51 784.587,247.738 778.137,245.471 771.527,243.723 764.8,242.506 757.997,241.828 751.162,241.692 744.338,242.099 737.567,243.048 730.893,244.531 724.359,246.54 718.004,249.062 711.87,252.081 705.995,255.577 700.417,259.529 695.17,263.912 690.288,268.698 685.802,273.857 681.739,279.356 678.127,285.16 674.987,291.232 672.339,297.536 670.201,304.029 668.585,310.672 667.502,317.422 666.959,324.237 666.959,331.074 667.502,337.889 668.585,344.639 670.201,351.282 672.339,357.775 674.987,364.079 678.127,370.151 681.739,375.956 685.802,381.454 690.288,386.613 695.17,391.399 700.417,395.782 705.995,399.734 711.87,403.23 718.004,406.249 724.359,408.771 730.893,410.78 737.567,412.263 744.338,413.212 751.162,413.619 757.997,413.483 764.8,412.805 771.527,411.588 778.137,409.84 784.587,407.573 790.836,404.801 796.845,401.541 802.576,397.813 807.993,393.642 813.062,389.054 817.749,384.078 822.027,378.745 825.868,373.089 829.247,367.146 832.143,360.953 834.538,354.55 836.416,347.977 837.767,341.275 838.58,334.487 838.852,327.656 "/>
<path clip-path="url(#clip122)" d="M775.522 598.344 L775.25 591.512 L774.437 584.724 L773.086 578.023 L771.208 571.449 L768.813 565.046 L765.917 558.853 L762.538 552.91 L758.697 547.254 L754.419 541.921 L749.732 536.945 L744.663 532.357 L739.246 528.186 L733.515 524.459 L727.506 521.198 L721.257 518.426 L714.807 516.159 L708.197 514.411 L701.47 513.194 L694.667 512.516 L687.832 512.38 L681.008 512.788 L674.237 513.736 L667.563 515.219 L661.029 517.228 L654.674 519.75 L648.54 522.769 L642.665 526.265 L637.087 530.217 L631.84 534.6 L626.958 539.386 L622.472 544.545 L618.409 550.044 L614.797 555.848 L611.657 561.921 L609.009 568.224 L606.871 574.717 L605.255 581.36 L604.172 588.11 L603.629 594.925 L603.629 601.762 L604.172 608.577 L605.255 615.327 L606.871 621.97 L609.009 628.464 L611.657 634.767 L614.797 640.84 L618.409 646.644 L622.472 652.142 L626.958 657.301 L631.84 662.087 L637.087 666.47 L642.665 670.422 L648.54 673.919 L654.674 676.937 L661.029 679.459 L667.563 681.468 L674.237 682.951 L681.008 683.9 L687.832 684.307 L694.667 684.171 L701.47 683.493 L708.197 682.276 L714.807 680.528 L721.257 678.261 L727.506 675.489 L733.515 672.229 L739.246 668.501 L744.663 664.331 L749.732 659.743 L754.419 654.766 L758.697 649.433 L762.538 643.778 L765.917 637.834 L768.813 631.641 L771.208 625.238 L773.086 618.665 L774.437 611.963 L775.25 605.175 L775.522 598.344 L775.522 598.344  Z" fill="#009af9" fill-rule="evenodd" fill-opacity="1"/>
<polyline clip-path="url(#clip122)" style="stroke:#000000; stroke-linecap:round; stroke-linejoin:round; stroke-width:4; stroke-opacity:1; fill:none" points="775.522,598.344 775.25,591.512 774.437,584.724 773.086,578.023 771.208,571.449 768.813,565.046 765.917,558.853 762.538,552.91 758.697,547.254 754.419,541.921 749.732,536.945 744.663,532.357 739.246,528.186 733.515,524.459 727.506,521.198 721.257,518.426 714.807,516.159 708.197,514.411 701.47,513.194 694.667,512.516 687.832,512.38 681.008,512.788 674.237,513.736 667.563,515.219 661.029,517.228 654.674,519.75 648.54,522.769 642.665,526.265 637.087,530.217 631.84,534.6 626.958,539.386 622.472,544.545 618.409,550.044 614.797,555.848 611.657,561.921 609.009,568.224 606.871,574.717 605.255,581.36 604.172,588.11 603.629,594.925 603.629,601.762 604.172,608.577 605.255,615.327 606.871,621.97 609.009,628.464 611.657,634.767 614.797,640.84 618.409,646.644 622.472,652.142 626.958,657.301 631.84,662.087 637.087,666.47 642.665,670.422 648.54,673.919 654.674,676.937 661.029,679.459 667.563,681.468 674.237,682.951 681.008,683.9 687.832,684.307 694.667,684.171 701.47,683.493 708.197,682.276 714.807,680.528 721.257,678.261 727.506,675.489 733.515,672.229 739.246,668.501 744.663,664.331 749.732,659.743 754.419,654.766 758.697,649.433 762.538,643.778 765.917,637.834 768.813,631.641 771.208,625.238 773.086,618.665 774.437,611.963 775.25,605.175 775.522,598.344 775.522,598.344 "/>
<circle clip-path="url(#clip122)" style="fill:#009af9; stroke:none; fill-opacity:0" cx="1645.69" cy="1348.57" r="2"/>
<circle clip-path="url(#clip122)" style="fill:#009af9; stroke:none; fill-opacity:0" cx="1710.46" cy="1071.72" r="2"/>
<circle clip-path="url(#clip122)" style="fill:#009af9; stroke:none; fill-opacity:0" cx="1477.81" cy="1053.77" r="2"/>
<circle clip-path="url(#clip122)" style="fill:#009af9; stroke:none; fill-opacity:0" cx="1199.92" cy="836.79" r="2"/>
<circle clip-path="url(#clip122)" style="fill:#009af9; stroke:none; fill-opacity:0" cx="917.936" cy="616.612" r="2"/>
<circle clip-path="url(#clip122)" style="fill:#009af9; stroke:none; fill-opacity:0" cx="752.871" cy="327.656" r="2"/>
<circle clip-path="url(#clip122)" style="fill:#009af9; stroke:none; fill-opacity:0" cx="689.542" cy="598.344" r="2"/>
<path clip-path="url(#clip120)" d="M1602.54 1368.59 L1627.02 1368.59 L1627.02 1374.49 L1594.11 1374.49 L1594.11 1368.59 Q1598.1 1364.46 1604.97 1357.51 Q1611.88 1350.53 1613.66 1348.52 Q1617.02 1344.74 1618.34 1342.13 Q1619.7 1339.49 1619.7 1336.96 Q1619.7 1332.83 1616.78 1330.22 Q1613.9 1327.62 1609.25 1327.62 Q1605.95 1327.62 1602.27 1328.76 Q1598.62 1329.91 1594.45 1332.24 L1594.45 1325.15 Q1598.69 1323.45 1602.37 1322.58 Q1606.05 1321.72 1609.11 1321.72 Q1617.16 1321.72 1621.95 1325.74 Q1626.75 1329.77 1626.75 1336.51 Q1626.75 1339.7 1625.53 1342.58 Q1624.35 1345.43 1621.19 1349.32 Q1620.32 1350.33 1615.67 1355.15 Q1611.02 1359.94 1602.54 1368.59 Z" fill="#000000" fill-rule="nonzero" fill-opacity="1" /><path clip-path="url(#clip120)" d="M1641.75 1365.67 L1649.07 1365.67 L1649.07 1374.49 L1641.75 1374.49 L1641.75 1365.67 Z" fill="#000000" fill-rule="nonzero" fill-opacity="1" /><path clip-path="url(#clip120)" d="M1679.35 1327.27 Q1673.93 1327.27 1671.19 1332.62 Q1668.48 1337.93 1668.48 1348.62 Q1668.48 1359.28 1671.19 1364.63 Q1673.93 1369.94 1679.35 1369.94 Q1684.8 1369.94 1687.51 1364.63 Q1690.25 1359.28 1690.25 1348.62 Q1690.25 1337.93 1687.51 1332.62 Q1684.8 1327.27 1679.35 1327.27 M1679.35 1321.72 Q1688.06 1321.72 1692.65 1328.62 Q1697.27 1335.5 1697.27 1348.62 Q1697.27 1361.71 1692.65 1368.62 Q1688.06 1375.5 1679.35 1375.5 Q1670.63 1375.5 1666.02 1368.62 Q1661.43 1361.71 1661.43 1348.62 Q1661.43 1335.5 1666.02 1328.62 Q1670.63 1321.72 1679.35 1321.72 Z" fill="#000000" fill-rule="nonzero" fill-opacity="1" /><path clip-path="url(#clip120)" d="M1681.41 1051.91 L1663.71 1079.58 L1681.41 1079.58 L1681.41 1051.91 M1679.57 1045.8 L1688.39 1045.8 L1688.39 1079.58 L1695.79 1079.58 L1695.79 1085.42 L1688.39 1085.42 L1688.39 1097.64 L1681.41 1097.64 L1681.41 1085.42 L1658.01 1085.42 L1658.01 1078.65 L1679.57 1045.8 Z" fill="#000000" fill-rule="nonzero" fill-opacity="1" /><path clip-path="url(#clip120)" d="M1707.39 1088.82 L1714.71 1088.82 L1714.71 1097.64 L1707.39 1097.64 L1707.39 1088.82 Z" fill="#000000" fill-rule="nonzero" fill-opacity="1" /><path clip-path="url(#clip120)" d="M1744.99 1050.42 Q1739.57 1050.42 1736.83 1055.77 Q1734.12 1061.08 1734.12 1071.77 Q1734.12 1082.43 1736.83 1087.78 Q1739.57 1093.09 1744.99 1093.09 Q1750.44 1093.09 1753.15 1087.78 Q1755.89 1082.43 1755.89 1071.77 Q1755.89 1061.08 1753.15 1055.77 Q1750.44 1050.42 1744.99 1050.42 M1744.99 1044.86 Q1753.7 1044.86 1758.29 1051.77 Q1762.91 1058.65 1762.91 1071.77 Q1762.91 1084.86 1758.29 1091.77 Q1753.7 1098.65 1744.99 1098.65 Q1736.27 1098.65 1731.66 1091.77 Q1727.07 1084.86 1727.07 1071.77 Q1727.07 1058.65 1731.66 1051.77 Q1736.27 1044.86 1744.99 1044.86 Z" fill="#000000" fill-rule="nonzero" fill-opacity="1" /><path clip-path="url(#clip120)" d="M1449.77 1051.74 Q1454.8 1052.82 1457.62 1056.22 Q1460.46 1059.62 1460.46 1064.62 Q1460.46 1072.3 1455.18 1076.5 Q1449.91 1080.7 1440.18 1080.7 Q1436.92 1080.7 1433.45 1080.04 Q1430.01 1079.42 1426.33 1078.13 L1426.33 1071.36 Q1429.25 1073.06 1432.72 1073.93 Q1436.19 1074.8 1439.98 1074.8 Q1446.57 1074.8 1450.01 1072.19 Q1453.48 1069.59 1453.48 1064.62 Q1453.48 1060.04 1450.25 1057.47 Q1447.06 1054.87 1441.33 1054.87 L1435.29 1054.87 L1435.29 1049.1 L1441.61 1049.1 Q1446.78 1049.1 1449.53 1047.05 Q1452.27 1044.97 1452.27 1041.08 Q1452.27 1037.09 1449.42 1034.97 Q1446.61 1032.82 1441.33 1032.82 Q1438.45 1032.82 1435.15 1033.44 Q1431.85 1034.07 1427.89 1035.39 L1427.89 1029.14 Q1431.89 1028.03 1435.36 1027.47 Q1438.87 1026.92 1441.96 1026.92 Q1449.94 1026.92 1454.59 1030.56 Q1459.25 1034.17 1459.25 1040.35 Q1459.25 1044.66 1456.78 1047.64 Q1454.32 1050.6 1449.77 1051.74 Z" fill="#000000" fill-rule="nonzero" fill-opacity="1" /><path clip-path="url(#clip120)" d="M1473.76 1070.87 L1481.09 1070.87 L1481.09 1079.69 L1473.76 1079.69 L1473.76 1070.87 Z" fill="#000000" fill-rule="nonzero" fill-opacity="1" /><path clip-path="url(#clip120)" d="M1511.37 1032.47 Q1505.95 1032.47 1503.21 1037.82 Q1500.5 1043.13 1500.5 1053.83 Q1500.5 1064.48 1503.21 1069.83 Q1505.95 1075.14 1511.37 1075.14 Q1516.82 1075.14 1519.52 1069.83 Q1522.27 1064.48 1522.27 1053.83 Q1522.27 1043.13 1519.52 1037.82 Q1516.82 1032.47 1511.37 1032.47 M1511.37 1026.92 Q1520.08 1026.92 1524.66 1033.83 Q1529.28 1040.7 1529.28 1053.83 Q1529.28 1066.92 1524.66 1073.83 Q1520.08 1080.7 1511.37 1080.7 Q1502.65 1080.7 1498.03 1073.83 Q1493.45 1066.92 1493.45 1053.83 Q1493.45 1040.7 1498.03 1033.83 Q1502.65 1026.92 1511.37 1026.92 Z" fill="#000000" fill-rule="nonzero" fill-opacity="1" /><path clip-path="url(#clip120)" d="M1166.72 833.995 Q1162 833.995 1159.22 837.224 Q1156.48 840.453 1156.48 846.078 Q1156.48 851.668 1159.22 854.932 Q1162 858.161 1166.72 858.161 Q1171.45 858.161 1174.19 854.932 Q1176.97 851.668 1176.97 846.078 Q1176.97 840.453 1174.19 837.224 Q1171.45 833.995 1166.72 833.995 M1180.65 812.016 L1180.65 818.405 Q1178.01 817.155 1175.3 816.495 Q1172.63 815.835 1169.99 815.835 Q1163.04 815.835 1159.36 820.523 Q1155.72 825.21 1155.2 834.689 Q1157.24 831.668 1160.33 830.071 Q1163.42 828.439 1167.14 828.439 Q1174.95 828.439 1179.47 833.196 Q1184.01 837.918 1184.01 846.078 Q1184.01 854.064 1179.29 858.89 Q1174.57 863.717 1166.72 863.717 Q1157.73 863.717 1152.97 856.842 Q1148.22 849.932 1148.22 836.842 Q1148.22 824.55 1154.05 817.259 Q1159.88 809.932 1169.71 809.932 Q1172.35 809.932 1175.02 810.453 Q1177.73 810.974 1180.65 812.016 Z" fill="#000000" fill-rule="nonzero" fill-opacity="1" /><path clip-path="url(#clip120)" d="M1196.1 853.89 L1203.42 853.89 L1203.42 862.71 L1196.1 862.71 L1196.1 853.89 Z" fill="#000000" fill-rule="nonzero" fill-opacity="1" /><path clip-path="url(#clip120)" d="M1233.7 815.488 Q1228.29 815.488 1225.54 820.835 Q1222.83 826.148 1222.83 836.842 Q1222.83 847.502 1225.54 852.849 Q1228.29 858.161 1233.7 858.161 Q1239.15 858.161 1241.86 852.849 Q1244.6 847.502 1244.6 836.842 Q1244.6 826.148 1241.86 820.835 Q1239.15 815.488 1233.7 815.488 M1233.7 809.932 Q1242.42 809.932 1247 816.842 Q1251.62 823.717 1251.62 836.842 Q1251.62 849.932 1247 856.842 Q1242.42 863.717 1233.7 863.717 Q1224.99 863.717 1220.37 856.842 Q1215.79 849.932 1215.79 836.842 Q1215.79 823.717 1220.37 816.842 Q1224.99 809.932 1233.7 809.932 Z" fill="#000000" fill-rule="nonzero" fill-opacity="1" /><path clip-path="url(#clip120)" d="M868.683 590.692 L896.218 590.692 L896.218 596.594 L875.107 596.594 L875.107 609.303 Q876.634 608.782 878.162 608.539 Q879.69 608.261 881.218 608.261 Q889.898 608.261 894.968 613.018 Q900.037 617.775 900.037 625.9 Q900.037 634.268 894.829 638.92 Q889.62 643.538 880.141 643.538 Q876.877 643.538 873.475 642.983 Q870.107 642.427 866.496 641.316 L866.496 634.268 Q869.621 635.969 872.954 636.802 Q876.287 637.636 880.002 637.636 Q886.009 637.636 889.516 634.476 Q893.023 631.316 893.023 625.9 Q893.023 620.483 889.516 617.323 Q886.009 614.164 880.002 614.164 Q877.19 614.164 874.377 614.789 Q871.6 615.414 868.683 616.733 L868.683 590.692 Z" fill="#000000" fill-rule="nonzero" fill-opacity="1" /><path clip-path="url(#clip120)" d="M913.856 633.712 L921.183 633.712 L921.183 642.532 L913.856 642.532 L913.856 633.712 Z" fill="#000000" fill-rule="nonzero" fill-opacity="1" /><path clip-path="url(#clip120)" d="M951.46 595.31 Q946.044 595.31 943.301 600.657 Q940.592 605.969 940.592 616.664 Q940.592 627.323 943.301 632.67 Q946.044 637.983 951.46 637.983 Q956.912 637.983 959.62 632.67 Q962.363 627.323 962.363 616.664 Q962.363 605.969 959.62 600.657 Q956.912 595.31 951.46 595.31 M951.46 589.754 Q960.176 589.754 964.759 596.664 Q969.377 603.539 969.377 616.664 Q969.377 629.754 964.759 636.664 Q960.176 643.538 951.46 643.538 Q942.745 643.538 938.127 636.664 Q933.544 629.754 933.544 616.664 Q933.544 603.539 938.127 596.664 Q942.745 589.754 951.46 589.754 Z" fill="#000000" fill-rule="nonzero" fill-opacity="1" /><path clip-path="url(#clip120)" d="M703.618 301.736 L731.153 301.736 L731.153 307.638 L710.042 307.638 L710.042 320.347 Q711.57 319.826 713.097 319.583 Q714.625 319.305 716.153 319.305 Q724.833 319.305 729.903 324.062 Q734.972 328.819 734.972 336.944 Q734.972 345.312 729.764 349.964 Q724.556 354.582 715.077 354.582 Q711.813 354.582 708.41 354.027 Q705.042 353.471 701.431 352.36 L701.431 345.312 Q704.556 347.013 707.889 347.846 Q711.222 348.68 714.938 348.68 Q720.945 348.68 724.451 345.52 Q727.958 342.36 727.958 336.944 Q727.958 331.527 724.451 328.367 Q720.945 325.208 714.938 325.208 Q712.125 325.208 709.313 325.833 Q706.535 326.458 703.618 327.777 L703.618 301.736 Z" fill="#000000" fill-rule="nonzero" fill-opacity="1" /><path clip-path="url(#clip120)" d="M748.792 344.756 L756.118 344.756 L756.118 353.576 L748.792 353.576 L748.792 344.756 Z" fill="#000000" fill-rule="nonzero" fill-opacity="1" /><path clip-path="url(#clip120)" d="M786.396 306.354 Q780.979 306.354 778.236 311.701 Q775.528 317.013 775.528 327.708 Q775.528 338.367 778.236 343.714 Q780.979 349.027 786.396 349.027 Q791.847 349.027 794.555 343.714 Q797.298 338.367 797.298 327.708 Q797.298 317.013 794.555 311.701 Q791.847 306.354 786.396 306.354 M786.396 300.798 Q795.111 300.798 799.694 307.708 Q804.312 314.583 804.312 327.708 Q804.312 340.798 799.694 347.707 Q795.111 354.582 786.396 354.582 Q777.68 354.582 773.062 347.707 Q768.479 340.798 768.479 327.708 Q768.479 314.583 773.062 307.708 Q777.68 300.798 786.396 300.798 Z" fill="#000000" fill-rule="nonzero" fill-opacity="1" /><path clip-path="url(#clip120)" d="M640.288 572.424 L667.823 572.424 L667.823 578.326 L646.712 578.326 L646.712 591.035 Q648.24 590.514 649.767 590.271 Q651.295 589.993 652.823 589.993 Q661.503 589.993 666.573 594.75 Q671.642 599.507 671.642 607.632 Q671.642 616 666.434 620.653 Q661.226 625.271 651.747 625.271 Q648.483 625.271 645.08 624.715 Q641.712 624.159 638.101 623.048 L638.101 616 Q641.226 617.701 644.559 618.535 Q647.892 619.368 651.608 619.368 Q657.615 619.368 661.122 616.208 Q664.628 613.048 664.628 607.632 Q664.628 602.215 661.122 599.055 Q657.615 595.896 651.608 595.896 Q648.795 595.896 645.983 596.521 Q643.205 597.146 640.288 598.465 L640.288 572.424 Z" fill="#000000" fill-rule="nonzero" fill-opacity="1" /><path clip-path="url(#clip120)" d="M685.462 615.444 L692.788 615.444 L692.788 624.264 L685.462 624.264 L685.462 615.444 Z" fill="#000000" fill-rule="nonzero" fill-opacity="1" /><path clip-path="url(#clip120)" d="M723.066 577.042 Q717.649 577.042 714.906 582.389 Q712.198 587.701 712.198 598.396 Q712.198 609.055 714.906 614.403 Q717.649 619.715 723.066 619.715 Q728.517 619.715 731.225 614.403 Q733.968 609.055 733.968 598.396 Q733.968 587.701 731.225 582.389 Q728.517 577.042 723.066 577.042 M723.066 571.486 Q731.781 571.486 736.364 578.396 Q740.982 585.271 740.982 598.396 Q740.982 611.486 736.364 618.396 Q731.781 625.271 723.066 625.271 Q714.35 625.271 709.732 618.396 Q705.149 611.486 705.149 598.396 Q705.149 585.271 709.732 578.396 Q714.35 571.486 723.066 571.486 Z" fill="#000000" fill-rule="nonzero" fill-opacity="1" /></svg>
