<?xml version="1.0" encoding="utf-8"?>
<svg xmlns="http://www.w3.org/2000/svg" xmlns:xlink="http://www.w3.org/1999/xlink" width="600" height="400" viewBox="0 0 2400 1600">
<defs>
  <clipPath id="clip350">
    <rect x="0" y="0" width="2400" height="1600"/>
  </clipPath>
</defs>
<path clip-path="url(#clip350)" d="M0 1600 L2400 1600 L2400 0 L0 0  Z" fill="#ffffff" fill-rule="evenodd" fill-opacity="1"/>
<defs>
  <clipPath id="clip351">
    <rect x="480" y="0" width="1681" height="1600"/>
  </clipPath>
</defs>
<path clip-path="url(#clip350)" d="M305.948 1401.58 L2352.76 1401.58 L2352.76 123.472 L305.948 123.472  Z" fill="#ffffff" fill-rule="evenodd" fill-opacity="1"/>
<defs>
  <clipPath id="clip352">
    <rect x="305" y="123" width="2048" height="1279"/>
  </clipPath>
</defs>
<polyline clip-path="url(#clip352)" style="stroke:#000000; stroke-linecap:round; stroke-linejoin:round; stroke-width:2; stroke-opacity:0.1; fill:none" points="363.877,1401.58 363.877,123.472 "/>
<polyline clip-path="url(#clip352)" style="stroke:#000000; stroke-linecap:round; stroke-linejoin:round; stroke-width:2; stroke-opacity:0.1; fill:none" points="660.946,1401.58 660.946,123.472 "/>
<polyline clip-path="url(#clip352)" style="stroke:#000000; stroke-linecap:round; stroke-linejoin:round; stroke-width:2; stroke-opacity:0.1; fill:none" points="958.015,1401.58 958.015,123.472 "/>
<polyline clip-path="url(#clip352)" style="stroke:#000000; stroke-linecap:round; stroke-linejoin:round; stroke-width:2; stroke-opacity:0.1; fill:none" points="1255.08,1401.58 1255.08,123.472 "/>
<polyline clip-path="url(#clip352)" style="stroke:#000000; stroke-linecap:round; stroke-linejoin:round; stroke-width:2; stroke-opacity:0.1; fill:none" points="1552.15,1401.58 1552.15,123.472 "/>
<polyline clip-path="url(#clip352)" style="stroke:#000000; stroke-linecap:round; stroke-linejoin:round; stroke-width:2; stroke-opacity:0.1; fill:none" points="1849.22,1401.58 1849.22,123.472 "/>
<polyline clip-path="url(#clip352)" style="stroke:#000000; stroke-linecap:round; stroke-linejoin:round; stroke-width:2; stroke-opacity:0.1; fill:none" points="2146.29,1401.58 2146.29,123.472 "/>
<polyline clip-path="url(#clip352)" style="stroke:#000000; stroke-linecap:round; stroke-linejoin:round; stroke-width:2; stroke-opacity:0.1; fill:none" points="305.948,1208.41 2352.76,1208.41 "/>
<polyline clip-path="url(#clip352)" style="stroke:#000000; stroke-linecap:round; stroke-linejoin:round; stroke-width:2; stroke-opacity:0.1; fill:none" points="305.948,911.188 2352.76,911.188 "/>
<polyline clip-path="url(#clip352)" style="stroke:#000000; stroke-linecap:round; stroke-linejoin:round; stroke-width:2; stroke-opacity:0.1; fill:none" points="305.948,613.963 2352.76,613.963 "/>
<polyline clip-path="url(#clip352)" style="stroke:#000000; stroke-linecap:round; stroke-linejoin:round; stroke-width:2; stroke-opacity:0.1; fill:none" points="305.948,316.737 2352.76,316.737 "/>
<polyline clip-path="url(#clip350)" style="stroke:#000000; stroke-linecap:round; stroke-linejoin:round; stroke-width:4; stroke-opacity:1; fill:none" points="305.948,1401.58 2352.76,1401.58 "/>
<polyline clip-path="url(#clip350)" style="stroke:#000000; stroke-linecap:round; stroke-linejoin:round; stroke-width:4; stroke-opacity:1; fill:none" points="363.877,1401.58 363.877,1382.68 "/>
<polyline clip-path="url(#clip350)" style="stroke:#000000; stroke-linecap:round; stroke-linejoin:round; stroke-width:4; stroke-opacity:1; fill:none" points="660.946,1401.58 660.946,1382.68 "/>
<polyline clip-path="url(#clip350)" style="stroke:#000000; stroke-linecap:round; stroke-linejoin:round; stroke-width:4; stroke-opacity:1; fill:none" points="958.015,1401.58 958.015,1382.68 "/>
<polyline clip-path="url(#clip350)" style="stroke:#000000; stroke-linecap:round; stroke-linejoin:round; stroke-width:4; stroke-opacity:1; fill:none" points="1255.08,1401.58 1255.08,1382.68 "/>
<polyline clip-path="url(#clip350)" style="stroke:#000000; stroke-linecap:round; stroke-linejoin:round; stroke-width:4; stroke-opacity:1; fill:none" points="1552.15,1401.58 1552.15,1382.68 "/>
<polyline clip-path="url(#clip350)" style="stroke:#000000; stroke-linecap:round; stroke-linejoin:round; stroke-width:4; stroke-opacity:1; fill:none" points="1849.22,1401.58 1849.22,1382.68 "/>
<polyline clip-path="url(#clip350)" style="stroke:#000000; stroke-linecap:round; stroke-linejoin:round; stroke-width:4; stroke-opacity:1; fill:none" points="2146.29,1401.58 2146.29,1382.68 "/>
<path clip-path="url(#clip350)" d="M333.878 1436.89 Q328.913 1436.89 326.398 1441.79 Q323.916 1446.66 323.916 1456.47 Q323.916 1466.24 326.398 1471.14 Q328.913 1476.01 333.878 1476.01 Q338.875 1476.01 341.358 1471.14 Q343.872 1466.24 343.872 1456.47 Q343.872 1446.66 341.358 1441.79 Q338.875 1436.89 333.878 1436.89 M333.878 1431.8 Q341.867 1431.8 346.068 1438.13 Q350.302 1444.44 350.302 1456.47 Q350.302 1468.47 346.068 1474.8 Q341.867 1481.1 333.878 1481.1 Q325.889 1481.1 321.656 1474.8 Q317.455 1468.47 317.455 1456.47 Q317.455 1444.44 321.656 1438.13 Q325.889 1431.8 333.878 1431.8 Z" fill="#000000" fill-rule="nonzero" fill-opacity="1" /><path clip-path="url(#clip350)" d="M361.601 1472.1 L368.317 1472.1 L368.317 1480.18 L361.601 1480.18 L361.601 1472.1 Z" fill="#000000" fill-rule="nonzero" fill-opacity="1" /><path clip-path="url(#clip350)" d="M387.859 1474.77 L410.298 1474.77 L410.298 1480.18 L380.125 1480.18 L380.125 1474.77 Q383.785 1470.98 390.087 1464.62 Q396.421 1458.22 398.044 1456.37 Q401.132 1452.9 402.341 1450.52 Q403.583 1448.1 403.583 1445.77 Q403.583 1441.99 400.909 1439.6 Q398.267 1437.21 394.002 1437.21 Q390.979 1437.21 387.605 1438.26 Q384.263 1439.31 380.443 1441.44 L380.443 1434.95 Q384.326 1433.39 387.7 1432.6 Q391.074 1431.8 393.875 1431.8 Q401.259 1431.8 405.651 1435.49 Q410.044 1439.18 410.044 1445.36 Q410.044 1448.29 408.93 1450.93 Q407.848 1453.54 404.951 1457.1 Q404.156 1458.03 399.89 1462.45 Q395.625 1466.84 387.859 1474.77 Z" fill="#000000" fill-rule="nonzero" fill-opacity="1" /><path clip-path="url(#clip350)" d="M629.515 1436.89 Q624.55 1436.89 622.035 1441.79 Q619.553 1446.66 619.553 1456.47 Q619.553 1466.24 622.035 1471.14 Q624.55 1476.01 629.515 1476.01 Q634.512 1476.01 636.995 1471.14 Q639.509 1466.24 639.509 1456.47 Q639.509 1446.66 636.995 1441.79 Q634.512 1436.89 629.515 1436.89 M629.515 1431.8 Q637.504 1431.8 641.706 1438.13 Q645.939 1444.44 645.939 1456.47 Q645.939 1468.47 641.706 1474.8 Q637.504 1481.1 629.515 1481.1 Q621.526 1481.1 617.293 1474.8 Q613.092 1468.47 613.092 1456.47 Q613.092 1444.44 617.293 1438.13 Q621.526 1431.8 629.515 1431.8 Z" fill="#000000" fill-rule="nonzero" fill-opacity="1" /><path clip-path="url(#clip350)" d="M657.238 1472.1 L663.954 1472.1 L663.954 1480.18 L657.238 1480.18 L657.238 1472.1 Z" fill="#000000" fill-rule="nonzero" fill-opacity="1" /><path clip-path="url(#clip350)" d="M695.623 1438.26 L679.391 1463.63 L695.623 1463.63 L695.623 1438.26 M693.936 1432.66 L702.021 1432.66 L702.021 1463.63 L708.8 1463.63 L708.8 1468.98 L702.021 1468.98 L702.021 1480.18 L695.623 1480.18 L695.623 1468.98 L674.171 1468.98 L674.171 1462.77 L693.936 1432.66 Z" fill="#000000" fill-rule="nonzero" fill-opacity="1" /><path clip-path="url(#clip350)" d="M926.807 1436.89 Q921.842 1436.89 919.328 1441.79 Q916.845 1446.66 916.845 1456.47 Q916.845 1466.24 919.328 1471.14 Q921.842 1476.01 926.807 1476.01 Q931.804 1476.01 934.287 1471.14 Q936.802 1466.24 936.802 1456.47 Q936.802 1446.66 934.287 1441.79 Q931.804 1436.89 926.807 1436.89 M926.807 1431.8 Q934.796 1431.8 938.998 1438.13 Q943.231 1444.44 943.231 1456.47 Q943.231 1468.47 938.998 1474.8 Q934.796 1481.1 926.807 1481.1 Q918.818 1481.1 914.585 1474.8 Q910.384 1468.47 910.384 1456.47 Q910.384 1444.44 914.585 1438.13 Q918.818 1431.8 926.807 1431.8 Z" fill="#000000" fill-rule="nonzero" fill-opacity="1" /><path clip-path="url(#clip350)" d="M954.53 1472.1 L961.246 1472.1 L961.246 1480.18 L954.53 1480.18 L954.53 1472.1 Z" fill="#000000" fill-rule="nonzero" fill-opacity="1" /><path clip-path="url(#clip350)" d="M989.796 1453.86 Q985.467 1453.86 982.921 1456.82 Q980.407 1459.78 980.407 1464.93 Q980.407 1470.06 982.921 1473.05 Q985.467 1476.01 989.796 1476.01 Q994.125 1476.01 996.639 1473.05 Q999.185 1470.06 999.185 1464.93 Q999.185 1459.78 996.639 1456.82 Q994.125 1453.86 989.796 1453.86 M1002.56 1433.71 L1002.56 1439.57 Q1000.14 1438.42 997.658 1437.82 Q995.207 1437.21 992.788 1437.21 Q986.422 1437.21 983.048 1441.51 Q979.706 1445.81 979.229 1454.49 Q981.107 1451.73 983.94 1450.26 Q986.772 1448.77 990.178 1448.77 Q997.339 1448.77 1001.48 1453.13 Q1005.65 1457.45 1005.65 1464.93 Q1005.65 1472.25 1001.32 1476.68 Q996.989 1481.1 989.796 1481.1 Q981.552 1481.1 977.192 1474.8 Q972.831 1468.47 972.831 1456.47 Q972.831 1445.2 978.179 1438.52 Q983.526 1431.8 992.533 1431.8 Q994.952 1431.8 997.403 1432.28 Q999.886 1432.76 1002.56 1433.71 Z" fill="#000000" fill-rule="nonzero" fill-opacity="1" /><path clip-path="url(#clip350)" d="M1224.05 1436.89 Q1219.09 1436.89 1216.57 1441.79 Q1214.09 1446.66 1214.09 1456.47 Q1214.09 1466.24 1216.57 1471.14 Q1219.09 1476.01 1224.05 1476.01 Q1229.05 1476.01 1231.53 1471.14 Q1234.05 1466.24 1234.05 1456.47 Q1234.05 1446.66 1231.53 1441.79 Q1229.05 1436.89 1224.05 1436.89 M1224.05 1431.8 Q1232.04 1431.8 1236.24 1438.13 Q1240.48 1444.44 1240.48 1456.47 Q1240.48 1468.47 1236.24 1474.8 Q1232.04 1481.1 1224.05 1481.1 Q1216.06 1481.1 1211.83 1474.8 Q1207.63 1468.47 1207.63 1456.47 Q1207.63 1444.44 1211.83 1438.13 Q1216.06 1431.8 1224.05 1431.8 Z" fill="#000000" fill-rule="nonzero" fill-opacity="1" /><path clip-path="url(#clip350)" d="M1251.77 1472.1 L1258.49 1472.1 L1258.49 1480.18 L1251.77 1480.18 L1251.77 1472.1 Z" fill="#000000" fill-rule="nonzero" fill-opacity="1" /><path clip-path="url(#clip350)" d="M1286.24 1457.61 Q1281.66 1457.61 1279.02 1460.06 Q1276.41 1462.52 1276.41 1466.81 Q1276.41 1471.11 1279.02 1473.56 Q1281.66 1476.01 1286.24 1476.01 Q1290.83 1476.01 1293.47 1473.56 Q1296.11 1471.08 1296.11 1466.81 Q1296.11 1462.52 1293.47 1460.06 Q1290.86 1457.61 1286.24 1457.61 M1279.82 1454.88 Q1275.68 1453.86 1273.35 1451.02 Q1271.06 1448.19 1271.06 1444.12 Q1271.06 1438.42 1275.1 1435.11 Q1279.18 1431.8 1286.24 1431.8 Q1293.34 1431.8 1297.38 1435.11 Q1301.43 1438.42 1301.43 1444.12 Q1301.43 1448.19 1299.1 1451.02 Q1296.81 1453.86 1292.71 1454.88 Q1297.35 1455.96 1299.93 1459.11 Q1302.54 1462.26 1302.54 1466.81 Q1302.54 1473.72 1298.31 1477.41 Q1294.11 1481.1 1286.24 1481.1 Q1278.38 1481.1 1274.15 1477.41 Q1269.95 1473.72 1269.95 1466.81 Q1269.95 1462.26 1272.56 1459.11 Q1275.17 1455.96 1279.82 1454.88 M1277.46 1444.72 Q1277.46 1448.41 1279.75 1450.48 Q1282.08 1452.55 1286.24 1452.55 Q1290.38 1452.55 1292.71 1450.48 Q1295.06 1448.41 1295.06 1444.72 Q1295.06 1441.03 1292.71 1438.96 Q1290.38 1436.89 1286.24 1436.89 Q1282.08 1436.89 1279.75 1438.96 Q1277.46 1441.03 1277.46 1444.72 Z" fill="#000000" fill-rule="nonzero" fill-opacity="1" /><path clip-path="url(#clip350)" d="M1506.99 1474.77 L1517.49 1474.77 L1517.49 1438.52 L1506.07 1440.81 L1506.07 1434.95 L1517.43 1432.66 L1523.86 1432.66 L1523.86 1474.77 L1534.36 1474.77 L1534.36 1480.18 L1506.99 1480.18 L1506.99 1474.77 Z" fill="#000000" fill-rule="nonzero" fill-opacity="1" /><path clip-path="url(#clip350)" d="M1547.35 1472.1 L1554.06 1472.1 L1554.06 1480.18 L1547.35 1480.18 L1547.35 1472.1 Z" fill="#000000" fill-rule="nonzero" fill-opacity="1" /><path clip-path="url(#clip350)" d="M1581.82 1436.89 Q1576.85 1436.89 1574.34 1441.79 Q1571.86 1446.66 1571.86 1456.47 Q1571.86 1466.24 1574.34 1471.14 Q1576.85 1476.01 1581.82 1476.01 Q1586.82 1476.01 1589.3 1471.14 Q1591.81 1466.24 1591.81 1456.47 Q1591.81 1446.66 1589.3 1441.79 Q1586.82 1436.89 1581.82 1436.89 M1581.82 1431.8 Q1589.81 1431.8 1594.01 1438.13 Q1598.24 1444.44 1598.24 1456.47 Q1598.24 1468.47 1594.01 1474.8 Q1589.81 1481.1 1581.82 1481.1 Q1573.83 1481.1 1569.6 1474.8 Q1565.39 1468.47 1565.39 1456.47 Q1565.39 1444.44 1569.6 1438.13 Q1573.83 1431.8 1581.82 1431.8 Z" fill="#000000" fill-rule="nonzero" fill-opacity="1" /><path clip-path="url(#clip350)" d="M1805.16 1474.77 L1815.66 1474.77 L1815.66 1438.52 L1804.23 1440.81 L1804.23 1434.95 L1815.6 1432.66 L1822.03 1432.66 L1822.03 1474.77 L1832.53 1474.77 L1832.53 1480.18 L1805.16 1480.18 L1805.16 1474.77 Z" fill="#000000" fill-rule="nonzero" fill-opacity="1" /><path clip-path="url(#clip350)" d="M1845.52 1472.1 L1852.23 1472.1 L1852.23 1480.18 L1845.52 1480.18 L1845.52 1472.1 Z" fill="#000000" fill-rule="nonzero" fill-opacity="1" /><path clip-path="url(#clip350)" d="M1871.77 1474.77 L1894.21 1474.77 L1894.21 1480.18 L1864.04 1480.18 L1864.04 1474.77 Q1867.7 1470.98 1874 1464.62 Q1880.34 1458.22 1881.96 1456.37 Q1885.05 1452.9 1886.26 1450.52 Q1887.5 1448.1 1887.5 1445.77 Q1887.5 1441.99 1884.82 1439.6 Q1882.18 1437.21 1877.92 1437.21 Q1874.89 1437.21 1871.52 1438.26 Q1868.18 1439.31 1864.36 1441.44 L1864.36 1434.95 Q1868.24 1433.39 1871.61 1432.6 Q1874.99 1431.8 1877.79 1431.8 Q1885.17 1431.8 1889.57 1435.49 Q1893.96 1439.18 1893.96 1445.36 Q1893.96 1448.29 1892.84 1450.93 Q1891.76 1453.54 1888.87 1457.1 Q1888.07 1458.03 1883.81 1462.45 Q1879.54 1466.84 1871.77 1474.77 Z" fill="#000000" fill-rule="nonzero" fill-opacity="1" /><path clip-path="url(#clip350)" d="M2100.79 1474.77 L2111.3 1474.77 L2111.3 1438.52 L2099.87 1440.81 L2099.87 1434.95 L2111.23 1432.66 L2117.66 1432.66 L2117.66 1474.77 L2128.17 1474.77 L2128.17 1480.18 L2100.79 1480.18 L2100.79 1474.77 Z" fill="#000000" fill-rule="nonzero" fill-opacity="1" /><path clip-path="url(#clip350)" d="M2141.15 1472.1 L2147.87 1472.1 L2147.87 1480.18 L2141.15 1480.18 L2141.15 1472.1 Z" fill="#000000" fill-rule="nonzero" fill-opacity="1" /><path clip-path="url(#clip350)" d="M2179.54 1438.26 L2163.31 1463.63 L2179.54 1463.63 L2179.54 1438.26 M2177.85 1432.66 L2185.94 1432.66 L2185.94 1463.63 L2192.71 1463.63 L2192.71 1468.98 L2185.94 1468.98 L2185.94 1480.18 L2179.54 1480.18 L2179.54 1468.98 L2158.09 1468.98 L2158.09 1462.77 L2177.85 1432.66 Z" fill="#000000" fill-rule="nonzero" fill-opacity="1" /><path clip-path="url(#clip350)" d="M1359.83 1516.76 Q1359.83 1517.49 1359.68 1518.1 L1357.55 1531.65 Q1357.43 1532.67 1357.2 1533.06 Q1357.01 1533.44 1356.4 1533.44 Q1355.45 1533.44 1355.45 1532.45 Q1355.45 1531.88 1355.68 1530.96 Q1356.33 1526.66 1356.33 1524.72 Q1356.33 1523.43 1356.06 1522.47 Q1355.83 1521.48 1355.45 1520.8 Q1355.11 1520.11 1354.31 1519.66 Q1353.51 1519.2 1352.75 1518.93 Q1351.99 1518.67 1350.62 1518.55 Q1349.25 1518.4 1348.07 1518.36 Q1346.89 1518.33 1344.95 1518.33 Q1340.72 1518.33 1340.04 1518.48 Q1339.31 1518.67 1338.93 1519.24 Q1338.59 1519.77 1338.21 1521.37 L1327.86 1562.74 L1327.55 1564.38 Q1327.55 1565.29 1328.12 1565.6 Q1328.69 1565.9 1330.45 1566.09 Q1332.96 1566.28 1335.43 1566.28 Q1335.51 1566.28 1335.66 1566.28 Q1336.5 1566.28 1336.84 1566.32 Q1337.18 1566.32 1337.52 1566.4 Q1337.87 1566.47 1337.94 1566.66 Q1338.06 1566.82 1338.06 1567.12 Q1338.06 1567.84 1337.75 1568.22 Q1337.45 1568.57 1337.14 1568.64 Q1336.88 1568.68 1336.34 1568.68 Q1335.28 1568.68 1333 1568.6 Q1330.71 1568.53 1329.57 1568.53 L1323.1 1568.45 L1316.48 1568.53 Q1315.45 1568.53 1313.28 1568.6 Q1311.11 1568.68 1310.08 1568.68 Q1308.75 1568.68 1308.75 1567.73 Q1308.75 1566.66 1309.25 1566.47 Q1309.78 1566.28 1312.02 1566.28 Q1315.18 1566.28 1316.9 1566.13 Q1318.61 1565.98 1319.52 1565.45 Q1320.47 1564.91 1320.74 1564.38 Q1321.01 1563.81 1321.31 1562.51 L1331.78 1520.91 Q1332.08 1520 1332.08 1519.28 Q1332.08 1518.9 1331.97 1518.74 Q1331.89 1518.59 1331.4 1518.48 Q1330.9 1518.33 1329.87 1518.33 L1326.83 1518.33 Q1323.71 1518.33 1321.77 1518.48 Q1319.86 1518.59 1318.04 1519.16 Q1316.25 1519.73 1315.18 1520.53 Q1314.16 1521.33 1313.01 1522.97 Q1311.87 1524.61 1311.03 1526.58 Q1310.23 1528.56 1309.09 1531.8 Q1308.71 1532.86 1308.48 1533.17 Q1308.29 1533.44 1307.76 1533.44 Q1307.38 1533.44 1307.08 1533.21 Q1306.81 1532.94 1306.81 1532.6 Q1307.19 1531.34 1307.27 1531.19 L1311.95 1517.45 Q1312.33 1516.35 1312.67 1516.16 Q1313.05 1515.93 1314.46 1515.93 L1357.7 1515.93 Q1358.38 1515.93 1358.61 1515.93 Q1358.84 1515.93 1359.22 1516 Q1359.6 1516.08 1359.71 1516.27 Q1359.83 1516.46 1359.83 1516.76 Z" fill="#000000" fill-rule="nonzero" fill-opacity="1" /><polyline clip-path="url(#clip350)" style="stroke:#000000; stroke-linecap:round; stroke-linejoin:round; stroke-width:4; stroke-opacity:1; fill:none" points="305.948,1401.58 305.948,123.472 "/>
<polyline clip-path="url(#clip350)" style="stroke:#000000; stroke-linecap:round; stroke-linejoin:round; stroke-width:4; stroke-opacity:1; fill:none" points="305.948,1208.41 324.846,1208.41 "/>
<polyline clip-path="url(#clip350)" style="stroke:#000000; stroke-linecap:round; stroke-linejoin:round; stroke-width:4; stroke-opacity:1; fill:none" points="305.948,911.188 324.846,911.188 "/>
<polyline clip-path="url(#clip350)" style="stroke:#000000; stroke-linecap:round; stroke-linejoin:round; stroke-width:4; stroke-opacity:1; fill:none" points="305.948,613.963 324.846,613.963 "/>
<polyline clip-path="url(#clip350)" style="stroke:#000000; stroke-linecap:round; stroke-linejoin:round; stroke-width:4; stroke-opacity:1; fill:none" points="305.948,316.737 324.846,316.737 "/>
<path clip-path="url(#clip350)" d="M122.9 1209.03 L163.704 1209.03 L163.704 1214.45 L122.9 1214.45 L122.9 1209.03 Z" fill="#000000" fill-rule="nonzero" fill-opacity="1" /><path clip-path="url(#clip350)" d="M178.696 1226.76 L189.199 1226.76 L189.199 1190.51 L177.773 1192.8 L177.773 1186.95 L189.135 1184.65 L195.565 1184.65 L195.565 1226.76 L206.068 1226.76 L206.068 1232.17 L178.696 1232.17 L178.696 1226.76 Z" fill="#000000" fill-rule="nonzero" fill-opacity="1" /><path clip-path="url(#clip350)" d="M219.054 1224.09 L225.77 1224.09 L225.77 1232.17 L219.054 1232.17 L219.054 1224.09 Z" fill="#000000" fill-rule="nonzero" fill-opacity="1" /><path clip-path="url(#clip350)" d="M253.524 1188.89 Q248.559 1188.89 246.045 1193.79 Q243.562 1198.66 243.562 1208.46 Q243.562 1218.23 246.045 1223.13 Q248.559 1228 253.524 1228 Q258.522 1228 261.004 1223.13 Q263.519 1218.23 263.519 1208.46 Q263.519 1198.66 261.004 1193.79 Q258.522 1188.89 253.524 1188.89 M253.524 1183.79 Q261.513 1183.79 265.715 1190.13 Q269.948 1196.43 269.948 1208.46 Q269.948 1220.46 265.715 1226.79 Q261.513 1233.1 253.524 1233.1 Q245.535 1233.1 241.302 1226.79 Q237.101 1220.46 237.101 1208.46 Q237.101 1196.43 241.302 1190.13 Q245.535 1183.79 253.524 1183.79 Z" fill="#000000" fill-rule="nonzero" fill-opacity="1" /><path clip-path="url(#clip350)" d="M124.269 911.809 L165.073 911.809 L165.073 917.22 L124.269 917.22 L124.269 911.809 Z" fill="#000000" fill-rule="nonzero" fill-opacity="1" /><path clip-path="url(#clip350)" d="M192.7 891.662 Q187.735 891.662 185.22 896.563 Q182.738 901.433 182.738 911.236 Q182.738 921.008 185.22 925.909 Q187.735 930.779 192.7 930.779 Q197.697 930.779 200.18 925.909 Q202.694 921.008 202.694 911.236 Q202.694 901.433 200.18 896.563 Q197.697 891.662 192.7 891.662 M192.7 886.569 Q200.689 886.569 204.89 892.903 Q209.124 899.205 209.124 911.236 Q209.124 923.236 204.89 929.569 Q200.689 935.872 192.7 935.872 Q184.711 935.872 180.478 929.569 Q176.277 923.236 176.277 911.236 Q176.277 899.205 180.478 892.903 Q184.711 886.569 192.7 886.569 Z" fill="#000000" fill-rule="nonzero" fill-opacity="1" /><path clip-path="url(#clip350)" d="M220.423 926.864 L227.139 926.864 L227.139 934.948 L220.423 934.948 L220.423 926.864 Z" fill="#000000" fill-rule="nonzero" fill-opacity="1" /><path clip-path="url(#clip350)" d="M241.207 887.428 L266.447 887.428 L266.447 892.839 L247.095 892.839 L247.095 904.489 Q248.496 904.011 249.896 903.788 Q251.296 903.534 252.697 903.534 Q260.654 903.534 265.301 907.894 Q269.948 912.255 269.948 919.703 Q269.948 927.373 265.174 931.638 Q260.399 935.872 251.71 935.872 Q248.718 935.872 245.599 935.362 Q242.512 934.853 239.202 933.834 L239.202 927.373 Q242.066 928.933 245.122 929.697 Q248.177 930.461 251.583 930.461 Q257.089 930.461 260.304 927.564 Q263.519 924.668 263.519 919.703 Q263.519 914.737 260.304 911.841 Q257.089 908.945 251.583 908.945 Q249.005 908.945 246.427 909.517 Q243.88 910.09 241.207 911.3 L241.207 887.428 Z" fill="#000000" fill-rule="nonzero" fill-opacity="1" /><path clip-path="url(#clip350)" d="M191.332 594.436 Q186.366 594.436 183.852 599.338 Q181.369 604.208 181.369 614.011 Q181.369 623.782 183.852 628.684 Q186.366 633.553 191.332 633.553 Q196.329 633.553 198.811 628.684 Q201.326 623.782 201.326 614.011 Q201.326 604.208 198.811 599.338 Q196.329 594.436 191.332 594.436 M191.332 589.344 Q199.32 589.344 203.522 595.677 Q207.755 601.98 207.755 614.011 Q207.755 626.01 203.522 632.344 Q199.32 638.646 191.332 638.646 Q183.343 638.646 179.109 632.344 Q174.908 626.01 174.908 614.011 Q174.908 601.98 179.109 595.677 Q183.343 589.344 191.332 589.344 Z" fill="#000000" fill-rule="nonzero" fill-opacity="1" /><path clip-path="url(#clip350)" d="M219.054 629.639 L225.77 629.639 L225.77 637.723 L219.054 637.723 L219.054 629.639 Z" fill="#000000" fill-rule="nonzero" fill-opacity="1" /><path clip-path="url(#clip350)" d="M253.524 594.436 Q248.559 594.436 246.045 599.338 Q243.562 604.208 243.562 614.011 Q243.562 623.782 246.045 628.684 Q248.559 633.553 253.524 633.553 Q258.522 633.553 261.004 628.684 Q263.519 623.782 263.519 614.011 Q263.519 604.208 261.004 599.338 Q258.522 594.436 253.524 594.436 M253.524 589.344 Q261.513 589.344 265.715 595.677 Q269.948 601.98 269.948 614.011 Q269.948 626.01 265.715 632.344 Q261.513 638.646 253.524 638.646 Q245.535 638.646 241.302 632.344 Q237.101 626.01 237.101 614.011 Q237.101 601.98 241.302 595.677 Q245.535 589.344 253.524 589.344 Z" fill="#000000" fill-rule="nonzero" fill-opacity="1" /><path clip-path="url(#clip350)" d="M192.7 297.211 Q187.735 297.211 185.22 302.112 Q182.738 306.982 182.738 316.785 Q182.738 326.557 185.22 331.458 Q187.735 336.328 192.7 336.328 Q197.697 336.328 200.18 331.458 Q202.694 326.557 202.694 316.785 Q202.694 306.982 200.18 302.112 Q197.697 297.211 192.7 297.211 M192.7 292.118 Q200.689 292.118 204.89 298.452 Q209.124 304.754 209.124 316.785 Q209.124 328.785 204.89 335.118 Q200.689 341.42 192.7 341.42 Q184.711 341.42 180.478 335.118 Q176.277 328.785 176.277 316.785 Q176.277 304.754 180.478 298.452 Q184.711 292.118 192.7 292.118 Z" fill="#000000" fill-rule="nonzero" fill-opacity="1" /><path clip-path="url(#clip350)" d="M220.423 332.413 L227.139 332.413 L227.139 340.497 L220.423 340.497 L220.423 332.413 Z" fill="#000000" fill-rule="nonzero" fill-opacity="1" /><path clip-path="url(#clip350)" d="M241.207 292.977 L266.447 292.977 L266.447 298.388 L247.095 298.388 L247.095 310.038 Q248.496 309.56 249.896 309.337 Q251.296 309.083 252.697 309.083 Q260.654 309.083 265.301 313.443 Q269.948 317.804 269.948 325.252 Q269.948 332.922 265.174 337.187 Q260.399 341.42 251.71 341.42 Q248.718 341.42 245.599 340.911 Q242.512 340.402 239.202 339.383 L239.202 332.922 Q242.066 334.482 245.122 335.246 Q248.177 336.01 251.583 336.01 Q257.089 336.01 260.304 333.113 Q263.519 330.217 263.519 325.252 Q263.519 320.286 260.304 317.39 Q257.089 314.494 251.583 314.494 Q249.005 314.494 246.427 315.066 Q243.88 315.639 241.207 316.849 L241.207 292.977 Z" fill="#000000" fill-rule="nonzero" fill-opacity="1" /><path clip-path="url(#clip350)" d="M18.3474 795.521 L38.2155 800.431 Q39.4715 800.773 39.6237 801.002 Q39.776 801.192 39.776 801.801 Q39.776 802.981 38.9767 802.981 Q38.9006 802.981 37.911 802.867 Q36.8833 802.752 35.0183 802.752 Q28.1292 802.752 24.0566 806.102 Q19.984 809.413 19.984 815.313 Q19.984 820.413 22.5722 825.551 Q25.1604 830.651 29.3852 834.305 Q32.5824 837.046 36.6169 839.063 Q40.6514 841.042 44.3434 841.994 Q48.0353 842.907 50.8138 843.326 Q53.5923 843.745 55.6096 843.745 Q58.5403 843.745 61.0143 843.136 Q63.4883 842.489 65.2391 841.347 Q66.9519 840.205 68.284 838.759 Q69.5781 837.274 70.3393 835.561 Q71.1006 833.811 71.4812 832.06 Q71.8237 830.309 71.8237 828.482 Q71.8237 821.136 66.1145 814.133 Q61.433 808.576 53.7826 806.254 Q53.0214 806.064 53.0214 805.264 Q53.0214 804.313 53.7826 804.313 Q53.9348 804.313 54.6961 804.503 Q55.4192 804.694 56.9036 805.264 Q58.35 805.835 59.9866 806.711 Q61.6233 807.586 63.6786 809.223 Q65.7339 810.859 67.5228 812.877 Q70.4916 816.302 72.3566 820.641 Q74.2216 824.98 74.2216 829.738 Q74.2216 835.676 71.5954 840.471 Q68.9691 845.267 64.0592 848.084 Q59.1493 850.862 52.8691 850.862 Q46.2464 850.862 39.7379 847.817 Q33.2294 844.772 28.3956 839.938 Q23.5618 835.105 20.5549 828.71 Q17.5481 822.316 17.5481 815.922 Q17.5481 813.486 18.1951 811.316 Q18.8422 809.147 19.6415 807.853 Q20.4408 806.52 21.6207 805.341 Q22.7625 804.161 23.2954 803.78 Q23.8282 803.361 24.4753 802.981 L18.4996 797.538 Q17.5481 796.586 17.5481 796.358 Q17.5481 795.901 17.8145 795.711 Q18.0809 795.521 18.3474 795.521 Z" fill="#000000" fill-rule="nonzero" fill-opacity="1" /><path clip-path="url(#clip350)" d="M53.0214 786.314 Q39.8521 786.314 29.233 781.404 Q24.7798 779.311 21.0497 776.38 Q17.3197 773.449 15.6831 771.508 Q14.0464 769.567 14.0464 769.034 Q14.0464 768.273 14.8077 768.235 Q15.1883 768.235 16.1398 769.262 Q28.9285 781.823 53.0214 781.785 Q77.1904 781.785 89.4843 769.567 Q90.8164 768.235 91.2351 768.235 Q91.9963 768.235 91.9963 769.034 Q91.9963 769.567 90.4358 771.432 Q88.8753 773.297 85.2975 776.19 Q81.7197 779.082 77.3427 781.176 Q66.7235 786.314 53.0214 786.314 Z" fill="#000000" fill-rule="nonzero" fill-opacity="1" /><path clip-path="url(#clip350)" d="M20.593 709.291 Q21.3162 709.291 21.9251 709.443 L35.475 711.575 Q36.5027 711.689 36.8833 711.917 Q37.2639 712.108 37.2639 712.717 Q37.2639 713.668 36.2743 713.668 Q35.7034 713.668 34.7899 713.44 Q30.489 712.793 28.5478 712.793 Q27.2538 712.793 26.3022 713.059 Q25.3126 713.287 24.6275 713.668 Q23.9424 714.011 23.4857 714.81 Q23.0289 715.609 22.7625 716.37 Q22.4961 717.132 22.3819 718.502 Q22.2296 719.872 22.1916 721.052 Q22.1535 722.232 22.1535 724.173 Q22.1535 728.398 22.3058 729.083 Q22.4961 729.806 23.067 730.187 Q23.5999 730.529 25.1984 730.91 L66.5713 741.263 L68.2079 741.567 Q69.1214 741.567 69.4259 740.996 Q69.7304 740.425 69.9207 738.674 Q70.111 736.162 70.111 733.688 Q70.111 733.612 70.111 733.46 Q70.111 732.623 70.149 732.28 Q70.149 731.938 70.2252 731.595 Q70.3013 731.252 70.4916 731.176 Q70.6438 731.062 70.9483 731.062 Q71.6715 731.062 72.0521 731.367 Q72.3947 731.671 72.4708 731.976 Q72.5088 732.242 72.5088 732.775 Q72.5088 733.841 72.4327 736.124 Q72.3566 738.408 72.3566 739.55 L72.2805 746.02 L72.3566 752.643 Q72.3566 753.671 72.4327 755.84 Q72.5088 758.01 72.5088 759.037 Q72.5088 760.369 71.5573 760.369 Q70.4916 760.369 70.3013 759.875 Q70.111 759.342 70.111 757.096 Q70.111 753.937 69.9587 752.224 Q69.8065 750.512 69.2736 749.598 Q68.7408 748.647 68.2079 748.38 Q67.637 748.114 66.3429 747.809 L24.7417 737.342 Q23.8282 737.038 23.1051 737.038 Q22.7244 737.038 22.5722 737.152 Q22.4199 737.228 22.3058 737.723 Q22.1535 738.218 22.1535 739.245 L22.1535 742.29 Q22.1535 745.411 22.3058 747.352 Q22.4199 749.256 22.9909 751.082 Q23.5618 752.871 24.3611 753.937 Q25.1604 754.965 26.797 756.107 Q28.4337 757.248 30.4129 758.086 Q32.3921 758.885 35.6273 760.027 Q36.693 760.408 36.9975 760.636 Q37.2639 760.826 37.2639 761.359 Q37.2639 761.74 37.0356 762.044 Q36.7691 762.311 36.4266 762.311 Q35.1705 761.93 35.0183 761.854 L21.2781 757.172 Q20.1743 756.792 19.984 756.449 Q19.7556 756.069 19.7556 754.66 L19.7556 711.422 Q19.7556 710.737 19.7556 710.509 Q19.7556 710.281 19.8318 709.9 Q19.9079 709.519 20.0982 709.405 Q20.2885 709.291 20.593 709.291 Z" fill="#000000" fill-rule="nonzero" fill-opacity="1" /><path clip-path="url(#clip350)" d="M91.2351 704.121 Q90.8545 704.121 89.9029 703.132 Q77.1143 690.571 53.0214 690.571 Q28.8523 690.571 16.6346 702.637 Q15.2263 704.121 14.8077 704.121 Q14.0464 704.121 14.0464 703.36 Q14.0464 702.827 15.6069 700.962 Q17.1675 699.059 20.7452 696.204 Q24.323 693.312 28.7001 691.18 Q39.3192 686.042 53.0214 686.042 Q66.1906 686.042 76.8098 690.952 Q81.263 693.045 84.993 695.976 Q88.723 698.907 90.3597 700.848 Q91.9963 702.789 91.9963 703.36 Q91.9963 704.121 91.2351 704.121 Z" fill="#000000" fill-rule="nonzero" fill-opacity="1" /><path clip-path="url(#clip350)" d="M543.314 16.7545 L543.314 25.383 Q539.183 21.5346 534.484 19.6307 Q529.825 17.7268 524.559 17.7268 Q514.188 17.7268 508.679 24.0867 Q503.17 30.4061 503.17 42.3968 Q503.17 54.3469 508.679 60.7069 Q514.188 67.0263 524.559 67.0263 Q529.825 67.0263 534.484 65.1223 Q539.183 63.2184 543.314 59.3701 L543.314 67.9175 Q539.021 70.8341 534.2 72.2924 Q529.42 73.7508 524.073 73.7508 Q510.34 73.7508 502.441 65.3654 Q494.542 56.9395 494.542 42.3968 Q494.542 27.8135 502.441 19.4281 Q510.34 11.0023 524.073 11.0023 Q529.501 11.0023 534.281 12.4606 Q539.102 13.8784 543.314 16.7545 Z" fill="#000000" fill-rule="nonzero" fill-opacity="1" /><path clip-path="url(#clip350)" d="M550.282 27.2059 L558.181 27.2059 L572.359 65.2844 L586.538 27.2059 L594.437 27.2059 L577.423 72.576 L567.296 72.576 L550.282 27.2059 Z" fill="#000000" fill-rule="nonzero" fill-opacity="1" /><path clip-path="url(#clip350)" d="M648.679 32.4315 Q642.683 32.4315 639.199 37.1306 Q635.716 41.7891 635.716 49.9314 Q635.716 58.0738 639.159 62.7728 Q642.643 67.4314 648.679 67.4314 Q654.633 67.4314 658.117 62.7323 Q661.601 58.0333 661.601 49.9314 Q661.601 41.8701 658.117 37.1711 Q654.633 32.4315 648.679 32.4315 M648.679 26.1121 Q658.401 26.1121 663.95 32.4315 Q669.5 38.7509 669.5 49.9314 Q669.5 61.0714 663.95 67.4314 Q658.401 73.7508 648.679 73.7508 Q638.916 73.7508 633.366 67.4314 Q627.857 61.0714 627.857 49.9314 Q627.857 38.7509 633.366 32.4315 Q638.916 26.1121 648.679 26.1121 Z" fill="#000000" fill-rule="nonzero" fill-opacity="1" /><path clip-path="url(#clip350)" d="M714.425 49.9314 Q714.425 41.7081 711.022 37.0496 Q707.66 32.3505 701.745 32.3505 Q695.831 32.3505 692.428 37.0496 Q689.066 41.7081 689.066 49.9314 Q689.066 58.1548 692.428 62.8538 Q695.831 67.5124 701.745 67.5124 Q707.66 67.5124 711.022 62.8538 Q714.425 58.1548 714.425 49.9314 M689.066 34.0924 Q691.416 30.0415 694.98 28.0971 Q698.586 26.1121 703.568 26.1121 Q711.832 26.1121 716.977 32.6746 Q722.162 39.2371 722.162 49.9314 Q722.162 60.6258 716.977 67.1883 Q711.832 73.7508 703.568 73.7508 Q698.586 73.7508 694.98 71.8063 Q691.416 69.8214 689.066 65.7705 L689.066 72.576 L681.572 72.576 L681.572 9.54393 L689.066 9.54393 L689.066 34.0924 Z" fill="#000000" fill-rule="nonzero" fill-opacity="1" /><path clip-path="url(#clip350)" d="M741.89 14.324 L741.89 27.2059 L757.243 27.2059 L757.243 32.9987 L741.89 32.9987 L741.89 57.6282 Q741.89 63.1779 743.389 64.7578 Q744.928 66.3376 749.587 66.3376 L757.243 66.3376 L757.243 72.576 L749.587 72.576 Q740.958 72.576 737.677 69.3758 Q734.396 66.1351 734.396 57.6282 L734.396 32.9987 L728.927 32.9987 L728.927 27.2059 L734.396 27.2059 L734.396 14.324 L741.89 14.324 Z" fill="#000000" fill-rule="nonzero" fill-opacity="1" /><path clip-path="url(#clip350)" d="M787.665 49.7694 Q778.632 49.7694 775.148 51.8354 Q771.664 53.9013 771.664 58.8839 Q771.664 62.8538 774.257 65.2034 Q776.89 67.5124 781.386 67.5124 Q787.584 67.5124 791.311 63.1374 Q795.078 58.7219 795.078 51.4303 L795.078 49.7694 L787.665 49.7694 M802.532 46.6907 L802.532 72.576 L795.078 72.576 L795.078 65.6895 Q792.526 69.8214 788.718 71.8063 Q784.91 73.7508 779.401 73.7508 Q772.434 73.7508 768.302 69.8619 Q764.21 65.9325 764.21 59.3701 Q764.21 51.7138 769.314 47.825 Q774.459 43.9361 784.627 43.9361 L795.078 43.9361 L795.078 43.2069 Q795.078 38.0623 791.675 35.2672 Q788.313 32.4315 782.196 32.4315 Q778.307 32.4315 774.621 33.3632 Q770.935 34.295 767.532 36.1584 L767.532 29.2718 Q771.623 27.692 775.472 26.9223 Q779.32 26.1121 782.966 26.1121 Q792.81 26.1121 797.671 31.2163 Q802.532 36.3204 802.532 46.6907 Z" fill="#000000" fill-rule="nonzero" fill-opacity="1" /><path clip-path="url(#clip350)" d="M817.885 27.2059 L825.338 27.2059 L825.338 72.576 L817.885 72.576 L817.885 27.2059 M817.885 9.54393 L825.338 9.54393 L825.338 18.9825 L817.885 18.9825 L817.885 9.54393 Z" fill="#000000" fill-rule="nonzero" fill-opacity="1" /><path clip-path="url(#clip350)" d="M878.648 45.1919 L878.648 72.576 L871.195 72.576 L871.195 45.4349 Q871.195 38.994 868.683 35.7938 Q866.172 32.5936 861.148 32.5936 Q855.113 32.5936 851.629 36.4419 Q848.145 40.2903 848.145 46.9338 L848.145 72.576 L840.651 72.576 L840.651 27.2059 L848.145 27.2059 L848.145 34.2544 Q850.819 30.163 854.424 28.1376 Q858.07 26.1121 862.809 26.1121 Q870.628 26.1121 874.638 30.9732 Q878.648 35.7938 878.648 45.1919 Z" fill="#000000" fill-rule="nonzero" fill-opacity="1" /><path clip-path="url(#clip350)" d="M932.323 48.0275 L932.323 51.6733 L898.052 51.6733 Q898.538 59.3701 902.67 63.421 Q906.843 67.4314 914.256 67.4314 Q918.55 67.4314 922.56 66.3781 Q926.611 65.3249 930.581 63.2184 L930.581 70.267 Q926.571 71.9684 922.358 72.8596 Q918.145 73.7508 913.81 73.7508 Q902.954 73.7508 896.594 67.4314 Q890.274 61.1119 890.274 50.3365 Q890.274 39.1965 896.27 32.6746 Q902.306 26.1121 912.514 26.1121 Q921.669 26.1121 926.976 32.0264 Q932.323 37.9003 932.323 48.0275 M924.869 45.84 Q924.788 39.7232 921.426 36.0774 Q918.104 32.4315 912.595 32.4315 Q906.357 32.4315 902.589 35.9558 Q898.862 39.4801 898.295 45.8805 L924.869 45.84 Z" fill="#000000" fill-rule="nonzero" fill-opacity="1" /><path clip-path="url(#clip350)" d="M974.412 34.0924 L974.412 9.54393 L981.865 9.54393 L981.865 72.576 L974.412 72.576 L974.412 65.7705 Q972.062 69.8214 968.457 71.8063 Q964.892 73.7508 959.869 73.7508 Q951.646 73.7508 946.46 67.1883 Q941.316 60.6258 941.316 49.9314 Q941.316 39.2371 946.46 32.6746 Q951.646 26.1121 959.869 26.1121 Q964.892 26.1121 968.457 28.0971 Q972.062 30.0415 974.412 34.0924 M949.013 49.9314 Q949.013 58.1548 952.375 62.8538 Q955.778 67.5124 961.692 67.5124 Q967.606 67.5124 971.009 62.8538 Q974.412 58.1548 974.412 49.9314 Q974.412 41.7081 971.009 37.0496 Q967.606 32.3505 961.692 32.3505 Q955.778 32.3505 952.375 37.0496 Q949.013 41.7081 949.013 49.9314 Z" fill="#000000" fill-rule="nonzero" fill-opacity="1" /><path clip-path="url(#clip350)" d="M1046.56 9.54393 L1046.56 15.7418 L1039.43 15.7418 Q1035.42 15.7418 1033.84 17.3622 Q1032.3 18.9825 1032.3 23.1955 L1032.3 27.2059 L1044.57 27.2059 L1044.57 32.9987 L1032.3 32.9987 L1032.3 72.576 L1024.8 72.576 L1024.8 32.9987 L1017.68 32.9987 L1017.68 27.2059 L1024.8 27.2059 L1024.8 24.0462 Q1024.8 16.471 1028.33 13.0277 Q1031.85 9.54393 1039.51 9.54393 L1046.56 9.54393 Z" fill="#000000" fill-rule="nonzero" fill-opacity="1" /><path clip-path="url(#clip350)" d="M1079.09 34.1734 Q1077.83 33.4443 1076.33 33.1202 Q1074.87 32.7556 1073.09 32.7556 Q1066.77 32.7556 1063.37 36.8875 Q1060.01 40.9789 1060.01 48.6757 L1060.01 72.576 L1052.51 72.576 L1052.51 27.2059 L1060.01 27.2059 L1060.01 34.2544 Q1062.36 30.1225 1066.12 28.1376 Q1069.89 26.1121 1075.28 26.1121 Q1076.05 26.1121 1076.98 26.2337 Q1077.91 26.3147 1079.05 26.5172 L1079.09 34.1734 Z" fill="#000000" fill-rule="nonzero" fill-opacity="1" /><path clip-path="url(#clip350)" d="M1102.66 32.4315 Q1096.67 32.4315 1093.18 37.1306 Q1089.7 41.7891 1089.7 49.9314 Q1089.7 58.0738 1093.14 62.7728 Q1096.63 67.4314 1102.66 67.4314 Q1108.62 67.4314 1112.1 62.7323 Q1115.59 58.0333 1115.59 49.9314 Q1115.59 41.8701 1112.1 37.1711 Q1108.62 32.4315 1102.66 32.4315 M1102.66 26.1121 Q1112.39 26.1121 1117.94 32.4315 Q1123.48 38.7509 1123.48 49.9314 Q1123.48 61.0714 1117.94 67.4314 Q1112.39 73.7508 1102.66 73.7508 Q1092.9 73.7508 1087.35 67.4314 Q1081.84 61.0714 1081.84 49.9314 Q1081.84 38.7509 1087.35 32.4315 Q1092.9 26.1121 1102.66 26.1121 Z" fill="#000000" fill-rule="nonzero" fill-opacity="1" /><path clip-path="url(#clip350)" d="M1171.16 35.9153 Q1173.96 30.8922 1177.85 28.5022 Q1181.74 26.1121 1187 26.1121 Q1194.09 26.1121 1197.94 31.0947 Q1201.79 36.0368 1201.79 45.1919 L1201.79 72.576 L1194.29 72.576 L1194.29 45.4349 Q1194.29 38.913 1191.99 35.7533 Q1189.68 32.5936 1184.94 32.5936 Q1179.14 32.5936 1175.78 36.4419 Q1172.42 40.2903 1172.42 46.9338 L1172.42 72.576 L1164.93 72.576 L1164.93 45.4349 Q1164.93 38.8725 1162.62 35.7533 Q1160.31 32.5936 1155.49 32.5936 Q1149.78 32.5936 1146.41 36.4824 Q1143.05 40.3308 1143.05 46.9338 L1143.05 72.576 L1135.56 72.576 L1135.56 27.2059 L1143.05 27.2059 L1143.05 34.2544 Q1145.6 30.082 1149.17 28.0971 Q1152.73 26.1121 1157.63 26.1121 Q1162.58 26.1121 1166.02 28.6237 Q1169.5 31.1352 1171.16 35.9153 Z" fill="#000000" fill-rule="nonzero" fill-opacity="1" /><path clip-path="url(#clip350)" d="M1260.61 32.4315 Q1254.61 32.4315 1251.13 37.1306 Q1247.65 41.7891 1247.65 49.9314 Q1247.65 58.0738 1251.09 62.7728 Q1254.57 67.4314 1260.61 67.4314 Q1266.56 67.4314 1270.05 62.7323 Q1273.53 58.0333 1273.53 49.9314 Q1273.53 41.8701 1270.05 37.1711 Q1266.56 32.4315 1260.61 32.4315 M1260.61 26.1121 Q1270.33 26.1121 1275.88 32.4315 Q1281.43 38.7509 1281.43 49.9314 Q1281.43 61.0714 1275.88 67.4314 Q1270.33 73.7508 1260.61 73.7508 Q1250.85 73.7508 1245.3 67.4314 Q1239.79 61.0714 1239.79 49.9314 Q1239.79 38.7509 1245.3 32.4315 Q1250.85 26.1121 1260.61 26.1121 Z" fill="#000000" fill-rule="nonzero" fill-opacity="1" /><path clip-path="url(#clip350)" d="M1320.08 34.1734 Q1318.82 33.4443 1317.32 33.1202 Q1315.86 32.7556 1314.08 32.7556 Q1307.76 32.7556 1304.36 36.8875 Q1301 40.9789 1301 48.6757 L1301 72.576 L1293.5 72.576 L1293.5 27.2059 L1301 27.2059 L1301 34.2544 Q1303.35 30.1225 1307.11 28.1376 Q1310.88 26.1121 1316.27 26.1121 Q1317.04 26.1121 1317.97 26.2337 Q1318.9 26.3147 1320.03 26.5172 L1320.08 34.1734 Z" fill="#000000" fill-rule="nonzero" fill-opacity="1" /><path clip-path="url(#clip350)" d="M1327.89 27.2059 L1335.35 27.2059 L1335.35 72.576 L1327.89 72.576 L1327.89 27.2059 M1327.89 9.54393 L1335.35 9.54393 L1335.35 18.9825 L1327.89 18.9825 L1327.89 9.54393 Z" fill="#000000" fill-rule="nonzero" fill-opacity="1" /><path clip-path="url(#clip350)" d="M1380.8 49.3643 Q1380.8 41.2625 1377.44 36.8065 Q1374.11 32.3505 1368.08 32.3505 Q1362.08 32.3505 1358.72 36.8065 Q1355.4 41.2625 1355.4 49.3643 Q1355.4 57.4256 1358.72 61.8816 Q1362.08 66.3376 1368.08 66.3376 Q1374.11 66.3376 1377.44 61.8816 Q1380.8 57.4256 1380.8 49.3643 M1388.25 66.9452 Q1388.25 78.5308 1383.11 84.1616 Q1377.96 89.8329 1367.35 89.8329 Q1363.42 89.8329 1359.94 89.2252 Q1356.45 88.6581 1353.17 87.4428 L1353.17 80.1917 Q1356.45 81.9741 1359.65 82.8248 Q1362.85 83.6755 1366.17 83.6755 Q1373.51 83.6755 1377.15 79.8271 Q1380.8 76.0193 1380.8 68.282 L1380.8 64.5957 Q1378.49 68.6061 1374.88 70.5911 Q1371.28 72.576 1366.26 72.576 Q1357.91 72.576 1352.81 66.2161 Q1347.7 59.8562 1347.7 49.3643 Q1347.7 38.832 1352.81 32.472 Q1357.91 26.1121 1366.26 26.1121 Q1371.28 26.1121 1374.88 28.0971 Q1378.49 30.082 1380.8 34.0924 L1380.8 27.2059 L1388.25 27.2059 L1388.25 66.9452 Z" fill="#000000" fill-rule="nonzero" fill-opacity="1" /><path clip-path="url(#clip350)" d="M1403.61 27.2059 L1411.06 27.2059 L1411.06 72.576 L1403.61 72.576 L1403.61 27.2059 M1403.61 9.54393 L1411.06 9.54393 L1411.06 18.9825 L1403.61 18.9825 L1403.61 9.54393 Z" fill="#000000" fill-rule="nonzero" fill-opacity="1" /><path clip-path="url(#clip350)" d="M1464.37 45.1919 L1464.37 72.576 L1456.91 72.576 L1456.91 45.4349 Q1456.91 38.994 1454.4 35.7938 Q1451.89 32.5936 1446.87 32.5936 Q1440.83 32.5936 1437.35 36.4419 Q1433.87 40.2903 1433.87 46.9338 L1433.87 72.576 L1426.37 72.576 L1426.37 27.2059 L1433.87 27.2059 L1433.87 34.2544 Q1436.54 30.163 1440.14 28.1376 Q1443.79 26.1121 1448.53 26.1121 Q1456.35 26.1121 1460.36 30.9732 Q1464.37 35.7938 1464.37 45.1919 Z" fill="#000000" fill-rule="nonzero" fill-opacity="1" /><path clip-path="url(#clip350)" d="M1499.85 49.7694 Q1490.82 49.7694 1487.34 51.8354 Q1483.85 53.9013 1483.85 58.8839 Q1483.85 62.8538 1486.45 65.2034 Q1489.08 67.5124 1493.58 67.5124 Q1499.77 67.5124 1503.5 63.1374 Q1507.27 58.7219 1507.27 51.4303 L1507.27 49.7694 L1499.85 49.7694 M1514.72 46.6907 L1514.72 72.576 L1507.27 72.576 L1507.27 65.6895 Q1504.72 69.8214 1500.91 71.8063 Q1497.1 73.7508 1491.59 73.7508 Q1484.62 73.7508 1480.49 69.8619 Q1476.4 65.9325 1476.4 59.3701 Q1476.4 51.7138 1481.5 47.825 Q1486.65 43.9361 1496.82 43.9361 L1507.27 43.9361 L1507.27 43.2069 Q1507.27 38.0623 1503.86 35.2672 Q1500.5 32.4315 1494.39 32.4315 Q1490.5 32.4315 1486.81 33.3632 Q1483.12 34.295 1479.72 36.1584 L1479.72 29.2718 Q1483.81 27.692 1487.66 26.9223 Q1491.51 26.1121 1495.16 26.1121 Q1505 26.1121 1509.86 31.2163 Q1514.72 36.3204 1514.72 46.6907 Z" fill="#000000" fill-rule="nonzero" fill-opacity="1" /><path clip-path="url(#clip350)" d="M1530.07 9.54393 L1537.53 9.54393 L1537.53 72.576 L1530.07 72.576 L1530.07 9.54393 Z" fill="#000000" fill-rule="nonzero" fill-opacity="1" /><path clip-path="url(#clip350)" d="M1600.11 49.7694 Q1591.08 49.7694 1587.6 51.8354 Q1584.11 53.9013 1584.11 58.8839 Q1584.11 62.8538 1586.71 65.2034 Q1589.34 67.5124 1593.84 67.5124 Q1600.03 67.5124 1603.76 63.1374 Q1607.53 58.7219 1607.53 51.4303 L1607.53 49.7694 L1600.11 49.7694 M1614.98 46.6907 L1614.98 72.576 L1607.53 72.576 L1607.53 65.6895 Q1604.98 69.8214 1601.17 71.8063 Q1597.36 73.7508 1591.85 73.7508 Q1584.88 73.7508 1580.75 69.8619 Q1576.66 65.9325 1576.66 59.3701 Q1576.66 51.7138 1581.76 47.825 Q1586.91 43.9361 1597.08 43.9361 L1607.53 43.9361 L1607.53 43.2069 Q1607.53 38.0623 1604.12 35.2672 Q1600.76 32.4315 1594.65 32.4315 Q1590.76 32.4315 1587.07 33.3632 Q1583.38 34.295 1579.98 36.1584 L1579.98 29.2718 Q1584.07 27.692 1587.92 26.9223 Q1591.77 26.1121 1595.42 26.1121 Q1605.26 26.1121 1610.12 31.2163 Q1614.98 36.3204 1614.98 46.6907 Z" fill="#000000" fill-rule="nonzero" fill-opacity="1" /><path clip-path="url(#clip350)" d="M1668.05 45.1919 L1668.05 72.576 L1660.59 72.576 L1660.59 45.4349 Q1660.59 38.994 1658.08 35.7938 Q1655.57 32.5936 1650.55 32.5936 Q1644.51 32.5936 1641.03 36.4419 Q1637.54 40.2903 1637.54 46.9338 L1637.54 72.576 L1630.05 72.576 L1630.05 27.2059 L1637.54 27.2059 L1637.54 34.2544 Q1640.22 30.163 1643.82 28.1376 Q1647.47 26.1121 1652.21 26.1121 Q1660.03 26.1121 1664.04 30.9732 Q1668.05 35.7938 1668.05 45.1919 Z" fill="#000000" fill-rule="nonzero" fill-opacity="1" /><path clip-path="url(#clip350)" d="M1712.77 34.0924 L1712.77 9.54393 L1720.22 9.54393 L1720.22 72.576 L1712.77 72.576 L1712.77 65.7705 Q1710.42 69.8214 1706.82 71.8063 Q1703.25 73.7508 1698.23 73.7508 Q1690 73.7508 1684.82 67.1883 Q1679.67 60.6258 1679.67 49.9314 Q1679.67 39.2371 1684.82 32.6746 Q1690 26.1121 1698.23 26.1121 Q1703.25 26.1121 1706.82 28.0971 Q1710.42 30.0415 1712.77 34.0924 M1687.37 49.9314 Q1687.37 58.1548 1690.73 62.8538 Q1694.14 67.5124 1700.05 67.5124 Q1705.96 67.5124 1709.37 62.8538 Q1712.77 58.1548 1712.77 49.9314 Q1712.77 41.7081 1709.37 37.0496 Q1705.96 32.3505 1700.05 32.3505 Q1694.14 32.3505 1690.73 37.0496 Q1687.37 41.7081 1687.37 49.9314 Z" fill="#000000" fill-rule="nonzero" fill-opacity="1" /><path clip-path="url(#clip350)" d="M1788.24 34.1734 Q1786.98 33.4443 1785.48 33.1202 Q1784.03 32.7556 1782.24 32.7556 Q1775.92 32.7556 1772.52 36.8875 Q1769.16 40.9789 1769.16 48.6757 L1769.16 72.576 L1761.66 72.576 L1761.66 27.2059 L1769.16 27.2059 L1769.16 34.2544 Q1771.51 30.1225 1775.28 28.1376 Q1779.04 26.1121 1784.43 26.1121 Q1785.2 26.1121 1786.13 26.2337 Q1787.06 26.3147 1788.2 26.5172 L1788.24 34.1734 Z" fill="#000000" fill-rule="nonzero" fill-opacity="1" /><path clip-path="url(#clip350)" d="M1833.04 48.0275 L1833.04 51.6733 L1798.77 51.6733 Q1799.26 59.3701 1803.39 63.421 Q1807.56 67.4314 1814.97 67.4314 Q1819.27 67.4314 1823.28 66.3781 Q1827.33 65.3249 1831.3 63.2184 L1831.3 70.267 Q1827.29 71.9684 1823.08 72.8596 Q1818.86 73.7508 1814.53 73.7508 Q1803.67 73.7508 1797.31 67.4314 Q1790.99 61.1119 1790.99 50.3365 Q1790.99 39.1965 1796.99 32.6746 Q1803.02 26.1121 1813.23 26.1121 Q1822.39 26.1121 1827.69 32.0264 Q1833.04 37.9003 1833.04 48.0275 M1825.59 45.84 Q1825.51 39.7232 1822.14 36.0774 Q1818.82 32.4315 1813.31 32.4315 Q1807.08 32.4315 1803.31 35.9558 Q1799.58 39.4801 1799.01 45.8805 L1825.59 45.84 Z" fill="#000000" fill-rule="nonzero" fill-opacity="1" /><path clip-path="url(#clip350)" d="M1875.13 34.0924 L1875.13 9.54393 L1882.58 9.54393 L1882.58 72.576 L1875.13 72.576 L1875.13 65.7705 Q1872.78 69.8214 1869.18 71.8063 Q1865.61 73.7508 1860.59 73.7508 Q1852.36 73.7508 1847.18 67.1883 Q1842.03 60.6258 1842.03 49.9314 Q1842.03 39.2371 1847.18 32.6746 Q1852.36 26.1121 1860.59 26.1121 Q1865.61 26.1121 1869.18 28.0971 Q1872.78 30.0415 1875.13 34.0924 M1849.73 49.9314 Q1849.73 58.1548 1853.09 62.8538 Q1856.5 67.5124 1862.41 67.5124 Q1868.32 67.5124 1871.73 62.8538 Q1875.13 58.1548 1875.13 49.9314 Q1875.13 41.7081 1871.73 37.0496 Q1868.32 32.3505 1862.41 32.3505 Q1856.5 32.3505 1853.09 37.0496 Q1849.73 41.7081 1849.73 49.9314 Z" fill="#000000" fill-rule="nonzero" fill-opacity="1" /><path clip-path="url(#clip350)" d="M1897.17 54.671 L1897.17 27.2059 L1904.62 27.2059 L1904.62 54.3874 Q1904.62 60.8284 1907.13 64.0691 Q1909.64 67.2693 1914.67 67.2693 Q1920.7 67.2693 1924.19 63.421 Q1927.71 59.5726 1927.71 52.9291 L1927.71 27.2059 L1935.16 27.2059 L1935.16 72.576 L1927.71 72.576 L1927.71 65.6084 Q1925 69.7404 1921.39 71.7658 Q1917.83 73.7508 1913.09 73.7508 Q1905.27 73.7508 1901.22 68.8897 Q1897.17 64.0286 1897.17 54.671 M1915.92 26.1121 L1915.92 26.1121 Z" fill="#000000" fill-rule="nonzero" fill-opacity="1" /><path clip-path="url(#clip350)" d="M1983.17 28.9478 L1983.17 35.9153 Q1980.01 34.1734 1976.81 33.3227 Q1973.65 32.4315 1970.41 32.4315 Q1963.16 32.4315 1959.15 37.0496 Q1955.14 41.6271 1955.14 49.9314 Q1955.14 58.2358 1959.15 62.8538 Q1963.16 67.4314 1970.41 67.4314 Q1973.65 67.4314 1976.81 66.5807 Q1980.01 65.6895 1983.17 63.9476 L1983.17 70.8341 Q1980.05 72.2924 1976.69 73.0216 Q1973.36 73.7508 1969.6 73.7508 Q1959.35 73.7508 1953.31 67.3098 Q1947.28 60.8689 1947.28 49.9314 Q1947.28 38.832 1953.35 32.472 Q1959.47 26.1121 1970.08 26.1121 Q1973.53 26.1121 1976.81 26.8413 Q1980.09 27.5299 1983.17 28.9478 Z" fill="#000000" fill-rule="nonzero" fill-opacity="1" /><path clip-path="url(#clip350)" d="M2034.94 48.0275 L2034.94 51.6733 L2000.67 51.6733 Q2001.15 59.3701 2005.29 63.421 Q2009.46 67.4314 2016.87 67.4314 Q2021.17 67.4314 2025.18 66.3781 Q2029.23 65.3249 2033.2 63.2184 L2033.2 70.267 Q2029.19 71.9684 2024.97 72.8596 Q2020.76 73.7508 2016.43 73.7508 Q2005.57 73.7508 1999.21 67.4314 Q1992.89 61.1119 1992.89 50.3365 Q1992.89 39.1965 1998.89 32.6746 Q2004.92 26.1121 2015.13 26.1121 Q2024.28 26.1121 2029.59 32.0264 Q2034.94 37.9003 2034.94 48.0275 M2027.48 45.84 Q2027.4 39.7232 2024.04 36.0774 Q2020.72 32.4315 2015.21 32.4315 Q2008.97 32.4315 2005.2 35.9558 Q2001.48 39.4801 2000.91 45.8805 L2027.48 45.84 Z" fill="#000000" fill-rule="nonzero" fill-opacity="1" /><path clip-path="url(#clip350)" d="M2077.03 34.0924 L2077.03 9.54393 L2084.48 9.54393 L2084.48 72.576 L2077.03 72.576 L2077.03 65.7705 Q2074.68 69.8214 2071.07 71.8063 Q2067.51 73.7508 2062.48 73.7508 Q2054.26 73.7508 2049.08 67.1883 Q2043.93 60.6258 2043.93 49.9314 Q2043.93 39.2371 2049.08 32.6746 Q2054.26 26.1121 2062.48 26.1121 Q2067.51 26.1121 2071.07 28.0971 Q2074.68 30.0415 2077.03 34.0924 M2051.63 49.9314 Q2051.63 58.1548 2054.99 62.8538 Q2058.39 67.5124 2064.31 67.5124 Q2070.22 67.5124 2073.62 62.8538 Q2077.03 58.1548 2077.03 49.9314 Q2077.03 41.7081 2073.62 37.0496 Q2070.22 32.3505 2064.31 32.3505 Q2058.39 32.3505 2054.99 37.0496 Q2051.63 41.7081 2051.63 49.9314 Z" fill="#000000" fill-rule="nonzero" fill-opacity="1" /><path clip-path="url(#clip350)" d="M2126.53 12.096 L2134.71 12.096 L2134.71 65.6895 L2164.16 65.6895 L2164.16 72.576 L2126.53 72.576 L2126.53 12.096 Z" fill="#000000" fill-rule="nonzero" fill-opacity="1" /><polyline clip-path="url(#clip352)" style="stroke:#009af9; stroke-linecap:round; stroke-linejoin:round; stroke-width:8; stroke-opacity:1; fill:none" stroke-dasharray="32, 20" points="363.877,512.466 378.73,496.743 393.583,480.778 408.437,464.781 423.29,448.887 438.144,433.217 452.997,417.856 467.851,402.881 482.704,388.346 497.558,374.294 512.411,360.752 527.265,347.74 542.118,335.267 556.972,323.338 571.825,311.954 586.679,301.11 601.532,290.8 616.385,281.016 631.239,271.746 646.092,262.981 660.946,254.709 675.799,246.916 690.653,239.591 705.506,232.722 720.36,226.294 735.213,220.296 750.067,214.716 764.92,209.54 779.774,204.756 794.627,200.353 809.481,196.318 824.334,192.638 839.187,189.303 854.041,186.3 868.894,183.618 883.748,181.245 898.601,179.171 913.455,177.384 928.308,175.872 943.162,174.626 958.015,173.635 972.869,172.888 987.722,172.375 1002.58,172.085 1017.43,172.01 1032.28,172.139 1047.14,172.463 1061.99,172.972 1076.84,173.658 1091.7,174.512 1106.55,175.526 1121.4,176.69 1136.26,177.998 1151.11,179.441 1165.96,181.011 1180.82,182.702 1195.67,184.506 1210.52,186.417 1225.38,188.427 1240.23,190.532 1255.08,192.723 1269.94,194.996 1284.79,197.345 1299.65,199.765 1314.5,202.25 1329.35,204.795 1344.21,207.396 1359.06,210.048 1373.91,212.747 1388.77,215.488 1403.62,218.267 1418.47,221.082 1433.33,223.927 1448.18,226.801 1463.03,229.698 1477.89,232.617 1492.74,235.555 1507.59,238.508 1522.45,241.474 1537.3,244.45 1552.15,247.435 1567.01,250.425 1581.86,253.419 1596.71,256.415 1611.57,259.41 1626.42,262.404 1641.27,265.393 1656.13,268.378 1670.98,271.356 1685.84,274.325 1700.69,277.286 1715.54,280.235 1730.4,283.173 1745.25,286.098 1760.1,289.009 1774.96,291.905 1789.81,294.785 1804.66,297.649 1819.52,300.496 1834.37,303.325 1849.22,306.135 1864.08,308.927 1878.93,311.698 1893.78,314.45 1908.64,317.181 1923.49,319.891 1938.34,322.58 1953.2,325.247 1968.05,327.892 1982.9,330.515 1997.76,333.115 2012.61,335.693 2027.46,338.248 2042.32,340.78 2057.17,343.289 2072.03,345.775 2086.88,348.238 2101.73,350.677 2116.59,353.093 2131.44,355.486 2146.29,357.855 2161.15,360.201 2176,362.524 2190.85,364.823 2205.71,367.099 2220.56,369.352 2235.41,371.582 2250.27,373.789 2265.12,375.973 2279.97,378.134 2294.83,380.273 "/>
<polyline clip-path="url(#clip352)" style="stroke:#e26f46; stroke-linecap:round; stroke-linejoin:round; stroke-width:8; stroke-opacity:1; fill:none" points="363.877,512.464 378.73,496.726 393.583,480.773 408.437,464.782 423.29,448.892 438.144,433.215 452.997,417.854 467.851,402.878 482.704,388.343 497.558,374.289 512.411,360.743 527.265,347.725 542.118,335.244 556.972,323.305 571.825,311.905 586.679,301.04 601.532,290.703 616.385,280.883 631.239,271.568 646.092,262.746 660.946,254.404 675.799,246.525 690.653,239.098 705.506,232.106 720.36,225.535 735.213,219.37 750.067,213.598 764.92,208.203 779.774,203.171 794.627,198.489 809.481,194.142 824.334,190.119 839.187,186.405 854.041,182.987 868.894,179.854 883.748,176.994 898.601,174.395 913.455,172.045 928.308,169.933 943.162,168.049 958.015,166.383 972.869,164.924 987.722,163.663 1002.58,162.591 1017.43,161.699 1032.28,160.977 1047.14,160.419 1061.99,160.016 1076.84,159.76 1091.7,159.645 1106.55,159.663 1121.4,159.807 1136.26,160.071 1151.11,160.449 1165.96,160.935 1180.82,161.524 1195.67,162.21 1210.52,162.987 1225.38,163.852 1240.23,164.799 1255.08,165.825 1269.94,166.924 1284.79,168.092 1299.65,169.327 1314.5,170.624 1329.35,171.979 1344.21,173.39 1359.06,174.853 1373.91,176.365 1388.77,177.923 1403.62,179.525 1418.47,181.167 1433.33,182.848 1448.18,184.565 1463.03,186.315 1477.89,188.097 1492.74,189.909 1507.59,191.748 1522.45,193.612 1537.3,195.501 1552.15,197.411 1567.01,199.342 1581.86,201.292 1596.71,203.259 1611.57,205.243 1626.42,207.241 1641.27,209.253 1656.13,211.276 1670.98,213.311 1685.84,215.356 1700.69,217.41 1715.54,219.471 1730.4,221.54 1745.25,223.614 1760.1,225.693 1774.96,227.777 1789.81,229.864 1804.66,231.954 1819.52,234.046 1834.37,236.139 1849.22,238.232 1864.08,240.326 1878.93,242.419 1893.78,244.511 1908.64,246.601 1923.49,248.688 1938.34,250.773 1953.2,252.855 1968.05,254.933 1982.9,257.007 1997.76,259.076 2012.61,261.14 2027.46,263.199 2042.32,265.252 2057.17,267.3 2072.03,269.341 2086.88,271.375 2101.73,273.403 2116.59,275.423 2131.44,277.436 2146.29,279.441 2161.15,281.438 2176,283.427 2190.85,285.408 2205.71,287.38 2220.56,289.343 2235.41,291.298 2250.27,293.243 2265.12,295.179 2279.97,297.106 2294.83,299.024 "/>
<polyline clip-path="url(#clip352)" style="stroke:#3da44d; stroke-linecap:round; stroke-linejoin:round; stroke-width:8; stroke-opacity:1; fill:none" stroke-dasharray="32, 20" points="363.877,300.649 378.73,296.03 393.583,294.73 408.437,295.992 423.29,299.057 438.144,303.607 452.997,309.47 467.851,316.221 482.704,323.617 497.558,331.406 512.411,339.381 527.265,347.37 542.118,355.227 556.972,362.84 571.825,370.118 586.679,376.993 601.532,383.416 616.385,389.353 631.239,394.784 646.092,399.703 660.946,404.109 675.799,408.011 690.653,411.423 705.506,414.366 720.36,416.86 735.213,418.93 750.067,420.604 764.92,421.909 779.774,422.872 794.627,423.522 809.481,423.886 824.334,423.991 839.187,423.862 854.041,423.525 868.894,423.004 883.748,422.321 898.601,421.498 913.455,420.554 928.308,419.509 943.162,418.379 958.015,417.18 972.869,415.929 987.722,414.637 1002.58,413.319 1017.43,411.985 1032.28,410.645 1047.14,409.309 1061.99,407.986 1076.84,406.683 1091.7,405.407 1106.55,404.164 1121.4,402.958 1136.26,401.796 1151.11,400.68 1165.96,399.614 1180.82,398.602 1195.67,397.645 1210.52,396.746 1225.38,395.905 1240.23,395.125 1255.08,394.406 1269.94,393.749 1284.79,393.154 1299.65,392.621 1314.5,392.151 1329.35,391.741 1344.21,391.393 1359.06,391.105 1373.91,390.877 1388.77,390.707 1403.62,390.594 1418.47,390.538 1433.33,390.537 1448.18,390.59 1463.03,390.695 1477.89,390.851 1492.74,391.057 1507.59,391.31 1522.45,391.61 1537.3,391.956 1552.15,392.345 1567.01,392.775 1581.86,393.247 1596.71,393.757 1611.57,394.305 1626.42,394.889 1641.27,395.507 1656.13,396.159 1670.98,396.842 1685.84,397.556 1700.69,398.298 1715.54,399.068 1730.4,399.865 1745.25,400.686 1760.1,401.531 1774.96,402.399 1789.81,403.288 1804.66,404.197 1819.52,405.125 1834.37,406.071 1849.22,407.034 1864.08,408.013 1878.93,409.007 1893.78,410.015 1908.64,411.036 1923.49,412.069 1938.34,413.113 1953.2,414.167 1968.05,415.231 1982.9,416.304 1997.76,417.385 2012.61,418.474 2027.46,419.569 2042.32,420.669 2057.17,421.776 2072.03,422.887 2086.88,424.002 2101.73,425.12 2116.59,426.242 2131.44,427.366 2146.29,428.492 2161.15,429.619 2176,430.748 2190.85,431.877 2205.71,433.006 2220.56,434.135 2235.41,435.264 2250.27,436.391 2265.12,437.517 2279.97,438.642 2294.83,439.764 "/>
<polyline clip-path="url(#clip352)" style="stroke:#c271d2; stroke-linecap:round; stroke-linejoin:round; stroke-width:8; stroke-opacity:1; fill:none" points="363.877,300.731 378.73,296.022 393.583,294.72 408.437,295.991 423.29,298.98 438.144,303.614 452.997,309.495 467.851,316.265 482.704,323.688 497.558,331.496 512.411,339.504 527.265,347.523 542.118,355.42 556.972,363.073 571.825,370.395 586.679,377.315 601.532,383.783 616.385,389.763 631.239,395.234 646.092,400.185 660.946,404.616 675.799,408.532 690.653,411.946 705.506,414.873 720.36,417.335 735.213,419.352 750.067,420.949 764.92,422.152 779.774,422.986 794.627,423.477 809.481,423.651 824.334,423.534 839.187,423.149 854.041,422.522 868.894,421.674 883.748,420.628 898.601,419.404 913.455,418.023 928.308,416.503 943.162,414.861 958.015,413.113 972.869,411.276 987.722,409.364 1002.58,407.389 1017.43,405.365 1032.28,403.302 1047.14,401.211 1061.99,399.102 1076.84,396.983 1091.7,394.864 1106.55,392.751 1121.4,390.651 1136.26,388.57 1151.11,386.514 1165.96,384.488 1180.82,382.496 1195.67,380.543 1210.52,378.631 1225.38,376.765 1240.23,374.946 1255.08,373.178 1269.94,371.463 1284.79,369.801 1299.65,368.195 1314.5,366.647 1329.35,365.156 1344.21,363.724 1359.06,362.351 1373.91,361.038 1388.77,359.785 1403.62,358.592 1418.47,357.46 1433.33,356.386 1448.18,355.373 1463.03,354.418 1477.89,353.522 1492.74,352.684 1507.59,351.903 1522.45,351.179 1537.3,350.51 1552.15,349.897 1567.01,349.337 1581.86,348.83 1596.71,348.376 1611.57,347.972 1626.42,347.618 1641.27,347.314 1656.13,347.057 1670.98,346.847 1685.84,346.683 1700.69,346.563 1715.54,346.487 1730.4,346.453 1745.25,346.46 1760.1,346.508 1774.96,346.595 1789.81,346.72 1804.66,346.881 1819.52,347.079 1834.37,347.311 1849.22,347.577 1864.08,347.876 1878.93,348.207 1893.78,348.568 1908.64,348.959 1923.49,349.379 1938.34,349.826 1953.2,350.301 1968.05,350.801 1982.9,351.326 1997.76,351.876 2012.61,352.448 2027.46,353.043 2042.32,353.66 2057.17,354.298 2072.03,354.955 2086.88,355.632 2101.73,356.327 2116.59,357.04 2131.44,357.77 2146.29,358.517 2161.15,359.278 2176,360.055 2190.85,360.847 2205.71,361.651 2220.56,362.469 2235.41,363.3 2250.27,364.142 2265.12,364.996 2279.97,365.86 2294.83,366.735 "/>
<polyline clip-path="url(#clip352)" style="stroke:#ac8d18; stroke-linecap:round; stroke-linejoin:round; stroke-width:8; stroke-opacity:1; fill:none" stroke-dasharray="32, 20" points="363.877,1314.22 378.73,1342.96 393.583,1356.32 408.437,1365.41 423.29,1362.99 438.144,1357.89 452.997,1350.05 467.851,1339.55 482.704,1326.65 497.558,1311.92 512.411,1295.84 527.265,1278.75 542.118,1260.85 556.972,1242.4 571.825,1223.54 586.679,1204.45 601.532,1185.22 616.385,1165.96 631.239,1146.75 646.092,1127.65 660.946,1108.73 675.799,1090.02 690.653,1071.56 705.506,1053.38 720.36,1035.5 735.213,1017.95 750.067,1000.74 764.92,983.874 779.774,967.373 794.627,951.239 809.481,935.477 824.334,920.091 839.187,905.082 854.041,890.45 868.894,876.195 883.748,862.315 898.601,848.809 913.455,835.671 928.308,822.9 943.162,810.491 958.015,798.44 972.869,786.74 987.722,775.387 1002.58,764.376 1017.43,753.701 1032.28,743.354 1047.14,733.331 1061.99,723.625 1076.84,714.229 1091.7,705.138 1106.55,696.343 1121.4,687.84 1136.26,679.62 1151.11,671.678 1165.96,664.006 1180.82,656.599 1195.67,649.449 1210.52,642.551 1225.38,635.896 1240.23,629.48 1255.08,623.296 1269.94,617.337 1284.79,611.597 1299.65,606.07 1314.5,600.751 1329.35,595.633 1344.21,590.71 1359.06,585.977 1373.91,581.428 1388.77,577.057 1403.62,572.86 1418.47,568.831 1433.33,564.965 1448.18,561.256 1463.03,557.701 1477.89,554.294 1492.74,551.03 1507.59,547.905 1522.45,544.914 1537.3,542.053 1552.15,539.319 1567.01,536.706 1581.86,534.21 1596.71,531.829 1611.57,529.557 1626.42,527.392 1641.27,525.33 1656.13,523.367 1670.98,521.499 1685.84,519.725 1700.69,518.039 1715.54,516.441 1730.4,514.925 1745.25,513.49 1760.1,512.132 1774.96,510.849 1789.81,509.638 1804.66,508.497 1819.52,507.423 1834.37,506.414 1849.22,505.467 1864.08,504.581 1878.93,503.752 1893.78,502.979 1908.64,502.259 1923.49,501.592 1938.34,500.974 1953.2,500.405 1968.05,499.881 1982.9,499.402 1997.76,498.966 2012.61,498.571 2027.46,498.215 2042.32,497.898 2057.17,497.617 2072.03,497.371 2086.88,497.159 2101.73,496.98 2116.59,496.831 2131.44,496.713 2146.29,496.624 2161.15,496.562 2176,496.527 2190.85,496.517 2205.71,496.531 2220.56,496.569 2235.41,496.63 2250.27,496.712 2265.12,496.814 2279.97,496.937 2294.83,497.078 "/>
<polyline clip-path="url(#clip352)" style="stroke:#00a9ad; stroke-linecap:round; stroke-linejoin:round; stroke-width:8; stroke-opacity:1; fill:none" points="363.877,1327.35 378.73,1343.5 393.583,1361.97 408.437,1363.87 423.29,1363.35 438.144,1358.74 452.997,1350.95 467.851,1340.46 482.704,1327.74 497.558,1313.34 512.411,1297.6 527.265,1280.85 542.118,1263.33 556.972,1245.28 571.825,1226.85 586.679,1208.2 601.532,1189.44 616.385,1170.65 631.239,1151.92 646.092,1133.31 660.946,1114.86 675.799,1096.62 690.653,1078.62 705.506,1060.88 720.36,1043.42 735.213,1026.26 750.067,1009.4 764.92,992.867 779.774,976.653 794.627,960.766 809.481,945.207 824.334,929.978 839.187,915.079 854.041,900.508 868.894,886.263 883.748,872.342 898.601,858.742 913.455,845.46 928.308,832.492 943.162,819.834 958.015,807.482 972.869,795.432 987.722,783.679 1002.58,772.218 1017.43,761.046 1032.28,750.157 1047.14,739.547 1061.99,729.211 1076.84,719.144 1091.7,709.342 1106.55,699.8 1121.4,690.513 1136.26,681.476 1151.11,672.685 1165.96,664.136 1180.82,655.822 1195.67,647.741 1210.52,639.886 1225.38,632.255 1240.23,624.841 1255.08,617.642 1269.94,610.651 1284.79,603.866 1299.65,597.281 1314.5,590.892 1329.35,584.695 1344.21,578.686 1359.06,572.86 1373.91,567.214 1388.77,561.744 1403.62,556.445 1418.47,551.313 1433.33,546.345 1448.18,541.537 1463.03,536.884 1477.89,532.384 1492.74,528.033 1507.59,523.827 1522.45,519.762 1537.3,515.835 1552.15,512.043 1567.01,508.382 1581.86,504.848 1596.71,501.44 1611.57,498.153 1626.42,494.984 1641.27,491.931 1656.13,488.99 1670.98,486.158 1685.84,483.433 1700.69,480.811 1715.54,478.291 1730.4,475.868 1745.25,473.541 1760.1,471.307 1774.96,469.163 1789.81,467.107 1804.66,465.137 1819.52,463.25 1834.37,461.444 1849.22,459.716 1864.08,458.065 1878.93,456.487 1893.78,454.982 1908.64,453.547 1923.49,452.18 1938.34,450.879 1953.2,449.642 1968.05,448.467 1982.9,447.353 1997.76,446.297 2012.61,445.298 2027.46,444.355 2042.32,443.465 2057.17,442.628 2072.03,441.84 2086.88,441.102 2101.73,440.411 2116.59,439.767 2131.44,439.167 2146.29,438.61 2161.15,438.095 2176,437.62 2190.85,437.186 2205.71,436.789 2220.56,436.429 2235.41,436.105 2250.27,435.816 2265.12,435.56 2279.97,435.337 2294.83,435.145 "/>
<path clip-path="url(#clip350)" d="M1553.75 1358.98 L2284.53 1358.98 L2284.53 1002.58 L1553.75 1002.58  Z" fill="#ffffff" fill-rule="evenodd" fill-opacity="1"/>
<polyline clip-path="url(#clip350)" style="stroke:#000000; stroke-linecap:round; stroke-linejoin:round; stroke-width:4; stroke-opacity:1; fill:none" points="1553.75,1358.98 2284.53,1358.98 2284.53,1002.58 1553.75,1002.58 1553.75,1358.98 "/>
<polyline clip-path="url(#clip350)" style="stroke:#e26f46; stroke-linecap:round; stroke-linejoin:round; stroke-width:11; stroke-opacity:1; fill:none" points="1576.5,1073.86 1712.95,1073.86 "/>
<path clip-path="url(#clip350)" d="M1762.29 1068.78 Q1762.29 1069.45 1761.72 1070 Q1761.17 1070.55 1760.49 1070.55 Q1760.1 1070.55 1759.17 1069.9 Q1756.5 1068.04 1753.12 1068.04 Q1750.09 1068.04 1747.29 1068.78 Q1744.49 1069.52 1742.58 1071.03 Q1740.72 1072.51 1740.72 1074.44 Q1740.72 1076.86 1743.36 1078.28 Q1746.1 1077.02 1749.48 1077.02 Q1750.57 1077.02 1751.31 1077.09 Q1752.09 1077.15 1752.83 1077.31 Q1753.57 1077.47 1753.92 1077.86 Q1754.31 1078.21 1754.31 1078.79 Q1754.31 1080.85 1748.96 1080.85 Q1745.48 1080.85 1743.29 1079.92 Q1740.49 1081.3 1738.95 1083.53 Q1737.4 1085.75 1737.4 1087.65 Q1737.4 1089.29 1738.3 1090.48 Q1739.24 1091.67 1740.75 1092.25 Q1742.3 1092.83 1743.81 1093.09 Q1745.35 1093.32 1747.06 1093.32 Q1749.86 1093.32 1751.83 1092.96 Q1753.82 1092.58 1754.92 1091.87 Q1756.05 1091.16 1756.5 1090.68 Q1756.98 1090.16 1757.46 1089.36 Q1757.75 1088.91 1758.14 1088.91 Q1758.43 1088.91 1758.62 1089.1 Q1758.85 1089.26 1758.85 1089.55 Q1758.85 1089.9 1758.4 1090.64 Q1757.98 1091.38 1756.95 1092.38 Q1755.95 1093.35 1754.57 1094.25 Q1753.21 1095.12 1751.06 1095.73 Q1748.9 1096.34 1746.45 1096.34 Q1741.46 1096.34 1738.56 1093.9 Q1735.69 1091.45 1735.69 1088.04 Q1735.69 1085.65 1737.27 1083.2 Q1738.88 1080.72 1741.72 1079.15 Q1739.07 1077.18 1739.07 1074.44 Q1739.07 1072 1741.14 1069.81 Q1743.23 1067.62 1746.61 1066.33 Q1750.02 1065.01 1753.76 1065.01 Q1755.85 1065.01 1757.91 1065.72 Q1759.98 1066.39 1761.14 1067.26 Q1762.29 1068.13 1762.29 1068.78 M1752.6 1078.86 Q1751.18 1078.47 1749.48 1078.47 Q1747.16 1078.47 1745.45 1079.05 Q1746.84 1079.4 1748.96 1079.4 Q1750.73 1079.4 1751.25 1079.31 Q1751.8 1079.21 1752.6 1078.86 Z" fill="#000000" fill-rule="nonzero" fill-opacity="1" /><path clip-path="url(#clip350)" d="M1784.43 1084.88 Q1784.49 1084.07 1785.75 1084.07 L1826.17 1084.07 Q1828.07 1084.07 1828.1 1084.81 Q1828.1 1085.62 1826.29 1085.59 L1786.2 1085.59 Q1784.43 1085.62 1784.43 1084.88 M1784.43 1072 Q1784.43 1071.19 1785.81 1071.22 L1826.1 1071.22 Q1828.07 1071.22 1828.1 1072 Q1828.1 1072.74 1826.42 1072.74 L1785.75 1072.74 Q1784.43 1072.74 1784.43 1072 Z" fill="#000000" fill-rule="nonzero" fill-opacity="1" /><path clip-path="url(#clip350)" d="M1853.54 1073.8 Q1853.54 1064.11 1855.99 1058.82 Q1859.41 1050.97 1867.46 1050.97 Q1869.16 1050.97 1870.93 1051.45 Q1872.74 1051.9 1874.99 1053.67 Q1877.28 1055.44 1878.66 1058.34 Q1881.3 1063.95 1881.3 1073.8 Q1881.3 1083.43 1878.86 1088.68 Q1875.28 1096.34 1867.39 1096.34 Q1864.43 1096.34 1861.4 1094.83 Q1858.41 1093.32 1856.51 1089.68 Q1853.54 1084.24 1853.54 1073.8 M1859.02 1073 Q1859.02 1082.95 1859.73 1086.91 Q1860.53 1091.19 1862.72 1093.06 Q1864.94 1094.9 1867.39 1094.9 Q1870.03 1094.9 1872.22 1092.93 Q1874.45 1090.93 1875.12 1086.65 Q1875.86 1082.43 1875.83 1073 Q1875.83 1063.82 1875.19 1060.15 Q1874.32 1055.86 1872 1054.15 Q1869.71 1052.42 1867.39 1052.42 Q1866.52 1052.42 1865.59 1052.67 Q1864.69 1052.93 1863.37 1053.67 Q1862.05 1054.41 1861.02 1056.25 Q1860.02 1058.08 1859.53 1060.85 Q1859.02 1064.43 1859.02 1073 Z" fill="#000000" fill-rule="nonzero" fill-opacity="1" /><path clip-path="url(#clip350)" d="M1887.21 1093.83 Q1886.21 1092.77 1886.21 1091.38 Q1886.21 1090 1887.21 1089 Q1888.2 1087.97 1889.72 1087.97 Q1891.17 1087.97 1892.13 1088.94 Q1893.13 1089.87 1893.13 1091.42 Q1893.13 1092.93 1892.07 1093.93 Q1891.04 1094.9 1889.72 1094.9 Q1888.2 1094.9 1887.21 1093.83 Z" fill="#000000" fill-rule="nonzero" fill-opacity="1" /><path clip-path="url(#clip350)" d="M1904.36 1073.8 Q1904.36 1064.11 1906.81 1058.82 Q1910.22 1050.97 1918.27 1050.97 Q1919.98 1050.97 1921.75 1051.45 Q1923.55 1051.9 1925.81 1053.67 Q1928.09 1055.44 1929.48 1058.34 Q1932.12 1063.95 1932.12 1073.8 Q1932.12 1083.43 1929.67 1088.68 Q1926.1 1096.34 1918.21 1096.34 Q1915.24 1096.34 1912.22 1094.83 Q1909.22 1093.32 1907.32 1089.68 Q1904.36 1084.24 1904.36 1073.8 M1909.83 1073 Q1909.83 1082.95 1910.54 1086.91 Q1911.35 1091.19 1913.54 1093.06 Q1915.76 1094.9 1918.21 1094.9 Q1920.85 1094.9 1923.04 1092.93 Q1925.26 1090.93 1925.94 1086.65 Q1926.68 1082.43 1926.64 1073 Q1926.64 1063.82 1926 1060.15 Q1925.13 1055.86 1922.81 1054.15 Q1920.53 1052.42 1918.21 1052.42 Q1917.34 1052.42 1916.4 1052.67 Q1915.5 1052.93 1914.18 1053.67 Q1912.86 1054.41 1911.83 1056.25 Q1910.83 1058.08 1910.35 1060.85 Q1909.83 1064.43 1909.83 1073 Z" fill="#000000" fill-rule="nonzero" fill-opacity="1" /><polyline clip-path="url(#clip350)" style="stroke:#c271d2; stroke-linecap:round; stroke-linejoin:round; stroke-width:11; stroke-opacity:1; fill:none" points="1576.5,1145.14 1712.95,1145.14 "/>
<path clip-path="url(#clip350)" d="M1762.29 1140.06 Q1762.29 1140.73 1761.72 1141.28 Q1761.17 1141.83 1760.49 1141.83 Q1760.1 1141.83 1759.17 1141.18 Q1756.5 1139.32 1753.12 1139.32 Q1750.09 1139.32 1747.29 1140.06 Q1744.49 1140.8 1742.58 1142.31 Q1740.72 1143.79 1740.72 1145.72 Q1740.72 1148.14 1743.36 1149.56 Q1746.1 1148.3 1749.48 1148.3 Q1750.57 1148.3 1751.31 1148.37 Q1752.09 1148.43 1752.83 1148.59 Q1753.57 1148.75 1753.92 1149.14 Q1754.31 1149.49 1754.31 1150.07 Q1754.31 1152.13 1748.96 1152.13 Q1745.48 1152.13 1743.29 1151.2 Q1740.49 1152.58 1738.95 1154.81 Q1737.4 1157.03 1737.4 1158.93 Q1737.4 1160.57 1738.3 1161.76 Q1739.24 1162.95 1740.75 1163.53 Q1742.3 1164.11 1743.81 1164.37 Q1745.35 1164.6 1747.06 1164.6 Q1749.86 1164.6 1751.83 1164.24 Q1753.82 1163.86 1754.92 1163.15 Q1756.05 1162.44 1756.5 1161.96 Q1756.98 1161.44 1757.46 1160.64 Q1757.75 1160.19 1758.14 1160.19 Q1758.43 1160.19 1758.62 1160.38 Q1758.85 1160.54 1758.85 1160.83 Q1758.85 1161.18 1758.4 1161.92 Q1757.98 1162.66 1756.95 1163.66 Q1755.95 1164.63 1754.57 1165.53 Q1753.21 1166.4 1751.06 1167.01 Q1748.9 1167.62 1746.45 1167.62 Q1741.46 1167.62 1738.56 1165.18 Q1735.69 1162.73 1735.69 1159.32 Q1735.69 1156.93 1737.27 1154.48 Q1738.88 1152 1741.72 1150.43 Q1739.07 1148.46 1739.07 1145.72 Q1739.07 1143.28 1741.14 1141.09 Q1743.23 1138.9 1746.61 1137.61 Q1750.02 1136.29 1753.76 1136.29 Q1755.85 1136.29 1757.91 1137 Q1759.98 1137.67 1761.14 1138.54 Q1762.29 1139.41 1762.29 1140.06 M1752.6 1150.14 Q1751.18 1149.75 1749.48 1149.75 Q1747.16 1149.75 1745.45 1150.33 Q1746.84 1150.68 1748.96 1150.68 Q1750.73 1150.68 1751.25 1150.59 Q1751.8 1150.49 1752.6 1150.14 Z" fill="#000000" fill-rule="nonzero" fill-opacity="1" /><path clip-path="url(#clip350)" d="M1784.43 1156.16 Q1784.49 1155.35 1785.75 1155.35 L1826.17 1155.35 Q1828.07 1155.35 1828.1 1156.09 Q1828.1 1156.9 1826.29 1156.87 L1786.2 1156.87 Q1784.43 1156.9 1784.43 1156.16 M1784.43 1143.28 Q1784.43 1142.47 1785.81 1142.5 L1826.1 1142.5 Q1828.07 1142.5 1828.1 1143.28 Q1828.1 1144.02 1826.42 1144.02 L1785.75 1144.02 Q1784.43 1144.02 1784.43 1143.28 Z" fill="#000000" fill-rule="nonzero" fill-opacity="1" /><path clip-path="url(#clip350)" d="M1853.54 1145.08 Q1853.54 1135.39 1855.99 1130.1 Q1859.41 1122.25 1867.46 1122.25 Q1869.16 1122.25 1870.93 1122.73 Q1872.74 1123.18 1874.99 1124.95 Q1877.28 1126.72 1878.66 1129.62 Q1881.3 1135.23 1881.3 1145.08 Q1881.3 1154.71 1878.86 1159.96 Q1875.28 1167.62 1867.39 1167.62 Q1864.43 1167.62 1861.4 1166.11 Q1858.41 1164.6 1856.51 1160.96 Q1853.54 1155.52 1853.54 1145.08 M1859.02 1144.28 Q1859.02 1154.23 1859.73 1158.19 Q1860.53 1162.47 1862.72 1164.34 Q1864.94 1166.18 1867.39 1166.18 Q1870.03 1166.18 1872.22 1164.21 Q1874.45 1162.21 1875.12 1157.93 Q1875.86 1153.71 1875.83 1144.28 Q1875.83 1135.1 1875.19 1131.43 Q1874.32 1127.14 1872 1125.43 Q1869.71 1123.7 1867.39 1123.7 Q1866.52 1123.7 1865.59 1123.95 Q1864.69 1124.21 1863.37 1124.95 Q1862.05 1125.69 1861.02 1127.53 Q1860.02 1129.36 1859.53 1132.13 Q1859.02 1135.71 1859.02 1144.28 Z" fill="#000000" fill-rule="nonzero" fill-opacity="1" /><path clip-path="url(#clip350)" d="M1887.21 1165.11 Q1886.21 1164.05 1886.21 1162.66 Q1886.21 1161.28 1887.21 1160.28 Q1888.2 1159.25 1889.72 1159.25 Q1891.17 1159.25 1892.13 1160.22 Q1893.13 1161.15 1893.13 1162.7 Q1893.13 1164.21 1892.07 1165.21 Q1891.04 1166.18 1889.72 1166.18 Q1888.2 1166.18 1887.21 1165.11 Z" fill="#000000" fill-rule="nonzero" fill-opacity="1" /><path clip-path="url(#clip350)" d="M1904.36 1155.55 Q1904.36 1153.58 1905.42 1152.84 Q1906.48 1152.07 1907.61 1152.07 Q1909.12 1152.07 1909.99 1153.04 Q1910.9 1153.97 1910.9 1155.29 Q1910.9 1156.61 1909.99 1157.58 Q1909.12 1158.51 1907.61 1158.51 Q1906.87 1158.51 1906.48 1158.38 Q1907.35 1161.41 1909.99 1163.6 Q1912.67 1165.79 1916.18 1165.79 Q1920.59 1165.79 1923.23 1161.51 Q1924.81 1158.74 1924.81 1152.46 Q1924.81 1146.92 1923.62 1144.15 Q1921.78 1139.93 1918.01 1139.93 Q1912.67 1139.93 1909.51 1144.53 Q1909.12 1145.11 1908.67 1145.14 Q1908.03 1145.14 1907.87 1144.79 Q1907.74 1144.4 1907.74 1143.41 L1907.74 1123.89 Q1907.74 1122.31 1908.38 1122.31 Q1908.64 1122.31 1909.19 1122.5 Q1913.34 1124.34 1917.95 1124.37 Q1922.68 1124.37 1926.93 1122.44 Q1927.26 1122.25 1927.45 1122.25 Q1928.09 1122.25 1928.13 1122.99 Q1928.13 1123.24 1927.58 1124.02 Q1927.06 1124.76 1925.94 1125.76 Q1924.81 1126.72 1923.36 1127.66 Q1921.91 1128.59 1919.78 1129.24 Q1917.69 1129.85 1915.37 1129.85 Q1912.6 1129.85 1909.77 1128.98 L1909.77 1141.83 Q1913.18 1138.48 1918.14 1138.48 Q1923.42 1138.48 1927.06 1142.73 Q1930.7 1146.98 1930.7 1152.91 Q1930.7 1159.12 1926.39 1163.37 Q1922.1 1167.62 1916.31 1167.62 Q1911.02 1167.62 1907.68 1163.86 Q1904.36 1160.09 1904.36 1155.55 Z" fill="#000000" fill-rule="nonzero" fill-opacity="1" /><polyline clip-path="url(#clip350)" style="stroke:#00a9ad; stroke-linecap:round; stroke-linejoin:round; stroke-width:11; stroke-opacity:1; fill:none" points="1576.5,1216.42 1712.95,1216.42 "/>
<path clip-path="url(#clip350)" d="M1762.29 1211.34 Q1762.29 1212.01 1761.72 1212.56 Q1761.17 1213.11 1760.49 1213.11 Q1760.1 1213.11 1759.17 1212.46 Q1756.5 1210.6 1753.12 1210.6 Q1750.09 1210.6 1747.29 1211.34 Q1744.49 1212.08 1742.58 1213.59 Q1740.72 1215.07 1740.72 1217 Q1740.72 1219.42 1743.36 1220.84 Q1746.1 1219.58 1749.48 1219.58 Q1750.57 1219.58 1751.31 1219.65 Q1752.09 1219.71 1752.83 1219.87 Q1753.57 1220.03 1753.92 1220.42 Q1754.31 1220.77 1754.31 1221.35 Q1754.31 1223.41 1748.96 1223.41 Q1745.48 1223.41 1743.29 1222.48 Q1740.49 1223.86 1738.95 1226.09 Q1737.4 1228.31 1737.4 1230.21 Q1737.4 1231.85 1738.3 1233.04 Q1739.24 1234.23 1740.75 1234.81 Q1742.3 1235.39 1743.81 1235.65 Q1745.35 1235.88 1747.06 1235.88 Q1749.86 1235.88 1751.83 1235.52 Q1753.82 1235.14 1754.92 1234.43 Q1756.05 1233.72 1756.5 1233.24 Q1756.98 1232.72 1757.46 1231.92 Q1757.75 1231.47 1758.14 1231.47 Q1758.43 1231.47 1758.62 1231.66 Q1758.85 1231.82 1758.85 1232.11 Q1758.85 1232.46 1758.4 1233.2 Q1757.98 1233.94 1756.95 1234.94 Q1755.95 1235.91 1754.57 1236.81 Q1753.21 1237.68 1751.06 1238.29 Q1748.9 1238.9 1746.45 1238.9 Q1741.46 1238.9 1738.56 1236.46 Q1735.69 1234.01 1735.69 1230.6 Q1735.69 1228.21 1737.27 1225.76 Q1738.88 1223.28 1741.72 1221.71 Q1739.07 1219.74 1739.07 1217 Q1739.07 1214.56 1741.14 1212.37 Q1743.23 1210.18 1746.61 1208.89 Q1750.02 1207.57 1753.76 1207.57 Q1755.85 1207.57 1757.91 1208.28 Q1759.98 1208.95 1761.14 1209.82 Q1762.29 1210.69 1762.29 1211.34 M1752.6 1221.42 Q1751.18 1221.03 1749.48 1221.03 Q1747.16 1221.03 1745.45 1221.61 Q1746.84 1221.96 1748.96 1221.96 Q1750.73 1221.96 1751.25 1221.87 Q1751.8 1221.77 1752.6 1221.42 Z" fill="#000000" fill-rule="nonzero" fill-opacity="1" /><path clip-path="url(#clip350)" d="M1784.43 1227.44 Q1784.49 1226.63 1785.75 1226.63 L1826.17 1226.63 Q1828.07 1226.63 1828.1 1227.37 Q1828.1 1228.18 1826.29 1228.15 L1786.2 1228.15 Q1784.43 1228.18 1784.43 1227.44 M1784.43 1214.56 Q1784.43 1213.75 1785.81 1213.78 L1826.1 1213.78 Q1828.07 1213.78 1828.1 1214.56 Q1828.1 1215.3 1826.42 1215.3 L1785.75 1215.3 Q1784.43 1215.3 1784.43 1214.56 Z" fill="#000000" fill-rule="nonzero" fill-opacity="1" /><path clip-path="url(#clip350)" d="M1853.54 1216.36 Q1853.54 1206.67 1855.99 1201.38 Q1859.41 1193.53 1867.46 1193.53 Q1869.16 1193.53 1870.93 1194.01 Q1872.74 1194.46 1874.99 1196.23 Q1877.28 1198 1878.66 1200.9 Q1881.3 1206.51 1881.3 1216.36 Q1881.3 1225.99 1878.86 1231.24 Q1875.28 1238.9 1867.39 1238.9 Q1864.43 1238.9 1861.4 1237.39 Q1858.41 1235.88 1856.51 1232.24 Q1853.54 1226.8 1853.54 1216.36 M1859.02 1215.56 Q1859.02 1225.51 1859.73 1229.47 Q1860.53 1233.75 1862.72 1235.62 Q1864.94 1237.46 1867.39 1237.46 Q1870.03 1237.46 1872.22 1235.49 Q1874.45 1233.49 1875.12 1229.21 Q1875.86 1224.99 1875.83 1215.56 Q1875.83 1206.38 1875.19 1202.71 Q1874.32 1198.42 1872 1196.71 Q1869.71 1194.98 1867.39 1194.98 Q1866.52 1194.98 1865.59 1195.23 Q1864.69 1195.49 1863.37 1196.23 Q1862.05 1196.97 1861.02 1198.81 Q1860.02 1200.64 1859.53 1203.41 Q1859.02 1206.99 1859.02 1215.56 Z" fill="#000000" fill-rule="nonzero" fill-opacity="1" /><path clip-path="url(#clip350)" d="M1887.21 1236.39 Q1886.21 1235.33 1886.21 1233.94 Q1886.21 1232.56 1887.21 1231.56 Q1888.2 1230.53 1889.72 1230.53 Q1891.17 1230.53 1892.13 1231.5 Q1893.13 1232.43 1893.13 1233.98 Q1893.13 1235.49 1892.07 1236.49 Q1891.04 1237.46 1889.72 1237.46 Q1888.2 1237.46 1887.21 1236.39 Z" fill="#000000" fill-rule="nonzero" fill-opacity="1" /><path clip-path="url(#clip350)" d="M1904.36 1227.5 Q1904.36 1220.13 1913.86 1215.36 Q1909.77 1212.59 1909.03 1211.79 Q1906.13 1208.57 1906.13 1204.54 Q1906.13 1199.94 1909.61 1196.75 Q1913.12 1193.53 1918.08 1193.53 Q1922.81 1193.53 1926.39 1196.26 Q1929.96 1199 1929.96 1203.35 Q1929.96 1209.47 1921.97 1213.59 Q1927.26 1216.88 1928.51 1218.26 Q1931.73 1221.84 1931.73 1226.38 Q1931.73 1231.66 1927.67 1235.3 Q1923.62 1238.9 1918.01 1238.9 Q1912.54 1238.9 1908.45 1235.72 Q1904.36 1232.53 1904.36 1227.5 M1907.64 1227.5 Q1907.64 1231.59 1910.7 1234.33 Q1913.79 1237.07 1918.08 1237.07 Q1922.23 1237.07 1925.32 1234.69 Q1928.45 1232.3 1928.45 1228.76 Q1928.45 1227.37 1927.96 1226.18 Q1927.51 1224.99 1926.58 1224.06 Q1925.68 1223.09 1925.1 1222.67 Q1924.55 1222.22 1923.49 1221.48 L1915.37 1216.36 Q1907.64 1220.64 1907.64 1227.5 M1909.03 1201.96 Q1909.03 1205.12 1912.34 1207.31 L1920.53 1212.59 Q1927.06 1208.76 1927.06 1203.35 Q1927.06 1199.84 1924.39 1197.52 Q1921.72 1195.17 1918.01 1195.17 Q1914.37 1195.17 1911.7 1197.1 Q1909.03 1199 1909.03 1201.96 Z" fill="#000000" fill-rule="nonzero" fill-opacity="1" /><polyline clip-path="url(#clip350)" style="stroke:#000000; stroke-linecap:round; stroke-linejoin:round; stroke-width:11; stroke-opacity:1; fill:none" stroke-dasharray="44, 28" points="1576.5,1287.7 1712.95,1287.7 "/>
<path clip-path="url(#clip350)" d="M1756.57 1281.28 Q1755.59 1280.71 1754.41 1280.46 Q1753.26 1280.17 1751.86 1280.17 Q1746.9 1280.17 1744.22 1283.42 Q1741.58 1286.63 1741.58 1292.68 L1741.58 1311.46 L1735.69 1311.46 L1735.69 1275.81 L1741.58 1275.81 L1741.58 1281.35 Q1743.43 1278.1 1746.39 1276.54 Q1749.35 1274.95 1753.58 1274.95 Q1754.19 1274.95 1754.92 1275.04 Q1755.65 1275.11 1756.54 1275.27 L1756.57 1281.28 Z" fill="#000000" fill-rule="nonzero" fill-opacity="1" /><path clip-path="url(#clip350)" d="M1791.77 1292.17 L1791.77 1295.03 L1764.85 1295.03 Q1765.23 1301.08 1768.48 1304.26 Q1771.75 1307.41 1777.58 1307.41 Q1780.95 1307.41 1784.1 1306.59 Q1787.29 1305.76 1790.41 1304.1 L1790.41 1309.64 Q1787.26 1310.98 1783.94 1311.68 Q1780.63 1312.38 1777.23 1312.38 Q1768.7 1312.38 1763.7 1307.41 Q1758.74 1302.45 1758.74 1293.98 Q1758.74 1285.23 1763.45 1280.11 Q1768.19 1274.95 1776.21 1274.95 Q1783.4 1274.95 1787.57 1279.6 Q1791.77 1284.21 1791.77 1292.17 M1785.92 1290.45 Q1785.85 1285.64 1783.21 1282.78 Q1780.6 1279.91 1776.27 1279.91 Q1771.37 1279.91 1768.41 1282.68 Q1765.48 1285.45 1765.04 1290.48 L1785.92 1290.45 Z" fill="#000000" fill-rule="nonzero" fill-opacity="1" /><path clip-path="url(#clip350)" d="M1824.84 1281.22 L1824.84 1261.93 L1830.7 1261.93 L1830.7 1311.46 L1824.84 1311.46 L1824.84 1306.11 Q1823 1309.29 1820.17 1310.85 Q1817.36 1312.38 1813.42 1312.38 Q1806.96 1312.38 1802.88 1307.22 Q1798.84 1302.07 1798.84 1293.66 Q1798.84 1285.26 1802.88 1280.11 Q1806.96 1274.95 1813.42 1274.95 Q1817.36 1274.95 1820.17 1276.51 Q1823 1278.04 1824.84 1281.22 M1804.89 1293.66 Q1804.89 1300.13 1807.53 1303.82 Q1810.2 1307.48 1814.85 1307.48 Q1819.5 1307.48 1822.17 1303.82 Q1824.84 1300.13 1824.84 1293.66 Q1824.84 1287.2 1822.17 1283.54 Q1819.5 1279.85 1814.85 1279.85 Q1810.2 1279.85 1807.53 1283.54 Q1804.89 1287.2 1804.89 1293.66 Z" fill="#000000" fill-rule="nonzero" fill-opacity="1" /><path clip-path="url(#clip350)" d="M1842.16 1297.39 L1842.16 1275.81 L1848.02 1275.81 L1848.02 1297.17 Q1848.02 1302.23 1849.99 1304.77 Q1851.96 1307.29 1855.91 1307.29 Q1860.65 1307.29 1863.39 1304.26 Q1866.16 1301.24 1866.16 1296.02 L1866.16 1275.81 L1872.01 1275.81 L1872.01 1311.46 L1866.16 1311.46 L1866.16 1305.98 Q1864.03 1309.23 1861.19 1310.82 Q1858.39 1312.38 1854.67 1312.38 Q1848.52 1312.38 1845.34 1308.56 Q1842.16 1304.74 1842.16 1297.39 M1856.9 1274.95 L1856.9 1274.95 Z" fill="#000000" fill-rule="nonzero" fill-opacity="1" /><path clip-path="url(#clip350)" d="M1909.73 1277.18 L1909.73 1282.65 Q1907.25 1281.28 1904.73 1280.61 Q1902.25 1279.91 1899.71 1279.91 Q1894.01 1279.91 1890.86 1283.54 Q1887.71 1287.14 1887.71 1293.66 Q1887.71 1300.19 1890.86 1303.82 Q1894.01 1307.41 1899.71 1307.41 Q1902.25 1307.41 1904.73 1306.75 Q1907.25 1306.05 1909.73 1304.68 L1909.73 1310.09 Q1907.28 1311.23 1904.64 1311.81 Q1902.03 1312.38 1899.07 1312.38 Q1891.02 1312.38 1886.27 1307.32 Q1881.53 1302.26 1881.53 1293.66 Q1881.53 1284.94 1886.31 1279.95 Q1891.11 1274.95 1899.45 1274.95 Q1902.16 1274.95 1904.73 1275.52 Q1907.31 1276.06 1909.73 1277.18 Z" fill="#000000" fill-rule="nonzero" fill-opacity="1" /><path clip-path="url(#clip350)" d="M1950.41 1292.17 L1950.41 1295.03 L1923.48 1295.03 Q1923.86 1301.08 1927.11 1304.26 Q1930.39 1307.41 1936.21 1307.41 Q1939.59 1307.41 1942.74 1306.59 Q1945.92 1305.76 1949.04 1304.1 L1949.04 1309.64 Q1945.89 1310.98 1942.58 1311.68 Q1939.27 1312.38 1935.86 1312.38 Q1927.33 1312.38 1922.34 1307.41 Q1917.37 1302.45 1917.37 1293.98 Q1917.37 1285.23 1922.08 1280.11 Q1926.82 1274.95 1934.84 1274.95 Q1942.04 1274.95 1946.21 1279.6 Q1950.41 1284.21 1950.41 1292.17 M1944.55 1290.45 Q1944.49 1285.64 1941.85 1282.78 Q1939.24 1279.91 1934.91 1279.91 Q1930.01 1279.91 1927.05 1282.68 Q1924.12 1285.45 1923.67 1290.48 L1944.55 1290.45 Z" fill="#000000" fill-rule="nonzero" fill-opacity="1" /><path clip-path="url(#clip350)" d="M1983.48 1281.22 L1983.48 1261.93 L1989.33 1261.93 L1989.33 1311.46 L1983.48 1311.46 L1983.48 1306.11 Q1981.63 1309.29 1978.8 1310.85 Q1976 1312.38 1972.05 1312.38 Q1965.59 1312.38 1961.52 1307.22 Q1957.47 1302.07 1957.47 1293.66 Q1957.47 1285.26 1961.52 1280.11 Q1965.59 1274.95 1972.05 1274.95 Q1976 1274.95 1978.8 1276.51 Q1981.63 1278.04 1983.48 1281.22 M1963.52 1293.66 Q1963.52 1300.13 1966.16 1303.82 Q1968.84 1307.48 1973.48 1307.48 Q1978.13 1307.48 1980.8 1303.82 Q1983.48 1300.13 1983.48 1293.66 Q1983.48 1287.2 1980.8 1283.54 Q1978.13 1279.85 1973.48 1279.85 Q1968.84 1279.85 1966.16 1283.54 Q1963.52 1287.2 1963.52 1293.66 Z" fill="#000000" fill-rule="nonzero" fill-opacity="1" /><path clip-path="url(#clip350)" d="M2049.87 1282.65 Q2052.07 1278.7 2055.12 1276.83 Q2058.18 1274.95 2062.32 1274.95 Q2067.89 1274.95 2070.91 1278.86 Q2073.93 1282.75 2073.93 1289.94 L2073.93 1311.46 L2068.05 1311.46 L2068.05 1290.13 Q2068.05 1285.01 2066.23 1282.52 Q2064.42 1280.04 2060.69 1280.04 Q2056.14 1280.04 2053.5 1283.07 Q2050.86 1286.09 2050.86 1291.31 L2050.86 1311.46 L2044.97 1311.46 L2044.97 1290.13 Q2044.97 1284.97 2043.16 1282.52 Q2041.34 1280.04 2037.55 1280.04 Q2033.07 1280.04 2030.43 1283.1 Q2027.78 1286.12 2027.78 1291.31 L2027.78 1311.46 L2021.9 1311.46 L2021.9 1275.81 L2027.78 1275.81 L2027.78 1281.35 Q2029.79 1278.07 2032.59 1276.51 Q2035.39 1274.95 2039.24 1274.95 Q2043.12 1274.95 2045.83 1276.92 Q2048.57 1278.9 2049.87 1282.65 Z" fill="#000000" fill-rule="nonzero" fill-opacity="1" /><path clip-path="url(#clip350)" d="M2116.11 1292.17 L2116.11 1295.03 L2089.18 1295.03 Q2089.56 1301.08 2092.81 1304.26 Q2096.09 1307.41 2101.91 1307.41 Q2105.29 1307.41 2108.44 1306.59 Q2111.62 1305.76 2114.74 1304.1 L2114.74 1309.64 Q2111.59 1310.98 2108.28 1311.68 Q2104.97 1312.38 2101.56 1312.38 Q2093.03 1312.38 2088.03 1307.41 Q2083.07 1302.45 2083.07 1293.98 Q2083.07 1285.23 2087.78 1280.11 Q2092.52 1274.95 2100.54 1274.95 Q2107.74 1274.95 2111.91 1279.6 Q2116.11 1284.21 2116.11 1292.17 M2110.25 1290.45 Q2110.19 1285.64 2107.55 1282.78 Q2104.94 1279.91 2100.61 1279.91 Q2095.71 1279.91 2092.75 1282.68 Q2089.82 1285.45 2089.37 1290.48 L2110.25 1290.45 Z" fill="#000000" fill-rule="nonzero" fill-opacity="1" /><path clip-path="url(#clip350)" d="M2131.51 1265.69 L2131.51 1275.81 L2143.58 1275.81 L2143.58 1280.36 L2131.51 1280.36 L2131.51 1299.71 Q2131.51 1304.07 2132.69 1305.31 Q2133.9 1306.55 2137.56 1306.55 L2143.58 1306.55 L2143.58 1311.46 L2137.56 1311.46 Q2130.78 1311.46 2128.2 1308.94 Q2125.62 1306.4 2125.62 1299.71 L2125.62 1280.36 L2121.33 1280.36 L2121.33 1275.81 L2125.62 1275.81 L2125.62 1265.69 L2131.51 1265.69 Z" fill="#000000" fill-rule="nonzero" fill-opacity="1" /><path clip-path="url(#clip350)" d="M2180.91 1289.94 L2180.91 1311.46 L2175.05 1311.46 L2175.05 1290.13 Q2175.05 1285.07 2173.08 1282.56 Q2171.11 1280.04 2167.16 1280.04 Q2162.42 1280.04 2159.68 1283.07 Q2156.94 1286.09 2156.94 1291.31 L2156.94 1311.46 L2151.06 1311.46 L2151.06 1261.93 L2156.94 1261.93 L2156.94 1281.35 Q2159.04 1278.13 2161.88 1276.54 Q2164.74 1274.95 2168.47 1274.95 Q2174.61 1274.95 2177.76 1278.77 Q2180.91 1282.56 2180.91 1289.94 Z" fill="#000000" fill-rule="nonzero" fill-opacity="1" /><path clip-path="url(#clip350)" d="M2206.41 1279.91 Q2201.69 1279.91 2198.96 1283.61 Q2196.22 1287.27 2196.22 1293.66 Q2196.22 1300.06 2198.93 1303.75 Q2201.66 1307.41 2206.41 1307.41 Q2211.08 1307.41 2213.82 1303.72 Q2216.56 1300.03 2216.56 1293.66 Q2216.56 1287.33 2213.82 1283.64 Q2211.08 1279.91 2206.41 1279.91 M2206.41 1274.95 Q2214.04 1274.95 2218.4 1279.91 Q2222.76 1284.88 2222.76 1293.66 Q2222.76 1302.42 2218.4 1307.41 Q2214.04 1312.38 2206.41 1312.38 Q2198.73 1312.38 2194.37 1307.41 Q2190.05 1302.42 2190.05 1293.66 Q2190.05 1284.88 2194.37 1279.91 Q2198.73 1274.95 2206.41 1274.95 Z" fill="#000000" fill-rule="nonzero" fill-opacity="1" /><path clip-path="url(#clip350)" d="M2255.93 1281.22 L2255.93 1261.93 L2261.79 1261.93 L2261.79 1311.46 L2255.93 1311.46 L2255.93 1306.11 Q2254.08 1309.29 2251.25 1310.85 Q2248.45 1312.38 2244.5 1312.38 Q2238.04 1312.38 2233.97 1307.22 Q2229.93 1302.07 2229.93 1293.66 Q2229.93 1285.26 2233.97 1280.11 Q2238.04 1274.95 2244.5 1274.95 Q2248.45 1274.95 2251.25 1276.51 Q2254.08 1278.04 2255.93 1281.22 M2235.97 1293.66 Q2235.97 1300.13 2238.62 1303.82 Q2241.29 1307.48 2245.94 1307.48 Q2250.58 1307.48 2253.26 1303.82 Q2255.93 1300.13 2255.93 1293.66 Q2255.93 1287.2 2253.26 1283.54 Q2250.58 1279.85 2245.94 1279.85 Q2241.29 1279.85 2238.62 1283.54 Q2235.97 1287.2 2235.97 1293.66 Z" fill="#000000" fill-rule="nonzero" fill-opacity="1" /></svg>
