<?xml version="1.0" encoding="utf-8"?>
<svg xmlns="http://www.w3.org/2000/svg" xmlns:xlink="http://www.w3.org/1999/xlink" width="600" height="400" viewBox="0 0 2400 1600">
<defs>
  <clipPath id="clip220">
    <rect x="0" y="0" width="2400" height="1600"/>
  </clipPath>
</defs>
<path clip-path="url(#clip220)" d="M0 1600 L2400 1600 L2400 0 L0 0  Z" fill="#ffffff" fill-rule="evenodd" fill-opacity="1"/>
<defs>
  <clipPath id="clip221">
    <rect x="480" y="0" width="1681" height="1600"/>
  </clipPath>
</defs>
<path clip-path="url(#clip220)" d="M254.609 1401.58 L2352.76 1401.58 L2352.76 123.472 L254.609 123.472  Z" fill="#ffffff" fill-rule="evenodd" fill-opacity="1"/>
<defs>
  <clipPath id="clip222">
    <rect x="254" y="123" width="2099" height="1279"/>
  </clipPath>
</defs>
<polyline clip-path="url(#clip222)" style="stroke:#000000; stroke-linecap:round; stroke-linejoin:round; stroke-width:2; stroke-opacity:0.1; fill:none" points="533.922,1401.58 533.922,123.472 "/>
<polyline clip-path="url(#clip222)" style="stroke:#000000; stroke-linecap:round; stroke-linejoin:round; stroke-width:2; stroke-opacity:0.1; fill:none" points="973.785,1401.58 973.785,123.472 "/>
<polyline clip-path="url(#clip222)" style="stroke:#000000; stroke-linecap:round; stroke-linejoin:round; stroke-width:2; stroke-opacity:0.1; fill:none" points="1413.65,1401.58 1413.65,123.472 "/>
<polyline clip-path="url(#clip222)" style="stroke:#000000; stroke-linecap:round; stroke-linejoin:round; stroke-width:2; stroke-opacity:0.1; fill:none" points="1853.51,1401.58 1853.51,123.472 "/>
<polyline clip-path="url(#clip222)" style="stroke:#000000; stroke-linecap:round; stroke-linejoin:round; stroke-width:2; stroke-opacity:0.1; fill:none" points="2293.37,1401.58 2293.37,123.472 "/>
<polyline clip-path="url(#clip222)" style="stroke:#000000; stroke-linecap:round; stroke-linejoin:round; stroke-width:2; stroke-opacity:0.1; fill:none" points="254.609,1401.02 2352.76,1401.02 "/>
<polyline clip-path="url(#clip222)" style="stroke:#000000; stroke-linecap:round; stroke-linejoin:round; stroke-width:2; stroke-opacity:0.1; fill:none" points="254.609,1199.31 2352.76,1199.31 "/>
<polyline clip-path="url(#clip222)" style="stroke:#000000; stroke-linecap:round; stroke-linejoin:round; stroke-width:2; stroke-opacity:0.1; fill:none" points="254.609,997.599 2352.76,997.599 "/>
<polyline clip-path="url(#clip222)" style="stroke:#000000; stroke-linecap:round; stroke-linejoin:round; stroke-width:2; stroke-opacity:0.1; fill:none" points="254.609,795.89 2352.76,795.89 "/>
<polyline clip-path="url(#clip222)" style="stroke:#000000; stroke-linecap:round; stroke-linejoin:round; stroke-width:2; stroke-opacity:0.1; fill:none" points="254.609,594.181 2352.76,594.181 "/>
<polyline clip-path="url(#clip222)" style="stroke:#000000; stroke-linecap:round; stroke-linejoin:round; stroke-width:2; stroke-opacity:0.1; fill:none" points="254.609,392.472 2352.76,392.472 "/>
<polyline clip-path="url(#clip222)" style="stroke:#000000; stroke-linecap:round; stroke-linejoin:round; stroke-width:2; stroke-opacity:0.1; fill:none" points="254.609,190.763 2352.76,190.763 "/>
<polyline clip-path="url(#clip220)" style="stroke:#000000; stroke-linecap:round; stroke-linejoin:round; stroke-width:4; stroke-opacity:1; fill:none" points="254.609,1401.58 2352.76,1401.58 "/>
<polyline clip-path="url(#clip220)" style="stroke:#000000; stroke-linecap:round; stroke-linejoin:round; stroke-width:4; stroke-opacity:1; fill:none" points="533.922,1401.58 533.922,1382.68 "/>
<polyline clip-path="url(#clip220)" style="stroke:#000000; stroke-linecap:round; stroke-linejoin:round; stroke-width:4; stroke-opacity:1; fill:none" points="973.785,1401.58 973.785,1382.68 "/>
<polyline clip-path="url(#clip220)" style="stroke:#000000; stroke-linecap:round; stroke-linejoin:round; stroke-width:4; stroke-opacity:1; fill:none" points="1413.65,1401.58 1413.65,1382.68 "/>
<polyline clip-path="url(#clip220)" style="stroke:#000000; stroke-linecap:round; stroke-linejoin:round; stroke-width:4; stroke-opacity:1; fill:none" points="1853.51,1401.58 1853.51,1382.68 "/>
<polyline clip-path="url(#clip220)" style="stroke:#000000; stroke-linecap:round; stroke-linejoin:round; stroke-width:4; stroke-opacity:1; fill:none" points="2293.37,1401.58 2293.37,1382.68 "/>
<path clip-path="url(#clip220)" d="M503.923 1436.89 Q498.958 1436.89 496.444 1441.79 Q493.961 1446.66 493.961 1456.47 Q493.961 1466.24 496.444 1471.14 Q498.958 1476.01 503.923 1476.01 Q508.92 1476.01 511.403 1471.14 Q513.917 1466.24 513.917 1456.47 Q513.917 1446.66 511.403 1441.79 Q508.92 1436.89 503.923 1436.89 M503.923 1431.8 Q511.912 1431.8 516.114 1438.13 Q520.347 1444.44 520.347 1456.47 Q520.347 1468.47 516.114 1474.8 Q511.912 1481.1 503.923 1481.1 Q495.934 1481.1 491.701 1474.8 Q487.5 1468.47 487.5 1456.47 Q487.5 1444.44 491.701 1438.13 Q495.934 1431.8 503.923 1431.8 Z" fill="#000000" fill-rule="nonzero" fill-opacity="1" /><path clip-path="url(#clip220)" d="M531.646 1472.1 L538.362 1472.1 L538.362 1480.18 L531.646 1480.18 L531.646 1472.1 Z" fill="#000000" fill-rule="nonzero" fill-opacity="1" /><path clip-path="url(#clip220)" d="M557.904 1474.77 L580.344 1474.77 L580.344 1480.18 L550.17 1480.18 L550.17 1474.77 Q553.83 1470.98 560.132 1464.62 Q566.466 1458.22 568.09 1456.37 Q571.177 1452.9 572.386 1450.52 Q573.628 1448.1 573.628 1445.77 Q573.628 1441.99 570.954 1439.6 Q568.312 1437.21 564.047 1437.21 Q561.024 1437.21 557.65 1438.26 Q554.308 1439.31 550.488 1441.44 L550.488 1434.95 Q554.372 1433.39 557.745 1432.6 Q561.119 1431.8 563.92 1431.8 Q571.304 1431.8 575.697 1435.49 Q580.089 1439.18 580.089 1445.36 Q580.089 1448.29 578.975 1450.93 Q577.893 1453.54 574.996 1457.1 Q574.201 1458.03 569.936 1462.45 Q565.671 1466.84 557.904 1474.77 Z" fill="#000000" fill-rule="nonzero" fill-opacity="1" /><path clip-path="url(#clip220)" d="M942.354 1436.89 Q937.389 1436.89 934.874 1441.79 Q932.392 1446.66 932.392 1456.47 Q932.392 1466.24 934.874 1471.14 Q937.389 1476.01 942.354 1476.01 Q947.351 1476.01 949.834 1471.14 Q952.348 1466.24 952.348 1456.47 Q952.348 1446.66 949.834 1441.79 Q947.351 1436.89 942.354 1436.89 M942.354 1431.8 Q950.343 1431.8 954.545 1438.13 Q958.778 1444.44 958.778 1456.47 Q958.778 1468.47 954.545 1474.8 Q950.343 1481.1 942.354 1481.1 Q934.365 1481.1 930.132 1474.8 Q925.931 1468.47 925.931 1456.47 Q925.931 1444.44 930.132 1438.13 Q934.365 1431.8 942.354 1431.8 Z" fill="#000000" fill-rule="nonzero" fill-opacity="1" /><path clip-path="url(#clip220)" d="M970.077 1472.1 L976.793 1472.1 L976.793 1480.18 L970.077 1480.18 L970.077 1472.1 Z" fill="#000000" fill-rule="nonzero" fill-opacity="1" /><path clip-path="url(#clip220)" d="M1008.46 1438.26 L992.229 1463.63 L1008.46 1463.63 L1008.46 1438.26 M1006.78 1432.66 L1014.86 1432.66 L1014.86 1463.63 L1021.64 1463.63 L1021.64 1468.98 L1014.86 1468.98 L1014.86 1480.18 L1008.46 1480.18 L1008.46 1468.98 L987.01 1468.98 L987.01 1462.77 L1006.78 1432.66 Z" fill="#000000" fill-rule="nonzero" fill-opacity="1" /><path clip-path="url(#clip220)" d="M1382.44 1436.89 Q1377.47 1436.89 1374.96 1441.79 Q1372.48 1446.66 1372.48 1456.47 Q1372.48 1466.24 1374.96 1471.14 Q1377.47 1476.01 1382.44 1476.01 Q1387.44 1476.01 1389.92 1471.14 Q1392.43 1466.24 1392.43 1456.47 Q1392.43 1446.66 1389.92 1441.79 Q1387.44 1436.89 1382.44 1436.89 M1382.44 1431.8 Q1390.43 1431.8 1394.63 1438.13 Q1398.86 1444.44 1398.86 1456.47 Q1398.86 1468.47 1394.63 1474.8 Q1390.43 1481.1 1382.44 1481.1 Q1374.45 1481.1 1370.22 1474.8 Q1366.02 1468.47 1366.02 1456.47 Q1366.02 1444.44 1370.22 1438.13 Q1374.45 1431.8 1382.44 1431.8 Z" fill="#000000" fill-rule="nonzero" fill-opacity="1" /><path clip-path="url(#clip220)" d="M1410.16 1472.1 L1416.88 1472.1 L1416.88 1480.18 L1410.16 1480.18 L1410.16 1472.1 Z" fill="#000000" fill-rule="nonzero" fill-opacity="1" /><path clip-path="url(#clip220)" d="M1445.43 1453.86 Q1441.1 1453.86 1438.55 1456.82 Q1436.04 1459.78 1436.04 1464.93 Q1436.04 1470.06 1438.55 1473.05 Q1441.1 1476.01 1445.43 1476.01 Q1449.76 1476.01 1452.27 1473.05 Q1454.82 1470.06 1454.82 1464.93 Q1454.82 1459.78 1452.27 1456.82 Q1449.76 1453.86 1445.43 1453.86 M1458.19 1433.71 L1458.19 1439.57 Q1455.77 1438.42 1453.29 1437.82 Q1450.84 1437.21 1448.42 1437.21 Q1442.05 1437.21 1438.68 1441.51 Q1435.34 1445.81 1434.86 1454.49 Q1436.74 1451.73 1439.57 1450.26 Q1442.41 1448.77 1445.81 1448.77 Q1452.97 1448.77 1457.11 1453.13 Q1461.28 1457.45 1461.28 1464.93 Q1461.28 1472.25 1456.95 1476.68 Q1452.62 1481.1 1445.43 1481.1 Q1437.19 1481.1 1432.82 1474.8 Q1428.46 1468.47 1428.46 1456.47 Q1428.46 1445.2 1433.81 1438.52 Q1439.16 1431.8 1448.17 1431.8 Q1450.59 1431.8 1453.04 1432.28 Q1455.52 1432.76 1458.19 1433.71 Z" fill="#000000" fill-rule="nonzero" fill-opacity="1" /><path clip-path="url(#clip220)" d="M1822.48 1436.89 Q1817.51 1436.89 1815 1441.79 Q1812.52 1446.66 1812.52 1456.47 Q1812.52 1466.24 1815 1471.14 Q1817.51 1476.01 1822.48 1476.01 Q1827.48 1476.01 1829.96 1471.14 Q1832.47 1466.24 1832.47 1456.47 Q1832.47 1446.66 1829.96 1441.79 Q1827.48 1436.89 1822.48 1436.89 M1822.48 1431.8 Q1830.47 1431.8 1834.67 1438.13 Q1838.9 1444.44 1838.9 1456.47 Q1838.9 1468.47 1834.67 1474.8 Q1830.47 1481.1 1822.48 1481.1 Q1814.49 1481.1 1810.26 1474.8 Q1806.05 1468.47 1806.05 1456.47 Q1806.05 1444.44 1810.26 1438.13 Q1814.49 1431.8 1822.48 1431.8 Z" fill="#000000" fill-rule="nonzero" fill-opacity="1" /><path clip-path="url(#clip220)" d="M1850.2 1472.1 L1856.92 1472.1 L1856.92 1480.18 L1850.2 1480.18 L1850.2 1472.1 Z" fill="#000000" fill-rule="nonzero" fill-opacity="1" /><path clip-path="url(#clip220)" d="M1884.67 1457.61 Q1880.09 1457.61 1877.45 1460.06 Q1874.84 1462.52 1874.84 1466.81 Q1874.84 1471.11 1877.45 1473.56 Q1880.09 1476.01 1884.67 1476.01 Q1889.25 1476.01 1891.9 1473.56 Q1894.54 1471.08 1894.54 1466.81 Q1894.54 1462.52 1891.9 1460.06 Q1889.29 1457.61 1884.67 1457.61 M1878.24 1454.88 Q1874.1 1453.86 1871.78 1451.02 Q1869.49 1448.19 1869.49 1444.12 Q1869.49 1438.42 1873.53 1435.11 Q1877.61 1431.8 1884.67 1431.8 Q1891.77 1431.8 1895.81 1435.11 Q1899.85 1438.42 1899.85 1444.12 Q1899.85 1448.19 1897.53 1451.02 Q1895.24 1453.86 1891.13 1454.88 Q1895.78 1455.96 1898.36 1459.11 Q1900.97 1462.26 1900.97 1466.81 Q1900.97 1473.72 1896.73 1477.41 Q1892.53 1481.1 1884.67 1481.1 Q1876.81 1481.1 1872.58 1477.41 Q1868.38 1473.72 1868.38 1466.81 Q1868.38 1462.26 1870.99 1459.11 Q1873.6 1455.96 1878.24 1454.88 M1875.89 1444.72 Q1875.89 1448.41 1878.18 1450.48 Q1880.5 1452.55 1884.67 1452.55 Q1888.81 1452.55 1891.13 1450.48 Q1893.49 1448.41 1893.49 1444.72 Q1893.49 1441.03 1891.13 1438.96 Q1888.81 1436.89 1884.67 1436.89 Q1880.5 1436.89 1878.18 1438.96 Q1875.89 1441.03 1875.89 1444.72 Z" fill="#000000" fill-rule="nonzero" fill-opacity="1" /><path clip-path="url(#clip220)" d="M2248.21 1474.77 L2258.71 1474.77 L2258.71 1438.52 L2247.29 1440.81 L2247.29 1434.95 L2258.65 1432.66 L2265.08 1432.66 L2265.08 1474.77 L2275.58 1474.77 L2275.58 1480.18 L2248.21 1480.18 L2248.21 1474.77 Z" fill="#000000" fill-rule="nonzero" fill-opacity="1" /><path clip-path="url(#clip220)" d="M2288.57 1472.1 L2295.28 1472.1 L2295.28 1480.18 L2288.57 1480.18 L2288.57 1472.1 Z" fill="#000000" fill-rule="nonzero" fill-opacity="1" /><path clip-path="url(#clip220)" d="M2323.04 1436.89 Q2318.07 1436.89 2315.56 1441.79 Q2313.08 1446.66 2313.08 1456.47 Q2313.08 1466.24 2315.56 1471.14 Q2318.07 1476.01 2323.04 1476.01 Q2328.04 1476.01 2330.52 1471.14 Q2333.03 1466.24 2333.03 1456.47 Q2333.03 1446.66 2330.52 1441.79 Q2328.04 1436.89 2323.04 1436.89 M2323.04 1431.8 Q2331.03 1431.8 2335.23 1438.13 Q2339.46 1444.44 2339.46 1456.47 Q2339.46 1468.47 2335.23 1474.8 Q2331.03 1481.1 2323.04 1481.1 Q2315.05 1481.1 2310.82 1474.8 Q2306.62 1468.47 2306.62 1456.47 Q2306.62 1444.44 2310.82 1438.13 Q2315.05 1431.8 2323.04 1431.8 Z" fill="#000000" fill-rule="nonzero" fill-opacity="1" /><path clip-path="url(#clip220)" d="M1334.16 1516.76 Q1334.16 1517.49 1334.01 1518.1 L1331.88 1531.65 Q1331.76 1532.67 1331.53 1533.06 Q1331.34 1533.44 1330.73 1533.44 Q1329.78 1533.44 1329.78 1532.45 Q1329.78 1531.88 1330.01 1530.96 Q1330.66 1526.66 1330.66 1524.72 Q1330.66 1523.43 1330.39 1522.47 Q1330.16 1521.48 1329.78 1520.8 Q1329.44 1520.11 1328.64 1519.66 Q1327.84 1519.2 1327.08 1518.93 Q1326.32 1518.67 1324.95 1518.55 Q1323.58 1518.4 1322.4 1518.36 Q1321.22 1518.33 1319.28 1518.33 Q1315.05 1518.33 1314.37 1518.48 Q1313.64 1518.67 1313.26 1519.24 Q1312.92 1519.77 1312.54 1521.37 L1302.19 1562.74 L1301.88 1564.38 Q1301.88 1565.29 1302.45 1565.6 Q1303.02 1565.9 1304.78 1566.09 Q1307.29 1566.28 1309.76 1566.28 Q1309.84 1566.28 1309.99 1566.28 Q1310.83 1566.28 1311.17 1566.32 Q1311.51 1566.32 1311.86 1566.4 Q1312.2 1566.47 1312.27 1566.66 Q1312.39 1566.82 1312.39 1567.12 Q1312.39 1567.84 1312.08 1568.22 Q1311.78 1568.57 1311.47 1568.64 Q1311.21 1568.68 1310.68 1568.68 Q1309.61 1568.68 1307.33 1568.6 Q1305.04 1568.53 1303.9 1568.53 L1297.43 1568.45 L1290.81 1568.53 Q1289.78 1568.53 1287.61 1568.6 Q1285.44 1568.68 1284.41 1568.68 Q1283.08 1568.68 1283.08 1567.73 Q1283.08 1566.66 1283.58 1566.47 Q1284.11 1566.28 1286.35 1566.28 Q1289.51 1566.28 1291.23 1566.13 Q1292.94 1565.98 1293.85 1565.45 Q1294.8 1564.91 1295.07 1564.38 Q1295.34 1563.81 1295.64 1562.51 L1306.11 1520.91 Q1306.41 1520 1306.41 1519.28 Q1306.41 1518.9 1306.3 1518.74 Q1306.22 1518.59 1305.73 1518.48 Q1305.23 1518.33 1304.2 1518.33 L1301.16 1518.33 Q1298.04 1518.33 1296.1 1518.48 Q1294.19 1518.59 1292.37 1519.16 Q1290.58 1519.73 1289.51 1520.53 Q1288.49 1521.33 1287.34 1522.97 Q1286.2 1524.61 1285.36 1526.58 Q1284.57 1528.56 1283.42 1531.8 Q1283.04 1532.86 1282.81 1533.17 Q1282.62 1533.44 1282.09 1533.44 Q1281.71 1533.44 1281.41 1533.21 Q1281.14 1532.94 1281.14 1532.6 Q1281.52 1531.34 1281.6 1531.19 L1286.28 1517.45 Q1286.66 1516.35 1287 1516.16 Q1287.38 1515.93 1288.79 1515.93 L1332.03 1515.93 Q1332.71 1515.93 1332.94 1515.93 Q1333.17 1515.93 1333.55 1516 Q1333.93 1516.08 1334.04 1516.27 Q1334.16 1516.46 1334.16 1516.76 Z" fill="#000000" fill-rule="nonzero" fill-opacity="1" /><polyline clip-path="url(#clip220)" style="stroke:#000000; stroke-linecap:round; stroke-linejoin:round; stroke-width:4; stroke-opacity:1; fill:none" points="254.609,1401.58 254.609,123.472 "/>
<polyline clip-path="url(#clip220)" style="stroke:#000000; stroke-linecap:round; stroke-linejoin:round; stroke-width:4; stroke-opacity:1; fill:none" points="254.609,1401.02 273.506,1401.02 "/>
<polyline clip-path="url(#clip220)" style="stroke:#000000; stroke-linecap:round; stroke-linejoin:round; stroke-width:4; stroke-opacity:1; fill:none" points="254.609,1199.31 273.506,1199.31 "/>
<polyline clip-path="url(#clip220)" style="stroke:#000000; stroke-linecap:round; stroke-linejoin:round; stroke-width:4; stroke-opacity:1; fill:none" points="254.609,997.599 273.506,997.599 "/>
<polyline clip-path="url(#clip220)" style="stroke:#000000; stroke-linecap:round; stroke-linejoin:round; stroke-width:4; stroke-opacity:1; fill:none" points="254.609,795.89 273.506,795.89 "/>
<polyline clip-path="url(#clip220)" style="stroke:#000000; stroke-linecap:round; stroke-linejoin:round; stroke-width:4; stroke-opacity:1; fill:none" points="254.609,594.181 273.506,594.181 "/>
<polyline clip-path="url(#clip220)" style="stroke:#000000; stroke-linecap:round; stroke-linejoin:round; stroke-width:4; stroke-opacity:1; fill:none" points="254.609,392.472 273.506,392.472 "/>
<polyline clip-path="url(#clip220)" style="stroke:#000000; stroke-linecap:round; stroke-linejoin:round; stroke-width:4; stroke-opacity:1; fill:none" points="254.609,190.763 273.506,190.763 "/>
<path clip-path="url(#clip220)" d="M142.188 1381.49 Q137.223 1381.49 134.709 1386.39 Q132.226 1391.26 132.226 1401.07 Q132.226 1410.84 134.709 1415.74 Q137.223 1420.61 142.188 1420.61 Q147.185 1420.61 149.668 1415.74 Q152.182 1410.84 152.182 1401.07 Q152.182 1391.26 149.668 1386.39 Q147.185 1381.49 142.188 1381.49 M142.188 1376.4 Q150.177 1376.4 154.379 1382.73 Q158.612 1389.03 158.612 1401.07 Q158.612 1413.06 154.379 1419.4 Q150.177 1425.7 142.188 1425.7 Q134.199 1425.7 129.966 1419.4 Q125.765 1413.06 125.765 1401.07 Q125.765 1389.03 129.966 1382.73 Q134.199 1376.4 142.188 1376.4 Z" fill="#000000" fill-rule="nonzero" fill-opacity="1" /><path clip-path="url(#clip220)" d="M169.911 1416.69 L176.627 1416.69 L176.627 1424.78 L169.911 1424.78 L169.911 1416.69 Z" fill="#000000" fill-rule="nonzero" fill-opacity="1" /><path clip-path="url(#clip220)" d="M196.169 1419.37 L218.609 1419.37 L218.609 1424.78 L188.435 1424.78 L188.435 1419.37 Q192.095 1415.58 198.397 1409.21 Q204.731 1402.82 206.355 1400.97 Q209.442 1397.5 210.651 1395.11 Q211.893 1392.69 211.893 1390.37 Q211.893 1386.58 209.219 1384.2 Q206.577 1381.81 202.312 1381.81 Q199.289 1381.81 195.915 1382.86 Q192.573 1383.91 188.753 1386.04 L188.753 1379.55 Q192.636 1377.99 196.01 1377.19 Q199.384 1376.4 202.185 1376.4 Q209.569 1376.4 213.962 1380.09 Q218.354 1383.78 218.354 1389.96 Q218.354 1392.89 217.24 1395.53 Q216.158 1398.14 213.261 1401.7 Q212.466 1402.62 208.201 1407.05 Q203.936 1411.44 196.169 1419.37 Z" fill="#000000" fill-rule="nonzero" fill-opacity="1" /><path clip-path="url(#clip220)" d="M140.883 1179.78 Q135.918 1179.78 133.404 1184.68 Q130.921 1189.55 130.921 1199.36 Q130.921 1209.13 133.404 1214.03 Q135.918 1218.9 140.883 1218.9 Q145.88 1218.9 148.363 1214.03 Q150.877 1209.13 150.877 1199.36 Q150.877 1189.55 148.363 1184.68 Q145.88 1179.78 140.883 1179.78 M140.883 1174.69 Q148.872 1174.69 153.074 1181.02 Q157.307 1187.32 157.307 1199.36 Q157.307 1211.36 153.074 1217.69 Q148.872 1223.99 140.883 1223.99 Q132.894 1223.99 128.661 1217.69 Q124.46 1211.36 124.46 1199.36 Q124.46 1187.32 128.661 1181.02 Q132.894 1174.69 140.883 1174.69 Z" fill="#000000" fill-rule="nonzero" fill-opacity="1" /><path clip-path="url(#clip220)" d="M168.606 1214.98 L175.322 1214.98 L175.322 1223.07 L168.606 1223.07 L168.606 1214.98 Z" fill="#000000" fill-rule="nonzero" fill-opacity="1" /><path clip-path="url(#clip220)" d="M208.805 1197.45 Q213.421 1198.43 215.999 1201.55 Q218.609 1204.67 218.609 1209.25 Q218.609 1216.29 213.771 1220.14 Q208.933 1223.99 200.021 1223.99 Q197.029 1223.99 193.846 1223.39 Q190.695 1222.81 187.321 1221.64 L187.321 1215.43 Q189.995 1216.99 193.178 1217.78 Q196.36 1218.58 199.83 1218.58 Q205.877 1218.58 209.028 1216.19 Q212.211 1213.81 212.211 1209.25 Q212.211 1205.05 209.251 1202.7 Q206.323 1200.31 201.071 1200.31 L195.533 1200.31 L195.533 1195.03 L201.326 1195.03 Q206.068 1195.03 208.583 1193.15 Q211.097 1191.24 211.097 1187.68 Q211.097 1184.01 208.487 1182.07 Q205.909 1180.1 201.071 1180.1 Q198.429 1180.1 195.406 1180.67 Q192.382 1181.25 188.753 1182.46 L188.753 1176.73 Q192.414 1175.71 195.597 1175.2 Q198.811 1174.69 201.644 1174.69 Q208.965 1174.69 213.23 1178.03 Q217.495 1181.34 217.495 1187.01 Q217.495 1190.95 215.235 1193.69 Q212.975 1196.4 208.805 1197.45 Z" fill="#000000" fill-rule="nonzero" fill-opacity="1" /><path clip-path="url(#clip220)" d="M139.324 978.072 Q134.358 978.072 131.844 982.974 Q129.361 987.844 129.361 997.647 Q129.361 1007.42 131.844 1012.32 Q134.358 1017.19 139.324 1017.19 Q144.321 1017.19 146.803 1012.32 Q149.318 1007.42 149.318 997.647 Q149.318 987.844 146.803 982.974 Q144.321 978.072 139.324 978.072 M139.324 972.98 Q147.313 972.98 151.514 979.314 Q155.747 985.616 155.747 997.647 Q155.747 1009.65 151.514 1015.98 Q147.313 1022.28 139.324 1022.28 Q131.335 1022.28 127.102 1015.98 Q122.9 1009.65 122.9 997.647 Q122.9 985.616 127.102 979.314 Q131.335 972.98 139.324 972.98 Z" fill="#000000" fill-rule="nonzero" fill-opacity="1" /><path clip-path="url(#clip220)" d="M167.046 1013.27 L173.762 1013.27 L173.762 1021.36 L167.046 1021.36 L167.046 1013.27 Z" fill="#000000" fill-rule="nonzero" fill-opacity="1" /><path clip-path="url(#clip220)" d="M205.432 979.441 L189.199 1004.81 L205.432 1004.81 L205.432 979.441 M203.745 973.839 L211.829 973.839 L211.829 1004.81 L218.609 1004.81 L218.609 1010.16 L211.829 1010.16 L211.829 1021.36 L205.432 1021.36 L205.432 1010.16 L183.979 1010.16 L183.979 1003.95 L203.745 973.839 Z" fill="#000000" fill-rule="nonzero" fill-opacity="1" /><path clip-path="url(#clip220)" d="M141.361 776.363 Q136.395 776.363 133.881 781.265 Q131.398 786.135 131.398 795.938 Q131.398 805.709 133.881 810.611 Q136.395 815.481 141.361 815.481 Q146.358 815.481 148.84 810.611 Q151.355 805.709 151.355 795.938 Q151.355 786.135 148.84 781.265 Q146.358 776.363 141.361 776.363 M141.361 771.271 Q149.35 771.271 153.551 777.605 Q157.784 783.907 157.784 795.938 Q157.784 807.937 153.551 814.271 Q149.35 820.573 141.361 820.573 Q133.372 820.573 129.139 814.271 Q124.937 807.937 124.937 795.938 Q124.937 783.907 129.139 777.605 Q133.372 771.271 141.361 771.271 Z" fill="#000000" fill-rule="nonzero" fill-opacity="1" /><path clip-path="url(#clip220)" d="M169.083 811.566 L175.799 811.566 L175.799 819.65 L169.083 819.65 L169.083 811.566 Z" fill="#000000" fill-rule="nonzero" fill-opacity="1" /><path clip-path="url(#clip220)" d="M189.867 772.13 L215.107 772.13 L215.107 777.541 L195.756 777.541 L195.756 789.19 Q197.156 788.713 198.557 788.49 Q199.957 788.235 201.357 788.235 Q209.315 788.235 213.962 792.596 Q218.609 796.956 218.609 804.404 Q218.609 812.075 213.834 816.34 Q209.06 820.573 200.371 820.573 Q197.379 820.573 194.26 820.064 Q191.172 819.555 187.862 818.536 L187.862 812.075 Q190.727 813.635 193.782 814.398 Q196.838 815.162 200.243 815.162 Q205.75 815.162 208.965 812.266 Q212.179 809.369 212.179 804.404 Q212.179 799.439 208.965 796.543 Q205.75 793.646 200.243 793.646 Q197.665 793.646 195.087 794.219 Q192.541 794.792 189.867 796.001 L189.867 772.13 Z" fill="#000000" fill-rule="nonzero" fill-opacity="1" /><path clip-path="url(#clip220)" d="M139.769 574.654 Q134.804 574.654 132.29 579.556 Q129.807 584.425 129.807 594.229 Q129.807 604 132.29 608.902 Q134.804 613.771 139.769 613.771 Q144.766 613.771 147.249 608.902 Q149.763 604 149.763 594.229 Q149.763 584.425 147.249 579.556 Q144.766 574.654 139.769 574.654 M139.769 569.562 Q147.758 569.562 151.96 575.895 Q156.193 582.197 156.193 594.229 Q156.193 606.228 151.96 612.562 Q147.758 618.864 139.769 618.864 Q131.78 618.864 127.547 612.562 Q123.346 606.228 123.346 594.229 Q123.346 582.197 127.547 575.895 Q131.78 569.562 139.769 569.562 Z" fill="#000000" fill-rule="nonzero" fill-opacity="1" /><path clip-path="url(#clip220)" d="M167.492 609.856 L174.208 609.856 L174.208 617.941 L167.492 617.941 L167.492 609.856 Z" fill="#000000" fill-rule="nonzero" fill-opacity="1" /><path clip-path="url(#clip220)" d="M202.758 591.619 Q198.429 591.619 195.883 594.579 Q193.369 597.539 193.369 602.695 Q193.369 607.819 195.883 610.811 Q198.429 613.771 202.758 613.771 Q207.087 613.771 209.601 610.811 Q212.147 607.819 212.147 602.695 Q212.147 597.539 209.601 594.579 Q207.087 591.619 202.758 591.619 M215.521 571.471 L215.521 577.328 Q213.102 576.182 210.62 575.577 Q208.169 574.972 205.75 574.972 Q199.384 574.972 196.01 579.269 Q192.668 583.566 192.191 592.255 Q194.069 589.486 196.901 588.022 Q199.734 586.526 203.14 586.526 Q210.301 586.526 214.439 590.887 Q218.609 595.215 218.609 602.695 Q218.609 610.016 214.28 614.44 Q209.951 618.864 202.758 618.864 Q194.514 618.864 190.154 612.562 Q185.793 606.228 185.793 594.229 Q185.793 582.961 191.141 576.277 Q196.488 569.562 205.495 569.562 Q207.914 569.562 210.365 570.039 Q212.848 570.516 215.521 571.471 Z" fill="#000000" fill-rule="nonzero" fill-opacity="1" /><path clip-path="url(#clip220)" d="M141.233 372.945 Q136.268 372.945 133.754 377.847 Q131.271 382.716 131.271 392.519 Q131.271 402.291 133.754 407.192 Q136.268 412.062 141.233 412.062 Q146.23 412.062 148.713 407.192 Q151.228 402.291 151.228 392.519 Q151.228 382.716 148.713 377.847 Q146.23 372.945 141.233 372.945 M141.233 367.852 Q149.222 367.852 153.424 374.186 Q157.657 380.488 157.657 392.519 Q157.657 404.519 153.424 410.853 Q149.222 417.155 141.233 417.155 Q133.244 417.155 129.011 410.853 Q124.81 404.519 124.81 392.519 Q124.81 380.488 129.011 374.186 Q133.244 367.852 141.233 367.852 Z" fill="#000000" fill-rule="nonzero" fill-opacity="1" /><path clip-path="url(#clip220)" d="M168.956 408.147 L175.672 408.147 L175.672 416.232 L168.956 416.232 L168.956 408.147 Z" fill="#000000" fill-rule="nonzero" fill-opacity="1" /><path clip-path="url(#clip220)" d="M188.053 368.712 L218.609 368.712 L218.609 371.449 L201.357 416.232 L194.642 416.232 L210.874 374.123 L188.053 374.123 L188.053 368.712 Z" fill="#000000" fill-rule="nonzero" fill-opacity="1" /><path clip-path="url(#clip220)" d="M140.119 171.236 Q135.154 171.236 132.64 176.137 Q130.157 181.007 130.157 190.81 Q130.157 200.582 132.64 205.483 Q135.154 210.353 140.119 210.353 Q145.116 210.353 147.599 205.483 Q150.114 200.582 150.114 190.81 Q150.114 181.007 147.599 176.137 Q145.116 171.236 140.119 171.236 M140.119 166.143 Q148.108 166.143 152.31 172.477 Q156.543 178.779 156.543 190.81 Q156.543 202.81 152.31 209.144 Q148.108 215.446 140.119 215.446 Q132.13 215.446 127.897 209.144 Q123.696 202.81 123.696 190.81 Q123.696 178.779 127.897 172.477 Q132.13 166.143 140.119 166.143 Z" fill="#000000" fill-rule="nonzero" fill-opacity="1" /><path clip-path="url(#clip220)" d="M167.842 206.438 L174.558 206.438 L174.558 214.523 L167.842 214.523 L167.842 206.438 Z" fill="#000000" fill-rule="nonzero" fill-opacity="1" /><path clip-path="url(#clip220)" d="M202.312 191.956 Q197.729 191.956 195.087 194.407 Q192.477 196.858 192.477 201.155 Q192.477 205.451 195.087 207.902 Q197.729 210.353 202.312 210.353 Q206.896 210.353 209.537 207.902 Q212.179 205.42 212.179 201.155 Q212.179 196.858 209.537 194.407 Q206.927 191.956 202.312 191.956 M195.883 189.219 Q191.745 188.2 189.422 185.368 Q187.13 182.535 187.13 178.461 Q187.13 172.764 191.172 169.453 Q195.246 166.143 202.312 166.143 Q209.41 166.143 213.452 169.453 Q217.495 172.764 217.495 178.461 Q217.495 182.535 215.171 185.368 Q212.879 188.2 208.774 189.219 Q213.421 190.301 215.999 193.452 Q218.609 196.603 218.609 201.155 Q218.609 208.061 214.375 211.753 Q210.174 215.446 202.312 215.446 Q194.451 215.446 190.218 211.753 Q186.016 208.061 186.016 201.155 Q186.016 196.603 188.626 193.452 Q191.236 190.301 195.883 189.219 M193.528 179.066 Q193.528 182.758 195.819 184.827 Q198.143 186.895 202.312 186.895 Q206.45 186.895 208.774 184.827 Q211.129 182.758 211.129 179.066 Q211.129 175.373 208.774 173.305 Q206.45 171.236 202.312 171.236 Q198.143 171.236 195.819 173.305 Q193.528 175.373 193.528 179.066 Z" fill="#000000" fill-rule="nonzero" fill-opacity="1" /><path clip-path="url(#clip220)" d="M18.3474 795.521 L38.2155 800.431 Q39.4715 800.773 39.6237 801.002 Q39.776 801.192 39.776 801.801 Q39.776 802.981 38.9767 802.981 Q38.9006 802.981 37.911 802.867 Q36.8833 802.752 35.0183 802.752 Q28.1292 802.752 24.0566 806.102 Q19.984 809.413 19.984 815.313 Q19.984 820.413 22.5722 825.551 Q25.1604 830.651 29.3852 834.305 Q32.5824 837.046 36.6169 839.063 Q40.6514 841.042 44.3434 841.994 Q48.0353 842.907 50.8138 843.326 Q53.5923 843.745 55.6096 843.745 Q58.5403 843.745 61.0143 843.136 Q63.4883 842.489 65.2391 841.347 Q66.9519 840.205 68.284 838.759 Q69.5781 837.274 70.3393 835.561 Q71.1006 833.811 71.4812 832.06 Q71.8237 830.309 71.8237 828.482 Q71.8237 821.136 66.1145 814.133 Q61.433 808.576 53.7826 806.254 Q53.0214 806.064 53.0214 805.264 Q53.0214 804.313 53.7826 804.313 Q53.9348 804.313 54.6961 804.503 Q55.4192 804.694 56.9036 805.264 Q58.35 805.835 59.9866 806.711 Q61.6233 807.586 63.6786 809.223 Q65.7339 810.859 67.5228 812.877 Q70.4916 816.302 72.3566 820.641 Q74.2216 824.98 74.2216 829.738 Q74.2216 835.676 71.5954 840.471 Q68.9691 845.267 64.0592 848.084 Q59.1493 850.862 52.8691 850.862 Q46.2464 850.862 39.7379 847.817 Q33.2294 844.772 28.3956 839.938 Q23.5618 835.105 20.5549 828.71 Q17.5481 822.316 17.5481 815.922 Q17.5481 813.486 18.1951 811.316 Q18.8422 809.147 19.6415 807.853 Q20.4408 806.52 21.6207 805.341 Q22.7625 804.161 23.2954 803.78 Q23.8282 803.361 24.4753 802.981 L18.4996 797.538 Q17.5481 796.586 17.5481 796.358 Q17.5481 795.901 17.8145 795.711 Q18.0809 795.521 18.3474 795.521 Z" fill="#000000" fill-rule="nonzero" fill-opacity="1" /><path clip-path="url(#clip220)" d="M53.0214 786.314 Q39.8521 786.314 29.233 781.404 Q24.7798 779.311 21.0497 776.38 Q17.3197 773.449 15.6831 771.508 Q14.0464 769.567 14.0464 769.034 Q14.0464 768.273 14.8077 768.235 Q15.1883 768.235 16.1398 769.262 Q28.9285 781.823 53.0214 781.785 Q77.1904 781.785 89.4843 769.567 Q90.8164 768.235 91.2351 768.235 Q91.9963 768.235 91.9963 769.034 Q91.9963 769.567 90.4358 771.432 Q88.8753 773.297 85.2975 776.19 Q81.7197 779.082 77.3427 781.176 Q66.7235 786.314 53.0214 786.314 Z" fill="#000000" fill-rule="nonzero" fill-opacity="1" /><path clip-path="url(#clip220)" d="M20.593 709.291 Q21.3162 709.291 21.9251 709.443 L35.475 711.575 Q36.5027 711.689 36.8833 711.917 Q37.2639 712.108 37.2639 712.717 Q37.2639 713.668 36.2743 713.668 Q35.7034 713.668 34.7899 713.44 Q30.489 712.793 28.5478 712.793 Q27.2538 712.793 26.3022 713.059 Q25.3126 713.287 24.6275 713.668 Q23.9424 714.011 23.4857 714.81 Q23.0289 715.609 22.7625 716.37 Q22.4961 717.132 22.3819 718.502 Q22.2296 719.872 22.1916 721.052 Q22.1535 722.232 22.1535 724.173 Q22.1535 728.398 22.3058 729.083 Q22.4961 729.806 23.067 730.187 Q23.5999 730.529 25.1984 730.91 L66.5713 741.263 L68.2079 741.567 Q69.1214 741.567 69.4259 740.996 Q69.7304 740.425 69.9207 738.674 Q70.111 736.162 70.111 733.688 Q70.111 733.612 70.111 733.46 Q70.111 732.623 70.149 732.28 Q70.149 731.938 70.2252 731.595 Q70.3013 731.252 70.4916 731.176 Q70.6438 731.062 70.9483 731.062 Q71.6715 731.062 72.0521 731.367 Q72.3947 731.671 72.4708 731.976 Q72.5088 732.242 72.5088 732.775 Q72.5088 733.841 72.4327 736.124 Q72.3566 738.408 72.3566 739.55 L72.2805 746.02 L72.3566 752.643 Q72.3566 753.671 72.4327 755.84 Q72.5088 758.01 72.5088 759.037 Q72.5088 760.369 71.5573 760.369 Q70.4916 760.369 70.3013 759.875 Q70.111 759.342 70.111 757.096 Q70.111 753.937 69.9587 752.224 Q69.8065 750.512 69.2736 749.598 Q68.7408 748.647 68.2079 748.38 Q67.637 748.114 66.3429 747.809 L24.7417 737.342 Q23.8282 737.038 23.1051 737.038 Q22.7244 737.038 22.5722 737.152 Q22.4199 737.228 22.3058 737.723 Q22.1535 738.218 22.1535 739.245 L22.1535 742.29 Q22.1535 745.411 22.3058 747.352 Q22.4199 749.256 22.9909 751.082 Q23.5618 752.871 24.3611 753.937 Q25.1604 754.965 26.797 756.107 Q28.4337 757.248 30.4129 758.086 Q32.3921 758.885 35.6273 760.027 Q36.693 760.408 36.9975 760.636 Q37.2639 760.826 37.2639 761.359 Q37.2639 761.74 37.0356 762.044 Q36.7691 762.311 36.4266 762.311 Q35.1705 761.93 35.0183 761.854 L21.2781 757.172 Q20.1743 756.792 19.984 756.449 Q19.7556 756.069 19.7556 754.66 L19.7556 711.422 Q19.7556 710.737 19.7556 710.509 Q19.7556 710.281 19.8318 709.9 Q19.9079 709.519 20.0982 709.405 Q20.2885 709.291 20.593 709.291 Z" fill="#000000" fill-rule="nonzero" fill-opacity="1" /><path clip-path="url(#clip220)" d="M91.2351 704.121 Q90.8545 704.121 89.9029 703.132 Q77.1143 690.571 53.0214 690.571 Q28.8523 690.571 16.6346 702.637 Q15.2263 704.121 14.8077 704.121 Q14.0464 704.121 14.0464 703.36 Q14.0464 702.827 15.6069 700.962 Q17.1675 699.059 20.7452 696.204 Q24.323 693.312 28.7001 691.18 Q39.3192 686.042 53.0214 686.042 Q66.1906 686.042 76.8098 690.952 Q81.263 693.045 84.993 695.976 Q88.723 698.907 90.3597 700.848 Q91.9963 702.789 91.9963 703.36 Q91.9963 704.121 91.2351 704.121 Z" fill="#000000" fill-rule="nonzero" fill-opacity="1" /><path clip-path="url(#clip220)" d="M1105.4 16.8933 L1100.11 38.2897 Q1099.74 39.6424 1099.49 39.8063 Q1099.29 39.9703 1098.63 39.9703 Q1097.36 39.9703 1097.36 39.1095 Q1097.36 39.0275 1097.49 37.9618 Q1097.61 36.8551 1097.61 34.8466 Q1097.61 27.4276 1094 23.0417 Q1090.44 18.6559 1084.08 18.6559 Q1078.59 18.6559 1073.06 21.4431 Q1067.56 24.2304 1063.63 28.7802 Q1060.68 32.2233 1058.51 36.5682 Q1056.37 40.913 1055.35 44.889 Q1054.37 48.865 1053.91 51.8572 Q1053.46 54.8494 1053.46 57.0218 Q1053.46 60.178 1054.12 62.8423 Q1054.82 65.5066 1056.05 67.3921 Q1057.28 69.2366 1058.83 70.6713 Q1060.43 72.0649 1062.28 72.8847 Q1064.16 73.7045 1066.05 74.1144 Q1067.93 74.4833 1069.9 74.4833 Q1077.81 74.4833 1085.35 68.3349 Q1091.34 63.2932 1093.84 55.0543 Q1094.04 54.2346 1094.9 54.2346 Q1095.93 54.2346 1095.93 55.0543 Q1095.93 55.2183 1095.72 56.0381 Q1095.52 56.8169 1094.9 58.4155 Q1094.29 59.9731 1093.35 61.7356 Q1092.4 63.4981 1090.64 65.7115 Q1088.88 67.925 1086.71 69.8515 Q1083.02 73.0486 1078.34 75.0571 Q1073.67 77.0656 1068.55 77.0656 Q1062.15 77.0656 1056.99 74.2373 Q1051.82 71.4091 1048.79 66.1214 Q1045.8 60.8338 1045.8 54.0706 Q1045.8 46.9385 1049.08 39.9293 Q1052.36 32.9201 1057.56 27.7145 Q1062.77 22.5089 1069.65 19.2707 Q1076.54 16.0325 1083.43 16.0325 Q1086.05 16.0325 1088.39 16.7294 Q1090.72 17.4262 1092.12 18.287 Q1093.55 19.1477 1094.82 20.4184 Q1096.09 21.6481 1096.5 22.2219 Q1096.95 22.7958 1097.36 23.4926 L1103.22 17.0573 Q1104.25 16.0325 1104.5 16.0325 Q1104.99 16.0325 1105.19 16.3195 Q1105.4 16.6064 1105.4 16.8933 Z" fill="#000000" fill-rule="nonzero" fill-opacity="1" /><path clip-path="url(#clip220)" d="M1139.57 70.6139 Q1139.57 71.3599 1139.37 72.8233 Q1139.17 74.2866 1138.68 76.4098 Q1138.19 78.5331 1137.47 80.7711 Q1136.79 83.0091 1135.7 85.2471 Q1134.6 87.4564 1133.31 89.2067 Q1132.02 90.9569 1130.21 92.0472 Q1128.41 93.1376 1126.37 93.1376 Q1125.42 93.1376 1124.51 92.9941 Q1123.59 92.8506 1122.44 92.3915 Q1121.29 91.9325 1120.46 91.1865 Q1119.63 90.4118 1119.05 89.0345 Q1118.48 87.6573 1118.48 85.8497 Q1118.48 83.9846 1119.17 81.4884 Q1119.89 78.9635 1121.84 73.7988 Q1122.84 71.1304 1122.84 69.6671 Q1122.84 69.0072 1122.7 68.6055 Q1122.55 68.1751 1122.27 68.0316 Q1121.98 67.8595 1121.81 67.8308 Q1121.66 67.8021 1121.38 67.8021 Q1119.8 67.8021 1118.19 69.4376 Q1116.59 71.073 1115.44 75.09 Q1115.21 75.8073 1115.07 75.9794 Q1114.92 76.1516 1114.49 76.1516 Q1113.77 76.1229 1113.77 75.5491 Q1113.77 75.3769 1113.97 74.717 Q1114.18 74.0284 1114.55 72.9954 Q1114.92 71.9338 1115.58 70.8435 Q1116.24 69.7245 1117.05 68.7489 Q1117.88 67.7734 1119.05 67.1422 Q1120.23 66.5109 1121.55 66.5109 Q1123.7 66.5109 1125.02 67.9168 Q1126.37 69.2941 1126.37 71.3313 Q1126.37 72.4503 1125.65 74.2579 Q1124.45 77.5288 1123.9 79.1069 Q1123.36 80.685 1122.78 82.923 Q1122.24 85.161 1122.24 86.7104 Q1122.24 89.0632 1123.33 90.4405 Q1124.42 91.8177 1126.6 91.8177 Q1128.55 91.8177 1130.3 90.4118 Q1132.08 88.9771 1133.26 86.94 Q1134.43 84.8741 1135.32 82.5787 Q1136.21 80.2546 1136.61 78.5044 Q1137.04 76.7254 1137.04 75.8934 Q1137.04 72.9954 1135.06 71.1017 Q1134.52 70.5566 1134.32 70.2122 Q1134.12 69.8679 1134.12 69.3228 Q1134.12 68.3185 1135.01 67.4291 Q1135.92 66.5109 1136.99 66.5109 Q1137.96 66.5109 1138.77 67.4865 Q1139.57 68.462 1139.57 70.6139 Z" fill="#000000" fill-rule="nonzero" fill-opacity="1" /><path clip-path="url(#clip220)" d="M1148.27 54.2346 Q1148.27 40.0523 1153.56 28.6163 Q1155.82 23.8205 1158.97 19.8036 Q1162.13 15.7866 1164.22 14.0241 Q1166.31 12.2615 1166.88 12.2615 Q1167.7 12.2615 1167.74 13.0813 Q1167.74 13.4912 1166.64 14.5159 Q1153.11 28.2883 1153.15 54.2346 Q1153.15 80.2627 1166.31 93.5023 Q1167.74 94.9369 1167.74 95.3878 Q1167.74 96.2076 1166.88 96.2076 Q1166.31 96.2076 1164.3 94.527 Q1162.29 92.8465 1159.18 88.9935 Q1156.06 85.1405 1153.81 80.4267 Q1148.27 68.9907 1148.27 54.2346 Z" fill="#000000" fill-rule="nonzero" fill-opacity="1" /><path clip-path="url(#clip220)" d="M1231.22 19.3117 Q1231.22 20.0905 1231.06 20.7463 L1228.76 35.3385 Q1228.64 36.4452 1228.39 36.8551 Q1228.19 37.265 1227.53 37.265 Q1226.51 37.265 1226.51 36.1993 Q1226.51 35.5844 1226.75 34.6007 Q1227.45 29.9689 1227.45 27.8784 Q1227.45 26.4848 1227.16 25.4601 Q1226.92 24.3944 1226.51 23.6566 Q1226.14 22.9187 1225.28 22.4269 Q1224.42 21.935 1223.6 21.6481 Q1222.78 21.3612 1221.3 21.2382 Q1219.83 21.0742 1218.55 21.0332 Q1217.28 20.9922 1215.19 20.9922 Q1210.64 20.9922 1209.91 21.1562 Q1209.13 21.3612 1208.72 21.976 Q1208.35 22.5498 1207.94 24.2714 L1196.79 68.8267 L1196.46 70.5893 Q1196.46 71.573 1197.08 71.9009 Q1197.69 72.2288 1199.58 72.4338 Q1202.28 72.6387 1204.95 72.6387 Q1205.03 72.6387 1205.19 72.6387 Q1206.09 72.6387 1206.46 72.6797 Q1206.83 72.6797 1207.2 72.7617 Q1207.57 72.8437 1207.65 73.0486 Q1207.77 73.2126 1207.77 73.5405 Q1207.77 74.3193 1207.45 74.7292 Q1207.12 75.0981 1206.79 75.1801 Q1206.5 75.2211 1205.93 75.2211 Q1204.78 75.2211 1202.32 75.1391 Q1199.86 75.0571 1198.63 75.0571 L1191.67 74.9751 L1184.53 75.0571 Q1183.43 75.0571 1181.09 75.1391 Q1178.75 75.2211 1177.65 75.2211 Q1176.21 75.2211 1176.21 74.1963 Q1176.21 73.0486 1176.75 72.8437 Q1177.32 72.6387 1179.74 72.6387 Q1183.14 72.6387 1184.98 72.4748 Q1186.83 72.3108 1187.81 71.737 Q1188.84 71.1631 1189.12 70.5893 Q1189.41 69.9744 1189.74 68.5808 L1201.01 23.7795 Q1201.34 22.7958 1201.34 22.017 Q1201.34 21.6071 1201.22 21.4431 Q1201.13 21.2792 1200.6 21.1562 Q1200.07 20.9922 1198.96 20.9922 L1195.68 20.9922 Q1192.32 20.9922 1190.23 21.1562 Q1188.18 21.2792 1186.21 21.894 Q1184.29 22.5089 1183.14 23.3696 Q1182.03 24.2304 1180.8 25.9929 Q1179.57 27.7555 1178.67 29.8869 Q1177.81 32.0184 1176.58 35.5025 Q1176.17 36.6502 1175.93 36.9781 Q1175.72 37.265 1175.15 37.265 Q1174.74 37.265 1174.41 37.0191 Q1174.12 36.7321 1174.12 36.3632 Q1174.53 35.0106 1174.61 34.8466 L1179.66 20.0495 Q1180.07 18.8608 1180.43 18.6559 Q1180.84 18.4099 1182.36 18.4099 L1228.93 18.4099 Q1229.66 18.4099 1229.91 18.4099 Q1230.15 18.4099 1230.56 18.4919 Q1230.97 18.5739 1231.1 18.7788 Q1231.22 18.9838 1231.22 19.3117 Z" fill="#000000" fill-rule="nonzero" fill-opacity="1" /><path clip-path="url(#clip220)" d="M1236.79 95.3878 Q1236.79 94.9779 1237.85 93.9532 Q1251.38 80.1808 1251.38 54.2346 Q1251.38 28.2064 1238.39 15.0488 Q1236.79 13.5322 1236.79 13.0813 Q1236.79 12.2615 1237.61 12.2615 Q1238.18 12.2615 1240.19 13.9421 Q1242.24 15.6227 1245.31 19.4756 Q1248.43 23.3286 1250.72 28.0424 Q1256.26 39.4784 1256.26 54.2346 Q1256.26 68.4168 1250.97 79.8529 Q1248.72 84.6486 1245.56 88.6655 Q1242.4 92.6825 1240.31 94.445 Q1238.22 96.2076 1237.61 96.2076 Q1236.79 96.2076 1236.79 95.3878 Z" fill="#000000" fill-rule="nonzero" fill-opacity="1" /><path clip-path="url(#clip220)" d="M1270.21 73.8684 Q1269.02 72.5158 1269.02 70.7532 Q1269.02 68.9907 1270.17 67.679 Q1271.36 66.3264 1273.49 66.3264 Q1275.99 66.3264 1277.42 68.7448 Q1278.86 71.1221 1278.86 75.1391 Q1278.86 79.4839 1277.1 83.5009 Q1275.33 87.5588 1273.61 89.4853 Q1271.89 91.4118 1271.19 91.4118 Q1270.37 91.4118 1270.37 90.5101 Q1270.37 90.1821 1270.95 89.5673 Q1276.97 83.091 1277.01 75.1391 Q1277.01 73.8684 1276.85 73.8684 L1276.64 74.0324 Q1275.21 75.2211 1273.49 75.2211 Q1271.4 75.2211 1270.21 73.8684 Z" fill="#000000" fill-rule="nonzero" fill-opacity="1" /><path clip-path="url(#clip220)" d="M1339.2 41.9788 Q1339.2 42.8395 1338.47 43.5364 Q1337.77 44.2332 1336.91 44.2332 Q1336.42 44.2332 1335.23 43.4134 Q1331.83 41.036 1327.52 41.036 Q1323.67 41.036 1320.1 41.9788 Q1316.54 42.9215 1314.12 44.848 Q1311.74 46.7335 1311.74 49.1929 Q1311.74 52.2671 1315.1 54.0706 Q1318.59 52.472 1322.89 52.472 Q1324.28 52.472 1325.23 52.554 Q1326.21 52.636 1327.15 52.8409 Q1328.1 53.0459 1328.55 53.5377 Q1329.04 53.9886 1329.04 54.7264 Q1329.04 57.3497 1322.23 57.3497 Q1317.81 57.3497 1315.02 56.161 Q1311.45 57.9236 1309.49 60.7518 Q1307.52 63.5801 1307.52 65.9985 Q1307.52 68.0889 1308.67 69.6055 Q1309.86 71.1221 1311.78 71.8599 Q1313.75 72.5977 1315.68 72.9257 Q1317.64 73.2126 1319.82 73.2126 Q1323.38 73.2126 1325.88 72.7617 Q1328.42 72.2698 1329.82 71.3681 Q1331.25 70.4663 1331.83 69.8515 Q1332.44 69.1956 1333.06 68.1709 Q1333.42 67.5971 1333.92 67.5971 Q1334.29 67.5971 1334.53 67.843 Q1334.82 68.0479 1334.82 68.4168 Q1334.82 68.8677 1334.24 69.8105 Q1333.71 70.7532 1332.4 72.0239 Q1331.13 73.2536 1329.37 74.4013 Q1327.65 75.508 1324.9 76.2868 Q1322.15 77.0656 1319.04 77.0656 Q1312.68 77.0656 1309 73.9504 Q1305.35 70.8352 1305.35 66.4903 Q1305.35 63.4571 1307.36 60.342 Q1309.41 57.1858 1313.01 55.1773 Q1309.65 52.677 1309.65 49.1929 Q1309.65 46.0777 1312.27 43.2904 Q1314.94 40.5031 1319.24 38.8636 Q1323.59 37.183 1328.34 37.183 Q1331.01 37.183 1333.63 38.0848 Q1336.25 38.9456 1337.73 40.0523 Q1339.2 41.159 1339.2 41.9788 M1326.87 54.8084 Q1325.06 54.3165 1322.89 54.3165 Q1319.94 54.3165 1317.77 55.0543 Q1319.53 55.5052 1322.23 55.5052 Q1324.49 55.5052 1325.15 55.3823 Q1325.84 55.2593 1326.87 54.8084 Z" fill="#000000" fill-rule="nonzero" fill-opacity="1" /><path clip-path="url(#clip220)" d="M1367.37 62.4734 Q1367.45 61.4487 1369.05 61.4487 L1420.49 61.4487 Q1422.91 61.4487 1422.95 62.3914 Q1422.95 63.4162 1420.65 63.3752 L1369.62 63.3752 Q1367.37 63.4162 1367.37 62.4734 M1367.37 46.0777 Q1367.37 45.053 1369.13 45.0939 L1420.41 45.0939 Q1422.91 45.0939 1422.95 46.0777 Q1422.95 47.0204 1420.82 47.0204 L1369.05 47.0204 Q1367.37 47.0204 1367.37 46.0777 Z" fill="#000000" fill-rule="nonzero" fill-opacity="1" /><path clip-path="url(#clip220)" d="M1455.33 48.3731 Q1455.33 36.0353 1458.44 29.3131 Q1462.79 19.3117 1473.03 19.3117 Q1475.21 19.3117 1477.46 19.9265 Q1479.76 20.5004 1482.63 22.7548 Q1485.54 25.0092 1487.3 28.6982 Q1490.66 35.8304 1490.66 48.3731 Q1490.66 60.6289 1487.54 67.3101 Q1482.99 77.0656 1472.95 77.0656 Q1469.18 77.0656 1465.33 75.1391 Q1461.52 73.2126 1459.1 68.5808 Q1455.33 61.6536 1455.33 48.3731 M1462.29 47.3484 Q1462.29 60.014 1463.2 65.0557 Q1464.22 70.5073 1467.01 72.8847 Q1469.84 75.2211 1472.95 75.2211 Q1476.31 75.2211 1479.1 72.7207 Q1481.93 70.1794 1482.79 64.7278 Q1483.73 59.3582 1483.69 47.3484 Q1483.69 35.6664 1482.87 30.9936 Q1481.76 25.5421 1478.81 23.3696 Q1475.9 21.1562 1472.95 21.1562 Q1471.84 21.1562 1470.66 21.4841 Q1469.51 21.812 1467.83 22.7548 Q1466.15 23.6975 1464.84 26.0339 Q1463.57 28.3703 1462.95 31.8954 Q1462.29 36.4452 1462.29 47.3484 Z" fill="#000000" fill-rule="nonzero" fill-opacity="1" /><path clip-path="url(#clip220)" d="M1498.17 73.8684 Q1496.9 72.5158 1496.9 70.7532 Q1496.9 68.9907 1498.17 67.72 Q1499.44 66.4084 1501.36 66.4084 Q1503.21 66.4084 1504.44 67.638 Q1505.71 68.8267 1505.71 70.7942 Q1505.71 72.7207 1504.36 73.9914 Q1503.04 75.2211 1501.36 75.2211 Q1499.44 75.2211 1498.17 73.8684 Z" fill="#000000" fill-rule="nonzero" fill-opacity="1" /><path clip-path="url(#clip220)" d="M1520 35.7484 L1522.74 18.4919 L1524.83 18.4919 Q1525.08 19.5166 1525.49 19.9675 Q1525.94 20.4184 1528.32 20.7873 Q1530.73 21.1562 1535.61 21.1562 L1555.98 21.1562 Q1555.98 23.0827 1555.25 24.1074 L1543.89 40.0523 Q1540.29 45.0939 1538.69 54.3985 Q1537.74 60.6289 1537.79 68.1709 L1537.79 72.4338 Q1537.79 77.0656 1533.89 77.0656 Q1530.04 77.0656 1530.04 72.4338 Q1530.04 56.407 1540.37 40.872 Q1541.47 39.2735 1545.53 33.576 Q1549.63 27.8784 1549.79 27.6325 L1532.42 27.6325 Q1524.79 27.6325 1524.18 28.1244 Q1523.36 28.8622 1522.09 35.7484 L1520 35.7484 Z" fill="#000000" fill-rule="nonzero" fill-opacity="1" /><polyline clip-path="url(#clip222)" style="stroke:#009af9; stroke-linecap:round; stroke-linejoin:round; stroke-width:8; stroke-opacity:1; fill:none" points="313.99,676.378 335.983,524.644 357.976,395.43 379.97,300.654 401.963,231.346 423.956,188.471 445.949,167.885 467.942,166.633 489.935,181.297 511.929,208.824 533.922,246.411 555.915,291.65 577.908,342.469 599.901,397.103 621.894,454.076 643.887,512.169 665.881,570.379 687.874,627.893 709.867,684.061 731.86,738.371 753.853,790.432 775.846,839.95 797.84,886.716 819.833,930.592 841.826,971.5 863.819,1009.41 885.812,1044.33 907.805,1076.3 929.799,1105.39 951.792,1131.68 973.785,1155.3 995.778,1176.33 1017.77,1194.93 1039.76,1211.2 1061.76,1225.29 1083.75,1237.33 1105.74,1247.46 1127.74,1255.81 1149.73,1262.51 1171.72,1267.68 1193.72,1271.45 1215.71,1273.94 1237.7,1275.26 1259.7,1275.52 1281.69,1274.82 1303.68,1273.26 1325.68,1270.93 1347.67,1267.92 1369.66,1264.3 1391.65,1260.17 1413.65,1255.58 1435.64,1250.6 1457.63,1245.29 1479.63,1239.72 1501.62,1233.92 1523.61,1227.96 1545.61,1221.88 1567.6,1215.71 1589.59,1209.49 1611.59,1203.26 1633.58,1197.05 1655.57,1190.88 1677.57,1184.79 1699.56,1178.79 1721.55,1172.9 1743.55,1167.14 1765.54,1161.53 1787.53,1156.08 1809.52,1150.8 1831.52,1145.71 1853.51,1140.8 1875.5,1136.1 1897.5,1131.6 1919.49,1127.31 1941.48,1123.24 1963.48,1119.38 1985.47,1115.74 2007.46,1112.32 2029.46,1109.12 2051.45,1106.13 2073.44,1103.37 2095.44,1100.83 2117.43,1098.49 2139.42,1096.37 2161.42,1094.46 2183.41,1092.76 2205.4,1091.26 2227.39,1089.96 2249.39,1088.85 2271.38,1087.94 2293.37,1087.21 "/>
<polyline clip-path="url(#clip222)" style="stroke:#e26f46; stroke-linecap:round; stroke-linejoin:round; stroke-width:8; stroke-opacity:1; fill:none" points="313.99,677.064 335.983,523.055 357.976,396.988 379.97,299.799 401.963,230.331 423.956,186.045 445.949,163.659 467.942,159.645 489.935,170.564 511.929,193.262 533.922,224.971 555.915,263.331 577.908,306.381 599.901,352.52 621.894,400.463 643.887,449.195 665.881,497.923 687.874,546.039 709.867,593.085 731.86,638.722 753.853,682.708 775.846,724.877 797.84,765.124 819.833,803.392 841.826,839.658 863.819,873.93 885.812,906.237 907.805,936.625 929.799,965.152 951.792,991.883 973.785,1016.89 995.778,1040.26 1017.77,1062.05 1039.76,1082.37 1061.76,1101.27 1083.75,1118.85 1105.74,1135.18 1127.74,1150.33 1149.73,1164.38 1171.72,1177.4 1193.72,1189.46 1215.71,1200.62 1237.7,1210.95 1259.7,1220.5 1281.69,1229.33 1303.68,1237.49 1325.68,1245.04 1347.67,1252.01 1369.66,1258.46 1391.65,1264.43 1413.65,1269.95 1435.64,1275.06 1457.63,1279.81 1479.63,1284.21 1501.62,1288.3 1523.61,1292.11 1545.61,1295.67 1567.6,1298.99 1589.59,1302.11 1611.59,1305.04 1633.58,1307.8 1655.57,1310.41 1677.57,1312.88 1699.56,1315.24 1721.55,1317.49 1743.55,1319.65 1765.54,1321.73 1787.53,1323.74 1809.52,1325.7 1831.52,1327.6 1853.51,1329.46 1875.5,1331.29 1897.5,1333.09 1919.49,1334.87 1941.48,1336.63 1963.48,1338.38 1985.47,1340.12 2007.46,1341.87 2029.46,1343.61 2051.45,1345.36 2073.44,1347.11 2095.44,1348.87 2117.43,1350.65 2139.42,1352.44 2161.42,1354.24 2183.41,1356.06 2205.4,1357.89 2227.39,1359.74 2249.39,1361.61 2271.38,1363.5 2293.37,1365.41 "/>
<polyline clip-path="url(#clip222)" style="stroke:#3da44d; stroke-linecap:round; stroke-linejoin:round; stroke-width:8; stroke-opacity:1; fill:none" points="313.99,674.709 335.983,519.909 357.976,398.696 379.97,299.485 401.963,231.176 423.956,188.31 445.949,167.856 467.942,166.694 489.935,181.344 511.929,208.89 533.922,246.52 555.915,291.837 577.908,342.76 599.901,397.539 621.894,454.699 643.887,513.023 665.881,571.51 687.874,629.344 709.867,685.872 731.86,740.575 753.853,793.052 775.846,842.998 797.84,890.192 819.833,934.482 841.826,975.772 863.819,1014.02 885.812,1049.21 907.805,1081.39 929.799,1110.59 951.792,1136.89 973.785,1160.4 995.778,1181.2 1017.77,1199.43 1039.76,1215.19 1061.76,1228.61 1083.75,1239.83 1105.74,1248.98 1127.74,1256.19 1149.73,1261.58 1171.72,1265.29 1193.72,1267.44 1215.71,1268.15 1237.7,1267.54 1259.7,1265.72 1281.69,1262.8 1303.68,1258.89 1325.68,1254.08 1347.67,1248.47 1369.66,1242.14 1391.65,1235.19 1413.65,1227.68 1435.64,1219.7 1457.63,1211.32 1479.63,1202.6 1501.62,1193.59 1523.61,1184.37 1545.61,1174.98 1567.6,1165.47 1589.59,1155.88 1611.59,1146.26 1633.58,1136.65 1655.57,1127.08 1677.57,1117.58 1699.56,1108.18 1721.55,1098.9 1743.55,1089.78 1765.54,1080.83 1787.53,1072.08 1809.52,1063.53 1831.52,1055.2 1853.51,1047.11 1875.5,1039.26 1897.5,1031.68 1919.49,1024.35 1941.48,1017.3 1963.48,1010.53 1985.47,1004.03 2007.46,997.825 2029.46,991.901 2051.45,986.265 2073.44,980.917 2095.44,975.856 2117.43,971.081 2139.42,966.59 2161.42,962.382 2183.41,958.452 2205.4,954.799 2227.39,951.417 2249.39,948.303 2271.38,945.453 2293.37,942.862 "/>
<path clip-path="url(#clip220)" d="M1839.06 451.196 L2282.82 451.196 L2282.82 166.076 L1839.06 166.076  Z" fill="#ffffff" fill-rule="evenodd" fill-opacity="1"/>
<polyline clip-path="url(#clip220)" style="stroke:#000000; stroke-linecap:round; stroke-linejoin:round; stroke-width:4; stroke-opacity:1; fill:none" points="1839.06,451.196 2282.82,451.196 2282.82,166.076 1839.06,166.076 1839.06,451.196 "/>
<polyline clip-path="url(#clip220)" style="stroke:#009af9; stroke-linecap:round; stroke-linejoin:round; stroke-width:11; stroke-opacity:1; fill:none" points="1862.38,237.356 2002.25,237.356 "/>
<path clip-path="url(#clip220)" d="M2025.57 213.596 L2031.99 213.596 L2031.99 255.705 L2055.13 255.705 L2055.13 261.116 L2025.57 261.116 L2025.57 213.596 Z" fill="#000000" fill-rule="nonzero" fill-opacity="1" /><path clip-path="url(#clip220)" d="M2090.97 241.828 L2090.97 244.692 L2064.05 244.692 Q2064.43 250.74 2067.67 253.922 Q2070.95 257.073 2076.78 257.073 Q2080.15 257.073 2083.3 256.246 Q2086.49 255.418 2089.6 253.763 L2089.6 259.301 Q2086.45 260.638 2083.14 261.339 Q2079.83 262.039 2076.43 262.039 Q2067.9 262.039 2062.9 257.073 Q2057.93 252.108 2057.93 243.642 Q2057.93 234.889 2062.65 229.765 Q2067.39 224.608 2075.41 224.608 Q2082.6 224.608 2086.77 229.255 Q2090.97 233.87 2090.97 241.828 M2085.12 240.109 Q2085.05 235.303 2082.41 232.438 Q2079.8 229.574 2075.47 229.574 Q2070.57 229.574 2067.61 232.343 Q2064.68 235.112 2064.24 240.141 L2085.12 240.109 Z" fill="#000000" fill-rule="nonzero" fill-opacity="1" /><path clip-path="url(#clip220)" d="M2118.63 211.591 L2118.63 216.46 L2113.03 216.46 Q2109.88 216.46 2108.64 217.733 Q2107.43 219.007 2107.43 222.317 L2107.43 225.468 L2117.07 225.468 L2117.07 230.019 L2107.43 230.019 L2107.43 261.116 L2101.54 261.116 L2101.54 230.019 L2095.94 230.019 L2095.94 225.468 L2101.54 225.468 L2101.54 222.985 Q2101.54 217.033 2104.31 214.328 Q2107.08 211.591 2113.09 211.591 L2118.63 211.591 Z" fill="#000000" fill-rule="nonzero" fill-opacity="1" /><path clip-path="url(#clip220)" d="M2141.58 211.591 L2141.58 216.46 L2135.98 216.46 Q2132.83 216.46 2131.59 217.733 Q2130.38 219.007 2130.38 222.317 L2130.38 225.468 L2140.02 225.468 L2140.02 230.019 L2130.38 230.019 L2130.38 261.116 L2124.49 261.116 L2124.49 230.019 L2118.89 230.019 L2118.89 225.468 L2124.49 225.468 L2124.49 222.985 Q2124.49 217.033 2127.26 214.328 Q2130.03 211.591 2136.04 211.591 L2141.58 211.591 Z" fill="#000000" fill-rule="nonzero" fill-opacity="1" /><polyline clip-path="url(#clip220)" style="stroke:#e26f46; stroke-linecap:round; stroke-linejoin:round; stroke-width:11; stroke-opacity:1; fill:none" points="1862.38,308.636 2002.25,308.636 "/>
<path clip-path="url(#clip220)" d="M2025.57 284.876 L2031.99 284.876 L2031.99 326.985 L2055.13 326.985 L2055.13 332.396 L2025.57 332.396 L2025.57 284.876 Z" fill="#000000" fill-rule="nonzero" fill-opacity="1" /><path clip-path="url(#clip220)" d="M2067.99 326.985 L2090.43 326.985 L2090.43 332.396 L2060.26 332.396 L2060.26 326.985 Q2063.92 323.197 2070.22 316.832 Q2076.55 310.434 2078.18 308.588 Q2081.27 305.119 2082.47 302.732 Q2083.72 300.313 2083.72 297.989 Q2083.72 294.201 2081.04 291.814 Q2078.4 289.427 2074.14 289.427 Q2071.11 289.427 2067.74 290.478 Q2064.4 291.528 2060.58 293.66 L2060.58 287.167 Q2064.46 285.608 2067.83 284.812 Q2071.21 284.016 2074.01 284.016 Q2081.39 284.016 2085.78 287.708 Q2090.18 291.401 2090.18 297.575 Q2090.18 300.504 2089.06 303.145 Q2087.98 305.755 2085.08 309.32 Q2084.29 310.243 2080.02 314.667 Q2075.76 319.06 2067.99 326.985 Z" fill="#000000" fill-rule="nonzero" fill-opacity="1" /><polyline clip-path="url(#clip220)" style="stroke:#3da44d; stroke-linecap:round; stroke-linejoin:round; stroke-width:11; stroke-opacity:1; fill:none" points="1862.38,379.916 2002.25,379.916 "/>
<path clip-path="url(#clip220)" d="M2041.93 372.134 Q2037.21 372.134 2034.48 375.826 Q2031.74 379.486 2031.74 385.884 Q2031.74 392.281 2034.45 395.973 Q2037.18 399.633 2041.93 399.633 Q2046.6 399.633 2049.34 395.941 Q2052.08 392.249 2052.08 385.884 Q2052.08 379.55 2049.34 375.858 Q2046.6 372.134 2041.93 372.134 M2041.93 367.168 Q2049.56 367.168 2053.92 372.134 Q2058.28 377.099 2058.28 385.884 Q2058.28 394.636 2053.92 399.633 Q2049.56 404.599 2041.93 404.599 Q2034.25 404.599 2029.89 399.633 Q2025.57 394.636 2025.57 385.884 Q2025.57 377.099 2029.89 372.134 Q2034.25 367.168 2041.93 367.168 Z" fill="#000000" fill-rule="nonzero" fill-opacity="1" /><path clip-path="url(#clip220)" d="M2088.65 373.502 Q2087.66 372.929 2086.49 372.675 Q2085.34 372.388 2083.94 372.388 Q2078.97 372.388 2076.3 375.635 Q2073.66 378.849 2073.66 384.897 L2073.66 403.676 L2067.77 403.676 L2067.77 368.028 L2073.66 368.028 L2073.66 373.566 Q2075.5 370.319 2078.46 368.76 Q2081.42 367.168 2085.66 367.168 Q2086.26 367.168 2086.99 367.264 Q2087.73 367.328 2088.62 367.487 L2088.65 373.502 Z" fill="#000000" fill-rule="nonzero" fill-opacity="1" /><path clip-path="url(#clip220)" d="M2094.79 368.028 L2100.65 368.028 L2100.65 403.676 L2094.79 403.676 L2094.79 368.028 M2094.79 354.151 L2100.65 354.151 L2100.65 361.567 L2094.79 361.567 L2094.79 354.151 Z" fill="#000000" fill-rule="nonzero" fill-opacity="1" /><path clip-path="url(#clip220)" d="M2136.36 385.438 Q2136.36 379.072 2133.72 375.571 Q2131.11 372.07 2126.37 372.07 Q2121.66 372.07 2119.01 375.571 Q2116.4 379.072 2116.4 385.438 Q2116.4 391.772 2119.01 395.273 Q2121.66 398.774 2126.37 398.774 Q2131.11 398.774 2133.72 395.273 Q2136.36 391.772 2136.36 385.438 M2142.22 399.252 Q2142.22 408.355 2138.17 412.779 Q2134.13 417.235 2125.79 417.235 Q2122.71 417.235 2119.97 416.757 Q2117.23 416.312 2114.65 415.357 L2114.65 409.659 Q2117.23 411.06 2119.75 411.728 Q2122.26 412.397 2124.87 412.397 Q2130.63 412.397 2133.5 409.373 Q2136.36 406.381 2136.36 400.302 L2136.36 397.405 Q2134.55 400.557 2131.71 402.116 Q2128.88 403.676 2124.93 403.676 Q2118.38 403.676 2114.37 398.679 Q2110.36 393.682 2110.36 385.438 Q2110.36 377.163 2114.37 372.165 Q2118.38 367.168 2124.93 367.168 Q2128.88 367.168 2131.71 368.728 Q2134.55 370.288 2136.36 373.439 L2136.36 368.028 L2142.22 368.028 L2142.22 399.252 Z" fill="#000000" fill-rule="nonzero" fill-opacity="1" /><path clip-path="url(#clip220)" d="M2154.28 368.028 L2160.14 368.028 L2160.14 403.676 L2154.28 403.676 L2154.28 368.028 M2154.28 354.151 L2160.14 354.151 L2160.14 361.567 L2154.28 361.567 L2154.28 354.151 Z" fill="#000000" fill-rule="nonzero" fill-opacity="1" /><path clip-path="url(#clip220)" d="M2202.02 382.16 L2202.02 403.676 L2196.17 403.676 L2196.17 382.351 Q2196.17 377.29 2194.19 374.775 Q2192.22 372.261 2188.27 372.261 Q2183.53 372.261 2180.79 375.285 Q2178.06 378.308 2178.06 383.528 L2178.06 403.676 L2172.17 403.676 L2172.17 368.028 L2178.06 368.028 L2178.06 373.566 Q2180.16 370.351 2182.99 368.76 Q2185.85 367.168 2189.58 367.168 Q2195.72 367.168 2198.87 370.988 Q2202.02 374.775 2202.02 382.16 Z" fill="#000000" fill-rule="nonzero" fill-opacity="1" /><path clip-path="url(#clip220)" d="M2229.9 385.756 Q2222.81 385.756 2220.07 387.38 Q2217.33 389.003 2217.33 392.918 Q2217.33 396.037 2219.37 397.883 Q2221.44 399.697 2224.97 399.697 Q2229.84 399.697 2232.77 396.26 Q2235.73 392.79 2235.73 387.061 L2235.73 385.756 L2229.9 385.756 M2241.59 383.337 L2241.59 403.676 L2235.73 403.676 L2235.73 398.265 Q2233.72 401.511 2230.73 403.071 Q2227.74 404.599 2223.41 404.599 Q2217.94 404.599 2214.69 401.543 Q2211.48 398.456 2211.48 393.3 Q2211.48 387.284 2215.49 384.228 Q2219.53 381.173 2227.52 381.173 L2235.73 381.173 L2235.73 380.6 Q2235.73 376.558 2233.06 374.362 Q2230.41 372.134 2225.61 372.134 Q2222.55 372.134 2219.66 372.866 Q2216.76 373.598 2214.09 375.062 L2214.09 369.651 Q2217.3 368.41 2220.32 367.805 Q2223.35 367.168 2226.21 367.168 Q2233.95 367.168 2237.77 371.179 Q2241.59 375.189 2241.59 383.337 Z" fill="#000000" fill-rule="nonzero" fill-opacity="1" /><path clip-path="url(#clip220)" d="M2253.65 354.151 L2259.5 354.151 L2259.5 403.676 L2253.65 403.676 L2253.65 354.151 Z" fill="#000000" fill-rule="nonzero" fill-opacity="1" /></svg>
