<?xml version="1.0" encoding="utf-8"?>
<svg xmlns="http://www.w3.org/2000/svg" xmlns:xlink="http://www.w3.org/1999/xlink" width="600" height="400" viewBox="0 0 2400 1600">
<defs>
  <clipPath id="clip340">
    <rect x="0" y="0" width="2400" height="1600"/>
  </clipPath>
</defs>
<path clip-path="url(#clip340)" d="M0 1600 L2400 1600 L2400 0 L0 0  Z" fill="#ffffff" fill-rule="evenodd" fill-opacity="1"/>
<defs>
  <clipPath id="clip341">
    <rect x="480" y="0" width="1681" height="1600"/>
  </clipPath>
</defs>
<path clip-path="url(#clip340)" d="M305.948 1401.58 L2352.76 1401.58 L2352.76 123.472 L305.948 123.472  Z" fill="#ffffff" fill-rule="evenodd" fill-opacity="1"/>
<defs>
  <clipPath id="clip342">
    <rect x="305" y="123" width="2048" height="1279"/>
  </clipPath>
</defs>
<polyline clip-path="url(#clip342)" style="stroke:#000000; stroke-linecap:round; stroke-linejoin:round; stroke-width:2; stroke-opacity:0.1; fill:none" points="672.18,1401.58 672.18,123.472 "/>
<polyline clip-path="url(#clip342)" style="stroke:#000000; stroke-linecap:round; stroke-linejoin:round; stroke-width:2; stroke-opacity:0.1; fill:none" points="1077.84,1401.58 1077.84,123.472 "/>
<polyline clip-path="url(#clip342)" style="stroke:#000000; stroke-linecap:round; stroke-linejoin:round; stroke-width:2; stroke-opacity:0.1; fill:none" points="1483.5,1401.58 1483.5,123.472 "/>
<polyline clip-path="url(#clip342)" style="stroke:#000000; stroke-linecap:round; stroke-linejoin:round; stroke-width:2; stroke-opacity:0.1; fill:none" points="1889.17,1401.58 1889.17,123.472 "/>
<polyline clip-path="url(#clip342)" style="stroke:#000000; stroke-linecap:round; stroke-linejoin:round; stroke-width:2; stroke-opacity:0.1; fill:none" points="2294.83,1401.58 2294.83,123.472 "/>
<polyline clip-path="url(#clip342)" style="stroke:#000000; stroke-linecap:round; stroke-linejoin:round; stroke-width:2; stroke-opacity:0.1; fill:none" points="305.948,1247.6 2352.76,1247.6 "/>
<polyline clip-path="url(#clip342)" style="stroke:#000000; stroke-linecap:round; stroke-linejoin:round; stroke-width:2; stroke-opacity:0.1; fill:none" points="305.948,993.432 2352.76,993.432 "/>
<polyline clip-path="url(#clip342)" style="stroke:#000000; stroke-linecap:round; stroke-linejoin:round; stroke-width:2; stroke-opacity:0.1; fill:none" points="305.948,739.262 2352.76,739.262 "/>
<polyline clip-path="url(#clip342)" style="stroke:#000000; stroke-linecap:round; stroke-linejoin:round; stroke-width:2; stroke-opacity:0.1; fill:none" points="305.948,485.092 2352.76,485.092 "/>
<polyline clip-path="url(#clip342)" style="stroke:#000000; stroke-linecap:round; stroke-linejoin:round; stroke-width:2; stroke-opacity:0.1; fill:none" points="305.948,230.922 2352.76,230.922 "/>
<polyline clip-path="url(#clip340)" style="stroke:#000000; stroke-linecap:round; stroke-linejoin:round; stroke-width:4; stroke-opacity:1; fill:none" points="305.948,1401.58 2352.76,1401.58 "/>
<polyline clip-path="url(#clip340)" style="stroke:#000000; stroke-linecap:round; stroke-linejoin:round; stroke-width:4; stroke-opacity:1; fill:none" points="672.18,1401.58 672.18,1382.68 "/>
<polyline clip-path="url(#clip340)" style="stroke:#000000; stroke-linecap:round; stroke-linejoin:round; stroke-width:4; stroke-opacity:1; fill:none" points="1077.84,1401.58 1077.84,1382.68 "/>
<polyline clip-path="url(#clip340)" style="stroke:#000000; stroke-linecap:round; stroke-linejoin:round; stroke-width:4; stroke-opacity:1; fill:none" points="1483.5,1401.58 1483.5,1382.68 "/>
<polyline clip-path="url(#clip340)" style="stroke:#000000; stroke-linecap:round; stroke-linejoin:round; stroke-width:4; stroke-opacity:1; fill:none" points="1889.17,1401.58 1889.17,1382.68 "/>
<polyline clip-path="url(#clip340)" style="stroke:#000000; stroke-linecap:round; stroke-linejoin:round; stroke-width:4; stroke-opacity:1; fill:none" points="2294.83,1401.58 2294.83,1382.68 "/>
<path clip-path="url(#clip340)" d="M641.767 1436.89 Q636.802 1436.89 634.288 1441.79 Q631.805 1446.66 631.805 1456.47 Q631.805 1466.24 634.288 1471.14 Q636.802 1476.01 641.767 1476.01 Q646.765 1476.01 649.247 1471.14 Q651.762 1466.24 651.762 1456.47 Q651.762 1446.66 649.247 1441.79 Q646.765 1436.89 641.767 1436.89 M641.767 1431.8 Q649.756 1431.8 653.958 1438.13 Q658.191 1444.44 658.191 1456.47 Q658.191 1468.47 653.958 1474.8 Q649.756 1481.1 641.767 1481.1 Q633.778 1481.1 629.545 1474.8 Q625.344 1468.47 625.344 1456.47 Q625.344 1444.44 629.545 1438.13 Q633.778 1431.8 641.767 1431.8 Z" fill="#000000" fill-rule="nonzero" fill-opacity="1" /><path clip-path="url(#clip340)" d="M669.49 1472.1 L676.206 1472.1 L676.206 1480.18 L669.49 1480.18 L669.49 1472.1 Z" fill="#000000" fill-rule="nonzero" fill-opacity="1" /><path clip-path="url(#clip340)" d="M690.274 1432.66 L715.514 1432.66 L715.514 1438.07 L696.162 1438.07 L696.162 1449.72 Q697.563 1449.24 698.963 1449.02 Q700.364 1448.77 701.764 1448.77 Q709.721 1448.77 714.368 1453.13 Q719.015 1457.49 719.015 1464.93 Q719.015 1472.6 714.241 1476.87 Q709.467 1481.1 700.778 1481.1 Q697.786 1481.1 694.666 1480.59 Q691.579 1480.08 688.269 1479.07 L688.269 1472.6 Q691.133 1474.16 694.189 1474.93 Q697.245 1475.69 700.65 1475.69 Q706.157 1475.69 709.371 1472.8 Q712.586 1469.9 712.586 1464.93 Q712.586 1459.97 709.371 1457.07 Q706.157 1454.18 700.65 1454.18 Q698.072 1454.18 695.494 1454.75 Q692.948 1455.32 690.274 1456.53 L690.274 1432.66 Z" fill="#000000" fill-rule="nonzero" fill-opacity="1" /><path clip-path="url(#clip340)" d="M1032.68 1474.77 L1043.18 1474.77 L1043.18 1438.52 L1031.75 1440.81 L1031.75 1434.95 L1043.12 1432.66 L1049.55 1432.66 L1049.55 1474.77 L1060.05 1474.77 L1060.05 1480.18 L1032.68 1480.18 L1032.68 1474.77 Z" fill="#000000" fill-rule="nonzero" fill-opacity="1" /><path clip-path="url(#clip340)" d="M1073.04 1472.1 L1079.75 1472.1 L1079.75 1480.18 L1073.04 1480.18 L1073.04 1472.1 Z" fill="#000000" fill-rule="nonzero" fill-opacity="1" /><path clip-path="url(#clip340)" d="M1107.51 1436.89 Q1102.54 1436.89 1100.03 1441.79 Q1097.54 1446.66 1097.54 1456.47 Q1097.54 1466.24 1100.03 1471.14 Q1102.54 1476.01 1107.51 1476.01 Q1112.5 1476.01 1114.99 1471.14 Q1117.5 1466.24 1117.5 1456.47 Q1117.5 1446.66 1114.99 1441.79 Q1112.5 1436.89 1107.51 1436.89 M1107.51 1431.8 Q1115.49 1431.8 1119.7 1438.13 Q1123.93 1444.44 1123.93 1456.47 Q1123.93 1468.47 1119.7 1474.8 Q1115.49 1481.1 1107.51 1481.1 Q1099.52 1481.1 1095.28 1474.8 Q1091.08 1468.47 1091.08 1456.47 Q1091.08 1444.44 1095.28 1438.13 Q1099.52 1431.8 1107.51 1431.8 Z" fill="#000000" fill-rule="nonzero" fill-opacity="1" /><path clip-path="url(#clip340)" d="M1439.02 1474.77 L1449.53 1474.77 L1449.53 1438.52 L1438.1 1440.81 L1438.1 1434.95 L1449.46 1432.66 L1455.89 1432.66 L1455.89 1474.77 L1466.4 1474.77 L1466.4 1480.18 L1439.02 1480.18 L1439.02 1474.77 Z" fill="#000000" fill-rule="nonzero" fill-opacity="1" /><path clip-path="url(#clip340)" d="M1479.38 1472.1 L1486.1 1472.1 L1486.1 1480.18 L1479.38 1480.18 L1479.38 1472.1 Z" fill="#000000" fill-rule="nonzero" fill-opacity="1" /><path clip-path="url(#clip340)" d="M1500.17 1432.66 L1525.41 1432.66 L1525.41 1438.07 L1506.05 1438.07 L1506.05 1449.72 Q1507.45 1449.24 1508.85 1449.02 Q1510.26 1448.77 1511.66 1448.77 Q1519.61 1448.77 1524.26 1453.13 Q1528.91 1457.49 1528.91 1464.93 Q1528.91 1472.6 1524.13 1476.87 Q1519.36 1481.1 1510.67 1481.1 Q1507.68 1481.1 1504.56 1480.59 Q1501.47 1480.08 1498.16 1479.07 L1498.16 1472.6 Q1501.03 1474.16 1504.08 1474.93 Q1507.14 1475.69 1510.54 1475.69 Q1516.05 1475.69 1519.26 1472.8 Q1522.48 1469.9 1522.48 1464.93 Q1522.48 1459.97 1519.26 1457.07 Q1516.05 1454.18 1510.54 1454.18 Q1507.96 1454.18 1505.39 1454.75 Q1502.84 1455.32 1500.17 1456.53 L1500.17 1432.66 Z" fill="#000000" fill-rule="nonzero" fill-opacity="1" /><path clip-path="url(#clip340)" d="M1849.62 1474.77 L1872.06 1474.77 L1872.06 1480.18 L1841.88 1480.18 L1841.88 1474.77 Q1845.54 1470.98 1851.85 1464.62 Q1858.18 1458.22 1859.8 1456.37 Q1862.89 1452.9 1864.1 1450.52 Q1865.34 1448.1 1865.34 1445.77 Q1865.34 1441.99 1862.67 1439.6 Q1860.03 1437.21 1855.76 1437.21 Q1852.74 1437.21 1849.36 1438.26 Q1846.02 1439.31 1842.2 1441.44 L1842.2 1434.95 Q1846.09 1433.39 1849.46 1432.6 Q1852.83 1431.8 1855.63 1431.8 Q1863.02 1431.8 1867.41 1435.49 Q1871.8 1439.18 1871.8 1445.36 Q1871.8 1448.29 1870.69 1450.93 Q1869.61 1453.54 1866.71 1457.1 Q1865.91 1458.03 1861.65 1462.45 Q1857.38 1466.84 1849.62 1474.77 Z" fill="#000000" fill-rule="nonzero" fill-opacity="1" /><path clip-path="url(#clip340)" d="M1885.55 1472.1 L1892.27 1472.1 L1892.27 1480.18 L1885.55 1480.18 L1885.55 1472.1 Z" fill="#000000" fill-rule="nonzero" fill-opacity="1" /><path clip-path="url(#clip340)" d="M1920.02 1436.89 Q1915.06 1436.89 1912.54 1441.79 Q1910.06 1446.66 1910.06 1456.47 Q1910.06 1466.24 1912.54 1471.14 Q1915.06 1476.01 1920.02 1476.01 Q1925.02 1476.01 1927.5 1471.14 Q1930.02 1466.24 1930.02 1456.47 Q1930.02 1446.66 1927.5 1441.79 Q1925.02 1436.89 1920.02 1436.89 M1920.02 1431.8 Q1928.01 1431.8 1932.21 1438.13 Q1936.45 1444.44 1936.45 1456.47 Q1936.45 1468.47 1932.21 1474.8 Q1928.01 1481.1 1920.02 1481.1 Q1912.03 1481.1 1907.8 1474.8 Q1903.6 1468.47 1903.6 1456.47 Q1903.6 1444.44 1907.8 1438.13 Q1912.03 1431.8 1920.02 1431.8 Z" fill="#000000" fill-rule="nonzero" fill-opacity="1" /><path clip-path="url(#clip340)" d="M2255.96 1474.77 L2278.4 1474.77 L2278.4 1480.18 L2248.23 1480.18 L2248.23 1474.77 Q2251.89 1470.98 2258.19 1464.62 Q2264.53 1458.22 2266.15 1456.37 Q2269.24 1452.9 2270.45 1450.52 Q2271.69 1448.1 2271.69 1445.77 Q2271.69 1441.99 2269.01 1439.6 Q2266.37 1437.21 2262.11 1437.21 Q2259.08 1437.21 2255.71 1438.26 Q2252.37 1439.31 2248.55 1441.44 L2248.55 1434.95 Q2252.43 1433.39 2255.81 1432.6 Q2259.18 1431.8 2261.98 1431.8 Q2269.36 1431.8 2273.76 1435.49 Q2278.15 1439.18 2278.15 1445.36 Q2278.15 1448.29 2277.04 1450.93 Q2275.95 1453.54 2273.06 1457.1 Q2272.26 1458.03 2268 1462.45 Q2263.73 1466.84 2255.96 1474.77 Z" fill="#000000" fill-rule="nonzero" fill-opacity="1" /><path clip-path="url(#clip340)" d="M2291.9 1472.1 L2298.61 1472.1 L2298.61 1480.18 L2291.9 1480.18 L2291.9 1472.1 Z" fill="#000000" fill-rule="nonzero" fill-opacity="1" /><path clip-path="url(#clip340)" d="M2312.68 1432.66 L2337.92 1432.66 L2337.92 1438.07 L2318.57 1438.07 L2318.57 1449.72 Q2319.97 1449.24 2321.37 1449.02 Q2322.77 1448.77 2324.17 1448.77 Q2332.13 1448.77 2336.78 1453.13 Q2341.42 1457.49 2341.42 1464.93 Q2341.42 1472.6 2336.65 1476.87 Q2331.88 1481.1 2323.19 1481.1 Q2320.19 1481.1 2317.08 1480.59 Q2313.99 1480.08 2310.68 1479.07 L2310.68 1472.6 Q2313.54 1474.16 2316.6 1474.93 Q2319.65 1475.69 2323.06 1475.69 Q2328.57 1475.69 2331.78 1472.8 Q2334.99 1469.9 2334.99 1464.93 Q2334.99 1459.97 2331.78 1457.07 Q2328.57 1454.18 2323.06 1454.18 Q2320.48 1454.18 2317.9 1454.75 Q2315.36 1455.32 2312.68 1456.53 L2312.68 1432.66 Z" fill="#000000" fill-rule="nonzero" fill-opacity="1" /><path clip-path="url(#clip340)" d="M1359.83 1516.76 Q1359.83 1517.49 1359.68 1518.1 L1357.55 1531.65 Q1357.43 1532.67 1357.2 1533.06 Q1357.01 1533.44 1356.4 1533.44 Q1355.45 1533.44 1355.45 1532.45 Q1355.45 1531.88 1355.68 1530.96 Q1356.33 1526.66 1356.33 1524.72 Q1356.33 1523.43 1356.06 1522.47 Q1355.83 1521.48 1355.45 1520.8 Q1355.11 1520.11 1354.31 1519.66 Q1353.51 1519.2 1352.75 1518.93 Q1351.99 1518.67 1350.62 1518.55 Q1349.25 1518.4 1348.07 1518.36 Q1346.89 1518.33 1344.95 1518.33 Q1340.72 1518.33 1340.04 1518.48 Q1339.31 1518.67 1338.93 1519.24 Q1338.59 1519.77 1338.21 1521.37 L1327.86 1562.74 L1327.55 1564.38 Q1327.55 1565.29 1328.12 1565.6 Q1328.69 1565.9 1330.45 1566.09 Q1332.96 1566.28 1335.43 1566.28 Q1335.51 1566.28 1335.66 1566.28 Q1336.5 1566.28 1336.84 1566.32 Q1337.18 1566.32 1337.52 1566.4 Q1337.87 1566.47 1337.94 1566.66 Q1338.06 1566.82 1338.06 1567.12 Q1338.06 1567.84 1337.75 1568.22 Q1337.45 1568.57 1337.14 1568.64 Q1336.88 1568.68 1336.34 1568.68 Q1335.28 1568.68 1333 1568.6 Q1330.71 1568.53 1329.57 1568.53 L1323.1 1568.45 L1316.48 1568.53 Q1315.45 1568.53 1313.28 1568.6 Q1311.11 1568.68 1310.08 1568.68 Q1308.75 1568.68 1308.75 1567.73 Q1308.75 1566.66 1309.25 1566.47 Q1309.78 1566.28 1312.02 1566.28 Q1315.18 1566.28 1316.9 1566.13 Q1318.61 1565.98 1319.52 1565.45 Q1320.47 1564.91 1320.74 1564.38 Q1321.01 1563.81 1321.31 1562.51 L1331.78 1520.91 Q1332.08 1520 1332.08 1519.28 Q1332.08 1518.9 1331.97 1518.74 Q1331.89 1518.59 1331.4 1518.48 Q1330.9 1518.33 1329.87 1518.33 L1326.83 1518.33 Q1323.71 1518.33 1321.77 1518.48 Q1319.86 1518.59 1318.04 1519.16 Q1316.25 1519.73 1315.18 1520.53 Q1314.16 1521.33 1313.01 1522.97 Q1311.87 1524.61 1311.03 1526.58 Q1310.23 1528.56 1309.09 1531.8 Q1308.71 1532.86 1308.48 1533.17 Q1308.29 1533.44 1307.76 1533.44 Q1307.38 1533.44 1307.08 1533.21 Q1306.81 1532.94 1306.81 1532.6 Q1307.19 1531.34 1307.27 1531.19 L1311.95 1517.45 Q1312.33 1516.35 1312.67 1516.16 Q1313.05 1515.93 1314.46 1515.93 L1357.7 1515.93 Q1358.38 1515.93 1358.61 1515.93 Q1358.84 1515.93 1359.22 1516 Q1359.6 1516.08 1359.71 1516.27 Q1359.83 1516.46 1359.83 1516.76 Z" fill="#000000" fill-rule="nonzero" fill-opacity="1" /><polyline clip-path="url(#clip340)" style="stroke:#000000; stroke-linecap:round; stroke-linejoin:round; stroke-width:4; stroke-opacity:1; fill:none" points="305.948,1401.58 305.948,123.472 "/>
<polyline clip-path="url(#clip340)" style="stroke:#000000; stroke-linecap:round; stroke-linejoin:round; stroke-width:4; stroke-opacity:1; fill:none" points="305.948,1247.6 324.846,1247.6 "/>
<polyline clip-path="url(#clip340)" style="stroke:#000000; stroke-linecap:round; stroke-linejoin:round; stroke-width:4; stroke-opacity:1; fill:none" points="305.948,993.432 324.846,993.432 "/>
<polyline clip-path="url(#clip340)" style="stroke:#000000; stroke-linecap:round; stroke-linejoin:round; stroke-width:4; stroke-opacity:1; fill:none" points="305.948,739.262 324.846,739.262 "/>
<polyline clip-path="url(#clip340)" style="stroke:#000000; stroke-linecap:round; stroke-linejoin:round; stroke-width:4; stroke-opacity:1; fill:none" points="305.948,485.092 324.846,485.092 "/>
<polyline clip-path="url(#clip340)" style="stroke:#000000; stroke-linecap:round; stroke-linejoin:round; stroke-width:4; stroke-opacity:1; fill:none" points="305.948,230.922 324.846,230.922 "/>
<path clip-path="url(#clip340)" d="M122.9 1248.22 L163.704 1248.22 L163.704 1253.63 L122.9 1253.63 L122.9 1248.22 Z" fill="#000000" fill-rule="nonzero" fill-opacity="1" /><path clip-path="url(#clip340)" d="M178.696 1265.95 L189.199 1265.95 L189.199 1229.7 L177.773 1231.99 L177.773 1226.13 L189.135 1223.84 L195.565 1223.84 L195.565 1265.95 L206.068 1265.95 L206.068 1271.36 L178.696 1271.36 L178.696 1265.95 Z" fill="#000000" fill-rule="nonzero" fill-opacity="1" /><path clip-path="url(#clip340)" d="M219.054 1263.28 L225.77 1263.28 L225.77 1271.36 L219.054 1271.36 L219.054 1263.28 Z" fill="#000000" fill-rule="nonzero" fill-opacity="1" /><path clip-path="url(#clip340)" d="M253.524 1228.08 Q248.559 1228.08 246.045 1232.98 Q243.562 1237.85 243.562 1247.65 Q243.562 1257.42 246.045 1262.32 Q248.559 1267.19 253.524 1267.19 Q258.522 1267.19 261.004 1262.32 Q263.519 1257.42 263.519 1247.65 Q263.519 1237.85 261.004 1232.98 Q258.522 1228.08 253.524 1228.08 M253.524 1222.98 Q261.513 1222.98 265.715 1229.32 Q269.948 1235.62 269.948 1247.65 Q269.948 1259.65 265.715 1265.98 Q261.513 1272.28 253.524 1272.28 Q245.535 1272.28 241.302 1265.98 Q237.101 1259.65 237.101 1247.65 Q237.101 1235.62 241.302 1229.32 Q245.535 1222.98 253.524 1222.98 Z" fill="#000000" fill-rule="nonzero" fill-opacity="1" /><path clip-path="url(#clip340)" d="M124.269 994.053 L165.073 994.053 L165.073 999.463 L124.269 999.463 L124.269 994.053 Z" fill="#000000" fill-rule="nonzero" fill-opacity="1" /><path clip-path="url(#clip340)" d="M192.7 973.905 Q187.735 973.905 185.22 978.807 Q182.738 983.676 182.738 993.48 Q182.738 1003.25 185.22 1008.15 Q187.735 1013.02 192.7 1013.02 Q197.697 1013.02 200.18 1008.15 Q202.694 1003.25 202.694 993.48 Q202.694 983.676 200.18 978.807 Q197.697 973.905 192.7 973.905 M192.7 968.812 Q200.689 968.812 204.89 975.146 Q209.124 981.448 209.124 993.48 Q209.124 1005.48 204.89 1011.81 Q200.689 1018.11 192.7 1018.11 Q184.711 1018.11 180.478 1011.81 Q176.277 1005.48 176.277 993.48 Q176.277 981.448 180.478 975.146 Q184.711 968.812 192.7 968.812 Z" fill="#000000" fill-rule="nonzero" fill-opacity="1" /><path clip-path="url(#clip340)" d="M220.423 1009.11 L227.139 1009.11 L227.139 1017.19 L220.423 1017.19 L220.423 1009.11 Z" fill="#000000" fill-rule="nonzero" fill-opacity="1" /><path clip-path="url(#clip340)" d="M241.207 969.672 L266.447 969.672 L266.447 975.083 L247.095 975.083 L247.095 986.732 Q248.496 986.255 249.896 986.032 Q251.296 985.777 252.697 985.777 Q260.654 985.777 265.301 990.138 Q269.948 994.498 269.948 1001.95 Q269.948 1009.62 265.174 1013.88 Q260.399 1018.11 251.71 1018.11 Q248.718 1018.11 245.599 1017.61 Q242.512 1017.1 239.202 1016.08 L239.202 1009.62 Q242.066 1011.18 245.122 1011.94 Q248.177 1012.7 251.583 1012.7 Q257.089 1012.7 260.304 1009.81 Q263.519 1006.91 263.519 1001.95 Q263.519 996.981 260.304 994.084 Q257.089 991.188 251.583 991.188 Q249.005 991.188 246.427 991.761 Q243.88 992.334 241.207 993.543 L241.207 969.672 Z" fill="#000000" fill-rule="nonzero" fill-opacity="1" /><path clip-path="url(#clip340)" d="M191.332 719.735 Q186.366 719.735 183.852 724.637 Q181.369 729.506 181.369 739.31 Q181.369 749.081 183.852 753.983 Q186.366 758.852 191.332 758.852 Q196.329 758.852 198.811 753.983 Q201.326 749.081 201.326 739.31 Q201.326 729.506 198.811 724.637 Q196.329 719.735 191.332 719.735 M191.332 714.642 Q199.32 714.642 203.522 720.976 Q207.755 727.278 207.755 739.31 Q207.755 751.309 203.522 757.643 Q199.32 763.945 191.332 763.945 Q183.343 763.945 179.109 757.643 Q174.908 751.309 174.908 739.31 Q174.908 727.278 179.109 720.976 Q183.343 714.642 191.332 714.642 Z" fill="#000000" fill-rule="nonzero" fill-opacity="1" /><path clip-path="url(#clip340)" d="M219.054 754.937 L225.77 754.937 L225.77 763.022 L219.054 763.022 L219.054 754.937 Z" fill="#000000" fill-rule="nonzero" fill-opacity="1" /><path clip-path="url(#clip340)" d="M253.524 719.735 Q248.559 719.735 246.045 724.637 Q243.562 729.506 243.562 739.31 Q243.562 749.081 246.045 753.983 Q248.559 758.852 253.524 758.852 Q258.522 758.852 261.004 753.983 Q263.519 749.081 263.519 739.31 Q263.519 729.506 261.004 724.637 Q258.522 719.735 253.524 719.735 M253.524 714.642 Q261.513 714.642 265.715 720.976 Q269.948 727.278 269.948 739.31 Q269.948 751.309 265.715 757.643 Q261.513 763.945 253.524 763.945 Q245.535 763.945 241.302 757.643 Q237.101 751.309 237.101 739.31 Q237.101 727.278 241.302 720.976 Q245.535 714.642 253.524 714.642 Z" fill="#000000" fill-rule="nonzero" fill-opacity="1" /><path clip-path="url(#clip340)" d="M192.7 465.565 Q187.735 465.565 185.22 470.467 Q182.738 475.336 182.738 485.14 Q182.738 494.911 185.22 499.812 Q187.735 504.682 192.7 504.682 Q197.697 504.682 200.18 499.812 Q202.694 494.911 202.694 485.14 Q202.694 475.336 200.18 470.467 Q197.697 465.565 192.7 465.565 M192.7 460.472 Q200.689 460.472 204.89 466.806 Q209.124 473.108 209.124 485.14 Q209.124 497.139 204.89 503.473 Q200.689 509.775 192.7 509.775 Q184.711 509.775 180.478 503.473 Q176.277 497.139 176.277 485.14 Q176.277 473.108 180.478 466.806 Q184.711 460.472 192.7 460.472 Z" fill="#000000" fill-rule="nonzero" fill-opacity="1" /><path clip-path="url(#clip340)" d="M220.423 500.767 L227.139 500.767 L227.139 508.852 L220.423 508.852 L220.423 500.767 Z" fill="#000000" fill-rule="nonzero" fill-opacity="1" /><path clip-path="url(#clip340)" d="M241.207 461.332 L266.447 461.332 L266.447 466.743 L247.095 466.743 L247.095 478.392 Q248.496 477.914 249.896 477.692 Q251.296 477.437 252.697 477.437 Q260.654 477.437 265.301 481.798 Q269.948 486.158 269.948 493.606 Q269.948 501.277 265.174 505.542 Q260.399 509.775 251.71 509.775 Q248.718 509.775 245.599 509.266 Q242.512 508.756 239.202 507.738 L239.202 501.277 Q242.066 502.836 245.122 503.6 Q248.177 504.364 251.583 504.364 Q257.089 504.364 260.304 501.468 Q263.519 498.571 263.519 493.606 Q263.519 488.641 260.304 485.744 Q257.089 482.848 251.583 482.848 Q249.005 482.848 246.427 483.421 Q243.88 483.994 241.207 485.203 L241.207 461.332 Z" fill="#000000" fill-rule="nonzero" fill-opacity="1" /><path clip-path="url(#clip340)" d="M178.696 249.271 L189.199 249.271 L189.199 213.018 L177.773 215.31 L177.773 209.453 L189.135 207.162 L195.565 207.162 L195.565 249.271 L206.068 249.271 L206.068 254.682 L178.696 254.682 L178.696 249.271 Z" fill="#000000" fill-rule="nonzero" fill-opacity="1" /><path clip-path="url(#clip340)" d="M219.054 246.597 L225.77 246.597 L225.77 254.682 L219.054 254.682 L219.054 246.597 Z" fill="#000000" fill-rule="nonzero" fill-opacity="1" /><path clip-path="url(#clip340)" d="M253.524 211.395 Q248.559 211.395 246.045 216.296 Q243.562 221.166 243.562 230.969 Q243.562 240.741 246.045 245.642 Q248.559 250.512 253.524 250.512 Q258.522 250.512 261.004 245.642 Q263.519 240.741 263.519 230.969 Q263.519 221.166 261.004 216.296 Q258.522 211.395 253.524 211.395 M253.524 206.302 Q261.513 206.302 265.715 212.636 Q269.948 218.938 269.948 230.969 Q269.948 242.969 265.715 249.303 Q261.513 255.605 253.524 255.605 Q245.535 255.605 241.302 249.303 Q237.101 242.969 237.101 230.969 Q237.101 218.938 241.302 212.636 Q245.535 206.302 253.524 206.302 Z" fill="#000000" fill-rule="nonzero" fill-opacity="1" /><path clip-path="url(#clip340)" d="M18.3474 795.521 L38.2155 800.431 Q39.4715 800.773 39.6237 801.002 Q39.776 801.192 39.776 801.801 Q39.776 802.981 38.9767 802.981 Q38.9006 802.981 37.911 802.867 Q36.8833 802.752 35.0183 802.752 Q28.1292 802.752 24.0566 806.102 Q19.984 809.413 19.984 815.313 Q19.984 820.413 22.5722 825.551 Q25.1604 830.651 29.3852 834.305 Q32.5824 837.046 36.6169 839.063 Q40.6514 841.042 44.3434 841.994 Q48.0353 842.907 50.8138 843.326 Q53.5923 843.745 55.6096 843.745 Q58.5403 843.745 61.0143 843.136 Q63.4883 842.489 65.2391 841.347 Q66.9519 840.205 68.284 838.759 Q69.5781 837.274 70.3393 835.561 Q71.1006 833.811 71.4812 832.06 Q71.8237 830.309 71.8237 828.482 Q71.8237 821.136 66.1145 814.133 Q61.433 808.576 53.7826 806.254 Q53.0214 806.064 53.0214 805.264 Q53.0214 804.313 53.7826 804.313 Q53.9348 804.313 54.6961 804.503 Q55.4192 804.694 56.9036 805.264 Q58.35 805.835 59.9866 806.711 Q61.6233 807.586 63.6786 809.223 Q65.7339 810.859 67.5228 812.877 Q70.4916 816.302 72.3566 820.641 Q74.2216 824.98 74.2216 829.738 Q74.2216 835.676 71.5954 840.471 Q68.9691 845.267 64.0592 848.084 Q59.1493 850.862 52.8691 850.862 Q46.2464 850.862 39.7379 847.817 Q33.2294 844.772 28.3956 839.938 Q23.5618 835.105 20.5549 828.71 Q17.5481 822.316 17.5481 815.922 Q17.5481 813.486 18.1951 811.316 Q18.8422 809.147 19.6415 807.853 Q20.4408 806.52 21.6207 805.341 Q22.7625 804.161 23.2954 803.78 Q23.8282 803.361 24.4753 802.981 L18.4996 797.538 Q17.5481 796.586 17.5481 796.358 Q17.5481 795.901 17.8145 795.711 Q18.0809 795.521 18.3474 795.521 Z" fill="#000000" fill-rule="nonzero" fill-opacity="1" /><path clip-path="url(#clip340)" d="M53.0214 786.314 Q39.8521 786.314 29.233 781.404 Q24.7798 779.311 21.0497 776.38 Q17.3197 773.449 15.6831 771.508 Q14.0464 769.567 14.0464 769.034 Q14.0464 768.273 14.8077 768.235 Q15.1883 768.235 16.1398 769.262 Q28.9285 781.823 53.0214 781.785 Q77.1904 781.785 89.4843 769.567 Q90.8164 768.235 91.2351 768.235 Q91.9963 768.235 91.9963 769.034 Q91.9963 769.567 90.4358 771.432 Q88.8753 773.297 85.2975 776.19 Q81.7197 779.082 77.3427 781.176 Q66.7235 786.314 53.0214 786.314 Z" fill="#000000" fill-rule="nonzero" fill-opacity="1" /><path clip-path="url(#clip340)" d="M20.593 709.291 Q21.3162 709.291 21.9251 709.443 L35.475 711.575 Q36.5027 711.689 36.8833 711.917 Q37.2639 712.108 37.2639 712.717 Q37.2639 713.668 36.2743 713.668 Q35.7034 713.668 34.7899 713.44 Q30.489 712.793 28.5478 712.793 Q27.2538 712.793 26.3022 713.059 Q25.3126 713.287 24.6275 713.668 Q23.9424 714.011 23.4857 714.81 Q23.0289 715.609 22.7625 716.37 Q22.4961 717.132 22.3819 718.502 Q22.2296 719.872 22.1916 721.052 Q22.1535 722.232 22.1535 724.173 Q22.1535 728.398 22.3058 729.083 Q22.4961 729.806 23.067 730.187 Q23.5999 730.529 25.1984 730.91 L66.5713 741.263 L68.2079 741.567 Q69.1214 741.567 69.4259 740.996 Q69.7304 740.425 69.9207 738.674 Q70.111 736.162 70.111 733.688 Q70.111 733.612 70.111 733.46 Q70.111 732.623 70.149 732.28 Q70.149 731.938 70.2252 731.595 Q70.3013 731.252 70.4916 731.176 Q70.6438 731.062 70.9483 731.062 Q71.6715 731.062 72.0521 731.367 Q72.3947 731.671 72.4708 731.976 Q72.5088 732.242 72.5088 732.775 Q72.5088 733.841 72.4327 736.124 Q72.3566 738.408 72.3566 739.55 L72.2805 746.02 L72.3566 752.643 Q72.3566 753.671 72.4327 755.84 Q72.5088 758.01 72.5088 759.037 Q72.5088 760.369 71.5573 760.369 Q70.4916 760.369 70.3013 759.875 Q70.111 759.342 70.111 757.096 Q70.111 753.937 69.9587 752.224 Q69.8065 750.512 69.2736 749.598 Q68.7408 748.647 68.2079 748.38 Q67.637 748.114 66.3429 747.809 L24.7417 737.342 Q23.8282 737.038 23.1051 737.038 Q22.7244 737.038 22.5722 737.152 Q22.4199 737.228 22.3058 737.723 Q22.1535 738.218 22.1535 739.245 L22.1535 742.29 Q22.1535 745.411 22.3058 747.352 Q22.4199 749.256 22.9909 751.082 Q23.5618 752.871 24.3611 753.937 Q25.1604 754.965 26.797 756.107 Q28.4337 757.248 30.4129 758.086 Q32.3921 758.885 35.6273 760.027 Q36.693 760.408 36.9975 760.636 Q37.2639 760.826 37.2639 761.359 Q37.2639 761.74 37.0356 762.044 Q36.7691 762.311 36.4266 762.311 Q35.1705 761.93 35.0183 761.854 L21.2781 757.172 Q20.1743 756.792 19.984 756.449 Q19.7556 756.069 19.7556 754.66 L19.7556 711.422 Q19.7556 710.737 19.7556 710.509 Q19.7556 710.281 19.8318 709.9 Q19.9079 709.519 20.0982 709.405 Q20.2885 709.291 20.593 709.291 Z" fill="#000000" fill-rule="nonzero" fill-opacity="1" /><path clip-path="url(#clip340)" d="M91.2351 704.121 Q90.8545 704.121 89.9029 703.132 Q77.1143 690.571 53.0214 690.571 Q28.8523 690.571 16.6346 702.637 Q15.2263 704.121 14.8077 704.121 Q14.0464 704.121 14.0464 703.36 Q14.0464 702.827 15.6069 700.962 Q17.1675 699.059 20.7452 696.204 Q24.323 693.312 28.7001 691.18 Q39.3192 686.042 53.0214 686.042 Q66.1906 686.042 76.8098 690.952 Q81.263 693.045 84.993 695.976 Q88.723 698.907 90.3597 700.848 Q91.9963 702.789 91.9963 703.36 Q91.9963 704.121 91.2351 704.121 Z" fill="#000000" fill-rule="nonzero" fill-opacity="1" /><path clip-path="url(#clip340)" d="M577.443 12.096 L585.626 12.096 L585.626 36.8875 L615.36 36.8875 L615.36 12.096 L623.543 12.096 L623.543 72.576 L615.36 72.576 L615.36 43.7741 L585.626 43.7741 L585.626 72.576 L577.443 72.576 L577.443 12.096 Z" fill="#000000" fill-rule="nonzero" fill-opacity="1" /><path clip-path="url(#clip340)" d="M678.311 48.0275 L678.311 51.6733 L644.04 51.6733 Q644.526 59.3701 648.658 63.421 Q652.831 67.4314 660.244 67.4314 Q664.538 67.4314 668.548 66.3781 Q672.599 65.3249 676.569 63.2184 L676.569 70.267 Q672.559 71.9684 668.346 72.8596 Q664.133 73.7508 659.798 73.7508 Q648.942 73.7508 642.582 67.4314 Q636.262 61.1119 636.262 50.3365 Q636.262 39.1965 642.258 32.6746 Q648.294 26.1121 658.502 26.1121 Q667.657 26.1121 672.964 32.0264 Q678.311 37.9003 678.311 48.0275 M670.857 45.84 Q670.776 39.7232 667.414 36.0774 Q664.092 32.4315 658.583 32.4315 Q652.345 32.4315 648.577 35.9558 Q644.85 39.4801 644.283 45.8805 L670.857 45.84 Z" fill="#000000" fill-rule="nonzero" fill-opacity="1" /><path clip-path="url(#clip340)" d="M711.164 49.7694 Q702.13 49.7694 698.646 51.8354 Q695.163 53.9013 695.163 58.8839 Q695.163 62.8538 697.755 65.2034 Q700.388 67.5124 704.885 67.5124 Q711.083 67.5124 714.81 63.1374 Q718.577 58.7219 718.577 51.4303 L718.577 49.7694 L711.164 49.7694 M726.031 46.6907 L726.031 72.576 L718.577 72.576 L718.577 65.6895 Q716.025 69.8214 712.217 71.8063 Q708.409 73.7508 702.9 73.7508 Q695.932 73.7508 691.8 69.8619 Q687.709 65.9325 687.709 59.3701 Q687.709 51.7138 692.813 47.825 Q697.958 43.9361 708.126 43.9361 L718.577 43.9361 L718.577 43.2069 Q718.577 38.0623 715.174 35.2672 Q711.812 32.4315 705.695 32.4315 Q701.806 32.4315 698.12 33.3632 Q694.433 34.295 691.031 36.1584 L691.031 29.2718 Q695.122 27.692 698.97 26.9223 Q702.819 26.1121 706.465 26.1121 Q716.308 26.1121 721.169 31.2163 Q726.031 36.3204 726.031 46.6907 Z" fill="#000000" fill-rule="nonzero" fill-opacity="1" /><path clip-path="url(#clip340)" d="M748.756 14.324 L748.756 27.2059 L764.109 27.2059 L764.109 32.9987 L748.756 32.9987 L748.756 57.6282 Q748.756 63.1779 750.255 64.7578 Q751.794 66.3376 756.453 66.3376 L764.109 66.3376 L764.109 72.576 L756.453 72.576 Q747.824 72.576 744.543 69.3758 Q741.262 66.1351 741.262 57.6282 L741.262 32.9987 L735.793 32.9987 L735.793 27.2059 L741.262 27.2059 L741.262 14.324 L748.756 14.324 Z" fill="#000000" fill-rule="nonzero" fill-opacity="1" /><path clip-path="url(#clip340)" d="M845.897 16.7545 L845.897 25.383 Q841.765 21.5346 837.066 19.6307 Q832.407 17.7268 827.141 17.7268 Q816.771 17.7268 811.262 24.0867 Q805.752 30.4061 805.752 42.3968 Q805.752 54.3469 811.262 60.7069 Q816.771 67.0263 827.141 67.0263 Q832.407 67.0263 837.066 65.1223 Q841.765 63.2184 845.897 59.3701 L845.897 67.9175 Q841.603 70.8341 836.782 72.2924 Q832.002 73.7508 826.655 73.7508 Q812.922 73.7508 805.023 65.3654 Q797.124 56.9395 797.124 42.3968 Q797.124 27.8135 805.023 19.4281 Q812.922 11.0023 826.655 11.0023 Q832.083 11.0023 836.863 12.4606 Q841.684 13.8784 845.897 16.7545 Z" fill="#000000" fill-rule="nonzero" fill-opacity="1" /><path clip-path="url(#clip340)" d="M878.831 49.7694 Q869.797 49.7694 866.313 51.8354 Q862.83 53.9013 862.83 58.8839 Q862.83 62.8538 865.422 65.2034 Q868.055 67.5124 872.552 67.5124 Q878.75 67.5124 882.476 63.1374 Q886.244 58.7219 886.244 51.4303 L886.244 49.7694 L878.831 49.7694 M893.697 46.6907 L893.697 72.576 L886.244 72.576 L886.244 65.6895 Q883.692 69.8214 879.884 71.8063 Q876.076 73.7508 870.567 73.7508 Q863.599 73.7508 859.467 69.8619 Q855.376 65.9325 855.376 59.3701 Q855.376 51.7138 860.48 47.825 Q865.625 43.9361 875.792 43.9361 L886.244 43.9361 L886.244 43.2069 Q886.244 38.0623 882.841 35.2672 Q879.479 32.4315 873.362 32.4315 Q869.473 32.4315 865.787 33.3632 Q862.1 34.295 858.698 36.1584 L858.698 29.2718 Q862.789 27.692 866.637 26.9223 Q870.486 26.1121 874.132 26.1121 Q883.975 26.1121 888.836 31.2163 Q893.697 36.3204 893.697 46.6907 Z" fill="#000000" fill-rule="nonzero" fill-opacity="1" /><path clip-path="url(#clip340)" d="M916.261 65.7705 L916.261 89.8329 L908.767 89.8329 L908.767 27.2059 L916.261 27.2059 L916.261 34.0924 Q918.611 30.0415 922.175 28.0971 Q925.781 26.1121 930.763 26.1121 Q939.027 26.1121 944.172 32.6746 Q949.357 39.2371 949.357 49.9314 Q949.357 60.6258 944.172 67.1883 Q939.027 73.7508 930.763 73.7508 Q925.781 73.7508 922.175 71.8063 Q918.611 69.8214 916.261 65.7705 M941.62 49.9314 Q941.62 41.7081 938.217 37.0496 Q934.855 32.3505 928.94 32.3505 Q923.026 32.3505 919.623 37.0496 Q916.261 41.7081 916.261 49.9314 Q916.261 58.1548 919.623 62.8538 Q923.026 67.5124 928.94 67.5124 Q934.855 67.5124 938.217 62.8538 Q941.62 58.1548 941.62 49.9314 Z" fill="#000000" fill-rule="nonzero" fill-opacity="1" /><path clip-path="url(#clip340)" d="M982.331 49.7694 Q973.298 49.7694 969.814 51.8354 Q966.33 53.9013 966.33 58.8839 Q966.33 62.8538 968.923 65.2034 Q971.556 67.5124 976.052 67.5124 Q982.25 67.5124 985.977 63.1374 Q989.744 58.7219 989.744 51.4303 L989.744 49.7694 L982.331 49.7694 M997.198 46.6907 L997.198 72.576 L989.744 72.576 L989.744 65.6895 Q987.192 69.8214 983.384 71.8063 Q979.577 73.7508 974.067 73.7508 Q967.1 73.7508 962.968 69.8619 Q958.876 65.9325 958.876 59.3701 Q958.876 51.7138 963.981 47.825 Q969.125 43.9361 979.293 43.9361 L989.744 43.9361 L989.744 43.2069 Q989.744 38.0623 986.342 35.2672 Q982.979 32.4315 976.863 32.4315 Q972.974 32.4315 969.287 33.3632 Q965.601 34.295 962.198 36.1584 L962.198 29.2718 Q966.29 27.692 970.138 26.9223 Q973.986 26.1121 977.632 26.1121 Q987.476 26.1121 992.337 31.2163 Q997.198 36.3204 997.198 46.6907 Z" fill="#000000" fill-rule="nonzero" fill-opacity="1" /><path clip-path="url(#clip340)" d="M1045.2 28.9478 L1045.2 35.9153 Q1042.04 34.1734 1038.84 33.3227 Q1035.68 32.4315 1032.44 32.4315 Q1025.19 32.4315 1021.18 37.0496 Q1017.17 41.6271 1017.17 49.9314 Q1017.17 58.2358 1021.18 62.8538 Q1025.19 67.4314 1032.44 67.4314 Q1035.68 67.4314 1038.84 66.5807 Q1042.04 65.6895 1045.2 63.9476 L1045.2 70.8341 Q1042.08 72.2924 1038.72 73.0216 Q1035.4 73.7508 1031.63 73.7508 Q1021.38 73.7508 1015.35 67.3098 Q1009.31 60.8689 1009.31 49.9314 Q1009.31 38.832 1015.39 32.472 Q1021.5 26.1121 1032.12 26.1121 Q1035.56 26.1121 1038.84 26.8413 Q1042.12 27.5299 1045.2 28.9478 Z" fill="#000000" fill-rule="nonzero" fill-opacity="1" /><path clip-path="url(#clip340)" d="M1058.16 27.2059 L1065.62 27.2059 L1065.62 72.576 L1058.16 72.576 L1058.16 27.2059 M1058.16 9.54393 L1065.62 9.54393 L1065.62 18.9825 L1058.16 18.9825 L1058.16 9.54393 Z" fill="#000000" fill-rule="nonzero" fill-opacity="1" /><path clip-path="url(#clip340)" d="M1088.59 14.324 L1088.59 27.2059 L1103.94 27.2059 L1103.94 32.9987 L1088.59 32.9987 L1088.59 57.6282 Q1088.59 63.1779 1090.09 64.7578 Q1091.62 66.3376 1096.28 66.3376 L1103.94 66.3376 L1103.94 72.576 L1096.28 72.576 Q1087.65 72.576 1084.37 69.3758 Q1081.09 66.1351 1081.09 57.6282 L1081.09 32.9987 L1075.62 32.9987 L1075.62 27.2059 L1081.09 27.2059 L1081.09 14.324 L1088.59 14.324 Z" fill="#000000" fill-rule="nonzero" fill-opacity="1" /><path clip-path="url(#clip340)" d="M1132.62 76.7889 Q1129.46 84.8907 1126.46 87.3618 Q1123.46 89.8329 1118.44 89.8329 L1112.49 89.8329 L1112.49 83.5945 L1116.86 83.5945 Q1119.94 83.5945 1121.64 82.1361 Q1123.34 80.6778 1125.41 75.2496 L1126.75 71.8468 L1108.4 27.2059 L1116.29 27.2059 L1130.47 62.6918 L1144.65 27.2059 L1152.55 27.2059 L1132.62 76.7889 Z" fill="#000000" fill-rule="nonzero" fill-opacity="1" /><path clip-path="url(#clip340)" d="M1206.79 32.4315 Q1200.8 32.4315 1197.31 37.1306 Q1193.83 41.7891 1193.83 49.9314 Q1193.83 58.0738 1197.27 62.7728 Q1200.76 67.4314 1206.79 67.4314 Q1212.75 67.4314 1216.23 62.7323 Q1219.71 58.0333 1219.71 49.9314 Q1219.71 41.8701 1216.23 37.1711 Q1212.75 32.4315 1206.79 32.4315 M1206.79 26.1121 Q1216.51 26.1121 1222.06 32.4315 Q1227.61 38.7509 1227.61 49.9314 Q1227.61 61.0714 1222.06 67.4314 Q1216.51 73.7508 1206.79 73.7508 Q1197.03 73.7508 1191.48 67.4314 Q1185.97 61.0714 1185.97 49.9314 Q1185.97 38.7509 1191.48 32.4315 Q1197.03 26.1121 1206.79 26.1121 Z" fill="#000000" fill-rule="nonzero" fill-opacity="1" /><path clip-path="url(#clip340)" d="M1262.94 9.54393 L1262.94 15.7418 L1255.81 15.7418 Q1251.8 15.7418 1250.22 17.3622 Q1248.68 18.9825 1248.68 23.1955 L1248.68 27.2059 L1260.95 27.2059 L1260.95 32.9987 L1248.68 32.9987 L1248.68 72.576 L1241.18 72.576 L1241.18 32.9987 L1234.05 32.9987 L1234.05 27.2059 L1241.18 27.2059 L1241.18 24.0462 Q1241.18 16.471 1244.71 13.0277 Q1248.23 9.54393 1255.89 9.54393 L1262.94 9.54393 Z" fill="#000000" fill-rule="nonzero" fill-opacity="1" /><path clip-path="url(#clip340)" d="M1302.92 14.324 L1302.92 27.2059 L1318.27 27.2059 L1318.27 32.9987 L1302.92 32.9987 L1302.92 57.6282 Q1302.92 63.1779 1304.42 64.7578 Q1305.96 66.3376 1310.62 66.3376 L1318.27 66.3376 L1318.27 72.576 L1310.62 72.576 Q1301.99 72.576 1298.71 69.3758 Q1295.43 66.1351 1295.43 57.6282 L1295.43 32.9987 L1289.96 32.9987 L1289.96 27.2059 L1295.43 27.2059 L1295.43 14.324 L1302.92 14.324 Z" fill="#000000" fill-rule="nonzero" fill-opacity="1" /><path clip-path="url(#clip340)" d="M1365.79 45.1919 L1365.79 72.576 L1358.34 72.576 L1358.34 45.4349 Q1358.34 38.994 1355.82 35.7938 Q1353.31 32.5936 1348.29 32.5936 Q1342.25 32.5936 1338.77 36.4419 Q1335.29 40.2903 1335.29 46.9338 L1335.29 72.576 L1327.79 72.576 L1327.79 9.54393 L1335.29 9.54393 L1335.29 34.2544 Q1337.96 30.163 1341.57 28.1376 Q1345.21 26.1121 1349.95 26.1121 Q1357.77 26.1121 1361.78 30.9732 Q1365.79 35.7938 1365.79 45.1919 Z" fill="#000000" fill-rule="nonzero" fill-opacity="1" /><path clip-path="url(#clip340)" d="M1419.46 48.0275 L1419.46 51.6733 L1385.19 51.6733 Q1385.68 59.3701 1389.81 63.421 Q1393.98 67.4314 1401.4 67.4314 Q1405.69 67.4314 1409.7 66.3781 Q1413.75 65.3249 1417.72 63.2184 L1417.72 70.267 Q1413.71 71.9684 1409.5 72.8596 Q1405.29 73.7508 1400.95 73.7508 Q1390.1 73.7508 1383.74 67.4314 Q1377.42 61.1119 1377.42 50.3365 Q1377.42 39.1965 1383.41 32.6746 Q1389.45 26.1121 1399.66 26.1121 Q1408.81 26.1121 1414.12 32.0264 Q1419.46 37.9003 1419.46 48.0275 M1412.01 45.84 Q1411.93 39.7232 1408.57 36.0774 Q1405.25 32.4315 1399.74 32.4315 Q1393.5 32.4315 1389.73 35.9558 Q1386 39.4801 1385.44 45.8805 L1412.01 45.84 Z" fill="#000000" fill-rule="nonzero" fill-opacity="1" /><path clip-path="url(#clip340)" d="M1457.06 12.096 L1495.95 12.096 L1495.95 15.5798 L1473.99 72.576 L1465.44 72.576 L1486.1 18.9825 L1457.06 18.9825 L1457.06 12.096 Z" fill="#000000" fill-rule="nonzero" fill-opacity="1" /><path clip-path="url(#clip340)" d="M1507.09 46.5287 L1528.92 46.5287 L1528.92 53.1722 L1507.09 53.1722 L1507.09 46.5287 Z" fill="#000000" fill-rule="nonzero" fill-opacity="1" /><path clip-path="url(#clip340)" d="M1577.37 14.0809 L1577.37 22.0612 Q1572.71 19.8332 1568.58 18.7395 Q1564.45 17.6457 1560.6 17.6457 Q1553.91 17.6457 1550.27 20.2383 Q1546.66 22.8309 1546.66 27.611 Q1546.66 31.6214 1549.05 33.6873 Q1551.48 35.7128 1558.21 36.9686 L1563.15 37.9813 Q1572.3 39.7232 1576.64 44.1387 Q1581.01 48.5136 1581.01 55.8863 Q1581.01 64.6767 1575.1 69.2137 Q1569.23 73.7508 1557.84 73.7508 Q1553.55 73.7508 1548.69 72.7785 Q1543.87 71.8063 1538.68 69.9024 L1538.68 61.4765 Q1543.67 64.2716 1548.45 65.6895 Q1553.23 67.1073 1557.84 67.1073 Q1564.85 67.1073 1568.66 64.3527 Q1572.47 61.598 1572.47 56.4939 Q1572.47 52.0379 1569.71 49.5264 Q1567 47.0148 1560.76 45.759 L1555.78 44.7868 Q1546.62 42.9639 1542.53 39.075 Q1538.44 35.1862 1538.44 28.2591 Q1538.44 20.2383 1544.07 15.6203 Q1549.74 11.0023 1559.67 11.0023 Q1563.92 11.0023 1568.34 11.7719 Q1572.75 12.5416 1577.37 14.0809 Z" fill="#000000" fill-rule="nonzero" fill-opacity="1" /><path clip-path="url(#clip340)" d="M1600.82 14.324 L1600.82 27.2059 L1616.18 27.2059 L1616.18 32.9987 L1600.82 32.9987 L1600.82 57.6282 Q1600.82 63.1779 1602.32 64.7578 Q1603.86 66.3376 1608.52 66.3376 L1616.18 66.3376 L1616.18 72.576 L1608.52 72.576 Q1599.89 72.576 1596.61 69.3758 Q1593.33 66.1351 1593.33 57.6282 L1593.33 32.9987 L1587.86 32.9987 L1587.86 27.2059 L1593.33 27.2059 L1593.33 14.324 L1600.82 14.324 Z" fill="#000000" fill-rule="nonzero" fill-opacity="1" /><path clip-path="url(#clip340)" d="M1646.6 49.7694 Q1637.56 49.7694 1634.08 51.8354 Q1630.6 53.9013 1630.6 58.8839 Q1630.6 62.8538 1633.19 65.2034 Q1635.82 67.5124 1640.32 67.5124 Q1646.52 67.5124 1650.24 63.1374 Q1654.01 58.7219 1654.01 51.4303 L1654.01 49.7694 L1646.6 49.7694 M1661.47 46.6907 L1661.47 72.576 L1654.01 72.576 L1654.01 65.6895 Q1651.46 69.8214 1647.65 71.8063 Q1643.84 73.7508 1638.33 73.7508 Q1631.37 73.7508 1627.24 69.8619 Q1623.14 65.9325 1623.14 59.3701 Q1623.14 51.7138 1628.25 47.825 Q1633.39 43.9361 1643.56 43.9361 L1654.01 43.9361 L1654.01 43.2069 Q1654.01 38.0623 1650.61 35.2672 Q1647.25 32.4315 1641.13 32.4315 Q1637.24 32.4315 1633.55 33.3632 Q1629.87 34.295 1626.47 36.1584 L1626.47 29.2718 Q1630.56 27.692 1634.41 26.9223 Q1638.25 26.1121 1641.9 26.1121 Q1651.74 26.1121 1656.6 31.2163 Q1661.47 36.3204 1661.47 46.6907 Z" fill="#000000" fill-rule="nonzero" fill-opacity="1" /><path clip-path="url(#clip340)" d="M1684.19 14.324 L1684.19 27.2059 L1699.54 27.2059 L1699.54 32.9987 L1684.19 32.9987 L1684.19 57.6282 Q1684.19 63.1779 1685.69 64.7578 Q1687.23 66.3376 1691.89 66.3376 L1699.54 66.3376 L1699.54 72.576 L1691.89 72.576 Q1683.26 72.576 1679.98 69.3758 Q1676.7 66.1351 1676.7 57.6282 L1676.7 32.9987 L1671.23 32.9987 L1671.23 27.2059 L1676.7 27.2059 L1676.7 14.324 L1684.19 14.324 Z" fill="#000000" fill-rule="nonzero" fill-opacity="1" /><path clip-path="url(#clip340)" d="M1748.15 48.0275 L1748.15 51.6733 L1713.88 51.6733 Q1714.37 59.3701 1718.5 63.421 Q1722.67 67.4314 1730.09 67.4314 Q1734.38 67.4314 1738.39 66.3781 Q1742.44 65.3249 1746.41 63.2184 L1746.41 70.267 Q1742.4 71.9684 1738.19 72.8596 Q1733.98 73.7508 1729.64 73.7508 Q1718.79 73.7508 1712.43 67.4314 Q1706.11 61.1119 1706.11 50.3365 Q1706.11 39.1965 1712.1 32.6746 Q1718.14 26.1121 1728.35 26.1121 Q1737.5 26.1121 1742.81 32.0264 Q1748.15 37.9003 1748.15 48.0275 M1740.7 45.84 Q1740.62 39.7232 1737.26 36.0774 Q1733.94 32.4315 1728.43 32.4315 Q1722.19 32.4315 1718.42 35.9558 Q1714.69 39.4801 1714.13 45.8805 L1740.7 45.84 Z" fill="#000000" fill-rule="nonzero" fill-opacity="1" /><path clip-path="url(#clip340)" d="M1823.34 14.0809 L1823.34 22.0612 Q1818.68 19.8332 1814.55 18.7395 Q1810.42 17.6457 1806.57 17.6457 Q1799.88 17.6457 1796.24 20.2383 Q1792.63 22.8309 1792.63 27.611 Q1792.63 31.6214 1795.02 33.6873 Q1797.45 35.7128 1804.18 36.9686 L1809.12 37.9813 Q1818.28 39.7232 1822.61 44.1387 Q1826.99 48.5136 1826.99 55.8863 Q1826.99 64.6767 1821.07 69.2137 Q1815.2 73.7508 1803.81 73.7508 Q1799.52 73.7508 1794.66 72.7785 Q1789.84 71.8063 1784.65 69.9024 L1784.65 61.4765 Q1789.64 64.2716 1794.42 65.6895 Q1799.2 67.1073 1803.81 67.1073 Q1810.82 67.1073 1814.63 64.3527 Q1818.44 61.598 1818.44 56.4939 Q1818.44 52.0379 1815.68 49.5264 Q1812.97 47.0148 1806.73 45.759 L1801.75 44.7868 Q1792.59 42.9639 1788.5 39.075 Q1784.41 35.1862 1784.41 28.2591 Q1784.41 20.2383 1790.04 15.6203 Q1795.71 11.0023 1805.64 11.0023 Q1809.89 11.0023 1814.31 11.7719 Q1818.72 12.5416 1823.34 14.0809 Z" fill="#000000" fill-rule="nonzero" fill-opacity="1" /><path clip-path="url(#clip340)" d="M1858.3 76.7889 Q1855.14 84.8907 1852.14 87.3618 Q1849.14 89.8329 1844.12 89.8329 L1838.17 89.8329 L1838.17 83.5945 L1842.54 83.5945 Q1845.62 83.5945 1847.32 82.1361 Q1849.02 80.6778 1851.09 75.2496 L1852.42 71.8468 L1834.07 27.2059 L1841.97 27.2059 L1856.15 62.6918 L1870.33 27.2059 L1878.23 27.2059 L1858.3 76.7889 Z" fill="#000000" fill-rule="nonzero" fill-opacity="1" /><path clip-path="url(#clip340)" d="M1917.44 28.5427 L1917.44 35.5912 Q1914.28 33.9709 1910.88 33.1607 Q1907.48 32.3505 1903.83 32.3505 Q1898.28 32.3505 1895.49 34.0519 Q1892.73 35.7533 1892.73 39.156 Q1892.73 41.7486 1894.72 43.2475 Q1896.7 44.7058 1902.7 46.0426 L1905.25 46.6097 Q1913.19 48.3111 1916.51 51.4303 Q1919.87 54.509 1919.87 60.0587 Q1919.87 66.3781 1914.85 70.0644 Q1909.87 73.7508 1901.12 73.7508 Q1897.47 73.7508 1893.5 73.0216 Q1889.57 72.3329 1885.2 70.9151 L1885.2 63.2184 Q1889.33 65.3654 1893.34 66.4591 Q1897.35 67.5124 1901.28 67.5124 Q1906.55 67.5124 1909.38 65.73 Q1912.22 63.9071 1912.22 60.6258 Q1912.22 57.5877 1910.15 55.9673 Q1908.12 54.3469 1901.2 52.8481 L1898.61 52.2405 Q1891.68 50.7821 1888.6 47.7845 Q1885.52 44.7463 1885.52 39.4801 Q1885.52 33.0797 1890.06 29.5959 Q1894.59 26.1121 1902.94 26.1121 Q1907.07 26.1121 1910.72 26.7198 Q1914.36 27.3274 1917.44 28.5427 Z" fill="#000000" fill-rule="nonzero" fill-opacity="1" /><path clip-path="url(#clip340)" d="M1939.11 14.324 L1939.11 27.2059 L1954.47 27.2059 L1954.47 32.9987 L1939.11 32.9987 L1939.11 57.6282 Q1939.11 63.1779 1940.61 64.7578 Q1942.15 66.3376 1946.81 66.3376 L1954.47 66.3376 L1954.47 72.576 L1946.81 72.576 Q1938.18 72.576 1934.9 69.3758 Q1931.62 66.1351 1931.62 57.6282 L1931.62 32.9987 L1926.15 32.9987 L1926.15 27.2059 L1931.62 27.2059 L1931.62 14.324 L1939.11 14.324 Z" fill="#000000" fill-rule="nonzero" fill-opacity="1" /><path clip-path="url(#clip340)" d="M2003.08 48.0275 L2003.08 51.6733 L1968.81 51.6733 Q1969.29 59.3701 1973.43 63.421 Q1977.6 67.4314 1985.01 67.4314 Q1989.31 67.4314 1993.32 66.3781 Q1997.37 65.3249 2001.34 63.2184 L2001.34 70.267 Q1997.33 71.9684 1993.11 72.8596 Q1988.9 73.7508 1984.57 73.7508 Q1973.71 73.7508 1967.35 67.4314 Q1961.03 61.1119 1961.03 50.3365 Q1961.03 39.1965 1967.03 32.6746 Q1973.06 26.1121 1983.27 26.1121 Q1992.42 26.1121 1997.73 32.0264 Q2003.08 37.9003 2003.08 48.0275 M1995.62 45.84 Q1995.54 39.7232 1992.18 36.0774 Q1988.86 32.4315 1983.35 32.4315 Q1977.11 32.4315 1973.34 35.9558 Q1969.62 39.4801 1969.05 45.8805 L1995.62 45.84 Z" fill="#000000" fill-rule="nonzero" fill-opacity="1" /><path clip-path="url(#clip340)" d="M2050.64 35.9153 Q2053.43 30.8922 2057.32 28.5022 Q2061.21 26.1121 2066.47 26.1121 Q2073.56 26.1121 2077.41 31.0947 Q2081.26 36.0368 2081.26 45.1919 L2081.26 72.576 L2073.77 72.576 L2073.77 45.4349 Q2073.77 38.913 2071.46 35.7533 Q2069.15 32.5936 2064.41 32.5936 Q2058.62 32.5936 2055.25 36.4419 Q2051.89 40.2903 2051.89 46.9338 L2051.89 72.576 L2044.4 72.576 L2044.4 45.4349 Q2044.4 38.8725 2042.09 35.7533 Q2039.78 32.5936 2034.96 32.5936 Q2029.25 32.5936 2025.88 36.4824 Q2022.52 40.3308 2022.52 46.9338 L2022.52 72.576 L2015.03 72.576 L2015.03 27.2059 L2022.52 27.2059 L2022.52 34.2544 Q2025.07 30.082 2028.64 28.0971 Q2032.2 26.1121 2037.11 26.1121 Q2042.05 26.1121 2045.49 28.6237 Q2048.97 31.1352 2050.64 35.9153 Z" fill="#000000" fill-rule="nonzero" fill-opacity="1" /><polyline clip-path="url(#clip342)" style="stroke:#0000ff; stroke-linecap:round; stroke-linejoin:round; stroke-width:8; stroke-opacity:1; fill:none" points="363.877,730.754 371.99,725.524 380.103,718.725 388.216,710.433 396.329,700.779 404.443,689.94 412.556,678.12 420.669,665.541 428.782,652.398 436.896,638.88 445.009,625.143 453.122,611.32 461.235,597.517 469.349,583.813 477.462,570.268 485.575,556.923 493.688,543.802 501.802,530.916 509.915,518.271 518.028,505.86 526.141,493.676 534.255,481.709 542.368,469.946 550.481,458.374 558.594,446.984 566.707,435.765 574.821,424.711 582.934,413.815 591.047,403.077 599.16,392.495 607.274,382.071 615.387,371.81 623.5,361.717 631.613,351.799 639.727,342.066 647.84,332.526 655.953,323.191 664.066,314.071 672.18,305.177 680.293,296.521 688.406,288.113 696.519,279.963 704.633,272.082 712.746,264.48 720.859,257.163 728.972,250.142 737.085,243.421 745.199,237.008 753.312,230.906 761.425,225.121 769.538,219.654 777.652,214.508 785.765,209.683 793.878,205.181 801.991,200.999 810.105,197.137 818.218,193.591 826.331,190.358 834.444,187.436 842.558,184.818 850.671,182.5 858.784,180.476 866.897,178.74 875.011,177.285 883.124,176.105 891.237,175.191 899.35,174.538 907.464,174.136 915.577,173.977 923.69,174.055 931.803,174.359 939.916,174.883 948.03,175.618 956.143,176.555 964.256,177.686 972.369,179.003 980.483,180.498 988.596,182.163 996.709,183.989 1004.82,185.969 1012.94,188.095 1021.05,190.36 1029.16,192.755 1037.28,195.275 1045.39,197.911 1053.5,200.657 1061.62,203.507 1069.73,206.453 1077.84,209.491 1085.95,212.612 1094.07,215.813 1102.18,219.086 1110.29,222.427 1118.41,225.83 1126.52,229.291 1134.63,232.804 1142.75,236.365 1150.86,239.969 1158.97,243.612 1167.09,247.291 1175.2,251 1183.31,254.736 1191.43,258.497 1199.54,262.277 1207.65,266.075 1215.77,269.886 1223.88,273.709 1231.99,277.54 1240.11,281.376 1248.22,285.216 1256.33,289.056 1264.45,292.895 1272.56,296.73 1280.67,300.559 1288.79,304.381 1296.9,308.194 1305.01,311.995 1313.13,315.784 1321.24,319.559 1329.35,323.318 1337.47,327.06 1345.58,330.785 1353.69,334.49 1361.8,338.175 1369.92,341.839 1378.03,345.481 1386.14,349.099 1394.26,352.694 1402.37,356.265 1410.48,359.81 1418.6,363.329 1426.71,366.823 1434.82,370.289 1442.94,373.728 1451.05,377.139 1459.16,380.523 1467.28,383.878 1475.39,387.204 1483.5,390.501 1491.62,393.769 1499.73,397.007 1507.84,400.217 1515.96,403.396 1524.07,406.545 1532.18,409.665 1540.3,412.755 1548.41,415.815 1556.52,418.845 1564.64,421.845 1572.75,424.815 1580.86,427.755 1588.98,430.665 1597.09,433.546 1605.2,436.397 1613.32,439.219 1621.43,442.011 1629.54,444.774 1637.66,447.508 1645.77,450.213 1653.88,452.889 1661.99,455.536 1670.11,458.156 1678.22,460.746 1686.33,463.309 1694.45,465.844 1702.56,468.352 1710.67,470.832 1718.79,473.285 1726.9,475.711 1735.01,478.11 1743.13,480.483 1751.24,482.829 1759.35,485.15 1767.47,487.444 1775.58,489.714 1783.69,491.958 1791.81,494.177 1799.92,496.371 1808.03,498.54 1816.15,500.686 1824.26,502.807 1832.37,504.905 1840.49,506.979 1848.6,509.03 1856.71,511.058 1864.83,513.063 1872.94,515.046 1881.05,517.006 1889.17,518.944 1897.28,520.861 1905.39,522.756 1913.51,524.63 1921.62,526.483 1929.73,528.315 1937.84,530.126 1945.96,531.918 1954.07,533.689 1962.18,535.44 1970.3,537.172 1978.41,538.885 1986.52,540.578 1994.64,542.252 2002.75,543.908 2010.86,545.546 2018.98,547.165 2027.09,548.766 2035.2,550.35 2043.32,551.916 2051.43,553.465 2059.54,554.996 2067.66,556.511 2075.77,558.009 2083.88,559.491 2092,560.956 2100.11,562.405 2108.22,563.838 2116.34,565.256 2124.45,566.658 2132.56,568.045 2140.68,569.417 2148.79,570.774 2156.9,572.116 2165.02,573.444 2173.13,574.757 2181.24,576.056 2189.36,577.342 2197.47,578.613 2205.58,579.871 2213.69,581.115 2221.81,582.346 2229.92,583.564 2238.03,584.769 2246.15,585.961 2254.26,587.14 2262.37,588.307 2270.49,589.462 2278.6,590.604 2286.71,591.735 2294.83,592.853 "/>
<polyline clip-path="url(#clip342)" style="stroke:#008000; stroke-linecap:round; stroke-linejoin:round; stroke-width:8; stroke-opacity:1; fill:none" points="363.877,738.61 371.99,737.76 380.103,736.348 388.216,734.073 396.329,730.738 404.443,726.158 412.556,720.187 420.669,712.731 428.782,703.751 436.896,693.264 445.009,681.332 453.122,668.056 461.235,653.568 469.349,638.02 477.462,621.58 485.575,604.419 493.688,586.71 501.802,568.622 509.915,550.316 518.028,531.941 526.141,513.633 534.255,495.517 542.368,477.702 550.481,460.284 558.594,443.345 566.707,426.953 574.821,411.165 582.934,396.028 591.047,381.575 599.16,367.833 607.274,354.818 615.387,342.541 623.5,331.004 631.613,320.204 639.727,310.134 647.84,300.781 655.953,292.129 664.066,284.16 672.18,276.852 680.293,270.182 688.406,264.126 696.519,258.656 704.633,253.747 712.746,249.372 720.859,245.503 728.972,242.114 737.085,239.177 745.199,236.667 753.312,234.559 761.425,232.826 769.538,231.446 777.652,230.395 785.765,229.651 793.878,229.194 801.991,229.003 810.105,229.06 818.218,229.346 826.331,229.846 834.444,230.544 842.558,231.424 850.671,232.473 858.784,233.678 866.897,235.027 875.011,236.51 883.124,238.116 891.237,239.836 899.35,241.66 907.464,243.581 915.577,245.591 923.69,247.683 931.803,249.852 939.916,252.09 948.03,254.393 956.143,256.756 964.256,259.173 972.369,261.642 980.483,264.157 988.596,266.716 996.709,269.315 1004.82,271.951 1012.94,274.62 1021.05,277.321 1029.16,280.05 1037.28,282.806 1045.39,285.586 1053.5,288.389 1061.62,291.211 1069.73,294.052 1077.84,296.91 1085.95,299.783 1094.07,302.669 1102.18,305.568 1110.29,308.477 1118.41,311.395 1126.52,314.321 1134.63,317.255 1142.75,320.194 1150.86,323.137 1158.97,326.084 1167.09,329.033 1175.2,331.983 1183.31,334.934 1191.43,337.884 1199.54,340.833 1207.65,343.78 1215.77,346.723 1223.88,349.662 1231.99,352.596 1240.11,355.525 1248.22,358.447 1256.33,361.363 1264.45,364.27 1272.56,367.169 1280.67,370.059 1288.79,372.94 1296.9,375.81 1305.01,378.669 1313.13,381.517 1321.24,384.353 1329.35,387.177 1337.47,389.988 1345.58,392.785 1353.69,395.569 1361.8,398.338 1369.92,401.093 1378.03,403.833 1386.14,406.558 1394.26,409.266 1402.37,411.959 1410.48,414.636 1418.6,417.296 1426.71,419.939 1434.82,422.565 1442.94,425.173 1451.05,427.764 1459.16,430.337 1467.28,432.893 1475.39,435.43 1483.5,437.949 1491.62,440.449 1499.73,442.931 1507.84,445.394 1515.96,447.838 1524.07,450.263 1532.18,452.67 1540.3,455.057 1548.41,457.425 1556.52,459.774 1564.64,462.104 1572.75,464.415 1580.86,466.706 1588.98,468.978 1597.09,471.231 1605.2,473.464 1613.32,475.679 1621.43,477.874 1629.54,480.05 1637.66,482.206 1645.77,484.344 1653.88,486.463 1661.99,488.562 1670.11,490.643 1678.22,492.705 1686.33,494.747 1694.45,496.772 1702.56,498.777 1710.67,500.764 1718.79,502.733 1726.9,504.683 1735.01,506.615 1743.13,508.528 1751.24,510.424 1759.35,512.302 1767.47,514.161 1775.58,516.003 1783.69,517.828 1791.81,519.635 1799.92,521.424 1808.03,523.197 1816.15,524.952 1824.26,526.69 1832.37,528.412 1840.49,530.116 1848.6,531.804 1856.71,533.476 1864.83,535.131 1872.94,536.77 1881.05,538.393 1889.17,540 1897.28,541.591 1905.39,543.166 1913.51,544.726 1921.62,546.271 1929.73,547.801 1937.84,549.315 1945.96,550.814 1954.07,552.299 1962.18,553.768 1970.3,555.224 1978.41,556.665 1986.52,558.091 1994.64,559.504 2002.75,560.902 2010.86,562.287 2018.98,563.658 2027.09,565.015 2035.2,566.359 2043.32,567.69 2051.43,569.007 2059.54,570.311 2067.66,571.603 2075.77,572.881 2083.88,574.147 2092,575.401 2100.11,576.642 2108.22,577.871 2116.34,579.088 2124.45,580.292 2132.56,581.485 2140.68,582.666 2148.79,583.836 2156.9,584.994 2165.02,586.141 2173.13,587.276 2181.24,588.4 2189.36,589.513 2197.47,590.616 2205.58,591.707 2213.69,592.788 2221.81,593.859 2229.92,594.919 2238.03,595.968 2246.15,597.008 2254.26,598.037 2262.37,599.056 2270.49,600.066 2278.6,601.066 2286.71,602.056 2294.83,603.036 "/>
<polyline clip-path="url(#clip342)" style="stroke:#ffa500; stroke-linecap:round; stroke-linejoin:round; stroke-width:8; stroke-opacity:1; fill:none" points="363.877,382.817 371.99,360.232 380.103,343.344 388.216,333.239 396.329,329.128 404.443,330.313 412.556,336.195 420.669,345.939 428.782,358.991 436.896,374.71 445.009,392.579 453.122,412.121 461.235,432.908 469.349,454.567 477.462,476.761 485.575,499.205 493.688,521.642 501.802,543.858 509.915,565.668 518.028,586.917 526.141,607.476 534.255,627.241 542.368,646.13 550.481,664.076 558.594,681.033 566.707,696.968 574.821,711.861 582.934,725.703 591.047,738.493 599.16,750.24 607.274,760.96 615.387,770.673 623.5,779.406 631.613,787.187 639.727,794.05 647.84,800.03 655.953,805.163 664.066,809.488 672.18,813.045 680.293,815.872 688.406,818.01 696.519,819.499 704.633,820.378 712.746,820.685 720.859,820.46 728.972,819.739 737.085,818.558 745.199,816.953 753.312,814.957 761.425,812.603 769.538,809.922 777.652,806.945 785.765,803.701 793.878,800.216 801.991,796.516 810.105,792.627 818.218,788.571 826.331,784.371 834.444,780.047 842.558,775.62 850.671,771.107 858.784,766.525 866.897,761.891 875.011,757.219 883.124,752.524 891.237,747.818 899.35,743.113 907.464,738.419 915.577,733.748 923.69,729.108 931.803,724.508 939.916,719.956 948.03,715.458 956.143,711.02 964.256,706.649 972.369,702.349 980.483,698.125 988.596,693.98 996.709,689.919 1004.82,685.944 1012.94,682.058 1021.05,678.263 1029.16,674.561 1037.28,670.952 1045.39,667.439 1053.5,664.022 1061.62,660.702 1069.73,657.479 1077.84,654.352 1085.95,651.322 1094.07,648.389 1102.18,645.551 1110.29,642.809 1118.41,640.161 1126.52,637.607 1134.63,635.144 1142.75,632.773 1150.86,630.492 1158.97,628.299 1167.09,626.193 1175.2,624.172 1183.31,622.236 1191.43,620.382 1199.54,618.608 1207.65,616.914 1215.77,615.296 1223.88,613.755 1231.99,612.287 1240.11,610.892 1248.22,609.567 1256.33,608.31 1264.45,607.12 1272.56,605.996 1280.67,604.935 1288.79,603.936 1296.9,602.997 1305.01,602.116 1313.13,601.292 1321.24,600.523 1329.35,599.807 1337.47,599.143 1345.58,598.53 1353.69,597.965 1361.8,597.447 1369.92,596.976 1378.03,596.548 1386.14,596.164 1394.26,595.821 1402.37,595.518 1410.48,595.254 1418.6,595.027 1426.71,594.836 1434.82,594.681 1442.94,594.559 1451.05,594.47 1459.16,594.413 1467.28,594.385 1475.39,594.387 1483.5,594.417 1491.62,594.474 1499.73,594.557 1507.84,594.665 1515.96,594.798 1524.07,594.953 1532.18,595.131 1540.3,595.331 1548.41,595.551 1556.52,595.79 1564.64,596.049 1572.75,596.326 1580.86,596.62 1588.98,596.932 1597.09,597.259 1605.2,597.601 1613.32,597.958 1621.43,598.33 1629.54,598.714 1637.66,599.111 1645.77,599.521 1653.88,599.942 1661.99,600.374 1670.11,600.817 1678.22,601.27 1686.33,601.733 1694.45,602.204 1702.56,602.684 1710.67,603.173 1718.79,603.669 1726.9,604.172 1735.01,604.683 1743.13,605.199 1751.24,605.722 1759.35,606.251 1767.47,606.785 1775.58,607.325 1783.69,607.869 1791.81,608.417 1799.92,608.97 1808.03,609.526 1816.15,610.087 1824.26,610.65 1832.37,611.216 1840.49,611.786 1848.6,612.357 1856.71,612.931 1864.83,613.507 1872.94,614.085 1881.05,614.665 1889.17,615.246 1897.28,615.828 1905.39,616.412 1913.51,616.996 1921.62,617.581 1929.73,618.166 1937.84,618.752 1945.96,619.338 1954.07,619.925 1962.18,620.511 1970.3,621.097 1978.41,621.682 1986.52,622.267 1994.64,622.852 2002.75,623.436 2010.86,624.019 2018.98,624.601 2027.09,625.182 2035.2,625.762 2043.32,626.341 2051.43,626.919 2059.54,627.495 2067.66,628.07 2075.77,628.643 2083.88,629.215 2092,629.785 2100.11,630.353 2108.22,630.919 2116.34,631.484 2124.45,632.046 2132.56,632.607 2140.68,633.166 2148.79,633.722 2156.9,634.276 2165.02,634.829 2173.13,635.379 2181.24,635.926 2189.36,636.472 2197.47,637.015 2205.58,637.555 2213.69,638.094 2221.81,638.629 2229.92,639.163 2238.03,639.694 2246.15,640.222 2254.26,640.748 2262.37,641.271 2270.49,641.792 2278.6,642.31 2286.71,642.825 2294.83,643.338 "/>
<polyline clip-path="url(#clip342)" style="stroke:#ff0000; stroke-linecap:round; stroke-linejoin:round; stroke-width:8; stroke-opacity:1; fill:none" points="363.877,159.645 371.99,221.165 380.103,280.191 388.216,340.887 396.329,401.76 404.443,460.501 412.556,516.909 420.669,572.419 428.782,626.769 436.896,679.849 445.009,731.587 453.122,781.808 461.235,830.374 469.349,877.14 477.462,921.964 485.575,964.701 493.688,1005.27 501.802,1043.58 509.915,1079.59 518.028,1113.26 526.141,1144.59 534.255,1173.59 542.368,1200.27 550.481,1224.67 558.594,1246.85 566.707,1266.86 574.821,1284.76 582.934,1300.64 591.047,1314.56 599.16,1326.6 607.274,1336.85 615.387,1345.39 623.5,1352.3 631.613,1357.67 639.727,1361.59 647.84,1364.13 655.953,1365.37 664.066,1365.41 672.18,1364.31 680.293,1362.15 688.406,1359.01 696.519,1354.95 704.633,1350.05 712.746,1344.37 720.859,1337.97 728.972,1330.92 737.085,1323.27 745.199,1315.08 753.312,1306.41 761.425,1297.29 769.538,1287.78 777.652,1277.93 785.765,1267.77 793.878,1257.35 801.991,1246.71 810.105,1235.87 818.218,1224.88 826.331,1213.76 834.444,1202.54 842.558,1191.25 850.671,1179.92 858.784,1168.56 866.897,1157.2 875.011,1145.87 883.124,1134.57 891.237,1123.33 899.35,1112.16 907.464,1101.07 915.577,1090.08 923.69,1079.2 931.803,1068.44 939.916,1057.81 948.03,1047.32 956.143,1036.98 964.256,1026.78 972.369,1016.75 980.483,1006.88 988.596,997.174 996.709,987.643 1004.82,978.287 1012.94,969.109 1021.05,960.11 1029.16,951.292 1037.28,942.656 1045.39,934.203 1053.5,925.933 1061.62,917.846 1069.73,909.941 1077.84,902.218 1085.95,894.676 1094.07,887.314 1102.18,880.129 1110.29,873.121 1118.41,866.287 1126.52,859.625 1134.63,853.134 1142.75,846.811 1150.86,840.654 1158.97,834.659 1167.09,828.825 1175.2,823.149 1183.31,817.628 1191.43,812.26 1199.54,807.04 1207.65,801.968 1215.77,797.039 1223.88,792.251 1231.99,787.601 1240.11,783.086 1248.22,778.703 1256.33,774.45 1264.45,770.323 1272.56,766.319 1280.67,762.436 1288.79,758.671 1296.9,755.022 1305.01,751.484 1313.13,748.056 1321.24,744.735 1329.35,741.518 1337.47,738.403 1345.58,735.387 1353.69,732.468 1361.8,729.642 1369.92,726.908 1378.03,724.264 1386.14,721.706 1394.26,719.233 1402.37,716.842 1410.48,714.532 1418.6,712.299 1426.71,710.142 1434.82,708.059 1442.94,706.048 1451.05,704.106 1459.16,702.232 1467.28,700.424 1475.39,698.68 1483.5,696.999 1491.62,695.377 1499.73,693.815 1507.84,692.31 1515.96,690.86 1524.07,689.464 1532.18,688.121 1540.3,686.828 1548.41,685.585 1556.52,684.389 1564.64,683.24 1572.75,682.137 1580.86,681.077 1588.98,680.059 1597.09,679.083 1605.2,678.147 1613.32,677.25 1621.43,676.39 1629.54,675.567 1637.66,674.78 1645.77,674.027 1653.88,673.307 1661.99,672.62 1670.11,671.964 1678.22,671.339 1686.33,670.743 1694.45,670.176 1702.56,669.637 1710.67,669.124 1718.79,668.638 1726.9,668.177 1735.01,667.74 1743.13,667.328 1751.24,666.938 1759.35,666.57 1767.47,666.224 1775.58,665.899 1783.69,665.595 1791.81,665.31 1799.92,665.044 1808.03,664.796 1816.15,664.567 1824.26,664.354 1832.37,664.158 1840.49,663.979 1848.6,663.815 1856.71,663.667 1864.83,663.533 1872.94,663.413 1881.05,663.307 1889.17,663.214 1897.28,663.135 1905.39,663.067 1913.51,663.012 1921.62,662.968 1929.73,662.936 1937.84,662.915 1945.96,662.904 1954.07,662.903 1962.18,662.912 1970.3,662.931 1978.41,662.959 1986.52,662.995 1994.64,663.041 2002.75,663.094 2010.86,663.156 2018.98,663.225 2027.09,663.302 2035.2,663.386 2043.32,663.476 2051.43,663.574 2059.54,663.678 2067.66,663.788 2075.77,663.904 2083.88,664.026 2092,664.153 2100.11,664.286 2108.22,664.424 2116.34,664.567 2124.45,664.715 2132.56,664.867 2140.68,665.024 2148.79,665.185 2156.9,665.35 2165.02,665.519 2173.13,665.692 2181.24,665.868 2189.36,666.048 2197.47,666.231 2205.58,666.417 2213.69,666.607 2221.81,666.799 2229.92,666.994 2238.03,667.192 2246.15,667.392 2254.26,667.595 2262.37,667.8 2270.49,668.008 2278.6,668.217 2286.71,668.428 2294.83,668.642 "/>
<path clip-path="url(#clip340)" d="M1791.1 522.476 L2284.53 522.476 L2284.53 166.076 L1791.1 166.076  Z" fill="#ffffff" fill-rule="evenodd" fill-opacity="1"/>
<polyline clip-path="url(#clip340)" style="stroke:#000000; stroke-linecap:round; stroke-linejoin:round; stroke-width:4; stroke-opacity:1; fill:none" points="1791.1,522.476 2284.53,522.476 2284.53,166.076 1791.1,166.076 1791.1,522.476 "/>
<polyline clip-path="url(#clip340)" style="stroke:#0000ff; stroke-linecap:round; stroke-linejoin:round; stroke-width:11; stroke-opacity:1; fill:none" points="1813.84,237.356 1950.3,237.356 "/>
<path clip-path="url(#clip340)" d="M1999.64 232.276 Q1999.64 232.952 1999.06 233.5 Q1998.51 234.047 1997.84 234.047 Q1997.45 234.047 1996.52 233.403 Q1993.84 231.535 1990.46 231.535 Q1987.43 231.535 1984.63 232.276 Q1981.83 233.017 1979.93 234.53 Q1978.06 236.012 1978.06 237.944 Q1978.06 240.359 1980.7 241.777 Q1983.44 240.521 1986.82 240.521 Q1987.92 240.521 1988.66 240.585 Q1989.43 240.649 1990.17 240.81 Q1990.91 240.971 1991.27 241.358 Q1991.65 241.712 1991.65 242.292 Q1991.65 244.353 1986.31 244.353 Q1982.83 244.353 1980.64 243.419 Q1977.84 244.804 1976.29 247.026 Q1974.74 249.248 1974.74 251.148 Q1974.74 252.791 1975.65 253.983 Q1976.58 255.174 1978.09 255.754 Q1979.64 256.334 1981.15 256.591 Q1982.7 256.817 1984.41 256.817 Q1987.21 256.817 1989.17 256.462 Q1991.17 256.076 1992.26 255.367 Q1993.39 254.659 1993.84 254.176 Q1994.33 253.661 1994.81 252.855 Q1995.1 252.404 1995.49 252.404 Q1995.78 252.404 1995.97 252.598 Q1996.19 252.759 1996.19 253.049 Q1996.19 253.403 1995.74 254.144 Q1995.32 254.884 1994.29 255.883 Q1993.3 256.849 1991.91 257.751 Q1990.56 258.62 1988.4 259.232 Q1986.24 259.844 1983.79 259.844 Q1978.8 259.844 1975.9 257.396 Q1973.04 254.949 1973.04 251.535 Q1973.04 249.152 1974.62 246.704 Q1976.23 244.224 1979.06 242.646 Q1976.42 240.682 1976.42 237.944 Q1976.42 235.496 1978.48 233.306 Q1980.57 231.116 1983.96 229.828 Q1987.37 228.508 1991.11 228.508 Q1993.2 228.508 1995.26 229.216 Q1997.32 229.893 1998.48 230.762 Q1999.64 231.632 1999.64 232.276 M1989.95 242.356 Q1988.53 241.97 1986.82 241.97 Q1984.5 241.97 1982.8 242.549 Q1984.18 242.904 1986.31 242.904 Q1988.08 242.904 1988.59 242.807 Q1989.14 242.711 1989.95 242.356 Z" fill="#000000" fill-rule="nonzero" fill-opacity="1" /><path clip-path="url(#clip340)" d="M2021.77 248.379 Q2021.84 247.574 2023.09 247.574 L2063.51 247.574 Q2065.41 247.574 2065.44 248.314 Q2065.44 249.119 2063.64 249.087 L2023.54 249.087 Q2021.77 249.119 2021.77 248.379 M2021.77 235.496 Q2021.77 234.691 2023.16 234.723 L2063.45 234.723 Q2065.41 234.723 2065.44 235.496 Q2065.44 236.237 2063.77 236.237 L2023.09 236.237 Q2021.77 236.237 2021.77 235.496 Z" fill="#000000" fill-rule="nonzero" fill-opacity="1" /><path clip-path="url(#clip340)" d="M2090.89 237.3 Q2090.89 227.606 2093.34 222.324 Q2096.75 214.466 2104.8 214.466 Q2106.51 214.466 2108.28 214.949 Q2110.08 215.4 2112.34 217.171 Q2114.62 218.943 2116.01 221.841 Q2118.65 227.445 2118.65 237.3 Q2118.65 246.929 2116.2 252.179 Q2112.63 259.844 2104.74 259.844 Q2101.77 259.844 2098.75 258.33 Q2095.75 256.817 2093.85 253.177 Q2090.89 247.735 2090.89 237.3 M2096.36 236.495 Q2096.36 246.446 2097.07 250.408 Q2097.88 254.691 2100.07 256.559 Q2102.29 258.395 2104.74 258.395 Q2107.38 258.395 2109.57 256.43 Q2111.79 254.433 2112.47 250.15 Q2113.21 245.931 2113.18 236.495 Q2113.18 227.316 2112.53 223.645 Q2111.66 219.361 2109.34 217.654 Q2107.06 215.915 2104.74 215.915 Q2103.87 215.915 2102.93 216.173 Q2102.03 216.431 2100.71 217.171 Q2099.39 217.912 2098.36 219.748 Q2097.36 221.583 2096.88 224.353 Q2096.36 227.928 2096.36 236.495 Z" fill="#000000" fill-rule="nonzero" fill-opacity="1" /><path clip-path="url(#clip340)" d="M2124.55 257.332 Q2123.55 256.269 2123.55 254.884 Q2123.55 253.499 2124.55 252.501 Q2125.55 251.471 2127.06 251.471 Q2128.51 251.471 2129.48 252.437 Q2130.48 253.371 2130.48 254.917 Q2130.48 256.43 2129.41 257.429 Q2128.38 258.395 2127.06 258.395 Q2125.55 258.395 2124.55 257.332 Z" fill="#000000" fill-rule="nonzero" fill-opacity="1" /><path clip-path="url(#clip340)" d="M2141.7 237.3 Q2141.7 227.606 2144.15 222.324 Q2147.56 214.466 2155.62 214.466 Q2157.32 214.466 2159.09 214.949 Q2160.9 215.4 2163.15 217.171 Q2165.44 218.943 2166.82 221.841 Q2169.46 227.445 2169.46 237.3 Q2169.46 246.929 2167.02 252.179 Q2163.44 259.844 2155.55 259.844 Q2152.59 259.844 2149.56 258.33 Q2146.57 256.817 2144.67 253.177 Q2141.7 247.735 2141.7 237.3 M2147.18 236.495 Q2147.18 246.446 2147.89 250.408 Q2148.69 254.691 2150.88 256.559 Q2153.1 258.395 2155.55 258.395 Q2158.19 258.395 2160.38 256.43 Q2162.6 254.433 2163.28 250.15 Q2164.02 245.931 2163.99 236.495 Q2163.99 227.316 2163.35 223.645 Q2162.48 219.361 2160.16 217.654 Q2157.87 215.915 2155.55 215.915 Q2154.68 215.915 2153.75 216.173 Q2152.85 216.431 2151.53 217.171 Q2150.21 217.912 2149.17 219.748 Q2148.18 221.583 2147.69 224.353 Q2147.18 227.928 2147.18 236.495 Z" fill="#000000" fill-rule="nonzero" fill-opacity="1" /><polyline clip-path="url(#clip340)" style="stroke:#008000; stroke-linecap:round; stroke-linejoin:round; stroke-width:11; stroke-opacity:1; fill:none" points="1813.84,308.636 1950.3,308.636 "/>
<path clip-path="url(#clip340)" d="M1999.64 303.556 Q1999.64 304.232 1999.06 304.78 Q1998.51 305.327 1997.84 305.327 Q1997.45 305.327 1996.52 304.683 Q1993.84 302.815 1990.46 302.815 Q1987.43 302.815 1984.63 303.556 Q1981.83 304.297 1979.93 305.81 Q1978.06 307.292 1978.06 309.224 Q1978.06 311.639 1980.7 313.057 Q1983.44 311.801 1986.82 311.801 Q1987.92 311.801 1988.66 311.865 Q1989.43 311.929 1990.17 312.09 Q1990.91 312.251 1991.27 312.638 Q1991.65 312.992 1991.65 313.572 Q1991.65 315.633 1986.31 315.633 Q1982.83 315.633 1980.64 314.699 Q1977.84 316.084 1976.29 318.306 Q1974.74 320.528 1974.74 322.428 Q1974.74 324.071 1975.65 325.263 Q1976.58 326.454 1978.09 327.034 Q1979.64 327.614 1981.15 327.871 Q1982.7 328.097 1984.41 328.097 Q1987.21 328.097 1989.17 327.742 Q1991.17 327.356 1992.26 326.647 Q1993.39 325.939 1993.84 325.456 Q1994.33 324.941 1994.81 324.135 Q1995.1 323.684 1995.49 323.684 Q1995.78 323.684 1995.97 323.878 Q1996.19 324.039 1996.19 324.329 Q1996.19 324.683 1995.74 325.424 Q1995.32 326.164 1994.29 327.163 Q1993.3 328.129 1991.91 329.031 Q1990.56 329.9 1988.4 330.512 Q1986.24 331.124 1983.79 331.124 Q1978.8 331.124 1975.9 328.676 Q1973.04 326.229 1973.04 322.815 Q1973.04 320.432 1974.62 317.984 Q1976.23 315.504 1979.06 313.926 Q1976.42 311.962 1976.42 309.224 Q1976.42 306.776 1978.48 304.586 Q1980.57 302.396 1983.96 301.108 Q1987.37 299.788 1991.11 299.788 Q1993.2 299.788 1995.26 300.496 Q1997.32 301.173 1998.48 302.042 Q1999.64 302.912 1999.64 303.556 M1989.95 313.636 Q1988.53 313.25 1986.82 313.25 Q1984.5 313.25 1982.8 313.829 Q1984.18 314.184 1986.31 314.184 Q1988.08 314.184 1988.59 314.087 Q1989.14 313.991 1989.95 313.636 Z" fill="#000000" fill-rule="nonzero" fill-opacity="1" /><path clip-path="url(#clip340)" d="M2021.77 319.659 Q2021.84 318.854 2023.09 318.854 L2063.51 318.854 Q2065.41 318.854 2065.44 319.594 Q2065.44 320.399 2063.64 320.367 L2023.54 320.367 Q2021.77 320.399 2021.77 319.659 M2021.77 306.776 Q2021.77 305.971 2023.16 306.003 L2063.45 306.003 Q2065.41 306.003 2065.44 306.776 Q2065.44 307.517 2063.77 307.517 L2023.09 307.517 Q2021.77 307.517 2021.77 306.776 Z" fill="#000000" fill-rule="nonzero" fill-opacity="1" /><path clip-path="url(#clip340)" d="M2152.73 312.251 Q2153.12 312.638 2153.12 313.185 Q2153.12 313.733 2152.73 314.119 Q2152.35 314.506 2151.8 314.506 L2110.51 314.506 Q2109.96 314.506 2109.58 314.119 Q2109.19 313.733 2109.19 313.185 Q2109.19 312.638 2109.58 312.251 Q2109.96 311.865 2110.51 311.865 L2151.8 311.865 Q2152.35 311.865 2152.73 312.251 Z" fill="#000000" fill-rule="nonzero" fill-opacity="1" /><path clip-path="url(#clip340)" d="M2178.31 308.58 Q2178.31 298.886 2180.76 293.604 Q2184.17 285.746 2192.22 285.746 Q2193.93 285.746 2195.7 286.229 Q2197.5 286.68 2199.76 288.451 Q2202.04 290.223 2203.43 293.121 Q2206.07 298.725 2206.07 308.58 Q2206.07 318.209 2203.62 323.459 Q2200.05 331.124 2192.16 331.124 Q2189.19 331.124 2186.17 329.61 Q2183.17 328.097 2181.27 324.457 Q2178.31 319.015 2178.31 308.58 M2183.78 307.775 Q2183.78 317.726 2184.49 321.688 Q2185.3 325.971 2187.49 327.839 Q2189.71 329.675 2192.16 329.675 Q2194.8 329.675 2196.99 327.71 Q2199.21 325.713 2199.89 321.43 Q2200.63 317.211 2200.59 307.775 Q2200.59 298.596 2199.95 294.925 Q2199.08 290.641 2196.76 288.934 Q2194.48 287.195 2192.16 287.195 Q2191.29 287.195 2190.35 287.453 Q2189.45 287.711 2188.13 288.451 Q2186.81 289.192 2185.78 291.028 Q2184.78 292.863 2184.3 295.633 Q2183.78 299.208 2183.78 307.775 Z" fill="#000000" fill-rule="nonzero" fill-opacity="1" /><path clip-path="url(#clip340)" d="M2211.97 328.612 Q2210.97 327.549 2210.97 326.164 Q2210.97 324.779 2211.97 323.781 Q2212.97 322.751 2214.48 322.751 Q2215.93 322.751 2216.9 323.717 Q2217.9 324.651 2217.9 326.197 Q2217.9 327.71 2216.83 328.709 Q2215.8 329.675 2214.48 329.675 Q2212.97 329.675 2211.97 328.612 Z" fill="#000000" fill-rule="nonzero" fill-opacity="1" /><path clip-path="url(#clip340)" d="M2229.12 319.047 Q2229.12 317.082 2230.19 316.342 Q2231.25 315.569 2232.38 315.569 Q2233.89 315.569 2234.76 316.535 Q2235.66 317.469 2235.66 318.789 Q2235.66 320.11 2234.76 321.076 Q2233.89 322.01 2232.38 322.01 Q2231.63 322.01 2231.25 321.881 Q2232.12 324.908 2234.76 327.098 Q2237.43 329.288 2240.94 329.288 Q2245.35 329.288 2248 325.005 Q2249.57 322.235 2249.57 315.955 Q2249.57 310.416 2248.38 307.646 Q2246.55 303.427 2242.78 303.427 Q2237.43 303.427 2234.28 308.032 Q2233.89 308.612 2233.44 308.644 Q2232.79 308.644 2232.63 308.29 Q2232.5 307.904 2232.5 306.905 L2232.5 287.388 Q2232.5 285.81 2233.15 285.81 Q2233.41 285.81 2233.95 286.004 Q2238.11 287.839 2242.71 287.872 Q2247.45 287.872 2251.7 285.939 Q2252.02 285.746 2252.21 285.746 Q2252.86 285.746 2252.89 286.487 Q2252.89 286.744 2252.34 287.517 Q2251.83 288.258 2250.7 289.256 Q2249.57 290.223 2248.12 291.157 Q2246.67 292.091 2244.55 292.735 Q2242.46 293.347 2240.14 293.347 Q2237.37 293.347 2234.53 292.477 L2234.53 305.327 Q2237.95 301.978 2242.91 301.978 Q2248.19 301.978 2251.83 306.229 Q2255.47 310.48 2255.47 316.406 Q2255.47 322.622 2251.15 326.873 Q2246.87 331.124 2241.07 331.124 Q2235.79 331.124 2232.44 327.356 Q2229.12 323.588 2229.12 319.047 Z" fill="#000000" fill-rule="nonzero" fill-opacity="1" /><polyline clip-path="url(#clip340)" style="stroke:#ffa500; stroke-linecap:round; stroke-linejoin:round; stroke-width:11; stroke-opacity:1; fill:none" points="1813.84,379.916 1950.3,379.916 "/>
<path clip-path="url(#clip340)" d="M1999.64 375.148 Q1999.64 375.825 1999.06 376.372 Q1998.51 376.92 1997.84 376.92 Q1997.45 376.92 1996.52 376.276 Q1993.84 374.408 1990.46 374.408 Q1987.43 374.408 1984.63 375.148 Q1981.83 375.889 1979.93 377.403 Q1978.06 378.884 1978.06 380.817 Q1978.06 383.232 1980.7 384.649 Q1983.44 383.393 1986.82 383.393 Q1987.92 383.393 1988.66 383.457 Q1989.43 383.522 1990.17 383.683 Q1990.91 383.844 1991.27 384.23 Q1991.65 384.585 1991.65 385.164 Q1991.65 387.226 1986.31 387.226 Q1982.83 387.226 1980.64 386.292 Q1977.84 387.676 1976.29 389.899 Q1974.74 392.121 1974.74 394.021 Q1974.74 395.663 1975.65 396.855 Q1976.58 398.047 1978.09 398.626 Q1979.64 399.206 1981.15 399.464 Q1982.7 399.689 1984.41 399.689 Q1987.21 399.689 1989.17 399.335 Q1991.17 398.948 1992.26 398.24 Q1993.39 397.531 1993.84 397.048 Q1994.33 396.533 1994.81 395.728 Q1995.1 395.277 1995.49 395.277 Q1995.78 395.277 1995.97 395.47 Q1996.19 395.631 1996.19 395.921 Q1996.19 396.275 1995.74 397.016 Q1995.32 397.757 1994.29 398.755 Q1993.3 399.721 1991.91 400.623 Q1990.56 401.493 1988.4 402.105 Q1986.24 402.717 1983.79 402.717 Q1978.8 402.717 1975.9 400.269 Q1973.04 397.821 1973.04 394.407 Q1973.04 392.024 1974.62 389.577 Q1976.23 387.097 1979.06 385.519 Q1976.42 383.554 1976.42 380.817 Q1976.42 378.369 1978.48 376.179 Q1980.57 373.989 1983.96 372.701 Q1987.37 371.38 1991.11 371.38 Q1993.2 371.38 1995.26 372.089 Q1997.32 372.765 1998.48 373.635 Q1999.64 374.504 1999.64 375.148 M1989.95 385.229 Q1988.53 384.842 1986.82 384.842 Q1984.5 384.842 1982.8 385.422 Q1984.18 385.776 1986.31 385.776 Q1988.08 385.776 1988.59 385.68 Q1989.14 385.583 1989.95 385.229 Z" fill="#000000" fill-rule="nonzero" fill-opacity="1" /><path clip-path="url(#clip340)" d="M2021.77 391.251 Q2021.84 390.446 2023.09 390.446 L2063.51 390.446 Q2065.41 390.446 2065.44 391.187 Q2065.44 391.992 2063.64 391.96 L2023.54 391.96 Q2021.77 391.992 2021.77 391.251 M2021.77 378.369 Q2021.77 377.564 2023.16 377.596 L2063.45 377.596 Q2065.41 377.596 2065.44 378.369 Q2065.44 379.11 2063.77 379.11 L2023.09 379.11 Q2021.77 379.11 2021.77 378.369 Z" fill="#000000" fill-rule="nonzero" fill-opacity="1" /><path clip-path="url(#clip340)" d="M2090.89 380.172 Q2090.89 370.478 2093.34 365.197 Q2096.75 357.338 2104.8 357.338 Q2106.51 357.338 2108.28 357.822 Q2110.08 358.272 2112.34 360.044 Q2114.62 361.815 2116.01 364.714 Q2118.65 370.317 2118.65 380.172 Q2118.65 389.802 2116.2 395.052 Q2112.63 402.717 2104.74 402.717 Q2101.77 402.717 2098.75 401.203 Q2095.75 399.689 2093.85 396.05 Q2090.89 390.607 2090.89 380.172 M2096.36 379.367 Q2096.36 389.319 2097.07 393.28 Q2097.88 397.564 2100.07 399.432 Q2102.29 401.267 2104.74 401.267 Q2107.38 401.267 2109.57 399.303 Q2111.79 397.306 2112.47 393.023 Q2113.21 388.804 2113.18 379.367 Q2113.18 370.189 2112.53 366.517 Q2111.66 362.234 2109.34 360.527 Q2107.06 358.788 2104.74 358.788 Q2103.87 358.788 2102.93 359.045 Q2102.03 359.303 2100.71 360.044 Q2099.39 360.785 2098.36 362.62 Q2097.36 364.456 2096.88 367.226 Q2096.36 370.801 2096.36 379.367 Z" fill="#000000" fill-rule="nonzero" fill-opacity="1" /><path clip-path="url(#clip340)" d="M2124.55 400.204 Q2123.55 399.142 2123.55 397.757 Q2123.55 396.372 2124.55 395.374 Q2125.55 394.343 2127.06 394.343 Q2128.51 394.343 2129.48 395.309 Q2130.48 396.243 2130.48 397.789 Q2130.48 399.303 2129.41 400.301 Q2128.38 401.267 2127.06 401.267 Q2125.55 401.267 2124.55 400.204 Z" fill="#000000" fill-rule="nonzero" fill-opacity="1" /><path clip-path="url(#clip340)" d="M2141.7 370.253 L2143.86 356.694 L2145.5 356.694 Q2145.7 357.5 2146.02 357.854 Q2146.37 358.208 2148.24 358.498 Q2150.14 358.788 2153.97 358.788 L2169.98 358.788 Q2169.98 360.301 2169.4 361.107 L2160.48 373.635 Q2157.64 377.596 2156.39 384.907 Q2155.65 389.802 2155.68 395.728 L2155.68 399.077 Q2155.68 402.717 2152.62 402.717 Q2149.59 402.717 2149.59 399.077 Q2149.59 386.485 2157.71 374.279 Q2158.58 373.023 2161.77 368.546 Q2164.99 364.07 2165.12 363.876 L2151.46 363.876 Q2145.47 363.876 2144.99 364.263 Q2144.34 364.842 2143.35 370.253 L2141.7 370.253 Z" fill="#000000" fill-rule="nonzero" fill-opacity="1" /><polyline clip-path="url(#clip340)" style="stroke:#ff0000; stroke-linecap:round; stroke-linejoin:round; stroke-width:11; stroke-opacity:1; fill:none" points="1813.84,451.196 1950.3,451.196 "/>
<path clip-path="url(#clip340)" d="M1999.64 446.116 Q1999.64 446.792 1999.06 447.34 Q1998.51 447.887 1997.84 447.887 Q1997.45 447.887 1996.52 447.243 Q1993.84 445.375 1990.46 445.375 Q1987.43 445.375 1984.63 446.116 Q1981.83 446.857 1979.93 448.37 Q1978.06 449.852 1978.06 451.784 Q1978.06 454.199 1980.7 455.617 Q1983.44 454.361 1986.82 454.361 Q1987.92 454.361 1988.66 454.425 Q1989.43 454.489 1990.17 454.65 Q1990.91 454.811 1991.27 455.198 Q1991.65 455.552 1991.65 456.132 Q1991.65 458.193 1986.31 458.193 Q1982.83 458.193 1980.64 457.259 Q1977.84 458.644 1976.29 460.866 Q1974.74 463.088 1974.74 464.988 Q1974.74 466.631 1975.65 467.823 Q1976.58 469.014 1978.09 469.594 Q1979.64 470.174 1981.15 470.431 Q1982.7 470.657 1984.41 470.657 Q1987.21 470.657 1989.17 470.302 Q1991.17 469.916 1992.26 469.207 Q1993.39 468.499 1993.84 468.016 Q1994.33 467.501 1994.81 466.695 Q1995.1 466.244 1995.49 466.244 Q1995.78 466.244 1995.97 466.438 Q1996.19 466.599 1996.19 466.889 Q1996.19 467.243 1995.74 467.984 Q1995.32 468.724 1994.29 469.723 Q1993.3 470.689 1991.91 471.591 Q1990.56 472.46 1988.4 473.072 Q1986.24 473.684 1983.79 473.684 Q1978.8 473.684 1975.9 471.236 Q1973.04 468.789 1973.04 465.375 Q1973.04 462.992 1974.62 460.544 Q1976.23 458.064 1979.06 456.486 Q1976.42 454.522 1976.42 451.784 Q1976.42 449.336 1978.48 447.146 Q1980.57 444.956 1983.96 443.668 Q1987.37 442.348 1991.11 442.348 Q1993.2 442.348 1995.26 443.056 Q1997.32 443.733 1998.48 444.602 Q1999.64 445.472 1999.64 446.116 M1989.95 456.196 Q1988.53 455.81 1986.82 455.81 Q1984.5 455.81 1982.8 456.389 Q1984.18 456.744 1986.31 456.744 Q1988.08 456.744 1988.59 456.647 Q1989.14 456.551 1989.95 456.196 Z" fill="#000000" fill-rule="nonzero" fill-opacity="1" /><path clip-path="url(#clip340)" d="M2021.77 462.219 Q2021.84 461.414 2023.09 461.414 L2063.51 461.414 Q2065.41 461.414 2065.44 462.154 Q2065.44 462.959 2063.64 462.927 L2023.54 462.927 Q2021.77 462.959 2021.77 462.219 M2021.77 449.336 Q2021.77 448.531 2023.16 448.563 L2063.45 448.563 Q2065.41 448.563 2065.44 449.336 Q2065.44 450.077 2063.77 450.077 L2023.09 450.077 Q2021.77 450.077 2021.77 449.336 Z" fill="#000000" fill-rule="nonzero" fill-opacity="1" /><path clip-path="url(#clip340)" d="M2090.89 451.14 Q2090.89 441.446 2093.34 436.164 Q2096.75 428.306 2104.8 428.306 Q2106.51 428.306 2108.28 428.789 Q2110.08 429.24 2112.34 431.011 Q2114.62 432.783 2116.01 435.681 Q2118.65 441.285 2118.65 451.14 Q2118.65 460.769 2116.2 466.019 Q2112.63 473.684 2104.74 473.684 Q2101.77 473.684 2098.75 472.17 Q2095.75 470.657 2093.85 467.017 Q2090.89 461.575 2090.89 451.14 M2096.36 450.335 Q2096.36 460.286 2097.07 464.248 Q2097.88 468.531 2100.07 470.399 Q2102.29 472.235 2104.74 472.235 Q2107.38 472.235 2109.57 470.27 Q2111.79 468.273 2112.47 463.99 Q2113.21 459.771 2113.18 450.335 Q2113.18 441.156 2112.53 437.485 Q2111.66 433.201 2109.34 431.494 Q2107.06 429.755 2104.74 429.755 Q2103.87 429.755 2102.93 430.013 Q2102.03 430.271 2100.71 431.011 Q2099.39 431.752 2098.36 433.588 Q2097.36 435.423 2096.88 438.193 Q2096.36 441.768 2096.36 450.335 Z" fill="#000000" fill-rule="nonzero" fill-opacity="1" /><path clip-path="url(#clip340)" d="M2124.55 471.172 Q2123.55 470.109 2123.55 468.724 Q2123.55 467.339 2124.55 466.341 Q2125.55 465.311 2127.06 465.311 Q2128.51 465.311 2129.48 466.277 Q2130.48 467.211 2130.48 468.757 Q2130.48 470.27 2129.41 471.269 Q2128.38 472.235 2127.06 472.235 Q2125.55 472.235 2124.55 471.172 Z" fill="#000000" fill-rule="nonzero" fill-opacity="1" /><path clip-path="url(#clip340)" d="M2141.7 443.153 Q2141.7 439.642 2142.73 437.259 Q2143.76 434.844 2145.92 432.461 Q2149.88 428.306 2155.62 428.306 Q2158.06 428.306 2160.22 429.337 Q2162.41 430.367 2164.47 432.718 Q2166.57 435.037 2167.82 439.642 Q2169.08 444.216 2169.08 450.528 Q2169.08 460.737 2164.12 467.211 Q2159.19 473.684 2152.52 473.684 Q2148.31 473.684 2145.83 471.784 Q2143.35 469.852 2143.35 466.567 Q2143.35 464.86 2144.31 464.151 Q2145.28 463.41 2146.37 463.41 Q2147.56 463.41 2148.5 464.216 Q2149.43 464.988 2149.43 466.438 Q2149.43 467.629 2148.66 468.563 Q2147.92 469.465 2145.99 469.465 Q2147.89 471.848 2152.46 471.848 Q2154.1 471.848 2155.74 471.108 Q2157.39 470.335 2159.16 468.499 Q2160.96 466.631 2162.06 462.734 Q2163.15 458.837 2163.15 453.362 L2163.15 451.269 Q2160.51 457.871 2154.91 457.871 Q2149.37 457.871 2145.54 453.62 Q2141.7 449.369 2141.7 443.153 M2147.63 443.217 Q2147.63 449.755 2148.82 452.171 Q2150.85 456.325 2154.97 456.325 Q2159 456.325 2160.99 452.75 Q2163.02 449.143 2163.02 444.473 Q2163.02 438 2161.96 435.166 Q2160 429.948 2155.62 429.948 Q2151.27 429.948 2149.01 434.103 Q2147.63 436.551 2147.63 443.217 Z" fill="#000000" fill-rule="nonzero" fill-opacity="1" /></svg>
