<?xml version="1.0" encoding="utf-8"?>
<svg xmlns="http://www.w3.org/2000/svg" xmlns:xlink="http://www.w3.org/1999/xlink" width="600" height="400" viewBox="0 0 2400 1600">
<defs>
  <clipPath id="clip890">
    <rect x="0" y="0" width="2400" height="1600"/>
  </clipPath>
</defs>
<path clip-path="url(#clip890)" d="M0 1600 L2400 1600 L2400 0 L0 0  Z" fill="#ffffff" fill-rule="evenodd" fill-opacity="1"/>
<defs>
  <clipPath id="clip891">
    <rect x="480" y="0" width="1681" height="1600"/>
  </clipPath>
</defs>
<path clip-path="url(#clip890)" d="M254.609 1401.58 L2352.76 1401.58 L2352.76 123.472 L254.609 123.472  Z" fill="#ffffff" fill-rule="evenodd" fill-opacity="1"/>
<defs>
  <clipPath id="clip892">
    <rect x="254" y="123" width="2099" height="1279"/>
  </clipPath>
</defs>
<polyline clip-path="url(#clip892)" style="stroke:#000000; stroke-linecap:round; stroke-linejoin:round; stroke-width:2; stroke-opacity:0.1; fill:none" points="538.601,1401.58 538.601,123.472 "/>
<polyline clip-path="url(#clip892)" style="stroke:#000000; stroke-linecap:round; stroke-linejoin:round; stroke-width:2; stroke-opacity:0.1; fill:none" points="889.556,1401.58 889.556,123.472 "/>
<polyline clip-path="url(#clip892)" style="stroke:#000000; stroke-linecap:round; stroke-linejoin:round; stroke-width:2; stroke-opacity:0.1; fill:none" points="1240.51,1401.58 1240.51,123.472 "/>
<polyline clip-path="url(#clip892)" style="stroke:#000000; stroke-linecap:round; stroke-linejoin:round; stroke-width:2; stroke-opacity:0.1; fill:none" points="1591.47,1401.58 1591.47,123.472 "/>
<polyline clip-path="url(#clip892)" style="stroke:#000000; stroke-linecap:round; stroke-linejoin:round; stroke-width:2; stroke-opacity:0.1; fill:none" points="1942.42,1401.58 1942.42,123.472 "/>
<polyline clip-path="url(#clip892)" style="stroke:#000000; stroke-linecap:round; stroke-linejoin:round; stroke-width:2; stroke-opacity:0.1; fill:none" points="2293.37,1401.58 2293.37,123.472 "/>
<polyline clip-path="url(#clip892)" style="stroke:#000000; stroke-linecap:round; stroke-linejoin:round; stroke-width:2; stroke-opacity:0.1; fill:none" points="254.609,1125.16 2352.76,1125.16 "/>
<polyline clip-path="url(#clip892)" style="stroke:#000000; stroke-linecap:round; stroke-linejoin:round; stroke-width:2; stroke-opacity:0.1; fill:none" points="254.609,828.977 2352.76,828.977 "/>
<polyline clip-path="url(#clip892)" style="stroke:#000000; stroke-linecap:round; stroke-linejoin:round; stroke-width:2; stroke-opacity:0.1; fill:none" points="254.609,532.796 2352.76,532.796 "/>
<polyline clip-path="url(#clip892)" style="stroke:#000000; stroke-linecap:round; stroke-linejoin:round; stroke-width:2; stroke-opacity:0.1; fill:none" points="254.609,236.615 2352.76,236.615 "/>
<polyline clip-path="url(#clip890)" style="stroke:#000000; stroke-linecap:round; stroke-linejoin:round; stroke-width:4; stroke-opacity:1; fill:none" points="254.609,1401.58 2352.76,1401.58 "/>
<polyline clip-path="url(#clip890)" style="stroke:#000000; stroke-linecap:round; stroke-linejoin:round; stroke-width:4; stroke-opacity:1; fill:none" points="538.601,1401.58 538.601,1382.68 "/>
<polyline clip-path="url(#clip890)" style="stroke:#000000; stroke-linecap:round; stroke-linejoin:round; stroke-width:4; stroke-opacity:1; fill:none" points="889.556,1401.58 889.556,1382.68 "/>
<polyline clip-path="url(#clip890)" style="stroke:#000000; stroke-linecap:round; stroke-linejoin:round; stroke-width:4; stroke-opacity:1; fill:none" points="1240.51,1401.58 1240.51,1382.68 "/>
<polyline clip-path="url(#clip890)" style="stroke:#000000; stroke-linecap:round; stroke-linejoin:round; stroke-width:4; stroke-opacity:1; fill:none" points="1591.47,1401.58 1591.47,1382.68 "/>
<polyline clip-path="url(#clip890)" style="stroke:#000000; stroke-linecap:round; stroke-linejoin:round; stroke-width:4; stroke-opacity:1; fill:none" points="1942.42,1401.58 1942.42,1382.68 "/>
<polyline clip-path="url(#clip890)" style="stroke:#000000; stroke-linecap:round; stroke-linejoin:round; stroke-width:4; stroke-opacity:1; fill:none" points="2293.37,1401.58 2293.37,1382.68 "/>
<path clip-path="url(#clip890)" d="M508.189 1436.89 Q503.224 1436.89 500.709 1441.79 Q498.227 1446.66 498.227 1456.47 Q498.227 1466.24 500.709 1471.14 Q503.224 1476.01 508.189 1476.01 Q513.186 1476.01 515.669 1471.14 Q518.183 1466.24 518.183 1456.47 Q518.183 1446.66 515.669 1441.79 Q513.186 1436.89 508.189 1436.89 M508.189 1431.8 Q516.178 1431.8 520.379 1438.13 Q524.612 1444.44 524.612 1456.47 Q524.612 1468.47 520.379 1474.8 Q516.178 1481.1 508.189 1481.1 Q500.2 1481.1 495.967 1474.8 Q491.765 1468.47 491.765 1456.47 Q491.765 1444.44 495.967 1438.13 Q500.2 1431.8 508.189 1431.8 Z" fill="#000000" fill-rule="nonzero" fill-opacity="1" /><path clip-path="url(#clip890)" d="M535.912 1472.1 L542.627 1472.1 L542.627 1480.18 L535.912 1480.18 L535.912 1472.1 Z" fill="#000000" fill-rule="nonzero" fill-opacity="1" /><path clip-path="url(#clip890)" d="M556.696 1432.66 L581.936 1432.66 L581.936 1438.07 L562.584 1438.07 L562.584 1449.72 Q563.984 1449.24 565.385 1449.02 Q566.785 1448.77 568.186 1448.77 Q576.143 1448.77 580.79 1453.13 Q585.437 1457.49 585.437 1464.93 Q585.437 1472.6 580.662 1476.87 Q575.888 1481.1 567.199 1481.1 Q564.207 1481.1 561.088 1480.59 Q558.001 1480.08 554.69 1479.07 L554.69 1472.6 Q557.555 1474.16 560.61 1474.93 Q563.666 1475.69 567.072 1475.69 Q572.578 1475.69 575.793 1472.8 Q579.007 1469.9 579.007 1464.93 Q579.007 1459.97 575.793 1457.07 Q572.578 1454.18 567.072 1454.18 Q564.494 1454.18 561.915 1454.75 Q559.369 1455.32 556.696 1456.53 L556.696 1432.66 Z" fill="#000000" fill-rule="nonzero" fill-opacity="1" /><path clip-path="url(#clip890)" d="M844.391 1474.77 L854.894 1474.77 L854.894 1438.52 L843.468 1440.81 L843.468 1434.95 L854.831 1432.66 L861.26 1432.66 L861.26 1474.77 L871.764 1474.77 L871.764 1480.18 L844.391 1480.18 L844.391 1474.77 Z" fill="#000000" fill-rule="nonzero" fill-opacity="1" /><path clip-path="url(#clip890)" d="M884.75 1472.1 L891.465 1472.1 L891.465 1480.18 L884.75 1480.18 L884.75 1472.1 Z" fill="#000000" fill-rule="nonzero" fill-opacity="1" /><path clip-path="url(#clip890)" d="M919.22 1436.89 Q914.255 1436.89 911.74 1441.79 Q909.258 1446.66 909.258 1456.47 Q909.258 1466.24 911.74 1471.14 Q914.255 1476.01 919.22 1476.01 Q924.217 1476.01 926.7 1471.14 Q929.214 1466.24 929.214 1456.47 Q929.214 1446.66 926.7 1441.79 Q924.217 1436.89 919.22 1436.89 M919.22 1431.8 Q927.209 1431.8 931.41 1438.13 Q935.643 1444.44 935.643 1456.47 Q935.643 1468.47 931.41 1474.8 Q927.209 1481.1 919.22 1481.1 Q911.231 1481.1 906.998 1474.8 Q902.796 1468.47 902.796 1456.47 Q902.796 1444.44 906.998 1438.13 Q911.231 1431.8 919.22 1431.8 Z" fill="#000000" fill-rule="nonzero" fill-opacity="1" /><path clip-path="url(#clip890)" d="M1196.03 1474.77 L1206.53 1474.77 L1206.53 1438.52 L1195.11 1440.81 L1195.11 1434.95 L1206.47 1432.66 L1212.9 1432.66 L1212.9 1474.77 L1223.4 1474.77 L1223.4 1480.18 L1196.03 1480.18 L1196.03 1474.77 Z" fill="#000000" fill-rule="nonzero" fill-opacity="1" /><path clip-path="url(#clip890)" d="M1236.39 1472.1 L1243.1 1472.1 L1243.1 1480.18 L1236.39 1480.18 L1236.39 1472.1 Z" fill="#000000" fill-rule="nonzero" fill-opacity="1" /><path clip-path="url(#clip890)" d="M1257.17 1432.66 L1282.41 1432.66 L1282.41 1438.07 L1263.06 1438.07 L1263.06 1449.72 Q1264.46 1449.24 1265.86 1449.02 Q1267.26 1448.77 1268.66 1448.77 Q1276.62 1448.77 1281.27 1453.13 Q1285.91 1457.49 1285.91 1464.93 Q1285.91 1472.6 1281.14 1476.87 Q1276.37 1481.1 1267.68 1481.1 Q1264.68 1481.1 1261.56 1480.59 Q1258.48 1480.08 1255.17 1479.07 L1255.17 1472.6 Q1258.03 1474.16 1261.09 1474.93 Q1264.14 1475.69 1267.55 1475.69 Q1273.06 1475.69 1276.27 1472.8 Q1279.48 1469.9 1279.48 1464.93 Q1279.48 1459.97 1276.27 1457.07 Q1273.06 1454.18 1267.55 1454.18 Q1264.97 1454.18 1262.39 1454.75 Q1259.85 1455.32 1257.17 1456.53 L1257.17 1432.66 Z" fill="#000000" fill-rule="nonzero" fill-opacity="1" /><path clip-path="url(#clip890)" d="M1551.92 1474.77 L1574.36 1474.77 L1574.36 1480.18 L1544.18 1480.18 L1544.18 1474.77 Q1547.84 1470.98 1554.15 1464.62 Q1560.48 1458.22 1562.1 1456.37 Q1565.19 1452.9 1566.4 1450.52 Q1567.64 1448.1 1567.64 1445.77 Q1567.64 1441.99 1564.97 1439.6 Q1562.33 1437.21 1558.06 1437.21 Q1555.04 1437.21 1551.66 1438.26 Q1548.32 1439.31 1544.5 1441.44 L1544.5 1434.95 Q1548.39 1433.39 1551.76 1432.6 Q1555.13 1431.8 1557.93 1431.8 Q1565.32 1431.8 1569.71 1435.49 Q1574.1 1439.18 1574.1 1445.36 Q1574.1 1448.29 1572.99 1450.93 Q1571.91 1453.54 1569.01 1457.1 Q1568.21 1458.03 1563.95 1462.45 Q1559.68 1466.84 1551.92 1474.77 Z" fill="#000000" fill-rule="nonzero" fill-opacity="1" /><path clip-path="url(#clip890)" d="M1587.85 1472.1 L1594.57 1472.1 L1594.57 1480.18 L1587.85 1480.18 L1587.85 1472.1 Z" fill="#000000" fill-rule="nonzero" fill-opacity="1" /><path clip-path="url(#clip890)" d="M1622.32 1436.89 Q1617.36 1436.89 1614.84 1441.79 Q1612.36 1446.66 1612.36 1456.47 Q1612.36 1466.24 1614.84 1471.14 Q1617.36 1476.01 1622.32 1476.01 Q1627.32 1476.01 1629.8 1471.14 Q1632.32 1466.24 1632.32 1456.47 Q1632.32 1446.66 1629.8 1441.79 Q1627.32 1436.89 1622.32 1436.89 M1622.32 1431.8 Q1630.31 1431.8 1634.51 1438.13 Q1638.75 1444.44 1638.75 1456.47 Q1638.75 1468.47 1634.51 1474.8 Q1630.31 1481.1 1622.32 1481.1 Q1614.33 1481.1 1610.1 1474.8 Q1605.9 1468.47 1605.9 1456.47 Q1605.9 1444.44 1610.1 1438.13 Q1614.33 1431.8 1622.32 1431.8 Z" fill="#000000" fill-rule="nonzero" fill-opacity="1" /><path clip-path="url(#clip890)" d="M1903.56 1474.77 L1926 1474.77 L1926 1480.18 L1895.82 1480.18 L1895.82 1474.77 Q1899.48 1470.98 1905.79 1464.62 Q1912.12 1458.22 1913.74 1456.37 Q1916.83 1452.9 1918.04 1450.52 Q1919.28 1448.1 1919.28 1445.77 Q1919.28 1441.99 1916.61 1439.6 Q1913.97 1437.21 1909.7 1437.21 Q1906.68 1437.21 1903.3 1438.26 Q1899.96 1439.31 1896.14 1441.44 L1896.14 1434.95 Q1900.02 1433.39 1903.4 1432.6 Q1906.77 1431.8 1909.57 1431.8 Q1916.96 1431.8 1921.35 1435.49 Q1925.74 1439.18 1925.74 1445.36 Q1925.74 1448.29 1924.63 1450.93 Q1923.55 1453.54 1920.65 1457.1 Q1919.85 1458.03 1915.59 1462.45 Q1911.32 1466.84 1903.56 1474.77 Z" fill="#000000" fill-rule="nonzero" fill-opacity="1" /><path clip-path="url(#clip890)" d="M1939.49 1472.1 L1946.21 1472.1 L1946.21 1480.18 L1939.49 1480.18 L1939.49 1472.1 Z" fill="#000000" fill-rule="nonzero" fill-opacity="1" /><path clip-path="url(#clip890)" d="M1960.28 1432.66 L1985.52 1432.66 L1985.52 1438.07 L1966.16 1438.07 L1966.16 1449.72 Q1967.56 1449.24 1968.96 1449.02 Q1970.37 1448.77 1971.77 1448.77 Q1979.72 1448.77 1984.37 1453.13 Q1989.02 1457.49 1989.02 1464.93 Q1989.02 1472.6 1984.24 1476.87 Q1979.47 1481.1 1970.78 1481.1 Q1967.79 1481.1 1964.67 1480.59 Q1961.58 1480.08 1958.27 1479.07 L1958.27 1472.6 Q1961.13 1474.16 1964.19 1474.93 Q1967.25 1475.69 1970.65 1475.69 Q1976.16 1475.69 1979.37 1472.8 Q1982.59 1469.9 1982.59 1464.93 Q1982.59 1459.97 1979.37 1457.07 Q1976.16 1454.18 1970.65 1454.18 Q1968.07 1454.18 1965.5 1454.75 Q1962.95 1455.32 1960.28 1456.53 L1960.28 1432.66 Z" fill="#000000" fill-rule="nonzero" fill-opacity="1" /><path clip-path="url(#clip890)" d="M2267.67 1454.56 Q2272.29 1455.54 2274.87 1458.66 Q2277.48 1461.78 2277.48 1466.37 Q2277.48 1473.4 2272.64 1477.25 Q2267.8 1481.1 2258.89 1481.1 Q2255.9 1481.1 2252.71 1480.5 Q2249.56 1479.93 2246.19 1478.75 L2246.19 1472.54 Q2248.86 1474.1 2252.05 1474.9 Q2255.23 1475.69 2258.7 1475.69 Q2264.74 1475.69 2267.9 1473.3 Q2271.08 1470.92 2271.08 1466.37 Q2271.08 1462.16 2268.12 1459.81 Q2265.19 1457.42 2259.94 1457.42 L2254.4 1457.42 L2254.4 1452.14 L2260.19 1452.14 Q2264.94 1452.14 2267.45 1450.26 Q2269.96 1448.35 2269.96 1444.79 Q2269.96 1441.13 2267.35 1439.18 Q2264.78 1437.21 2259.94 1437.21 Q2257.3 1437.21 2254.27 1437.78 Q2251.25 1438.36 2247.62 1439.57 L2247.62 1433.84 Q2251.28 1432.82 2254.46 1432.31 Q2257.68 1431.8 2260.51 1431.8 Q2267.83 1431.8 2272.1 1435.14 Q2276.36 1438.45 2276.36 1444.12 Q2276.36 1448.06 2274.1 1450.8 Q2271.84 1453.51 2267.67 1454.56 Z" fill="#000000" fill-rule="nonzero" fill-opacity="1" /><path clip-path="url(#clip890)" d="M2289.67 1472.1 L2296.38 1472.1 L2296.38 1480.18 L2289.67 1480.18 L2289.67 1472.1 Z" fill="#000000" fill-rule="nonzero" fill-opacity="1" /><path clip-path="url(#clip890)" d="M2324.14 1436.89 Q2319.17 1436.89 2316.66 1441.79 Q2314.17 1446.66 2314.17 1456.47 Q2314.17 1466.24 2316.66 1471.14 Q2319.17 1476.01 2324.14 1476.01 Q2329.13 1476.01 2331.62 1471.14 Q2334.13 1466.24 2334.13 1456.47 Q2334.13 1446.66 2331.62 1441.79 Q2329.13 1436.89 2324.14 1436.89 M2324.14 1431.8 Q2332.13 1431.8 2336.33 1438.13 Q2340.56 1444.44 2340.56 1456.47 Q2340.56 1468.47 2336.33 1474.8 Q2332.13 1481.1 2324.14 1481.1 Q2316.15 1481.1 2311.91 1474.8 Q2307.71 1468.47 2307.71 1456.47 Q2307.71 1444.44 2311.91 1438.13 Q2316.15 1431.8 2324.14 1431.8 Z" fill="#000000" fill-rule="nonzero" fill-opacity="1" /><path clip-path="url(#clip890)" d="M1334.16 1516.76 Q1334.16 1517.49 1334.01 1518.1 L1331.88 1531.65 Q1331.76 1532.67 1331.53 1533.06 Q1331.34 1533.44 1330.73 1533.44 Q1329.78 1533.44 1329.78 1532.45 Q1329.78 1531.88 1330.01 1530.96 Q1330.66 1526.66 1330.66 1524.72 Q1330.66 1523.43 1330.39 1522.47 Q1330.16 1521.48 1329.78 1520.8 Q1329.44 1520.11 1328.64 1519.66 Q1327.84 1519.2 1327.08 1518.93 Q1326.32 1518.67 1324.95 1518.55 Q1323.58 1518.4 1322.4 1518.36 Q1321.22 1518.33 1319.28 1518.33 Q1315.05 1518.33 1314.37 1518.48 Q1313.64 1518.67 1313.26 1519.24 Q1312.92 1519.77 1312.54 1521.37 L1302.19 1562.74 L1301.88 1564.38 Q1301.88 1565.29 1302.45 1565.6 Q1303.02 1565.9 1304.78 1566.09 Q1307.29 1566.28 1309.76 1566.28 Q1309.84 1566.28 1309.99 1566.28 Q1310.83 1566.28 1311.17 1566.32 Q1311.51 1566.32 1311.86 1566.4 Q1312.2 1566.47 1312.27 1566.66 Q1312.39 1566.82 1312.39 1567.12 Q1312.39 1567.84 1312.08 1568.22 Q1311.78 1568.57 1311.47 1568.64 Q1311.21 1568.68 1310.68 1568.68 Q1309.61 1568.68 1307.33 1568.6 Q1305.04 1568.53 1303.9 1568.53 L1297.43 1568.45 L1290.81 1568.53 Q1289.78 1568.53 1287.61 1568.6 Q1285.44 1568.68 1284.41 1568.68 Q1283.08 1568.68 1283.08 1567.73 Q1283.08 1566.66 1283.58 1566.47 Q1284.11 1566.28 1286.35 1566.28 Q1289.51 1566.28 1291.23 1566.13 Q1292.94 1565.98 1293.85 1565.45 Q1294.8 1564.91 1295.07 1564.38 Q1295.34 1563.81 1295.64 1562.51 L1306.11 1520.91 Q1306.41 1520 1306.41 1519.28 Q1306.41 1518.9 1306.3 1518.74 Q1306.22 1518.59 1305.73 1518.48 Q1305.23 1518.33 1304.2 1518.33 L1301.16 1518.33 Q1298.04 1518.33 1296.1 1518.48 Q1294.19 1518.59 1292.37 1519.16 Q1290.58 1519.73 1289.51 1520.53 Q1288.49 1521.33 1287.34 1522.97 Q1286.2 1524.61 1285.36 1526.58 Q1284.57 1528.56 1283.42 1531.8 Q1283.04 1532.86 1282.81 1533.17 Q1282.62 1533.44 1282.09 1533.44 Q1281.71 1533.44 1281.41 1533.21 Q1281.14 1532.94 1281.14 1532.6 Q1281.52 1531.34 1281.6 1531.19 L1286.28 1517.45 Q1286.66 1516.35 1287 1516.16 Q1287.38 1515.93 1288.79 1515.93 L1332.03 1515.93 Q1332.71 1515.93 1332.94 1515.93 Q1333.17 1515.93 1333.55 1516 Q1333.93 1516.08 1334.04 1516.27 Q1334.16 1516.46 1334.16 1516.76 Z" fill="#000000" fill-rule="nonzero" fill-opacity="1" /><polyline clip-path="url(#clip890)" style="stroke:#000000; stroke-linecap:round; stroke-linejoin:round; stroke-width:4; stroke-opacity:1; fill:none" points="254.609,1401.58 254.609,123.472 "/>
<polyline clip-path="url(#clip890)" style="stroke:#000000; stroke-linecap:round; stroke-linejoin:round; stroke-width:4; stroke-opacity:1; fill:none" points="254.609,1125.16 273.506,1125.16 "/>
<polyline clip-path="url(#clip890)" style="stroke:#000000; stroke-linecap:round; stroke-linejoin:round; stroke-width:4; stroke-opacity:1; fill:none" points="254.609,828.977 273.506,828.977 "/>
<polyline clip-path="url(#clip890)" style="stroke:#000000; stroke-linecap:round; stroke-linejoin:round; stroke-width:4; stroke-opacity:1; fill:none" points="254.609,532.796 273.506,532.796 "/>
<polyline clip-path="url(#clip890)" style="stroke:#000000; stroke-linecap:round; stroke-linejoin:round; stroke-width:4; stroke-opacity:1; fill:none" points="254.609,236.615 273.506,236.615 "/>
<path clip-path="url(#clip890)" d="M142.188 1105.63 Q137.223 1105.63 134.709 1110.53 Q132.226 1115.4 132.226 1125.21 Q132.226 1134.98 134.709 1139.88 Q137.223 1144.75 142.188 1144.75 Q147.185 1144.75 149.668 1139.88 Q152.182 1134.98 152.182 1125.21 Q152.182 1115.4 149.668 1110.53 Q147.185 1105.63 142.188 1105.63 M142.188 1100.54 Q150.177 1100.54 154.379 1106.87 Q158.612 1113.17 158.612 1125.21 Q158.612 1137.2 154.379 1143.54 Q150.177 1149.84 142.188 1149.84 Q134.199 1149.84 129.966 1143.54 Q125.765 1137.2 125.765 1125.21 Q125.765 1113.17 129.966 1106.87 Q134.199 1100.54 142.188 1100.54 Z" fill="#000000" fill-rule="nonzero" fill-opacity="1" /><path clip-path="url(#clip890)" d="M169.911 1140.83 L176.627 1140.83 L176.627 1148.92 L169.911 1148.92 L169.911 1140.83 Z" fill="#000000" fill-rule="nonzero" fill-opacity="1" /><path clip-path="url(#clip890)" d="M196.169 1143.51 L218.609 1143.51 L218.609 1148.92 L188.435 1148.92 L188.435 1143.51 Q192.095 1139.72 198.397 1133.35 Q204.731 1126.96 206.355 1125.11 Q209.442 1121.64 210.651 1119.25 Q211.893 1116.83 211.893 1114.51 Q211.893 1110.72 209.219 1108.34 Q206.577 1105.95 202.312 1105.95 Q199.289 1105.95 195.915 1107 Q192.573 1108.05 188.753 1110.18 L188.753 1103.69 Q192.636 1102.13 196.01 1101.33 Q199.384 1100.54 202.185 1100.54 Q209.569 1100.54 213.962 1104.23 Q218.354 1107.92 218.354 1114.1 Q218.354 1117.03 217.24 1119.67 Q216.158 1122.28 213.261 1125.84 Q212.466 1126.77 208.201 1131.19 Q203.936 1135.58 196.169 1143.51 Z" fill="#000000" fill-rule="nonzero" fill-opacity="1" /><path clip-path="url(#clip890)" d="M139.324 809.45 Q134.358 809.45 131.844 814.351 Q129.361 819.221 129.361 829.024 Q129.361 838.796 131.844 843.697 Q134.358 848.567 139.324 848.567 Q144.321 848.567 146.803 843.697 Q149.318 838.796 149.318 829.024 Q149.318 819.221 146.803 814.351 Q144.321 809.45 139.324 809.45 M139.324 804.357 Q147.313 804.357 151.514 810.691 Q155.747 816.993 155.747 829.024 Q155.747 841.024 151.514 847.358 Q147.313 853.66 139.324 853.66 Q131.335 853.66 127.102 847.358 Q122.9 841.024 122.9 829.024 Q122.9 816.993 127.102 810.691 Q131.335 804.357 139.324 804.357 Z" fill="#000000" fill-rule="nonzero" fill-opacity="1" /><path clip-path="url(#clip890)" d="M167.046 844.652 L173.762 844.652 L173.762 852.737 L167.046 852.737 L167.046 844.652 Z" fill="#000000" fill-rule="nonzero" fill-opacity="1" /><path clip-path="url(#clip890)" d="M205.432 810.819 L189.199 836.186 L205.432 836.186 L205.432 810.819 M203.745 805.217 L211.829 805.217 L211.829 836.186 L218.609 836.186 L218.609 841.533 L211.829 841.533 L211.829 852.737 L205.432 852.737 L205.432 841.533 L183.979 841.533 L183.979 835.326 L203.745 805.217 Z" fill="#000000" fill-rule="nonzero" fill-opacity="1" /><path clip-path="url(#clip890)" d="M139.769 513.269 Q134.804 513.269 132.29 518.17 Q129.807 523.04 129.807 532.843 Q129.807 542.615 132.29 547.516 Q134.804 552.386 139.769 552.386 Q144.766 552.386 147.249 547.516 Q149.763 542.615 149.763 532.843 Q149.763 523.04 147.249 518.17 Q144.766 513.269 139.769 513.269 M139.769 508.176 Q147.758 508.176 151.96 514.51 Q156.193 520.812 156.193 532.843 Q156.193 544.843 151.96 551.177 Q147.758 557.479 139.769 557.479 Q131.78 557.479 127.547 551.177 Q123.346 544.843 123.346 532.843 Q123.346 520.812 127.547 514.51 Q131.78 508.176 139.769 508.176 Z" fill="#000000" fill-rule="nonzero" fill-opacity="1" /><path clip-path="url(#clip890)" d="M167.492 548.471 L174.208 548.471 L174.208 556.556 L167.492 556.556 L167.492 548.471 Z" fill="#000000" fill-rule="nonzero" fill-opacity="1" /><path clip-path="url(#clip890)" d="M202.758 530.233 Q198.429 530.233 195.883 533.194 Q193.369 536.154 193.369 541.31 Q193.369 546.434 195.883 549.426 Q198.429 552.386 202.758 552.386 Q207.087 552.386 209.601 549.426 Q212.147 546.434 212.147 541.31 Q212.147 536.154 209.601 533.194 Q207.087 530.233 202.758 530.233 M215.521 510.086 L215.521 515.942 Q213.102 514.797 210.62 514.192 Q208.169 513.587 205.75 513.587 Q199.384 513.587 196.01 517.884 Q192.668 522.181 192.191 530.87 Q194.069 528.101 196.901 526.637 Q199.734 525.141 203.14 525.141 Q210.301 525.141 214.439 529.501 Q218.609 533.83 218.609 541.31 Q218.609 548.63 214.28 553.055 Q209.951 557.479 202.758 557.479 Q194.514 557.479 190.154 551.177 Q185.793 544.843 185.793 532.843 Q185.793 521.576 191.141 514.892 Q196.488 508.176 205.495 508.176 Q207.914 508.176 210.365 508.654 Q212.848 509.131 215.521 510.086 Z" fill="#000000" fill-rule="nonzero" fill-opacity="1" /><path clip-path="url(#clip890)" d="M140.119 217.088 Q135.154 217.088 132.64 221.989 Q130.157 226.859 130.157 236.662 Q130.157 246.434 132.64 251.335 Q135.154 256.205 140.119 256.205 Q145.116 256.205 147.599 251.335 Q150.114 246.434 150.114 236.662 Q150.114 226.859 147.599 221.989 Q145.116 217.088 140.119 217.088 M140.119 211.995 Q148.108 211.995 152.31 218.329 Q156.543 224.631 156.543 236.662 Q156.543 248.662 152.31 254.996 Q148.108 261.298 140.119 261.298 Q132.13 261.298 127.897 254.996 Q123.696 248.662 123.696 236.662 Q123.696 224.631 127.897 218.329 Q132.13 211.995 140.119 211.995 Z" fill="#000000" fill-rule="nonzero" fill-opacity="1" /><path clip-path="url(#clip890)" d="M167.842 252.29 L174.558 252.29 L174.558 260.375 L167.842 260.375 L167.842 252.29 Z" fill="#000000" fill-rule="nonzero" fill-opacity="1" /><path clip-path="url(#clip890)" d="M202.312 237.808 Q197.729 237.808 195.087 240.259 Q192.477 242.71 192.477 247.007 Q192.477 251.304 195.087 253.754 Q197.729 256.205 202.312 256.205 Q206.896 256.205 209.537 253.754 Q212.179 251.272 212.179 247.007 Q212.179 242.71 209.537 240.259 Q206.927 237.808 202.312 237.808 M195.883 235.071 Q191.745 234.052 189.422 231.22 Q187.13 228.387 187.13 224.313 Q187.13 218.616 191.172 215.305 Q195.246 211.995 202.312 211.995 Q209.41 211.995 213.452 215.305 Q217.495 218.616 217.495 224.313 Q217.495 228.387 215.171 231.22 Q212.879 234.052 208.774 235.071 Q213.421 236.153 215.999 239.304 Q218.609 242.455 218.609 247.007 Q218.609 253.913 214.375 257.606 Q210.174 261.298 202.312 261.298 Q194.451 261.298 190.218 257.606 Q186.016 253.913 186.016 247.007 Q186.016 242.455 188.626 239.304 Q191.236 236.153 195.883 235.071 M193.528 224.918 Q193.528 228.61 195.819 230.679 Q198.143 232.748 202.312 232.748 Q206.45 232.748 208.774 230.679 Q211.129 228.61 211.129 224.918 Q211.129 221.226 208.774 219.157 Q206.45 217.088 202.312 217.088 Q198.143 217.088 195.819 219.157 Q193.528 221.226 193.528 224.918 Z" fill="#000000" fill-rule="nonzero" fill-opacity="1" /><path clip-path="url(#clip890)" d="M18.3474 795.521 L38.2155 800.431 Q39.4715 800.773 39.6237 801.002 Q39.776 801.192 39.776 801.801 Q39.776 802.981 38.9767 802.981 Q38.9006 802.981 37.911 802.867 Q36.8833 802.752 35.0183 802.752 Q28.1292 802.752 24.0566 806.102 Q19.984 809.413 19.984 815.313 Q19.984 820.413 22.5722 825.551 Q25.1604 830.651 29.3852 834.305 Q32.5824 837.046 36.6169 839.063 Q40.6514 841.042 44.3434 841.994 Q48.0353 842.907 50.8138 843.326 Q53.5923 843.745 55.6096 843.745 Q58.5403 843.745 61.0143 843.136 Q63.4883 842.489 65.2391 841.347 Q66.9519 840.205 68.284 838.759 Q69.5781 837.274 70.3393 835.561 Q71.1006 833.811 71.4812 832.06 Q71.8237 830.309 71.8237 828.482 Q71.8237 821.136 66.1145 814.133 Q61.433 808.576 53.7826 806.254 Q53.0214 806.064 53.0214 805.264 Q53.0214 804.313 53.7826 804.313 Q53.9348 804.313 54.6961 804.503 Q55.4192 804.694 56.9036 805.264 Q58.35 805.835 59.9866 806.711 Q61.6233 807.586 63.6786 809.223 Q65.7339 810.859 67.5228 812.877 Q70.4916 816.302 72.3566 820.641 Q74.2216 824.98 74.2216 829.738 Q74.2216 835.676 71.5954 840.471 Q68.9691 845.267 64.0592 848.084 Q59.1493 850.862 52.8691 850.862 Q46.2464 850.862 39.7379 847.817 Q33.2294 844.772 28.3956 839.938 Q23.5618 835.105 20.5549 828.71 Q17.5481 822.316 17.5481 815.922 Q17.5481 813.486 18.1951 811.316 Q18.8422 809.147 19.6415 807.853 Q20.4408 806.52 21.6207 805.341 Q22.7625 804.161 23.2954 803.78 Q23.8282 803.361 24.4753 802.981 L18.4996 797.538 Q17.5481 796.586 17.5481 796.358 Q17.5481 795.901 17.8145 795.711 Q18.0809 795.521 18.3474 795.521 Z" fill="#000000" fill-rule="nonzero" fill-opacity="1" /><path clip-path="url(#clip890)" d="M53.0214 786.314 Q39.8521 786.314 29.233 781.404 Q24.7798 779.311 21.0497 776.38 Q17.3197 773.449 15.6831 771.508 Q14.0464 769.567 14.0464 769.034 Q14.0464 768.273 14.8077 768.235 Q15.1883 768.235 16.1398 769.262 Q28.9285 781.823 53.0214 781.785 Q77.1904 781.785 89.4843 769.567 Q90.8164 768.235 91.2351 768.235 Q91.9963 768.235 91.9963 769.034 Q91.9963 769.567 90.4358 771.432 Q88.8753 773.297 85.2975 776.19 Q81.7197 779.082 77.3427 781.176 Q66.7235 786.314 53.0214 786.314 Z" fill="#000000" fill-rule="nonzero" fill-opacity="1" /><path clip-path="url(#clip890)" d="M20.593 709.291 Q21.3162 709.291 21.9251 709.443 L35.475 711.575 Q36.5027 711.689 36.8833 711.917 Q37.2639 712.108 37.2639 712.717 Q37.2639 713.668 36.2743 713.668 Q35.7034 713.668 34.7899 713.44 Q30.489 712.793 28.5478 712.793 Q27.2538 712.793 26.3022 713.059 Q25.3126 713.287 24.6275 713.668 Q23.9424 714.011 23.4857 714.81 Q23.0289 715.609 22.7625 716.37 Q22.4961 717.132 22.3819 718.502 Q22.2296 719.872 22.1916 721.052 Q22.1535 722.232 22.1535 724.173 Q22.1535 728.398 22.3058 729.083 Q22.4961 729.806 23.067 730.187 Q23.5999 730.529 25.1984 730.91 L66.5713 741.263 L68.2079 741.567 Q69.1214 741.567 69.4259 740.996 Q69.7304 740.425 69.9207 738.674 Q70.111 736.162 70.111 733.688 Q70.111 733.612 70.111 733.46 Q70.111 732.623 70.149 732.28 Q70.149 731.938 70.2252 731.595 Q70.3013 731.252 70.4916 731.176 Q70.6438 731.062 70.9483 731.062 Q71.6715 731.062 72.0521 731.367 Q72.3947 731.671 72.4708 731.976 Q72.5088 732.242 72.5088 732.775 Q72.5088 733.841 72.4327 736.124 Q72.3566 738.408 72.3566 739.55 L72.2805 746.02 L72.3566 752.643 Q72.3566 753.671 72.4327 755.84 Q72.5088 758.01 72.5088 759.037 Q72.5088 760.369 71.5573 760.369 Q70.4916 760.369 70.3013 759.875 Q70.111 759.342 70.111 757.096 Q70.111 753.937 69.9587 752.224 Q69.8065 750.512 69.2736 749.598 Q68.7408 748.647 68.2079 748.38 Q67.637 748.114 66.3429 747.809 L24.7417 737.342 Q23.8282 737.038 23.1051 737.038 Q22.7244 737.038 22.5722 737.152 Q22.4199 737.228 22.3058 737.723 Q22.1535 738.218 22.1535 739.245 L22.1535 742.29 Q22.1535 745.411 22.3058 747.352 Q22.4199 749.256 22.9909 751.082 Q23.5618 752.871 24.3611 753.937 Q25.1604 754.965 26.797 756.107 Q28.4337 757.248 30.4129 758.086 Q32.3921 758.885 35.6273 760.027 Q36.693 760.408 36.9975 760.636 Q37.2639 760.826 37.2639 761.359 Q37.2639 761.74 37.0356 762.044 Q36.7691 762.311 36.4266 762.311 Q35.1705 761.93 35.0183 761.854 L21.2781 757.172 Q20.1743 756.792 19.984 756.449 Q19.7556 756.069 19.7556 754.66 L19.7556 711.422 Q19.7556 710.737 19.7556 710.509 Q19.7556 710.281 19.8318 709.9 Q19.9079 709.519 20.0982 709.405 Q20.2885 709.291 20.593 709.291 Z" fill="#000000" fill-rule="nonzero" fill-opacity="1" /><path clip-path="url(#clip890)" d="M91.2351 704.121 Q90.8545 704.121 89.9029 703.132 Q77.1143 690.571 53.0214 690.571 Q28.8523 690.571 16.6346 702.637 Q15.2263 704.121 14.8077 704.121 Q14.0464 704.121 14.0464 703.36 Q14.0464 702.827 15.6069 700.962 Q17.1675 699.059 20.7452 696.204 Q24.323 693.312 28.7001 691.18 Q39.3192 686.042 53.0214 686.042 Q66.1906 686.042 76.8098 690.952 Q81.263 693.045 84.993 695.976 Q88.723 698.907 90.3597 700.848 Q91.9963 702.789 91.9963 703.36 Q91.9963 704.121 91.2351 704.121 Z" fill="#000000" fill-rule="nonzero" fill-opacity="1" /><path clip-path="url(#clip890)" d="M551.774 12.096 L559.956 12.096 L559.956 36.8875 L589.69 36.8875 L589.69 12.096 L597.873 12.096 L597.873 72.576 L589.69 72.576 L589.69 43.7741 L559.956 43.7741 L559.956 72.576 L551.774 72.576 L551.774 12.096 Z" fill="#000000" fill-rule="nonzero" fill-opacity="1" /><path clip-path="url(#clip890)" d="M652.641 48.0275 L652.641 51.6733 L618.371 51.6733 Q618.857 59.3701 622.989 63.421 Q627.161 67.4314 634.574 67.4314 Q638.868 67.4314 642.878 66.3781 Q646.929 65.3249 650.899 63.2184 L650.899 70.267 Q646.889 71.9684 642.676 72.8596 Q638.463 73.7508 634.129 73.7508 Q623.272 73.7508 616.912 67.4314 Q610.593 61.1119 610.593 50.3365 Q610.593 39.1965 616.588 32.6746 Q622.624 26.1121 632.832 26.1121 Q641.987 26.1121 647.294 32.0264 Q652.641 37.9003 652.641 48.0275 M645.187 45.84 Q645.106 39.7232 641.744 36.0774 Q638.422 32.4315 632.913 32.4315 Q626.675 32.4315 622.908 35.9558 Q619.181 39.4801 618.614 45.8805 L645.187 45.84 Z" fill="#000000" fill-rule="nonzero" fill-opacity="1" /><path clip-path="url(#clip890)" d="M685.494 49.7694 Q676.46 49.7694 672.977 51.8354 Q669.493 53.9013 669.493 58.8839 Q669.493 62.8538 672.085 65.2034 Q674.719 67.5124 679.215 67.5124 Q685.413 67.5124 689.14 63.1374 Q692.907 58.7219 692.907 51.4303 L692.907 49.7694 L685.494 49.7694 M700.361 46.6907 L700.361 72.576 L692.907 72.576 L692.907 65.6895 Q690.355 69.8214 686.547 71.8063 Q682.739 73.7508 677.23 73.7508 Q670.263 73.7508 666.131 69.8619 Q662.039 65.9325 662.039 59.3701 Q662.039 51.7138 667.143 47.825 Q672.288 43.9361 682.456 43.9361 L692.907 43.9361 L692.907 43.2069 Q692.907 38.0623 689.504 35.2672 Q686.142 32.4315 680.025 32.4315 Q676.136 32.4315 672.45 33.3632 Q668.764 34.295 665.361 36.1584 L665.361 29.2718 Q669.452 27.692 673.301 26.9223 Q677.149 26.1121 680.795 26.1121 Q690.639 26.1121 695.5 31.2163 Q700.361 36.3204 700.361 46.6907 Z" fill="#000000" fill-rule="nonzero" fill-opacity="1" /><path clip-path="url(#clip890)" d="M723.086 14.324 L723.086 27.2059 L738.439 27.2059 L738.439 32.9987 L723.086 32.9987 L723.086 57.6282 Q723.086 63.1779 724.585 64.7578 Q726.125 66.3376 730.783 66.3376 L738.439 66.3376 L738.439 72.576 L730.783 72.576 Q722.155 72.576 718.873 69.3758 Q715.592 66.1351 715.592 57.6282 L715.592 32.9987 L710.123 32.9987 L710.123 27.2059 L715.592 27.2059 L715.592 14.324 L723.086 14.324 Z" fill="#000000" fill-rule="nonzero" fill-opacity="1" /><path clip-path="url(#clip890)" d="M820.227 16.7545 L820.227 25.383 Q816.095 21.5346 811.396 19.6307 Q806.738 17.7268 801.471 17.7268 Q791.101 17.7268 785.592 24.0867 Q780.083 30.4061 780.083 42.3968 Q780.083 54.3469 785.592 60.7069 Q791.101 67.0263 801.471 67.0263 Q806.738 67.0263 811.396 65.1223 Q816.095 63.2184 820.227 59.3701 L820.227 67.9175 Q815.933 70.8341 811.113 72.2924 Q806.332 73.7508 800.985 73.7508 Q787.253 73.7508 779.353 65.3654 Q771.454 56.9395 771.454 42.3968 Q771.454 27.8135 779.353 19.4281 Q787.253 11.0023 800.985 11.0023 Q806.413 11.0023 811.194 12.4606 Q816.014 13.8784 820.227 16.7545 Z" fill="#000000" fill-rule="nonzero" fill-opacity="1" /><path clip-path="url(#clip890)" d="M853.161 49.7694 Q844.127 49.7694 840.644 51.8354 Q837.16 53.9013 837.16 58.8839 Q837.16 62.8538 839.752 65.2034 Q842.386 67.5124 846.882 67.5124 Q853.08 67.5124 856.807 63.1374 Q860.574 58.7219 860.574 51.4303 L860.574 49.7694 L853.161 49.7694 M868.028 46.6907 L868.028 72.576 L860.574 72.576 L860.574 65.6895 Q858.022 69.8214 854.214 71.8063 Q850.406 73.7508 844.897 73.7508 Q837.93 73.7508 833.798 69.8619 Q829.706 65.9325 829.706 59.3701 Q829.706 51.7138 834.81 47.825 Q839.955 43.9361 850.123 43.9361 L860.574 43.9361 L860.574 43.2069 Q860.574 38.0623 857.171 35.2672 Q853.809 32.4315 847.692 32.4315 Q843.803 32.4315 840.117 33.3632 Q836.431 34.295 833.028 36.1584 L833.028 29.2718 Q837.119 27.692 840.968 26.9223 Q844.816 26.1121 848.462 26.1121 Q858.306 26.1121 863.167 31.2163 Q868.028 36.3204 868.028 46.6907 Z" fill="#000000" fill-rule="nonzero" fill-opacity="1" /><path clip-path="url(#clip890)" d="M890.591 65.7705 L890.591 89.8329 L883.097 89.8329 L883.097 27.2059 L890.591 27.2059 L890.591 34.0924 Q892.941 30.0415 896.506 28.0971 Q900.111 26.1121 905.094 26.1121 Q913.357 26.1121 918.502 32.6746 Q923.687 39.2371 923.687 49.9314 Q923.687 60.6258 918.502 67.1883 Q913.357 73.7508 905.094 73.7508 Q900.111 73.7508 896.506 71.8063 Q892.941 69.8214 890.591 65.7705 M915.95 49.9314 Q915.95 41.7081 912.547 37.0496 Q909.185 32.3505 903.271 32.3505 Q897.356 32.3505 893.954 37.0496 Q890.591 41.7081 890.591 49.9314 Q890.591 58.1548 893.954 62.8538 Q897.356 67.5124 903.271 67.5124 Q909.185 67.5124 912.547 62.8538 Q915.95 58.1548 915.95 49.9314 Z" fill="#000000" fill-rule="nonzero" fill-opacity="1" /><path clip-path="url(#clip890)" d="M956.662 49.7694 Q947.628 49.7694 944.144 51.8354 Q940.66 53.9013 940.66 58.8839 Q940.66 62.8538 943.253 65.2034 Q945.886 67.5124 950.383 67.5124 Q956.581 67.5124 960.307 63.1374 Q964.075 58.7219 964.075 51.4303 L964.075 49.7694 L956.662 49.7694 M971.528 46.6907 L971.528 72.576 L964.075 72.576 L964.075 65.6895 Q961.523 69.8214 957.715 71.8063 Q953.907 73.7508 948.398 73.7508 Q941.43 73.7508 937.298 69.8619 Q933.207 65.9325 933.207 59.3701 Q933.207 51.7138 938.311 47.825 Q943.456 43.9361 953.623 43.9361 L964.075 43.9361 L964.075 43.2069 Q964.075 38.0623 960.672 35.2672 Q957.31 32.4315 951.193 32.4315 Q947.304 32.4315 943.618 33.3632 Q939.931 34.295 936.529 36.1584 L936.529 29.2718 Q940.62 27.692 944.468 26.9223 Q948.317 26.1121 951.962 26.1121 Q961.806 26.1121 966.667 31.2163 Q971.528 36.3204 971.528 46.6907 Z" fill="#000000" fill-rule="nonzero" fill-opacity="1" /><path clip-path="url(#clip890)" d="M1019.53 28.9478 L1019.53 35.9153 Q1016.37 34.1734 1013.17 33.3227 Q1010.01 32.4315 1006.77 32.4315 Q999.52 32.4315 995.51 37.0496 Q991.499 41.6271 991.499 49.9314 Q991.499 58.2358 995.51 62.8538 Q999.52 67.4314 1006.77 67.4314 Q1010.01 67.4314 1013.17 66.5807 Q1016.37 65.6895 1019.53 63.9476 L1019.53 70.8341 Q1016.41 72.2924 1013.05 73.0216 Q1009.73 73.7508 1005.96 73.7508 Q995.712 73.7508 989.676 67.3098 Q983.641 60.8689 983.641 49.9314 Q983.641 38.832 989.717 32.472 Q995.834 26.1121 1006.45 26.1121 Q1009.89 26.1121 1013.17 26.8413 Q1016.45 27.5299 1019.53 28.9478 Z" fill="#000000" fill-rule="nonzero" fill-opacity="1" /><path clip-path="url(#clip890)" d="M1032.49 27.2059 L1039.95 27.2059 L1039.95 72.576 L1032.49 72.576 L1032.49 27.2059 M1032.49 9.54393 L1039.95 9.54393 L1039.95 18.9825 L1032.49 18.9825 L1032.49 9.54393 Z" fill="#000000" fill-rule="nonzero" fill-opacity="1" /><path clip-path="url(#clip890)" d="M1062.92 14.324 L1062.92 27.2059 L1078.27 27.2059 L1078.27 32.9987 L1062.92 32.9987 L1062.92 57.6282 Q1062.92 63.1779 1064.42 64.7578 Q1065.95 66.3376 1070.61 66.3376 L1078.27 66.3376 L1078.27 72.576 L1070.61 72.576 Q1061.99 72.576 1058.7 69.3758 Q1055.42 66.1351 1055.42 57.6282 L1055.42 32.9987 L1049.95 32.9987 L1049.95 27.2059 L1055.42 27.2059 L1055.42 14.324 L1062.92 14.324 Z" fill="#000000" fill-rule="nonzero" fill-opacity="1" /><path clip-path="url(#clip890)" d="M1106.95 76.7889 Q1103.79 84.8907 1100.79 87.3618 Q1097.8 89.8329 1092.77 89.8329 L1086.82 89.8329 L1086.82 83.5945 L1091.19 83.5945 Q1094.27 83.5945 1095.97 82.1361 Q1097.67 80.6778 1099.74 75.2496 L1101.08 71.8468 L1082.73 27.2059 L1090.62 27.2059 L1104.8 62.6918 L1118.98 27.2059 L1126.88 27.2059 L1106.95 76.7889 Z" fill="#000000" fill-rule="nonzero" fill-opacity="1" /><path clip-path="url(#clip890)" d="M1181.12 32.4315 Q1175.13 32.4315 1171.64 37.1306 Q1168.16 41.7891 1168.16 49.9314 Q1168.16 58.0738 1171.6 62.7728 Q1175.09 67.4314 1181.12 67.4314 Q1187.08 67.4314 1190.56 62.7323 Q1194.04 58.0333 1194.04 49.9314 Q1194.04 41.8701 1190.56 37.1711 Q1187.08 32.4315 1181.12 32.4315 M1181.12 26.1121 Q1190.84 26.1121 1196.39 32.4315 Q1201.94 38.7509 1201.94 49.9314 Q1201.94 61.0714 1196.39 67.4314 Q1190.84 73.7508 1181.12 73.7508 Q1171.36 73.7508 1165.81 67.4314 Q1160.3 61.0714 1160.3 49.9314 Q1160.3 38.7509 1165.81 32.4315 Q1171.36 26.1121 1181.12 26.1121 Z" fill="#000000" fill-rule="nonzero" fill-opacity="1" /><path clip-path="url(#clip890)" d="M1237.27 9.54393 L1237.27 15.7418 L1230.14 15.7418 Q1226.13 15.7418 1224.55 17.3622 Q1223.01 18.9825 1223.01 23.1955 L1223.01 27.2059 L1235.28 27.2059 L1235.28 32.9987 L1223.01 32.9987 L1223.01 72.576 L1215.51 72.576 L1215.51 32.9987 L1208.38 32.9987 L1208.38 27.2059 L1215.51 27.2059 L1215.51 24.0462 Q1215.51 16.471 1219.04 13.0277 Q1222.56 9.54393 1230.22 9.54393 L1237.27 9.54393 Z" fill="#000000" fill-rule="nonzero" fill-opacity="1" /><path clip-path="url(#clip890)" d="M1277.25 14.324 L1277.25 27.2059 L1292.6 27.2059 L1292.6 32.9987 L1277.25 32.9987 L1277.25 57.6282 Q1277.25 63.1779 1278.75 64.7578 Q1280.29 66.3376 1284.95 66.3376 L1292.6 66.3376 L1292.6 72.576 L1284.95 72.576 Q1276.32 72.576 1273.04 69.3758 Q1269.76 66.1351 1269.76 57.6282 L1269.76 32.9987 L1264.29 32.9987 L1264.29 27.2059 L1269.76 27.2059 L1269.76 14.324 L1277.25 14.324 Z" fill="#000000" fill-rule="nonzero" fill-opacity="1" /><path clip-path="url(#clip890)" d="M1340.12 45.1919 L1340.12 72.576 L1332.67 72.576 L1332.67 45.4349 Q1332.67 38.994 1330.15 35.7938 Q1327.64 32.5936 1322.62 32.5936 Q1316.58 32.5936 1313.1 36.4419 Q1309.62 40.2903 1309.62 46.9338 L1309.62 72.576 L1302.12 72.576 L1302.12 9.54393 L1309.62 9.54393 L1309.62 34.2544 Q1312.29 30.163 1315.9 28.1376 Q1319.54 26.1121 1324.28 26.1121 Q1332.1 26.1121 1336.11 30.9732 Q1340.12 35.7938 1340.12 45.1919 Z" fill="#000000" fill-rule="nonzero" fill-opacity="1" /><path clip-path="url(#clip890)" d="M1393.79 48.0275 L1393.79 51.6733 L1359.52 51.6733 Q1360.01 59.3701 1364.14 63.421 Q1368.31 67.4314 1375.73 67.4314 Q1380.02 67.4314 1384.03 66.3781 Q1388.08 65.3249 1392.05 63.2184 L1392.05 70.267 Q1388.04 71.9684 1383.83 72.8596 Q1379.62 73.7508 1375.28 73.7508 Q1364.43 73.7508 1358.07 67.4314 Q1351.75 61.1119 1351.75 50.3365 Q1351.75 39.1965 1357.74 32.6746 Q1363.78 26.1121 1373.99 26.1121 Q1383.14 26.1121 1388.45 32.0264 Q1393.79 37.9003 1393.79 48.0275 M1386.34 45.84 Q1386.26 39.7232 1382.9 36.0774 Q1379.58 32.4315 1374.07 32.4315 Q1367.83 32.4315 1364.06 35.9558 Q1360.33 39.4801 1359.77 45.8805 L1386.34 45.84 Z" fill="#000000" fill-rule="nonzero" fill-opacity="1" /><path clip-path="url(#clip890)" d="M1433.53 12.096 L1465.66 12.096 L1465.66 18.9825 L1441.03 18.9825 L1441.03 33.8088 Q1442.81 33.2012 1444.59 32.9176 Q1446.38 32.5936 1448.16 32.5936 Q1458.28 32.5936 1464.2 38.1433 Q1470.11 43.6931 1470.11 53.1722 Q1470.11 62.9348 1464.04 68.3631 Q1457.96 73.7508 1446.9 73.7508 Q1443.09 73.7508 1439.12 73.1026 Q1435.19 72.4545 1430.98 71.1582 L1430.98 62.9348 Q1434.63 64.9198 1438.52 65.892 Q1442.41 66.8642 1446.74 66.8642 Q1453.75 66.8642 1457.84 63.1779 Q1461.93 59.4916 1461.93 53.1722 Q1461.93 46.8528 1457.84 43.1664 Q1453.75 39.4801 1446.74 39.4801 Q1443.46 39.4801 1440.18 40.2093 Q1436.94 40.9384 1433.53 42.4778 L1433.53 12.096 Z" fill="#000000" fill-rule="nonzero" fill-opacity="1" /><path clip-path="url(#clip890)" d="M1481.42 46.5287 L1503.25 46.5287 L1503.25 53.1722 L1481.42 53.1722 L1481.42 46.5287 Z" fill="#000000" fill-rule="nonzero" fill-opacity="1" /><path clip-path="url(#clip890)" d="M1551.7 14.0809 L1551.7 22.0612 Q1547.04 19.8332 1542.91 18.7395 Q1538.78 17.6457 1534.93 17.6457 Q1528.24 17.6457 1524.6 20.2383 Q1520.99 22.8309 1520.99 27.611 Q1520.99 31.6214 1523.38 33.6873 Q1525.81 35.7128 1532.54 36.9686 L1537.48 37.9813 Q1546.64 39.7232 1550.97 44.1387 Q1555.34 48.5136 1555.34 55.8863 Q1555.34 64.6767 1549.43 69.2137 Q1543.56 73.7508 1532.17 73.7508 Q1527.88 73.7508 1523.02 72.7785 Q1518.2 71.8063 1513.01 69.9024 L1513.01 61.4765 Q1518 64.2716 1522.78 65.6895 Q1527.56 67.1073 1532.17 67.1073 Q1539.18 67.1073 1542.99 64.3527 Q1546.8 61.598 1546.8 56.4939 Q1546.8 52.0379 1544.04 49.5264 Q1541.33 47.0148 1535.09 45.759 L1530.11 44.7868 Q1520.95 42.9639 1516.86 39.075 Q1512.77 35.1862 1512.77 28.2591 Q1512.77 20.2383 1518.4 15.6203 Q1524.07 11.0023 1534 11.0023 Q1538.25 11.0023 1542.67 11.7719 Q1547.08 12.5416 1551.7 14.0809 Z" fill="#000000" fill-rule="nonzero" fill-opacity="1" /><path clip-path="url(#clip890)" d="M1575.15 14.324 L1575.15 27.2059 L1590.51 27.2059 L1590.51 32.9987 L1575.15 32.9987 L1575.15 57.6282 Q1575.15 63.1779 1576.65 64.7578 Q1578.19 66.3376 1582.85 66.3376 L1590.51 66.3376 L1590.51 72.576 L1582.85 72.576 Q1574.22 72.576 1570.94 69.3758 Q1567.66 66.1351 1567.66 57.6282 L1567.66 32.9987 L1562.19 32.9987 L1562.19 27.2059 L1567.66 27.2059 L1567.66 14.324 L1575.15 14.324 Z" fill="#000000" fill-rule="nonzero" fill-opacity="1" /><path clip-path="url(#clip890)" d="M1620.93 49.7694 Q1611.9 49.7694 1608.41 51.8354 Q1604.93 53.9013 1604.93 58.8839 Q1604.93 62.8538 1607.52 65.2034 Q1610.15 67.5124 1614.65 67.5124 Q1620.85 67.5124 1624.57 63.1374 Q1628.34 58.7219 1628.34 51.4303 L1628.34 49.7694 L1620.93 49.7694 M1635.8 46.6907 L1635.8 72.576 L1628.34 72.576 L1628.34 65.6895 Q1625.79 69.8214 1621.98 71.8063 Q1618.17 73.7508 1612.66 73.7508 Q1605.7 73.7508 1601.57 69.8619 Q1597.47 65.9325 1597.47 59.3701 Q1597.47 51.7138 1602.58 47.825 Q1607.72 43.9361 1617.89 43.9361 L1628.34 43.9361 L1628.34 43.2069 Q1628.34 38.0623 1624.94 35.2672 Q1621.58 32.4315 1615.46 32.4315 Q1611.57 32.4315 1607.88 33.3632 Q1604.2 34.295 1600.8 36.1584 L1600.8 29.2718 Q1604.89 27.692 1608.74 26.9223 Q1612.58 26.1121 1616.23 26.1121 Q1626.07 26.1121 1630.93 31.2163 Q1635.8 36.3204 1635.8 46.6907 Z" fill="#000000" fill-rule="nonzero" fill-opacity="1" /><path clip-path="url(#clip890)" d="M1658.52 14.324 L1658.52 27.2059 L1673.87 27.2059 L1673.87 32.9987 L1658.52 32.9987 L1658.52 57.6282 Q1658.52 63.1779 1660.02 64.7578 Q1661.56 66.3376 1666.22 66.3376 L1673.87 66.3376 L1673.87 72.576 L1666.22 72.576 Q1657.59 72.576 1654.31 69.3758 Q1651.03 66.1351 1651.03 57.6282 L1651.03 32.9987 L1645.56 32.9987 L1645.56 27.2059 L1651.03 27.2059 L1651.03 14.324 L1658.52 14.324 Z" fill="#000000" fill-rule="nonzero" fill-opacity="1" /><path clip-path="url(#clip890)" d="M1722.48 48.0275 L1722.48 51.6733 L1688.21 51.6733 Q1688.7 59.3701 1692.83 63.421 Q1697 67.4314 1704.42 67.4314 Q1708.71 67.4314 1712.72 66.3781 Q1716.77 65.3249 1720.74 63.2184 L1720.74 70.267 Q1716.73 71.9684 1712.52 72.8596 Q1708.31 73.7508 1703.97 73.7508 Q1693.12 73.7508 1686.76 67.4314 Q1680.44 61.1119 1680.44 50.3365 Q1680.44 39.1965 1686.43 32.6746 Q1692.47 26.1121 1702.68 26.1121 Q1711.83 26.1121 1717.14 32.0264 Q1722.48 37.9003 1722.48 48.0275 M1715.03 45.84 Q1714.95 39.7232 1711.59 36.0774 Q1708.27 32.4315 1702.76 32.4315 Q1696.52 32.4315 1692.75 35.9558 Q1689.02 39.4801 1688.46 45.8805 L1715.03 45.84 Z" fill="#000000" fill-rule="nonzero" fill-opacity="1" /><path clip-path="url(#clip890)" d="M1797.67 14.0809 L1797.67 22.0612 Q1793.01 19.8332 1788.88 18.7395 Q1784.75 17.6457 1780.9 17.6457 Q1774.22 17.6457 1770.57 20.2383 Q1766.96 22.8309 1766.96 27.611 Q1766.96 31.6214 1769.35 33.6873 Q1771.78 35.7128 1778.51 36.9686 L1783.45 37.9813 Q1792.61 39.7232 1796.94 44.1387 Q1801.32 48.5136 1801.32 55.8863 Q1801.32 64.6767 1795.4 69.2137 Q1789.53 73.7508 1778.14 73.7508 Q1773.85 73.7508 1768.99 72.7785 Q1764.17 71.8063 1758.98 69.9024 L1758.98 61.4765 Q1763.97 64.2716 1768.75 65.6895 Q1773.53 67.1073 1778.14 67.1073 Q1785.15 67.1073 1788.96 64.3527 Q1792.77 61.598 1792.77 56.4939 Q1792.77 52.0379 1790.01 49.5264 Q1787.3 47.0148 1781.06 45.759 L1776.08 44.7868 Q1766.92 42.9639 1762.83 39.075 Q1758.74 35.1862 1758.74 28.2591 Q1758.74 20.2383 1764.37 15.6203 Q1770.04 11.0023 1779.97 11.0023 Q1784.22 11.0023 1788.64 11.7719 Q1793.05 12.5416 1797.67 14.0809 Z" fill="#000000" fill-rule="nonzero" fill-opacity="1" /><path clip-path="url(#clip890)" d="M1832.63 76.7889 Q1829.47 84.8907 1826.47 87.3618 Q1823.47 89.8329 1818.45 89.8329 L1812.5 89.8329 L1812.5 83.5945 L1816.87 83.5945 Q1819.95 83.5945 1821.65 82.1361 Q1823.35 80.6778 1825.42 75.2496 L1826.76 71.8468 L1808.4 27.2059 L1816.3 27.2059 L1830.48 62.6918 L1844.66 27.2059 L1852.56 27.2059 L1832.63 76.7889 Z" fill="#000000" fill-rule="nonzero" fill-opacity="1" /><path clip-path="url(#clip890)" d="M1891.77 28.5427 L1891.77 35.5912 Q1888.61 33.9709 1885.21 33.1607 Q1881.81 32.3505 1878.16 32.3505 Q1872.61 32.3505 1869.82 34.0519 Q1867.06 35.7533 1867.06 39.156 Q1867.06 41.7486 1869.05 43.2475 Q1871.03 44.7058 1877.03 46.0426 L1879.58 46.6097 Q1887.52 48.3111 1890.84 51.4303 Q1894.2 54.509 1894.2 60.0587 Q1894.2 66.3781 1889.18 70.0644 Q1884.2 73.7508 1875.45 73.7508 Q1871.8 73.7508 1867.83 73.0216 Q1863.9 72.3329 1859.53 70.9151 L1859.53 63.2184 Q1863.66 65.3654 1867.67 66.4591 Q1871.68 67.5124 1875.61 67.5124 Q1880.88 67.5124 1883.71 65.73 Q1886.55 63.9071 1886.55 60.6258 Q1886.55 57.5877 1884.48 55.9673 Q1882.46 54.3469 1875.53 52.8481 L1872.94 52.2405 Q1866.01 50.7821 1862.93 47.7845 Q1859.85 44.7463 1859.85 39.4801 Q1859.85 33.0797 1864.39 29.5959 Q1868.93 26.1121 1877.27 26.1121 Q1881.4 26.1121 1885.05 26.7198 Q1888.69 27.3274 1891.77 28.5427 Z" fill="#000000" fill-rule="nonzero" fill-opacity="1" /><path clip-path="url(#clip890)" d="M1913.44 14.324 L1913.44 27.2059 L1928.8 27.2059 L1928.8 32.9987 L1913.44 32.9987 L1913.44 57.6282 Q1913.44 63.1779 1914.94 64.7578 Q1916.48 66.3376 1921.14 66.3376 L1928.8 66.3376 L1928.8 72.576 L1921.14 72.576 Q1912.51 72.576 1909.23 69.3758 Q1905.95 66.1351 1905.95 57.6282 L1905.95 32.9987 L1900.48 32.9987 L1900.48 27.2059 L1905.95 27.2059 L1905.95 14.324 L1913.44 14.324 Z" fill="#000000" fill-rule="nonzero" fill-opacity="1" /><path clip-path="url(#clip890)" d="M1977.41 48.0275 L1977.41 51.6733 L1943.14 51.6733 Q1943.62 59.3701 1947.76 63.421 Q1951.93 67.4314 1959.34 67.4314 Q1963.64 67.4314 1967.65 66.3781 Q1971.7 65.3249 1975.67 63.2184 L1975.67 70.267 Q1971.66 71.9684 1967.44 72.8596 Q1963.23 73.7508 1958.9 73.7508 Q1948.04 73.7508 1941.68 67.4314 Q1935.36 61.1119 1935.36 50.3365 Q1935.36 39.1965 1941.36 32.6746 Q1947.39 26.1121 1957.6 26.1121 Q1966.75 26.1121 1972.06 32.0264 Q1977.41 37.9003 1977.41 48.0275 M1969.95 45.84 Q1969.87 39.7232 1966.51 36.0774 Q1963.19 32.4315 1957.68 32.4315 Q1951.44 32.4315 1947.67 35.9558 Q1943.95 39.4801 1943.38 45.8805 L1969.95 45.84 Z" fill="#000000" fill-rule="nonzero" fill-opacity="1" /><path clip-path="url(#clip890)" d="M2024.97 35.9153 Q2027.76 30.8922 2031.65 28.5022 Q2035.54 26.1121 2040.81 26.1121 Q2047.89 26.1121 2051.74 31.0947 Q2055.59 36.0368 2055.59 45.1919 L2055.59 72.576 L2048.1 72.576 L2048.1 45.4349 Q2048.1 38.913 2045.79 35.7533 Q2043.48 32.5936 2038.74 32.5936 Q2032.95 32.5936 2029.58 36.4419 Q2026.22 40.2903 2026.22 46.9338 L2026.22 72.576 L2018.73 72.576 L2018.73 45.4349 Q2018.73 38.8725 2016.42 35.7533 Q2014.11 32.5936 2009.29 32.5936 Q2003.58 32.5936 2000.21 36.4824 Q1996.85 40.3308 1996.85 46.9338 L1996.85 72.576 L1989.36 72.576 L1989.36 27.2059 L1996.85 27.2059 L1996.85 34.2544 Q1999.4 30.082 2002.97 28.0971 Q2006.53 26.1121 2011.44 26.1121 Q2016.38 26.1121 2019.82 28.6237 Q2023.31 31.1352 2024.97 35.9153 Z" fill="#000000" fill-rule="nonzero" fill-opacity="1" /><polyline clip-path="url(#clip892)" style="stroke:#0000ff; stroke-linecap:round; stroke-linejoin:round; stroke-width:8; stroke-opacity:1; fill:none" points="313.99,1243.3 321.009,1206.67 328.028,1168.48 335.047,1129.28 342.066,1089.53 349.086,1049.7 356.105,1010.11 363.124,971.056 370.143,932.79 377.162,895.482 384.181,859.272 391.2,824.258 398.219,790.514 405.238,758.083 412.257,726.991 419.276,697.246 426.296,668.847 433.315,641.782 440.334,616.029 447.353,591.565 454.372,568.36 461.391,546.383 468.41,525.599 475.429,505.973 482.448,487.469 489.467,470.051 496.487,453.681 503.506,438.324 510.525,423.943 517.544,410.503 524.563,397.968 531.582,386.303 538.601,375.476 545.62,365.452 552.639,356.199 559.658,347.686 566.677,339.881 573.697,332.756 580.716,326.28 587.735,320.425 594.754,315.165 601.773,310.471 608.792,306.32 615.811,302.686 622.83,299.545 629.849,296.874 636.868,294.651 643.887,292.854 650.907,291.464 657.926,290.46 664.945,289.823 671.964,289.535 678.983,289.579 686.002,289.938 693.021,290.596 700.04,291.538 707.059,292.75 714.078,294.216 721.097,295.924 728.117,297.862 735.136,300.016 742.155,302.376 749.174,304.93 756.193,307.668 763.212,310.58 770.231,313.655 777.25,316.886 784.269,320.262 791.288,323.777 798.308,327.421 805.327,331.188 812.346,335.07 819.365,339.06 826.384,343.152 833.403,347.339 840.422,351.616 847.441,355.977 854.46,360.416 861.479,364.929 868.498,369.51 875.518,374.155 882.537,378.859 889.556,383.619 896.575,388.429 903.594,393.287 910.613,398.188 917.632,403.129 924.651,408.107 931.67,413.119 938.689,418.16 945.708,423.229 952.728,428.323 959.747,433.439 966.766,438.575 973.785,443.728 980.804,448.895 987.823,454.076 994.842,459.267 1001.86,464.466 1008.88,469.672 1015.9,474.883 1022.92,480.098 1029.94,485.313 1036.96,490.529 1043.98,495.743 1050.99,500.954 1058.01,506.16 1065.03,511.361 1072.05,516.555 1079.07,521.741 1086.09,526.918 1093.11,532.084 1100.13,537.239 1107.15,542.381 1114.17,547.511 1121.19,552.626 1128.2,557.726 1135.22,562.811 1142.24,567.879 1149.26,572.93 1156.28,577.963 1163.3,582.977 1170.32,587.972 1177.34,592.948 1184.36,597.903 1191.38,602.837 1198.4,607.75 1205.41,612.641 1212.43,617.511 1219.45,622.357 1226.47,627.181 1233.49,631.981 1240.51,636.757 1247.53,641.51 1254.55,646.238 1261.57,650.942 1268.59,655.621 1275.61,660.275 1282.62,664.903 1289.64,669.506 1296.66,674.083 1303.68,678.635 1310.7,683.16 1317.72,687.66 1324.74,692.133 1331.76,696.579 1338.78,700.999 1345.8,705.393 1352.82,709.76 1359.83,714.1 1366.85,718.413 1373.87,722.7 1380.89,726.959 1387.91,731.192 1394.93,735.398 1401.95,739.577 1408.97,743.729 1415.99,747.854 1423.01,751.952 1430.03,756.024 1437.05,760.068 1444.06,764.086 1451.08,768.077 1458.1,772.041 1465.12,775.978 1472.14,779.889 1479.16,783.774 1486.18,787.632 1493.2,791.463 1500.22,795.268 1507.24,799.047 1514.26,802.8 1521.27,806.527 1528.29,810.228 1535.31,813.903 1542.33,817.553 1549.35,821.176 1556.37,824.775 1563.39,828.347 1570.41,831.895 1577.43,835.417 1584.45,838.915 1591.47,842.387 1598.48,845.835 1605.5,849.258 1612.52,852.657 1619.54,856.031 1626.56,859.38 1633.58,862.706 1640.6,866.008 1647.62,869.286 1654.64,872.54 1661.66,875.771 1668.68,878.978 1675.69,882.162 1682.71,885.323 1689.73,888.46 1696.75,891.575 1703.77,894.668 1710.79,897.737 1717.81,900.785 1724.83,903.81 1731.85,906.813 1738.87,909.794 1745.89,912.753 1752.9,915.69 1759.92,918.606 1766.94,921.501 1773.96,924.374 1780.98,927.226 1788,930.058 1795.02,932.869 1802.04,935.659 1809.06,938.428 1816.08,941.177 1823.1,943.906 1830.11,946.615 1837.13,949.305 1844.15,951.974 1851.17,954.624 1858.19,957.254 1865.21,959.865 1872.23,962.457 1879.25,965.03 1886.27,967.585 1893.29,970.12 1900.31,972.637 1907.32,975.135 1914.34,977.615 1921.36,980.077 1928.38,982.521 1935.4,984.948 1942.42,987.356 1949.44,989.747 1956.46,992.12 1963.48,994.476 1970.5,996.815 1977.52,999.137 1984.53,1001.44 1991.55,1003.73 1998.57,1006 2005.59,1008.26 2012.61,1010.5 2019.63,1012.72 2026.65,1014.92 2033.67,1017.12 2040.69,1019.29 2047.71,1021.45 2054.73,1023.59 2061.74,1025.72 2068.76,1027.83 2075.78,1029.93 2082.8,1032.01 2089.82,1034.08 2096.84,1036.13 2103.86,1038.17 2110.88,1040.19 2117.9,1042.2 2124.92,1044.2 2131.94,1046.18 2138.95,1048.14 2145.97,1050.09 2152.99,1052.03 2160.01,1053.95 2167.03,1055.87 2174.05,1057.76 2181.07,1059.65 2188.09,1061.52 2195.11,1063.37 2202.13,1065.22 2209.15,1067.05 2216.16,1068.87 2223.18,1070.67 2230.2,1072.46 2237.22,1074.24 2244.24,1076.01 2251.26,1077.76 2258.28,1079.51 2265.3,1081.24 2272.32,1082.96 2279.34,1084.66 2286.36,1086.36 2293.37,1088.04 "/>
<polyline clip-path="url(#clip892)" style="stroke:#008000; stroke-linecap:round; stroke-linejoin:round; stroke-width:8; stroke-opacity:1; fill:none" points="313.99,1365.41 321.009,1344 328.028,1318.23 335.047,1287.61 342.066,1253.02 349.086,1214.56 356.105,1172.77 363.124,1128.06 370.143,1080.97 377.162,1032.05 384.181,981.857 391.2,930.922 398.219,879.763 405.238,828.847 412.257,778.61 419.276,729.43 426.296,681.64 433.315,635.523 440.334,591.311 447.353,549.188 454.372,509.297 461.391,471.735 468.41,436.569 475.429,403.827 482.448,373.512 489.467,345.6 496.487,320.049 503.506,296.797 510.525,275.769 517.544,256.878 524.563,240.031 531.582,225.126 538.601,212.059 545.62,200.724 552.639,191.014 559.658,182.822 566.677,176.045 573.697,170.58 580.716,166.33 587.735,163.199 594.754,161.097 601.773,159.94 608.792,159.645 615.811,160.137 622.83,161.343 629.849,163.197 636.868,165.638 643.887,168.606 650.907,172.048 657.926,175.915 664.945,180.162 671.964,184.747 678.983,189.631 686.002,194.78 693.021,200.161 700.04,205.746 707.059,211.508 714.078,217.423 721.097,223.47 728.117,229.629 735.136,235.882 742.155,242.214 749.174,248.611 756.193,255.06 763.212,261.549 770.231,268.069 777.25,274.61 784.269,281.164 791.288,287.725 798.308,294.287 805.327,300.843 812.346,307.389 819.365,313.921 826.384,320.436 833.403,326.929 840.422,333.399 847.441,339.843 854.46,346.259 861.479,352.646 868.498,359.002 875.518,365.326 882.537,371.617 889.556,377.874 896.575,384.096 903.594,390.284 910.613,396.437 917.632,402.555 924.651,408.637 931.67,414.684 938.689,420.695 945.708,426.67 952.728,432.611 959.747,438.516 966.766,444.386 973.785,450.222 980.804,456.023 987.823,461.789 994.842,467.522 1001.86,473.221 1008.88,478.886 1015.9,484.518 1022.92,490.117 1029.94,495.683 1036.96,501.217 1043.98,506.718 1050.99,512.187 1058.01,517.625 1065.03,523.031 1072.05,528.406 1079.07,533.75 1086.09,539.063 1093.11,544.345 1100.13,549.596 1107.15,554.818 1114.17,560.009 1121.19,565.17 1128.2,570.301 1135.22,575.403 1142.24,580.475 1149.26,585.517 1156.28,590.53 1163.3,595.515 1170.32,600.47 1177.34,605.396 1184.36,610.293 1191.38,615.161 1198.4,620.001 1205.41,624.812 1212.43,629.595 1219.45,634.35 1226.47,639.076 1233.49,643.774 1240.51,648.443 1247.53,653.085 1254.55,657.699 1261.57,662.285 1268.59,666.843 1275.61,671.373 1282.62,675.876 1289.64,680.351 1296.66,684.798 1303.68,689.218 1310.7,693.61 1317.72,697.976 1324.74,702.314 1331.76,706.625 1338.78,710.908 1345.8,715.165 1352.82,719.395 1359.83,723.598 1366.85,727.774 1373.87,731.924 1380.89,736.046 1387.91,740.143 1394.93,744.213 1401.95,748.256 1408.97,752.273 1415.99,756.265 1423.01,760.23 1430.03,764.169 1437.05,768.082 1444.06,771.969 1451.08,775.831 1458.1,779.667 1465.12,783.477 1472.14,787.262 1479.16,791.022 1486.18,794.757 1493.2,798.466 1500.22,802.151 1507.24,805.811 1514.26,809.446 1521.27,813.056 1528.29,816.642 1535.31,820.203 1542.33,823.74 1549.35,827.253 1556.37,830.742 1563.39,834.206 1570.41,837.647 1577.43,841.065 1584.45,844.458 1591.47,847.829 1598.48,851.176 1605.5,854.499 1612.52,857.8 1619.54,861.078 1626.56,864.332 1633.58,867.565 1640.6,870.774 1647.62,873.961 1654.64,877.126 1661.66,880.269 1668.68,883.389 1675.69,886.488 1682.71,889.565 1689.73,892.62 1696.75,895.654 1703.77,898.666 1710.79,901.657 1717.81,904.627 1724.83,907.576 1731.85,910.504 1738.87,913.412 1745.89,916.298 1752.9,919.165 1759.92,922.011 1766.94,924.837 1773.96,927.642 1780.98,930.428 1788,933.194 1795.02,935.941 1802.04,938.668 1809.06,941.375 1816.08,944.063 1823.1,946.733 1830.11,949.383 1837.13,952.014 1844.15,954.627 1851.17,957.221 1858.19,959.796 1865.21,962.353 1872.23,964.893 1879.25,967.414 1886.27,969.917 1893.29,972.402 1900.31,974.869 1907.32,977.319 1914.34,979.752 1921.36,982.167 1928.38,984.566 1935.4,986.947 1942.42,989.311 1949.44,991.658 1956.46,993.989 1963.48,996.303 1970.5,998.601 1977.52,1000.88 1984.53,1003.15 1991.55,1005.4 1998.57,1007.63 2005.59,1009.85 2012.61,1012.05 2019.63,1014.24 2026.65,1016.41 2033.67,1018.56 2040.69,1020.7 2047.71,1022.83 2054.73,1024.94 2061.74,1027.04 2068.76,1029.12 2075.78,1031.18 2082.8,1033.23 2089.82,1035.27 2096.84,1037.29 2103.86,1039.3 2110.88,1041.3 2117.9,1043.28 2124.92,1045.24 2131.94,1047.2 2138.95,1049.14 2145.97,1051.06 2152.99,1052.98 2160.01,1054.88 2167.03,1056.76 2174.05,1058.63 2181.07,1060.49 2188.09,1062.34 2195.11,1064.18 2202.13,1066 2209.15,1067.81 2216.16,1069.6 2223.18,1071.39 2230.2,1073.16 2237.22,1074.92 2244.24,1076.67 2251.26,1078.4 2258.28,1080.12 2265.3,1081.84 2272.32,1083.54 2279.34,1085.22 2286.36,1086.9 2293.37,1088.57 "/>
<polyline clip-path="url(#clip892)" style="stroke:#ffa500; stroke-linecap:round; stroke-linejoin:round; stroke-width:8; stroke-opacity:1; fill:none" points="313.99,684.061 321.009,654.963 328.028,641.01 335.047,629.279 342.066,626.036 349.086,629.202 356.105,636.649 363.124,648.192 370.143,662.845 377.162,679.709 384.181,698.201 391.2,717.653 398.219,737.602 405.238,757.58 412.257,777.253 419.276,796.319 426.296,814.56 433.315,831.799 440.334,847.911 447.353,862.808 454.372,876.438 461.391,888.773 468.41,899.811 475.429,909.567 482.448,918.071 489.467,925.364 496.487,931.495 503.506,936.52 510.525,940.499 517.544,943.496 524.563,945.573 531.582,946.797 538.601,947.231 545.62,946.939 552.639,945.981 559.658,944.418 566.677,942.306 573.697,939.7 580.716,936.652 587.735,933.21 594.754,929.423 601.773,925.332 608.792,920.979 615.811,916.403 622.83,911.639 629.849,906.719 636.868,901.676 643.887,896.536 650.907,891.328 657.926,886.073 664.945,880.796 671.964,875.516 678.983,870.252 686.002,865.02 693.021,859.836 700.04,854.715 707.059,849.667 714.078,844.705 721.097,839.839 728.117,835.077 735.136,830.427 742.155,825.897 749.174,821.492 756.193,817.218 763.212,813.079 770.231,809.079 777.25,805.221 784.269,801.507 791.288,797.939 798.308,794.52 805.327,791.249 812.346,788.128 819.365,785.156 826.384,782.334 833.403,779.66 840.422,777.135 847.441,774.757 854.46,772.525 861.479,770.437 868.498,768.492 875.518,766.687 882.537,765.022 889.556,763.493 896.575,762.099 903.594,760.836 910.613,759.704 917.632,758.698 924.651,757.817 931.67,757.058 938.689,756.419 945.708,755.895 952.728,755.486 959.747,755.188 966.766,754.998 973.785,754.914 980.804,754.933 987.823,755.051 994.842,755.268 1001.86,755.578 1008.88,755.981 1015.9,756.474 1022.92,757.052 1029.94,757.715 1036.96,758.46 1043.98,759.283 1050.99,760.183 1058.01,761.157 1065.03,762.203 1072.05,763.318 1079.07,764.499 1086.09,765.745 1093.11,767.054 1100.13,768.423 1107.15,769.85 1114.17,771.332 1121.19,772.869 1128.2,774.457 1135.22,776.095 1142.24,777.781 1149.26,779.513 1156.28,781.289 1163.3,783.108 1170.32,784.967 1177.34,786.865 1184.36,788.8 1191.38,790.771 1198.4,792.776 1205.41,794.814 1212.43,796.883 1219.45,798.981 1226.47,801.108 1233.49,803.261 1240.51,805.44 1247.53,807.643 1254.55,809.869 1261.57,812.116 1268.59,814.384 1275.61,816.672 1282.62,818.977 1289.64,821.3 1296.66,823.639 1303.68,825.993 1310.7,828.362 1317.72,830.743 1324.74,833.136 1331.76,835.541 1338.78,837.956 1345.8,840.381 1352.82,842.815 1359.83,845.257 1366.85,847.705 1373.87,850.161 1380.89,852.622 1387.91,855.088 1394.93,857.559 1401.95,860.033 1408.97,862.51 1415.99,864.991 1423.01,867.472 1430.03,869.956 1437.05,872.44 1444.06,874.925 1451.08,877.409 1458.1,879.892 1465.12,882.375 1472.14,884.856 1479.16,887.335 1486.18,889.811 1493.2,892.285 1500.22,894.755 1507.24,897.222 1514.26,899.685 1521.27,902.143 1528.29,904.597 1535.31,907.046 1542.33,909.489 1549.35,911.927 1556.37,914.359 1563.39,916.785 1570.41,919.204 1577.43,921.617 1584.45,924.023 1591.47,926.422 1598.48,928.813 1605.5,931.197 1612.52,933.574 1619.54,935.942 1626.56,938.302 1633.58,940.654 1640.6,942.997 1647.62,945.332 1654.64,947.658 1661.66,949.975 1668.68,952.283 1675.69,954.582 1682.71,956.872 1689.73,959.152 1696.75,961.422 1703.77,963.683 1710.79,965.935 1717.81,968.176 1724.83,970.408 1731.85,972.629 1738.87,974.841 1745.89,977.042 1752.9,979.233 1759.92,981.414 1766.94,983.585 1773.96,985.745 1780.98,987.895 1788,990.035 1795.02,992.164 1802.04,994.282 1809.06,996.39 1816.08,998.487 1823.1,1000.57 1830.11,1002.65 1837.13,1004.71 1844.15,1006.77 1851.17,1008.81 1858.19,1010.85 1865.21,1012.87 1872.23,1014.88 1879.25,1016.88 1886.27,1018.87 1893.29,1020.85 1900.31,1022.82 1907.32,1024.78 1914.34,1026.73 1921.36,1028.66 1928.38,1030.59 1935.4,1032.51 1942.42,1034.41 1949.44,1036.31 1956.46,1038.19 1963.48,1040.06 1970.5,1041.93 1977.52,1043.78 1984.53,1045.62 1991.55,1047.45 1998.57,1049.27 2005.59,1051.08 2012.61,1052.88 2019.63,1054.67 2026.65,1056.45 2033.67,1058.22 2040.69,1059.98 2047.71,1061.73 2054.73,1063.47 2061.74,1065.19 2068.76,1066.91 2075.78,1068.62 2082.8,1070.32 2089.82,1072.01 2096.84,1073.69 2103.86,1075.35 2110.88,1077.01 2117.9,1078.66 2124.92,1080.3 2131.94,1081.93 2138.95,1083.55 2145.97,1085.16 2152.99,1086.76 2160.01,1088.35 2167.03,1089.93 2174.05,1091.5 2181.07,1093.07 2188.09,1094.62 2195.11,1096.16 2202.13,1097.7 2209.15,1099.23 2216.16,1100.74 2223.18,1102.25 2230.2,1103.75 2237.22,1105.24 2244.24,1106.72 2251.26,1108.19 2258.28,1109.65 2265.3,1111.11 2272.32,1112.55 2279.34,1113.99 2286.36,1115.42 2293.37,1116.83 "/>
<path clip-path="url(#clip890)" d="M1784.25 451.196 L2282.82 451.196 L2282.82 166.076 L1784.25 166.076  Z" fill="#ffffff" fill-rule="evenodd" fill-opacity="1"/>
<polyline clip-path="url(#clip890)" style="stroke:#000000; stroke-linecap:round; stroke-linejoin:round; stroke-width:4; stroke-opacity:1; fill:none" points="1784.25,451.196 2282.82,451.196 2282.82,166.076 1784.25,166.076 1784.25,451.196 "/>
<polyline clip-path="url(#clip890)" style="stroke:#0000ff; stroke-linecap:round; stroke-linejoin:round; stroke-width:11; stroke-opacity:1; fill:none" points="1807.57,237.356 1947.44,237.356 "/>
<path clip-path="url(#clip890)" d="M1997.36 232.276 Q1997.36 232.952 1996.78 233.5 Q1996.23 234.047 1995.55 234.047 Q1995.17 234.047 1994.23 233.403 Q1991.56 231.535 1988.18 231.535 Q1985.15 231.535 1982.35 232.276 Q1979.55 233.017 1977.65 234.53 Q1975.78 236.012 1975.78 237.944 Q1975.78 240.359 1978.42 241.777 Q1981.16 240.521 1984.54 240.521 Q1985.64 240.521 1986.38 240.585 Q1987.15 240.649 1987.89 240.81 Q1988.63 240.971 1988.98 241.358 Q1989.37 241.712 1989.37 242.292 Q1989.37 244.353 1984.03 244.353 Q1980.55 244.353 1978.36 243.419 Q1975.55 244.804 1974.01 247.026 Q1972.46 249.248 1972.46 251.148 Q1972.46 252.791 1973.36 253.983 Q1974.3 255.174 1975.81 255.754 Q1977.36 256.334 1978.87 256.591 Q1980.42 256.817 1982.12 256.817 Q1984.93 256.817 1986.89 256.462 Q1988.89 256.076 1989.98 255.367 Q1991.11 254.659 1991.56 254.176 Q1992.04 253.661 1992.53 252.855 Q1992.82 252.404 1993.2 252.404 Q1993.49 252.404 1993.69 252.598 Q1993.91 252.759 1993.91 253.049 Q1993.91 253.403 1993.46 254.144 Q1993.04 254.884 1992.01 255.883 Q1991.01 256.849 1989.63 257.751 Q1988.28 258.62 1986.12 259.232 Q1983.96 259.844 1981.51 259.844 Q1976.52 259.844 1973.62 257.396 Q1970.76 254.949 1970.76 251.535 Q1970.76 249.152 1972.33 246.704 Q1973.94 244.224 1976.78 242.646 Q1974.14 240.682 1974.14 237.944 Q1974.14 235.496 1976.2 233.306 Q1978.29 231.116 1981.67 229.828 Q1985.09 228.508 1988.82 228.508 Q1990.92 228.508 1992.98 229.216 Q1995.04 229.893 1996.2 230.762 Q1997.36 231.632 1997.36 232.276 M1987.66 242.356 Q1986.25 241.97 1984.54 241.97 Q1982.22 241.97 1980.51 242.549 Q1981.9 242.904 1984.03 242.904 Q1985.8 242.904 1986.31 242.807 Q1986.86 242.711 1987.66 242.356 Z" fill="#000000" fill-rule="nonzero" fill-opacity="1" /><path clip-path="url(#clip890)" d="M2019.49 248.379 Q2019.55 247.574 2020.81 247.574 L2061.23 247.574 Q2063.13 247.574 2063.16 248.314 Q2063.16 249.119 2061.36 249.087 L2021.26 249.087 Q2019.49 249.119 2019.49 248.379 M2019.49 235.496 Q2019.49 234.691 2020.87 234.723 L2061.16 234.723 Q2063.13 234.723 2063.16 235.496 Q2063.16 236.237 2061.49 236.237 L2020.81 236.237 Q2019.49 236.237 2019.49 235.496 Z" fill="#000000" fill-rule="nonzero" fill-opacity="1" /><path clip-path="url(#clip890)" d="M2088.61 237.3 Q2088.61 227.606 2091.05 222.324 Q2094.47 214.466 2102.52 214.466 Q2104.23 214.466 2106 214.949 Q2107.8 215.4 2110.06 217.171 Q2112.34 218.943 2113.73 221.841 Q2116.37 227.445 2116.37 237.3 Q2116.37 246.929 2113.92 252.179 Q2110.35 259.844 2102.46 259.844 Q2099.49 259.844 2096.47 258.33 Q2093.47 256.817 2091.57 253.177 Q2088.61 247.735 2088.61 237.3 M2094.08 236.495 Q2094.08 246.446 2094.79 250.408 Q2095.6 254.691 2097.79 256.559 Q2100.01 258.395 2102.46 258.395 Q2105.1 258.395 2107.29 256.43 Q2109.51 254.433 2110.18 250.15 Q2110.93 245.931 2110.89 236.495 Q2110.89 227.316 2110.25 223.645 Q2109.38 219.361 2107.06 217.654 Q2104.77 215.915 2102.46 215.915 Q2101.59 215.915 2100.65 216.173 Q2099.75 216.431 2098.43 217.171 Q2097.11 217.912 2096.08 219.748 Q2095.08 221.583 2094.6 224.353 Q2094.08 227.928 2094.08 236.495 Z" fill="#000000" fill-rule="nonzero" fill-opacity="1" /><path clip-path="url(#clip890)" d="M2122.27 257.332 Q2121.27 256.269 2121.27 254.884 Q2121.27 253.499 2122.27 252.501 Q2123.27 251.471 2124.78 251.471 Q2126.23 251.471 2127.2 252.437 Q2128.2 253.371 2128.2 254.917 Q2128.2 256.43 2127.13 257.429 Q2126.1 258.395 2124.78 258.395 Q2123.27 258.395 2122.27 257.332 Z" fill="#000000" fill-rule="nonzero" fill-opacity="1" /><path clip-path="url(#clip890)" d="M2139.42 237.3 Q2139.42 227.606 2141.87 222.324 Q2145.28 214.466 2153.33 214.466 Q2155.04 214.466 2156.81 214.949 Q2158.62 215.4 2160.87 217.171 Q2163.16 218.943 2164.54 221.841 Q2167.18 227.445 2167.18 237.3 Q2167.18 246.929 2164.74 252.179 Q2161.16 259.844 2153.27 259.844 Q2150.31 259.844 2147.28 258.33 Q2144.28 256.817 2142.38 253.177 Q2139.42 247.735 2139.42 237.3 M2144.9 236.495 Q2144.9 246.446 2145.6 250.408 Q2146.41 254.691 2148.6 256.559 Q2150.82 258.395 2153.27 258.395 Q2155.91 258.395 2158.1 256.43 Q2160.32 254.433 2161 250.15 Q2161.74 245.931 2161.71 236.495 Q2161.71 227.316 2161.06 223.645 Q2160.19 219.361 2157.88 217.654 Q2155.59 215.915 2153.27 215.915 Q2152.4 215.915 2151.47 216.173 Q2150.56 216.431 2149.24 217.171 Q2147.92 217.912 2146.89 219.748 Q2145.89 221.583 2145.41 224.353 Q2144.9 227.928 2144.9 236.495 Z" fill="#000000" fill-rule="nonzero" fill-opacity="1" /><polyline clip-path="url(#clip890)" style="stroke:#008000; stroke-linecap:round; stroke-linejoin:round; stroke-width:11; stroke-opacity:1; fill:none" points="1807.57,308.636 1947.44,308.636 "/>
<path clip-path="url(#clip890)" d="M1997.36 303.556 Q1997.36 304.232 1996.78 304.78 Q1996.23 305.327 1995.55 305.327 Q1995.17 305.327 1994.23 304.683 Q1991.56 302.815 1988.18 302.815 Q1985.15 302.815 1982.35 303.556 Q1979.55 304.297 1977.65 305.81 Q1975.78 307.292 1975.78 309.224 Q1975.78 311.639 1978.42 313.057 Q1981.16 311.801 1984.54 311.801 Q1985.64 311.801 1986.38 311.865 Q1987.15 311.929 1987.89 312.09 Q1988.63 312.251 1988.98 312.638 Q1989.37 312.992 1989.37 313.572 Q1989.37 315.633 1984.03 315.633 Q1980.55 315.633 1978.36 314.699 Q1975.55 316.084 1974.01 318.306 Q1972.46 320.528 1972.46 322.428 Q1972.46 324.071 1973.36 325.263 Q1974.3 326.454 1975.81 327.034 Q1977.36 327.614 1978.87 327.871 Q1980.42 328.097 1982.12 328.097 Q1984.93 328.097 1986.89 327.742 Q1988.89 327.356 1989.98 326.647 Q1991.11 325.939 1991.56 325.456 Q1992.04 324.941 1992.53 324.135 Q1992.82 323.684 1993.2 323.684 Q1993.49 323.684 1993.69 323.878 Q1993.91 324.039 1993.91 324.329 Q1993.91 324.683 1993.46 325.424 Q1993.04 326.164 1992.01 327.163 Q1991.01 328.129 1989.63 329.031 Q1988.28 329.9 1986.12 330.512 Q1983.96 331.124 1981.51 331.124 Q1976.52 331.124 1973.62 328.676 Q1970.76 326.229 1970.76 322.815 Q1970.76 320.432 1972.33 317.984 Q1973.94 315.504 1976.78 313.926 Q1974.14 311.962 1974.14 309.224 Q1974.14 306.776 1976.2 304.586 Q1978.29 302.396 1981.67 301.108 Q1985.09 299.788 1988.82 299.788 Q1990.92 299.788 1992.98 300.496 Q1995.04 301.173 1996.2 302.042 Q1997.36 302.912 1997.36 303.556 M1987.66 313.636 Q1986.25 313.25 1984.54 313.25 Q1982.22 313.25 1980.51 313.829 Q1981.9 314.184 1984.03 314.184 Q1985.8 314.184 1986.31 314.087 Q1986.86 313.991 1987.66 313.636 Z" fill="#000000" fill-rule="nonzero" fill-opacity="1" /><path clip-path="url(#clip890)" d="M2019.49 319.659 Q2019.55 318.854 2020.81 318.854 L2061.23 318.854 Q2063.13 318.854 2063.16 319.594 Q2063.16 320.399 2061.36 320.367 L2021.26 320.367 Q2019.49 320.399 2019.49 319.659 M2019.49 306.776 Q2019.49 305.971 2020.87 306.003 L2061.16 306.003 Q2063.13 306.003 2063.16 306.776 Q2063.16 307.517 2061.49 307.517 L2020.81 307.517 Q2019.49 307.517 2019.49 306.776 Z" fill="#000000" fill-rule="nonzero" fill-opacity="1" /><path clip-path="url(#clip890)" d="M2150.45 312.251 Q2150.84 312.638 2150.84 313.185 Q2150.84 313.733 2150.45 314.119 Q2150.07 314.506 2149.52 314.506 L2108.23 314.506 Q2107.68 314.506 2107.3 314.119 Q2106.91 313.733 2106.91 313.185 Q2106.91 312.638 2107.3 312.251 Q2107.68 311.865 2108.23 311.865 L2149.52 311.865 Q2150.07 311.865 2150.45 312.251 Z" fill="#000000" fill-rule="nonzero" fill-opacity="1" /><path clip-path="url(#clip890)" d="M2176.03 308.58 Q2176.03 298.886 2178.47 293.604 Q2181.89 285.746 2189.94 285.746 Q2191.65 285.746 2193.42 286.229 Q2195.22 286.68 2197.48 288.451 Q2199.76 290.223 2201.15 293.121 Q2203.79 298.725 2203.79 308.58 Q2203.79 318.209 2201.34 323.459 Q2197.77 331.124 2189.88 331.124 Q2186.91 331.124 2183.88 329.61 Q2180.89 328.097 2178.99 324.457 Q2176.03 319.015 2176.03 308.58 M2181.5 307.775 Q2181.5 317.726 2182.21 321.688 Q2183.02 325.971 2185.21 327.839 Q2187.43 329.675 2189.88 329.675 Q2192.52 329.675 2194.71 327.71 Q2196.93 325.713 2197.6 321.43 Q2198.35 317.211 2198.31 307.775 Q2198.31 298.596 2197.67 294.925 Q2196.8 290.641 2194.48 288.934 Q2192.19 287.195 2189.88 287.195 Q2189.01 287.195 2188.07 287.453 Q2187.17 287.711 2185.85 288.451 Q2184.53 289.192 2183.5 291.028 Q2182.5 292.863 2182.02 295.633 Q2181.5 299.208 2181.5 307.775 Z" fill="#000000" fill-rule="nonzero" fill-opacity="1" /><path clip-path="url(#clip890)" d="M2209.69 328.612 Q2208.69 327.549 2208.69 326.164 Q2208.69 324.779 2209.69 323.781 Q2210.69 322.751 2212.2 322.751 Q2213.65 322.751 2214.62 323.717 Q2215.61 324.651 2215.61 326.197 Q2215.61 327.71 2214.55 328.709 Q2213.52 329.675 2212.2 329.675 Q2210.69 329.675 2209.69 328.612 Z" fill="#000000" fill-rule="nonzero" fill-opacity="1" /><path clip-path="url(#clip890)" d="M2226.84 319.047 Q2226.84 317.082 2227.9 316.342 Q2228.97 315.569 2230.09 315.569 Q2231.61 315.569 2232.48 316.535 Q2233.38 317.469 2233.38 318.789 Q2233.38 320.11 2232.48 321.076 Q2231.61 322.01 2230.09 322.01 Q2229.35 322.01 2228.97 321.881 Q2229.84 324.908 2232.48 327.098 Q2235.15 329.288 2238.66 329.288 Q2243.07 329.288 2245.71 325.005 Q2247.29 322.235 2247.29 315.955 Q2247.29 310.416 2246.1 307.646 Q2244.26 303.427 2240.5 303.427 Q2235.15 303.427 2231.99 308.032 Q2231.61 308.612 2231.16 308.644 Q2230.51 308.644 2230.35 308.29 Q2230.22 307.904 2230.22 306.905 L2230.22 287.388 Q2230.22 285.81 2230.87 285.81 Q2231.12 285.81 2231.67 286.004 Q2235.83 287.839 2240.43 287.872 Q2245.17 287.872 2249.42 285.939 Q2249.74 285.746 2249.93 285.746 Q2250.58 285.746 2250.61 286.487 Q2250.61 286.744 2250.06 287.517 Q2249.55 288.258 2248.42 289.256 Q2247.29 290.223 2245.84 291.157 Q2244.39 292.091 2242.27 292.735 Q2240.17 293.347 2237.86 293.347 Q2235.09 293.347 2232.25 292.477 L2232.25 305.327 Q2235.67 301.978 2240.62 301.978 Q2245.91 301.978 2249.55 306.229 Q2253.19 310.48 2253.19 316.406 Q2253.19 322.622 2248.87 326.873 Q2244.59 331.124 2238.79 331.124 Q2233.51 331.124 2230.16 327.356 Q2226.84 323.588 2226.84 319.047 Z" fill="#000000" fill-rule="nonzero" fill-opacity="1" /><polyline clip-path="url(#clip890)" style="stroke:#ffa500; stroke-linecap:round; stroke-linejoin:round; stroke-width:11; stroke-opacity:1; fill:none" points="1807.57,379.916 1947.44,379.916 "/>
<path clip-path="url(#clip890)" d="M1997.36 374.836 Q1997.36 375.512 1996.78 376.06 Q1996.23 376.607 1995.55 376.607 Q1995.17 376.607 1994.23 375.963 Q1991.56 374.095 1988.18 374.095 Q1985.15 374.095 1982.35 374.836 Q1979.55 375.577 1977.65 377.09 Q1975.78 378.572 1975.78 380.504 Q1975.78 382.919 1978.42 384.337 Q1981.16 383.081 1984.54 383.081 Q1985.64 383.081 1986.38 383.145 Q1987.15 383.209 1987.89 383.37 Q1988.63 383.531 1988.98 383.918 Q1989.37 384.272 1989.37 384.852 Q1989.37 386.913 1984.03 386.913 Q1980.55 386.913 1978.36 385.979 Q1975.55 387.364 1974.01 389.586 Q1972.46 391.808 1972.46 393.708 Q1972.46 395.351 1973.36 396.543 Q1974.3 397.734 1975.81 398.314 Q1977.36 398.894 1978.87 399.151 Q1980.42 399.377 1982.12 399.377 Q1984.93 399.377 1986.89 399.022 Q1988.89 398.636 1989.98 397.927 Q1991.11 397.219 1991.56 396.736 Q1992.04 396.221 1992.53 395.415 Q1992.82 394.964 1993.2 394.964 Q1993.49 394.964 1993.69 395.158 Q1993.91 395.319 1993.91 395.609 Q1993.91 395.963 1993.46 396.704 Q1993.04 397.444 1992.01 398.443 Q1991.01 399.409 1989.63 400.311 Q1988.28 401.18 1986.12 401.792 Q1983.96 402.404 1981.51 402.404 Q1976.52 402.404 1973.62 399.956 Q1970.76 397.509 1970.76 394.095 Q1970.76 391.712 1972.33 389.264 Q1973.94 386.784 1976.78 385.206 Q1974.14 383.242 1974.14 380.504 Q1974.14 378.056 1976.2 375.866 Q1978.29 373.676 1981.67 372.388 Q1985.09 371.068 1988.82 371.068 Q1990.92 371.068 1992.98 371.776 Q1995.04 372.453 1996.2 373.322 Q1997.36 374.192 1997.36 374.836 M1987.66 384.916 Q1986.25 384.53 1984.54 384.53 Q1982.22 384.53 1980.51 385.109 Q1981.9 385.464 1984.03 385.464 Q1985.8 385.464 1986.31 385.367 Q1986.86 385.271 1987.66 384.916 Z" fill="#000000" fill-rule="nonzero" fill-opacity="1" /><path clip-path="url(#clip890)" d="M2019.49 390.939 Q2019.55 390.134 2020.81 390.134 L2061.23 390.134 Q2063.13 390.134 2063.16 390.874 Q2063.16 391.679 2061.36 391.647 L2021.26 391.647 Q2019.49 391.679 2019.49 390.939 M2019.49 378.056 Q2019.49 377.251 2020.87 377.283 L2061.16 377.283 Q2063.13 377.283 2063.16 378.056 Q2063.16 378.797 2061.49 378.797 L2020.81 378.797 Q2019.49 378.797 2019.49 378.056 Z" fill="#000000" fill-rule="nonzero" fill-opacity="1" /><path clip-path="url(#clip890)" d="M2088.61 379.86 Q2088.61 370.166 2091.05 364.884 Q2094.47 357.026 2102.52 357.026 Q2104.23 357.026 2106 357.509 Q2107.8 357.96 2110.06 359.731 Q2112.34 361.503 2113.73 364.401 Q2116.37 370.005 2116.37 379.86 Q2116.37 389.489 2113.92 394.739 Q2110.35 402.404 2102.46 402.404 Q2099.49 402.404 2096.47 400.89 Q2093.47 399.377 2091.57 395.737 Q2088.61 390.295 2088.61 379.86 M2094.08 379.055 Q2094.08 389.006 2094.79 392.968 Q2095.6 397.251 2097.79 399.119 Q2100.01 400.955 2102.46 400.955 Q2105.1 400.955 2107.29 398.99 Q2109.51 396.993 2110.18 392.71 Q2110.93 388.491 2110.89 379.055 Q2110.89 369.876 2110.25 366.205 Q2109.38 361.921 2107.06 360.214 Q2104.77 358.475 2102.46 358.475 Q2101.59 358.475 2100.65 358.733 Q2099.75 358.991 2098.43 359.731 Q2097.11 360.472 2096.08 362.308 Q2095.08 364.143 2094.6 366.913 Q2094.08 370.488 2094.08 379.055 Z" fill="#000000" fill-rule="nonzero" fill-opacity="1" /><path clip-path="url(#clip890)" d="M2122.27 399.892 Q2121.27 398.829 2121.27 397.444 Q2121.27 396.059 2122.27 395.061 Q2123.27 394.031 2124.78 394.031 Q2126.23 394.031 2127.2 394.997 Q2128.2 395.931 2128.2 397.477 Q2128.2 398.99 2127.13 399.989 Q2126.1 400.955 2124.78 400.955 Q2123.27 400.955 2122.27 399.892 Z" fill="#000000" fill-rule="nonzero" fill-opacity="1" /><path clip-path="url(#clip890)" d="M2139.42 390.327 Q2139.42 388.362 2140.48 387.622 Q2141.55 386.849 2142.67 386.849 Q2144.19 386.849 2145.06 387.815 Q2145.96 388.749 2145.96 390.069 Q2145.96 391.39 2145.06 392.356 Q2144.19 393.29 2142.67 393.29 Q2141.93 393.29 2141.55 393.161 Q2142.42 396.188 2145.06 398.378 Q2147.73 400.568 2151.24 400.568 Q2155.65 400.568 2158.29 396.285 Q2159.87 393.515 2159.87 387.235 Q2159.87 381.696 2158.68 378.926 Q2156.84 374.707 2153.08 374.707 Q2147.73 374.707 2144.57 379.312 Q2144.19 379.892 2143.74 379.924 Q2143.09 379.924 2142.93 379.57 Q2142.8 379.184 2142.8 378.185 L2142.8 358.668 Q2142.8 357.09 2143.45 357.09 Q2143.7 357.09 2144.25 357.284 Q2148.41 359.119 2153.01 359.152 Q2157.75 359.152 2162 357.219 Q2162.32 357.026 2162.51 357.026 Q2163.16 357.026 2163.19 357.767 Q2163.19 358.024 2162.64 358.797 Q2162.13 359.538 2161 360.536 Q2159.87 361.503 2158.42 362.437 Q2156.97 363.371 2154.85 364.015 Q2152.75 364.627 2150.44 364.627 Q2147.67 364.627 2144.83 363.757 L2144.83 376.607 Q2148.25 373.258 2153.21 373.258 Q2158.49 373.258 2162.13 377.509 Q2165.77 381.76 2165.77 387.686 Q2165.77 393.902 2161.45 398.153 Q2157.17 402.404 2151.37 402.404 Q2146.09 402.404 2142.74 398.636 Q2139.42 394.868 2139.42 390.327 Z" fill="#000000" fill-rule="nonzero" fill-opacity="1" /></svg>
