<?xml version="1.0" encoding="utf-8"?>
<svg xmlns="http://www.w3.org/2000/svg" xmlns:xlink="http://www.w3.org/1999/xlink" width="600" height="400" viewBox="0 0 2400 1600">
<defs>
  <clipPath id="clip570">
    <rect x="0" y="0" width="2400" height="1600"/>
  </clipPath>
</defs>
<path clip-path="url(#clip570)" d="M0 1600 L2400 1600 L2400 0 L0 0  Z" fill="#ffffff" fill-rule="evenodd" fill-opacity="1"/>
<defs>
  <clipPath id="clip571">
    <rect x="480" y="0" width="1681" height="1600"/>
  </clipPath>
</defs>
<path clip-path="url(#clip570)" d="M253.94 1401.58 L2352.76 1401.58 L2352.76 128.228 L253.94 128.228  Z" fill="#ffffff" fill-rule="evenodd" fill-opacity="1"/>
<defs>
  <clipPath id="clip572">
    <rect x="253" y="128" width="2100" height="1274"/>
  </clipPath>
</defs>
<polyline clip-path="url(#clip572)" style="stroke:#000000; stroke-linecap:round; stroke-linejoin:round; stroke-width:2; stroke-opacity:0.1; fill:none" points="533.342,1401.58 533.342,128.228 "/>
<polyline clip-path="url(#clip572)" style="stroke:#000000; stroke-linecap:round; stroke-linejoin:round; stroke-width:2; stroke-opacity:0.1; fill:none" points="973.346,1401.58 973.346,128.228 "/>
<polyline clip-path="url(#clip572)" style="stroke:#000000; stroke-linecap:round; stroke-linejoin:round; stroke-width:2; stroke-opacity:0.1; fill:none" points="1413.35,1401.58 1413.35,128.228 "/>
<polyline clip-path="url(#clip572)" style="stroke:#000000; stroke-linecap:round; stroke-linejoin:round; stroke-width:2; stroke-opacity:0.1; fill:none" points="1853.35,1401.58 1853.35,128.228 "/>
<polyline clip-path="url(#clip572)" style="stroke:#000000; stroke-linecap:round; stroke-linejoin:round; stroke-width:2; stroke-opacity:0.1; fill:none" points="2293.36,1401.58 2293.36,128.228 "/>
<polyline clip-path="url(#clip572)" style="stroke:#000000; stroke-linecap:round; stroke-linejoin:round; stroke-width:2; stroke-opacity:0.1; fill:none" points="253.94,1364.67 2352.76,1364.67 "/>
<polyline clip-path="url(#clip572)" style="stroke:#000000; stroke-linecap:round; stroke-linejoin:round; stroke-width:2; stroke-opacity:0.1; fill:none" points="253.94,1182.79 2352.76,1182.79 "/>
<polyline clip-path="url(#clip572)" style="stroke:#000000; stroke-linecap:round; stroke-linejoin:round; stroke-width:2; stroke-opacity:0.1; fill:none" points="253.94,1000.92 2352.76,1000.92 "/>
<polyline clip-path="url(#clip572)" style="stroke:#000000; stroke-linecap:round; stroke-linejoin:round; stroke-width:2; stroke-opacity:0.1; fill:none" points="253.94,819.041 2352.76,819.041 "/>
<polyline clip-path="url(#clip572)" style="stroke:#000000; stroke-linecap:round; stroke-linejoin:round; stroke-width:2; stroke-opacity:0.1; fill:none" points="253.94,637.165 2352.76,637.165 "/>
<polyline clip-path="url(#clip572)" style="stroke:#000000; stroke-linecap:round; stroke-linejoin:round; stroke-width:2; stroke-opacity:0.1; fill:none" points="253.94,455.288 2352.76,455.288 "/>
<polyline clip-path="url(#clip572)" style="stroke:#000000; stroke-linecap:round; stroke-linejoin:round; stroke-width:2; stroke-opacity:0.1; fill:none" points="253.94,273.412 2352.76,273.412 "/>
<polyline clip-path="url(#clip570)" style="stroke:#000000; stroke-linecap:round; stroke-linejoin:round; stroke-width:4; stroke-opacity:1; fill:none" points="253.94,1401.58 2352.76,1401.58 "/>
<polyline clip-path="url(#clip570)" style="stroke:#000000; stroke-linecap:round; stroke-linejoin:round; stroke-width:4; stroke-opacity:1; fill:none" points="533.342,1401.58 533.342,1382.68 "/>
<polyline clip-path="url(#clip570)" style="stroke:#000000; stroke-linecap:round; stroke-linejoin:round; stroke-width:4; stroke-opacity:1; fill:none" points="973.346,1401.58 973.346,1382.68 "/>
<polyline clip-path="url(#clip570)" style="stroke:#000000; stroke-linecap:round; stroke-linejoin:round; stroke-width:4; stroke-opacity:1; fill:none" points="1413.35,1401.58 1413.35,1382.68 "/>
<polyline clip-path="url(#clip570)" style="stroke:#000000; stroke-linecap:round; stroke-linejoin:round; stroke-width:4; stroke-opacity:1; fill:none" points="1853.35,1401.58 1853.35,1382.68 "/>
<polyline clip-path="url(#clip570)" style="stroke:#000000; stroke-linecap:round; stroke-linejoin:round; stroke-width:4; stroke-opacity:1; fill:none" points="2293.36,1401.58 2293.36,1382.68 "/>
<path clip-path="url(#clip570)" d="M503.344 1436.89 Q498.379 1436.89 495.864 1441.79 Q493.382 1446.66 493.382 1456.47 Q493.382 1466.24 495.864 1471.14 Q498.379 1476.01 503.344 1476.01 Q508.341 1476.01 510.824 1471.14 Q513.338 1466.24 513.338 1456.47 Q513.338 1446.66 510.824 1441.79 Q508.341 1436.89 503.344 1436.89 M503.344 1431.8 Q511.333 1431.8 515.534 1438.13 Q519.767 1444.44 519.767 1456.47 Q519.767 1468.47 515.534 1474.8 Q511.333 1481.1 503.344 1481.1 Q495.355 1481.1 491.122 1474.8 Q486.92 1468.47 486.92 1456.47 Q486.92 1444.44 491.122 1438.13 Q495.355 1431.8 503.344 1431.8 Z" fill="#000000" fill-rule="nonzero" fill-opacity="1" /><path clip-path="url(#clip570)" d="M531.067 1472.1 L537.782 1472.1 L537.782 1480.18 L531.067 1480.18 L531.067 1472.1 Z" fill="#000000" fill-rule="nonzero" fill-opacity="1" /><path clip-path="url(#clip570)" d="M557.325 1474.77 L579.764 1474.77 L579.764 1480.18 L549.591 1480.18 L549.591 1474.77 Q553.251 1470.98 559.553 1464.62 Q565.887 1458.22 567.51 1456.37 Q570.598 1452.9 571.807 1450.52 Q573.048 1448.1 573.048 1445.77 Q573.048 1441.99 570.375 1439.6 Q567.733 1437.21 563.468 1437.21 Q560.444 1437.21 557.07 1438.26 Q553.728 1439.31 549.909 1441.44 L549.909 1434.95 Q553.792 1433.39 557.166 1432.6 Q560.54 1431.8 563.341 1431.8 Q570.725 1431.8 575.117 1435.49 Q579.51 1439.18 579.51 1445.36 Q579.51 1448.29 578.396 1450.93 Q577.313 1453.54 574.417 1457.1 Q573.621 1458.03 569.356 1462.45 Q565.091 1466.84 557.325 1474.77 Z" fill="#000000" fill-rule="nonzero" fill-opacity="1" /><path clip-path="url(#clip570)" d="M941.915 1436.89 Q936.95 1436.89 934.435 1441.79 Q931.953 1446.66 931.953 1456.47 Q931.953 1466.24 934.435 1471.14 Q936.95 1476.01 941.915 1476.01 Q946.912 1476.01 949.395 1471.14 Q951.909 1466.24 951.909 1456.47 Q951.909 1446.66 949.395 1441.79 Q946.912 1436.89 941.915 1436.89 M941.915 1431.8 Q949.904 1431.8 954.105 1438.13 Q958.338 1444.44 958.338 1456.47 Q958.338 1468.47 954.105 1474.8 Q949.904 1481.1 941.915 1481.1 Q933.926 1481.1 929.693 1474.8 Q925.491 1468.47 925.491 1456.47 Q925.491 1444.44 929.693 1438.13 Q933.926 1431.8 941.915 1431.8 Z" fill="#000000" fill-rule="nonzero" fill-opacity="1" /><path clip-path="url(#clip570)" d="M969.638 1472.1 L976.353 1472.1 L976.353 1480.18 L969.638 1480.18 L969.638 1472.1 Z" fill="#000000" fill-rule="nonzero" fill-opacity="1" /><path clip-path="url(#clip570)" d="M1008.02 1438.26 L991.79 1463.63 L1008.02 1463.63 L1008.02 1438.26 M1006.34 1432.66 L1014.42 1432.66 L1014.42 1463.63 L1021.2 1463.63 L1021.2 1468.98 L1014.42 1468.98 L1014.42 1480.18 L1008.02 1480.18 L1008.02 1468.98 L986.57 1468.98 L986.57 1462.77 L1006.34 1432.66 Z" fill="#000000" fill-rule="nonzero" fill-opacity="1" /><path clip-path="url(#clip570)" d="M1382.14 1436.89 Q1377.18 1436.89 1374.66 1441.79 Q1372.18 1446.66 1372.18 1456.47 Q1372.18 1466.24 1374.66 1471.14 Q1377.18 1476.01 1382.14 1476.01 Q1387.14 1476.01 1389.62 1471.14 Q1392.14 1466.24 1392.14 1456.47 Q1392.14 1446.66 1389.62 1441.79 Q1387.14 1436.89 1382.14 1436.89 M1382.14 1431.8 Q1390.13 1431.8 1394.33 1438.13 Q1398.56 1444.44 1398.56 1456.47 Q1398.56 1468.47 1394.33 1474.8 Q1390.13 1481.1 1382.14 1481.1 Q1374.15 1481.1 1369.92 1474.8 Q1365.72 1468.47 1365.72 1456.47 Q1365.72 1444.44 1369.92 1438.13 Q1374.15 1431.8 1382.14 1431.8 Z" fill="#000000" fill-rule="nonzero" fill-opacity="1" /><path clip-path="url(#clip570)" d="M1409.86 1472.1 L1416.58 1472.1 L1416.58 1480.18 L1409.86 1480.18 L1409.86 1472.1 Z" fill="#000000" fill-rule="nonzero" fill-opacity="1" /><path clip-path="url(#clip570)" d="M1445.13 1453.86 Q1440.8 1453.86 1438.25 1456.82 Q1435.74 1459.78 1435.74 1464.93 Q1435.74 1470.06 1438.25 1473.05 Q1440.8 1476.01 1445.13 1476.01 Q1449.46 1476.01 1451.97 1473.05 Q1454.52 1470.06 1454.52 1464.93 Q1454.52 1459.78 1451.97 1456.82 Q1449.46 1453.86 1445.13 1453.86 M1457.89 1433.71 L1457.89 1439.57 Q1455.47 1438.42 1452.99 1437.82 Q1450.54 1437.21 1448.12 1437.21 Q1441.76 1437.21 1438.38 1441.51 Q1435.04 1445.81 1434.56 1454.49 Q1436.44 1451.73 1439.27 1450.26 Q1442.11 1448.77 1445.51 1448.77 Q1452.67 1448.77 1456.81 1453.13 Q1460.98 1457.45 1460.98 1464.93 Q1460.98 1472.25 1456.65 1476.68 Q1452.32 1481.1 1445.13 1481.1 Q1436.89 1481.1 1432.53 1474.8 Q1428.17 1468.47 1428.17 1456.47 Q1428.17 1445.2 1433.51 1438.52 Q1438.86 1431.8 1447.87 1431.8 Q1450.29 1431.8 1452.74 1432.28 Q1455.22 1432.76 1457.89 1433.71 Z" fill="#000000" fill-rule="nonzero" fill-opacity="1" /><path clip-path="url(#clip570)" d="M1822.32 1436.89 Q1817.35 1436.89 1814.84 1441.79 Q1812.36 1446.66 1812.36 1456.47 Q1812.36 1466.24 1814.84 1471.14 Q1817.35 1476.01 1822.32 1476.01 Q1827.32 1476.01 1829.8 1471.14 Q1832.31 1466.24 1832.31 1456.47 Q1832.31 1446.66 1829.8 1441.79 Q1827.32 1436.89 1822.32 1436.89 M1822.32 1431.8 Q1830.31 1431.8 1834.51 1438.13 Q1838.74 1444.44 1838.74 1456.47 Q1838.74 1468.47 1834.51 1474.8 Q1830.31 1481.1 1822.32 1481.1 Q1814.33 1481.1 1810.1 1474.8 Q1805.9 1468.47 1805.9 1456.47 Q1805.9 1444.44 1810.1 1438.13 Q1814.33 1431.8 1822.32 1431.8 Z" fill="#000000" fill-rule="nonzero" fill-opacity="1" /><path clip-path="url(#clip570)" d="M1850.04 1472.1 L1856.76 1472.1 L1856.76 1480.18 L1850.04 1480.18 L1850.04 1472.1 Z" fill="#000000" fill-rule="nonzero" fill-opacity="1" /><path clip-path="url(#clip570)" d="M1884.51 1457.61 Q1879.93 1457.61 1877.29 1460.06 Q1874.68 1462.52 1874.68 1466.81 Q1874.68 1471.11 1877.29 1473.56 Q1879.93 1476.01 1884.51 1476.01 Q1889.1 1476.01 1891.74 1473.56 Q1894.38 1471.08 1894.38 1466.81 Q1894.38 1462.52 1891.74 1460.06 Q1889.13 1457.61 1884.51 1457.61 M1878.08 1454.88 Q1873.95 1453.86 1871.62 1451.02 Q1869.33 1448.19 1869.33 1444.12 Q1869.33 1438.42 1873.37 1435.11 Q1877.45 1431.8 1884.51 1431.8 Q1891.61 1431.8 1895.65 1435.11 Q1899.69 1438.42 1899.69 1444.12 Q1899.69 1448.19 1897.37 1451.02 Q1895.08 1453.86 1890.97 1454.88 Q1895.62 1455.96 1898.2 1459.11 Q1900.81 1462.26 1900.81 1466.81 Q1900.81 1473.72 1896.58 1477.41 Q1892.37 1481.1 1884.51 1481.1 Q1876.65 1481.1 1872.42 1477.41 Q1868.22 1473.72 1868.22 1466.81 Q1868.22 1462.26 1870.83 1459.11 Q1873.44 1455.96 1878.08 1454.88 M1875.73 1444.72 Q1875.73 1448.41 1878.02 1450.48 Q1880.34 1452.55 1884.51 1452.55 Q1888.65 1452.55 1890.97 1450.48 Q1893.33 1448.41 1893.33 1444.72 Q1893.33 1441.03 1890.97 1438.96 Q1888.65 1436.89 1884.51 1436.89 Q1880.34 1436.89 1878.02 1438.96 Q1875.73 1441.03 1875.73 1444.72 Z" fill="#000000" fill-rule="nonzero" fill-opacity="1" /><path clip-path="url(#clip570)" d="M2248.19 1474.77 L2258.69 1474.77 L2258.69 1438.52 L2247.27 1440.81 L2247.27 1434.95 L2258.63 1432.66 L2265.06 1432.66 L2265.06 1474.77 L2275.56 1474.77 L2275.56 1480.18 L2248.19 1480.18 L2248.19 1474.77 Z" fill="#000000" fill-rule="nonzero" fill-opacity="1" /><path clip-path="url(#clip570)" d="M2288.55 1472.1 L2295.27 1472.1 L2295.27 1480.18 L2288.55 1480.18 L2288.55 1472.1 Z" fill="#000000" fill-rule="nonzero" fill-opacity="1" /><path clip-path="url(#clip570)" d="M2323.02 1436.89 Q2318.05 1436.89 2315.54 1441.79 Q2313.06 1446.66 2313.06 1456.47 Q2313.06 1466.24 2315.54 1471.14 Q2318.05 1476.01 2323.02 1476.01 Q2328.02 1476.01 2330.5 1471.14 Q2333.01 1466.24 2333.01 1456.47 Q2333.01 1446.66 2330.5 1441.79 Q2328.02 1436.89 2323.02 1436.89 M2323.02 1431.8 Q2331.01 1431.8 2335.21 1438.13 Q2339.44 1444.44 2339.44 1456.47 Q2339.44 1468.47 2335.21 1474.8 Q2331.01 1481.1 2323.02 1481.1 Q2315.03 1481.1 2310.8 1474.8 Q2306.6 1468.47 2306.6 1456.47 Q2306.6 1444.44 2310.8 1438.13 Q2315.03 1431.8 2323.02 1431.8 Z" fill="#000000" fill-rule="nonzero" fill-opacity="1" /><path clip-path="url(#clip570)" d="M1333.82 1516.76 Q1333.82 1517.49 1333.67 1518.1 L1331.54 1531.65 Q1331.43 1532.67 1331.2 1533.06 Q1331.01 1533.44 1330.4 1533.44 Q1329.45 1533.44 1329.45 1532.45 Q1329.45 1531.88 1329.68 1530.96 Q1330.32 1526.66 1330.32 1524.72 Q1330.32 1523.43 1330.06 1522.47 Q1329.83 1521.48 1329.45 1520.8 Q1329.11 1520.11 1328.31 1519.66 Q1327.51 1519.2 1326.75 1518.93 Q1325.98 1518.67 1324.61 1518.55 Q1323.24 1518.4 1322.06 1518.36 Q1320.88 1518.33 1318.94 1518.33 Q1314.72 1518.33 1314.03 1518.48 Q1313.31 1518.67 1312.93 1519.24 Q1312.59 1519.77 1312.21 1521.37 L1301.85 1562.74 L1301.55 1564.38 Q1301.55 1565.29 1302.12 1565.6 Q1302.69 1565.9 1304.44 1566.09 Q1306.95 1566.28 1309.43 1566.28 Q1309.5 1566.28 1309.66 1566.28 Q1310.49 1566.28 1310.84 1566.32 Q1311.18 1566.32 1311.52 1566.4 Q1311.86 1566.47 1311.94 1566.66 Q1312.05 1566.82 1312.05 1567.12 Q1312.05 1567.84 1311.75 1568.22 Q1311.44 1568.57 1311.14 1568.64 Q1310.87 1568.68 1310.34 1568.68 Q1309.28 1568.68 1306.99 1568.6 Q1304.71 1568.53 1303.57 1568.53 L1297.1 1568.45 L1290.47 1568.53 Q1289.45 1568.53 1287.28 1568.6 Q1285.11 1568.68 1284.08 1568.68 Q1282.75 1568.68 1282.75 1567.73 Q1282.75 1566.66 1283.24 1566.47 Q1283.77 1566.28 1286.02 1566.28 Q1289.18 1566.28 1290.89 1566.13 Q1292.6 1565.98 1293.52 1565.45 Q1294.47 1564.91 1294.74 1564.38 Q1295 1563.81 1295.31 1562.51 L1305.77 1520.91 Q1306.08 1520 1306.08 1519.28 Q1306.08 1518.9 1305.96 1518.74 Q1305.89 1518.59 1305.39 1518.48 Q1304.9 1518.33 1303.87 1518.33 L1300.83 1518.33 Q1297.7 1518.33 1295.76 1518.48 Q1293.86 1518.59 1292.03 1519.16 Q1290.24 1519.73 1289.18 1520.53 Q1288.15 1521.33 1287.01 1522.97 Q1285.87 1524.61 1285.03 1526.58 Q1284.23 1528.56 1283.09 1531.8 Q1282.71 1532.86 1282.48 1533.17 Q1282.29 1533.44 1281.76 1533.44 Q1281.38 1533.44 1281.07 1533.21 Q1280.81 1532.94 1280.81 1532.6 Q1281.19 1531.34 1281.26 1531.19 L1285.94 1517.45 Q1286.32 1516.35 1286.67 1516.16 Q1287.05 1515.93 1288.46 1515.93 L1331.69 1515.93 Q1332.38 1515.93 1332.61 1515.93 Q1332.84 1515.93 1333.22 1516 Q1333.6 1516.08 1333.71 1516.27 Q1333.82 1516.46 1333.82 1516.76 Z" fill="#000000" fill-rule="nonzero" fill-opacity="1" /><polyline clip-path="url(#clip570)" style="stroke:#000000; stroke-linecap:round; stroke-linejoin:round; stroke-width:4; stroke-opacity:1; fill:none" points="253.94,1401.58 253.94,128.228 "/>
<polyline clip-path="url(#clip570)" style="stroke:#000000; stroke-linecap:round; stroke-linejoin:round; stroke-width:4; stroke-opacity:1; fill:none" points="253.94,1364.67 272.838,1364.67 "/>
<polyline clip-path="url(#clip570)" style="stroke:#000000; stroke-linecap:round; stroke-linejoin:round; stroke-width:4; stroke-opacity:1; fill:none" points="253.94,1182.79 272.838,1182.79 "/>
<polyline clip-path="url(#clip570)" style="stroke:#000000; stroke-linecap:round; stroke-linejoin:round; stroke-width:4; stroke-opacity:1; fill:none" points="253.94,1000.92 272.838,1000.92 "/>
<polyline clip-path="url(#clip570)" style="stroke:#000000; stroke-linecap:round; stroke-linejoin:round; stroke-width:4; stroke-opacity:1; fill:none" points="253.94,819.041 272.838,819.041 "/>
<polyline clip-path="url(#clip570)" style="stroke:#000000; stroke-linecap:round; stroke-linejoin:round; stroke-width:4; stroke-opacity:1; fill:none" points="253.94,637.165 272.838,637.165 "/>
<polyline clip-path="url(#clip570)" style="stroke:#000000; stroke-linecap:round; stroke-linejoin:round; stroke-width:4; stroke-opacity:1; fill:none" points="253.94,455.288 272.838,455.288 "/>
<polyline clip-path="url(#clip570)" style="stroke:#000000; stroke-linecap:round; stroke-linejoin:round; stroke-width:4; stroke-opacity:1; fill:none" points="253.94,273.412 272.838,273.412 "/>
<path clip-path="url(#clip570)" d="M131.239 1383.02 L153.678 1383.02 L153.678 1388.43 L123.505 1388.43 L123.505 1383.02 Q127.165 1379.23 133.467 1372.87 Q139.801 1366.47 141.424 1364.62 Q144.512 1361.15 145.721 1358.77 Q146.963 1356.35 146.963 1354.02 Q146.963 1350.24 144.289 1347.85 Q141.647 1345.46 137.382 1345.46 Q134.358 1345.46 130.985 1346.51 Q127.643 1347.56 123.823 1349.7 L123.823 1343.2 Q127.706 1341.64 131.08 1340.85 Q134.454 1340.05 137.255 1340.05 Q144.639 1340.05 149.031 1343.74 Q153.424 1347.44 153.424 1353.61 Q153.424 1356.54 152.31 1359.18 Q151.228 1361.79 148.331 1365.36 Q147.535 1366.28 143.27 1370.7 Q139.005 1375.09 131.239 1383.02 Z" fill="#000000" fill-rule="nonzero" fill-opacity="1" /><path clip-path="url(#clip570)" d="M167.174 1380.35 L173.889 1380.35 L173.889 1388.43 L167.174 1388.43 L167.174 1380.35 Z" fill="#000000" fill-rule="nonzero" fill-opacity="1" /><path clip-path="url(#clip570)" d="M201.644 1365.86 Q197.061 1365.86 194.419 1368.32 Q191.809 1370.77 191.809 1375.06 Q191.809 1379.36 194.419 1381.81 Q197.061 1384.26 201.644 1384.26 Q206.227 1384.26 208.869 1381.81 Q211.511 1379.33 211.511 1375.06 Q211.511 1370.77 208.869 1368.32 Q206.259 1365.86 201.644 1365.86 M195.215 1363.13 Q191.077 1362.11 188.753 1359.28 Q186.462 1356.44 186.462 1352.37 Q186.462 1346.67 190.504 1343.36 Q194.578 1340.05 201.644 1340.05 Q208.742 1340.05 212.784 1343.36 Q216.826 1346.67 216.826 1352.37 Q216.826 1356.44 214.503 1359.28 Q212.211 1362.11 208.105 1363.13 Q212.752 1364.21 215.33 1367.36 Q217.94 1370.51 217.94 1375.06 Q217.94 1381.97 213.707 1385.66 Q209.506 1389.35 201.644 1389.35 Q193.782 1389.35 189.549 1385.66 Q185.348 1381.97 185.348 1375.06 Q185.348 1370.51 187.958 1367.36 Q190.568 1364.21 195.215 1363.13 M192.859 1352.97 Q192.859 1356.67 195.151 1358.74 Q197.474 1360.8 201.644 1360.8 Q205.782 1360.8 208.105 1358.74 Q210.46 1356.67 210.46 1352.97 Q210.46 1349.28 208.105 1347.21 Q205.782 1345.14 201.644 1345.14 Q197.474 1345.14 195.151 1347.21 Q192.859 1349.28 192.859 1352.97 Z" fill="#000000" fill-rule="nonzero" fill-opacity="1" /><path clip-path="url(#clip570)" d="M131.367 1201.14 L153.806 1201.14 L153.806 1206.55 L123.632 1206.55 L123.632 1201.14 Q127.292 1197.36 133.595 1190.99 Q139.928 1184.59 141.552 1182.75 Q144.639 1179.28 145.849 1176.89 Q147.09 1174.47 147.09 1172.15 Q147.09 1168.36 144.416 1165.97 Q141.774 1163.59 137.509 1163.59 Q134.486 1163.59 131.112 1164.64 Q127.77 1165.69 123.95 1167.82 L123.95 1161.33 Q127.834 1159.77 131.207 1158.97 Q134.581 1158.18 137.382 1158.18 Q144.766 1158.18 149.159 1161.87 Q153.551 1165.56 153.551 1171.73 Q153.551 1174.66 152.437 1177.3 Q151.355 1179.91 148.458 1183.48 Q147.663 1184.4 143.398 1188.83 Q139.133 1193.22 131.367 1201.14 Z" fill="#000000" fill-rule="nonzero" fill-opacity="1" /><path clip-path="url(#clip570)" d="M167.301 1198.47 L174.017 1198.47 L174.017 1206.55 L167.301 1206.55 L167.301 1198.47 Z" fill="#000000" fill-rule="nonzero" fill-opacity="1" /><path clip-path="url(#clip570)" d="M188.212 1205.57 L188.212 1199.71 Q190.631 1200.86 193.114 1201.46 Q195.597 1202.07 197.984 1202.07 Q204.349 1202.07 207.691 1197.8 Q211.065 1193.5 211.543 1184.78 Q209.697 1187.52 206.864 1188.99 Q204.031 1190.45 200.594 1190.45 Q193.464 1190.45 189.294 1186.15 Q185.157 1181.82 185.157 1174.34 Q185.157 1167.02 189.485 1162.6 Q193.814 1158.18 201.007 1158.18 Q209.251 1158.18 213.58 1164.51 Q217.94 1170.81 217.94 1182.84 Q217.94 1194.08 212.593 1200.79 Q207.278 1207.48 198.27 1207.48 Q195.851 1207.48 193.369 1207 Q190.886 1206.52 188.212 1205.57 M201.007 1185.42 Q205.336 1185.42 207.851 1182.46 Q210.397 1179.5 210.397 1174.34 Q210.397 1169.22 207.851 1166.26 Q205.336 1163.27 201.007 1163.27 Q196.679 1163.27 194.132 1166.26 Q191.618 1169.22 191.618 1174.34 Q191.618 1179.5 194.132 1182.46 Q196.679 1185.42 201.007 1185.42 Z" fill="#000000" fill-rule="nonzero" fill-opacity="1" /><path clip-path="url(#clip570)" d="M145.053 999.056 Q149.668 1000.04 152.246 1003.16 Q154.856 1006.28 154.856 1010.86 Q154.856 1017.9 150.018 1021.75 Q145.18 1025.6 136.268 1025.6 Q133.276 1025.6 130.093 1025 Q126.942 1024.42 123.569 1023.25 L123.569 1017.04 Q126.242 1018.6 129.425 1019.39 Q132.608 1020.19 136.077 1020.19 Q142.125 1020.19 145.276 1017.8 Q148.458 1015.42 148.458 1010.86 Q148.458 1006.66 145.498 1004.31 Q142.57 1001.92 137.318 1001.92 L131.78 1001.92 L131.78 996.637 L137.573 996.637 Q142.316 996.637 144.83 994.759 Q147.344 992.849 147.344 989.285 Q147.344 985.624 144.735 983.683 Q142.156 981.709 137.318 981.709 Q134.677 981.709 131.653 982.282 Q128.629 982.855 125.001 984.065 L125.001 978.336 Q128.661 977.317 131.844 976.808 Q135.059 976.299 137.891 976.299 Q145.212 976.299 149.477 979.641 Q153.742 982.951 153.742 988.616 Q153.742 992.563 151.482 995.3 Q149.222 998.006 145.053 999.056 Z" fill="#000000" fill-rule="nonzero" fill-opacity="1" /><path clip-path="url(#clip570)" d="M167.046 1016.59 L173.762 1016.59 L173.762 1024.68 L167.046 1024.68 L167.046 1016.59 Z" fill="#000000" fill-rule="nonzero" fill-opacity="1" /><path clip-path="url(#clip570)" d="M201.517 981.391 Q196.551 981.391 194.037 986.293 Q191.554 991.163 191.554 1000.97 Q191.554 1010.74 194.037 1015.64 Q196.551 1020.51 201.517 1020.51 Q206.514 1020.51 208.996 1015.64 Q211.511 1010.74 211.511 1000.97 Q211.511 991.163 208.996 986.293 Q206.514 981.391 201.517 981.391 M201.517 976.299 Q209.506 976.299 213.707 982.632 Q217.94 988.935 217.94 1000.97 Q217.94 1012.97 213.707 1019.3 Q209.506 1025.6 201.517 1025.6 Q193.528 1025.6 189.294 1019.3 Q185.093 1012.97 185.093 1000.97 Q185.093 988.935 189.294 982.632 Q193.528 976.299 201.517 976.299 Z" fill="#000000" fill-rule="nonzero" fill-opacity="1" /><path clip-path="url(#clip570)" d="M146.74 817.179 Q151.355 818.166 153.933 821.285 Q156.543 824.405 156.543 828.988 Q156.543 836.022 151.705 839.873 Q146.867 843.724 137.955 843.724 Q134.963 843.724 131.78 843.12 Q128.629 842.547 125.255 841.369 L125.255 835.163 Q127.929 836.722 131.112 837.518 Q134.295 838.314 137.764 838.314 Q143.812 838.314 146.963 835.926 Q150.145 833.539 150.145 828.988 Q150.145 824.786 147.185 822.431 Q144.257 820.044 139.005 820.044 L133.467 820.044 L133.467 814.76 L139.26 814.76 Q144.002 814.76 146.517 812.883 Q149.031 810.973 149.031 807.408 Q149.031 803.748 146.421 801.806 Q143.843 799.833 139.005 799.833 Q136.364 799.833 133.34 800.406 Q130.316 800.979 126.688 802.188 L126.688 796.459 Q130.348 795.441 133.531 794.931 Q136.746 794.422 139.578 794.422 Q146.899 794.422 151.164 797.764 Q155.429 801.074 155.429 806.74 Q155.429 810.686 153.169 813.424 Q150.909 816.129 146.74 817.179 Z" fill="#000000" fill-rule="nonzero" fill-opacity="1" /><path clip-path="url(#clip570)" d="M168.733 834.717 L175.449 834.717 L175.449 842.801 L168.733 842.801 L168.733 834.717 Z" fill="#000000" fill-rule="nonzero" fill-opacity="1" /><path clip-path="url(#clip570)" d="M190.568 837.391 L201.071 837.391 L201.071 801.138 L189.645 803.43 L189.645 797.573 L201.007 795.281 L207.437 795.281 L207.437 837.391 L217.94 837.391 L217.94 842.801 L190.568 842.801 L190.568 837.391 Z" fill="#000000" fill-rule="nonzero" fill-opacity="1" /><path clip-path="url(#clip570)" d="M147.249 635.303 Q151.864 636.29 154.442 639.409 Q157.052 642.528 157.052 647.111 Q157.052 654.145 152.214 657.997 Q147.376 661.848 138.464 661.848 Q135.472 661.848 132.29 661.243 Q129.139 660.67 125.765 659.493 L125.765 653.286 Q128.438 654.846 131.621 655.641 Q134.804 656.437 138.273 656.437 Q144.321 656.437 147.472 654.05 Q150.655 651.663 150.655 647.111 Q150.655 642.91 147.695 640.555 Q144.766 638.167 139.515 638.167 L133.976 638.167 L133.976 632.884 L139.769 632.884 Q144.512 632.884 147.026 631.006 Q149.541 629.096 149.541 625.531 Q149.541 621.871 146.931 619.93 Q144.353 617.956 139.515 617.956 Q136.873 617.956 133.849 618.529 Q130.825 619.102 127.197 620.312 L127.197 614.582 Q130.857 613.564 134.04 613.055 Q137.255 612.545 140.088 612.545 Q147.408 612.545 151.673 615.887 Q155.938 619.198 155.938 624.863 Q155.938 628.81 153.678 631.547 Q151.419 634.253 147.249 635.303 Z" fill="#000000" fill-rule="nonzero" fill-opacity="1" /><path clip-path="url(#clip570)" d="M169.243 652.84 L175.958 652.84 L175.958 660.925 L169.243 660.925 L169.243 652.84 Z" fill="#000000" fill-rule="nonzero" fill-opacity="1" /><path clip-path="url(#clip570)" d="M195.501 655.514 L217.94 655.514 L217.94 660.925 L187.767 660.925 L187.767 655.514 Q191.427 651.726 197.729 645.361 Q204.063 638.963 205.686 637.117 Q208.774 633.648 209.983 631.261 Q211.224 628.842 211.224 626.518 Q211.224 622.731 208.551 620.343 Q205.909 617.956 201.644 617.956 Q198.62 617.956 195.246 619.007 Q191.904 620.057 188.085 622.189 L188.085 615.696 Q191.968 614.137 195.342 613.341 Q198.716 612.545 201.517 612.545 Q208.901 612.545 213.293 616.238 Q217.686 619.93 217.686 626.104 Q217.686 629.033 216.572 631.674 Q215.489 634.284 212.593 637.849 Q211.797 638.772 207.532 643.196 Q203.267 647.589 195.501 655.514 Z" fill="#000000" fill-rule="nonzero" fill-opacity="1" /><path clip-path="url(#clip570)" d="M145.944 453.426 Q150.559 454.413 153.137 457.532 Q155.747 460.651 155.747 465.235 Q155.747 472.269 150.909 476.12 Q146.071 479.971 137.159 479.971 Q134.167 479.971 130.985 479.367 Q127.834 478.794 124.46 477.616 L124.46 471.409 Q127.133 472.969 130.316 473.765 Q133.499 474.56 136.968 474.56 Q143.016 474.56 146.167 472.173 Q149.35 469.786 149.35 465.235 Q149.35 461.033 146.39 458.678 Q143.461 456.291 138.21 456.291 L132.672 456.291 L132.672 451.007 L138.464 451.007 Q143.207 451.007 145.721 449.129 Q148.236 447.22 148.236 443.655 Q148.236 439.995 145.626 438.053 Q143.048 436.08 138.21 436.08 Q135.568 436.08 132.544 436.653 Q129.52 437.226 125.892 438.435 L125.892 432.706 Q129.552 431.687 132.735 431.178 Q135.95 430.669 138.783 430.669 Q146.103 430.669 150.368 434.011 Q154.633 437.321 154.633 442.987 Q154.633 446.933 152.373 449.671 Q150.114 452.376 145.944 453.426 Z" fill="#000000" fill-rule="nonzero" fill-opacity="1" /><path clip-path="url(#clip570)" d="M167.938 470.964 L174.653 470.964 L174.653 479.048 L167.938 479.048 L167.938 470.964 Z" fill="#000000" fill-rule="nonzero" fill-opacity="1" /><path clip-path="url(#clip570)" d="M208.137 453.426 Q212.752 454.413 215.33 457.532 Q217.94 460.651 217.94 465.235 Q217.94 472.269 213.102 476.12 Q208.264 479.971 199.352 479.971 Q196.36 479.971 193.178 479.367 Q190.027 478.794 186.653 477.616 L186.653 471.409 Q189.326 472.969 192.509 473.765 Q195.692 474.56 199.161 474.56 Q205.209 474.56 208.36 472.173 Q211.543 469.786 211.543 465.235 Q211.543 461.033 208.583 458.678 Q205.654 456.291 200.403 456.291 L194.864 456.291 L194.864 451.007 L200.657 451.007 Q205.4 451.007 207.914 449.129 Q210.429 447.22 210.429 443.655 Q210.429 439.995 207.819 438.053 Q205.241 436.08 200.403 436.08 Q197.761 436.08 194.737 436.653 Q191.713 437.226 188.085 438.435 L188.085 432.706 Q191.745 431.687 194.928 431.178 Q198.143 430.669 200.976 430.669 Q208.296 430.669 212.561 434.011 Q216.826 437.321 216.826 442.987 Q216.826 446.933 214.566 449.671 Q212.307 452.376 208.137 453.426 Z" fill="#000000" fill-rule="nonzero" fill-opacity="1" /><path clip-path="url(#clip570)" d="M144.384 271.55 Q149 272.536 151.578 275.656 Q154.188 278.775 154.188 283.358 Q154.188 290.392 149.35 294.243 Q144.512 298.095 135.6 298.095 Q132.608 298.095 129.425 297.49 Q126.274 296.917 122.9 295.739 L122.9 289.533 Q125.574 291.092 128.757 291.888 Q131.939 292.684 135.409 292.684 Q141.456 292.684 144.607 290.297 Q147.79 287.91 147.79 283.358 Q147.79 279.157 144.83 276.801 Q141.902 274.414 136.65 274.414 L131.112 274.414 L131.112 269.131 L136.905 269.131 Q141.647 269.131 144.162 267.253 Q146.676 265.343 146.676 261.778 Q146.676 258.118 144.066 256.177 Q141.488 254.203 136.65 254.203 Q134.008 254.203 130.985 254.776 Q127.961 255.349 124.332 256.558 L124.332 250.829 Q127.993 249.811 131.176 249.302 Q134.39 248.792 137.223 248.792 Q144.544 248.792 148.809 252.134 Q153.074 255.444 153.074 261.11 Q153.074 265.057 150.814 267.794 Q148.554 270.499 144.384 271.55 Z" fill="#000000" fill-rule="nonzero" fill-opacity="1" /><path clip-path="url(#clip570)" d="M166.378 289.087 L173.094 289.087 L173.094 297.172 L166.378 297.172 L166.378 289.087 Z" fill="#000000" fill-rule="nonzero" fill-opacity="1" /><path clip-path="url(#clip570)" d="M204.763 255.253 L188.531 280.621 L204.763 280.621 L204.763 255.253 M203.076 249.652 L211.161 249.652 L211.161 280.621 L217.94 280.621 L217.94 285.968 L211.161 285.968 L211.161 297.172 L204.763 297.172 L204.763 285.968 L183.311 285.968 L183.311 279.761 L203.076 249.652 Z" fill="#000000" fill-rule="nonzero" fill-opacity="1" /><path clip-path="url(#clip570)" d="M40.7656 807.08 Q43.4299 807.08 43.4299 810.924 L43.4299 824.017 L70.111 829.231 Q70.7961 829.346 71.1767 829.498 Q71.5573 829.612 72.2044 829.955 Q72.8133 830.259 73.1178 830.906 Q73.4604 831.515 73.4604 832.429 Q73.4604 833.57 72.7753 834.141 Q72.1282 834.674 71.3289 834.674 Q70.8341 834.674 68.4743 833.913 L43.4299 826.263 L43.4299 832.733 Q43.4299 838.823 49.4436 842.629 Q50.2429 843.238 50.319 843.581 Q50.3571 843.733 50.3571 843.885 Q50.3571 844.304 50.1668 844.57 Q49.9765 844.799 49.7861 844.799 L49.5958 844.837 Q49.3294 844.837 48.2637 844.228 Q47.1599 843.581 45.5233 842.439 Q43.8866 841.259 42.5925 840.079 Q40.9178 838.518 40.0424 836.768 Q39.1289 835.017 39.0147 834.141 Q38.9006 833.228 38.9006 832.048 L38.9006 810.201 Q38.9006 809.211 38.9767 808.678 Q39.0147 808.145 39.4715 807.612 Q39.8902 807.08 40.7656 807.08 Z" fill="#000000" fill-rule="nonzero" fill-opacity="1" /><path clip-path="url(#clip570)" d="M53.0214 797.096 Q39.8521 797.096 29.233 792.186 Q24.7798 790.092 21.0497 787.162 Q17.3197 784.231 15.6831 782.29 Q14.0464 780.349 14.0464 779.816 Q14.0464 779.054 14.8077 779.016 Q15.1883 779.016 16.1398 780.044 Q28.9285 792.604 53.0214 792.566 Q77.1904 792.566 89.4843 780.349 Q90.8164 779.016 91.2351 779.016 Q91.9963 779.016 91.9963 779.816 Q91.9963 780.349 90.4358 782.214 Q88.8753 784.079 85.2975 786.971 Q81.7197 789.864 77.3427 791.957 Q66.7235 797.096 53.0214 797.096 Z" fill="#000000" fill-rule="nonzero" fill-opacity="1" /><path clip-path="url(#clip570)" d="M20.593 720.073 Q21.3162 720.073 21.9251 720.225 L35.475 722.356 Q36.5027 722.471 36.8833 722.699 Q37.2639 722.889 37.2639 723.498 Q37.2639 724.45 36.2743 724.45 Q35.7034 724.45 34.7899 724.221 Q30.489 723.574 28.5478 723.574 Q27.2538 723.574 26.3022 723.841 Q25.3126 724.069 24.6275 724.45 Q23.9424 724.792 23.4857 725.592 Q23.0289 726.391 22.7625 727.152 Q22.4961 727.913 22.3819 729.284 Q22.2296 730.654 22.1916 731.834 Q22.1535 733.014 22.1535 734.955 Q22.1535 739.18 22.3058 739.865 Q22.4961 740.588 23.067 740.968 Q23.5999 741.311 25.1984 741.692 L66.5713 752.044 L68.2079 752.349 Q69.1214 752.349 69.4259 751.778 Q69.7304 751.207 69.9207 749.456 Q70.111 746.944 70.111 744.47 Q70.111 744.394 70.111 744.242 Q70.111 743.404 70.149 743.062 Q70.149 742.719 70.2252 742.377 Q70.3013 742.034 70.4916 741.958 Q70.6438 741.844 70.9483 741.844 Q71.6715 741.844 72.0521 742.148 Q72.3947 742.453 72.4708 742.757 Q72.5088 743.024 72.5088 743.557 Q72.5088 744.622 72.4327 746.906 Q72.3566 749.19 72.3566 750.332 L72.2805 756.802 L72.3566 763.425 Q72.3566 764.452 72.4327 766.622 Q72.5088 768.791 72.5088 769.819 Q72.5088 771.151 71.5573 771.151 Q70.4916 771.151 70.3013 770.656 Q70.111 770.124 70.111 767.878 Q70.111 764.719 69.9587 763.006 Q69.8065 761.293 69.2736 760.38 Q68.7408 759.428 68.2079 759.162 Q67.637 758.895 66.3429 758.591 L24.7417 748.124 Q23.8282 747.82 23.1051 747.82 Q22.7244 747.82 22.5722 747.934 Q22.4199 748.01 22.3058 748.505 Q22.1535 748.999 22.1535 750.027 L22.1535 753.072 Q22.1535 756.193 22.3058 758.134 Q22.4199 760.037 22.9909 761.864 Q23.5618 763.653 24.3611 764.719 Q25.1604 765.746 26.797 766.888 Q28.4337 768.03 30.4129 768.868 Q32.3921 769.667 35.6273 770.809 Q36.693 771.189 36.9975 771.418 Q37.2639 771.608 37.2639 772.141 Q37.2639 772.521 37.0356 772.826 Q36.7691 773.092 36.4266 773.092 Q35.1705 772.712 35.0183 772.636 L21.2781 767.954 Q20.1743 767.573 19.984 767.231 Q19.7556 766.85 19.7556 765.442 L19.7556 722.204 Q19.7556 721.519 19.7556 721.291 Q19.7556 721.062 19.8318 720.682 Q19.9079 720.301 20.0982 720.187 Q20.2885 720.073 20.593 720.073 Z" fill="#000000" fill-rule="nonzero" fill-opacity="1" /><path clip-path="url(#clip570)" d="M91.2351 714.903 Q90.8545 714.903 89.9029 713.913 Q77.1143 701.353 53.0214 701.353 Q28.8523 701.353 16.6346 713.419 Q15.2263 714.903 14.8077 714.903 Q14.0464 714.903 14.0464 714.142 Q14.0464 713.609 15.6069 711.744 Q17.1675 709.841 20.7452 706.986 Q24.323 704.093 28.7001 701.962 Q39.3192 696.824 53.0214 696.824 Q66.1906 696.824 76.8098 701.734 Q81.263 703.827 84.993 706.758 Q88.723 709.688 90.3597 711.63 Q91.9963 713.571 91.9963 714.142 Q91.9963 714.903 91.2351 714.903 Z" fill="#000000" fill-rule="nonzero" fill-opacity="1" /><path clip-path="url(#clip570)" d="M1018.57 72.1448 L1018.57 69.5625 Q1023.04 69.5625 1024.06 69.0296 Q1025.09 68.4558 1025.09 65.7505 L1025.09 22.0969 Q1025.09 18.9817 1023.98 18.2029 Q1022.92 17.4241 1018.57 17.4241 L1018.57 14.8008 L1030.62 13.899 L1030.62 65.7505 Q1030.62 68.4558 1031.69 69.0296 Q1032.75 69.5625 1037.18 69.5625 L1037.18 72.1448 Q1036.16 72.1448 1034.02 72.0628 Q1031.89 71.9809 1030.34 71.9399 Q1028.78 71.8989 1027.88 71.8989 Q1026.89 71.8989 1018.57 72.1448 Z" fill="#000000" fill-rule="nonzero" fill-opacity="1" /><path clip-path="url(#clip570)" d="M1049.81 67.636 Q1044.28 62.1434 1044.28 54.1915 Q1044.28 46.1986 1049.69 40.3781 Q1055.14 34.5167 1062.93 34.5167 Q1070.55 34.5167 1076 40.3371 Q1081.5 46.1166 1081.5 54.1915 Q1081.5 62.1024 1075.96 67.595 Q1070.47 73.0876 1062.85 73.0876 Q1055.39 73.0876 1049.81 67.636 M1051.25 53.4947 Q1051.25 61.6516 1053.38 65.3406 Q1056.66 70.9561 1062.93 70.9561 Q1066.04 70.9561 1068.62 69.2756 Q1071.25 67.595 1072.68 64.7667 Q1074.53 61.0777 1074.53 53.4947 Q1074.53 45.4198 1072.31 41.8537 Q1069.03 36.4022 1062.85 36.4022 Q1060.14 36.4022 1057.48 37.8368 Q1054.85 39.2304 1053.25 42.0177 Q1051.25 45.7067 1051.25 53.4947 Z" fill="#000000" fill-rule="nonzero" fill-opacity="1" /><path clip-path="url(#clip570)" d="M1082.82 78.7851 Q1082.82 76.0798 1084.87 73.7434 Q1086.96 71.407 1090.57 70.3823 Q1086.88 68.0459 1086.88 62.9222 Q1086.88 58.9873 1089.46 55.954 Q1085.53 52.6749 1085.53 47.3053 Q1085.53 42.3456 1089.46 38.6976 Q1093.4 35.0495 1099.14 35.0495 Q1104.18 35.0495 1108.03 38.0827 Q1112.05 34.1478 1116.93 34.1068 Q1119.1 34.1068 1120.12 35.4594 Q1121.19 36.8121 1121.19 38.2467 Q1121.19 39.5173 1120.37 40.1322 Q1119.59 40.747 1118.77 40.747 Q1117.75 40.747 1117.01 40.0912 Q1116.31 39.3944 1116.31 38.3287 Q1116.31 36.5661 1117.66 36.0333 Q1117.42 35.9513 1116.84 35.9513 Q1112.75 35.9513 1109.26 39.2304 Q1112.7 42.4276 1112.7 47.3873 Q1112.7 52.347 1108.77 55.995 Q1104.83 59.6431 1099.14 59.6431 Q1094.42 59.6431 1090.82 57.0198 Q1089.38 58.7003 1089.38 60.9957 Q1089.38 63.0862 1090.65 64.7258 Q1091.92 66.3653 1093.85 66.6113 Q1094.42 66.6932 1100.12 66.6932 Q1103.48 66.6932 1105.33 66.7752 Q1107.17 66.8572 1109.79 67.431 Q1112.46 67.9639 1114.55 69.0296 Q1120 72.0628 1120.04 78.6211 Q1120.04 83.4169 1114.51 86.4091 Q1109.02 89.4423 1101.39 89.4423 Q1093.69 89.4423 1088.23 86.3681 Q1082.82 83.3349 1082.82 78.7851 M1087.21 78.7851 Q1087.21 82.2282 1091.27 84.8515 Q1095.33 87.5158 1101.47 87.5158 Q1107.5 87.5158 1111.56 84.8925 Q1115.66 82.3102 1115.66 78.7851 Q1115.66 76.2847 1114.22 74.6861 Q1112.79 73.0876 1109.84 72.4317 Q1106.93 71.8169 1104.88 71.6939 Q1102.83 71.571 1099.06 71.571 L1094.1 71.571 Q1091.23 71.7349 1089.22 73.8254 Q1087.21 75.9158 1087.21 78.7851 M1091.8 47.3873 Q1091.8 57.7166 1099.14 57.7166 Q1102.83 57.7166 1105.08 54.3555 Q1106.43 52.1011 1106.43 47.3053 Q1106.43 36.976 1099.14 36.976 Q1095.45 36.976 1093.15 40.3371 Q1091.8 42.5915 1091.8 47.3873 Z" fill="#000000" fill-rule="nonzero" fill-opacity="1" /><path clip-path="url(#clip570)" d="M1134.38 51.1583 Q1134.38 36.976 1139.66 25.54 Q1141.92 20.7443 1145.07 16.7273 Q1148.23 12.7104 1150.32 10.9478 Q1152.41 9.18528 1152.98 9.18528 Q1153.8 9.18528 1153.85 10.0051 Q1153.85 10.415 1152.74 11.4397 Q1139.21 25.2121 1139.25 51.1583 Q1139.25 77.1865 1152.41 90.426 Q1153.85 91.8607 1153.85 92.3115 Q1153.85 93.1313 1152.98 93.1313 Q1152.41 93.1313 1150.4 91.4508 Q1148.39 89.7702 1145.28 85.9172 Q1142.16 82.0642 1139.91 77.3505 Q1134.38 65.9144 1134.38 51.1583 Z" fill="#000000" fill-rule="nonzero" fill-opacity="1" /><path clip-path="url(#clip570)" d="M1207.27 37.9598 Q1207.27 40.829 1203.13 40.829 L1189.03 40.829 L1183.41 69.5625 Q1183.29 70.3003 1183.13 70.7102 Q1183 71.1201 1182.64 71.8169 Q1182.31 72.4727 1181.61 72.8006 Q1180.96 73.1695 1179.97 73.1695 Q1178.74 73.1695 1178.13 72.4317 Q1177.55 71.7349 1177.55 70.8741 Q1177.55 70.3413 1178.37 67.7999 L1186.61 40.829 L1179.64 40.829 Q1173.09 40.829 1168.99 47.3053 Q1168.33 48.1661 1167.96 48.2481 Q1167.8 48.2891 1167.63 48.2891 Q1167.18 48.2891 1166.9 48.0841 Q1166.65 47.8792 1166.65 47.6742 L1166.61 47.4693 Q1166.61 47.1823 1167.26 46.0346 Q1167.96 44.846 1169.19 43.0834 Q1170.46 41.3209 1171.73 39.9272 Q1173.41 38.1237 1175.3 37.181 Q1177.18 36.1972 1178.13 36.0742 Q1179.11 35.9513 1180.38 35.9513 L1203.91 35.9513 Q1204.97 35.9513 1205.55 36.0333 Q1206.12 36.0742 1206.7 36.5661 Q1207.27 37.017 1207.27 37.9598 Z" fill="#000000" fill-rule="nonzero" fill-opacity="1" /><path clip-path="url(#clip570)" d="M1215.83 77.8539 Q1215.83 68.6149 1220.54 62.9625 Q1225.25 57.2814 1231.3 57.2814 Q1234.83 57.2814 1236.78 59.089 Q1238.76 60.8679 1238.76 63.6224 Q1238.76 65.1431 1237.87 65.803 Q1236.98 66.463 1236.06 66.463 Q1235 66.463 1234.17 65.7457 Q1233.34 65.0283 1233.34 63.7372 Q1233.34 61.0975 1236.58 61.0975 Q1235.06 58.7447 1231.41 58.7447 Q1230.3 58.7447 1229.15 59.089 Q1228 59.4046 1226.51 60.4949 Q1225.02 61.5852 1223.87 63.3068 Q1222.72 65.0283 1221.92 68.2706 Q1221.11 71.5129 1221.11 75.7306 L1221.11 77.1366 Q1223.52 71.312 1228.46 71.3407 Q1233.39 71.3407 1236.81 75.0994 Q1240.22 78.8581 1240.22 84.4245 Q1240.22 90.1343 1236.67 93.9217 Q1233.11 97.7091 1228.11 97.7091 Q1225.88 97.7091 1223.84 96.7622 Q1221.83 95.8441 1219.94 93.7208 Q1218.07 91.5976 1216.95 87.5233 Q1215.83 83.4489 1215.83 77.8539 M1221.23 83.1333 Q1221.23 88.9005 1222.29 91.655 Q1222.46 92.1141 1222.84 92.7453 Q1223.24 93.3765 1223.9 94.2086 Q1224.59 95.012 1225.7 95.5572 Q1226.82 96.0736 1228.11 96.0736 Q1232.05 96.0736 1233.94 92.2575 Q1234.94 90.1343 1234.94 84.3671 Q1234.94 78.4851 1233.88 76.3332 Q1232.07 72.6892 1228.4 72.6892 Q1225.93 72.6892 1224.21 74.3821 Q1222.52 76.075 1221.86 78.3417 Q1221.23 80.6084 1221.23 83.1333 Z" fill="#000000" fill-rule="nonzero" fill-opacity="1" /><path clip-path="url(#clip570)" d="M1245.77 95.4711 Q1244.93 94.5242 1244.93 93.2905 Q1244.93 92.0567 1245.74 91.1385 Q1246.57 90.1917 1248.06 90.1917 Q1249.81 90.1917 1250.82 91.8845 Q1251.82 93.5487 1251.82 96.3606 Q1251.82 99.402 1250.59 102.214 Q1249.35 105.054 1248.15 106.403 Q1246.94 107.751 1246.45 107.751 Q1245.88 107.751 1245.88 107.12 Q1245.88 106.891 1246.28 106.46 Q1250.5 101.927 1250.53 96.3606 Q1250.53 95.4711 1250.41 95.4711 L1250.27 95.5859 Q1249.27 96.4179 1248.06 96.4179 Q1246.6 96.4179 1245.77 95.4711 Z" fill="#000000" fill-rule="nonzero" fill-opacity="1" /><path clip-path="url(#clip570)" d="M1270.36 86.9494 Q1270.36 85.1992 1271.31 84.5392 Q1272.26 83.8506 1273.26 83.8506 Q1274.61 83.8506 1275.38 84.7114 Q1276.19 85.5435 1276.19 86.7199 Q1276.19 87.8963 1275.38 88.757 Q1274.61 89.5891 1273.26 89.5891 Q1272.6 89.5891 1272.26 89.4744 Q1273.03 92.1714 1275.38 94.1225 Q1277.77 96.0736 1280.89 96.0736 Q1284.82 96.0736 1287.18 92.2575 Q1288.58 89.79 1288.58 84.1949 Q1288.58 79.2598 1287.52 76.7923 Q1285.89 73.0336 1282.53 73.0336 Q1277.77 73.0336 1274.95 77.1366 Q1274.61 77.653 1274.21 77.6817 Q1273.63 77.6817 1273.49 77.3661 Q1273.38 77.0218 1273.38 76.1323 L1273.38 58.7447 Q1273.38 57.3388 1273.95 57.3388 Q1274.18 57.3388 1274.67 57.5109 Q1278.37 59.1464 1282.47 59.1751 Q1286.69 59.1751 1290.48 57.4535 Q1290.76 57.2814 1290.93 57.2814 Q1291.51 57.2814 1291.54 57.9413 Q1291.54 58.1708 1291.05 58.8595 Q1290.59 59.5194 1289.59 60.4089 Q1288.58 61.2696 1287.29 62.1017 Q1286 62.9338 1284.11 63.5076 Q1282.24 64.0528 1280.18 64.0528 Q1277.71 64.0528 1275.18 63.2781 L1275.18 74.7264 Q1278.22 71.7424 1282.64 71.7424 Q1287.35 71.7424 1290.59 75.5298 Q1293.83 79.3172 1293.83 84.5966 Q1293.83 90.1343 1289.99 93.9217 Q1286.17 97.7091 1281.01 97.7091 Q1276.3 97.7091 1273.32 94.3521 Q1270.36 90.9951 1270.36 86.9494 Z" fill="#000000" fill-rule="nonzero" fill-opacity="1" /><path clip-path="url(#clip570)" d="M1308.42 51.1583 Q1308.42 36.976 1313.71 25.54 Q1315.96 20.7443 1319.12 16.7273 Q1322.28 12.7104 1324.37 10.9478 Q1326.46 9.18528 1327.03 9.18528 Q1327.85 9.18528 1327.89 10.0051 Q1327.89 10.415 1326.78 11.4397 Q1313.26 25.2121 1313.3 51.1583 Q1313.3 77.1865 1326.46 90.426 Q1327.89 91.8607 1327.89 92.3115 Q1327.89 93.1313 1327.03 93.1313 Q1326.46 93.1313 1324.45 91.4508 Q1322.44 89.7702 1319.32 85.9172 Q1316.21 82.0642 1313.96 77.3505 Q1308.42 65.9144 1308.42 51.1583 Z" fill="#000000" fill-rule="nonzero" fill-opacity="1" /><path clip-path="url(#clip570)" d="M1391.37 16.2354 Q1391.37 17.0142 1391.2 17.6701 L1388.91 32.2622 Q1388.79 33.369 1388.54 33.7788 Q1388.34 34.1887 1387.68 34.1887 Q1386.66 34.1887 1386.66 33.123 Q1386.66 32.5082 1386.9 31.5244 Q1387.6 26.8926 1387.6 24.8022 Q1387.6 23.4086 1387.31 22.3838 Q1387.07 21.3181 1386.66 20.5803 Q1386.29 19.8425 1385.43 19.3506 Q1384.56 18.8588 1383.74 18.5718 Q1382.93 18.2849 1381.45 18.1619 Q1379.97 17.998 1378.7 17.957 Q1377.43 17.916 1375.34 17.916 Q1370.79 17.916 1370.05 18.08 Q1369.28 18.2849 1368.87 18.8997 Q1368.5 19.4736 1368.09 21.1951 L1356.94 65.7505 L1356.61 67.513 Q1356.61 68.4968 1357.22 68.8247 Q1357.84 69.1526 1359.73 69.3575 Q1362.43 69.5625 1365.09 69.5625 Q1365.18 69.5625 1365.34 69.5625 Q1366.24 69.5625 1366.61 69.6035 Q1366.98 69.6035 1367.35 69.6855 Q1367.72 69.7674 1367.8 69.9724 Q1367.92 70.1363 1367.92 70.4643 Q1367.92 71.243 1367.6 71.6529 Q1367.27 72.0218 1366.94 72.1038 Q1366.65 72.1448 1366.08 72.1448 Q1364.93 72.1448 1362.47 72.0628 Q1360.01 71.9809 1358.78 71.9809 L1351.81 71.8989 L1344.68 71.9809 Q1343.58 71.9809 1341.24 72.0628 Q1338.9 72.1448 1337.8 72.1448 Q1336.36 72.1448 1336.36 71.1201 Q1336.36 69.9724 1336.89 69.7674 Q1337.47 69.5625 1339.89 69.5625 Q1343.29 69.5625 1345.13 69.3985 Q1346.98 69.2346 1347.96 68.6607 Q1348.99 68.0869 1349.27 67.513 Q1349.56 66.8982 1349.89 65.5045 L1361.16 20.7033 Q1361.49 19.7195 1361.49 18.9407 Q1361.49 18.5308 1361.36 18.3669 Q1361.28 18.2029 1360.75 18.08 Q1360.22 17.916 1359.11 17.916 L1355.83 17.916 Q1352.47 17.916 1350.38 18.08 Q1348.33 18.2029 1346.36 18.8178 Q1344.44 19.4326 1343.29 20.2934 Q1342.18 21.1542 1340.95 22.9167 Q1339.72 24.6792 1338.82 26.8107 Q1337.96 28.9421 1336.73 32.4262 Q1336.32 33.5739 1336.07 33.9018 Q1335.87 34.1887 1335.3 34.1887 Q1334.89 34.1887 1334.56 33.9428 Q1334.27 33.6559 1334.27 33.287 Q1334.68 31.9343 1334.76 31.7704 L1339.8 16.9732 Q1340.21 15.7846 1340.58 15.5796 Q1340.99 15.3337 1342.51 15.3337 L1389.07 15.3337 Q1389.81 15.3337 1390.06 15.3337 Q1390.3 15.3337 1390.71 15.4157 Q1391.12 15.4976 1391.25 15.7026 Q1391.37 15.9075 1391.37 16.2354 Z" fill="#000000" fill-rule="nonzero" fill-opacity="1" /><path clip-path="url(#clip570)" d="M1396.94 92.3115 Q1396.94 91.9016 1398 90.8769 Q1411.53 77.1045 1411.53 51.1583 Q1411.53 25.1301 1398.53 11.9726 Q1396.94 10.4559 1396.94 10.0051 Q1396.94 9.18528 1397.76 9.18528 Q1398.33 9.18528 1400.34 10.8658 Q1402.39 12.5464 1405.46 16.3994 Q1408.58 20.2524 1410.87 24.9662 Q1416.41 36.4022 1416.41 51.1583 Q1416.41 65.3406 1411.12 76.7766 Q1408.86 81.5723 1405.71 85.5893 Q1402.55 89.6062 1400.46 91.3688 Q1398.37 93.1313 1397.76 93.1313 Q1396.94 93.1313 1396.94 92.3115 Z" fill="#000000" fill-rule="nonzero" fill-opacity="1" /><path clip-path="url(#clip570)" d="M1429.17 92.3115 Q1429.17 91.9016 1430.23 90.8769 Q1443.76 77.1045 1443.76 51.1583 Q1443.76 25.1301 1430.77 11.9726 Q1429.17 10.4559 1429.17 10.0051 Q1429.17 9.18528 1429.99 9.18528 Q1430.56 9.18528 1432.57 10.8658 Q1434.62 12.5464 1437.69 16.3994 Q1440.81 20.2524 1443.11 24.9662 Q1448.64 36.4022 1448.64 51.1583 Q1448.64 65.3406 1443.35 76.7766 Q1441.1 81.5723 1437.94 85.5893 Q1434.78 89.6062 1432.69 91.3688 Q1430.6 93.1313 1429.99 93.1313 Q1429.17 93.1313 1429.17 92.3115 Z" fill="#000000" fill-rule="nonzero" fill-opacity="1" /><path clip-path="url(#clip570)" d="M1484.69 56.6355 Q1484.69 55.2009 1486.62 54.2581 L1498.3 48.7246 L1486.46 43.191 Q1484.69 42.3712 1484.69 40.9366 Q1484.69 40.1168 1485.35 39.379 Q1486.05 38.6002 1486.95 38.6002 Q1487.6 38.6002 1488.79 39.502 L1499.2 47.044 Q1497.93 33.1896 1497.97 32.7797 Q1497.97 31.9599 1498.59 31.3451 Q1499.2 30.6893 1500.23 30.6893 Q1501.05 30.6893 1501.7 31.3041 Q1502.4 31.878 1502.4 32.7797 L1501.17 47.044 L1510.47 40.1578 Q1512.65 38.5592 1513.43 38.6002 Q1514.37 38.6002 1515.02 39.338 Q1515.68 40.0758 1515.68 40.9366 Q1515.68 42.3712 1513.75 43.273 L1502.07 48.8065 L1513.92 54.3811 Q1515.68 55.2009 1515.68 56.6355 Q1515.68 57.4553 1514.98 58.2341 Q1514.33 58.9719 1513.43 58.9719 Q1512.93 58.9719 1512.07 58.48 Q1511.91 58.398 1510.15 57.0864 Q1508.38 55.7747 1505.64 53.7662 Q1502.93 51.7578 1501.17 50.4871 Q1502.44 64.3415 1502.4 64.7514 Q1502.4 65.5712 1501.79 66.227 Q1501.17 66.8828 1500.15 66.8828 Q1499.33 66.8828 1498.63 66.309 Q1497.97 65.6941 1497.97 64.7514 L1499.2 50.4871 L1487.48 58.9719 Q1486.21 58.9719 1485.51 58.357 Q1484.86 57.7012 1484.77 57.3323 Q1484.69 56.9634 1484.69 56.6355 Z" fill="#000000" fill-rule="nonzero" fill-opacity="1" /><path clip-path="url(#clip570)" d="M1606.65 16.2354 Q1606.65 17.0142 1606.49 17.6701 L1604.19 32.2622 Q1604.07 33.369 1603.82 33.7788 Q1603.62 34.1887 1602.96 34.1887 Q1601.94 34.1887 1601.94 33.123 Q1601.94 32.5082 1602.18 31.5244 Q1602.88 26.8926 1602.88 24.8022 Q1602.88 23.4086 1602.59 22.3838 Q1602.35 21.3181 1601.94 20.5803 Q1601.57 19.8425 1600.71 19.3506 Q1599.85 18.8588 1599.03 18.5718 Q1598.21 18.2849 1596.73 18.1619 Q1595.26 17.998 1593.99 17.957 Q1592.72 17.916 1590.62 17.916 Q1586.07 17.916 1585.34 18.08 Q1584.56 18.2849 1584.15 18.8997 Q1583.78 19.4736 1583.37 21.1951 L1572.22 65.7505 L1571.89 67.513 Q1571.89 68.4968 1572.51 68.8247 Q1573.12 69.1526 1575.01 69.3575 Q1577.71 69.5625 1580.38 69.5625 Q1580.46 69.5625 1580.62 69.5625 Q1581.53 69.5625 1581.89 69.6035 Q1582.26 69.6035 1582.63 69.6855 Q1583 69.7674 1583.08 69.9724 Q1583.21 70.1363 1583.21 70.4643 Q1583.21 71.243 1582.88 71.6529 Q1582.55 72.0218 1582.22 72.1038 Q1581.94 72.1448 1581.36 72.1448 Q1580.21 72.1448 1577.75 72.0628 Q1575.29 71.9809 1574.07 71.9809 L1567.1 71.8989 L1559.96 71.9809 Q1558.86 71.9809 1556.52 72.0628 Q1554.19 72.1448 1553.08 72.1448 Q1551.64 72.1448 1551.64 71.1201 Q1551.64 69.9724 1552.18 69.7674 Q1552.75 69.5625 1555.17 69.5625 Q1558.57 69.5625 1560.42 69.3985 Q1562.26 69.2346 1563.24 68.6607 Q1564.27 68.0869 1564.56 67.513 Q1564.84 66.8982 1565.17 65.5045 L1576.44 20.7033 Q1576.77 19.7195 1576.77 18.9407 Q1576.77 18.5308 1576.65 18.3669 Q1576.57 18.2029 1576.03 18.08 Q1575.5 17.916 1574.39 17.916 L1571.11 17.916 Q1567.75 17.916 1565.66 18.08 Q1563.61 18.2029 1561.65 18.8178 Q1559.72 19.4326 1558.57 20.2934 Q1557.46 21.1542 1556.23 22.9167 Q1555.01 24.6792 1554.1 26.8107 Q1553.24 28.9421 1552.01 32.4262 Q1551.6 33.5739 1551.36 33.9018 Q1551.15 34.1887 1550.58 34.1887 Q1550.17 34.1887 1549.84 33.9428 Q1549.55 33.6559 1549.55 33.287 Q1549.96 31.9343 1550.05 31.7704 L1555.09 16.9732 Q1555.5 15.7846 1555.87 15.5796 Q1556.28 15.3337 1557.79 15.3337 L1604.36 15.3337 Q1605.09 15.3337 1605.34 15.3337 Q1605.59 15.3337 1606 15.4157 Q1606.41 15.4976 1606.53 15.7026 Q1606.65 15.9075 1606.65 16.2354 Z" fill="#000000" fill-rule="nonzero" fill-opacity="1" /><polyline clip-path="url(#clip572)" style="stroke:#009af9; stroke-linecap:round; stroke-linejoin:round; stroke-width:8; stroke-opacity:1; fill:none" points="313.341,999.631 335.341,1000.88 357.341,1000.91 379.341,1000.92 401.341,1000.92 423.341,1000.92 445.342,1000.92 467.342,1000.91 489.342,1000.91 511.342,1000.9 533.342,1000.89 555.342,1000.86 577.343,1000.83 599.343,1000.78 621.343,1000.71 643.343,1000.62 665.343,1000.49 687.343,1000.33 709.344,1000.12 731.344,999.867 753.344,999.552 775.344,999.17 797.344,998.714 819.344,998.176 841.345,997.548 863.345,996.821 885.345,995.987 907.345,995.04 929.345,993.97 951.345,992.77 973.346,991.434 995.346,989.955 1017.35,988.325 1039.35,986.538 1061.35,984.589 1083.35,982.472 1105.35,980.181 1127.35,977.712 1149.35,975.059 1171.35,972.219 1193.35,969.187 1215.35,965.961 1237.35,962.536 1259.35,958.909 1281.35,955.078 1303.35,951.041 1325.35,946.796 1347.35,942.339 1369.35,937.671 1391.35,932.79 1413.35,927.694 1435.35,922.383 1457.35,916.856 1479.35,911.113 1501.35,905.153 1523.35,898.977 1545.35,892.585 1567.35,885.977 1589.35,879.154 1611.35,872.116 1633.35,864.864 1655.35,857.398 1677.35,849.721 1699.35,841.834 1721.35,833.736 1743.35,825.431 1765.35,816.919 1787.35,808.201 1809.35,799.281 1831.35,790.158 1853.35,780.836 1875.35,771.315 1897.35,761.598 1919.35,751.686 1941.35,741.582 1963.35,731.288 1985.35,720.805 2007.35,710.136 2029.35,699.283 2051.35,688.247 2073.35,677.032 2095.35,665.639 2117.35,654.07 2139.35,642.328 2161.35,630.414 2183.35,618.331 2205.35,606.082 2227.35,593.667 2249.36,581.09 2271.36,568.353 2293.36,555.457 "/>
<polyline clip-path="url(#clip572)" style="stroke:#e26f46; stroke-linecap:round; stroke-linejoin:round; stroke-width:8; stroke-opacity:1; fill:none" points="313.341,1182.75 335.341,1182.71 357.341,1182.68 379.341,1182.56 401.341,1182.4 423.341,1182.17 445.342,1181.86 467.342,1181.46 489.342,1180.96 511.342,1180.34 533.342,1179.62 555.342,1178.78 577.343,1177.81 599.343,1176.73 621.343,1175.51 643.343,1174.18 665.343,1172.72 687.343,1171.13 709.344,1169.41 731.344,1167.57 753.344,1165.6 775.344,1163.5 797.344,1161.27 819.344,1158.91 841.345,1156.41 863.345,1153.78 885.345,1151.01 907.345,1148.1 929.345,1145.05 951.345,1141.86 973.346,1138.51 995.346,1135.02 1017.35,1131.37 1039.35,1127.56 1061.35,1123.6 1083.35,1119.48 1105.35,1115.19 1127.35,1110.73 1149.35,1106.11 1171.35,1101.31 1193.35,1096.34 1215.35,1091.2 1237.35,1085.88 1259.35,1080.38 1281.35,1074.7 1303.35,1068.83 1325.35,1062.79 1347.35,1056.56 1369.35,1050.14 1391.35,1043.53 1413.35,1036.74 1435.35,1029.76 1457.35,1022.59 1479.35,1015.24 1501.35,1007.69 1523.35,999.957 1545.35,992.034 1567.35,983.922 1589.35,975.622 1611.35,967.134 1633.35,958.459 1655.35,949.598 1677.35,940.551 1699.35,931.319 1721.35,921.903 1743.35,912.304 1765.35,902.523 1787.35,892.562 1809.35,882.421 1831.35,872.103 1853.35,861.607 1875.35,850.936 1897.35,840.092 1919.35,829.075 1941.35,817.887 1963.35,806.53 1985.35,795.006 2007.35,783.316 2029.35,771.462 2051.35,759.445 2073.35,747.267 2095.35,734.931 2117.35,722.437 2139.35,709.788 2161.35,696.985 2183.35,684.031 2205.35,670.926 2227.35,657.674 2249.36,644.275 2271.36,630.731 2293.36,617.045 "/>
<polyline clip-path="url(#clip572)" style="stroke:#3da44d; stroke-linecap:round; stroke-linejoin:round; stroke-width:8; stroke-opacity:1; fill:none" points="313.341,1365.54 335.341,1364.43 357.341,1364.31 379.341,1364.03 401.341,1363.62 423.341,1363.06 445.342,1362.32 467.342,1361.39 489.342,1360.25 511.342,1358.89 533.342,1357.31 555.342,1355.51 577.343,1353.47 599.343,1351.22 621.343,1348.74 643.343,1346.05 665.343,1343.14 687.343,1340.04 709.344,1336.73 731.344,1333.23 753.344,1329.54 775.344,1325.68 797.344,1321.63 819.344,1317.42 841.345,1313.04 863.345,1308.49 885.345,1303.78 907.345,1298.92 929.345,1293.9 951.345,1288.72 973.346,1283.39 995.346,1277.91 1017.35,1272.27 1039.35,1266.49 1061.35,1260.55 1083.35,1254.46 1105.35,1248.22 1127.35,1241.82 1149.35,1235.27 1171.35,1228.57 1193.35,1221.72 1215.35,1214.7 1237.35,1207.54 1259.35,1200.21 1281.35,1192.73 1303.35,1185.09 1325.35,1177.29 1347.35,1169.33 1369.35,1161.21 1391.35,1152.93 1413.35,1144.49 1435.35,1135.88 1457.35,1127.12 1479.35,1118.19 1501.35,1109.1 1523.35,1099.85 1545.35,1090.43 1567.35,1080.85 1589.35,1071.11 1611.35,1061.21 1633.35,1051.15 1655.35,1040.92 1677.35,1030.54 1699.35,1019.99 1721.35,1009.29 1743.35,998.424 1765.35,987.402 1787.35,976.224 1809.35,964.889 1831.35,953.398 1853.35,941.754 1875.35,929.956 1897.35,918.006 1919.35,905.905 1941.35,893.654 1963.35,881.254 1985.35,868.707 2007.35,856.014 2029.35,843.175 2051.35,830.194 2073.35,817.07 2095.35,803.806 2117.35,790.402 2139.35,776.86 2161.35,763.182 2183.35,749.369 2205.35,735.422 2227.35,721.343 2249.36,707.134 2271.36,692.795 2293.36,678.329 "/>
<polyline clip-path="url(#clip572)" style="stroke:#c271d2; stroke-linecap:round; stroke-linejoin:round; stroke-width:8; stroke-opacity:1; fill:none" points="313.341,818.866 335.341,819.125 357.341,819.192 379.341,819.328 401.341,819.514 423.341,819.778 445.342,820.128 467.342,820.574 489.342,821.121 511.342,821.775 533.342,822.536 555.342,823.401 577.343,824.368 599.343,825.429 621.343,826.575 643.343,827.797 665.343,829.083 687.343,830.42 709.344,831.795 731.344,833.193 753.344,834.599 775.344,835.999 797.344,837.378 819.344,838.721 841.345,840.012 863.345,841.239 885.345,842.386 907.345,843.441 929.345,844.39 951.345,845.222 973.346,845.925 995.346,846.487 1017.35,846.898 1039.35,847.149 1061.35,847.229 1083.35,847.132 1105.35,846.848 1127.35,846.37 1149.35,845.693 1171.35,844.809 1193.35,843.713 1215.35,842.399 1237.35,840.865 1259.35,839.105 1281.35,837.115 1303.35,834.893 1325.35,832.436 1347.35,829.741 1369.35,826.807 1391.35,823.632 1413.35,820.214 1435.35,816.553 1457.35,812.648 1479.35,808.499 1501.35,804.104 1523.35,799.466 1545.35,794.583 1567.35,789.456 1589.35,784.087 1611.35,778.476 1633.35,772.624 1655.35,766.532 1677.35,760.202 1699.35,753.635 1721.35,746.833 1743.35,739.798 1765.35,732.531 1787.35,725.035 1809.35,717.312 1831.35,709.363 1853.35,701.191 1875.35,692.798 1897.35,684.186 1919.35,675.358 1941.35,666.317 1963.35,657.064 1985.35,647.602 2007.35,637.933 2029.35,628.061 2051.35,617.987 2073.35,607.714 2095.35,597.245 2117.35,586.583 2139.35,575.729 2161.35,564.686 2183.35,553.457 2205.35,542.045 2227.35,530.452 2249.36,518.68 2271.36,506.732 2293.36,494.611 "/>
<polyline clip-path="url(#clip572)" style="stroke:#ac8d18; stroke-linecap:round; stroke-linejoin:round; stroke-width:8; stroke-opacity:1; fill:none" points="313.341,284.758 335.341,289.066 357.341,293.166 379.341,297.621 401.341,302.41 423.341,307.493 445.342,312.85 467.342,318.461 489.342,324.31 511.342,330.379 533.342,336.654 555.342,343.116 577.343,349.75 599.343,356.534 621.343,363.451 643.343,370.479 665.343,377.597 687.343,384.783 709.344,392.014 731.344,399.266 753.344,406.519 775.344,413.749 797.344,420.934 819.344,428.053 841.345,435.086 863.345,442.011 885.345,448.811 907.345,455.467 929.345,461.962 951.345,468.281 973.346,474.408 995.346,480.329 1017.35,486.032 1039.35,491.505 1061.35,496.736 1083.35,501.717 1105.35,506.436 1127.35,510.888 1149.35,515.064 1171.35,518.957 1193.35,522.562 1215.35,525.874 1237.35,528.889 1259.35,531.602 1281.35,534.01 1303.35,536.111 1325.35,537.902 1347.35,539.382 1369.35,540.549 1391.35,541.404 1413.35,541.945 1435.35,542.172 1457.35,542.085 1479.35,541.686 1501.35,540.974 1523.35,539.952 1545.35,538.62 1567.35,536.981 1589.35,535.035 1611.35,532.785 1633.35,530.234 1655.35,527.382 1677.35,524.234 1699.35,520.791 1721.35,517.056 1743.35,513.032 1765.35,508.722 1787.35,504.129 1809.35,499.255 1831.35,494.105 1853.35,488.681 1875.35,482.986 1897.35,477.024 1919.35,470.798 1941.35,464.311 1963.35,457.567 1985.35,450.569 2007.35,443.321 2029.35,435.826 2051.35,428.086 2073.35,420.107 2095.35,411.89 2117.35,403.44 2139.35,394.759 2161.35,385.852 2183.35,376.721 2205.35,367.37 2227.35,357.802 2249.36,348.02 2271.36,338.027 2293.36,327.828 "/>
<polyline clip-path="url(#clip572)" style="stroke:#00a9ad; stroke-linecap:round; stroke-linejoin:round; stroke-width:8; stroke-opacity:1; fill:none" points="313.341,692.844 335.341,680.728 357.341,668.345 379.341,656.19 401.341,644.275 423.341,632.641 445.342,621.339 467.342,610.41 489.342,599.891 511.342,589.813 533.342,580.195 555.342,571.053 577.343,562.394 599.343,554.218 621.343,546.52 643.343,539.291 665.343,532.518 687.343,526.184 709.344,520.269 731.344,514.752 753.344,509.611 775.344,504.821 797.344,500.359 819.344,496.2 841.345,492.319 863.345,488.692 885.345,485.294 907.345,482.104 929.345,479.097 951.345,476.252 973.346,473.548 995.346,470.965 1017.35,468.482 1039.35,466.081 1061.35,463.746 1083.35,461.457 1105.35,459.201 1127.35,456.96 1149.35,454.722 1171.35,452.471 1193.35,450.196 1215.35,447.884 1237.35,445.523 1259.35,443.103 1281.35,440.613 1303.35,438.043 1325.35,435.386 1347.35,432.631 1369.35,429.772 1391.35,426.8 1413.35,423.709 1435.35,420.493 1457.35,417.144 1479.35,413.659 1501.35,410.031 1523.35,406.255 1545.35,402.328 1567.35,398.245 1589.35,394.002 1611.35,389.596 1633.35,385.024 1655.35,380.283 1677.35,375.37 1699.35,370.284 1721.35,365.021 1743.35,359.581 1765.35,353.961 1787.35,348.161 1809.35,342.179 1831.35,336.015 1853.35,329.667 1875.35,323.134 1897.35,316.418 1919.35,309.516 1941.35,302.43 1963.35,295.159 1985.35,287.703 2007.35,280.062 2029.35,272.238 2051.35,264.23 2073.35,256.039 2095.35,247.666 2117.35,239.112 2139.35,230.377 2161.35,221.462 2183.35,212.369 2205.35,203.099 2227.35,193.652 2249.36,184.03 2271.36,174.235 2293.36,164.267 "/>
<path clip-path="url(#clip570)" d="M1784.17 1359.13 L2282.8 1359.13 L2282.8 860.175 L1784.17 860.175  Z" fill="#ffffff" fill-rule="evenodd" fill-opacity="1"/>
<polyline clip-path="url(#clip570)" style="stroke:#000000; stroke-linecap:round; stroke-linejoin:round; stroke-width:4; stroke-opacity:1; fill:none" points="1784.17,1359.13 2282.8,1359.13 2282.8,860.175 1784.17,860.175 1784.17,1359.13 "/>
<polyline clip-path="url(#clip570)" style="stroke:#009af9; stroke-linecap:round; stroke-linejoin:round; stroke-width:11; stroke-opacity:1; fill:none" points="1807.49,931.455 1947.41,931.455 "/>
<path clip-path="url(#clip570)" d="M1997.33 926.375 Q1997.33 927.051 1996.75 927.599 Q1996.2 928.146 1995.53 928.146 Q1995.14 928.146 1994.2 927.502 Q1991.53 925.634 1988.15 925.634 Q1985.12 925.634 1982.32 926.375 Q1979.52 927.116 1977.62 928.629 Q1975.75 930.111 1975.75 932.043 Q1975.75 934.459 1978.39 935.876 Q1981.13 934.62 1984.51 934.62 Q1985.61 934.62 1986.35 934.684 Q1987.12 934.748 1987.86 934.909 Q1988.6 935.07 1988.96 935.457 Q1989.34 935.811 1989.34 936.391 Q1989.34 938.452 1984 938.452 Q1980.52 938.452 1978.33 937.518 Q1975.53 938.903 1973.98 941.125 Q1972.43 943.347 1972.43 945.248 Q1972.43 946.89 1973.34 948.082 Q1974.27 949.273 1975.78 949.853 Q1977.33 950.433 1978.84 950.69 Q1980.39 950.916 1982.1 950.916 Q1984.9 950.916 1986.86 950.562 Q1988.86 950.175 1989.95 949.467 Q1991.08 948.758 1991.53 948.275 Q1992.01 947.76 1992.5 946.954 Q1992.79 946.504 1993.17 946.504 Q1993.46 946.504 1993.66 946.697 Q1993.88 946.858 1993.88 947.148 Q1993.88 947.502 1993.43 948.243 Q1993.01 948.983 1991.98 949.982 Q1990.98 950.948 1989.6 951.85 Q1988.25 952.719 1986.09 953.331 Q1983.93 953.943 1981.48 953.943 Q1976.49 953.943 1973.59 951.495 Q1970.73 949.048 1970.73 945.634 Q1970.73 943.251 1972.3 940.803 Q1973.91 938.323 1976.75 936.745 Q1974.11 934.781 1974.11 932.043 Q1974.11 929.595 1976.17 927.405 Q1978.26 925.215 1981.64 923.927 Q1985.06 922.607 1988.79 922.607 Q1990.89 922.607 1992.95 923.315 Q1995.01 923.992 1996.17 924.861 Q1997.33 925.731 1997.33 926.375 M1987.63 936.455 Q1986.22 936.069 1984.51 936.069 Q1982.19 936.069 1980.48 936.649 Q1981.87 937.003 1984 937.003 Q1985.77 937.003 1986.28 936.906 Q1986.83 936.81 1987.63 936.455 Z" fill="#000000" fill-rule="nonzero" fill-opacity="1" /><path clip-path="url(#clip570)" d="M2019.46 942.478 Q2019.52 941.673 2020.78 941.673 L2061.2 941.673 Q2063.1 941.673 2063.13 942.413 Q2063.13 943.219 2061.33 943.186 L2021.23 943.186 Q2019.46 943.219 2019.46 942.478 M2019.46 929.595 Q2019.46 928.79 2020.85 928.823 L2061.13 928.823 Q2063.1 928.823 2063.13 929.595 Q2063.13 930.336 2061.46 930.336 L2020.78 930.336 Q2019.46 930.336 2019.46 929.595 Z" fill="#000000" fill-rule="nonzero" fill-opacity="1" /><path clip-path="url(#clip570)" d="M2088.58 931.399 Q2088.58 921.705 2091.02 916.423 Q2094.44 908.565 2102.49 908.565 Q2104.2 908.565 2105.97 909.048 Q2107.77 909.499 2110.03 911.27 Q2112.31 913.042 2113.7 915.94 Q2116.34 921.544 2116.34 931.399 Q2116.34 941.029 2113.89 946.278 Q2110.32 953.943 2102.43 953.943 Q2099.46 953.943 2096.44 952.429 Q2093.44 950.916 2091.54 947.277 Q2088.58 941.834 2088.58 931.399 M2094.05 930.594 Q2094.05 940.545 2094.76 944.507 Q2095.57 948.79 2097.76 950.658 Q2099.98 952.494 2102.43 952.494 Q2105.07 952.494 2107.26 950.529 Q2109.48 948.533 2110.16 944.249 Q2110.9 940.03 2110.86 930.594 Q2110.86 921.415 2110.22 917.744 Q2109.35 913.46 2107.03 911.753 Q2104.74 910.014 2102.43 910.014 Q2101.56 910.014 2100.62 910.272 Q2099.72 910.53 2098.4 911.27 Q2097.08 912.011 2096.05 913.847 Q2095.05 915.683 2094.57 918.452 Q2094.05 922.027 2094.05 930.594 Z" fill="#000000" fill-rule="nonzero" fill-opacity="1" /><path clip-path="url(#clip570)" d="M2122.24 951.431 Q2121.24 950.368 2121.24 948.983 Q2121.24 947.599 2122.24 946.6 Q2123.24 945.57 2124.75 945.57 Q2126.2 945.57 2127.17 946.536 Q2128.17 947.47 2128.17 949.016 Q2128.17 950.529 2127.1 951.528 Q2126.07 952.494 2124.75 952.494 Q2123.24 952.494 2122.24 951.431 Z" fill="#000000" fill-rule="nonzero" fill-opacity="1" /><path clip-path="url(#clip570)" d="M2139.39 931.399 Q2139.39 921.705 2141.84 916.423 Q2145.25 908.565 2153.3 908.565 Q2155.01 908.565 2156.78 909.048 Q2158.59 909.499 2160.84 911.27 Q2163.13 913.042 2164.51 915.94 Q2167.15 921.544 2167.15 931.399 Q2167.15 941.029 2164.71 946.278 Q2161.13 953.943 2153.24 953.943 Q2150.28 953.943 2147.25 952.429 Q2144.25 950.916 2142.35 947.277 Q2139.39 941.834 2139.39 931.399 M2144.87 930.594 Q2144.87 940.545 2145.58 944.507 Q2146.38 948.79 2148.57 950.658 Q2150.79 952.494 2153.24 952.494 Q2155.88 952.494 2158.07 950.529 Q2160.29 948.533 2160.97 944.249 Q2161.71 940.03 2161.68 930.594 Q2161.68 921.415 2161.03 917.744 Q2160.16 913.46 2157.85 911.753 Q2155.56 910.014 2153.24 910.014 Q2152.37 910.014 2151.44 910.272 Q2150.53 910.53 2149.21 911.27 Q2147.89 912.011 2146.86 913.847 Q2145.86 915.683 2145.38 918.452 Q2144.87 922.027 2144.87 930.594 Z" fill="#000000" fill-rule="nonzero" fill-opacity="1" /><polyline clip-path="url(#clip570)" style="stroke:#e26f46; stroke-linecap:round; stroke-linejoin:round; stroke-width:11; stroke-opacity:1; fill:none" points="1807.49,1002.73 1947.41,1002.73 "/>
<path clip-path="url(#clip570)" d="M1997.33 997.655 Q1997.33 998.331 1996.75 998.879 Q1996.2 999.426 1995.53 999.426 Q1995.14 999.426 1994.2 998.782 Q1991.53 996.914 1988.15 996.914 Q1985.12 996.914 1982.32 997.655 Q1979.52 998.396 1977.62 999.909 Q1975.75 1001.39 1975.75 1003.32 Q1975.75 1005.74 1978.39 1007.16 Q1981.13 1005.9 1984.51 1005.9 Q1985.61 1005.9 1986.35 1005.96 Q1987.12 1006.03 1987.86 1006.19 Q1988.6 1006.35 1988.96 1006.74 Q1989.34 1007.09 1989.34 1007.67 Q1989.34 1009.73 1984 1009.73 Q1980.52 1009.73 1978.33 1008.8 Q1975.53 1010.18 1973.98 1012.41 Q1972.43 1014.63 1972.43 1016.53 Q1972.43 1018.17 1973.34 1019.36 Q1974.27 1020.55 1975.78 1021.13 Q1977.33 1021.71 1978.84 1021.97 Q1980.39 1022.2 1982.1 1022.2 Q1984.9 1022.2 1986.86 1021.84 Q1988.86 1021.46 1989.95 1020.75 Q1991.08 1020.04 1991.53 1019.55 Q1992.01 1019.04 1992.5 1018.23 Q1992.79 1017.78 1993.17 1017.78 Q1993.46 1017.78 1993.66 1017.98 Q1993.88 1018.14 1993.88 1018.43 Q1993.88 1018.78 1993.43 1019.52 Q1993.01 1020.26 1991.98 1021.26 Q1990.98 1022.23 1989.6 1023.13 Q1988.25 1024 1986.09 1024.61 Q1983.93 1025.22 1981.48 1025.22 Q1976.49 1025.22 1973.59 1022.78 Q1970.73 1020.33 1970.73 1016.91 Q1970.73 1014.53 1972.3 1012.08 Q1973.91 1009.6 1976.75 1008.03 Q1974.11 1006.06 1974.11 1003.32 Q1974.11 1000.88 1976.17 998.685 Q1978.26 996.495 1981.64 995.207 Q1985.06 993.887 1988.79 993.887 Q1990.89 993.887 1992.95 994.595 Q1995.01 995.272 1996.17 996.141 Q1997.33 997.011 1997.33 997.655 M1987.63 1007.74 Q1986.22 1007.35 1984.51 1007.35 Q1982.19 1007.35 1980.48 1007.93 Q1981.87 1008.28 1984 1008.28 Q1985.77 1008.28 1986.28 1008.19 Q1986.83 1008.09 1987.63 1007.74 Z" fill="#000000" fill-rule="nonzero" fill-opacity="1" /><path clip-path="url(#clip570)" d="M2019.46 1013.76 Q2019.52 1012.95 2020.78 1012.95 L2061.2 1012.95 Q2063.1 1012.95 2063.13 1013.69 Q2063.13 1014.5 2061.33 1014.47 L2021.23 1014.47 Q2019.46 1014.5 2019.46 1013.76 M2019.46 1000.88 Q2019.46 1000.07 2020.85 1000.1 L2061.13 1000.1 Q2063.1 1000.1 2063.13 1000.88 Q2063.13 1001.62 2061.46 1001.62 L2020.78 1001.62 Q2019.46 1001.62 2019.46 1000.88 Z" fill="#000000" fill-rule="nonzero" fill-opacity="1" /><path clip-path="url(#clip570)" d="M2088.58 1002.68 Q2088.58 992.985 2091.02 987.703 Q2094.44 979.845 2102.49 979.845 Q2104.2 979.845 2105.97 980.328 Q2107.77 980.779 2110.03 982.55 Q2112.31 984.322 2113.7 987.22 Q2116.34 992.824 2116.34 1002.68 Q2116.34 1012.31 2113.89 1017.56 Q2110.32 1025.22 2102.43 1025.22 Q2099.46 1025.22 2096.44 1023.71 Q2093.44 1022.2 2091.54 1018.56 Q2088.58 1013.11 2088.58 1002.68 M2094.05 1001.87 Q2094.05 1011.83 2094.76 1015.79 Q2095.57 1020.07 2097.76 1021.94 Q2099.98 1023.77 2102.43 1023.77 Q2105.07 1023.77 2107.26 1021.81 Q2109.48 1019.81 2110.16 1015.53 Q2110.9 1011.31 2110.86 1001.87 Q2110.86 992.695 2110.22 989.024 Q2109.35 984.74 2107.03 983.033 Q2104.74 981.294 2102.43 981.294 Q2101.56 981.294 2100.62 981.552 Q2099.72 981.81 2098.4 982.55 Q2097.08 983.291 2096.05 985.127 Q2095.05 986.963 2094.57 989.732 Q2094.05 993.307 2094.05 1001.87 Z" fill="#000000" fill-rule="nonzero" fill-opacity="1" /><path clip-path="url(#clip570)" d="M2122.24 1022.71 Q2121.24 1021.65 2121.24 1020.26 Q2121.24 1018.88 2122.24 1017.88 Q2123.24 1016.85 2124.75 1016.85 Q2126.2 1016.85 2127.17 1017.82 Q2128.17 1018.75 2128.17 1020.3 Q2128.17 1021.81 2127.1 1022.81 Q2126.07 1023.77 2124.75 1023.77 Q2123.24 1023.77 2122.24 1022.71 Z" fill="#000000" fill-rule="nonzero" fill-opacity="1" /><path clip-path="url(#clip570)" d="M2132.64 986.125 L2132.64 984.064 Q2140.56 984.064 2144.65 979.845 Q2145.78 979.845 2145.97 980.103 Q2146.17 980.36 2146.17 981.552 L2146.17 1018.56 Q2146.17 1020.52 2147.13 1021.13 Q2148.1 1021.74 2152.32 1021.74 L2154.41 1021.74 L2154.41 1023.77 Q2152.09 1023.58 2143.72 1023.58 Q2135.35 1023.58 2133.06 1023.77 L2133.06 1021.74 L2135.15 1021.74 Q2139.31 1021.74 2140.31 1021.17 Q2141.3 1020.55 2141.3 1018.56 L2141.3 984.386 Q2137.86 986.125 2132.64 986.125 Z" fill="#000000" fill-rule="nonzero" fill-opacity="1" /><polyline clip-path="url(#clip570)" style="stroke:#3da44d; stroke-linecap:round; stroke-linejoin:round; stroke-width:11; stroke-opacity:1; fill:none" points="1807.49,1074.01 1947.41,1074.01 "/>
<path clip-path="url(#clip570)" d="M1997.33 1068.93 Q1997.33 1069.61 1996.75 1070.16 Q1996.2 1070.71 1995.53 1070.71 Q1995.14 1070.71 1994.2 1070.06 Q1991.53 1068.19 1988.15 1068.19 Q1985.12 1068.19 1982.32 1068.93 Q1979.52 1069.68 1977.62 1071.19 Q1975.75 1072.67 1975.75 1074.6 Q1975.75 1077.02 1978.39 1078.44 Q1981.13 1077.18 1984.51 1077.18 Q1985.61 1077.18 1986.35 1077.24 Q1987.12 1077.31 1987.86 1077.47 Q1988.6 1077.63 1988.96 1078.02 Q1989.34 1078.37 1989.34 1078.95 Q1989.34 1081.01 1984 1081.01 Q1980.52 1081.01 1978.33 1080.08 Q1975.53 1081.46 1973.98 1083.69 Q1972.43 1085.91 1972.43 1087.81 Q1972.43 1089.45 1973.34 1090.64 Q1974.27 1091.83 1975.78 1092.41 Q1977.33 1092.99 1978.84 1093.25 Q1980.39 1093.48 1982.1 1093.48 Q1984.9 1093.48 1986.86 1093.12 Q1988.86 1092.74 1989.95 1092.03 Q1991.08 1091.32 1991.53 1090.83 Q1992.01 1090.32 1992.5 1089.51 Q1992.79 1089.06 1993.17 1089.06 Q1993.46 1089.06 1993.66 1089.26 Q1993.88 1089.42 1993.88 1089.71 Q1993.88 1090.06 1993.43 1090.8 Q1993.01 1091.54 1991.98 1092.54 Q1990.98 1093.51 1989.6 1094.41 Q1988.25 1095.28 1986.09 1095.89 Q1983.93 1096.5 1981.48 1096.5 Q1976.49 1096.5 1973.59 1094.06 Q1970.73 1091.61 1970.73 1088.19 Q1970.73 1085.81 1972.3 1083.36 Q1973.91 1080.88 1976.75 1079.31 Q1974.11 1077.34 1974.11 1074.6 Q1974.11 1072.16 1976.17 1069.97 Q1978.26 1067.78 1981.64 1066.49 Q1985.06 1065.17 1988.79 1065.17 Q1990.89 1065.17 1992.95 1065.88 Q1995.01 1066.55 1996.17 1067.42 Q1997.33 1068.29 1997.33 1068.93 M1987.63 1079.02 Q1986.22 1078.63 1984.51 1078.63 Q1982.19 1078.63 1980.48 1079.21 Q1981.87 1079.56 1984 1079.56 Q1985.77 1079.56 1986.28 1079.47 Q1986.83 1079.37 1987.63 1079.02 Z" fill="#000000" fill-rule="nonzero" fill-opacity="1" /><path clip-path="url(#clip570)" d="M2019.46 1085.04 Q2019.52 1084.23 2020.78 1084.23 L2061.2 1084.23 Q2063.1 1084.23 2063.13 1084.97 Q2063.13 1085.78 2061.33 1085.75 L2021.23 1085.75 Q2019.46 1085.78 2019.46 1085.04 M2019.46 1072.16 Q2019.46 1071.35 2020.85 1071.38 L2061.13 1071.38 Q2063.1 1071.38 2063.13 1072.16 Q2063.13 1072.9 2061.46 1072.9 L2020.78 1072.9 Q2019.46 1072.9 2019.46 1072.16 Z" fill="#000000" fill-rule="nonzero" fill-opacity="1" /><path clip-path="url(#clip570)" d="M2088.58 1073.96 Q2088.58 1064.27 2091.02 1058.98 Q2094.44 1051.13 2102.49 1051.13 Q2104.2 1051.13 2105.97 1051.61 Q2107.77 1052.06 2110.03 1053.83 Q2112.31 1055.6 2113.7 1058.5 Q2116.34 1064.1 2116.34 1073.96 Q2116.34 1083.59 2113.89 1088.84 Q2110.32 1096.5 2102.43 1096.5 Q2099.46 1096.5 2096.44 1094.99 Q2093.44 1093.48 2091.54 1089.84 Q2088.58 1084.39 2088.58 1073.96 M2094.05 1073.15 Q2094.05 1083.11 2094.76 1087.07 Q2095.57 1091.35 2097.76 1093.22 Q2099.98 1095.05 2102.43 1095.05 Q2105.07 1095.05 2107.26 1093.09 Q2109.48 1091.09 2110.16 1086.81 Q2110.9 1082.59 2110.86 1073.15 Q2110.86 1063.98 2110.22 1060.3 Q2109.35 1056.02 2107.03 1054.31 Q2104.74 1052.57 2102.43 1052.57 Q2101.56 1052.57 2100.62 1052.83 Q2099.72 1053.09 2098.4 1053.83 Q2097.08 1054.57 2096.05 1056.41 Q2095.05 1058.24 2094.57 1061.01 Q2094.05 1064.59 2094.05 1073.15 Z" fill="#000000" fill-rule="nonzero" fill-opacity="1" /><path clip-path="url(#clip570)" d="M2122.24 1093.99 Q2121.24 1092.93 2121.24 1091.54 Q2121.24 1090.16 2122.24 1089.16 Q2123.24 1088.13 2124.75 1088.13 Q2126.2 1088.13 2127.17 1089.1 Q2128.17 1090.03 2128.17 1091.58 Q2128.17 1093.09 2127.1 1094.09 Q2126.07 1095.05 2124.75 1095.05 Q2123.24 1095.05 2122.24 1093.99 Z" fill="#000000" fill-rule="nonzero" fill-opacity="1" /><path clip-path="url(#clip570)" d="M2139.39 1095.05 Q2139.39 1093.86 2139.49 1093.51 Q2139.62 1093.15 2140.13 1092.61 L2152.79 1078.5 Q2159.71 1070.71 2159.71 1063.91 Q2159.71 1059.5 2157.39 1056.34 Q2155.11 1053.19 2150.89 1053.19 Q2147.99 1053.19 2145.54 1054.96 Q2143.1 1056.73 2141.97 1059.89 Q2142.16 1059.82 2142.84 1059.82 Q2144.48 1059.82 2145.38 1060.85 Q2146.32 1061.88 2146.32 1063.27 Q2146.32 1065.04 2145.16 1065.91 Q2144.03 1066.74 2142.9 1066.74 Q2142.45 1066.74 2141.84 1066.65 Q2141.26 1066.55 2140.33 1065.65 Q2139.39 1064.72 2139.39 1063.07 Q2139.39 1058.47 2142.87 1054.8 Q2146.38 1051.13 2151.73 1051.13 Q2157.78 1051.13 2161.74 1054.73 Q2165.74 1058.31 2165.74 1063.91 Q2165.74 1065.88 2165.12 1067.68 Q2164.54 1069.45 2163.74 1070.84 Q2162.97 1072.22 2160.84 1074.44 Q2158.72 1076.66 2157.01 1078.24 Q2155.3 1079.82 2151.47 1083.17 L2144.48 1089.97 L2156.36 1089.97 Q2162.16 1089.97 2162.61 1089.45 Q2163.26 1088.52 2164.06 1083.59 L2165.74 1083.59 L2163.87 1095.05 L2139.39 1095.05 Z" fill="#000000" fill-rule="nonzero" fill-opacity="1" /><polyline clip-path="url(#clip570)" style="stroke:#c271d2; stroke-linecap:round; stroke-linejoin:round; stroke-width:11; stroke-opacity:1; fill:none" points="1807.49,1145.29 1947.41,1145.29 "/>
<path clip-path="url(#clip570)" d="M1997.33 1140.21 Q1997.33 1140.89 1996.75 1141.44 Q1996.2 1141.99 1995.53 1141.99 Q1995.14 1141.99 1994.2 1141.34 Q1991.53 1139.47 1988.15 1139.47 Q1985.12 1139.47 1982.32 1140.21 Q1979.52 1140.96 1977.62 1142.47 Q1975.75 1143.95 1975.75 1145.88 Q1975.75 1148.3 1978.39 1149.72 Q1981.13 1148.46 1984.51 1148.46 Q1985.61 1148.46 1986.35 1148.52 Q1987.12 1148.59 1987.86 1148.75 Q1988.6 1148.91 1988.96 1149.3 Q1989.34 1149.65 1989.34 1150.23 Q1989.34 1152.29 1984 1152.29 Q1980.52 1152.29 1978.33 1151.36 Q1975.53 1152.74 1973.98 1154.97 Q1972.43 1157.19 1972.43 1159.09 Q1972.43 1160.73 1973.34 1161.92 Q1974.27 1163.11 1975.78 1163.69 Q1977.33 1164.27 1978.84 1164.53 Q1980.39 1164.76 1982.1 1164.76 Q1984.9 1164.76 1986.86 1164.4 Q1988.86 1164.02 1989.95 1163.31 Q1991.08 1162.6 1991.53 1162.11 Q1992.01 1161.6 1992.5 1160.79 Q1992.79 1160.34 1993.17 1160.34 Q1993.46 1160.34 1993.66 1160.54 Q1993.88 1160.7 1993.88 1160.99 Q1993.88 1161.34 1993.43 1162.08 Q1993.01 1162.82 1991.98 1163.82 Q1990.98 1164.79 1989.6 1165.69 Q1988.25 1166.56 1986.09 1167.17 Q1983.93 1167.78 1981.48 1167.78 Q1976.49 1167.78 1973.59 1165.34 Q1970.73 1162.89 1970.73 1159.47 Q1970.73 1157.09 1972.3 1154.64 Q1973.91 1152.16 1976.75 1150.59 Q1974.11 1148.62 1974.11 1145.88 Q1974.11 1143.44 1976.17 1141.25 Q1978.26 1139.06 1981.64 1137.77 Q1985.06 1136.45 1988.79 1136.45 Q1990.89 1136.45 1992.95 1137.16 Q1995.01 1137.83 1996.17 1138.7 Q1997.33 1139.57 1997.33 1140.21 M1987.63 1150.3 Q1986.22 1149.91 1984.51 1149.91 Q1982.19 1149.91 1980.48 1150.49 Q1981.87 1150.84 1984 1150.84 Q1985.77 1150.84 1986.28 1150.75 Q1986.83 1150.65 1987.63 1150.3 Z" fill="#000000" fill-rule="nonzero" fill-opacity="1" /><path clip-path="url(#clip570)" d="M2019.46 1156.32 Q2019.52 1155.51 2020.78 1155.51 L2061.2 1155.51 Q2063.1 1155.51 2063.13 1156.25 Q2063.13 1157.06 2061.33 1157.03 L2021.23 1157.03 Q2019.46 1157.06 2019.46 1156.32 M2019.46 1143.44 Q2019.46 1142.63 2020.85 1142.66 L2061.13 1142.66 Q2063.1 1142.66 2063.13 1143.44 Q2063.13 1144.18 2061.46 1144.18 L2020.78 1144.18 Q2019.46 1144.18 2019.46 1143.44 Z" fill="#000000" fill-rule="nonzero" fill-opacity="1" /><path clip-path="url(#clip570)" d="M2150.42 1148.91 Q2150.81 1149.3 2150.81 1149.84 Q2150.81 1150.39 2150.42 1150.78 Q2150.04 1151.16 2149.49 1151.16 L2108.2 1151.16 Q2107.65 1151.16 2107.27 1150.78 Q2106.88 1150.39 2106.88 1149.84 Q2106.88 1149.3 2107.27 1148.91 Q2107.65 1148.52 2108.2 1148.52 L2149.49 1148.52 Q2150.04 1148.52 2150.42 1148.91 Z" fill="#000000" fill-rule="nonzero" fill-opacity="1" /><path clip-path="url(#clip570)" d="M2176 1145.24 Q2176 1135.55 2178.44 1130.26 Q2181.86 1122.41 2189.91 1122.41 Q2191.62 1122.41 2193.39 1122.89 Q2195.19 1123.34 2197.45 1125.11 Q2199.73 1126.88 2201.12 1129.78 Q2203.76 1135.38 2203.76 1145.24 Q2203.76 1154.87 2201.31 1160.12 Q2197.74 1167.78 2189.85 1167.78 Q2186.88 1167.78 2183.86 1166.27 Q2180.86 1164.76 2178.96 1161.12 Q2176 1155.67 2176 1145.24 M2181.47 1144.43 Q2181.47 1154.39 2182.18 1158.35 Q2182.99 1162.63 2185.18 1164.5 Q2187.4 1166.33 2189.85 1166.33 Q2192.49 1166.33 2194.68 1164.37 Q2196.9 1162.37 2197.57 1158.09 Q2198.32 1153.87 2198.28 1144.43 Q2198.28 1135.26 2197.64 1131.58 Q2196.77 1127.3 2194.45 1125.59 Q2192.16 1123.85 2189.85 1123.85 Q2188.98 1123.85 2188.04 1124.11 Q2187.14 1124.37 2185.82 1125.11 Q2184.5 1125.85 2183.47 1127.69 Q2182.47 1129.52 2181.99 1132.29 Q2181.47 1135.87 2181.47 1144.43 Z" fill="#000000" fill-rule="nonzero" fill-opacity="1" /><path clip-path="url(#clip570)" d="M2209.66 1165.27 Q2208.66 1164.21 2208.66 1162.82 Q2208.66 1161.44 2209.66 1160.44 Q2210.66 1159.41 2212.17 1159.41 Q2213.62 1159.41 2214.59 1160.38 Q2215.59 1161.31 2215.59 1162.86 Q2215.59 1164.37 2214.52 1165.37 Q2213.49 1166.33 2212.17 1166.33 Q2210.66 1166.33 2209.66 1165.27 Z" fill="#000000" fill-rule="nonzero" fill-opacity="1" /><path clip-path="url(#clip570)" d="M2220.06 1128.69 L2220.06 1126.62 Q2227.98 1126.62 2232.07 1122.41 Q2233.2 1122.41 2233.39 1122.66 Q2233.59 1122.92 2233.59 1124.11 L2233.59 1161.12 Q2233.59 1163.08 2234.55 1163.69 Q2235.52 1164.3 2239.74 1164.3 L2241.83 1164.3 L2241.83 1166.33 Q2239.51 1166.14 2231.14 1166.14 Q2222.77 1166.14 2220.48 1166.33 L2220.48 1164.3 L2222.57 1164.3 Q2226.73 1164.3 2227.73 1163.73 Q2228.72 1163.11 2228.72 1161.12 L2228.72 1126.95 Q2225.28 1128.69 2220.06 1128.69 Z" fill="#000000" fill-rule="nonzero" fill-opacity="1" /><polyline clip-path="url(#clip570)" style="stroke:#ac8d18; stroke-linecap:round; stroke-linejoin:round; stroke-width:11; stroke-opacity:1; fill:none" points="1807.49,1216.57 1947.41,1216.57 "/>
<path clip-path="url(#clip570)" d="M1997.33 1211.86 Q1997.33 1212.54 1996.75 1213.09 Q1996.2 1213.63 1995.53 1213.63 Q1995.14 1213.63 1994.2 1212.99 Q1991.53 1211.12 1988.15 1211.12 Q1985.12 1211.12 1982.32 1211.86 Q1979.52 1212.6 1977.62 1214.12 Q1975.75 1215.6 1975.75 1217.53 Q1975.75 1219.95 1978.39 1221.36 Q1981.13 1220.11 1984.51 1220.11 Q1985.61 1220.11 1986.35 1220.17 Q1987.12 1220.24 1987.86 1220.4 Q1988.6 1220.56 1988.96 1220.94 Q1989.34 1221.3 1989.34 1221.88 Q1989.34 1223.94 1984 1223.94 Q1980.52 1223.94 1978.33 1223.01 Q1975.53 1224.39 1973.98 1226.61 Q1972.43 1228.83 1972.43 1230.73 Q1972.43 1232.38 1973.34 1233.57 Q1974.27 1234.76 1975.78 1235.34 Q1977.33 1235.92 1978.84 1236.18 Q1980.39 1236.4 1982.1 1236.4 Q1984.9 1236.4 1986.86 1236.05 Q1988.86 1235.66 1989.95 1234.95 Q1991.08 1234.25 1991.53 1233.76 Q1992.01 1233.25 1992.5 1232.44 Q1992.79 1231.99 1993.17 1231.99 Q1993.46 1231.99 1993.66 1232.18 Q1993.88 1232.35 1993.88 1232.63 Q1993.88 1232.99 1993.43 1233.73 Q1993.01 1234.47 1991.98 1235.47 Q1990.98 1236.44 1989.6 1237.34 Q1988.25 1238.21 1986.09 1238.82 Q1983.93 1239.43 1981.48 1239.43 Q1976.49 1239.43 1973.59 1236.98 Q1970.73 1234.54 1970.73 1231.12 Q1970.73 1228.74 1972.3 1226.29 Q1973.91 1223.81 1976.75 1222.23 Q1974.11 1220.27 1974.11 1217.53 Q1974.11 1215.08 1976.17 1212.89 Q1978.26 1210.7 1981.64 1209.41 Q1985.06 1208.09 1988.79 1208.09 Q1990.89 1208.09 1992.95 1208.8 Q1995.01 1209.48 1996.17 1210.35 Q1997.33 1211.22 1997.33 1211.86 M1987.63 1221.94 Q1986.22 1221.56 1984.51 1221.56 Q1982.19 1221.56 1980.48 1222.14 Q1981.87 1222.49 1984 1222.49 Q1985.77 1222.49 1986.28 1222.39 Q1986.83 1222.3 1987.63 1221.94 Z" fill="#000000" fill-rule="nonzero" fill-opacity="1" /><path clip-path="url(#clip570)" d="M2019.46 1227.97 Q2019.52 1227.16 2020.78 1227.16 L2061.2 1227.16 Q2063.1 1227.16 2063.13 1227.9 Q2063.13 1228.71 2061.33 1228.67 L2021.23 1228.67 Q2019.46 1228.71 2019.46 1227.97 M2019.46 1215.08 Q2019.46 1214.28 2020.85 1214.31 L2061.13 1214.31 Q2063.1 1214.31 2063.13 1215.08 Q2063.13 1215.82 2061.46 1215.82 L2020.78 1215.82 Q2019.46 1215.82 2019.46 1215.08 Z" fill="#000000" fill-rule="nonzero" fill-opacity="1" /><path clip-path="url(#clip570)" d="M2150.42 1220.56 Q2150.81 1220.94 2150.81 1221.49 Q2150.81 1222.04 2150.42 1222.43 Q2150.04 1222.81 2149.49 1222.81 L2108.2 1222.81 Q2107.65 1222.81 2107.27 1222.43 Q2106.88 1222.04 2106.88 1221.49 Q2106.88 1220.94 2107.27 1220.56 Q2107.65 1220.17 2108.2 1220.17 L2149.49 1220.17 Q2150.04 1220.17 2150.42 1220.56 Z" fill="#000000" fill-rule="nonzero" fill-opacity="1" /><path clip-path="url(#clip570)" d="M2176 1216.89 Q2176 1207.19 2178.44 1201.91 Q2181.86 1194.05 2189.91 1194.05 Q2191.62 1194.05 2193.39 1194.54 Q2195.19 1194.99 2197.45 1196.76 Q2199.73 1198.53 2201.12 1201.43 Q2203.76 1207.03 2203.76 1216.89 Q2203.76 1226.52 2201.31 1231.77 Q2197.74 1239.43 2189.85 1239.43 Q2186.88 1239.43 2183.86 1237.92 Q2180.86 1236.4 2178.96 1232.76 Q2176 1227.32 2176 1216.89 M2181.47 1216.08 Q2181.47 1226.03 2182.18 1229.99 Q2182.99 1234.28 2185.18 1236.15 Q2187.4 1237.98 2189.85 1237.98 Q2192.49 1237.98 2194.68 1236.02 Q2196.9 1234.02 2197.57 1229.74 Q2198.32 1225.52 2198.28 1216.08 Q2198.28 1206.9 2197.64 1203.23 Q2196.77 1198.95 2194.45 1197.24 Q2192.16 1195.5 2189.85 1195.5 Q2188.98 1195.5 2188.04 1195.76 Q2187.14 1196.02 2185.82 1196.76 Q2184.5 1197.5 2183.47 1199.33 Q2182.47 1201.17 2181.99 1203.94 Q2181.47 1207.51 2181.47 1216.08 Z" fill="#000000" fill-rule="nonzero" fill-opacity="1" /><path clip-path="url(#clip570)" d="M2209.66 1236.92 Q2208.66 1235.86 2208.66 1234.47 Q2208.66 1233.09 2209.66 1232.09 Q2210.66 1231.06 2212.17 1231.06 Q2213.62 1231.06 2214.59 1232.02 Q2215.59 1232.96 2215.59 1234.5 Q2215.59 1236.02 2214.52 1237.01 Q2213.49 1237.98 2212.17 1237.98 Q2210.66 1237.98 2209.66 1236.92 Z" fill="#000000" fill-rule="nonzero" fill-opacity="1" /><path clip-path="url(#clip570)" d="M2226.81 1227.1 L2226.81 1225.07 L2247.07 1194.12 Q2247.58 1193.31 2248.39 1193.34 Q2249.13 1193.34 2249.29 1193.63 Q2249.45 1193.92 2249.45 1195.05 L2249.45 1225.07 L2256.05 1225.07 L2256.05 1227.1 L2249.45 1227.1 L2249.45 1232.83 Q2249.45 1234.73 2250.22 1235.34 Q2251.03 1235.95 2254.44 1235.95 L2255.83 1235.95 L2255.83 1237.98 Q2253.12 1237.79 2246.88 1237.79 Q2240.66 1237.79 2237.95 1237.98 L2237.95 1235.95 L2239.34 1235.95 Q2242.75 1235.95 2243.56 1235.37 Q2244.36 1234.76 2244.36 1232.83 L2244.36 1227.1 L2226.81 1227.1 M2228.68 1225.07 L2244.75 1225.07 L2244.75 1200.46 L2228.68 1225.07 Z" fill="#000000" fill-rule="nonzero" fill-opacity="1" /><polyline clip-path="url(#clip570)" style="stroke:#00a9ad; stroke-linecap:round; stroke-linejoin:round; stroke-width:11; stroke-opacity:1; fill:none" points="1807.49,1287.85 1947.41,1287.85 "/>
<path clip-path="url(#clip570)" d="M1997.33 1282.77 Q1997.33 1283.45 1996.75 1284 Q1996.2 1284.55 1995.53 1284.55 Q1995.14 1284.55 1994.2 1283.9 Q1991.53 1282.03 1988.15 1282.03 Q1985.12 1282.03 1982.32 1282.77 Q1979.52 1283.52 1977.62 1285.03 Q1975.75 1286.51 1975.75 1288.44 Q1975.75 1290.86 1978.39 1292.28 Q1981.13 1291.02 1984.51 1291.02 Q1985.61 1291.02 1986.35 1291.08 Q1987.12 1291.15 1987.86 1291.31 Q1988.6 1291.47 1988.96 1291.86 Q1989.34 1292.21 1989.34 1292.79 Q1989.34 1294.85 1984 1294.85 Q1980.52 1294.85 1978.33 1293.92 Q1975.53 1295.3 1973.98 1297.53 Q1972.43 1299.75 1972.43 1301.65 Q1972.43 1303.29 1973.34 1304.48 Q1974.27 1305.67 1975.78 1306.25 Q1977.33 1306.83 1978.84 1307.09 Q1980.39 1307.32 1982.1 1307.32 Q1984.9 1307.32 1986.86 1306.96 Q1988.86 1306.58 1989.95 1305.87 Q1991.08 1305.16 1991.53 1304.67 Q1992.01 1304.16 1992.5 1303.35 Q1992.79 1302.9 1993.17 1302.9 Q1993.46 1302.9 1993.66 1303.1 Q1993.88 1303.26 1993.88 1303.55 Q1993.88 1303.9 1993.43 1304.64 Q1993.01 1305.38 1991.98 1306.38 Q1990.98 1307.35 1989.6 1308.25 Q1988.25 1309.12 1986.09 1309.73 Q1983.93 1310.34 1981.48 1310.34 Q1976.49 1310.34 1973.59 1307.9 Q1970.73 1305.45 1970.73 1302.03 Q1970.73 1299.65 1972.3 1297.2 Q1973.91 1294.72 1976.75 1293.15 Q1974.11 1291.18 1974.11 1288.44 Q1974.11 1286 1976.17 1283.81 Q1978.26 1281.62 1981.64 1280.33 Q1985.06 1279.01 1988.79 1279.01 Q1990.89 1279.01 1992.95 1279.72 Q1995.01 1280.39 1996.17 1281.26 Q1997.33 1282.13 1997.33 1282.77 M1987.63 1292.86 Q1986.22 1292.47 1984.51 1292.47 Q1982.19 1292.47 1980.48 1293.05 Q1981.87 1293.4 1984 1293.4 Q1985.77 1293.4 1986.28 1293.31 Q1986.83 1293.21 1987.63 1292.86 Z" fill="#000000" fill-rule="nonzero" fill-opacity="1" /><path clip-path="url(#clip570)" d="M2019.46 1298.88 Q2019.52 1298.07 2020.78 1298.07 L2061.2 1298.07 Q2063.1 1298.07 2063.13 1298.81 Q2063.13 1299.62 2061.33 1299.59 L2021.23 1299.59 Q2019.46 1299.62 2019.46 1298.88 M2019.46 1286 Q2019.46 1285.19 2020.85 1285.22 L2061.13 1285.22 Q2063.1 1285.22 2063.13 1286 Q2063.13 1286.74 2061.46 1286.74 L2020.78 1286.74 Q2019.46 1286.74 2019.46 1286 Z" fill="#000000" fill-rule="nonzero" fill-opacity="1" /><path clip-path="url(#clip570)" d="M2150.42 1291.47 Q2150.81 1291.86 2150.81 1292.4 Q2150.81 1292.95 2150.42 1293.34 Q2150.04 1293.72 2149.49 1293.72 L2108.2 1293.72 Q2107.65 1293.72 2107.27 1293.34 Q2106.88 1292.95 2106.88 1292.4 Q2106.88 1291.86 2107.27 1291.47 Q2107.65 1291.08 2108.2 1291.08 L2149.49 1291.08 Q2150.04 1291.08 2150.42 1291.47 Z" fill="#000000" fill-rule="nonzero" fill-opacity="1" /><path clip-path="url(#clip570)" d="M2176 1287.8 Q2176 1278.11 2178.44 1272.82 Q2181.86 1264.97 2189.91 1264.97 Q2191.62 1264.97 2193.39 1265.45 Q2195.19 1265.9 2197.45 1267.67 Q2199.73 1269.44 2201.12 1272.34 Q2203.76 1277.94 2203.76 1287.8 Q2203.76 1297.43 2201.31 1302.68 Q2197.74 1310.34 2189.85 1310.34 Q2186.88 1310.34 2183.86 1308.83 Q2180.86 1307.32 2178.96 1303.68 Q2176 1298.23 2176 1287.8 M2181.47 1286.99 Q2181.47 1296.95 2182.18 1300.91 Q2182.99 1305.19 2185.18 1307.06 Q2187.4 1308.89 2189.85 1308.89 Q2192.49 1308.89 2194.68 1306.93 Q2196.9 1304.93 2197.57 1300.65 Q2198.32 1296.43 2198.28 1286.99 Q2198.28 1277.82 2197.64 1274.14 Q2196.77 1269.86 2194.45 1268.15 Q2192.16 1266.41 2189.85 1266.41 Q2188.98 1266.41 2188.04 1266.67 Q2187.14 1266.93 2185.82 1267.67 Q2184.5 1268.41 2183.47 1270.25 Q2182.47 1272.08 2181.99 1274.85 Q2181.47 1278.43 2181.47 1286.99 Z" fill="#000000" fill-rule="nonzero" fill-opacity="1" /><path clip-path="url(#clip570)" d="M2209.66 1307.83 Q2208.66 1306.77 2208.66 1305.38 Q2208.66 1304 2209.66 1303 Q2210.66 1301.97 2212.17 1301.97 Q2213.62 1301.97 2214.59 1302.94 Q2215.59 1303.87 2215.59 1305.42 Q2215.59 1306.93 2214.52 1307.93 Q2213.49 1308.89 2212.17 1308.89 Q2210.66 1308.89 2209.66 1307.83 Z" fill="#000000" fill-rule="nonzero" fill-opacity="1" /><path clip-path="url(#clip570)" d="M2226.81 1279.81 Q2226.81 1276.3 2227.84 1273.92 Q2228.87 1271.5 2231.03 1269.12 Q2234.99 1264.97 2240.72 1264.97 Q2243.17 1264.97 2245.33 1266 Q2247.52 1267.03 2249.58 1269.38 Q2251.67 1271.7 2252.93 1276.3 Q2254.19 1280.87 2254.19 1287.19 Q2254.19 1297.4 2249.23 1303.87 Q2244.3 1310.34 2237.63 1310.34 Q2233.41 1310.34 2230.93 1308.44 Q2228.45 1306.51 2228.45 1303.23 Q2228.45 1301.52 2229.42 1300.81 Q2230.39 1300.07 2231.48 1300.07 Q2232.67 1300.07 2233.61 1300.87 Q2234.54 1301.65 2234.54 1303.1 Q2234.54 1304.29 2233.77 1305.22 Q2233.03 1306.12 2231.09 1306.12 Q2232.99 1308.51 2237.57 1308.51 Q2239.21 1308.51 2240.85 1307.77 Q2242.5 1306.99 2244.27 1305.16 Q2246.07 1303.29 2247.17 1299.39 Q2248.26 1295.5 2248.26 1290.02 L2248.26 1287.93 Q2245.62 1294.53 2240.02 1294.53 Q2234.48 1294.53 2230.64 1290.28 Q2226.81 1286.03 2226.81 1279.81 M2232.74 1279.88 Q2232.74 1286.41 2233.93 1288.83 Q2235.96 1292.98 2240.08 1292.98 Q2244.11 1292.98 2246.1 1289.41 Q2248.13 1285.8 2248.13 1281.13 Q2248.13 1274.66 2247.07 1271.82 Q2245.1 1266.61 2240.72 1266.61 Q2236.38 1266.61 2234.12 1270.76 Q2232.74 1273.21 2232.74 1279.88 Z" fill="#000000" fill-rule="nonzero" fill-opacity="1" /></svg>
