<?xml version="1.0" encoding="utf-8"?>
<svg xmlns="http://www.w3.org/2000/svg" xmlns:xlink="http://www.w3.org/1999/xlink" width="600" height="400" viewBox="0 0 2400 1600">
<defs>
  <clipPath id="clip960">
    <rect x="0" y="0" width="2400" height="1600"/>
  </clipPath>
</defs>
<path clip-path="url(#clip960)" d="M0 1600 L2400 1600 L2400 0 L0 0  Z" fill="#ffffff" fill-rule="evenodd" fill-opacity="1"/>
<defs>
  <clipPath id="clip961">
    <rect x="480" y="0" width="1681" height="1600"/>
  </clipPath>
</defs>
<path clip-path="url(#clip960)" d="M193.53 1401.58 L2352.76 1401.58 L2352.76 141.085 L193.53 141.085  Z" fill="#ffffff" fill-rule="evenodd" fill-opacity="1"/>
<defs>
  <clipPath id="clip962">
    <rect x="193" y="141" width="2160" height="1261"/>
  </clipPath>
</defs>
<polyline clip-path="url(#clip962)" style="stroke:#000000; stroke-linecap:round; stroke-linejoin:round; stroke-width:2; stroke-opacity:0.1; fill:none" points="480.974,1401.58 480.974,141.085 "/>
<polyline clip-path="url(#clip962)" style="stroke:#000000; stroke-linecap:round; stroke-linejoin:round; stroke-width:2; stroke-opacity:0.1; fill:none" points="933.642,1401.58 933.642,141.085 "/>
<polyline clip-path="url(#clip962)" style="stroke:#000000; stroke-linecap:round; stroke-linejoin:round; stroke-width:2; stroke-opacity:0.1; fill:none" points="1386.31,1401.58 1386.31,141.085 "/>
<polyline clip-path="url(#clip962)" style="stroke:#000000; stroke-linecap:round; stroke-linejoin:round; stroke-width:2; stroke-opacity:0.1; fill:none" points="1838.98,1401.58 1838.98,141.085 "/>
<polyline clip-path="url(#clip962)" style="stroke:#000000; stroke-linecap:round; stroke-linejoin:round; stroke-width:2; stroke-opacity:0.1; fill:none" points="2291.65,1401.58 2291.65,141.085 "/>
<polyline clip-path="url(#clip962)" style="stroke:#000000; stroke-linecap:round; stroke-linejoin:round; stroke-width:2; stroke-opacity:0.1; fill:none" points="193.53,1396.09 2352.76,1396.09 "/>
<polyline clip-path="url(#clip962)" style="stroke:#000000; stroke-linecap:round; stroke-linejoin:round; stroke-width:2; stroke-opacity:0.1; fill:none" points="193.53,1171.97 2352.76,1171.97 "/>
<polyline clip-path="url(#clip962)" style="stroke:#000000; stroke-linecap:round; stroke-linejoin:round; stroke-width:2; stroke-opacity:0.1; fill:none" points="193.53,947.847 2352.76,947.847 "/>
<polyline clip-path="url(#clip962)" style="stroke:#000000; stroke-linecap:round; stroke-linejoin:round; stroke-width:2; stroke-opacity:0.1; fill:none" points="193.53,723.724 2352.76,723.724 "/>
<polyline clip-path="url(#clip962)" style="stroke:#000000; stroke-linecap:round; stroke-linejoin:round; stroke-width:2; stroke-opacity:0.1; fill:none" points="193.53,499.601 2352.76,499.601 "/>
<polyline clip-path="url(#clip962)" style="stroke:#000000; stroke-linecap:round; stroke-linejoin:round; stroke-width:2; stroke-opacity:0.1; fill:none" points="193.53,275.478 2352.76,275.478 "/>
<polyline clip-path="url(#clip960)" style="stroke:#000000; stroke-linecap:round; stroke-linejoin:round; stroke-width:4; stroke-opacity:1; fill:none" points="193.53,1401.58 2352.76,1401.58 "/>
<polyline clip-path="url(#clip960)" style="stroke:#000000; stroke-linecap:round; stroke-linejoin:round; stroke-width:4; stroke-opacity:1; fill:none" points="480.974,1401.58 480.974,1382.68 "/>
<polyline clip-path="url(#clip960)" style="stroke:#000000; stroke-linecap:round; stroke-linejoin:round; stroke-width:4; stroke-opacity:1; fill:none" points="933.642,1401.58 933.642,1382.68 "/>
<polyline clip-path="url(#clip960)" style="stroke:#000000; stroke-linecap:round; stroke-linejoin:round; stroke-width:4; stroke-opacity:1; fill:none" points="1386.31,1401.58 1386.31,1382.68 "/>
<polyline clip-path="url(#clip960)" style="stroke:#000000; stroke-linecap:round; stroke-linejoin:round; stroke-width:4; stroke-opacity:1; fill:none" points="1838.98,1401.58 1838.98,1382.68 "/>
<polyline clip-path="url(#clip960)" style="stroke:#000000; stroke-linecap:round; stroke-linejoin:round; stroke-width:4; stroke-opacity:1; fill:none" points="2291.65,1401.58 2291.65,1382.68 "/>
<path clip-path="url(#clip960)" d="M450.975 1436.89 Q446.01 1436.89 443.496 1441.79 Q441.013 1446.66 441.013 1456.47 Q441.013 1466.24 443.496 1471.14 Q446.01 1476.01 450.975 1476.01 Q455.972 1476.01 458.455 1471.14 Q460.97 1466.24 460.97 1456.47 Q460.97 1446.66 458.455 1441.79 Q455.972 1436.89 450.975 1436.89 M450.975 1431.8 Q458.964 1431.8 463.166 1438.13 Q467.399 1444.44 467.399 1456.47 Q467.399 1468.47 463.166 1474.8 Q458.964 1481.1 450.975 1481.1 Q442.986 1481.1 438.753 1474.8 Q434.552 1468.47 434.552 1456.47 Q434.552 1444.44 438.753 1438.13 Q442.986 1431.8 450.975 1431.8 Z" fill="#000000" fill-rule="nonzero" fill-opacity="1" /><path clip-path="url(#clip960)" d="M478.698 1472.1 L485.414 1472.1 L485.414 1480.18 L478.698 1480.18 L478.698 1472.1 Z" fill="#000000" fill-rule="nonzero" fill-opacity="1" /><path clip-path="url(#clip960)" d="M504.957 1474.77 L527.396 1474.77 L527.396 1480.18 L497.222 1480.18 L497.222 1474.77 Q500.883 1470.98 507.185 1464.62 Q513.518 1458.22 515.142 1456.37 Q518.229 1452.9 519.439 1450.52 Q520.68 1448.1 520.68 1445.77 Q520.68 1441.99 518.006 1439.6 Q515.365 1437.21 511.099 1437.21 Q508.076 1437.21 504.702 1438.26 Q501.36 1439.31 497.541 1441.44 L497.541 1434.95 Q501.424 1433.39 504.797 1432.6 Q508.171 1431.8 510.972 1431.8 Q518.356 1431.8 522.749 1435.49 Q527.141 1439.18 527.141 1445.36 Q527.141 1448.29 526.027 1450.93 Q524.945 1453.54 522.048 1457.1 Q521.253 1458.03 516.988 1462.45 Q512.723 1466.84 504.957 1474.77 Z" fill="#000000" fill-rule="nonzero" fill-opacity="1" /><path clip-path="url(#clip960)" d="M902.211 1436.89 Q897.246 1436.89 894.731 1441.79 Q892.249 1446.66 892.249 1456.47 Q892.249 1466.24 894.731 1471.14 Q897.246 1476.01 902.211 1476.01 Q907.208 1476.01 909.691 1471.14 Q912.205 1466.24 912.205 1456.47 Q912.205 1446.66 909.691 1441.79 Q907.208 1436.89 902.211 1436.89 M902.211 1431.8 Q910.2 1431.8 914.401 1438.13 Q918.635 1444.44 918.635 1456.47 Q918.635 1468.47 914.401 1474.8 Q910.2 1481.1 902.211 1481.1 Q894.222 1481.1 889.989 1474.8 Q885.788 1468.47 885.788 1456.47 Q885.788 1444.44 889.989 1438.13 Q894.222 1431.8 902.211 1431.8 Z" fill="#000000" fill-rule="nonzero" fill-opacity="1" /><path clip-path="url(#clip960)" d="M929.934 1472.1 L936.65 1472.1 L936.65 1480.18 L929.934 1480.18 L929.934 1472.1 Z" fill="#000000" fill-rule="nonzero" fill-opacity="1" /><path clip-path="url(#clip960)" d="M968.319 1438.26 L952.086 1463.63 L968.319 1463.63 L968.319 1438.26 M966.632 1432.66 L974.716 1432.66 L974.716 1463.63 L981.496 1463.63 L981.496 1468.98 L974.716 1468.98 L974.716 1480.18 L968.319 1480.18 L968.319 1468.98 L946.867 1468.98 L946.867 1462.77 L966.632 1432.66 Z" fill="#000000" fill-rule="nonzero" fill-opacity="1" /><path clip-path="url(#clip960)" d="M1355.1 1436.89 Q1350.14 1436.89 1347.62 1441.79 Q1345.14 1446.66 1345.14 1456.47 Q1345.14 1466.24 1347.62 1471.14 Q1350.14 1476.01 1355.1 1476.01 Q1360.1 1476.01 1362.58 1471.14 Q1365.1 1466.24 1365.1 1456.47 Q1365.1 1446.66 1362.58 1441.79 Q1360.1 1436.89 1355.1 1436.89 M1355.1 1431.8 Q1363.09 1431.8 1367.29 1438.13 Q1371.53 1444.44 1371.53 1456.47 Q1371.53 1468.47 1367.29 1474.8 Q1363.09 1481.1 1355.1 1481.1 Q1347.11 1481.1 1342.88 1474.8 Q1338.68 1468.47 1338.68 1456.47 Q1338.68 1444.44 1342.88 1438.13 Q1347.11 1431.8 1355.1 1431.8 Z" fill="#000000" fill-rule="nonzero" fill-opacity="1" /><path clip-path="url(#clip960)" d="M1382.82 1472.1 L1389.54 1472.1 L1389.54 1480.18 L1382.82 1480.18 L1382.82 1472.1 Z" fill="#000000" fill-rule="nonzero" fill-opacity="1" /><path clip-path="url(#clip960)" d="M1418.09 1453.86 Q1413.76 1453.86 1411.22 1456.82 Q1408.7 1459.78 1408.7 1464.93 Q1408.7 1470.06 1411.22 1473.05 Q1413.76 1476.01 1418.09 1476.01 Q1422.42 1476.01 1424.93 1473.05 Q1427.48 1470.06 1427.48 1464.93 Q1427.48 1459.78 1424.93 1456.82 Q1422.42 1453.86 1418.09 1453.86 M1430.85 1433.71 L1430.85 1439.57 Q1428.43 1438.42 1425.95 1437.82 Q1423.5 1437.21 1421.08 1437.21 Q1414.72 1437.21 1411.34 1441.51 Q1408 1445.81 1407.52 1454.49 Q1409.4 1451.73 1412.23 1450.26 Q1415.07 1448.77 1418.47 1448.77 Q1425.63 1448.77 1429.77 1453.13 Q1433.94 1457.45 1433.94 1464.93 Q1433.94 1472.25 1429.61 1476.68 Q1425.28 1481.1 1418.09 1481.1 Q1409.85 1481.1 1405.49 1474.8 Q1401.13 1468.47 1401.13 1456.47 Q1401.13 1445.2 1406.47 1438.52 Q1411.82 1431.8 1420.83 1431.8 Q1423.25 1431.8 1425.7 1432.28 Q1428.18 1432.76 1430.85 1433.71 Z" fill="#000000" fill-rule="nonzero" fill-opacity="1" /><path clip-path="url(#clip960)" d="M1807.94 1436.89 Q1802.98 1436.89 1800.47 1441.79 Q1797.98 1446.66 1797.98 1456.47 Q1797.98 1466.24 1800.47 1471.14 Q1802.98 1476.01 1807.94 1476.01 Q1812.94 1476.01 1815.42 1471.14 Q1817.94 1466.24 1817.94 1456.47 Q1817.94 1446.66 1815.42 1441.79 Q1812.94 1436.89 1807.94 1436.89 M1807.94 1431.8 Q1815.93 1431.8 1820.14 1438.13 Q1824.37 1444.44 1824.37 1456.47 Q1824.37 1468.47 1820.14 1474.8 Q1815.93 1481.1 1807.94 1481.1 Q1799.96 1481.1 1795.72 1474.8 Q1791.52 1468.47 1791.52 1456.47 Q1791.52 1444.44 1795.72 1438.13 Q1799.96 1431.8 1807.94 1431.8 Z" fill="#000000" fill-rule="nonzero" fill-opacity="1" /><path clip-path="url(#clip960)" d="M1835.67 1472.1 L1842.38 1472.1 L1842.38 1480.18 L1835.67 1480.18 L1835.67 1472.1 Z" fill="#000000" fill-rule="nonzero" fill-opacity="1" /><path clip-path="url(#clip960)" d="M1870.14 1457.61 Q1865.55 1457.61 1862.91 1460.06 Q1860.3 1462.52 1860.3 1466.81 Q1860.3 1471.11 1862.91 1473.56 Q1865.55 1476.01 1870.14 1476.01 Q1874.72 1476.01 1877.36 1473.56 Q1880 1471.08 1880 1466.81 Q1880 1462.52 1877.36 1460.06 Q1874.75 1457.61 1870.14 1457.61 M1863.71 1454.88 Q1859.57 1453.86 1857.25 1451.02 Q1854.96 1448.19 1854.96 1444.12 Q1854.96 1438.42 1859 1435.11 Q1863.07 1431.8 1870.14 1431.8 Q1877.24 1431.8 1881.28 1435.11 Q1885.32 1438.42 1885.32 1444.12 Q1885.32 1448.19 1883 1451.02 Q1880.7 1453.86 1876.6 1454.88 Q1881.25 1455.96 1883.82 1459.11 Q1886.43 1462.26 1886.43 1466.81 Q1886.43 1473.72 1882.2 1477.41 Q1878 1481.1 1870.14 1481.1 Q1862.28 1481.1 1858.04 1477.41 Q1853.84 1473.72 1853.84 1466.81 Q1853.84 1462.26 1856.45 1459.11 Q1859.06 1455.96 1863.71 1454.88 M1861.35 1444.72 Q1861.35 1448.41 1863.64 1450.48 Q1865.97 1452.55 1870.14 1452.55 Q1874.28 1452.55 1876.6 1450.48 Q1878.95 1448.41 1878.95 1444.72 Q1878.95 1441.03 1876.6 1438.96 Q1874.28 1436.89 1870.14 1436.89 Q1865.97 1436.89 1863.64 1438.96 Q1861.35 1441.03 1861.35 1444.72 Z" fill="#000000" fill-rule="nonzero" fill-opacity="1" /><path clip-path="url(#clip960)" d="M2246.48 1474.77 L2256.98 1474.77 L2256.98 1438.52 L2245.56 1440.81 L2245.56 1434.95 L2256.92 1432.66 L2263.35 1432.66 L2263.35 1474.77 L2273.85 1474.77 L2273.85 1480.18 L2246.48 1480.18 L2246.48 1474.77 Z" fill="#000000" fill-rule="nonzero" fill-opacity="1" /><path clip-path="url(#clip960)" d="M2286.84 1472.1 L2293.56 1472.1 L2293.56 1480.18 L2286.84 1480.18 L2286.84 1472.1 Z" fill="#000000" fill-rule="nonzero" fill-opacity="1" /><path clip-path="url(#clip960)" d="M2321.31 1436.89 Q2316.34 1436.89 2313.83 1441.79 Q2311.35 1446.66 2311.35 1456.47 Q2311.35 1466.24 2313.83 1471.14 Q2316.34 1476.01 2321.31 1476.01 Q2326.31 1476.01 2328.79 1471.14 Q2331.3 1466.24 2331.3 1456.47 Q2331.3 1446.66 2328.79 1441.79 Q2326.31 1436.89 2321.31 1436.89 M2321.31 1431.8 Q2329.3 1431.8 2333.5 1438.13 Q2337.73 1444.44 2337.73 1456.47 Q2337.73 1468.47 2333.5 1474.8 Q2329.3 1481.1 2321.31 1481.1 Q2313.32 1481.1 2309.09 1474.8 Q2304.89 1468.47 2304.89 1456.47 Q2304.89 1444.44 2309.09 1438.13 Q2313.32 1431.8 2321.31 1431.8 Z" fill="#000000" fill-rule="nonzero" fill-opacity="1" /><path clip-path="url(#clip960)" d="M1303.62 1516.76 Q1303.62 1517.49 1303.47 1518.1 L1301.34 1531.65 Q1301.22 1532.67 1300.99 1533.06 Q1300.8 1533.44 1300.19 1533.44 Q1299.24 1533.44 1299.24 1532.45 Q1299.24 1531.88 1299.47 1530.96 Q1300.12 1526.66 1300.12 1524.72 Q1300.12 1523.43 1299.85 1522.47 Q1299.62 1521.48 1299.24 1520.8 Q1298.9 1520.11 1298.1 1519.66 Q1297.3 1519.2 1296.54 1518.93 Q1295.78 1518.67 1294.41 1518.55 Q1293.04 1518.4 1291.86 1518.36 Q1290.68 1518.33 1288.74 1518.33 Q1284.51 1518.33 1283.83 1518.48 Q1283.1 1518.67 1282.72 1519.24 Q1282.38 1519.77 1282 1521.37 L1271.65 1562.74 L1271.34 1564.38 Q1271.34 1565.29 1271.91 1565.6 Q1272.49 1565.9 1274.24 1566.09 Q1276.75 1566.28 1279.22 1566.28 Q1279.3 1566.28 1279.45 1566.28 Q1280.29 1566.28 1280.63 1566.32 Q1280.97 1566.32 1281.32 1566.4 Q1281.66 1566.47 1281.73 1566.66 Q1281.85 1566.82 1281.85 1567.12 Q1281.85 1567.84 1281.54 1568.22 Q1281.24 1568.57 1280.94 1568.64 Q1280.67 1568.68 1280.14 1568.68 Q1279.07 1568.68 1276.79 1568.6 Q1274.5 1568.53 1273.36 1568.53 L1266.89 1568.45 L1260.27 1568.53 Q1259.24 1568.53 1257.07 1568.6 Q1254.9 1568.68 1253.87 1568.68 Q1252.54 1568.68 1252.54 1567.73 Q1252.54 1566.66 1253.04 1566.47 Q1253.57 1566.28 1255.81 1566.28 Q1258.97 1566.28 1260.69 1566.13 Q1262.4 1565.98 1263.31 1565.45 Q1264.26 1564.91 1264.53 1564.38 Q1264.8 1563.81 1265.1 1562.51 L1275.57 1520.91 Q1275.87 1520 1275.87 1519.28 Q1275.87 1518.9 1275.76 1518.74 Q1275.68 1518.59 1275.19 1518.48 Q1274.69 1518.33 1273.67 1518.33 L1270.62 1518.33 Q1267.5 1518.33 1265.56 1518.48 Q1263.66 1518.59 1261.83 1519.16 Q1260.04 1519.73 1258.97 1520.53 Q1257.95 1521.33 1256.8 1522.97 Q1255.66 1524.61 1254.82 1526.58 Q1254.03 1528.56 1252.88 1531.8 Q1252.5 1532.86 1252.27 1533.17 Q1252.08 1533.44 1251.55 1533.44 Q1251.17 1533.44 1250.87 1533.21 Q1250.6 1532.94 1250.6 1532.6 Q1250.98 1531.34 1251.06 1531.19 L1255.74 1517.45 Q1256.12 1516.35 1256.46 1516.16 Q1256.84 1515.93 1258.25 1515.93 L1301.49 1515.93 Q1302.17 1515.93 1302.4 1515.93 Q1302.63 1515.93 1303.01 1516 Q1303.39 1516.08 1303.51 1516.27 Q1303.62 1516.46 1303.62 1516.76 Z" fill="#000000" fill-rule="nonzero" fill-opacity="1" /><polyline clip-path="url(#clip960)" style="stroke:#000000; stroke-linecap:round; stroke-linejoin:round; stroke-width:4; stroke-opacity:1; fill:none" points="193.53,1401.58 193.53,141.085 "/>
<polyline clip-path="url(#clip960)" style="stroke:#000000; stroke-linecap:round; stroke-linejoin:round; stroke-width:4; stroke-opacity:1; fill:none" points="193.53,1396.09 212.427,1396.09 "/>
<polyline clip-path="url(#clip960)" style="stroke:#000000; stroke-linecap:round; stroke-linejoin:round; stroke-width:4; stroke-opacity:1; fill:none" points="193.53,1171.97 212.427,1171.97 "/>
<polyline clip-path="url(#clip960)" style="stroke:#000000; stroke-linecap:round; stroke-linejoin:round; stroke-width:4; stroke-opacity:1; fill:none" points="193.53,947.847 212.427,947.847 "/>
<polyline clip-path="url(#clip960)" style="stroke:#000000; stroke-linecap:round; stroke-linejoin:round; stroke-width:4; stroke-opacity:1; fill:none" points="193.53,723.724 212.427,723.724 "/>
<polyline clip-path="url(#clip960)" style="stroke:#000000; stroke-linecap:round; stroke-linejoin:round; stroke-width:4; stroke-opacity:1; fill:none" points="193.53,499.601 212.427,499.601 "/>
<polyline clip-path="url(#clip960)" style="stroke:#000000; stroke-linecap:round; stroke-linejoin:round; stroke-width:4; stroke-opacity:1; fill:none" points="193.53,275.478 212.427,275.478 "/>
<path clip-path="url(#clip960)" d="M141.106 1376.57 Q136.141 1376.57 133.626 1381.47 Q131.144 1386.34 131.144 1396.14 Q131.144 1405.91 133.626 1410.81 Q136.141 1415.68 141.106 1415.68 Q146.103 1415.68 148.586 1410.81 Q151.1 1405.91 151.1 1396.14 Q151.1 1386.34 148.586 1381.47 Q146.103 1376.57 141.106 1376.57 M141.106 1371.47 Q149.095 1371.47 153.296 1377.81 Q157.53 1384.11 157.53 1396.14 Q157.53 1408.14 153.296 1414.47 Q149.095 1420.78 141.106 1420.78 Q133.117 1420.78 128.884 1414.47 Q124.683 1408.14 124.683 1396.14 Q124.683 1384.11 128.884 1377.81 Q133.117 1371.47 141.106 1371.47 Z" fill="#000000" fill-rule="nonzero" fill-opacity="1" /><path clip-path="url(#clip960)" d="M130.157 1190.32 L140.66 1190.32 L140.66 1154.07 L129.234 1156.36 L129.234 1150.5 L140.597 1148.21 L147.026 1148.21 L147.026 1190.32 L157.53 1190.32 L157.53 1195.73 L130.157 1195.73 L130.157 1190.32 Z" fill="#000000" fill-rule="nonzero" fill-opacity="1" /><path clip-path="url(#clip960)" d="M135.09 966.196 L157.53 966.196 L157.53 971.607 L127.356 971.607 L127.356 966.196 Q131.016 962.408 137.318 956.042 Q143.652 949.645 145.276 947.799 Q148.363 944.33 149.572 941.942 Q150.814 939.523 150.814 937.2 Q150.814 933.412 148.14 931.025 Q145.498 928.638 141.233 928.638 Q138.21 928.638 134.836 929.688 Q131.494 930.739 127.674 932.871 L127.674 926.378 Q131.558 924.819 134.931 924.023 Q138.305 923.227 141.106 923.227 Q148.49 923.227 152.883 926.919 Q157.275 930.611 157.275 936.786 Q157.275 939.714 156.161 942.356 Q155.079 944.966 152.182 948.531 Q151.387 949.454 147.122 953.878 Q142.857 958.27 135.09 966.196 Z" fill="#000000" fill-rule="nonzero" fill-opacity="1" /><path clip-path="url(#clip960)" d="M147.726 721.862 Q152.342 722.848 154.92 725.968 Q157.53 729.087 157.53 733.67 Q157.53 740.704 152.692 744.555 Q147.854 748.407 138.942 748.407 Q135.95 748.407 132.767 747.802 Q129.616 747.229 126.242 746.051 L126.242 739.845 Q128.916 741.404 132.099 742.2 Q135.281 742.996 138.751 742.996 Q144.798 742.996 147.949 740.609 Q151.132 738.222 151.132 733.67 Q151.132 729.469 148.172 727.113 Q145.244 724.726 139.992 724.726 L134.454 724.726 L134.454 719.443 L140.247 719.443 Q144.989 719.443 147.504 717.565 Q150.018 715.655 150.018 712.09 Q150.018 708.43 147.408 706.489 Q144.83 704.515 139.992 704.515 Q137.35 704.515 134.327 705.088 Q131.303 705.661 127.674 706.87 L127.674 701.141 Q131.335 700.123 134.518 699.614 Q137.732 699.104 140.565 699.104 Q147.886 699.104 152.151 702.446 Q156.416 705.756 156.416 711.422 Q156.416 715.369 154.156 718.106 Q151.896 720.811 147.726 721.862 Z" fill="#000000" fill-rule="nonzero" fill-opacity="1" /><path clip-path="url(#clip960)" d="M144.353 481.443 L128.12 506.81 L144.353 506.81 L144.353 481.443 M142.666 475.841 L150.75 475.841 L150.75 506.81 L157.53 506.81 L157.53 512.157 L150.75 512.157 L150.75 523.361 L144.353 523.361 L144.353 512.157 L122.9 512.157 L122.9 505.951 L142.666 475.841 Z" fill="#000000" fill-rule="nonzero" fill-opacity="1" /><path clip-path="url(#clip960)" d="M128.788 251.718 L154.028 251.718 L154.028 257.129 L134.677 257.129 L134.677 268.778 Q136.077 268.301 137.478 268.078 Q138.878 267.823 140.279 267.823 Q148.236 267.823 152.883 272.184 Q157.53 276.544 157.53 283.992 Q157.53 291.663 152.755 295.928 Q147.981 300.161 139.292 300.161 Q136.3 300.161 133.181 299.652 Q130.093 299.142 126.783 298.124 L126.783 291.663 Q129.648 293.222 132.703 293.986 Q135.759 294.75 139.165 294.75 Q144.671 294.75 147.886 291.854 Q151.1 288.957 151.1 283.992 Q151.1 279.027 147.886 276.13 Q144.671 273.234 139.165 273.234 Q136.586 273.234 134.008 273.807 Q131.462 274.38 128.788 275.589 L128.788 251.718 Z" fill="#000000" fill-rule="nonzero" fill-opacity="1" /><path clip-path="url(#clip960)" d="M40.7656 813.508 Q43.4299 813.508 43.4299 817.352 L43.4299 830.445 L70.111 835.66 Q70.7961 835.774 71.1767 835.926 Q71.5573 836.04 72.2044 836.383 Q72.8133 836.687 73.1178 837.334 Q73.4604 837.943 73.4604 838.857 Q73.4604 839.999 72.7753 840.569 Q72.1282 841.102 71.3289 841.102 Q70.8341 841.102 68.4743 840.341 L43.4299 832.691 L43.4299 839.161 Q43.4299 845.251 49.4436 849.057 Q50.2429 849.666 50.319 850.009 Q50.3571 850.161 50.3571 850.313 Q50.3571 850.732 50.1668 850.998 Q49.9765 851.227 49.7861 851.227 L49.5958 851.265 Q49.3294 851.265 48.2637 850.656 Q47.1599 850.009 45.5233 848.867 Q43.8866 847.687 42.5925 846.507 Q40.9178 844.947 40.0424 843.196 Q39.1289 841.445 39.0147 840.569 Q38.9006 839.656 38.9006 838.476 L38.9006 816.629 Q38.9006 815.639 38.9767 815.106 Q39.0147 814.573 39.4715 814.041 Q39.8902 813.508 40.7656 813.508 Z" fill="#000000" fill-rule="nonzero" fill-opacity="1" /><path clip-path="url(#clip960)" d="M53.0214 803.524 Q39.8521 803.524 29.233 798.614 Q24.7798 796.52 21.0497 793.59 Q17.3197 790.659 15.6831 788.718 Q14.0464 786.777 14.0464 786.244 Q14.0464 785.483 14.8077 785.445 Q15.1883 785.445 16.1398 786.472 Q28.9285 799.032 53.0214 798.994 Q77.1904 798.994 89.4843 786.777 Q90.8164 785.445 91.2351 785.445 Q91.9963 785.445 91.9963 786.244 Q91.9963 786.777 90.4358 788.642 Q88.8753 790.507 85.2975 793.399 Q81.7197 796.292 77.3427 798.385 Q66.7235 803.524 53.0214 803.524 Z" fill="#000000" fill-rule="nonzero" fill-opacity="1" /><path clip-path="url(#clip960)" d="M20.593 726.501 Q21.3162 726.501 21.9251 726.653 L35.475 728.785 Q36.5027 728.899 36.8833 729.127 Q37.2639 729.317 37.2639 729.926 Q37.2639 730.878 36.2743 730.878 Q35.7034 730.878 34.7899 730.65 Q30.489 730.002 28.5478 730.002 Q27.2538 730.002 26.3022 730.269 Q25.3126 730.497 24.6275 730.878 Q23.9424 731.22 23.4857 732.02 Q23.0289 732.819 22.7625 733.58 Q22.4961 734.341 22.3819 735.712 Q22.2296 737.082 22.1916 738.262 Q22.1535 739.442 22.1535 741.383 Q22.1535 745.608 22.3058 746.293 Q22.4961 747.016 23.067 747.397 Q23.5999 747.739 25.1984 748.12 L66.5713 758.472 L68.2079 758.777 Q69.1214 758.777 69.4259 758.206 Q69.7304 757.635 69.9207 755.884 Q70.111 753.372 70.111 750.898 Q70.111 750.822 70.111 750.67 Q70.111 749.833 70.149 749.49 Q70.149 749.147 70.2252 748.805 Q70.3013 748.462 70.4916 748.386 Q70.6438 748.272 70.9483 748.272 Q71.6715 748.272 72.0521 748.576 Q72.3947 748.881 72.4708 749.185 Q72.5088 749.452 72.5088 749.985 Q72.5088 751.05 72.4327 753.334 Q72.3566 755.618 72.3566 756.76 L72.2805 763.23 L72.3566 769.853 Q72.3566 770.881 72.4327 773.05 Q72.5088 775.22 72.5088 776.247 Q72.5088 777.579 71.5573 777.579 Q70.4916 777.579 70.3013 777.085 Q70.111 776.552 70.111 774.306 Q70.111 771.147 69.9587 769.434 Q69.8065 767.721 69.2736 766.808 Q68.7408 765.856 68.2079 765.59 Q67.637 765.324 66.3429 765.019 L24.7417 754.552 Q23.8282 754.248 23.1051 754.248 Q22.7244 754.248 22.5722 754.362 Q22.4199 754.438 22.3058 754.933 Q22.1535 755.428 22.1535 756.455 L22.1535 759.5 Q22.1535 762.621 22.3058 764.562 Q22.4199 766.465 22.9909 768.292 Q23.5618 770.081 24.3611 771.147 Q25.1604 772.175 26.797 773.316 Q28.4337 774.458 30.4129 775.296 Q32.3921 776.095 35.6273 777.237 Q36.693 777.617 36.9975 777.846 Q37.2639 778.036 37.2639 778.569 Q37.2639 778.95 37.0356 779.254 Q36.7691 779.52 36.4266 779.52 Q35.1705 779.14 35.0183 779.064 L21.2781 774.382 Q20.1743 774.002 19.984 773.659 Q19.7556 773.278 19.7556 771.87 L19.7556 728.632 Q19.7556 727.947 19.7556 727.719 Q19.7556 727.49 19.8318 727.11 Q19.9079 726.729 20.0982 726.615 Q20.2885 726.501 20.593 726.501 Z" fill="#000000" fill-rule="nonzero" fill-opacity="1" /><path clip-path="url(#clip960)" d="M91.2351 721.331 Q90.8545 721.331 89.9029 720.341 Q77.1143 707.781 53.0214 707.781 Q28.8523 707.781 16.6346 719.847 Q15.2263 721.331 14.8077 721.331 Q14.0464 721.331 14.0464 720.57 Q14.0464 720.037 15.6069 718.172 Q17.1675 716.269 20.7452 713.414 Q24.323 710.522 28.7001 708.39 Q39.3192 703.252 53.0214 703.252 Q66.1906 703.252 76.8098 708.162 Q81.263 710.255 84.993 713.186 Q88.723 716.117 90.3597 718.058 Q91.9963 719.999 91.9963 720.57 Q91.9963 721.331 91.2351 721.331 Z" fill="#000000" fill-rule="nonzero" fill-opacity="1" /><path clip-path="url(#clip960)" d="M1047.9 83.6432 Q1048.23 84.0121 1048.23 84.381 Q1048.23 84.7499 1047.41 85.8156 Q1046.63 86.8813 1044.95 88.3159 Q1043.27 89.7506 1041.1 91.1032 Q1038.93 92.4559 1035.73 93.3576 Q1032.53 94.3004 1029.17 94.3004 Q1023.15 94.3004 1019.54 89.9965 Q1015.97 85.6926 1015.97 79.0934 Q1015.97 74.8715 1017.37 71.1414 Q1018.76 67.3704 1021.02 64.7061 Q1023.31 62.0418 1026.18 60.1153 Q1029.09 58.1478 1032.12 57.2051 Q1035.16 56.2623 1037.98 56.2623 Q1042.12 56.2623 1044.54 58.3528 Q1046.96 60.4432 1046.96 63.3945 Q1046.96 64.0913 1046.76 64.9521 Q1046.59 65.8128 1046.02 67.1655 Q1045.49 68.5181 1044.09 69.8708 Q1042.7 71.1824 1040.65 72.0432 Q1036.1 73.9697 1027.82 73.9697 L1023.35 73.9697 Q1022.04 79.2573 1022.04 82.7004 Q1022.04 84.0531 1022.29 85.4467 Q1022.53 86.7993 1023.19 88.5209 Q1023.88 90.2424 1025.44 91.3492 Q1027.04 92.4149 1029.34 92.4149 Q1030.07 92.4149 1030.85 92.3739 Q1031.67 92.3329 1033.72 91.882 Q1035.81 91.4311 1037.66 90.6523 Q1039.5 89.8735 1041.84 88.193 Q1044.22 86.4714 1046.1 84.135 Q1046.76 83.2743 1047.21 83.2743 Q1047.58 83.2743 1047.9 83.6432 M1044.17 63.3945 Q1044.17 61.1401 1042.49 59.6234 Q1040.85 58.1068 1037.98 58.1068 Q1037.08 58.1068 1035.98 58.3118 Q1034.87 58.5167 1033.03 59.3775 Q1031.22 60.2383 1029.62 61.6729 Q1028.02 63.0665 1026.43 65.8128 Q1024.83 68.5181 1023.88 72.1252 L1027.33 72.1252 Q1028.52 72.1252 1029.38 72.1252 Q1030.24 72.0842 1032.12 71.9202 Q1034.05 71.7563 1035.44 71.4694 Q1036.84 71.1414 1038.6 70.4856 Q1040.36 69.8298 1041.47 68.969 Q1042.62 68.0672 1043.4 66.6326 Q1044.17 65.198 1044.17 63.3945 Z" fill="#000000" fill-rule="nonzero" fill-opacity="1" /><path clip-path="url(#clip960)" d="M1095.66 39.7225 Q1096.01 40.0668 1096.01 40.5546 Q1096.01 41.0423 1095.66 41.3867 Q1095.32 41.731 1094.83 41.731 L1058.05 41.731 Q1057.56 41.731 1057.22 41.3867 Q1056.87 41.0423 1056.87 40.5546 Q1056.87 40.0668 1057.22 39.7225 Q1057.56 39.3782 1058.05 39.3782 L1094.83 39.3782 Q1095.32 39.3782 1095.66 39.7225 Z" fill="#000000" fill-rule="nonzero" fill-opacity="1" /><path clip-path="url(#clip960)" d="M1102.14 47.326 Q1102.14 45.5758 1103.14 44.7437 Q1104.15 43.9116 1105.44 43.9116 Q1106.79 43.9116 1107.73 44.8011 Q1108.71 45.6618 1108.71 47.1825 Q1108.71 48.818 1107.56 49.7362 Q1106.44 50.6543 1104.84 50.4248 Q1106.24 52.7776 1108.83 53.8392 Q1111.44 54.9008 1113.85 54.9008 Q1116.37 54.9008 1118.41 52.7202 Q1120.47 50.5396 1120.47 45.2028 Q1120.47 40.6693 1118.7 38.0583 Q1116.95 35.4473 1113.47 35.4473 L1110.89 35.4473 Q1110 35.4473 1109.74 35.3612 Q1109.49 35.2751 1109.49 34.7874 Q1109.49 34.2135 1110.37 34.0988 Q1111.26 34.0988 1112.67 33.9266 Q1116.08 33.8118 1117.89 30.8565 Q1119.53 28.102 1119.53 24.1712 Q1119.53 20.5846 1117.81 19.0926 Q1116.11 17.5719 1113.9 17.5719 Q1111.84 17.5719 1109.57 18.4327 Q1107.3 19.2934 1106.07 21.2158 Q1109.71 21.2158 1109.71 24.1712 Q1109.71 25.4623 1108.88 26.3231 Q1108.08 27.1552 1106.73 27.1552 Q1105.44 27.1552 1104.58 26.3518 Q1103.72 25.5197 1103.72 24.1138 Q1103.72 20.7567 1106.7 18.4327 Q1109.71 16.1086 1114.13 16.1086 Q1118.49 16.1086 1121.71 18.404 Q1124.95 20.6994 1124.95 24.2285 Q1124.95 27.7003 1122.65 30.5409 Q1120.36 33.3814 1116.72 34.5578 Q1121.19 35.4473 1123.86 38.4887 Q1126.53 41.5014 1126.53 45.2028 Q1126.53 49.7936 1122.91 53.1793 Q1119.3 56.5363 1114.02 56.5363 Q1109.14 56.5363 1105.64 53.8966 Q1102.14 51.2569 1102.14 47.326 Z" fill="#000000" fill-rule="nonzero" fill-opacity="1" /><path clip-path="url(#clip960)" d="M1131.24 69.1036 Q1131.24 68.8167 1131.47 68.1854 L1152.21 12.7515 Q1152.21 12.6942 1152.36 12.3785 Q1152.5 12.0629 1152.59 11.8621 Q1152.67 11.6325 1152.84 11.4604 Q1153.05 11.2882 1153.27 11.2882 Q1153.85 11.2882 1153.85 12.0055 Q1153.85 12.0629 1153.68 12.7515 L1132.87 68.2428 Q1132.53 69.2471 1132.3 69.534 Q1132.1 69.8209 1131.76 69.8209 Q1131.24 69.8209 1131.24 69.1036 Z" fill="#000000" fill-rule="nonzero" fill-opacity="1" /><path clip-path="url(#clip960)" d="M1200.31 16.1086 Q1200.31 16.6537 1200.19 17.1128 L1198.59 27.3273 Q1198.5 28.102 1198.33 28.389 Q1198.18 28.6759 1197.72 28.6759 Q1197.01 28.6759 1197.01 27.9299 Q1197.01 27.4995 1197.18 26.8109 Q1197.67 23.5686 1197.67 22.1053 Q1197.67 21.1297 1197.47 20.4124 Q1197.29 19.6664 1197.01 19.15 Q1196.75 18.6335 1196.15 18.2892 Q1195.54 17.9449 1194.97 17.744 Q1194.4 17.5432 1193.36 17.4571 Q1192.33 17.3423 1191.44 17.3136 Q1190.55 17.285 1189.09 17.285 Q1185.9 17.285 1185.39 17.3997 Q1184.84 17.5432 1184.55 17.9736 Q1184.3 18.3753 1184.01 19.5804 L1176.21 50.7691 L1175.98 52.0029 Q1175.98 52.6915 1176.41 52.921 Q1176.84 53.1506 1178.16 53.294 Q1180.05 53.4375 1181.92 53.4375 Q1181.97 53.4375 1182.09 53.4375 Q1182.72 53.4375 1182.98 53.4662 Q1183.23 53.4662 1183.49 53.5236 Q1183.75 53.581 1183.81 53.7244 Q1183.89 53.8392 1183.89 54.0687 Q1183.89 54.6139 1183.67 54.9008 Q1183.44 55.159 1183.21 55.2164 Q1183.01 55.2451 1182.6 55.2451 Q1181.8 55.2451 1180.08 55.1877 Q1178.36 55.1304 1177.5 55.1304 L1172.62 55.073 L1167.63 55.1304 Q1166.85 55.1304 1165.22 55.1877 Q1163.58 55.2451 1162.81 55.2451 Q1161.8 55.2451 1161.8 54.5278 Q1161.8 53.7244 1162.17 53.581 Q1162.58 53.4375 1164.27 53.4375 Q1166.65 53.4375 1167.94 53.3227 Q1169.23 53.208 1169.92 52.8063 Q1170.64 52.4046 1170.84 52.0029 Q1171.04 51.5725 1171.27 50.5969 L1179.16 19.236 Q1179.39 18.5474 1179.39 18.0023 Q1179.39 17.7153 1179.3 17.6006 Q1179.25 17.4858 1178.87 17.3997 Q1178.5 17.285 1177.73 17.285 L1175.43 17.285 Q1173.08 17.285 1171.61 17.3997 Q1170.18 17.4858 1168.8 17.9162 Q1167.45 18.3466 1166.65 18.9491 Q1165.88 19.5517 1165.02 20.7854 Q1164.15 22.0192 1163.52 23.5112 Q1162.92 25.0032 1162.06 27.4421 Q1161.77 28.2455 1161.6 28.475 Q1161.46 28.6759 1161.06 28.6759 Q1160.77 28.6759 1160.54 28.5037 Q1160.34 28.3029 1160.34 28.0446 Q1160.63 27.0978 1160.68 26.983 L1164.21 16.625 Q1164.5 15.7929 1164.76 15.6495 Q1165.04 15.4773 1166.11 15.4773 L1198.7 15.4773 Q1199.22 15.4773 1199.39 15.4773 Q1199.56 15.4773 1199.85 15.5347 Q1200.13 15.5921 1200.22 15.7356 Q1200.31 15.879 1200.31 16.1086 Z" fill="#000000" fill-rule="nonzero" fill-opacity="1" /><path clip-path="url(#clip960)" d="M1203.29 72.3711 Q1203.29 58.1888 1208.57 46.7528 Q1210.83 41.9571 1213.98 37.9401 Q1217.14 33.9232 1219.23 32.1606 Q1221.32 30.3981 1221.89 30.3981 Q1222.71 30.3981 1222.76 31.2179 Q1222.76 31.6278 1221.65 32.6525 Q1208.12 46.4249 1208.16 72.3711 Q1208.16 98.3993 1221.32 111.639 Q1222.76 113.073 1222.76 113.524 Q1222.76 114.344 1221.89 114.344 Q1221.32 114.344 1219.31 112.664 Q1217.3 110.983 1214.19 107.13 Q1211.07 103.277 1208.82 98.5633 Q1203.29 87.1273 1203.29 72.3711 Z" fill="#000000" fill-rule="nonzero" fill-opacity="1" /><path clip-path="url(#clip960)" d="M1276.18 59.1726 Q1276.18 62.0418 1272.04 62.0418 L1257.94 62.0418 L1252.32 90.7753 Q1252.2 91.5131 1252.04 91.923 Q1251.91 92.3329 1251.55 93.0297 Q1251.22 93.6855 1250.52 94.0135 Q1249.86 94.3824 1248.88 94.3824 Q1247.65 94.3824 1247.04 93.6445 Q1246.46 92.9477 1246.46 92.087 Q1246.46 91.5541 1247.28 89.0128 L1255.52 62.0418 L1248.55 62.0418 Q1241.99 62.0418 1237.9 68.5181 Q1237.24 69.3789 1236.87 69.4609 Q1236.71 69.5019 1236.54 69.5019 Q1236.09 69.5019 1235.81 69.2969 Q1235.56 69.092 1235.56 68.887 L1235.52 68.6821 Q1235.52 68.3952 1236.17 67.2475 Q1236.87 66.0588 1238.1 64.2962 Q1239.37 62.5337 1240.64 61.1401 Q1242.32 59.3365 1244.21 58.3938 Q1246.09 57.41 1247.04 57.2871 Q1248.02 57.1641 1249.29 57.1641 L1272.82 57.1641 Q1273.88 57.1641 1274.46 57.2461 Q1275.03 57.2871 1275.61 57.7789 Q1276.18 58.2298 1276.18 59.1726 Z" fill="#000000" fill-rule="nonzero" fill-opacity="1" /><path clip-path="url(#clip960)" d="M1284.74 99.0667 Q1284.74 89.8277 1289.45 84.1753 Q1294.16 78.4942 1300.21 78.4942 Q1303.74 78.4942 1305.69 80.3018 Q1307.67 82.0807 1307.67 84.8352 Q1307.67 86.3559 1306.78 87.0159 Q1305.89 87.6758 1304.97 87.6758 Q1303.91 87.6758 1303.08 86.9585 Q1302.25 86.2412 1302.25 84.95 Q1302.25 82.3103 1305.49 82.3103 Q1303.97 79.9575 1300.32 79.9575 Q1299.21 79.9575 1298.06 80.3018 Q1296.91 80.6174 1295.42 81.7077 Q1293.93 82.7981 1292.78 84.5196 Q1291.63 86.2412 1290.83 89.4834 Q1290.02 92.7257 1290.02 96.9435 L1290.02 98.3494 Q1292.43 92.5248 1297.37 92.5535 Q1302.3 92.5535 1305.72 96.3122 Q1309.13 100.071 1309.13 105.637 Q1309.13 111.347 1305.57 115.135 Q1302.02 118.922 1297.02 118.922 Q1294.79 118.922 1292.75 117.975 Q1290.74 117.057 1288.85 114.934 Q1286.98 112.81 1285.86 108.736 Q1284.74 104.662 1284.74 99.0667 M1290.14 104.346 Q1290.14 110.113 1291.2 112.868 Q1291.37 113.327 1291.75 113.958 Q1292.15 114.589 1292.81 115.421 Q1293.5 116.225 1294.61 116.77 Q1295.73 117.286 1297.02 117.286 Q1300.96 117.286 1302.85 113.47 Q1303.85 111.347 1303.85 105.58 Q1303.85 99.6979 1302.79 97.546 Q1300.98 93.9021 1297.31 93.9021 Q1294.84 93.9021 1293.12 95.5949 Q1291.43 97.2878 1290.77 99.5545 Q1290.14 101.821 1290.14 104.346 Z" fill="#000000" fill-rule="nonzero" fill-opacity="1" /><path clip-path="url(#clip960)" d="M1314.68 116.684 Q1313.84 115.737 1313.84 114.503 Q1313.84 113.269 1314.65 112.351 Q1315.48 111.404 1316.97 111.404 Q1318.72 111.404 1319.73 113.097 Q1320.73 114.762 1320.73 117.573 Q1320.73 120.615 1319.5 123.427 Q1318.26 126.267 1317.06 127.616 Q1315.85 128.964 1315.36 128.964 Q1314.79 128.964 1314.79 128.333 Q1314.79 128.104 1315.19 127.673 Q1319.41 123.14 1319.44 117.573 Q1319.44 116.684 1319.32 116.684 L1319.18 116.799 Q1318.18 117.631 1316.97 117.631 Q1315.51 117.631 1314.68 116.684 Z" fill="#000000" fill-rule="nonzero" fill-opacity="1" /><path clip-path="url(#clip960)" d="M1339.27 108.162 Q1339.27 106.412 1340.22 105.752 Q1341.17 105.063 1342.17 105.063 Q1343.52 105.063 1344.29 105.924 Q1345.1 106.756 1345.1 107.933 Q1345.1 109.109 1344.29 109.97 Q1343.52 110.802 1342.17 110.802 Q1341.51 110.802 1341.17 110.687 Q1341.94 113.384 1344.29 115.335 Q1346.67 117.286 1349.8 117.286 Q1353.73 117.286 1356.09 113.47 Q1357.49 111.003 1357.49 105.408 Q1357.49 100.473 1356.43 98.0051 Q1354.79 94.2464 1351.44 94.2464 Q1346.67 94.2464 1343.86 98.3494 Q1343.52 98.8659 1343.12 98.8946 Q1342.54 98.8946 1342.4 98.5789 Q1342.28 98.2346 1342.28 97.3452 L1342.28 79.9575 Q1342.28 78.5516 1342.86 78.5516 Q1343.09 78.5516 1343.58 78.7237 Q1347.28 80.3592 1351.38 80.3879 Q1355.6 80.3879 1359.39 78.6663 Q1359.67 78.4942 1359.84 78.4942 Q1360.42 78.4942 1360.45 79.1541 Q1360.45 79.3837 1359.96 80.0723 Q1359.5 80.7322 1358.5 81.6217 Q1357.49 82.4824 1356.2 83.3145 Q1354.91 84.1466 1353.02 84.7205 Q1351.15 85.2656 1349.08 85.2656 Q1346.62 85.2656 1344.09 84.4909 L1344.09 95.9392 Q1347.13 92.9552 1351.55 92.9552 Q1356.26 92.9552 1359.5 96.7426 Q1362.74 100.53 1362.74 105.809 Q1362.74 111.347 1358.9 115.135 Q1355.08 118.922 1349.92 118.922 Q1345.21 118.922 1342.23 115.565 Q1339.27 112.208 1339.27 108.162 Z" fill="#000000" fill-rule="nonzero" fill-opacity="1" /><path clip-path="url(#clip960)" d="M1377.33 72.3711 Q1377.33 58.1888 1382.62 46.7528 Q1384.87 41.9571 1388.03 37.9401 Q1391.19 33.9232 1393.28 32.1606 Q1395.37 30.3981 1395.94 30.3981 Q1396.76 30.3981 1396.8 31.2179 Q1396.8 31.6278 1395.69 32.6525 Q1382.17 46.4249 1382.21 72.3711 Q1382.21 98.3993 1395.37 111.639 Q1396.8 113.073 1396.8 113.524 Q1396.8 114.344 1395.94 114.344 Q1395.37 114.344 1393.36 112.664 Q1391.35 110.983 1388.23 107.13 Q1385.12 103.277 1382.86 98.5633 Q1377.33 87.1273 1377.33 72.3711 Z" fill="#000000" fill-rule="nonzero" fill-opacity="1" /><path clip-path="url(#clip960)" d="M1460.28 37.4482 Q1460.28 38.227 1460.11 38.8829 L1457.82 53.4751 Q1457.7 54.5818 1457.45 54.9917 Q1457.25 55.4016 1456.59 55.4016 Q1455.56 55.4016 1455.56 54.3358 Q1455.56 53.721 1455.81 52.7373 Q1456.51 48.1055 1456.51 46.015 Q1456.51 44.6214 1456.22 43.5966 Q1455.97 42.5309 1455.56 41.7931 Q1455.2 41.0553 1454.34 40.5634 Q1453.47 40.0716 1452.65 39.7846 Q1451.83 39.4977 1450.36 39.3747 Q1448.88 39.2108 1447.61 39.1698 Q1446.34 39.1288 1444.25 39.1288 Q1439.7 39.1288 1438.96 39.2928 Q1438.19 39.4977 1437.78 40.1126 Q1437.41 40.6864 1437 42.408 L1425.85 86.9633 L1425.52 88.7258 Q1425.52 89.7096 1426.13 90.0375 Q1426.75 90.3654 1428.63 90.5704 Q1431.34 90.7753 1434 90.7753 Q1434.09 90.7753 1434.25 90.7753 Q1435.15 90.7753 1435.52 90.8163 Q1435.89 90.8163 1436.26 90.8983 Q1436.63 90.9802 1436.71 91.1852 Q1436.83 91.3492 1436.83 91.6771 Q1436.83 92.4559 1436.5 92.8658 Q1436.18 93.2347 1435.85 93.3166 Q1435.56 93.3576 1434.99 93.3576 Q1433.84 93.3576 1431.38 93.2756 Q1428.92 93.1937 1427.69 93.1937 L1420.72 93.1117 L1413.59 93.1937 Q1412.49 93.1937 1410.15 93.2756 Q1407.81 93.3576 1406.71 93.3576 Q1405.27 93.3576 1405.27 92.3329 Q1405.27 91.1852 1405.8 90.9802 Q1406.38 90.7753 1408.8 90.7753 Q1412.2 90.7753 1414.04 90.6113 Q1415.89 90.4474 1416.87 89.8735 Q1417.9 89.2997 1418.18 88.7258 Q1418.47 88.111 1418.8 86.7174 L1430.07 41.9161 Q1430.4 40.9323 1430.4 40.1535 Q1430.4 39.7436 1430.27 39.5797 Q1430.19 39.4157 1429.66 39.2928 Q1429.13 39.1288 1428.02 39.1288 L1424.74 39.1288 Q1421.38 39.1288 1419.29 39.2928 Q1417.24 39.4157 1415.27 40.0306 Q1413.35 40.6454 1412.2 41.5062 Q1411.09 42.367 1409.86 44.1295 Q1408.63 45.892 1407.73 48.0235 Q1406.87 50.1549 1405.64 53.639 Q1405.23 54.7867 1404.98 55.1146 Q1404.78 55.4016 1404.21 55.4016 Q1403.8 55.4016 1403.47 55.1556 Q1403.18 54.8687 1403.18 54.4998 Q1403.59 53.1471 1403.67 52.9832 L1408.71 38.1861 Q1409.12 36.9974 1409.49 36.7924 Q1409.9 36.5465 1411.42 36.5465 L1457.98 36.5465 Q1458.72 36.5465 1458.97 36.5465 Q1459.21 36.5465 1459.62 36.6285 Q1460.03 36.7104 1460.16 36.9154 Q1460.28 37.1203 1460.28 37.4482 Z" fill="#000000" fill-rule="nonzero" fill-opacity="1" /><path clip-path="url(#clip960)" d="M1465.85 113.524 Q1465.85 113.114 1466.91 112.09 Q1480.44 98.3173 1480.44 72.3711 Q1480.44 46.3429 1467.44 33.1854 Q1465.85 31.6688 1465.85 31.2179 Q1465.85 30.3981 1466.67 30.3981 Q1467.24 30.3981 1469.25 32.0787 Q1471.3 33.7592 1474.37 37.6122 Q1477.49 41.4652 1479.78 46.179 Q1485.32 57.615 1485.32 72.3711 Q1485.32 86.5534 1480.03 97.9894 Q1477.77 102.785 1474.62 106.802 Q1471.46 110.819 1469.37 112.582 Q1467.28 114.344 1466.67 114.344 Q1465.85 114.344 1465.85 113.524 Z" fill="#000000" fill-rule="nonzero" fill-opacity="1" /><path clip-path="url(#clip960)" d="M1498.08 113.524 Q1498.08 113.114 1499.14 112.09 Q1512.67 98.3173 1512.67 72.3711 Q1512.67 46.3429 1499.68 33.1854 Q1498.08 31.6688 1498.08 31.2179 Q1498.08 30.3981 1498.9 30.3981 Q1499.47 30.3981 1501.48 32.0787 Q1503.53 33.7592 1506.6 37.6122 Q1509.72 41.4652 1512.01 46.179 Q1517.55 57.615 1517.55 72.3711 Q1517.55 86.5534 1512.26 97.9894 Q1510.01 102.785 1506.85 106.802 Q1503.69 110.819 1501.6 112.582 Q1499.51 114.344 1498.9 114.344 Q1498.08 114.344 1498.08 113.524 Z" fill="#000000" fill-rule="nonzero" fill-opacity="1" /><polyline clip-path="url(#clip962)" style="stroke:#009af9; stroke-linecap:round; stroke-linejoin:round; stroke-width:8; stroke-opacity:1; fill:none" points="254.64,1170.38 277.273,1171.93 299.907,1171.96 322.54,1171.97 345.173,1171.97 367.807,1171.97 390.44,1171.97 413.074,1171.97 435.707,1171.96 458.34,1171.96 480.974,1171.95 503.607,1171.94 526.241,1171.92 548.874,1171.89 571.507,1171.86 594.141,1171.82 616.774,1171.77 639.408,1171.7 662.041,1171.62 684.674,1171.52 707.308,1171.41 729.941,1171.27 752.575,1171.12 775.208,1170.94 797.841,1170.74 820.475,1170.52 843.108,1170.28 865.742,1170 888.375,1169.7 911.008,1169.38 933.642,1169.03 956.275,1168.65 978.909,1168.24 1001.54,1167.81 1024.18,1167.35 1046.81,1166.86 1069.44,1166.34 1092.08,1165.8 1114.71,1165.23 1137.34,1164.63 1159.98,1164.01 1182.61,1163.36 1205.24,1162.69 1227.88,1161.99 1250.51,1161.26 1273.14,1160.51 1295.78,1159.74 1318.41,1158.94 1341.04,1158.12 1363.68,1157.28 1386.31,1156.41 1408.94,1155.53 1431.58,1154.62 1454.21,1153.7 1476.84,1152.75 1499.48,1151.79 1522.11,1150.8 1544.74,1149.8 1567.38,1148.78 1590.01,1147.74 1612.64,1146.69 1635.28,1145.62 1657.91,1144.54 1680.54,1143.44 1703.18,1142.33 1725.81,1141.2 1748.44,1140.06 1771.08,1138.9 1793.71,1137.74 1816.34,1136.56 1838.98,1135.37 1861.61,1134.17 1884.24,1132.96 1906.88,1131.74 1929.51,1130.51 1952.14,1129.26 1974.78,1128.01 1997.41,1126.76 2020.04,1125.49 2042.68,1124.21 2065.31,1122.93 2087.95,1121.64 2110.58,1120.35 2133.21,1119.04 2155.85,1117.73 2178.48,1116.42 2201.11,1115.1 2223.75,1113.77 2246.38,1112.44 2269.01,1111.11 2291.65,1109.77 "/>
<polyline clip-path="url(#clip962)" style="stroke:#e26f46; stroke-linecap:round; stroke-linejoin:round; stroke-width:8; stroke-opacity:1; fill:none" points="254.64,1313.62 277.273,1305.76 299.907,1298.64 322.54,1292.14 345.173,1286.21 367.807,1280.76 390.44,1275.74 413.074,1271.1 435.707,1266.78 458.34,1262.74 480.974,1258.96 503.607,1255.41 526.241,1252.05 548.874,1248.87 571.507,1245.86 594.141,1242.98 616.774,1240.24 639.408,1237.62 662.041,1235.1 684.674,1232.69 707.308,1230.36 729.941,1228.11 752.575,1225.94 775.208,1223.84 797.841,1221.8 820.475,1219.82 843.108,1217.88 865.742,1216 888.375,1214.16 911.008,1212.36 933.642,1210.59 956.275,1208.86 978.909,1207.15 1001.54,1205.48 1024.18,1203.82 1046.81,1202.19 1069.44,1200.58 1092.08,1198.99 1114.71,1197.41 1137.34,1195.85 1159.98,1194.3 1182.61,1192.76 1205.24,1191.23 1227.88,1189.7 1250.51,1188.19 1273.14,1186.68 1295.78,1185.18 1318.41,1183.68 1341.04,1182.19 1363.68,1180.7 1386.31,1179.21 1408.94,1177.72 1431.58,1176.24 1454.21,1174.75 1476.84,1173.27 1499.48,1171.79 1522.11,1170.3 1544.74,1168.82 1567.38,1167.34 1590.01,1165.85 1612.64,1164.37 1635.28,1162.88 1657.91,1161.4 1680.54,1159.91 1703.18,1158.42 1725.81,1156.93 1748.44,1155.43 1771.08,1153.94 1793.71,1152.44 1816.34,1150.95 1838.98,1149.45 1861.61,1147.95 1884.24,1146.45 1906.88,1144.95 1929.51,1143.44 1952.14,1141.94 1974.78,1140.43 1997.41,1138.93 2020.04,1137.42 2042.68,1135.91 2065.31,1134.4 2087.95,1132.89 2110.58,1131.39 2133.21,1129.88 2155.85,1128.36 2178.48,1126.85 2201.11,1125.34 2223.75,1123.83 2246.38,1122.32 2269.01,1120.81 2291.65,1119.3 "/>
<polyline clip-path="url(#clip962)" style="stroke:#3da44d; stroke-linecap:round; stroke-linejoin:round; stroke-width:8; stroke-opacity:1; fill:none" points="254.64,1365.91 277.273,1359.67 299.907,1353.69 322.54,1347.84 345.173,1342.16 367.807,1336.66 390.44,1331.36 413.074,1326.24 435.707,1321.31 458.34,1316.55 480.974,1311.96 503.607,1307.52 526.241,1303.23 548.874,1299.08 571.507,1295.07 594.141,1291.18 616.774,1287.4 639.408,1283.74 662.041,1280.19 684.674,1276.73 707.308,1273.37 729.941,1270.1 752.575,1266.92 775.208,1263.82 797.841,1260.8 820.475,1257.85 843.108,1254.97 865.742,1252.16 888.375,1249.41 911.008,1246.72 933.642,1244.09 956.275,1241.51 978.909,1238.98 1001.54,1236.5 1024.18,1234.07 1046.81,1231.67 1069.44,1229.32 1092.08,1227.01 1114.71,1224.74 1137.34,1222.49 1159.98,1220.28 1182.61,1218.1 1205.24,1215.95 1227.88,1213.83 1250.51,1211.73 1273.14,1209.66 1295.78,1207.61 1318.41,1205.57 1341.04,1203.56 1363.68,1201.57 1386.31,1199.6 1408.94,1197.64 1431.58,1195.7 1454.21,1193.77 1476.84,1191.86 1499.48,1189.96 1522.11,1188.07 1544.74,1186.2 1567.38,1184.34 1590.01,1182.48 1612.64,1180.64 1635.28,1178.81 1657.91,1176.98 1680.54,1175.17 1703.18,1173.36 1725.81,1171.56 1748.44,1169.77 1771.08,1167.98 1793.71,1166.2 1816.34,1164.43 1838.98,1162.67 1861.61,1160.91 1884.24,1159.16 1906.88,1157.41 1929.51,1155.67 1952.14,1153.93 1974.78,1152.2 1997.41,1150.48 2020.04,1148.76 2042.68,1147.04 2065.31,1145.33 2087.95,1143.62 2110.58,1141.92 2133.21,1140.23 2155.85,1138.53 2178.48,1136.85 2201.11,1135.16 2223.75,1133.48 2246.38,1131.81 2269.01,1130.14 2291.65,1128.47 "/>
<polyline clip-path="url(#clip962)" style="stroke:#c271d2; stroke-linecap:round; stroke-linejoin:round; stroke-width:8; stroke-opacity:1; fill:none" points="254.64,786.274 277.273,840.038 299.907,880.747 322.54,912.997 345.173,939.12 367.807,960.737 390.44,978.936 413.074,994.485 435.707,1007.94 458.34,1019.71 480.974,1030.11 503.607,1039.37 526.241,1047.67 548.874,1055.15 571.507,1061.94 594.141,1068.12 616.774,1073.76 639.408,1078.94 662.041,1083.69 684.674,1088.06 707.308,1092.1 729.941,1095.82 752.575,1099.25 775.208,1102.43 797.841,1105.36 820.475,1108.07 843.108,1110.57 865.742,1112.88 888.375,1115 911.008,1116.96 933.642,1118.75 956.275,1120.4 978.909,1121.9 1001.54,1123.27 1024.18,1124.52 1046.81,1125.64 1069.44,1126.65 1092.08,1127.55 1114.71,1128.36 1137.34,1129.06 1159.98,1129.67 1182.61,1130.2 1205.24,1130.64 1227.88,1131 1250.51,1131.29 1273.14,1131.51 1295.78,1131.65 1318.41,1131.73 1341.04,1131.75 1363.68,1131.71 1386.31,1131.61 1408.94,1131.45 1431.58,1131.24 1454.21,1130.99 1476.84,1130.68 1499.48,1130.33 1522.11,1129.94 1544.74,1129.5 1567.38,1129.02 1590.01,1128.5 1612.64,1127.95 1635.28,1127.36 1657.91,1126.74 1680.54,1126.09 1703.18,1125.4 1725.81,1124.68 1748.44,1123.94 1771.08,1123.17 1793.71,1122.37 1816.34,1121.55 1838.98,1120.7 1861.61,1119.83 1884.24,1118.94 1906.88,1118.03 1929.51,1117.09 1952.14,1116.14 1974.78,1115.17 1997.41,1114.18 2020.04,1113.17 2042.68,1112.15 2065.31,1111.12 2087.95,1110.06 2110.58,1109 2133.21,1107.92 2155.85,1106.82 2178.48,1105.72 2201.11,1104.6 2223.75,1103.47 2246.38,1102.34 2269.01,1101.19 2291.65,1100.03 "/>
<polyline clip-path="url(#clip962)" style="stroke:#ac8d18; stroke-linecap:round; stroke-linejoin:round; stroke-width:8; stroke-opacity:1; fill:none" points="254.64,176.759 277.273,285.522 299.907,367.445 322.54,432.961 345.173,486.639 367.807,531.63 390.44,570.105 413.074,603.588 435.707,633.167 458.34,659.633 480.974,683.571 503.607,705.418 526.241,725.506 548.874,744.09 571.507,761.369 594.141,777.499 616.774,792.606 639.408,806.792 662.041,820.141 684.674,832.722 707.308,844.596 729.941,855.815 752.575,866.423 775.208,876.46 797.841,885.963 820.475,894.964 843.108,903.491 865.742,911.573 888.375,919.234 911.008,926.498 933.642,933.385 956.275,939.916 978.909,946.11 1001.54,951.984 1024.18,957.555 1046.81,962.839 1069.44,967.849 1092.08,972.6 1114.71,977.104 1137.34,981.374 1159.98,985.421 1182.61,989.255 1205.24,992.888 1227.88,996.329 1250.51,999.586 1273.14,1002.67 1295.78,1005.58 1318.41,1008.34 1341.04,1010.95 1363.68,1013.41 1386.31,1015.73 1408.94,1017.92 1431.58,1019.98 1454.21,1021.92 1476.84,1023.75 1499.48,1025.46 1522.11,1027.07 1544.74,1028.58 1567.38,1029.99 1590.01,1031.3 1612.64,1032.53 1635.28,1033.67 1657.91,1034.73 1680.54,1035.71 1703.18,1036.61 1725.81,1037.44 1748.44,1038.2 1771.08,1038.89 1793.71,1039.52 1816.34,1040.08 1838.98,1040.59 1861.61,1041.04 1884.24,1041.43 1906.88,1041.77 1929.51,1042.06 1952.14,1042.3 1974.78,1042.49 1997.41,1042.64 2020.04,1042.74 2042.68,1042.8 2065.31,1042.82 2087.95,1042.79 2110.58,1042.74 2133.21,1042.64 2155.85,1042.51 2178.48,1042.35 2201.11,1042.15 2223.75,1041.92 2246.38,1041.66 2269.01,1041.38 2291.65,1041.06 "/>
<path clip-path="url(#clip960)" d="M1776.11 610.781 L2280.78 610.781 L2280.78 183.101 L1776.11 183.101  Z" fill="#ffffff" fill-rule="evenodd" fill-opacity="1"/>
<polyline clip-path="url(#clip960)" style="stroke:#000000; stroke-linecap:round; stroke-linejoin:round; stroke-width:4; stroke-opacity:1; fill:none" points="1776.11,610.781 2280.78,610.781 2280.78,183.101 1776.11,183.101 1776.11,610.781 "/>
<polyline clip-path="url(#clip960)" style="stroke:#009af9; stroke-linecap:round; stroke-linejoin:round; stroke-width:11; stroke-opacity:1; fill:none" points="1800.1,254.381 1944.05,254.381 "/>
<path clip-path="url(#clip960)" d="M1994.64 249.301 Q1994.64 249.978 1994.06 250.525 Q1993.52 251.073 1992.84 251.073 Q1992.45 251.073 1991.52 250.428 Q1988.85 248.561 1985.47 248.561 Q1982.44 248.561 1979.64 249.301 Q1976.83 250.042 1974.93 251.556 Q1973.07 253.037 1973.07 254.969 Q1973.07 257.385 1975.71 258.802 Q1978.44 257.546 1981.83 257.546 Q1982.92 257.546 1983.66 257.61 Q1984.43 257.675 1985.18 257.836 Q1985.92 257.997 1986.27 258.383 Q1986.66 258.738 1986.66 259.317 Q1986.66 261.378 1981.31 261.378 Q1977.83 261.378 1975.64 260.444 Q1972.84 261.829 1971.29 264.052 Q1969.75 266.274 1969.75 268.174 Q1969.75 269.816 1970.65 271.008 Q1971.58 272.2 1973.1 272.779 Q1974.64 273.359 1976.16 273.617 Q1977.7 273.842 1979.41 273.842 Q1982.21 273.842 1984.18 273.488 Q1986.17 273.101 1987.27 272.393 Q1988.4 271.684 1988.85 271.201 Q1989.33 270.686 1989.81 269.881 Q1990.1 269.43 1990.49 269.43 Q1990.78 269.43 1990.97 269.623 Q1991.2 269.784 1991.2 270.074 Q1991.2 270.428 1990.75 271.169 Q1990.33 271.91 1989.3 272.908 Q1988.3 273.874 1986.91 274.776 Q1985.56 275.646 1983.4 276.258 Q1981.25 276.869 1978.8 276.869 Q1973.81 276.869 1970.91 274.422 Q1968.04 271.974 1968.04 268.56 Q1968.04 266.177 1969.62 263.729 Q1971.23 261.25 1974.06 259.672 Q1971.42 257.707 1971.42 254.969 Q1971.42 252.522 1973.48 250.332 Q1975.58 248.142 1978.96 246.854 Q1982.37 245.533 1986.11 245.533 Q1988.2 245.533 1990.26 246.242 Q1992.32 246.918 1993.48 247.788 Q1994.64 248.657 1994.64 249.301 M1984.95 259.382 Q1983.53 258.995 1981.83 258.995 Q1979.51 258.995 1977.8 259.575 Q1979.18 259.929 1981.31 259.929 Q1983.08 259.929 1983.6 259.833 Q1984.14 259.736 1984.95 259.382 Z" fill="#000000" fill-rule="nonzero" fill-opacity="1" /><path clip-path="url(#clip960)" d="M2016.78 265.404 Q2016.84 264.599 2018.1 264.599 L2058.51 264.599 Q2060.41 264.599 2060.45 265.34 Q2060.45 266.145 2058.64 266.113 L2018.55 266.113 Q2016.78 266.145 2016.78 265.404 M2016.78 252.522 Q2016.78 251.717 2018.16 251.749 L2058.45 251.749 Q2060.41 251.749 2060.45 252.522 Q2060.45 253.263 2058.77 253.263 L2018.1 253.263 Q2016.78 253.263 2016.78 252.522 Z" fill="#000000" fill-rule="nonzero" fill-opacity="1" /><path clip-path="url(#clip960)" d="M2085.89 254.325 Q2085.89 244.631 2088.34 239.35 Q2091.75 231.491 2099.81 231.491 Q2101.51 231.491 2103.28 231.974 Q2105.09 232.425 2107.34 234.197 Q2109.63 235.968 2111.01 238.867 Q2113.65 244.47 2113.65 254.325 Q2113.65 263.955 2111.21 269.204 Q2107.63 276.869 2099.74 276.869 Q2096.78 276.869 2093.75 275.356 Q2090.76 273.842 2088.86 270.203 Q2085.89 264.76 2085.89 254.325 M2091.37 253.52 Q2091.37 263.472 2092.08 267.433 Q2092.88 271.717 2095.07 273.584 Q2097.29 275.42 2099.74 275.42 Q2102.38 275.42 2104.57 273.456 Q2106.79 271.459 2107.47 267.175 Q2108.21 262.957 2108.18 253.52 Q2108.18 244.342 2107.53 240.67 Q2106.67 236.387 2104.35 234.68 Q2102.06 232.941 2099.74 232.941 Q2098.87 232.941 2097.94 233.198 Q2097.04 233.456 2095.72 234.197 Q2094.39 234.937 2093.36 236.773 Q2092.37 238.609 2091.88 241.379 Q2091.37 244.953 2091.37 253.52 Z" fill="#000000" fill-rule="nonzero" fill-opacity="1" /><path clip-path="url(#clip960)" d="M2119.55 274.357 Q2118.56 273.295 2118.56 271.91 Q2118.56 270.525 2119.55 269.527 Q2120.55 268.496 2122.07 268.496 Q2123.52 268.496 2124.48 269.462 Q2125.48 270.396 2125.48 271.942 Q2125.48 273.456 2124.42 274.454 Q2123.39 275.42 2122.07 275.42 Q2120.55 275.42 2119.55 274.357 Z" fill="#000000" fill-rule="nonzero" fill-opacity="1" /><path clip-path="url(#clip960)" d="M2136.71 254.325 Q2136.71 244.631 2139.15 239.35 Q2142.57 231.491 2150.62 231.491 Q2152.33 231.491 2154.1 231.974 Q2155.9 232.425 2158.16 234.197 Q2160.44 235.968 2161.83 238.867 Q2164.47 244.47 2164.47 254.325 Q2164.47 263.955 2162.02 269.204 Q2158.45 276.869 2150.56 276.869 Q2147.59 276.869 2144.56 275.356 Q2141.57 273.842 2139.67 270.203 Q2136.71 264.76 2136.71 254.325 M2142.18 253.52 Q2142.18 263.472 2142.89 267.433 Q2143.7 271.717 2145.89 273.584 Q2148.11 275.42 2150.56 275.42 Q2153.2 275.42 2155.39 273.456 Q2157.61 271.459 2158.28 267.175 Q2159.03 262.957 2158.99 253.52 Q2158.99 244.342 2158.35 240.67 Q2157.48 236.387 2155.16 234.68 Q2152.87 232.941 2150.56 232.941 Q2149.69 232.941 2148.75 233.198 Q2147.85 233.456 2146.53 234.197 Q2145.21 234.937 2144.18 236.773 Q2143.18 238.609 2142.7 241.379 Q2142.18 244.953 2142.18 253.52 Z" fill="#000000" fill-rule="nonzero" fill-opacity="1" /><polyline clip-path="url(#clip960)" style="stroke:#e26f46; stroke-linecap:round; stroke-linejoin:round; stroke-width:11; stroke-opacity:1; fill:none" points="1800.1,325.661 1944.05,325.661 "/>
<path clip-path="url(#clip960)" d="M1994.64 320.581 Q1994.64 321.258 1994.06 321.805 Q1993.52 322.353 1992.84 322.353 Q1992.45 322.353 1991.52 321.708 Q1988.85 319.841 1985.47 319.841 Q1982.44 319.841 1979.64 320.581 Q1976.83 321.322 1974.93 322.836 Q1973.07 324.317 1973.07 326.249 Q1973.07 328.665 1975.71 330.082 Q1978.44 328.826 1981.83 328.826 Q1982.92 328.826 1983.66 328.89 Q1984.43 328.955 1985.18 329.116 Q1985.92 329.277 1986.27 329.663 Q1986.66 330.018 1986.66 330.597 Q1986.66 332.658 1981.31 332.658 Q1977.83 332.658 1975.64 331.724 Q1972.84 333.109 1971.29 335.332 Q1969.75 337.554 1969.75 339.454 Q1969.75 341.096 1970.65 342.288 Q1971.58 343.48 1973.1 344.059 Q1974.64 344.639 1976.16 344.897 Q1977.7 345.122 1979.41 345.122 Q1982.21 345.122 1984.18 344.768 Q1986.17 344.381 1987.27 343.673 Q1988.4 342.964 1988.85 342.481 Q1989.33 341.966 1989.81 341.161 Q1990.1 340.71 1990.49 340.71 Q1990.78 340.71 1990.97 340.903 Q1991.2 341.064 1991.2 341.354 Q1991.2 341.708 1990.75 342.449 Q1990.33 343.19 1989.3 344.188 Q1988.3 345.154 1986.91 346.056 Q1985.56 346.926 1983.4 347.538 Q1981.25 348.149 1978.8 348.149 Q1973.81 348.149 1970.91 345.702 Q1968.04 343.254 1968.04 339.84 Q1968.04 337.457 1969.62 335.009 Q1971.23 332.53 1974.06 330.952 Q1971.42 328.987 1971.42 326.249 Q1971.42 323.802 1973.48 321.612 Q1975.58 319.422 1978.96 318.134 Q1982.37 316.813 1986.11 316.813 Q1988.2 316.813 1990.26 317.522 Q1992.32 318.198 1993.48 319.068 Q1994.64 319.937 1994.64 320.581 M1984.95 330.662 Q1983.53 330.275 1981.83 330.275 Q1979.51 330.275 1977.8 330.855 Q1979.18 331.209 1981.31 331.209 Q1983.08 331.209 1983.6 331.113 Q1984.14 331.016 1984.95 330.662 Z" fill="#000000" fill-rule="nonzero" fill-opacity="1" /><path clip-path="url(#clip960)" d="M2016.78 336.684 Q2016.84 335.879 2018.1 335.879 L2058.51 335.879 Q2060.41 335.879 2060.45 336.62 Q2060.45 337.425 2058.64 337.393 L2018.55 337.393 Q2016.78 337.425 2016.78 336.684 M2016.78 323.802 Q2016.78 322.997 2018.16 323.029 L2058.45 323.029 Q2060.41 323.029 2060.45 323.802 Q2060.45 324.543 2058.77 324.543 L2018.1 324.543 Q2016.78 324.543 2016.78 323.802 Z" fill="#000000" fill-rule="nonzero" fill-opacity="1" /><path clip-path="url(#clip960)" d="M2085.89 325.605 Q2085.89 315.911 2088.34 310.63 Q2091.75 302.771 2099.81 302.771 Q2101.51 302.771 2103.28 303.254 Q2105.09 303.705 2107.34 305.477 Q2109.63 307.248 2111.01 310.147 Q2113.65 315.75 2113.65 325.605 Q2113.65 335.235 2111.21 340.484 Q2107.63 348.149 2099.74 348.149 Q2096.78 348.149 2093.75 346.636 Q2090.76 345.122 2088.86 341.483 Q2085.89 336.04 2085.89 325.605 M2091.37 324.8 Q2091.37 334.752 2092.08 338.713 Q2092.88 342.997 2095.07 344.864 Q2097.29 346.7 2099.74 346.7 Q2102.38 346.7 2104.57 344.736 Q2106.79 342.739 2107.47 338.455 Q2108.21 334.237 2108.18 324.8 Q2108.18 315.622 2107.53 311.95 Q2106.67 307.667 2104.35 305.96 Q2102.06 304.221 2099.74 304.221 Q2098.87 304.221 2097.94 304.478 Q2097.04 304.736 2095.72 305.477 Q2094.39 306.217 2093.36 308.053 Q2092.37 309.889 2091.88 312.659 Q2091.37 316.233 2091.37 324.8 Z" fill="#000000" fill-rule="nonzero" fill-opacity="1" /><path clip-path="url(#clip960)" d="M2119.55 345.637 Q2118.56 344.575 2118.56 343.19 Q2118.56 341.805 2119.55 340.807 Q2120.55 339.776 2122.07 339.776 Q2123.52 339.776 2124.48 340.742 Q2125.48 341.676 2125.48 343.222 Q2125.48 344.736 2124.42 345.734 Q2123.39 346.7 2122.07 346.7 Q2120.55 346.7 2119.55 345.637 Z" fill="#000000" fill-rule="nonzero" fill-opacity="1" /><path clip-path="url(#clip960)" d="M2129.96 309.052 L2129.96 306.99 Q2137.88 306.99 2141.97 302.771 Q2143.1 302.771 2143.29 303.029 Q2143.48 303.287 2143.48 304.478 L2143.48 341.483 Q2143.48 343.447 2144.45 344.059 Q2145.42 344.671 2149.63 344.671 L2151.73 344.671 L2151.73 346.7 Q2149.41 346.507 2141.04 346.507 Q2132.66 346.507 2130.38 346.7 L2130.38 344.671 L2132.47 344.671 Q2136.62 344.671 2137.62 344.092 Q2138.62 343.48 2138.62 341.483 L2138.62 307.312 Q2135.17 309.052 2129.96 309.052 Z" fill="#000000" fill-rule="nonzero" fill-opacity="1" /><polyline clip-path="url(#clip960)" style="stroke:#3da44d; stroke-linecap:round; stroke-linejoin:round; stroke-width:11; stroke-opacity:1; fill:none" points="1800.1,396.941 1944.05,396.941 "/>
<path clip-path="url(#clip960)" d="M1994.64 391.861 Q1994.64 392.538 1994.06 393.085 Q1993.52 393.633 1992.84 393.633 Q1992.45 393.633 1991.52 392.988 Q1988.85 391.121 1985.47 391.121 Q1982.44 391.121 1979.64 391.861 Q1976.83 392.602 1974.93 394.116 Q1973.07 395.597 1973.07 397.529 Q1973.07 399.945 1975.71 401.362 Q1978.44 400.106 1981.83 400.106 Q1982.92 400.106 1983.66 400.17 Q1984.43 400.235 1985.18 400.396 Q1985.92 400.557 1986.27 400.943 Q1986.66 401.298 1986.66 401.877 Q1986.66 403.938 1981.31 403.938 Q1977.83 403.938 1975.64 403.004 Q1972.84 404.389 1971.29 406.612 Q1969.75 408.834 1969.75 410.734 Q1969.75 412.376 1970.65 413.568 Q1971.58 414.76 1973.1 415.339 Q1974.64 415.919 1976.16 416.177 Q1977.7 416.402 1979.41 416.402 Q1982.21 416.402 1984.18 416.048 Q1986.17 415.661 1987.27 414.953 Q1988.4 414.244 1988.85 413.761 Q1989.33 413.246 1989.81 412.441 Q1990.1 411.99 1990.49 411.99 Q1990.78 411.99 1990.97 412.183 Q1991.2 412.344 1991.2 412.634 Q1991.2 412.988 1990.75 413.729 Q1990.33 414.47 1989.3 415.468 Q1988.3 416.434 1986.91 417.336 Q1985.56 418.206 1983.4 418.818 Q1981.25 419.429 1978.8 419.429 Q1973.81 419.429 1970.91 416.982 Q1968.04 414.534 1968.04 411.12 Q1968.04 408.737 1969.62 406.289 Q1971.23 403.81 1974.06 402.232 Q1971.42 400.267 1971.42 397.529 Q1971.42 395.082 1973.48 392.892 Q1975.58 390.702 1978.96 389.414 Q1982.37 388.093 1986.11 388.093 Q1988.2 388.093 1990.26 388.802 Q1992.32 389.478 1993.48 390.348 Q1994.64 391.217 1994.64 391.861 M1984.95 401.942 Q1983.53 401.555 1981.83 401.555 Q1979.51 401.555 1977.8 402.135 Q1979.18 402.489 1981.31 402.489 Q1983.08 402.489 1983.6 402.393 Q1984.14 402.296 1984.95 401.942 Z" fill="#000000" fill-rule="nonzero" fill-opacity="1" /><path clip-path="url(#clip960)" d="M2016.78 407.964 Q2016.84 407.159 2018.1 407.159 L2058.51 407.159 Q2060.41 407.159 2060.45 407.9 Q2060.45 408.705 2058.64 408.673 L2018.55 408.673 Q2016.78 408.705 2016.78 407.964 M2016.78 395.082 Q2016.78 394.277 2018.16 394.309 L2058.45 394.309 Q2060.41 394.309 2060.45 395.082 Q2060.45 395.823 2058.77 395.823 L2018.1 395.823 Q2016.78 395.823 2016.78 395.082 Z" fill="#000000" fill-rule="nonzero" fill-opacity="1" /><path clip-path="url(#clip960)" d="M2085.89 396.885 Q2085.89 387.191 2088.34 381.91 Q2091.75 374.051 2099.81 374.051 Q2101.51 374.051 2103.28 374.534 Q2105.09 374.985 2107.34 376.757 Q2109.63 378.528 2111.01 381.427 Q2113.65 387.03 2113.65 396.885 Q2113.65 406.515 2111.21 411.764 Q2107.63 419.429 2099.74 419.429 Q2096.78 419.429 2093.75 417.916 Q2090.76 416.402 2088.86 412.763 Q2085.89 407.32 2085.89 396.885 M2091.37 396.08 Q2091.37 406.032 2092.08 409.993 Q2092.88 414.277 2095.07 416.144 Q2097.29 417.98 2099.74 417.98 Q2102.38 417.98 2104.57 416.016 Q2106.79 414.019 2107.47 409.735 Q2108.21 405.517 2108.18 396.08 Q2108.18 386.902 2107.53 383.23 Q2106.67 378.947 2104.35 377.24 Q2102.06 375.501 2099.74 375.501 Q2098.87 375.501 2097.94 375.758 Q2097.04 376.016 2095.72 376.757 Q2094.39 377.497 2093.36 379.333 Q2092.37 381.169 2091.88 383.939 Q2091.37 387.513 2091.37 396.08 Z" fill="#000000" fill-rule="nonzero" fill-opacity="1" /><path clip-path="url(#clip960)" d="M2119.55 416.917 Q2118.56 415.855 2118.56 414.47 Q2118.56 413.085 2119.55 412.087 Q2120.55 411.056 2122.07 411.056 Q2123.52 411.056 2124.48 412.022 Q2125.48 412.956 2125.48 414.502 Q2125.48 416.016 2124.42 417.014 Q2123.39 417.98 2122.07 417.98 Q2120.55 417.98 2119.55 416.917 Z" fill="#000000" fill-rule="nonzero" fill-opacity="1" /><path clip-path="url(#clip960)" d="M2136.71 417.98 Q2136.71 416.789 2136.8 416.434 Q2136.93 416.08 2137.45 415.533 L2150.1 401.426 Q2157.03 393.633 2157.03 386.837 Q2157.03 382.425 2154.71 379.269 Q2152.42 376.113 2148.2 376.113 Q2145.31 376.113 2142.86 377.884 Q2140.41 379.655 2139.28 382.811 Q2139.48 382.747 2140.15 382.747 Q2141.8 382.747 2142.7 383.778 Q2143.63 384.808 2143.63 386.193 Q2143.63 387.964 2142.47 388.834 Q2141.34 389.671 2140.22 389.671 Q2139.77 389.671 2139.15 389.575 Q2138.57 389.478 2137.64 388.576 Q2136.71 387.642 2136.71 386 Q2136.71 381.394 2140.18 377.723 Q2143.7 374.051 2149.04 374.051 Q2155.1 374.051 2159.06 377.658 Q2163.05 381.233 2163.05 386.837 Q2163.05 388.802 2162.44 390.605 Q2161.86 392.377 2161.05 393.761 Q2160.28 395.146 2158.16 397.368 Q2156.03 399.591 2154.32 401.169 Q2152.62 402.747 2148.78 406.096 L2141.8 412.892 L2153.68 412.892 Q2159.48 412.892 2159.93 412.376 Q2160.57 411.442 2161.38 406.515 L2163.05 406.515 L2161.18 417.98 L2136.71 417.98 Z" fill="#000000" fill-rule="nonzero" fill-opacity="1" /><polyline clip-path="url(#clip960)" style="stroke:#c271d2; stroke-linecap:round; stroke-linejoin:round; stroke-width:11; stroke-opacity:1; fill:none" points="1800.1,468.221 1944.05,468.221 "/>
<path clip-path="url(#clip960)" d="M1994.64 463.141 Q1994.64 463.818 1994.06 464.365 Q1993.52 464.913 1992.84 464.913 Q1992.45 464.913 1991.52 464.268 Q1988.85 462.401 1985.47 462.401 Q1982.44 462.401 1979.64 463.141 Q1976.83 463.882 1974.93 465.396 Q1973.07 466.877 1973.07 468.809 Q1973.07 471.225 1975.71 472.642 Q1978.44 471.386 1981.83 471.386 Q1982.92 471.386 1983.66 471.45 Q1984.43 471.515 1985.18 471.676 Q1985.92 471.837 1986.27 472.223 Q1986.66 472.578 1986.66 473.157 Q1986.66 475.218 1981.31 475.218 Q1977.83 475.218 1975.64 474.284 Q1972.84 475.669 1971.29 477.892 Q1969.75 480.114 1969.75 482.014 Q1969.75 483.656 1970.65 484.848 Q1971.58 486.04 1973.1 486.619 Q1974.64 487.199 1976.16 487.457 Q1977.7 487.682 1979.41 487.682 Q1982.21 487.682 1984.18 487.328 Q1986.17 486.941 1987.27 486.233 Q1988.4 485.524 1988.85 485.041 Q1989.33 484.526 1989.81 483.721 Q1990.1 483.27 1990.49 483.27 Q1990.78 483.27 1990.97 483.463 Q1991.2 483.624 1991.2 483.914 Q1991.2 484.268 1990.75 485.009 Q1990.33 485.75 1989.3 486.748 Q1988.3 487.714 1986.91 488.616 Q1985.56 489.486 1983.4 490.098 Q1981.25 490.709 1978.8 490.709 Q1973.81 490.709 1970.91 488.262 Q1968.04 485.814 1968.04 482.4 Q1968.04 480.017 1969.62 477.569 Q1971.23 475.09 1974.06 473.512 Q1971.42 471.547 1971.42 468.809 Q1971.42 466.362 1973.48 464.172 Q1975.58 461.982 1978.96 460.694 Q1982.37 459.373 1986.11 459.373 Q1988.2 459.373 1990.26 460.082 Q1992.32 460.758 1993.48 461.628 Q1994.64 462.497 1994.64 463.141 M1984.95 473.222 Q1983.53 472.835 1981.83 472.835 Q1979.51 472.835 1977.8 473.415 Q1979.18 473.769 1981.31 473.769 Q1983.08 473.769 1983.6 473.673 Q1984.14 473.576 1984.95 473.222 Z" fill="#000000" fill-rule="nonzero" fill-opacity="1" /><path clip-path="url(#clip960)" d="M2016.78 479.244 Q2016.84 478.439 2018.1 478.439 L2058.51 478.439 Q2060.41 478.439 2060.45 479.18 Q2060.45 479.985 2058.64 479.953 L2018.55 479.953 Q2016.78 479.985 2016.78 479.244 M2016.78 466.362 Q2016.78 465.557 2018.16 465.589 L2058.45 465.589 Q2060.41 465.589 2060.45 466.362 Q2060.45 467.103 2058.77 467.103 L2018.1 467.103 Q2016.78 467.103 2016.78 466.362 Z" fill="#000000" fill-rule="nonzero" fill-opacity="1" /><path clip-path="url(#clip960)" d="M2147.74 471.837 Q2148.12 472.223 2148.12 472.771 Q2148.12 473.318 2147.74 473.705 Q2147.35 474.091 2146.8 474.091 L2105.52 474.091 Q2104.97 474.091 2104.58 473.705 Q2104.2 473.318 2104.2 472.771 Q2104.2 472.223 2104.58 471.837 Q2104.97 471.45 2105.52 471.45 L2146.8 471.45 Q2147.35 471.45 2147.74 471.837 Z" fill="#000000" fill-rule="nonzero" fill-opacity="1" /><path clip-path="url(#clip960)" d="M2173.31 468.165 Q2173.31 458.471 2175.76 453.19 Q2179.17 445.331 2187.22 445.331 Q2188.93 445.331 2190.7 445.814 Q2192.51 446.265 2194.76 448.037 Q2197.05 449.808 2198.43 452.707 Q2201.07 458.31 2201.07 468.165 Q2201.07 477.795 2198.63 483.044 Q2195.05 490.709 2187.16 490.709 Q2184.2 490.709 2181.17 489.196 Q2178.18 487.682 2176.27 484.043 Q2173.31 478.6 2173.31 468.165 M2178.79 467.36 Q2178.79 477.312 2179.5 481.273 Q2180.3 485.557 2182.49 487.424 Q2184.71 489.26 2187.16 489.26 Q2189.8 489.26 2191.99 487.296 Q2194.21 485.299 2194.89 481.015 Q2195.63 476.797 2195.6 467.36 Q2195.6 458.182 2194.95 454.51 Q2194.08 450.227 2191.77 448.52 Q2189.48 446.781 2187.16 446.781 Q2186.29 446.781 2185.36 447.038 Q2184.46 447.296 2183.13 448.037 Q2181.81 448.777 2180.78 450.613 Q2179.79 452.449 2179.3 455.219 Q2178.79 458.793 2178.79 467.36 Z" fill="#000000" fill-rule="nonzero" fill-opacity="1" /><path clip-path="url(#clip960)" d="M2206.97 488.197 Q2205.98 487.135 2205.98 485.75 Q2205.98 484.365 2206.97 483.367 Q2207.97 482.336 2209.49 482.336 Q2210.94 482.336 2211.9 483.302 Q2212.9 484.236 2212.9 485.782 Q2212.9 487.296 2211.84 488.294 Q2210.81 489.26 2209.49 489.26 Q2207.97 489.26 2206.97 488.197 Z" fill="#000000" fill-rule="nonzero" fill-opacity="1" /><path clip-path="url(#clip960)" d="M2217.38 451.612 L2217.38 449.55 Q2225.3 449.55 2229.39 445.331 Q2230.52 445.331 2230.71 445.589 Q2230.9 445.847 2230.9 447.038 L2230.9 484.043 Q2230.9 486.007 2231.87 486.619 Q2232.84 487.231 2237.05 487.231 L2239.15 487.231 L2239.15 489.26 Q2236.83 489.067 2228.46 489.067 Q2220.08 489.067 2217.79 489.26 L2217.79 487.231 L2219.89 487.231 Q2224.04 487.231 2225.04 486.652 Q2226.04 486.04 2226.04 484.043 L2226.04 449.872 Q2222.59 451.612 2217.38 451.612 Z" fill="#000000" fill-rule="nonzero" fill-opacity="1" /><polyline clip-path="url(#clip960)" style="stroke:#ac8d18; stroke-linecap:round; stroke-linejoin:round; stroke-width:11; stroke-opacity:1; fill:none" points="1800.1,539.501 1944.05,539.501 "/>
<path clip-path="url(#clip960)" d="M1994.64 534.421 Q1994.64 535.098 1994.06 535.645 Q1993.52 536.193 1992.84 536.193 Q1992.45 536.193 1991.52 535.548 Q1988.85 533.681 1985.47 533.681 Q1982.44 533.681 1979.64 534.421 Q1976.83 535.162 1974.93 536.676 Q1973.07 538.157 1973.07 540.089 Q1973.07 542.505 1975.71 543.922 Q1978.44 542.666 1981.83 542.666 Q1982.92 542.666 1983.66 542.73 Q1984.43 542.795 1985.18 542.956 Q1985.92 543.117 1986.27 543.503 Q1986.66 543.858 1986.66 544.437 Q1986.66 546.498 1981.31 546.498 Q1977.83 546.498 1975.64 545.564 Q1972.84 546.949 1971.29 549.172 Q1969.75 551.394 1969.75 553.294 Q1969.75 554.936 1970.65 556.128 Q1971.58 557.32 1973.1 557.899 Q1974.64 558.479 1976.16 558.737 Q1977.7 558.962 1979.41 558.962 Q1982.21 558.962 1984.18 558.608 Q1986.17 558.221 1987.27 557.513 Q1988.4 556.804 1988.85 556.321 Q1989.33 555.806 1989.81 555.001 Q1990.1 554.55 1990.49 554.55 Q1990.78 554.55 1990.97 554.743 Q1991.2 554.904 1991.2 555.194 Q1991.2 555.548 1990.75 556.289 Q1990.33 557.03 1989.3 558.028 Q1988.3 558.994 1986.91 559.896 Q1985.56 560.766 1983.4 561.378 Q1981.25 561.989 1978.8 561.989 Q1973.81 561.989 1970.91 559.542 Q1968.04 557.094 1968.04 553.68 Q1968.04 551.297 1969.62 548.849 Q1971.23 546.37 1974.06 544.792 Q1971.42 542.827 1971.42 540.089 Q1971.42 537.642 1973.48 535.452 Q1975.58 533.262 1978.96 531.974 Q1982.37 530.653 1986.11 530.653 Q1988.2 530.653 1990.26 531.362 Q1992.32 532.038 1993.48 532.908 Q1994.64 533.777 1994.64 534.421 M1984.95 544.502 Q1983.53 544.115 1981.83 544.115 Q1979.51 544.115 1977.8 544.695 Q1979.18 545.049 1981.31 545.049 Q1983.08 545.049 1983.6 544.953 Q1984.14 544.856 1984.95 544.502 Z" fill="#000000" fill-rule="nonzero" fill-opacity="1" /><path clip-path="url(#clip960)" d="M2016.78 550.524 Q2016.84 549.719 2018.1 549.719 L2058.51 549.719 Q2060.41 549.719 2060.45 550.46 Q2060.45 551.265 2058.64 551.233 L2018.55 551.233 Q2016.78 551.265 2016.78 550.524 M2016.78 537.642 Q2016.78 536.837 2018.16 536.869 L2058.45 536.869 Q2060.41 536.869 2060.45 537.642 Q2060.45 538.383 2058.77 538.383 L2018.1 538.383 Q2016.78 538.383 2016.78 537.642 Z" fill="#000000" fill-rule="nonzero" fill-opacity="1" /><path clip-path="url(#clip960)" d="M2147.74 543.117 Q2148.12 543.503 2148.12 544.051 Q2148.12 544.598 2147.74 544.985 Q2147.35 545.371 2146.8 545.371 L2105.52 545.371 Q2104.97 545.371 2104.58 544.985 Q2104.2 544.598 2104.2 544.051 Q2104.2 543.503 2104.58 543.117 Q2104.97 542.73 2105.52 542.73 L2146.8 542.73 Q2147.35 542.73 2147.74 543.117 Z" fill="#000000" fill-rule="nonzero" fill-opacity="1" /><path clip-path="url(#clip960)" d="M2173.31 539.445 Q2173.31 529.751 2175.76 524.47 Q2179.17 516.611 2187.22 516.611 Q2188.93 516.611 2190.7 517.094 Q2192.51 517.545 2194.76 519.317 Q2197.05 521.088 2198.43 523.987 Q2201.07 529.59 2201.07 539.445 Q2201.07 549.075 2198.63 554.324 Q2195.05 561.989 2187.16 561.989 Q2184.2 561.989 2181.17 560.476 Q2178.18 558.962 2176.27 555.323 Q2173.31 549.88 2173.31 539.445 M2178.79 538.64 Q2178.79 548.592 2179.5 552.553 Q2180.3 556.837 2182.49 558.704 Q2184.71 560.54 2187.16 560.54 Q2189.8 560.54 2191.99 558.576 Q2194.21 556.579 2194.89 552.295 Q2195.63 548.077 2195.6 538.64 Q2195.6 529.462 2194.95 525.79 Q2194.08 521.507 2191.77 519.8 Q2189.48 518.061 2187.16 518.061 Q2186.29 518.061 2185.36 518.318 Q2184.46 518.576 2183.13 519.317 Q2181.81 520.057 2180.78 521.893 Q2179.79 523.729 2179.3 526.499 Q2178.79 530.073 2178.79 538.64 Z" fill="#000000" fill-rule="nonzero" fill-opacity="1" /><path clip-path="url(#clip960)" d="M2206.97 559.477 Q2205.98 558.415 2205.98 557.03 Q2205.98 555.645 2206.97 554.647 Q2207.97 553.616 2209.49 553.616 Q2210.94 553.616 2211.9 554.582 Q2212.9 555.516 2212.9 557.062 Q2212.9 558.576 2211.84 559.574 Q2210.81 560.54 2209.49 560.54 Q2207.97 560.54 2206.97 559.477 Z" fill="#000000" fill-rule="nonzero" fill-opacity="1" /><path clip-path="url(#clip960)" d="M2224.13 531.458 Q2224.13 527.948 2225.16 525.565 Q2226.19 523.149 2228.35 520.766 Q2232.31 516.611 2238.04 516.611 Q2240.49 516.611 2242.64 517.642 Q2244.83 518.673 2246.9 521.024 Q2248.99 523.342 2250.25 527.948 Q2251.5 532.521 2251.5 538.833 Q2251.5 549.043 2246.54 555.516 Q2241.61 561.989 2234.95 561.989 Q2230.73 561.989 2228.25 560.089 Q2225.77 558.157 2225.77 554.872 Q2225.77 553.165 2226.73 552.457 Q2227.7 551.716 2228.8 551.716 Q2229.99 551.716 2230.92 552.521 Q2231.86 553.294 2231.86 554.743 Q2231.86 555.935 2231.08 556.869 Q2230.34 557.77 2228.41 557.77 Q2230.31 560.154 2234.88 560.154 Q2236.53 560.154 2238.17 559.413 Q2239.81 558.64 2241.58 556.804 Q2243.39 554.936 2244.48 551.039 Q2245.58 547.143 2245.58 541.668 L2245.58 539.574 Q2242.93 546.176 2237.33 546.176 Q2231.79 546.176 2227.96 541.925 Q2224.13 537.674 2224.13 531.458 M2230.05 531.523 Q2230.05 538.061 2231.24 540.476 Q2233.27 544.631 2237.4 544.631 Q2241.42 544.631 2243.42 541.056 Q2245.45 537.449 2245.45 532.779 Q2245.45 526.305 2244.38 523.471 Q2242.42 518.254 2238.04 518.254 Q2233.69 518.254 2231.44 522.408 Q2230.05 524.856 2230.05 531.523 Z" fill="#000000" fill-rule="nonzero" fill-opacity="1" /></svg>
