<?xml version="1.0" encoding="utf-8"?>
<svg xmlns="http://www.w3.org/2000/svg" xmlns:xlink="http://www.w3.org/1999/xlink" width="600" height="400" viewBox="0 0 2400 1600">
<defs>
  <clipPath id="clip020">
    <rect x="0" y="0" width="2400" height="1600"/>
  </clipPath>
</defs>
<path clip-path="url(#clip020)" d="M0 1600 L2400 1600 L2400 0 L0 0  Z" fill="#ffffff" fill-rule="evenodd" fill-opacity="1"/>
<defs>
  <clipPath id="clip021">
    <rect x="480" y="0" width="1681" height="1600"/>
  </clipPath>
</defs>
<path clip-path="url(#clip020)" d="M271.828 1401.58 L2352.76 1401.58 L2352.76 125.739 L271.828 125.739  Z" fill="#ffffff" fill-rule="evenodd" fill-opacity="1"/>
<defs>
  <clipPath id="clip022">
    <rect x="271" y="125" width="2082" height="1277"/>
  </clipPath>
</defs>
<polyline clip-path="url(#clip022)" style="stroke:#000000; stroke-linecap:round; stroke-linejoin:round; stroke-width:2; stroke-opacity:0.1; fill:none" points="576.114,1401.58 576.114,125.739 "/>
<polyline clip-path="url(#clip022)" style="stroke:#000000; stroke-linecap:round; stroke-linejoin:round; stroke-width:2; stroke-opacity:0.1; fill:none" points="1066.9,1401.58 1066.9,125.739 "/>
<polyline clip-path="url(#clip022)" style="stroke:#000000; stroke-linecap:round; stroke-linejoin:round; stroke-width:2; stroke-opacity:0.1; fill:none" points="1557.68,1401.58 1557.68,125.739 "/>
<polyline clip-path="url(#clip022)" style="stroke:#000000; stroke-linecap:round; stroke-linejoin:round; stroke-width:2; stroke-opacity:0.1; fill:none" points="2048.47,1401.58 2048.47,125.739 "/>
<polyline clip-path="url(#clip022)" style="stroke:#000000; stroke-linecap:round; stroke-linejoin:round; stroke-width:2; stroke-opacity:0.1; fill:none" points="271.828,1365.47 2352.76,1365.47 "/>
<polyline clip-path="url(#clip022)" style="stroke:#000000; stroke-linecap:round; stroke-linejoin:round; stroke-width:2; stroke-opacity:0.1; fill:none" points="271.828,1148.74 2352.76,1148.74 "/>
<polyline clip-path="url(#clip022)" style="stroke:#000000; stroke-linecap:round; stroke-linejoin:round; stroke-width:2; stroke-opacity:0.1; fill:none" points="271.828,932.001 2352.76,932.001 "/>
<polyline clip-path="url(#clip022)" style="stroke:#000000; stroke-linecap:round; stroke-linejoin:round; stroke-width:2; stroke-opacity:0.1; fill:none" points="271.828,715.266 2352.76,715.266 "/>
<polyline clip-path="url(#clip022)" style="stroke:#000000; stroke-linecap:round; stroke-linejoin:round; stroke-width:2; stroke-opacity:0.1; fill:none" points="271.828,498.531 2352.76,498.531 "/>
<polyline clip-path="url(#clip022)" style="stroke:#000000; stroke-linecap:round; stroke-linejoin:round; stroke-width:2; stroke-opacity:0.1; fill:none" points="271.828,281.796 2352.76,281.796 "/>
<polyline clip-path="url(#clip020)" style="stroke:#000000; stroke-linecap:round; stroke-linejoin:round; stroke-width:4; stroke-opacity:1; fill:none" points="271.828,1401.58 2352.76,1401.58 "/>
<polyline clip-path="url(#clip020)" style="stroke:#000000; stroke-linecap:round; stroke-linejoin:round; stroke-width:4; stroke-opacity:1; fill:none" points="576.114,1401.58 576.114,1382.68 "/>
<polyline clip-path="url(#clip020)" style="stroke:#000000; stroke-linecap:round; stroke-linejoin:round; stroke-width:4; stroke-opacity:1; fill:none" points="1066.9,1401.58 1066.9,1382.68 "/>
<polyline clip-path="url(#clip020)" style="stroke:#000000; stroke-linecap:round; stroke-linejoin:round; stroke-width:4; stroke-opacity:1; fill:none" points="1557.68,1401.58 1557.68,1382.68 "/>
<polyline clip-path="url(#clip020)" style="stroke:#000000; stroke-linecap:round; stroke-linejoin:round; stroke-width:4; stroke-opacity:1; fill:none" points="2048.47,1401.58 2048.47,1382.68 "/>
<path clip-path="url(#clip020)" d="M534.785 1457.04 L575.589 1457.04 L575.589 1462.45 L534.785 1462.45 L534.785 1457.04 Z" fill="#000000" fill-rule="nonzero" fill-opacity="1" /><path clip-path="url(#clip020)" d="M595.005 1474.77 L617.444 1474.77 L617.444 1480.18 L587.27 1480.18 L587.27 1474.77 Q590.931 1470.98 597.233 1464.62 Q603.567 1458.22 605.19 1456.37 Q608.277 1452.9 609.487 1450.52 Q610.728 1448.1 610.728 1445.77 Q610.728 1441.99 608.054 1439.6 Q605.413 1437.21 601.148 1437.21 Q598.124 1437.21 594.75 1438.26 Q591.408 1439.31 587.589 1441.44 L587.589 1434.95 Q591.472 1433.39 594.846 1432.6 Q598.219 1431.8 601.02 1431.8 Q608.404 1431.8 612.797 1435.49 Q617.189 1439.18 617.189 1445.36 Q617.189 1448.29 616.075 1450.93 Q614.993 1453.54 612.097 1457.1 Q611.301 1458.03 607.036 1462.45 Q602.771 1466.84 595.005 1474.77 Z" fill="#000000" fill-rule="nonzero" fill-opacity="1" /><path clip-path="url(#clip020)" d="M1025.32 1457.04 L1066.12 1457.04 L1066.12 1462.45 L1025.32 1462.45 L1025.32 1457.04 Z" fill="#000000" fill-rule="nonzero" fill-opacity="1" /><path clip-path="url(#clip020)" d="M1081.11 1474.77 L1091.61 1474.77 L1091.61 1438.52 L1080.19 1440.81 L1080.19 1434.95 L1091.55 1432.66 L1097.98 1432.66 L1097.98 1474.77 L1108.48 1474.77 L1108.48 1480.18 L1081.11 1480.18 L1081.11 1474.77 Z" fill="#000000" fill-rule="nonzero" fill-opacity="1" /><path clip-path="url(#clip020)" d="M1557.68 1436.89 Q1552.72 1436.89 1550.2 1441.79 Q1547.72 1446.66 1547.72 1456.47 Q1547.72 1466.24 1550.2 1471.14 Q1552.72 1476.01 1557.68 1476.01 Q1562.68 1476.01 1565.16 1471.14 Q1567.68 1466.24 1567.68 1456.47 Q1567.68 1446.66 1565.16 1441.79 Q1562.68 1436.89 1557.68 1436.89 M1557.68 1431.8 Q1565.67 1431.8 1569.87 1438.13 Q1574.11 1444.44 1574.11 1456.47 Q1574.11 1468.47 1569.87 1474.8 Q1565.67 1481.1 1557.68 1481.1 Q1549.7 1481.1 1545.46 1474.8 Q1541.26 1468.47 1541.26 1456.47 Q1541.26 1444.44 1545.46 1438.13 Q1549.7 1431.8 1557.68 1431.8 Z" fill="#000000" fill-rule="nonzero" fill-opacity="1" /><path clip-path="url(#clip020)" d="M2035.24 1474.77 L2045.75 1474.77 L2045.75 1438.52 L2034.32 1440.81 L2034.32 1434.95 L2045.68 1432.66 L2052.11 1432.66 L2052.11 1474.77 L2062.62 1474.77 L2062.62 1480.18 L2035.24 1480.18 L2035.24 1474.77 Z" fill="#000000" fill-rule="nonzero" fill-opacity="1" /><path clip-path="url(#clip020)" d="M1325.75 1528.33 Q1325.75 1529.13 1325.06 1529.77 Q1324.42 1530.42 1323.62 1530.42 Q1323.16 1530.42 1322.06 1529.66 Q1318.9 1527.45 1314.9 1527.45 Q1311.32 1527.45 1308.01 1528.33 Q1304.7 1529.2 1302.46 1530.99 Q1300.25 1532.74 1300.25 1535.03 Q1300.25 1537.88 1303.37 1539.56 Q1306.6 1538.07 1310.6 1538.07 Q1311.89 1538.07 1312.77 1538.15 Q1313.68 1538.22 1314.56 1538.41 Q1315.43 1538.61 1315.85 1539.06 Q1316.31 1539.48 1316.31 1540.17 Q1316.31 1542.6 1309.99 1542.6 Q1305.88 1542.6 1303.29 1541.5 Q1299.98 1543.13 1298.15 1545.76 Q1296.33 1548.39 1296.33 1550.63 Q1296.33 1552.57 1297.39 1553.98 Q1298.5 1555.39 1300.29 1556.08 Q1302.11 1556.76 1303.9 1557.07 Q1305.73 1557.33 1307.75 1557.33 Q1311.06 1557.33 1313.38 1556.91 Q1315.74 1556.46 1317.03 1555.62 Q1318.37 1554.78 1318.9 1554.21 Q1319.47 1553.6 1320.04 1552.65 Q1320.38 1552.12 1320.84 1552.12 Q1321.18 1552.12 1321.41 1552.35 Q1321.68 1552.54 1321.68 1552.88 Q1321.68 1553.3 1321.14 1554.17 Q1320.65 1555.05 1319.43 1556.23 Q1318.25 1557.37 1316.61 1558.44 Q1315.02 1559.46 1312.47 1560.19 Q1309.92 1560.91 1307.02 1560.91 Q1301.12 1560.91 1297.7 1558.02 Q1294.31 1555.12 1294.31 1551.09 Q1294.31 1548.27 1296.18 1545.38 Q1298.08 1542.45 1301.43 1540.58 Q1298.31 1538.26 1298.31 1535.03 Q1298.31 1532.13 1300.74 1529.55 Q1303.22 1526.96 1307.21 1525.44 Q1311.25 1523.88 1315.66 1523.88 Q1318.14 1523.88 1320.57 1524.71 Q1323.01 1525.51 1324.38 1526.54 Q1325.75 1527.57 1325.75 1528.33 M1314.29 1540.24 Q1312.62 1539.79 1310.6 1539.79 Q1307.86 1539.79 1305.84 1540.47 Q1307.48 1540.89 1309.99 1540.89 Q1312.09 1540.89 1312.69 1540.77 Q1313.34 1540.66 1314.29 1540.24 Z" fill="#000000" fill-rule="nonzero" fill-opacity="1" /><polyline clip-path="url(#clip020)" style="stroke:#000000; stroke-linecap:round; stroke-linejoin:round; stroke-width:4; stroke-opacity:1; fill:none" points="271.828,1401.58 271.828,125.739 "/>
<polyline clip-path="url(#clip020)" style="stroke:#000000; stroke-linecap:round; stroke-linejoin:round; stroke-width:4; stroke-opacity:1; fill:none" points="271.828,1365.47 290.725,1365.47 "/>
<polyline clip-path="url(#clip020)" style="stroke:#000000; stroke-linecap:round; stroke-linejoin:round; stroke-width:4; stroke-opacity:1; fill:none" points="271.828,1148.74 290.725,1148.74 "/>
<polyline clip-path="url(#clip020)" style="stroke:#000000; stroke-linecap:round; stroke-linejoin:round; stroke-width:4; stroke-opacity:1; fill:none" points="271.828,932.001 290.725,932.001 "/>
<polyline clip-path="url(#clip020)" style="stroke:#000000; stroke-linecap:round; stroke-linejoin:round; stroke-width:4; stroke-opacity:1; fill:none" points="271.828,715.266 290.725,715.266 "/>
<polyline clip-path="url(#clip020)" style="stroke:#000000; stroke-linecap:round; stroke-linejoin:round; stroke-width:4; stroke-opacity:1; fill:none" points="271.828,498.531 290.725,498.531 "/>
<polyline clip-path="url(#clip020)" style="stroke:#000000; stroke-linecap:round; stroke-linejoin:round; stroke-width:4; stroke-opacity:1; fill:none" points="271.828,281.796 290.725,281.796 "/>
<path clip-path="url(#clip020)" d="M219.404 1345.94 Q214.439 1345.94 211.925 1350.85 Q209.442 1355.72 209.442 1365.52 Q209.442 1375.29 211.925 1380.19 Q214.439 1385.06 219.404 1385.06 Q224.401 1385.06 226.884 1380.19 Q229.398 1375.29 229.398 1365.52 Q229.398 1355.72 226.884 1350.85 Q224.401 1345.94 219.404 1345.94 M219.404 1340.85 Q227.393 1340.85 231.595 1347.19 Q235.828 1353.49 235.828 1365.52 Q235.828 1377.52 231.595 1383.85 Q227.393 1390.15 219.404 1390.15 Q211.415 1390.15 207.182 1383.85 Q202.981 1377.52 202.981 1365.52 Q202.981 1353.49 207.182 1347.19 Q211.415 1340.85 219.404 1340.85 Z" fill="#000000" fill-rule="nonzero" fill-opacity="1" /><path clip-path="url(#clip020)" d="M171.089 1167.09 L193.528 1167.09 L193.528 1172.5 L163.354 1172.5 L163.354 1167.09 Q167.015 1163.3 173.317 1156.93 Q179.65 1150.53 181.274 1148.69 Q184.361 1145.22 185.571 1142.83 Q186.812 1140.41 186.812 1138.09 Q186.812 1134.3 184.138 1131.91 Q181.496 1129.53 177.231 1129.53 Q174.208 1129.53 170.834 1130.58 Q167.492 1131.63 163.673 1133.76 L163.673 1127.27 Q167.556 1125.71 170.929 1124.91 Q174.303 1124.12 177.104 1124.12 Q184.488 1124.12 188.881 1127.81 Q193.273 1131.5 193.273 1137.68 Q193.273 1140.6 192.159 1143.25 Q191.077 1145.86 188.18 1149.42 Q187.385 1150.34 183.12 1154.77 Q178.855 1159.16 171.089 1167.09 Z" fill="#000000" fill-rule="nonzero" fill-opacity="1" /><path clip-path="url(#clip020)" d="M207.087 1124.98 L232.327 1124.98 L232.327 1130.39 L212.975 1130.39 L212.975 1142.04 Q214.375 1141.56 215.776 1141.34 Q217.176 1141.08 218.577 1141.08 Q226.534 1141.08 231.181 1145.44 Q235.828 1149.8 235.828 1157.25 Q235.828 1164.92 231.054 1169.19 Q226.279 1173.42 217.59 1173.42 Q214.598 1173.42 211.479 1172.91 Q208.392 1172.4 205.081 1171.38 L205.081 1164.92 Q207.946 1166.48 211.002 1167.24 Q214.057 1168.01 217.463 1168.01 Q222.969 1168.01 226.184 1165.11 Q229.398 1162.22 229.398 1157.25 Q229.398 1152.29 226.184 1149.39 Q222.969 1146.49 217.463 1146.49 Q214.885 1146.49 212.307 1147.07 Q209.76 1147.64 207.087 1148.85 L207.087 1124.98 Z" fill="#000000" fill-rule="nonzero" fill-opacity="1" /><path clip-path="url(#clip020)" d="M164.245 908.241 L189.485 908.241 L189.485 913.652 L170.134 913.652 L170.134 925.301 Q171.534 924.824 172.935 924.601 Q174.335 924.346 175.736 924.346 Q183.693 924.346 188.34 928.707 Q192.987 933.067 192.987 940.515 Q192.987 948.186 188.212 952.451 Q183.438 956.684 174.749 956.684 Q171.757 956.684 168.638 956.175 Q165.55 955.666 162.24 954.647 L162.24 948.186 Q165.105 949.746 168.16 950.51 Q171.216 951.273 174.622 951.273 Q180.128 951.273 183.343 948.377 Q186.557 945.481 186.557 940.515 Q186.557 935.55 183.343 932.654 Q180.128 929.757 174.622 929.757 Q172.043 929.757 169.465 930.33 Q166.919 930.903 164.245 932.113 L164.245 908.241 Z" fill="#000000" fill-rule="nonzero" fill-opacity="1" /><path clip-path="url(#clip020)" d="M219.404 912.474 Q214.439 912.474 211.925 917.376 Q209.442 922.246 209.442 932.049 Q209.442 941.82 211.925 946.722 Q214.439 951.592 219.404 951.592 Q224.401 951.592 226.884 946.722 Q229.398 941.82 229.398 932.049 Q229.398 922.246 226.884 917.376 Q224.401 912.474 219.404 912.474 M219.404 907.382 Q227.393 907.382 231.595 913.716 Q235.828 920.018 235.828 932.049 Q235.828 944.048 231.595 950.382 Q227.393 956.684 219.404 956.684 Q211.415 956.684 207.182 950.382 Q202.981 944.048 202.981 932.049 Q202.981 920.018 207.182 913.716 Q211.415 907.382 219.404 907.382 Z" fill="#000000" fill-rule="nonzero" fill-opacity="1" /><path clip-path="url(#clip020)" d="M163.927 691.506 L194.483 691.506 L194.483 694.244 L177.231 739.026 L170.516 739.026 L186.748 696.917 L163.927 696.917 L163.927 691.506 Z" fill="#000000" fill-rule="nonzero" fill-opacity="1" /><path clip-path="url(#clip020)" d="M207.087 691.506 L232.327 691.506 L232.327 696.917 L212.975 696.917 L212.975 708.566 Q214.375 708.089 215.776 707.866 Q217.176 707.611 218.577 707.611 Q226.534 707.611 231.181 711.972 Q235.828 716.333 235.828 723.78 Q235.828 731.451 231.054 735.716 Q226.279 739.949 217.59 739.949 Q214.598 739.949 211.479 739.44 Q208.392 738.931 205.081 737.912 L205.081 731.451 Q207.946 733.011 211.002 733.775 Q214.057 734.538 217.463 734.538 Q222.969 734.538 226.184 731.642 Q229.398 728.746 229.398 723.78 Q229.398 718.815 226.184 715.919 Q222.969 713.022 217.463 713.022 Q214.885 713.022 212.307 713.595 Q209.76 714.168 207.087 715.378 L207.087 691.506 Z" fill="#000000" fill-rule="nonzero" fill-opacity="1" /><path clip-path="url(#clip020)" d="M123.823 516.88 L134.327 516.88 L134.327 480.628 L122.9 482.919 L122.9 477.063 L134.263 474.771 L140.692 474.771 L140.692 516.88 L151.196 516.88 L151.196 522.291 L123.823 522.291 L123.823 516.88 Z" fill="#000000" fill-rule="nonzero" fill-opacity="1" /><path clip-path="url(#clip020)" d="M177.932 479.004 Q172.966 479.004 170.452 483.906 Q167.969 488.776 167.969 498.579 Q167.969 508.35 170.452 513.252 Q172.966 518.122 177.932 518.122 Q182.929 518.122 185.411 513.252 Q187.926 508.35 187.926 498.579 Q187.926 488.776 185.411 483.906 Q182.929 479.004 177.932 479.004 M177.932 473.912 Q185.921 473.912 190.122 480.246 Q194.355 486.548 194.355 498.579 Q194.355 510.578 190.122 516.912 Q185.921 523.214 177.932 523.214 Q169.943 523.214 165.71 516.912 Q161.508 510.578 161.508 498.579 Q161.508 486.548 165.71 480.246 Q169.943 473.912 177.932 473.912 Z" fill="#000000" fill-rule="nonzero" fill-opacity="1" /><path clip-path="url(#clip020)" d="M219.404 479.004 Q214.439 479.004 211.925 483.906 Q209.442 488.776 209.442 498.579 Q209.442 508.35 211.925 513.252 Q214.439 518.122 219.404 518.122 Q224.401 518.122 226.884 513.252 Q229.398 508.35 229.398 498.579 Q229.398 488.776 226.884 483.906 Q224.401 479.004 219.404 479.004 M219.404 473.912 Q227.393 473.912 231.595 480.246 Q235.828 486.548 235.828 498.579 Q235.828 510.578 231.595 516.912 Q227.393 523.214 219.404 523.214 Q211.415 523.214 207.182 516.912 Q202.981 510.578 202.981 498.579 Q202.981 486.548 207.182 480.246 Q211.415 473.912 219.404 473.912 Z" fill="#000000" fill-rule="nonzero" fill-opacity="1" /><path clip-path="url(#clip020)" d="M125.192 300.145 L135.695 300.145 L135.695 263.893 L124.269 266.184 L124.269 260.328 L135.632 258.036 L142.061 258.036 L142.061 300.145 L152.564 300.145 L152.564 305.556 L125.192 305.556 L125.192 300.145 Z" fill="#000000" fill-rule="nonzero" fill-opacity="1" /><path clip-path="url(#clip020)" d="M171.089 300.145 L193.528 300.145 L193.528 305.556 L163.354 305.556 L163.354 300.145 Q167.015 296.358 173.317 289.992 Q179.65 283.595 181.274 281.749 Q184.361 278.279 185.571 275.892 Q186.812 273.473 186.812 271.15 Q186.812 267.362 184.138 264.975 Q181.496 262.588 177.231 262.588 Q174.208 262.588 170.834 263.638 Q167.492 264.688 163.673 266.821 L163.673 260.328 Q167.556 258.768 170.929 257.973 Q174.303 257.177 177.104 257.177 Q184.488 257.177 188.881 260.869 Q193.273 264.561 193.273 270.736 Q193.273 273.664 192.159 276.306 Q191.077 278.916 188.18 282.481 Q187.385 283.404 183.12 287.828 Q178.855 292.22 171.089 300.145 Z" fill="#000000" fill-rule="nonzero" fill-opacity="1" /><path clip-path="url(#clip020)" d="M207.087 258.036 L232.327 258.036 L232.327 263.447 L212.975 263.447 L212.975 275.096 Q214.375 274.619 215.776 274.396 Q217.176 274.142 218.577 274.142 Q226.534 274.142 231.181 278.502 Q235.828 282.863 235.828 290.31 Q235.828 297.981 231.054 302.246 Q226.279 306.479 217.59 306.479 Q214.598 306.479 211.479 305.97 Q208.392 305.461 205.081 304.442 L205.081 297.981 Q207.946 299.541 211.002 300.305 Q214.057 301.069 217.463 301.069 Q222.969 301.069 226.184 298.172 Q229.398 295.276 229.398 290.31 Q229.398 285.345 226.184 282.449 Q222.969 279.552 217.463 279.552 Q214.885 279.552 212.307 280.125 Q209.76 280.698 207.087 281.908 L207.087 258.036 Z" fill="#000000" fill-rule="nonzero" fill-opacity="1" /><path clip-path="url(#clip020)" d="M37.6328 742.753 Q40.2971 742.753 40.2971 746.597 L40.2971 759.69 L66.9782 764.905 Q67.6633 765.019 68.0439 765.171 Q68.4245 765.285 69.0715 765.628 Q69.6805 765.932 69.985 766.579 Q70.3276 767.188 70.3276 768.102 Q70.3276 769.244 69.6425 769.815 Q68.9954 770.347 68.1961 770.347 Q67.7013 770.347 65.3415 769.586 L40.2971 761.936 L40.2971 768.406 Q40.2971 774.496 46.3108 778.302 Q47.1101 778.911 47.1862 779.254 Q47.2243 779.406 47.2243 779.558 Q47.2243 779.977 47.0339 780.243 Q46.8436 780.472 46.6533 780.472 L46.463 780.51 Q46.1966 780.51 45.1309 779.901 Q44.0271 779.254 42.3904 778.112 Q40.7538 776.932 39.4597 775.752 Q37.785 774.192 36.9096 772.441 Q35.9961 770.69 35.8819 769.815 Q35.7678 768.901 35.7678 767.721 L35.7678 745.874 Q35.7678 744.884 35.8439 744.351 Q35.8819 743.819 36.3387 743.286 Q36.7574 742.753 37.6328 742.753 Z" fill="#000000" fill-rule="nonzero" fill-opacity="1" /><path clip-path="url(#clip020)" d="M901.715 33.8519 Q901.715 36.7212 897.575 36.7212 L883.474 36.7212 L877.859 65.4547 Q877.736 66.1925 877.572 66.6024 Q877.449 67.0123 877.08 67.7091 Q876.752 68.3649 876.055 68.6928 Q875.399 69.0617 874.416 69.0617 Q873.186 69.0617 872.571 68.3239 Q871.997 67.6271 871.997 66.7663 Q871.997 66.2335 872.817 63.6921 L881.056 36.7212 L874.088 36.7212 Q867.53 36.7212 863.431 43.1975 Q862.775 44.0583 862.406 44.1403 Q862.242 44.1812 862.078 44.1812 Q861.627 44.1812 861.34 43.9763 Q861.094 43.7713 861.094 43.5664 L861.053 43.3615 Q861.053 43.0745 861.709 41.9268 Q862.406 40.7381 863.636 38.9756 Q864.906 37.2131 866.177 35.8194 Q867.857 34.0159 869.743 33.0731 Q871.628 32.0894 872.571 31.9664 Q873.555 31.8435 874.826 31.8435 L898.353 31.8435 Q899.419 31.8435 899.993 31.9254 Q900.567 31.9664 901.141 32.4583 Q901.715 32.9092 901.715 33.8519 Z" fill="#000000" fill-rule="nonzero" fill-opacity="1" /><path clip-path="url(#clip020)" d="M939.545 70.2169 Q939.545 71.8237 938.541 72.7418 Q937.537 73.6313 936.389 73.6313 Q935.299 73.6313 934.725 73.0001 Q934.151 72.3688 934.151 71.5655 Q934.151 70.4751 934.954 69.5283 Q935.758 68.5814 936.963 68.3806 Q935.786 67.6346 934.036 67.6346 Q932.889 67.6346 931.884 68.2371 Q930.909 68.8397 930.306 69.6144 Q929.732 70.3891 929.216 71.5081 Q928.728 72.5984 928.527 73.2583 Q928.355 73.8895 928.212 74.5782 L926.203 82.6121 Q925.228 86.4282 925.228 87.7767 Q925.228 89.4409 926.031 90.5599 Q926.834 91.6502 928.441 91.6502 Q929.072 91.6502 929.79 91.478 Q930.507 91.2772 931.425 90.7607 Q932.372 90.2156 933.204 89.4122 Q934.065 88.5801 934.897 87.1742 Q935.729 85.7682 936.274 83.9606 Q936.446 83.3294 937.02 83.3294 Q937.738 83.3294 937.738 83.9032 Q937.738 84.391 937.336 85.4239 Q936.963 86.4282 936.131 87.748 Q935.327 89.0392 934.266 90.2156 Q933.204 91.3633 931.626 92.1667 Q930.048 92.9701 928.326 92.9701 Q925.859 92.9701 924.223 91.6502 Q922.588 90.3303 921.985 88.494 Q921.842 88.7523 921.641 89.0966 Q921.44 89.4409 920.838 90.2156 Q920.264 90.9616 919.604 91.5354 Q918.944 92.0806 917.911 92.511 Q916.907 92.9701 915.817 92.9701 Q914.439 92.9701 913.206 92.5684 Q912 92.1667 911.14 91.2485 Q910.279 90.3303 910.279 89.0679 Q910.279 87.6619 911.226 86.6864 Q912.201 85.6822 913.521 85.6822 Q914.353 85.6822 915.013 86.1699 Q915.702 86.6577 915.702 87.7193 Q915.702 88.8957 914.898 89.7852 Q914.095 90.6747 912.947 90.9042 Q914.124 91.6502 915.874 91.6502 Q917.768 91.6502 919.26 89.986 Q920.752 88.3219 921.469 85.5387 Q923.248 78.8533 923.936 75.8693 Q924.625 72.8566 924.625 71.5655 Q924.625 70.3604 924.31 69.5283 Q923.994 68.6962 923.449 68.3232 Q922.932 67.9215 922.444 67.778 Q921.985 67.6346 921.469 67.6346 Q920.608 67.6346 919.633 67.9789 Q918.686 68.3232 917.538 69.1266 Q916.419 69.9013 915.357 71.5081 Q914.296 73.1148 913.579 75.3242 Q913.435 75.9841 912.804 75.9841 Q912.115 75.9554 912.115 75.3816 Q912.115 74.8938 912.488 73.8895 Q912.89 72.8566 913.693 71.5655 Q914.525 70.2743 915.587 69.1266 Q916.677 67.9502 918.255 67.1468 Q919.862 66.3434 921.584 66.3434 Q922.358 66.3434 923.104 66.5156 Q923.879 66.659 924.797 67.0894 Q925.744 67.5198 926.576 68.4667 Q927.408 69.4135 927.925 70.7908 Q928.269 70.1308 928.728 69.4996 Q929.216 68.8684 929.962 68.0937 Q930.737 67.2903 931.798 66.8312 Q932.889 66.3434 934.094 66.3434 Q935.27 66.3434 936.418 66.659 Q937.565 66.946 938.541 67.8928 Q939.545 68.811 939.545 70.2169 Z" fill="#000000" fill-rule="nonzero" fill-opacity="1" /><path clip-path="url(#clip020)" d="M944.387 91.3633 Q943.555 90.4164 943.555 89.1826 Q943.555 87.9489 944.359 87.0307 Q945.191 86.0839 946.683 86.0839 Q948.433 86.0839 949.437 87.7767 Q950.442 89.4409 950.442 92.2527 Q950.442 95.2941 949.208 98.106 Q947.974 100.947 946.769 102.295 Q945.564 103.644 945.076 103.644 Q944.502 103.644 944.502 103.012 Q944.502 102.783 944.904 102.352 Q949.122 97.8191 949.15 92.2527 Q949.15 91.3633 949.036 91.3633 L948.892 91.478 Q947.888 92.3101 946.683 92.3101 Q945.22 92.3101 944.387 91.3633 Z" fill="#000000" fill-rule="nonzero" fill-opacity="1" /><path clip-path="url(#clip020)" d="M968.984 82.8416 Q968.984 81.0914 969.931 80.4314 Q970.878 79.7428 971.882 79.7428 Q973.231 79.7428 974.005 80.6036 Q974.809 81.4357 974.809 82.6121 Q974.809 83.7885 974.005 84.6492 Q973.231 85.4813 971.882 85.4813 Q971.222 85.4813 970.878 85.3665 Q971.653 88.0636 974.005 90.0147 Q976.387 91.9658 979.514 91.9658 Q983.445 91.9658 985.798 88.1497 Q987.204 85.6822 987.204 80.0871 Q987.204 75.152 986.142 72.6845 Q984.507 68.9257 981.15 68.9257 Q976.387 68.9257 973.575 73.0288 Q973.231 73.5452 972.829 73.5739 Q972.255 73.5739 972.112 73.2583 Q971.997 72.914 971.997 72.0245 L971.997 54.6369 Q971.997 53.2309 972.571 53.2309 Q972.8 53.2309 973.288 53.4031 Q976.989 55.0386 981.092 55.0673 Q985.31 55.0673 989.098 53.3457 Q989.385 53.1736 989.557 53.1736 Q990.131 53.1736 990.159 53.8335 Q990.159 54.063 989.671 54.7516 Q989.212 55.4116 988.208 56.301 Q987.204 57.1618 985.913 57.9939 Q984.622 58.826 982.728 59.3998 Q980.863 59.945 978.797 59.945 Q976.329 59.945 973.805 59.1703 L973.805 70.6186 Q976.846 67.6346 981.265 67.6346 Q985.97 67.6346 989.212 71.422 Q992.455 75.2094 992.455 80.4888 Q992.455 86.0265 988.61 89.8139 Q984.794 93.6013 979.629 93.6013 Q974.924 93.6013 971.939 90.2443 Q968.984 86.8872 968.984 82.8416 Z" fill="#000000" fill-rule="nonzero" fill-opacity="1" /><path clip-path="url(#clip020)" d="M1109.54 45.124 Q1109.54 49.5918 1107.57 54.0187 Q1105.6 58.4045 1102.44 61.6837 Q1099.33 64.9218 1095.23 66.9713 Q1091.13 68.9798 1087.03 68.9798 Q1081.17 68.9798 1077.36 65.0038 Q1073.59 60.9868 1073.59 54.7565 Q1073.59 48.936 1076.83 43.4024 Q1080.1 37.8279 1085.35 34.3848 Q1090.6 30.9417 1096.09 30.9417 Q1101.87 30.9417 1105.68 34.8357 Q1109.54 38.7297 1109.54 45.124 M1103.39 41.8449 Q1103.39 37.8689 1101.46 35.3276 Q1099.53 32.7862 1096.01 32.7862 Q1094.98 32.7862 1093.8 33.1141 Q1092.61 33.4011 1091.05 34.1799 Q1089.53 34.9587 1087.81 36.5982 Q1086.13 38.1968 1084.65 40.4922 Q1082.73 43.5254 1081.25 49.1 Q1079.82 54.6335 1079.82 57.9536 Q1079.82 62.5444 1081.95 64.8398 Q1084.08 67.0942 1087.11 67.0942 Q1090.07 67.0942 1093.18 65.0448 Q1096.34 62.9543 1098.51 59.3883 Q1100.68 55.6992 1102.03 50.2886 Q1103.39 44.8371 1103.39 41.8449 Z" fill="#000000" fill-rule="nonzero" fill-opacity="1" /><path clip-path="url(#clip020)" d="M1155.75 14.628 Q1155.75 16.8824 1154.31 18.276 Q1152.92 19.6697 1151.16 19.6697 Q1149.89 19.6697 1148.95 18.8909 Q1148.04 18.1121 1148.04 16.7594 Q1148.04 15.3658 1149.11 13.8902 Q1150.18 12.4145 1152.59 12.2096 Q1150.99 10.693 1148.45 10.693 Q1147.18 10.693 1146.12 11.5128 Q1145.09 12.2916 1144.52 13.5622 Q1143.9 14.8739 1142.51 22.293 Q1142.06 24.7113 1141.65 27.0477 Q1141.24 29.3841 1140.75 31.8435 L1147.72 31.8435 Q1148.62 31.8435 1148.99 31.8845 Q1149.36 31.9254 1149.64 32.1304 Q1149.97 32.3353 1149.97 32.7862 Q1149.97 33.9339 1149.44 34.2208 Q1148.95 34.4668 1147.47 34.4668 L1140.26 34.4668 L1135.21 61.0688 Q1135.09 61.8476 1134.56 64.307 Q1134.07 66.7253 1132.88 70.7013 Q1131.69 74.7183 1130.5 77.0956 Q1129.84 78.4483 1128.98 79.7189 Q1128.16 81.0306 1126.98 82.3423 Q1125.79 83.6539 1124.23 84.4327 Q1122.67 85.2525 1121.03 85.2525 Q1118.24 85.2525 1116.07 83.6949 Q1113.9 82.1373 1113.9 79.473 Q1113.9 77.2186 1115.29 75.825 Q1116.73 74.4313 1118.49 74.4313 Q1119.76 74.4313 1120.66 75.2101 Q1121.61 75.9889 1121.61 77.3416 Q1121.61 77.9154 1121.4 78.5712 Q1121.2 79.2271 1120.74 79.9649 Q1120.29 80.7437 1119.31 81.2765 Q1118.33 81.8094 1116.97 81.8914 Q1118.57 83.408 1121.03 83.408 Q1121.81 83.408 1122.51 83.0801 Q1123.2 82.7931 1123.78 82.0553 Q1124.39 81.3175 1124.84 80.5797 Q1125.29 79.8829 1125.75 78.5303 Q1126.2 77.2186 1126.48 76.2349 Q1126.77 75.2511 1127.14 73.4886 Q1127.55 71.726 1127.75 70.6603 Q1127.96 69.6356 1128.33 67.6271 L1134.6 34.4668 L1129.07 34.4668 Q1128.08 34.4668 1127.67 34.4258 Q1127.3 34.3848 1127.02 34.1799 Q1126.73 33.9339 1126.73 33.442 Q1126.73 32.6633 1127.06 32.3353 Q1127.43 31.9664 1127.84 31.9254 Q1128.25 31.8435 1129.23 31.8435 L1135.05 31.8435 Q1137.02 21.4732 1137.8 18.6859 Q1138.7 15.7347 1140.09 13.6852 Q1141.49 11.5948 1143.04 10.611 Q1144.6 9.62728 1145.87 9.25838 Q1147.18 8.84848 1148.45 8.84848 Q1151.32 8.84848 1153.54 10.4061 Q1155.75 11.9227 1155.75 14.628 Z" fill="#000000" fill-rule="nonzero" fill-opacity="1" /><path clip-path="url(#clip020)" d="M1204.01 44.3452 Q1204.01 50.2477 1201.02 56.0271 Q1198.06 61.7656 1193.31 65.3727 Q1188.6 68.9798 1183.76 68.9798 Q1179.05 68.9798 1176.05 65.3727 Q1173.1 61.7247 1173.1 55.7812 Q1173.1 53.6908 1173.35 52.2151 Q1173.59 50.7395 1174.45 47.2964 L1181.34 19.9156 Q1182.53 14.7919 1182.53 14.7509 Q1182.53 14.2591 1182.32 14.0131 Q1182.16 13.7262 1181.18 13.5213 Q1180.19 13.3163 1178.31 13.3163 Q1177.53 13.3163 1177.16 13.2753 Q1176.83 13.2343 1176.55 13.0294 Q1176.3 12.7835 1176.3 12.2916 Q1176.3 11.5948 1176.59 11.2259 Q1176.91 10.816 1177.16 10.734 Q1177.41 10.652 1177.9 10.611 Q1178.59 10.57 1180.93 10.3651 Q1183.27 10.1192 1185.28 9.95519 Q1187.28 9.79124 1188.15 9.79124 Q1188.64 9.79124 1188.88 10.0372 Q1189.17 10.2421 1189.17 10.4881 L1189.21 10.693 L1183.02 35.9834 Q1187.9 30.9417 1192.86 30.9417 Q1197.82 30.9417 1200.89 34.7537 Q1204.01 38.5657 1204.01 44.3452 M1197.94 40.6562 Q1197.94 36.7622 1196.47 34.7947 Q1195.03 32.7862 1192.65 32.7862 Q1190.65 32.7862 1188.02 34.3028 Q1185.4 35.8194 1182.61 39.5085 Q1182.08 40.2053 1181.87 40.6152 Q1181.71 41.0251 1181.34 42.4187 L1179.5 50.1657 Q1178.14 55.4533 1178.14 58.6505 Q1178.14 62.9953 1179.74 65.0448 Q1181.34 67.0942 1183.76 67.0942 Q1186.3 67.0942 1188.96 64.8398 Q1191.63 62.5854 1193.68 58.4865 Q1194.95 55.7812 1196.42 49.9607 Q1197.94 44.0993 1197.94 40.6562 Z" fill="#000000" fill-rule="nonzero" fill-opacity="1" /><path clip-path="url(#clip020)" d="M1246.86 56.0271 Q1245.75 61.3148 1244.32 64.348 Q1242.02 68.9798 1238.13 68.9798 Q1235.18 68.9798 1233.08 67.1762 Q1230.99 65.3727 1230.5 62.6674 Q1225.13 68.9798 1219.56 68.9798 Q1214.64 68.9798 1211.52 65.2497 Q1208.41 61.4787 1208.41 55.5353 Q1208.41 49.5508 1211.36 43.8123 Q1214.35 38.0738 1219.07 34.5078 Q1223.78 30.9417 1228.62 30.9417 Q1233.74 30.9417 1236.36 36.3113 Q1236.57 34.8357 1237.51 33.729 Q1238.45 32.6223 1239.89 32.6223 Q1241 32.6223 1241.65 33.2371 Q1242.31 33.811 1242.31 34.8767 Q1242.31 35.4095 1241.73 37.7459 L1238.7 49.4689 L1236.86 57.0519 Q1236.16 59.8391 1235.95 60.8639 Q1235.79 61.8886 1235.79 63.2413 Q1235.79 67.0942 1238.29 67.0942 Q1239.52 67.0942 1240.5 66.3155 Q1241.49 65.5367 1242.27 63.8971 Q1243.05 62.2575 1243.54 60.7409 Q1244.03 59.1833 1244.68 56.724 Q1244.89 55.7402 1245.05 55.4943 Q1245.26 55.2074 1245.83 55.2074 Q1246.86 55.2074 1246.86 56.0271 M1235.34 40.1643 Q1235.34 39.7954 1235.05 38.7707 Q1234.77 37.7459 1234.11 36.3113 Q1233.45 34.8767 1232.02 33.8519 Q1230.63 32.7862 1228.74 32.7862 Q1226.2 32.7862 1223.53 34.9587 Q1220.91 37.1311 1218.98 40.8201 Q1217.51 43.7713 1215.91 49.9607 Q1214.35 56.1501 1214.35 59.2243 Q1214.35 61.1098 1214.76 62.7904 Q1215.21 64.4299 1216.48 65.7826 Q1217.75 67.0942 1219.72 67.0942 Q1224.52 67.0942 1229.23 61.1508 Q1230.13 60.1261 1230.34 59.7162 Q1230.58 59.2653 1230.91 58.0356 L1235.09 41.5989 Q1235.34 40.3692 1235.34 40.1643 Z" fill="#000000" fill-rule="nonzero" fill-opacity="1" /><path clip-path="url(#clip020)" d="M1292.34 10.693 L1280.25 59.2243 Q1279.76 61.3967 1279.76 63.2413 Q1279.76 67.0942 1282.26 67.0942 Q1283.49 67.0942 1284.47 66.3155 Q1285.45 65.5367 1286.23 63.8971 Q1287.01 62.2575 1287.5 60.7409 Q1287.99 59.1833 1288.65 56.724 Q1288.86 55.7402 1289.02 55.4943 Q1289.22 55.2074 1289.8 55.2074 Q1290.82 55.2074 1290.82 56.0271 Q1289.72 61.3148 1288.28 64.348 Q1285.99 68.9798 1282.09 68.9798 Q1279.14 68.9798 1277.05 67.1762 Q1274.96 65.3727 1274.47 62.6674 Q1269.1 68.9798 1263.52 68.9798 Q1258.61 68.9798 1255.49 65.2497 Q1252.37 61.4787 1252.37 55.5353 Q1252.37 49.5508 1255.33 43.8123 Q1258.32 38.0738 1263.03 34.5078 Q1267.75 30.9417 1272.58 30.9417 Q1277.71 30.9417 1280.33 36.3113 L1285.37 16.3905 L1285.62 14.7509 Q1285.62 14.2591 1285.41 14.0131 Q1285.25 13.7262 1284.26 13.5213 Q1283.32 13.3163 1281.44 13.3163 Q1280.66 13.3163 1280.29 13.2753 Q1279.96 13.2343 1279.67 13.0294 Q1279.39 12.7835 1279.39 12.2916 Q1279.39 10.857 1280.58 10.693 Q1288.45 9.79124 1291.23 9.79124 Q1291.72 9.79124 1292.01 10.0372 Q1292.3 10.2421 1292.3 10.4881 L1292.34 10.693 M1279.3 40.1643 Q1279.3 39.7954 1279.02 38.7707 Q1278.73 37.7459 1278.08 36.3113 Q1277.42 34.8767 1275.98 33.8519 Q1274.59 32.7862 1272.71 32.7862 Q1270.16 32.7862 1267.5 34.9587 Q1264.88 37.1311 1262.95 40.8201 Q1261.47 43.7713 1259.88 49.9607 Q1258.32 56.1501 1258.32 59.2243 Q1258.32 61.1098 1258.73 62.7904 Q1259.18 64.4299 1260.45 65.7826 Q1261.72 67.0942 1263.69 67.0942 Q1268.48 67.0942 1273.2 61.1508 Q1274.1 60.1261 1274.3 59.7162 Q1274.55 59.2653 1274.88 58.0356 L1279.06 41.5989 Q1279.3 40.3692 1279.3 40.1643 Z" fill="#000000" fill-rule="nonzero" fill-opacity="1" /><path clip-path="url(#clip020)" d="M1355.25 56.0271 Q1355.25 56.3551 1354.88 57.6257 Q1354.51 58.8964 1353.61 60.8639 Q1352.75 62.8314 1351.56 64.6349 Q1350.37 66.3974 1348.4 67.7091 Q1346.48 68.9798 1344.26 68.9798 Q1341.31 68.9798 1339.34 67.0123 Q1337.38 65.0448 1337.38 62.0936 Q1337.38 61.6837 1337.42 61.2738 Q1337.46 60.8639 1337.5 60.6179 Q1337.54 60.331 1337.66 59.8801 Q1337.83 59.3883 1337.87 59.1833 Q1337.95 58.9784 1338.16 58.3635 Q1338.4 57.7077 1338.48 57.4618 Q1343.69 44.1812 1343.69 38.6477 Q1343.69 32.7862 1339.14 32.7862 Q1335.08 32.7862 1331.06 35.7374 Q1329.22 37.2131 1327.46 39.8364 Q1325.69 42.4597 1325.37 43.4434 Q1325 45.5749 1324.46 47.2144 Q1324.22 48.3621 1323.03 52.83 L1321.19 60.413 L1319.59 66.7663 Q1319.26 67.6681 1318.36 68.3239 Q1317.46 68.9798 1316.47 68.9798 Q1315.65 68.9798 1314.83 68.4059 Q1314.05 67.873 1314.05 66.6024 Q1314.05 65.9465 1314.38 64.7579 L1326.56 16.3905 L1326.8 14.7509 Q1326.8 14.2591 1326.6 14.0131 Q1326.43 13.7262 1325.45 13.5213 Q1324.51 13.3163 1322.62 13.3163 Q1321.84 13.3163 1321.47 13.2753 Q1321.14 13.2343 1320.86 13.0294 Q1320.57 12.7835 1320.57 12.2916 Q1320.57 11.5948 1320.86 11.2259 Q1321.19 10.816 1321.43 10.734 Q1321.68 10.652 1322.17 10.611 Q1322.87 10.57 1325.2 10.3651 Q1327.54 10.1192 1329.55 9.95519 Q1331.56 9.79124 1332.42 9.79124 Q1332.91 9.79124 1333.15 10.0372 Q1333.44 10.2421 1333.48 10.4881 L1333.52 10.693 L1326.97 37.377 Q1332.17 30.9417 1339.38 30.9417 Q1344.06 30.9417 1346.56 33.3601 Q1349.06 35.7374 1349.06 39.9184 Q1349.06 44.7141 1343.93 58.3635 Q1342.42 62.1755 1342.42 64.348 Q1342.42 65.7826 1342.87 66.4384 Q1343.36 67.0942 1344.43 67.0942 Q1346.07 67.0942 1347.5 66.1515 Q1348.98 65.1678 1350 63.5692 Q1351.03 61.9296 1351.72 60.29 Q1352.46 58.6095 1352.99 56.724 Q1353.32 55.6992 1353.49 55.4533 Q1353.69 55.2074 1354.26 55.2074 Q1355.25 55.2074 1355.25 56.0271 Z" fill="#000000" fill-rule="nonzero" fill-opacity="1" /><path clip-path="url(#clip020)" d="M1399.36 56.0271 Q1398.25 61.3148 1396.81 64.348 Q1394.52 68.9798 1390.63 68.9798 Q1387.67 68.9798 1385.58 67.1762 Q1383.49 65.3727 1383 62.6674 Q1377.63 68.9798 1372.06 68.9798 Q1367.14 68.9798 1364.02 65.2497 Q1360.91 61.4787 1360.91 55.5353 Q1360.91 49.5508 1363.86 43.8123 Q1366.85 38.0738 1371.57 34.5078 Q1376.28 30.9417 1381.12 30.9417 Q1386.24 30.9417 1388.86 36.3113 Q1389.07 34.8357 1390.01 33.729 Q1390.95 32.6223 1392.39 32.6223 Q1393.49 32.6223 1394.15 33.2371 Q1394.81 33.811 1394.81 34.8767 Q1394.81 35.4095 1394.23 37.7459 L1391.2 49.4689 L1389.35 57.0519 Q1388.66 59.8391 1388.45 60.8639 Q1388.29 61.8886 1388.29 63.2413 Q1388.29 67.0942 1390.79 67.0942 Q1392.02 67.0942 1393 66.3155 Q1393.99 65.5367 1394.77 63.8971 Q1395.54 62.2575 1396.04 60.7409 Q1396.53 59.1833 1397.18 56.724 Q1397.39 55.7402 1397.55 55.4943 Q1397.76 55.2074 1398.33 55.2074 Q1399.36 55.2074 1399.36 56.0271 M1387.84 40.1643 Q1387.84 39.7954 1387.55 38.7707 Q1387.26 37.7459 1386.61 36.3113 Q1385.95 34.8767 1384.52 33.8519 Q1383.12 32.7862 1381.24 32.7862 Q1378.7 32.7862 1376.03 34.9587 Q1373.41 37.1311 1371.48 40.8201 Q1370.01 43.7713 1368.41 49.9607 Q1366.85 56.1501 1366.85 59.2243 Q1366.85 61.1098 1367.26 62.7904 Q1367.71 64.4299 1368.98 65.7826 Q1370.25 67.0942 1372.22 67.0942 Q1377.02 67.0942 1381.73 61.1508 Q1382.63 60.1261 1382.84 59.7162 Q1383.08 59.2653 1383.41 58.0356 L1387.59 41.5989 Q1387.84 40.3692 1387.84 40.1643 Z" fill="#000000" fill-rule="nonzero" fill-opacity="1" /><path clip-path="url(#clip020)" d="M1424.3 15.5707 Q1424.3 17.3743 1422.82 18.7269 Q1421.38 20.0386 1419.83 20.0386 Q1418.39 20.0386 1417.49 19.1778 Q1416.63 18.276 1416.63 17.0053 Q1416.63 15.3248 1418.06 13.9312 Q1419.5 12.5375 1421.18 12.5375 Q1422.57 12.5375 1423.43 13.3983 Q1424.3 14.2591 1424.3 15.5707 M1425.03 56.0271 Q1425.03 56.3551 1424.66 57.6667 Q1424.3 58.9374 1423.39 60.9049 Q1422.53 62.8314 1421.34 64.6349 Q1420.16 66.4384 1418.19 67.7091 Q1416.26 68.9798 1414.05 68.9798 Q1411.06 68.9798 1409.09 67.0123 Q1407.16 65.0448 1407.16 62.0936 Q1407.16 60.495 1409.09 55.3713 Q1414.66 40.4512 1414.87 39.8364 Q1415.81 37.5 1415.81 35.4505 Q1415.81 34.5078 1415.61 33.9339 Q1415.4 33.3191 1414.99 33.1141 Q1414.58 32.8682 1414.33 32.8272 Q1414.13 32.7862 1413.72 32.7862 Q1411.3 32.7862 1409.05 35.2456 Q1406.79 37.7049 1405.24 43.1975 Q1404.91 44.2222 1404.7 44.4682 Q1404.5 44.7141 1403.88 44.7141 Q1402.86 44.6731 1402.86 43.8533 Q1402.86 43.6074 1403.14 42.6646 Q1403.43 41.6809 1403.96 40.2053 Q1404.5 38.6887 1405.44 37.1311 Q1406.38 35.5325 1407.53 34.1389 Q1408.72 32.7452 1410.4 31.8435 Q1412.08 30.9417 1413.97 30.9417 Q1417.04 30.9417 1418.93 32.9502 Q1420.85 34.9177 1420.85 37.8279 Q1420.85 39.4265 1419.75 42.2547 Q1418.39 45.9438 1417.9 47.1325 L1414.62 55.9452 Q1413.43 59.1423 1413.06 60.1261 Q1412.74 61.0688 1412.45 62.2165 Q1412.2 63.3232 1412.2 64.348 Q1412.2 65.7826 1412.65 66.4384 Q1413.15 67.0942 1414.21 67.0942 Q1417.16 67.0942 1419.34 64.184 Q1421.51 61.2328 1422.78 56.724 Q1422.82 56.601 1422.86 56.396 Q1423.19 55.3713 1423.52 55.2483 Q1423.68 55.2074 1424.01 55.2074 Q1425.03 55.2074 1425.03 56.0271 Z" fill="#000000" fill-rule="nonzero" fill-opacity="1" /><path clip-path="url(#clip020)" d="M1466.38 36.3933 Q1466.38 38.5657 1464.94 39.9593 Q1463.55 41.353 1461.74 41.353 Q1460.19 41.353 1459.37 40.4512 Q1458.55 39.5495 1458.55 38.4018 Q1458.55 36.7622 1459.82 35.4095 Q1461.09 34.0569 1462.93 33.77 Q1461.58 32.7862 1459.41 32.7862 Q1455.84 32.7862 1452.69 35.5325 Q1451.29 36.8032 1449.77 39.1396 Q1448.26 41.435 1447.97 42.4187 L1445.31 53.3628 Q1445.06 54.5925 1443.54 60.495 Q1442.07 66.3564 1441.95 66.6024 Q1441.54 67.7501 1440.63 68.3649 Q1439.73 68.9798 1438.83 68.9798 Q1437.81 68.9798 1437.11 68.3649 Q1436.41 67.7501 1436.41 66.6844 Q1436.41 66.5204 1436.54 65.9056 Q1436.66 65.2907 1436.86 64.4299 Q1437.07 63.5692 1437.15 63.0773 L1442.03 43.6894 Q1442.93 40.1643 1443.13 39.0576 Q1443.38 37.9099 1443.38 36.6392 Q1443.38 34.4258 1442.68 33.606 Q1441.99 32.7862 1440.76 32.7862 Q1438.63 32.7862 1437.23 35.3276 Q1435.84 37.8689 1434.65 42.7876 Q1434.28 44.1403 1434.04 44.4272 Q1433.83 44.7141 1433.22 44.7141 Q1432.19 44.6731 1432.19 43.8533 Q1432.19 43.6484 1432.52 42.3367 Q1432.85 40.9841 1433.46 39.0166 Q1434.12 37.0081 1434.81 35.7374 Q1435.22 34.8767 1435.59 34.3028 Q1435.96 33.729 1436.7 32.8272 Q1437.44 31.9254 1438.54 31.4336 Q1439.65 30.9417 1441 30.9417 Q1443.95 30.9417 1446.04 32.7452 Q1448.18 34.5488 1448.67 37.377 Q1449.69 35.9014 1450.96 34.6307 Q1452.23 33.3191 1454.57 32.1304 Q1456.91 30.9417 1459.41 30.9417 Q1462.52 30.9417 1464.45 32.5403 Q1466.38 34.0979 1466.38 36.3933 Z" fill="#000000" fill-rule="nonzero" fill-opacity="1" /><path clip-path="url(#clip020)" d="M1470.85 66.6844 Q1469.66 65.3317 1469.66 63.5692 Q1469.66 61.8066 1470.81 60.495 Q1472 59.1423 1474.13 59.1423 Q1476.63 59.1423 1478.06 61.5607 Q1479.5 63.9381 1479.5 67.955 Q1479.5 72.2999 1477.74 76.3168 Q1475.97 80.3748 1474.25 82.3013 Q1472.53 84.2278 1471.83 84.2278 Q1471.01 84.2278 1471.01 83.326 Q1471.01 82.9981 1471.59 82.3832 Q1477.61 75.9069 1477.65 67.955 Q1477.65 66.6844 1477.49 66.6844 L1477.28 66.8483 Q1475.85 68.037 1474.13 68.037 Q1472.04 68.037 1470.85 66.6844 Z" fill="#000000" fill-rule="nonzero" fill-opacity="1" /><path clip-path="url(#clip020)" d="M1563.09 12.1276 Q1563.09 12.9064 1562.92 13.5622 L1560.63 28.1544 Q1560.5 29.2611 1560.26 29.671 Q1560.05 30.0809 1559.4 30.0809 Q1558.37 30.0809 1558.37 29.0152 Q1558.37 28.4004 1558.62 27.4166 Q1559.31 22.7848 1559.31 20.6944 Q1559.31 19.3007 1559.03 18.276 Q1558.78 17.2103 1558.37 16.4725 Q1558 15.7347 1557.14 15.2428 Q1556.28 14.7509 1555.46 14.464 Q1554.64 14.1771 1553.17 14.0541 Q1551.69 13.8902 1550.42 13.8492 Q1549.15 13.8082 1547.06 13.8082 Q1542.51 13.8082 1541.77 13.9721 Q1540.99 14.1771 1540.58 14.7919 Q1540.21 15.3658 1539.8 17.0873 L1528.65 61.6427 L1528.33 63.4052 Q1528.33 64.389 1528.94 64.7169 Q1529.56 65.0448 1531.44 65.2497 Q1534.15 65.4547 1536.81 65.4547 Q1536.89 65.4547 1537.06 65.4547 Q1537.96 65.4547 1538.33 65.4957 Q1538.7 65.4957 1539.07 65.5776 Q1539.43 65.6596 1539.52 65.8646 Q1539.64 66.0285 1539.64 66.3564 Q1539.64 67.1352 1539.31 67.5451 Q1538.98 67.914 1538.66 67.996 Q1538.37 68.037 1537.8 68.037 Q1536.65 68.037 1534.19 67.955 Q1531.73 67.873 1530.5 67.873 L1523.53 67.7911 L1516.4 67.873 Q1515.29 67.873 1512.96 67.955 Q1510.62 68.037 1509.51 68.037 Q1508.08 68.037 1508.08 67.0123 Q1508.08 65.8646 1508.61 65.6596 Q1509.18 65.4547 1511.6 65.4547 Q1515.01 65.4547 1516.85 65.2907 Q1518.69 65.1268 1519.68 64.5529 Q1520.7 63.9791 1520.99 63.4052 Q1521.28 62.7904 1521.6 61.3967 L1532.88 16.5955 Q1533.2 15.6117 1533.2 14.8329 Q1533.2 14.423 1533.08 14.2591 Q1533 14.0951 1532.47 13.9721 Q1531.93 13.8082 1530.83 13.8082 L1527.55 13.8082 Q1524.19 13.8082 1522.1 13.9721 Q1520.05 14.0951 1518.08 14.7099 Q1516.15 15.3248 1515.01 16.1856 Q1513.9 17.0463 1512.67 18.8089 Q1511.44 20.5714 1510.54 22.7029 Q1509.68 24.8343 1508.45 28.3184 Q1508.04 29.4661 1507.79 29.794 Q1507.59 30.0809 1507.01 30.0809 Q1506.6 30.0809 1506.27 29.835 Q1505.99 29.5481 1505.99 29.1792 Q1506.4 27.8265 1506.48 27.6626 L1511.52 12.8654 Q1511.93 11.6767 1512.3 11.4718 Q1512.71 11.2259 1514.23 11.2259 L1560.79 11.2259 Q1561.53 11.2259 1561.77 11.2259 Q1562.02 11.2259 1562.43 11.3078 Q1562.84 11.3898 1562.96 11.5948 Q1563.09 11.7997 1563.09 12.1276 Z" fill="#000000" fill-rule="nonzero" fill-opacity="1" /><path clip-path="url(#clip020)" d="M1577.83 55.2893 Q1577.91 54.2646 1579.51 54.2646 L1630.95 54.2646 Q1633.37 54.2646 1633.41 55.2074 Q1633.41 56.2321 1631.12 56.1911 L1580.09 56.1911 Q1577.83 56.2321 1577.83 55.2893 M1577.83 38.8936 Q1577.83 37.8689 1579.59 37.9099 L1630.87 37.9099 Q1633.37 37.9099 1633.41 38.8936 Q1633.41 39.8364 1631.28 39.8364 L1579.51 39.8364 Q1577.83 39.8364 1577.83 38.8936 Z" fill="#000000" fill-rule="nonzero" fill-opacity="1" /><path clip-path="url(#clip020)" d="M1665.79 20.1205 L1665.79 17.4972 Q1675.87 17.4972 1681.08 12.1276 Q1682.51 12.1276 1682.76 12.4555 Q1683.01 12.7835 1683.01 14.3001 L1683.01 61.3967 Q1683.01 63.8971 1684.24 64.6759 Q1685.47 65.4547 1690.84 65.4547 L1693.5 65.4547 L1693.5 68.037 Q1690.55 67.7911 1679.89 67.7911 Q1669.23 67.7911 1666.32 68.037 L1666.32 65.4547 L1668.99 65.4547 Q1674.28 65.4547 1675.55 64.7169 Q1676.82 63.9381 1676.82 61.3967 L1676.82 17.9071 Q1672.43 20.1205 1665.79 20.1205 Z" fill="#000000" fill-rule="nonzero" fill-opacity="1" /><path clip-path="url(#clip020)" d="M1700.13 66.6844 Q1698.86 65.3317 1698.86 63.5692 Q1698.86 61.8066 1700.13 60.536 Q1701.4 59.2243 1703.33 59.2243 Q1705.17 59.2243 1706.4 60.454 Q1707.67 61.6427 1707.67 63.6102 Q1707.67 65.5367 1706.32 66.8073 Q1705.01 68.037 1703.33 68.037 Q1701.4 68.037 1700.13 66.6844 Z" fill="#000000" fill-rule="nonzero" fill-opacity="1" /><path clip-path="url(#clip020)" d="M1721.96 54.5105 Q1721.96 52.0102 1723.31 51.0674 Q1724.67 50.0837 1726.1 50.0837 Q1728.03 50.0837 1729.13 51.3134 Q1730.28 52.5021 1730.28 54.1826 Q1730.28 55.8632 1729.13 57.0929 Q1728.03 58.2816 1726.1 58.2816 Q1725.16 58.2816 1724.67 58.1176 Q1725.77 61.9706 1729.13 64.7579 Q1732.54 67.5451 1737 67.5451 Q1742.62 67.5451 1745.98 62.0936 Q1747.99 58.5685 1747.99 50.5756 Q1747.99 43.5254 1746.47 40.0003 Q1744.14 34.6307 1739.34 34.6307 Q1732.54 34.6307 1728.52 40.4922 Q1728.03 41.23 1727.45 41.271 Q1726.63 41.271 1726.43 40.8201 Q1726.26 40.3282 1726.26 39.0576 L1726.26 14.2181 Q1726.26 12.2096 1727.08 12.2096 Q1727.41 12.2096 1728.11 12.4555 Q1733.4 14.7919 1739.26 14.8329 Q1745.28 14.8329 1750.69 12.3736 Q1751.1 12.1276 1751.35 12.1276 Q1752.17 12.1276 1752.21 13.0704 Q1752.21 13.3983 1751.51 14.382 Q1750.86 15.3248 1749.42 16.5955 Q1747.99 17.8251 1746.14 19.0138 Q1744.3 20.2025 1741.59 21.0223 Q1738.93 21.8011 1735.98 21.8011 Q1732.45 21.8011 1728.85 20.6944 L1728.85 37.0491 Q1733.19 32.7862 1739.5 32.7862 Q1746.23 32.7862 1750.86 38.1968 Q1755.49 43.6074 1755.49 51.1494 Q1755.49 59.0603 1750 64.4709 Q1744.55 69.8815 1737.17 69.8815 Q1730.44 69.8815 1726.18 65.0858 Q1721.96 60.29 1721.96 54.5105 Z" fill="#000000" fill-rule="nonzero" fill-opacity="1" /><polyline clip-path="url(#clip022)" style="stroke:#009af9; stroke-linecap:round; stroke-linejoin:round; stroke-width:8; stroke-opacity:1; fill:none" points="330.722,212.531 335.63,211.65 340.538,210.772 345.446,209.899 350.353,209.028 355.261,208.162 360.169,207.3 365.077,206.442 369.985,205.588 374.893,204.739 379.8,203.894 384.708,203.053 389.616,202.217 394.524,201.387 399.432,200.561 404.34,199.74 409.248,198.924 414.155,198.114 419.063,197.309 423.971,196.51 428.879,195.716 433.787,194.928 438.695,194.147 443.603,193.371 448.51,192.601 453.418,191.838 458.326,191.081 463.234,190.331 468.142,189.587 473.05,188.851 477.957,188.121 482.865,187.398 487.773,186.683 492.681,185.975 497.589,185.274 502.497,184.581 507.405,183.896 512.312,183.219 517.22,182.55 522.128,181.889 527.036,181.236 531.944,180.591 536.852,179.955 541.76,179.328 546.667,178.71 551.575,178.1 556.483,177.5 561.391,176.909 566.299,176.327 571.207,175.755 576.114,175.192 581.022,174.639 585.93,174.096 590.838,173.562 595.746,173.04 600.654,172.527 605.562,172.024 610.469,171.533 615.377,171.052 620.285,170.581 625.193,170.122 630.101,169.673 635.009,169.236 639.916,168.81 644.824,168.396 649.732,167.993 654.64,167.601 659.548,167.222 664.456,166.854 669.364,166.499 674.271,166.155 679.179,165.824 684.087,165.505 688.995,165.199 693.903,164.906 698.811,164.625 703.719,164.357 708.626,164.102 713.534,163.86 718.442,163.631 723.35,163.416 728.258,163.214 733.166,163.025 738.073,162.85 742.981,162.689 747.889,162.541 752.797,162.408 757.705,162.288 762.613,162.183 767.521,162.092 772.428,162.015 777.336,161.952 782.244,161.904 787.152,161.871 792.06,161.852 796.968,161.848 801.876,161.858 806.783,161.884 811.691,161.924 816.599,161.979 821.507,162.05 826.415,162.135 831.323,162.236 836.23,162.352 841.138,162.484 846.046,162.631 850.954,162.793 855.862,162.971 860.77,163.164 865.678,163.373 870.585,163.597 875.493,163.838 880.401,164.094 885.309,164.365 890.217,164.653 895.125,164.956 900.033,165.275 904.94,165.611 909.848,165.962 914.756,166.328 919.664,166.711 924.572,167.11 929.48,167.525 934.387,167.956 939.295,168.402 944.203,168.865 949.111,169.344 954.019,169.838 958.927,170.349 963.835,170.875 968.742,171.418 973.65,171.976 978.558,172.551 983.466,173.141 988.374,173.747 993.282,174.369 998.189,175.007 1003.1,175.66 1008.01,176.329 1012.91,177.014 1017.82,177.715 1022.73,178.431 1027.64,179.162 1032.54,179.91 1037.45,180.672 1042.36,181.45 1047.27,182.243 1052.18,183.052 1057.08,183.875 1061.99,184.714 1066.9,185.568 1071.81,186.437 1076.72,187.32 1081.62,188.219 1086.53,189.132 1091.44,190.06 1096.35,191.002 1101.25,191.959 1106.16,192.93 1111.07,193.915 1115.98,194.914 1120.89,195.928 1125.79,196.955 1130.7,197.996 1135.61,199.051 1140.52,200.119 1145.42,201.201 1150.33,202.297 1155.24,203.405 1160.15,204.526 1165.06,205.661 1169.96,206.808 1174.87,207.968 1179.78,209.141 1184.69,210.326 1189.6,211.523 1194.5,212.732 1199.41,213.954 1204.32,215.187 1209.23,216.432 1214.13,217.688 1219.04,218.956 1223.95,220.235 1228.86,221.525 1233.77,222.826 1238.67,224.138 1243.58,225.461 1248.49,226.794 1253.4,228.137 1258.31,229.491 1263.21,230.854 1268.12,232.227 1273.03,233.61 1277.94,235.002 1282.84,236.404 1287.75,237.814 1292.66,239.234 1297.57,240.662 1302.48,242.099 1307.38,243.544 1312.29,244.998 1317.2,246.46 1322.11,247.929 1327.02,249.406 1331.92,250.891 1336.83,252.383 1341.74,253.882 1346.65,255.388 1351.55,256.901 1356.46,258.42 1361.37,259.946 1366.28,261.479 1371.19,263.017 1376.09,264.561 1381,266.111 1385.91,267.666 1390.82,269.226 1395.73,270.792 1400.63,272.363 1405.54,273.938 1410.45,275.518 1415.36,277.102 1420.26,278.691 1425.17,280.283 1430.08,281.88 1434.99,283.48 1439.9,285.083 1444.8,286.69 1449.71,288.3 1454.62,289.913 1459.53,291.529 1464.44,293.147 1469.34,294.768 1474.25,296.391 1479.16,298.015 1484.07,299.642 1488.97,301.271 1493.88,302.901 1498.79,304.532 1503.7,306.164 1508.61,307.798 1513.51,309.432 1518.42,311.067 1523.33,312.702 1528.24,314.338 1533.15,315.974 1538.05,317.61 1542.96,319.246 1547.87,320.881 1552.78,322.516 1557.68,324.15 1562.59,325.784 1567.5,327.416 1572.41,329.047 1577.32,330.677 1582.22,332.306 1587.13,333.933 1592.04,335.558 1596.95,337.182 1601.85,338.803 1606.76,340.422 1611.67,342.039 1616.58,343.654 1621.49,345.266 1626.39,346.875 1631.3,348.481 1636.21,350.084 1641.12,351.684 1646.03,353.281 1650.93,354.874 1655.84,356.464 1660.75,358.05 1665.66,359.633 1670.56,361.211 1675.47,362.785 1680.38,364.356 1685.29,365.922 1690.2,367.483 1695.1,369.04 1700.01,370.593 1704.92,372.14 1709.83,373.683 1714.74,375.221 1719.64,376.754 1724.55,378.282 1729.46,379.804 1734.37,381.321 1739.27,382.832 1744.18,384.338 1749.09,385.839 1754,387.333 1758.91,388.822 1763.81,390.305 1768.72,391.781 1773.63,393.252 1778.54,394.716 1783.45,396.174 1788.35,397.626 1793.26,399.071 1798.17,400.51 1803.08,401.942 1807.98,403.368 1812.89,404.786 1817.8,406.198 1822.71,407.603 1827.62,409.001 1832.52,410.392 1837.43,411.776 1842.34,413.153 1847.25,414.522 1852.16,415.884 1857.06,417.239 1861.97,418.586 1866.88,419.926 1871.79,421.259 1876.69,422.584 1881.6,423.901 1886.51,425.21 1891.42,426.512 1896.33,427.806 1901.23,429.093 1906.14,430.371 1911.05,431.642 1915.96,432.904 1920.87,434.159 1925.77,435.406 1930.68,436.644 1935.59,437.875 1940.5,439.097 1945.4,440.312 1950.31,441.518 1955.22,442.716 1960.13,443.905 1965.04,445.087 1969.94,446.26 1974.85,447.425 1979.76,448.581 1984.67,449.729 1989.58,450.869 1994.48,452 1999.39,453.123 2004.3,454.238 2009.21,455.344 2014.11,456.442 2019.02,457.531 2023.93,458.611 2028.84,459.684 2033.75,460.747 2038.65,461.803 2043.56,462.849 2048.47,463.888 2053.38,464.917 2058.28,465.938 2063.19,466.951 2068.1,467.955 2073.01,468.951 2077.92,469.938 2082.82,470.916 2087.73,471.886 2092.64,472.847 2097.55,473.8 2102.46,474.745 2107.36,475.681 2112.27,476.608 2117.18,477.527 2122.09,478.437 2126.99,479.339 2131.9,480.233 2136.81,481.118 2141.72,481.994 2146.63,482.862 2151.53,483.722 2156.44,484.573 2161.35,485.416 2166.26,486.251 2171.17,487.077 2176.07,487.895 2180.98,488.704 2185.89,489.505 2190.8,490.298 2195.7,491.083 2200.61,491.859 2205.52,492.627 2210.43,493.387 2215.34,494.139 2220.24,494.883 2225.15,495.618 2230.06,496.346 2234.97,497.065 2239.88,497.776 2244.78,498.48 2249.69,499.175 2254.6,499.862 2259.51,500.541 2264.41,501.213 2269.32,501.876 2274.23,502.532 2279.14,503.18 2284.05,503.82 2288.95,504.452 2293.86,505.076 "/>
<polyline clip-path="url(#clip022)" style="stroke:#e26f46; stroke-linecap:round; stroke-linejoin:round; stroke-width:8; stroke-opacity:1; fill:none" points="330.722,223.535 335.63,222.656 340.538,221.781 345.446,220.909 350.353,220.04 355.261,219.176 360.169,218.315 365.077,217.458 369.985,216.606 374.893,215.757 379.8,214.913 384.708,214.074 389.616,213.239 394.524,212.409 399.432,211.583 404.34,210.762 409.248,209.947 414.155,209.136 419.063,208.331 423.971,207.531 428.879,206.737 433.787,205.949 438.695,205.166 443.603,204.389 448.51,203.618 453.418,202.853 458.326,202.095 463.234,201.343 468.142,200.597 473.05,199.858 477.957,199.126 482.865,198.401 487.773,197.683 492.681,196.972 497.589,196.268 502.497,195.571 507.405,194.883 512.312,194.202 517.22,193.528 522.128,192.863 527.036,192.206 531.944,191.556 536.852,190.916 541.76,190.283 546.667,189.66 551.575,189.045 556.483,188.439 561.391,187.841 566.299,187.253 571.207,186.675 576.114,186.105 581.022,185.545 585.93,184.995 590.838,184.455 595.746,183.924 600.654,183.403 605.562,182.893 610.469,182.393 615.377,181.903 620.285,181.424 625.193,180.955 630.101,180.498 635.009,180.051 639.916,179.615 644.824,179.19 649.732,178.777 654.64,178.375 659.548,177.985 664.456,177.606 669.364,177.239 674.271,176.884 679.179,176.541 684.087,176.21 688.995,175.891 693.903,175.585 698.811,175.291 703.719,175.009 708.626,174.741 713.534,174.485 718.442,174.242 723.35,174.012 728.258,173.795 733.166,173.592 738.073,173.401 742.981,173.225 747.889,173.061 752.797,172.911 757.705,172.775 762.613,172.653 767.521,172.545 772.428,172.451 777.336,172.37 782.244,172.304 787.152,172.253 792.06,172.215 796.968,172.192 801.876,172.183 806.783,172.189 811.691,172.21 816.599,172.245 821.507,172.295 826.415,172.36 831.323,172.44 836.23,172.535 841.138,172.645 846.046,172.77 850.954,172.91 855.862,173.065 860.77,173.236 865.678,173.422 870.585,173.623 875.493,173.839 880.401,174.071 885.309,174.319 890.217,174.581 895.125,174.86 900.033,175.154 904.94,175.463 909.848,175.788 914.756,176.129 919.664,176.485 924.572,176.857 929.48,177.245 934.387,177.649 939.295,178.068 944.203,178.502 949.111,178.953 954.019,179.419 958.927,179.9 963.835,180.398 968.742,180.911 973.65,181.439 978.558,181.984 983.466,182.543 988.374,183.119 993.282,183.71 998.189,184.316 1003.1,184.938 1008.01,185.575 1012.91,186.228 1017.82,186.896 1022.73,187.58 1027.64,188.278 1032.54,188.992 1037.45,189.721 1042.36,190.465 1047.27,191.224 1052.18,191.999 1057.08,192.788 1061.99,193.591 1066.9,194.41 1071.81,195.243 1076.72,196.091 1081.62,196.954 1086.53,197.831 1091.44,198.722 1096.35,199.627 1101.25,200.547 1106.16,201.481 1111.07,202.429 1115.98,203.39 1120.89,204.366 1125.79,205.355 1130.7,206.357 1135.61,207.373 1140.52,208.403 1145.42,209.445 1150.33,210.501 1155.24,211.57 1160.15,212.652 1165.06,213.746 1169.96,214.853 1174.87,215.972 1179.78,217.104 1184.69,218.248 1189.6,219.404 1194.5,220.572 1199.41,221.752 1204.32,222.943 1209.23,224.146 1214.13,225.36 1219.04,226.586 1223.95,227.822 1228.86,229.07 1233.77,230.328 1238.67,231.597 1243.58,232.876 1248.49,234.166 1253.4,235.465 1258.31,236.775 1263.21,238.094 1268.12,239.423 1273.03,240.762 1277.94,242.11 1282.84,243.466 1287.75,244.832 1292.66,246.207 1297.57,247.59 1302.48,248.982 1307.38,250.382 1312.29,251.79 1317.2,253.206 1322.11,254.63 1327.02,256.061 1331.92,257.5 1336.83,258.946 1341.74,260.399 1346.65,261.859 1351.55,263.325 1356.46,264.798 1361.37,266.278 1366.28,267.763 1371.19,269.254 1376.09,270.752 1381,272.254 1385.91,273.763 1390.82,275.276 1395.73,276.795 1400.63,278.318 1405.54,279.846 1410.45,281.378 1415.36,282.915 1420.26,284.456 1425.17,286.001 1430.08,287.55 1434.99,289.102 1439.9,290.658 1444.8,292.217 1449.71,293.779 1454.62,295.344 1459.53,296.912 1464.44,298.482 1469.34,300.055 1474.25,301.63 1479.16,303.207 1484.07,304.785 1488.97,306.366 1493.88,307.947 1498.79,309.531 1503.7,311.115 1508.61,312.7 1513.51,314.286 1518.42,315.873 1523.33,317.46 1528.24,319.048 1533.15,320.636 1538.05,322.223 1542.96,323.811 1547.87,325.398 1552.78,326.985 1557.68,328.571 1562.59,330.157 1567.5,331.741 1572.41,333.324 1577.32,334.906 1582.22,336.487 1587.13,338.066 1592.04,339.643 1596.95,341.219 1601.85,342.793 1606.76,344.364 1611.67,345.933 1616.58,347.5 1621.49,349.064 1626.39,350.625 1631.3,352.184 1636.21,353.74 1641.12,355.292 1646.03,356.842 1650.93,358.388 1655.84,359.93 1660.75,361.469 1665.66,363.004 1670.56,364.536 1675.47,366.063 1680.38,367.586 1685.29,369.105 1690.2,370.62 1695.1,372.131 1700.01,373.636 1704.92,375.137 1709.83,376.634 1714.74,378.125 1719.64,379.612 1724.55,381.093 1729.46,382.569 1734.37,384.04 1739.27,385.506 1744.18,386.966 1749.09,388.42 1754,389.869 1758.91,391.312 1763.81,392.75 1768.72,394.181 1773.63,395.606 1778.54,397.025 1783.45,398.438 1788.35,399.845 1793.26,401.245 1798.17,402.639 1803.08,404.027 1807.98,405.407 1812.89,406.782 1817.8,408.149 1822.71,409.51 1827.62,410.864 1832.52,412.21 1837.43,413.55 1842.34,414.883 1847.25,416.209 1852.16,417.528 1857.06,418.839 1861.97,420.143 1866.88,421.44 1871.79,422.729 1876.69,424.011 1881.6,425.285 1886.51,426.552 1891.42,427.811 1896.33,429.063 1901.23,430.307 1906.14,431.543 1911.05,432.771 1915.96,433.992 1920.87,435.204 1925.77,436.409 1930.68,437.606 1935.59,438.795 1940.5,439.976 1945.4,441.149 1950.31,442.314 1955.22,443.471 1960.13,444.62 1965.04,445.76 1969.94,446.893 1974.85,448.017 1979.76,449.133 1984.67,450.241 1989.58,451.341 1994.48,452.432 1999.39,453.515 2004.3,454.59 2009.21,455.656 2014.11,456.714 2019.02,457.764 2023.93,458.806 2028.84,459.839 2033.75,460.864 2038.65,461.88 2043.56,462.888 2048.47,463.888 2053.38,464.879 2058.28,465.862 2063.19,466.836 2068.1,467.802 2073.01,468.76 2077.92,469.709 2082.82,470.65 2087.73,471.582 2092.64,472.506 2097.55,473.422 2102.46,474.329 2107.36,475.228 2112.27,476.118 2117.18,477 2122.09,477.874 2126.99,478.739 2131.9,479.597 2136.81,480.445 2141.72,481.286 2146.63,482.118 2151.53,482.942 2156.44,483.757 2161.35,484.564 2166.26,485.363 2171.17,486.154 2176.07,486.937 2180.98,487.711 2185.89,488.478 2190.8,489.236 2195.7,489.986 2200.61,490.727 2205.52,491.461 2210.43,492.187 2215.34,492.904 2220.24,493.614 2225.15,494.315 2230.06,495.009 2234.97,495.695 2239.88,496.372 2244.78,497.042 2249.69,497.704 2254.6,498.358 2259.51,499.004 2264.41,499.643 2269.32,500.273 2274.23,500.896 2279.14,501.512 2284.05,502.119 2288.95,502.719 2293.86,503.311 "/>
<polyline clip-path="url(#clip022)" style="stroke:#3da44d; stroke-linecap:round; stroke-linejoin:round; stroke-width:8; stroke-opacity:1; fill:none" points="330.722,238.084 335.63,237.234 340.538,236.388 345.446,235.545 350.353,234.706 355.261,233.871 360.169,233.04 365.077,232.213 369.985,231.39 374.893,230.571 379.8,229.757 384.708,228.947 389.616,228.141 394.524,227.341 399.432,226.545 404.34,225.754 409.248,224.968 414.155,224.188 419.063,223.412 423.971,222.643 428.879,221.878 433.787,221.12 438.695,220.367 443.603,219.62 448.51,218.879 453.418,218.144 458.326,217.416 463.234,216.693 468.142,215.978 473.05,215.269 477.957,214.567 482.865,213.872 487.773,213.183 492.681,212.502 497.589,211.829 502.497,211.162 507.405,210.503 512.312,209.852 517.22,209.209 522.128,208.573 527.036,207.946 531.944,207.327 536.852,206.716 541.76,206.113 546.667,205.52 551.575,204.934 556.483,204.358 561.391,203.79 566.299,203.232 571.207,202.683 576.114,202.143 581.022,201.613 585.93,201.092 590.838,200.581 595.746,200.08 600.654,199.588 605.562,199.107 610.469,198.636 615.377,198.176 620.285,197.725 625.193,197.286 630.101,196.857 635.009,196.439 639.916,196.032 644.824,195.636 649.732,195.251 654.64,194.878 659.548,194.516 664.456,194.166 669.364,193.827 674.271,193.5 679.179,193.185 684.087,192.882 688.995,192.591 693.903,192.312 698.811,192.046 703.719,191.792 708.626,191.551 713.534,191.323 718.442,191.107 723.35,190.904 728.258,190.714 733.166,190.537 738.073,190.374 742.981,190.223 747.889,190.086 752.797,189.963 757.705,189.853 762.613,189.757 767.521,189.674 772.428,189.606 777.336,189.551 782.244,189.51 787.152,189.484 792.06,189.471 796.968,189.473 801.876,189.489 806.783,189.52 811.691,189.565 816.599,189.624 821.507,189.699 826.415,189.787 831.323,189.891 836.23,190.009 841.138,190.142 846.046,190.29 850.954,190.453 855.862,190.632 860.77,190.825 865.678,191.033 870.585,191.256 875.493,191.495 880.401,191.748 885.309,192.017 890.217,192.302 895.125,192.601 900.033,192.916 904.94,193.246 909.848,193.592 914.756,193.953 919.664,194.329 924.572,194.721 929.48,195.129 934.387,195.551 939.295,195.99 944.203,196.443 949.111,196.912 954.019,197.397 958.927,197.897 963.835,198.412 968.742,198.943 973.65,199.489 978.558,200.051 983.466,200.628 988.374,201.22 993.282,201.828 998.189,202.45 1003.1,203.088 1008.01,203.742 1012.91,204.41 1017.82,205.093 1022.73,205.792 1027.64,206.506 1032.54,207.234 1037.45,207.977 1042.36,208.736 1047.27,209.509 1052.18,210.296 1057.08,211.099 1061.99,211.916 1066.9,212.747 1071.81,213.593 1076.72,214.453 1081.62,215.328 1086.53,216.216 1091.44,217.119 1096.35,218.036 1101.25,218.967 1106.16,219.911 1111.07,220.869 1115.98,221.841 1120.89,222.827 1125.79,223.826 1130.7,224.838 1135.61,225.863 1140.52,226.901 1145.42,227.953 1150.33,229.017 1155.24,230.094 1160.15,231.183 1165.06,232.285 1169.96,233.399 1174.87,234.526 1179.78,235.665 1184.69,236.815 1189.6,237.977 1194.5,239.152 1199.41,240.337 1204.32,241.534 1209.23,242.742 1214.13,243.962 1219.04,245.192 1223.95,246.433 1228.86,247.685 1233.77,248.947 1238.67,250.22 1243.58,251.502 1248.49,252.795 1253.4,254.098 1258.31,255.41 1263.21,256.732 1268.12,258.064 1273.03,259.404 1277.94,260.754 1282.84,262.113 1287.75,263.48 1292.66,264.856 1297.57,266.24 1302.48,267.632 1307.38,269.033 1312.29,270.441 1317.2,271.857 1322.11,273.281 1327.02,274.711 1331.92,276.15 1336.83,277.595 1341.74,279.046 1346.65,280.505 1351.55,281.97 1356.46,283.441 1361.37,284.919 1366.28,286.402 1371.19,287.891 1376.09,289.386 1381,290.886 1385.91,292.391 1390.82,293.901 1395.73,295.416 1400.63,296.936 1405.54,298.46 1410.45,299.989 1415.36,301.521 1420.26,303.058 1425.17,304.599 1430.08,306.143 1434.99,307.69 1439.9,309.241 1444.8,310.795 1449.71,312.352 1454.62,313.911 1459.53,315.473 1464.44,317.037 1469.34,318.604 1474.25,320.173 1479.16,321.743 1484.07,323.315 1488.97,324.889 1493.88,326.464 1498.79,328.04 1503.7,329.617 1508.61,331.195 1513.51,332.774 1518.42,334.353 1523.33,335.933 1528.24,337.513 1533.15,339.093 1538.05,340.672 1542.96,342.252 1547.87,343.831 1552.78,345.409 1557.68,346.987 1562.59,348.563 1567.5,350.139 1572.41,351.714 1577.32,353.287 1582.22,354.858 1587.13,356.428 1592.04,357.996 1596.95,359.562 1601.85,361.126 1606.76,362.688 1611.67,364.248 1616.58,365.805 1621.49,367.359 1626.39,368.91 1631.3,370.459 1636.21,372.005 1641.12,373.547 1646.03,375.086 1650.93,376.622 1655.84,378.154 1660.75,379.683 1665.66,381.207 1670.56,382.728 1675.47,384.245 1680.38,385.757 1685.29,387.266 1690.2,388.77 1695.1,390.269 1700.01,391.764 1704.92,393.254 1709.83,394.74 1714.74,396.22 1719.64,397.695 1724.55,399.166 1729.46,400.631 1734.37,402.09 1739.27,403.545 1744.18,404.994 1749.09,406.437 1754,407.874 1758.91,409.306 1763.81,410.732 1768.72,412.152 1773.63,413.566 1778.54,414.973 1783.45,416.375 1788.35,417.77 1793.26,419.159 1798.17,420.541 1803.08,421.917 1807.98,423.287 1812.89,424.649 1817.8,426.005 1822.71,427.355 1827.62,428.697 1832.52,430.032 1837.43,431.361 1842.34,432.682 1847.25,433.996 1852.16,435.303 1857.06,436.603 1861.97,437.896 1866.88,439.181 1871.79,440.459 1876.69,441.729 1881.6,442.992 1886.51,444.248 1891.42,445.496 1896.33,446.736 1901.23,447.968 1906.14,449.193 1911.05,450.41 1915.96,451.62 1920.87,452.821 1925.77,454.015 1930.68,455.201 1935.59,456.379 1940.5,457.549 1945.4,458.71 1950.31,459.864 1955.22,461.01 1960.13,462.148 1965.04,463.278 1969.94,464.399 1974.85,465.513 1979.76,466.618 1984.67,467.715 1989.58,468.804 1994.48,469.885 1999.39,470.957 2004.3,472.021 2009.21,473.077 2014.11,474.125 2019.02,475.164 2023.93,476.196 2028.84,477.218 2033.75,478.233 2038.65,479.239 2043.56,480.237 2048.47,481.226 2053.38,482.207 2058.28,483.18 2063.19,484.145 2068.1,485.101 2073.01,486.049 2077.92,486.988 2082.82,487.919 2087.73,488.842 2092.64,489.756 2097.55,490.662 2102.46,491.56 2107.36,492.45 2112.27,493.331 2117.18,494.204 2122.09,495.068 2126.99,495.924 2131.9,496.772 2136.81,497.612 2141.72,498.444 2146.63,499.267 2151.53,500.082 2156.44,500.889 2161.35,501.687 2166.26,502.478 2171.17,503.26 2176.07,504.034 2180.98,504.8 2185.89,505.558 2190.8,506.308 2195.7,507.049 2200.61,507.783 2205.52,508.509 2210.43,509.226 2215.34,509.936 2220.24,510.638 2225.15,511.331 2230.06,512.017 2234.97,512.695 2239.88,513.365 2244.78,514.028 2249.69,514.682 2254.6,515.329 2259.51,515.968 2264.41,516.599 2269.32,517.222 2274.23,517.838 2279.14,518.446 2284.05,519.047 2288.95,519.64 2293.86,520.225 "/>
<polyline clip-path="url(#clip022)" style="stroke:#c271d2; stroke-linecap:round; stroke-linejoin:round; stroke-width:8; stroke-opacity:1; fill:none" points="330.722,749.856 335.63,749.396 340.538,748.938 345.446,748.481 350.353,748.027 355.261,747.575 360.169,747.125 365.077,746.677 369.985,746.231 374.893,745.787 379.8,745.346 384.708,744.908 389.616,744.471 394.524,744.038 399.432,743.607 404.34,743.178 409.248,742.753 414.155,742.33 419.063,741.91 423.971,741.493 428.879,741.079 433.787,740.668 438.695,740.261 443.603,739.856 448.51,739.455 453.418,739.057 458.326,738.662 463.234,738.271 468.142,737.884 473.05,737.5 477.957,737.119 482.865,736.743 487.773,736.37 492.681,736.001 497.589,735.636 502.497,735.275 507.405,734.919 512.312,734.566 517.22,734.218 522.128,733.873 527.036,733.534 531.944,733.198 536.852,732.867 541.76,732.541 546.667,732.219 551.575,731.902 556.483,731.59 561.391,731.283 566.299,730.981 571.207,730.683 576.114,730.391 581.022,730.103 585.93,729.821 590.838,729.545 595.746,729.273 600.654,729.007 605.562,728.746 610.469,728.491 615.377,728.242 620.285,727.998 625.193,727.76 630.101,727.528 635.009,727.301 639.916,727.081 644.824,726.867 649.732,726.658 654.64,726.456 659.548,726.26 664.456,726.07 669.364,725.887 674.271,725.71 679.179,725.539 684.087,725.375 688.995,725.217 693.903,725.066 698.811,724.922 703.719,724.785 708.626,724.654 713.534,724.53 718.442,724.413 723.35,724.304 728.258,724.201 733.166,724.105 738.073,724.016 742.981,723.935 747.889,723.861 752.797,723.794 757.705,723.734 762.613,723.682 767.521,723.638 772.428,723.6 777.336,723.571 782.244,723.549 787.152,723.534 792.06,723.528 796.968,723.529 801.876,723.537 806.783,723.554 811.691,723.578 816.599,723.611 821.507,723.651 826.415,723.699 831.323,723.755 836.23,723.819 841.138,723.891 846.046,723.971 850.954,724.06 855.862,724.156 860.77,724.261 865.678,724.373 870.585,724.494 875.493,724.624 880.401,724.761 885.309,724.907 890.217,725.061 895.125,725.223 900.033,725.393 904.94,725.572 909.848,725.759 914.756,725.955 919.664,726.159 924.572,726.371 929.48,726.592 934.387,726.821 939.295,727.058 944.203,727.304 949.111,727.558 954.019,727.82 958.927,728.091 963.835,728.37 968.742,728.658 973.65,728.953 978.558,729.258 983.466,729.57 988.374,729.891 993.282,730.22 998.189,730.557 1003.1,730.903 1008.01,731.256 1012.91,731.618 1017.82,731.989 1022.73,732.367 1027.64,732.753 1032.54,733.148 1037.45,733.551 1042.36,733.961 1047.27,734.38 1052.18,734.807 1057.08,735.241 1061.99,735.684 1066.9,736.134 1071.81,736.592 1076.72,737.058 1081.62,737.532 1086.53,738.013 1091.44,738.502 1096.35,738.998 1101.25,739.502 1106.16,740.014 1111.07,740.533 1115.98,741.059 1120.89,741.593 1125.79,742.134 1130.7,742.682 1135.61,743.237 1140.52,743.8 1145.42,744.369 1150.33,744.946 1155.24,745.529 1160.15,746.119 1165.06,746.716 1169.96,747.319 1174.87,747.929 1179.78,748.546 1184.69,749.169 1189.6,749.799 1194.5,750.435 1199.41,751.077 1204.32,751.725 1209.23,752.379 1214.13,753.04 1219.04,753.706 1223.95,754.378 1228.86,755.056 1233.77,755.74 1238.67,756.429 1243.58,757.124 1248.49,757.824 1253.4,758.53 1258.31,759.24 1263.21,759.956 1268.12,760.677 1273.03,761.403 1277.94,762.134 1282.84,762.87 1287.75,763.611 1292.66,764.356 1297.57,765.106 1302.48,765.86 1307.38,766.618 1312.29,767.381 1317.2,768.148 1322.11,768.919 1327.02,769.694 1331.92,770.473 1336.83,771.255 1341.74,772.042 1346.65,772.832 1351.55,773.625 1356.46,774.422 1361.37,775.222 1366.28,776.025 1371.19,776.832 1376.09,777.641 1381,778.454 1385.91,779.269 1390.82,780.087 1395.73,780.907 1400.63,781.731 1405.54,782.556 1410.45,783.384 1415.36,784.214 1420.26,785.046 1425.17,785.881 1430.08,786.717 1434.99,787.555 1439.9,788.395 1444.8,789.237 1449.71,790.08 1454.62,790.924 1459.53,791.77 1464.44,792.618 1469.34,793.466 1474.25,794.316 1479.16,795.166 1484.07,796.018 1488.97,796.87 1493.88,797.723 1498.79,798.577 1503.7,799.431 1508.61,800.286 1513.51,801.141 1518.42,801.996 1523.33,802.851 1528.24,803.707 1533.15,804.563 1538.05,805.418 1542.96,806.274 1547.87,807.129 1552.78,807.984 1557.68,808.838 1562.59,809.692 1567.5,810.545 1572.41,811.398 1577.32,812.25 1582.22,813.101 1587.13,813.951 1592.04,814.801 1596.95,815.649 1601.85,816.496 1606.76,817.342 1611.67,818.187 1616.58,819.03 1621.49,819.872 1626.39,820.712 1631.3,821.551 1636.21,822.388 1641.12,823.223 1646.03,824.057 1650.93,824.889 1655.84,825.718 1660.75,826.546 1665.66,827.372 1670.56,828.196 1675.47,829.017 1680.38,829.836 1685.29,830.653 1690.2,831.468 1695.1,832.28 1700.01,833.089 1704.92,833.897 1709.83,834.701 1714.74,835.503 1719.64,836.302 1724.55,837.098 1729.46,837.892 1734.37,838.682 1739.27,839.47 1744.18,840.255 1749.09,841.036 1754,841.815 1758.91,842.59 1763.81,843.362 1768.72,844.132 1773.63,844.897 1778.54,845.66 1783.45,846.419 1788.35,847.174 1793.26,847.927 1798.17,848.675 1803.08,849.421 1807.98,850.162 1812.89,850.9 1817.8,851.635 1822.71,852.365 1827.62,853.092 1832.52,853.816 1837.43,854.535 1842.34,855.251 1847.25,855.962 1852.16,856.67 1857.06,857.374 1861.97,858.074 1866.88,858.771 1871.79,859.463 1876.69,860.151 1881.6,860.835 1886.51,861.515 1891.42,862.191 1896.33,862.862 1901.23,863.53 1906.14,864.193 1911.05,864.852 1915.96,865.507 1920.87,866.158 1925.77,866.805 1930.68,867.447 1935.59,868.085 1940.5,868.718 1945.4,869.348 1950.31,869.973 1955.22,870.593 1960.13,871.209 1965.04,871.821 1969.94,872.429 1974.85,873.032 1979.76,873.63 1984.67,874.225 1989.58,874.814 1994.48,875.4 1999.39,875.981 2004.3,876.557 2009.21,877.129 2014.11,877.696 2019.02,878.259 2023.93,878.818 2028.84,879.372 2033.75,879.921 2038.65,880.466 2043.56,881.006 2048.47,881.542 2053.38,882.074 2058.28,882.601 2063.19,883.123 2068.1,883.641 2073.01,884.154 2077.92,884.663 2082.82,885.167 2087.73,885.667 2092.64,886.162 2097.55,886.653 2102.46,887.139 2107.36,887.621 2112.27,888.098 2117.18,888.571 2122.09,889.039 2126.99,889.503 2131.9,889.962 2136.81,890.417 2141.72,890.867 2146.63,891.313 2151.53,891.754 2156.44,892.191 2161.35,892.624 2166.26,893.052 2171.17,893.476 2176.07,893.895 2180.98,894.31 2185.89,894.72 2190.8,895.126 2195.7,895.528 2200.61,895.925 2205.52,896.318 2210.43,896.707 2215.34,897.091 2220.24,897.471 2225.15,897.847 2230.06,898.219 2234.97,898.586 2239.88,898.949 2244.78,899.307 2249.69,899.662 2254.6,900.012 2259.51,900.358 2264.41,900.7 2269.32,901.038 2274.23,901.371 2279.14,901.701 2284.05,902.026 2288.95,902.347 2293.86,902.664 "/>
<polyline clip-path="url(#clip022)" style="stroke:#ac8d18; stroke-linecap:round; stroke-linejoin:round; stroke-width:8; stroke-opacity:1; fill:none" points="330.722,1365.47 335.63,1365.47 340.538,1365.47 345.446,1365.47 350.353,1365.47 355.261,1365.47 360.169,1365.47 365.077,1365.47 369.985,1365.47 374.893,1365.47 379.8,1365.47 384.708,1365.47 389.616,1365.47 394.524,1365.47 399.432,1365.47 404.34,1365.47 409.248,1365.47 414.155,1365.47 419.063,1365.47 423.971,1365.47 428.879,1365.47 433.787,1365.47 438.695,1365.47 443.603,1365.47 448.51,1365.47 453.418,1365.47 458.326,1365.47 463.234,1365.47 468.142,1365.47 473.05,1365.47 477.957,1365.47 482.865,1365.47 487.773,1365.47 492.681,1365.47 497.589,1365.47 502.497,1365.47 507.405,1365.47 512.312,1365.47 517.22,1365.47 522.128,1365.47 527.036,1365.47 531.944,1365.47 536.852,1365.47 541.76,1365.47 546.667,1365.47 551.575,1365.47 556.483,1365.47 561.391,1365.47 566.299,1365.47 571.207,1365.47 576.114,1365.47 581.022,1365.47 585.93,1365.47 590.838,1365.47 595.746,1365.47 600.654,1365.47 605.562,1365.47 610.469,1365.47 615.377,1365.47 620.285,1365.47 625.193,1365.47 630.101,1365.47 635.009,1365.47 639.916,1365.47 644.824,1365.47 649.732,1365.47 654.64,1365.47 659.548,1365.47 664.456,1365.47 669.364,1365.47 674.271,1365.47 679.179,1365.47 684.087,1365.47 688.995,1365.47 693.903,1365.47 698.811,1365.47 703.719,1365.47 708.626,1365.47 713.534,1365.47 718.442,1365.47 723.35,1365.47 728.258,1365.47 733.166,1365.47 738.073,1365.47 742.981,1365.47 747.889,1365.47 752.797,1365.47 757.705,1365.47 762.613,1365.47 767.521,1365.47 772.428,1365.47 777.336,1365.47 782.244,1365.47 787.152,1365.47 792.06,1365.47 796.968,1365.47 801.876,1365.47 806.783,1365.47 811.691,1365.47 816.599,1365.47 821.507,1365.47 826.415,1365.47 831.323,1365.47 836.23,1365.47 841.138,1365.47 846.046,1365.47 850.954,1365.47 855.862,1365.47 860.77,1365.47 865.678,1365.47 870.585,1365.47 875.493,1365.47 880.401,1365.47 885.309,1365.47 890.217,1365.47 895.125,1365.47 900.033,1365.47 904.94,1365.47 909.848,1365.47 914.756,1365.47 919.664,1365.47 924.572,1365.47 929.48,1365.47 934.387,1365.47 939.295,1365.47 944.203,1365.47 949.111,1365.47 954.019,1365.47 958.927,1365.47 963.835,1365.47 968.742,1365.47 973.65,1365.47 978.558,1365.47 983.466,1365.47 988.374,1365.47 993.282,1365.47 998.189,1365.47 1003.1,1365.47 1008.01,1365.47 1012.91,1365.47 1017.82,1365.47 1022.73,1365.47 1027.64,1365.47 1032.54,1365.47 1037.45,1365.47 1042.36,1365.47 1047.27,1365.47 1052.18,1365.47 1057.08,1365.47 1061.99,1365.47 1066.9,1365.47 1071.81,1365.47 1076.72,1365.47 1081.62,1365.47 1086.53,1365.47 1091.44,1365.47 1096.35,1365.47 1101.25,1365.47 1106.16,1365.47 1111.07,1365.47 1115.98,1365.47 1120.89,1365.47 1125.79,1365.47 1130.7,1365.47 1135.61,1365.47 1140.52,1365.47 1145.42,1365.47 1150.33,1365.47 1155.24,1365.47 1160.15,1365.47 1165.06,1365.47 1169.96,1365.47 1174.87,1365.47 1179.78,1365.47 1184.69,1365.47 1189.6,1365.47 1194.5,1365.47 1199.41,1365.47 1204.32,1365.47 1209.23,1365.47 1214.13,1365.47 1219.04,1365.47 1223.95,1365.47 1228.86,1365.47 1233.77,1365.47 1238.67,1365.47 1243.58,1365.47 1248.49,1365.47 1253.4,1365.47 1258.31,1365.47 1263.21,1365.47 1268.12,1365.47 1273.03,1365.47 1277.94,1365.47 1282.84,1365.47 1287.75,1365.47 1292.66,1365.47 1297.57,1365.47 1302.48,1365.47 1307.38,1365.47 1312.29,1365.47 1317.2,1365.47 1322.11,1365.47 1327.02,1365.47 1331.92,1365.47 1336.83,1365.47 1341.74,1365.47 1346.65,1365.47 1351.55,1365.47 1356.46,1365.47 1361.37,1365.47 1366.28,1365.47 1371.19,1365.47 1376.09,1365.47 1381,1365.47 1385.91,1365.47 1390.82,1365.47 1395.73,1365.47 1400.63,1365.47 1405.54,1365.47 1410.45,1365.47 1415.36,1365.47 1420.26,1365.47 1425.17,1365.47 1430.08,1365.47 1434.99,1365.47 1439.9,1365.47 1444.8,1365.47 1449.71,1365.47 1454.62,1365.47 1459.53,1365.47 1464.44,1365.47 1469.34,1365.47 1474.25,1365.47 1479.16,1365.47 1484.07,1365.47 1488.97,1365.47 1493.88,1365.47 1498.79,1365.47 1503.7,1365.47 1508.61,1365.47 1513.51,1365.47 1518.42,1365.47 1523.33,1365.47 1528.24,1365.47 1533.15,1365.47 1538.05,1365.47 1542.96,1365.47 1547.87,1365.47 1552.78,1365.47 1557.68,1365.47 1562.59,1365.47 1567.5,1365.47 1572.41,1365.47 1577.32,1365.47 1582.22,1365.47 1587.13,1365.47 1592.04,1365.47 1596.95,1365.47 1601.85,1365.47 1606.76,1365.47 1611.67,1365.47 1616.58,1365.47 1621.49,1365.47 1626.39,1365.47 1631.3,1365.47 1636.21,1365.47 1641.12,1365.47 1646.03,1365.47 1650.93,1365.47 1655.84,1365.47 1660.75,1365.47 1665.66,1365.47 1670.56,1365.47 1675.47,1365.47 1680.38,1365.47 1685.29,1365.47 1690.2,1365.47 1695.1,1365.47 1700.01,1365.47 1704.92,1365.47 1709.83,1365.47 1714.74,1365.47 1719.64,1365.47 1724.55,1365.47 1729.46,1365.47 1734.37,1365.47 1739.27,1365.47 1744.18,1365.47 1749.09,1365.47 1754,1365.47 1758.91,1365.47 1763.81,1365.47 1768.72,1365.47 1773.63,1365.47 1778.54,1365.47 1783.45,1365.47 1788.35,1365.47 1793.26,1365.47 1798.17,1365.47 1803.08,1365.47 1807.98,1365.47 1812.89,1365.47 1817.8,1365.47 1822.71,1365.47 1827.62,1365.47 1832.52,1365.47 1837.43,1365.47 1842.34,1365.47 1847.25,1365.47 1852.16,1365.47 1857.06,1365.47 1861.97,1365.47 1866.88,1365.47 1871.79,1365.47 1876.69,1365.47 1881.6,1365.47 1886.51,1365.47 1891.42,1365.47 1896.33,1365.47 1901.23,1365.47 1906.14,1365.47 1911.05,1365.47 1915.96,1365.47 1920.87,1365.47 1925.77,1365.47 1930.68,1365.47 1935.59,1365.47 1940.5,1365.47 1945.4,1365.47 1950.31,1365.47 1955.22,1365.47 1960.13,1365.47 1965.04,1365.47 1969.94,1365.47 1974.85,1365.47 1979.76,1365.47 1984.67,1365.47 1989.58,1365.47 1994.48,1365.47 1999.39,1365.47 2004.3,1365.47 2009.21,1365.47 2014.11,1365.47 2019.02,1365.47 2023.93,1365.47 2028.84,1365.47 2033.75,1365.47 2038.65,1365.47 2043.56,1365.47 2048.47,1365.47 2053.38,1365.47 2058.28,1365.47 2063.19,1365.47 2068.1,1365.47 2073.01,1365.47 2077.92,1365.47 2082.82,1365.47 2087.73,1365.47 2092.64,1365.47 2097.55,1365.47 2102.46,1365.47 2107.36,1365.47 2112.27,1365.47 2117.18,1365.47 2122.09,1365.47 2126.99,1365.47 2131.9,1365.47 2136.81,1365.47 2141.72,1365.47 2146.63,1365.47 2151.53,1365.47 2156.44,1365.47 2161.35,1365.47 2166.26,1365.47 2171.17,1365.47 2176.07,1365.47 2180.98,1365.47 2185.89,1365.47 2190.8,1365.47 2195.7,1365.47 2200.61,1365.47 2205.52,1365.47 2210.43,1365.47 2215.34,1365.47 2220.24,1365.47 2225.15,1365.47 2230.06,1365.47 2234.97,1365.47 2239.88,1365.47 2244.78,1365.47 2249.69,1365.47 2254.6,1365.47 2259.51,1365.47 2264.41,1365.47 2269.32,1365.47 2274.23,1365.47 2279.14,1365.47 2284.05,1365.47 2288.95,1365.47 2293.86,1365.47 "/>
<path clip-path="url(#clip020)" d="M1963.87 595.947 L2283.39 595.947 L2283.39 168.267 L1963.87 168.267  Z" fill="#ffffff" fill-rule="evenodd" fill-opacity="1"/>
<polyline clip-path="url(#clip020)" style="stroke:#000000; stroke-linecap:round; stroke-linejoin:round; stroke-width:4; stroke-opacity:1; fill:none" points="1963.87,595.947 2283.39,595.947 2283.39,168.267 1963.87,168.267 1963.87,595.947 "/>
<polyline clip-path="url(#clip020)" style="stroke:#009af9; stroke-linecap:round; stroke-linejoin:round; stroke-width:11; stroke-opacity:1; fill:none" points="1986.99,239.547 2125.72,239.547 "/>
<path clip-path="url(#clip020)" d="M2180.79 212.829 Q2180.79 215.083 2177.53 215.083 L2166.45 215.083 L2162.04 237.659 Q2161.95 238.239 2161.82 238.561 Q2161.72 238.883 2161.43 239.431 Q2161.17 239.946 2160.63 240.204 Q2160.11 240.493 2159.34 240.493 Q2158.37 240.493 2157.89 239.914 Q2157.44 239.366 2157.44 238.69 Q2157.44 238.271 2158.08 236.274 L2164.55 215.083 L2159.08 215.083 Q2153.93 215.083 2150.71 220.171 Q2150.19 220.848 2149.9 220.912 Q2149.77 220.944 2149.64 220.944 Q2149.29 220.944 2149.06 220.783 Q2148.87 220.622 2148.87 220.461 L2148.84 220.3 Q2148.84 220.075 2149.35 219.173 Q2149.9 218.239 2150.87 216.854 Q2151.87 215.469 2152.86 214.374 Q2154.18 212.957 2155.67 212.217 Q2157.15 211.444 2157.89 211.347 Q2158.66 211.25 2159.66 211.25 L2178.15 211.25 Q2178.98 211.25 2179.43 211.315 Q2179.88 211.347 2180.34 211.734 Q2180.79 212.088 2180.79 212.829 Z" fill="#000000" fill-rule="nonzero" fill-opacity="1" /><path clip-path="url(#clip020)" d="M2187.52 232.408 L2187.52 230.965 Q2193.06 230.965 2195.93 228.012 Q2196.72 228.012 2196.85 228.192 Q2196.99 228.372 2196.99 229.206 L2196.99 255.11 Q2196.99 256.485 2197.66 256.913 Q2198.34 257.341 2201.29 257.341 L2202.76 257.341 L2202.76 258.762 Q2201.14 258.626 2195.27 258.626 Q2189.41 258.626 2187.81 258.762 L2187.81 257.341 L2189.28 257.341 Q2192.19 257.341 2192.88 256.936 Q2193.58 256.507 2193.58 255.11 L2193.58 231.19 Q2191.17 232.408 2187.52 232.408 Z" fill="#000000" fill-rule="nonzero" fill-opacity="1" /><path clip-path="url(#clip020)" d="M2211.04 258.018 Q2210.38 257.274 2210.38 256.304 Q2210.38 255.335 2211.02 254.614 Q2211.67 253.87 2212.84 253.87 Q2214.22 253.87 2215.01 255.2 Q2215.79 256.507 2215.79 258.717 Q2215.79 261.106 2214.83 263.316 Q2213.86 265.547 2212.91 266.607 Q2211.96 267.667 2211.58 267.667 Q2211.13 267.667 2211.13 267.171 Q2211.13 266.99 2211.44 266.652 Q2214.76 263.09 2214.78 258.717 Q2214.78 258.018 2214.69 258.018 L2214.58 258.108 Q2213.79 258.762 2212.84 258.762 Q2211.69 258.762 2211.04 258.018 Z" fill="#000000" fill-rule="nonzero" fill-opacity="1" /><path clip-path="url(#clip020)" d="M2230.37 251.322 Q2230.37 249.947 2231.11 249.428 Q2231.85 248.887 2232.64 248.887 Q2233.7 248.887 2234.31 249.564 Q2234.94 250.217 2234.94 251.142 Q2234.94 252.066 2234.31 252.742 Q2233.7 253.396 2232.64 253.396 Q2232.12 253.396 2231.85 253.306 Q2232.46 255.425 2234.31 256.958 Q2236.18 258.491 2238.64 258.491 Q2241.73 258.491 2243.58 255.493 Q2244.68 253.554 2244.68 249.158 Q2244.68 245.28 2243.85 243.342 Q2242.56 240.388 2239.92 240.388 Q2236.18 240.388 2233.97 243.612 Q2233.7 244.018 2233.39 244.04 Q2232.94 244.04 2232.82 243.792 Q2232.73 243.522 2232.73 242.823 L2232.73 229.161 Q2232.73 228.057 2233.18 228.057 Q2233.36 228.057 2233.75 228.192 Q2236.66 229.477 2239.88 229.499 Q2243.19 229.499 2246.17 228.147 Q2246.39 228.012 2246.53 228.012 Q2246.98 228.012 2247 228.53 Q2247 228.71 2246.62 229.251 Q2246.26 229.77 2245.47 230.469 Q2244.68 231.145 2243.67 231.799 Q2242.65 232.453 2241.16 232.904 Q2239.7 233.332 2238.08 233.332 Q2236.14 233.332 2234.15 232.723 L2234.15 241.718 Q2236.54 239.374 2240.01 239.374 Q2243.71 239.374 2246.26 242.35 Q2248.81 245.325 2248.81 249.474 Q2248.81 253.825 2245.79 256.8 Q2242.79 259.776 2238.73 259.776 Q2235.03 259.776 2232.69 257.138 Q2230.37 254.501 2230.37 251.322 Z" fill="#000000" fill-rule="nonzero" fill-opacity="1" /><polyline clip-path="url(#clip020)" style="stroke:#e26f46; stroke-linecap:round; stroke-linejoin:round; stroke-width:11; stroke-opacity:1; fill:none" points="1986.99,310.827 2125.72,310.827 "/>
<path clip-path="url(#clip020)" d="M2180.79 284.109 Q2180.79 286.363 2177.53 286.363 L2166.45 286.363 L2162.04 308.939 Q2161.95 309.519 2161.82 309.841 Q2161.72 310.163 2161.43 310.711 Q2161.17 311.226 2160.63 311.484 Q2160.11 311.773 2159.34 311.773 Q2158.37 311.773 2157.89 311.194 Q2157.44 310.646 2157.44 309.97 Q2157.44 309.551 2158.08 307.554 L2164.55 286.363 L2159.08 286.363 Q2153.93 286.363 2150.71 291.451 Q2150.19 292.128 2149.9 292.192 Q2149.77 292.224 2149.64 292.224 Q2149.29 292.224 2149.06 292.063 Q2148.87 291.902 2148.87 291.741 L2148.84 291.58 Q2148.84 291.355 2149.35 290.453 Q2149.9 289.519 2150.87 288.134 Q2151.87 286.749 2152.86 285.654 Q2154.18 284.237 2155.67 283.497 Q2157.15 282.724 2157.89 282.627 Q2158.66 282.53 2159.66 282.53 L2178.15 282.53 Q2178.98 282.53 2179.43 282.595 Q2179.88 282.627 2180.34 283.014 Q2180.79 283.368 2180.79 284.109 Z" fill="#000000" fill-rule="nonzero" fill-opacity="1" /><path clip-path="url(#clip020)" d="M2187.52 330.042 Q2187.52 329.208 2187.59 328.96 Q2187.68 328.712 2188.04 328.328 L2196.9 318.454 Q2201.74 312.998 2201.74 308.242 Q2201.74 305.153 2200.12 302.944 Q2198.52 300.734 2195.57 300.734 Q2193.54 300.734 2191.82 301.974 Q2190.11 303.214 2189.32 305.424 Q2189.46 305.378 2189.93 305.378 Q2191.08 305.378 2191.71 306.1 Q2192.37 306.821 2192.37 307.791 Q2192.37 309.031 2191.55 309.639 Q2190.77 310.225 2189.98 310.225 Q2189.66 310.225 2189.23 310.158 Q2188.83 310.09 2188.17 309.459 Q2187.52 308.805 2187.52 307.655 Q2187.52 304.432 2189.95 301.862 Q2192.41 299.292 2196.15 299.292 Q2200.39 299.292 2203.16 301.816 Q2205.96 304.319 2205.96 308.242 Q2205.96 309.617 2205.53 310.879 Q2205.13 312.119 2204.56 313.089 Q2204.02 314.058 2202.53 315.613 Q2201.05 317.169 2199.85 318.274 Q2198.66 319.378 2195.97 321.723 L2191.08 326.48 L2199.4 326.48 Q2203.46 326.48 2203.77 326.119 Q2204.22 325.465 2204.79 322.016 L2205.96 322.016 L2204.65 330.042 L2187.52 330.042 Z" fill="#000000" fill-rule="nonzero" fill-opacity="1" /><path clip-path="url(#clip020)" d="M2211.04 329.298 Q2210.38 328.554 2210.38 327.584 Q2210.38 326.615 2211.02 325.894 Q2211.67 325.15 2212.84 325.15 Q2214.22 325.15 2215.01 326.48 Q2215.79 327.787 2215.79 329.997 Q2215.79 332.386 2214.83 334.596 Q2213.86 336.827 2212.91 337.887 Q2211.96 338.947 2211.58 338.947 Q2211.13 338.947 2211.13 338.451 Q2211.13 338.27 2211.44 337.932 Q2214.76 334.37 2214.78 329.997 Q2214.78 329.298 2214.69 329.298 L2214.58 329.388 Q2213.79 330.042 2212.84 330.042 Q2211.69 330.042 2211.04 329.298 Z" fill="#000000" fill-rule="nonzero" fill-opacity="1" /><path clip-path="url(#clip020)" d="M2230.37 322.602 Q2230.37 321.227 2231.11 320.708 Q2231.85 320.167 2232.64 320.167 Q2233.7 320.167 2234.31 320.844 Q2234.94 321.497 2234.94 322.422 Q2234.94 323.346 2234.31 324.022 Q2233.7 324.676 2232.64 324.676 Q2232.12 324.676 2231.85 324.586 Q2232.46 326.705 2234.31 328.238 Q2236.18 329.771 2238.64 329.771 Q2241.73 329.771 2243.58 326.773 Q2244.68 324.834 2244.68 320.438 Q2244.68 316.56 2243.85 314.622 Q2242.56 311.668 2239.92 311.668 Q2236.18 311.668 2233.97 314.892 Q2233.7 315.298 2233.39 315.32 Q2232.94 315.32 2232.82 315.072 Q2232.73 314.802 2232.73 314.103 L2232.73 300.441 Q2232.73 299.337 2233.18 299.337 Q2233.36 299.337 2233.75 299.472 Q2236.66 300.757 2239.88 300.779 Q2243.19 300.779 2246.17 299.427 Q2246.39 299.292 2246.53 299.292 Q2246.98 299.292 2247 299.81 Q2247 299.99 2246.62 300.531 Q2246.26 301.05 2245.47 301.749 Q2244.68 302.425 2243.67 303.079 Q2242.65 303.733 2241.16 304.184 Q2239.7 304.612 2238.08 304.612 Q2236.14 304.612 2234.15 304.003 L2234.15 312.998 Q2236.54 310.654 2240.01 310.654 Q2243.71 310.654 2246.26 313.63 Q2248.81 316.605 2248.81 320.754 Q2248.81 325.105 2245.79 328.08 Q2242.79 331.056 2238.73 331.056 Q2235.03 331.056 2232.69 328.418 Q2230.37 325.781 2230.37 322.602 Z" fill="#000000" fill-rule="nonzero" fill-opacity="1" /><polyline clip-path="url(#clip020)" style="stroke:#3da44d; stroke-linecap:round; stroke-linejoin:round; stroke-width:11; stroke-opacity:1; fill:none" points="1986.99,382.107 2125.72,382.107 "/>
<path clip-path="url(#clip020)" d="M2180.79 355.389 Q2180.79 357.643 2177.53 357.643 L2166.45 357.643 L2162.04 380.219 Q2161.95 380.799 2161.82 381.121 Q2161.72 381.443 2161.43 381.991 Q2161.17 382.506 2160.63 382.764 Q2160.11 383.053 2159.34 383.053 Q2158.37 383.053 2157.89 382.474 Q2157.44 381.926 2157.44 381.25 Q2157.44 380.831 2158.08 378.834 L2164.55 357.643 L2159.08 357.643 Q2153.93 357.643 2150.71 362.731 Q2150.19 363.408 2149.9 363.472 Q2149.77 363.504 2149.64 363.504 Q2149.29 363.504 2149.06 363.343 Q2148.87 363.182 2148.87 363.021 L2148.84 362.86 Q2148.84 362.635 2149.35 361.733 Q2149.9 360.799 2150.87 359.414 Q2151.87 358.029 2152.86 356.934 Q2154.18 355.517 2155.67 354.777 Q2157.15 354.004 2157.89 353.907 Q2158.66 353.81 2159.66 353.81 L2178.15 353.81 Q2178.98 353.81 2179.43 353.875 Q2179.88 353.907 2180.34 354.294 Q2180.79 354.648 2180.79 355.389 Z" fill="#000000" fill-rule="nonzero" fill-opacity="1" /><path clip-path="url(#clip020)" d="M2187.52 395.099 Q2187.52 393.724 2188.31 393.071 Q2189.1 392.417 2190.11 392.417 Q2191.17 392.417 2191.92 393.116 Q2192.68 393.792 2192.68 394.987 Q2192.68 396.272 2191.78 396.993 Q2190.9 397.715 2189.64 397.534 Q2190.74 399.383 2192.77 400.217 Q2194.82 401.051 2196.72 401.051 Q2198.7 401.051 2200.3 399.338 Q2201.92 397.624 2201.92 393.431 Q2201.92 389.869 2200.53 387.818 Q2199.15 385.766 2196.42 385.766 L2194.39 385.766 Q2193.7 385.766 2193.49 385.699 Q2193.29 385.631 2193.29 385.248 Q2193.29 384.797 2193.99 384.707 Q2194.69 384.707 2195.79 384.571 Q2198.48 384.481 2199.9 382.159 Q2201.18 379.995 2201.18 376.906 Q2201.18 374.088 2199.83 372.916 Q2198.5 371.721 2196.76 371.721 Q2195.14 371.721 2193.36 372.398 Q2191.58 373.074 2190.61 374.584 Q2193.47 374.584 2193.47 376.906 Q2193.47 377.921 2192.82 378.597 Q2192.19 379.251 2191.13 379.251 Q2190.11 379.251 2189.44 378.62 Q2188.76 377.966 2188.76 376.861 Q2188.76 374.224 2191.1 372.398 Q2193.47 370.572 2196.94 370.572 Q2200.37 370.572 2202.89 372.375 Q2205.44 374.179 2205.44 376.951 Q2205.44 379.679 2203.64 381.911 Q2201.83 384.143 2198.97 385.067 Q2202.49 385.766 2204.58 388.156 Q2206.68 390.523 2206.68 393.431 Q2206.68 397.038 2203.84 399.698 Q2201 402.336 2196.85 402.336 Q2193.02 402.336 2190.27 400.262 Q2187.52 398.188 2187.52 395.099 Z" fill="#000000" fill-rule="nonzero" fill-opacity="1" /><path clip-path="url(#clip020)" d="M2211.04 400.578 Q2210.38 399.834 2210.38 398.864 Q2210.38 397.895 2211.02 397.174 Q2211.67 396.43 2212.84 396.43 Q2214.22 396.43 2215.01 397.76 Q2215.79 399.067 2215.79 401.277 Q2215.79 403.666 2214.83 405.876 Q2213.86 408.107 2212.91 409.167 Q2211.96 410.227 2211.58 410.227 Q2211.13 410.227 2211.13 409.731 Q2211.13 409.55 2211.44 409.212 Q2214.76 405.65 2214.78 401.277 Q2214.78 400.578 2214.69 400.578 L2214.58 400.668 Q2213.79 401.322 2212.84 401.322 Q2211.69 401.322 2211.04 400.578 Z" fill="#000000" fill-rule="nonzero" fill-opacity="1" /><path clip-path="url(#clip020)" d="M2230.37 393.882 Q2230.37 392.507 2231.11 391.988 Q2231.85 391.447 2232.64 391.447 Q2233.7 391.447 2234.31 392.124 Q2234.94 392.777 2234.94 393.702 Q2234.94 394.626 2234.31 395.302 Q2233.7 395.956 2232.64 395.956 Q2232.12 395.956 2231.85 395.866 Q2232.46 397.985 2234.31 399.518 Q2236.18 401.051 2238.64 401.051 Q2241.73 401.051 2243.58 398.053 Q2244.68 396.114 2244.68 391.718 Q2244.68 387.84 2243.85 385.902 Q2242.56 382.948 2239.92 382.948 Q2236.18 382.948 2233.97 386.172 Q2233.7 386.578 2233.39 386.6 Q2232.94 386.6 2232.82 386.352 Q2232.73 386.082 2232.73 385.383 L2232.73 371.721 Q2232.73 370.617 2233.18 370.617 Q2233.36 370.617 2233.75 370.752 Q2236.66 372.037 2239.88 372.059 Q2243.19 372.059 2246.17 370.707 Q2246.39 370.572 2246.53 370.572 Q2246.98 370.572 2247 371.09 Q2247 371.27 2246.62 371.811 Q2246.26 372.33 2245.47 373.029 Q2244.68 373.705 2243.67 374.359 Q2242.65 375.013 2241.16 375.464 Q2239.7 375.892 2238.08 375.892 Q2236.14 375.892 2234.15 375.283 L2234.15 384.278 Q2236.54 381.934 2240.01 381.934 Q2243.71 381.934 2246.26 384.91 Q2248.81 387.885 2248.81 392.034 Q2248.81 396.385 2245.79 399.36 Q2242.79 402.336 2238.73 402.336 Q2235.03 402.336 2232.69 399.698 Q2230.37 397.061 2230.37 393.882 Z" fill="#000000" fill-rule="nonzero" fill-opacity="1" /><polyline clip-path="url(#clip020)" style="stroke:#c271d2; stroke-linecap:round; stroke-linejoin:round; stroke-width:11; stroke-opacity:1; fill:none" points="1986.99,453.387 2125.72,453.387 "/>
<path clip-path="url(#clip020)" d="M2180.79 426.514 Q2180.79 428.769 2177.53 428.769 L2166.45 428.769 L2162.04 451.345 Q2161.95 451.925 2161.82 452.247 Q2161.72 452.569 2161.43 453.116 Q2161.17 453.632 2160.63 453.889 Q2160.11 454.179 2159.34 454.179 Q2158.37 454.179 2157.89 453.599 Q2157.44 453.052 2157.44 452.376 Q2157.44 451.957 2158.08 449.96 L2164.55 428.769 L2159.08 428.769 Q2153.93 428.769 2150.71 433.857 Q2150.19 434.534 2149.9 434.598 Q2149.77 434.63 2149.64 434.63 Q2149.29 434.63 2149.06 434.469 Q2148.87 434.308 2148.87 434.147 L2148.84 433.986 Q2148.84 433.761 2149.35 432.859 Q2149.9 431.925 2150.87 430.54 Q2151.87 429.155 2152.86 428.06 Q2154.18 426.643 2155.67 425.902 Q2157.15 425.129 2157.89 425.033 Q2158.66 424.936 2159.66 424.936 L2178.15 424.936 Q2178.98 424.936 2179.43 425.001 Q2179.88 425.033 2180.34 425.419 Q2180.79 425.774 2180.79 426.514 Z" fill="#000000" fill-rule="nonzero" fill-opacity="1" /><path clip-path="url(#clip020)" d="M2187.52 465.136 L2187.52 463.716 L2201.7 442.051 Q2202.06 441.487 2202.62 441.51 Q2203.14 441.51 2203.25 441.713 Q2203.37 441.916 2203.37 442.705 L2203.37 463.716 L2207.99 463.716 L2207.99 465.136 L2203.37 465.136 L2203.37 469.149 Q2203.37 470.479 2203.91 470.907 Q2204.47 471.336 2206.86 471.336 L2207.83 471.336 L2207.83 472.756 Q2205.94 472.621 2201.56 472.621 Q2197.21 472.621 2195.32 472.756 L2195.32 471.336 L2196.29 471.336 Q2198.68 471.336 2199.24 470.93 Q2199.81 470.501 2199.81 469.149 L2199.81 465.136 L2187.52 465.136 M2188.83 463.716 L2200.08 463.716 L2200.08 446.492 L2188.83 463.716 Z" fill="#000000" fill-rule="nonzero" fill-opacity="1" /><path clip-path="url(#clip020)" d="M2211.04 472.012 Q2210.38 471.268 2210.38 470.299 Q2210.38 469.329 2211.02 468.608 Q2211.67 467.864 2212.84 467.864 Q2214.22 467.864 2215.01 469.194 Q2215.79 470.501 2215.79 472.711 Q2215.79 475.1 2214.83 477.31 Q2213.86 479.542 2212.91 480.601 Q2211.96 481.661 2211.58 481.661 Q2211.13 481.661 2211.13 481.165 Q2211.13 480.984 2211.44 480.646 Q2214.76 477.084 2214.78 472.711 Q2214.78 472.012 2214.69 472.012 L2214.58 472.102 Q2213.79 472.756 2212.84 472.756 Q2211.69 472.756 2211.04 472.012 Z" fill="#000000" fill-rule="nonzero" fill-opacity="1" /><path clip-path="url(#clip020)" d="M2230.37 465.316 Q2230.37 463.941 2231.11 463.423 Q2231.85 462.882 2232.64 462.882 Q2233.7 462.882 2234.31 463.558 Q2234.94 464.212 2234.94 465.136 Q2234.94 466.06 2234.31 466.737 Q2233.7 467.39 2232.64 467.39 Q2232.12 467.39 2231.85 467.3 Q2232.46 469.419 2234.31 470.952 Q2236.18 472.485 2238.64 472.485 Q2241.73 472.485 2243.58 469.487 Q2244.68 467.548 2244.68 463.152 Q2244.68 459.275 2243.85 457.336 Q2242.56 454.382 2239.92 454.382 Q2236.18 454.382 2233.97 457.606 Q2233.7 458.012 2233.39 458.035 Q2232.94 458.035 2232.82 457.787 Q2232.73 457.516 2232.73 456.817 L2232.73 443.155 Q2232.73 442.051 2233.18 442.051 Q2233.36 442.051 2233.75 442.186 Q2236.66 443.471 2239.88 443.494 Q2243.19 443.494 2246.17 442.141 Q2246.39 442.006 2246.53 442.006 Q2246.98 442.006 2247 442.524 Q2247 442.705 2246.62 443.246 Q2246.26 443.764 2245.47 444.463 Q2244.68 445.139 2243.67 445.793 Q2242.65 446.447 2241.16 446.898 Q2239.7 447.326 2238.08 447.326 Q2236.14 447.326 2234.15 446.717 L2234.15 455.713 Q2236.54 453.368 2240.01 453.368 Q2243.71 453.368 2246.26 456.344 Q2248.81 459.32 2248.81 463.468 Q2248.81 467.819 2245.79 470.795 Q2242.79 473.77 2238.73 473.77 Q2235.03 473.77 2232.69 471.133 Q2230.37 468.495 2230.37 465.316 Z" fill="#000000" fill-rule="nonzero" fill-opacity="1" /><polyline clip-path="url(#clip020)" style="stroke:#ac8d18; stroke-linecap:round; stroke-linejoin:round; stroke-width:11; stroke-opacity:1; fill:none" points="1986.99,524.667 2125.72,524.667 "/>
<path clip-path="url(#clip020)" d="M2180.79 497.949 Q2180.79 500.203 2177.53 500.203 L2166.45 500.203 L2162.04 522.779 Q2161.95 523.359 2161.82 523.681 Q2161.72 524.003 2161.43 524.551 Q2161.17 525.066 2160.63 525.324 Q2160.11 525.613 2159.34 525.613 Q2158.37 525.613 2157.89 525.034 Q2157.44 524.486 2157.44 523.81 Q2157.44 523.391 2158.08 521.394 L2164.55 500.203 L2159.08 500.203 Q2153.93 500.203 2150.71 505.291 Q2150.19 505.968 2149.9 506.032 Q2149.77 506.064 2149.64 506.064 Q2149.29 506.064 2149.06 505.903 Q2148.87 505.742 2148.87 505.581 L2148.84 505.42 Q2148.84 505.195 2149.35 504.293 Q2149.9 503.359 2150.87 501.974 Q2151.87 500.589 2152.86 499.494 Q2154.18 498.077 2155.67 497.337 Q2157.15 496.564 2157.89 496.467 Q2158.66 496.37 2159.66 496.37 L2178.15 496.37 Q2178.98 496.37 2179.43 496.435 Q2179.88 496.467 2180.34 496.854 Q2180.79 497.208 2180.79 497.949 Z" fill="#000000" fill-rule="nonzero" fill-opacity="1" /><path clip-path="url(#clip020)" d="M2187.52 536.442 Q2187.52 535.067 2188.26 534.548 Q2189.01 534.007 2189.8 534.007 Q2190.86 534.007 2191.46 534.684 Q2192.1 535.337 2192.1 536.262 Q2192.1 537.186 2191.46 537.862 Q2190.86 538.516 2189.8 538.516 Q2189.28 538.516 2189.01 538.426 Q2189.62 540.545 2191.46 542.078 Q2193.34 543.611 2195.79 543.611 Q2198.88 543.611 2200.73 540.613 Q2201.83 538.674 2201.83 534.278 Q2201.83 530.4 2201 528.462 Q2199.72 525.508 2197.08 525.508 Q2193.34 525.508 2191.13 528.732 Q2190.86 529.138 2190.54 529.16 Q2190.09 529.16 2189.98 528.912 Q2189.89 528.642 2189.89 527.943 L2189.89 514.281 Q2189.89 513.177 2190.34 513.177 Q2190.52 513.177 2190.9 513.312 Q2193.81 514.597 2197.03 514.619 Q2200.35 514.619 2203.32 513.267 Q2203.55 513.132 2203.68 513.132 Q2204.13 513.132 2204.16 513.65 Q2204.16 513.83 2203.77 514.371 Q2203.41 514.89 2202.62 515.589 Q2201.83 516.265 2200.82 516.919 Q2199.81 517.573 2198.32 518.024 Q2196.85 518.452 2195.23 518.452 Q2193.29 518.452 2191.31 517.843 L2191.31 526.838 Q2193.7 524.494 2197.17 524.494 Q2200.87 524.494 2203.41 527.47 Q2205.96 530.445 2205.96 534.594 Q2205.96 538.945 2202.94 541.92 Q2199.94 544.896 2195.88 544.896 Q2192.19 544.896 2189.84 542.258 Q2187.52 539.621 2187.52 536.442 Z" fill="#000000" fill-rule="nonzero" fill-opacity="1" /><path clip-path="url(#clip020)" d="M2211.04 543.138 Q2210.38 542.394 2210.38 541.424 Q2210.38 540.455 2211.02 539.734 Q2211.67 538.99 2212.84 538.99 Q2214.22 538.99 2215.01 540.32 Q2215.79 541.627 2215.79 543.837 Q2215.79 546.226 2214.83 548.436 Q2213.86 550.667 2212.91 551.727 Q2211.96 552.787 2211.58 552.787 Q2211.13 552.787 2211.13 552.291 Q2211.13 552.11 2211.44 551.772 Q2214.76 548.21 2214.78 543.837 Q2214.78 543.138 2214.69 543.138 L2214.58 543.228 Q2213.79 543.882 2212.84 543.882 Q2211.69 543.882 2211.04 543.138 Z" fill="#000000" fill-rule="nonzero" fill-opacity="1" /><path clip-path="url(#clip020)" d="M2230.37 536.442 Q2230.37 535.067 2231.11 534.548 Q2231.85 534.007 2232.64 534.007 Q2233.7 534.007 2234.31 534.684 Q2234.94 535.337 2234.94 536.262 Q2234.94 537.186 2234.31 537.862 Q2233.7 538.516 2232.64 538.516 Q2232.12 538.516 2231.85 538.426 Q2232.46 540.545 2234.31 542.078 Q2236.18 543.611 2238.64 543.611 Q2241.73 543.611 2243.58 540.613 Q2244.68 538.674 2244.68 534.278 Q2244.68 530.4 2243.85 528.462 Q2242.56 525.508 2239.92 525.508 Q2236.18 525.508 2233.97 528.732 Q2233.7 529.138 2233.39 529.16 Q2232.94 529.16 2232.82 528.912 Q2232.73 528.642 2232.73 527.943 L2232.73 514.281 Q2232.73 513.177 2233.18 513.177 Q2233.36 513.177 2233.75 513.312 Q2236.66 514.597 2239.88 514.619 Q2243.19 514.619 2246.17 513.267 Q2246.39 513.132 2246.53 513.132 Q2246.98 513.132 2247 513.65 Q2247 513.83 2246.62 514.371 Q2246.26 514.89 2245.47 515.589 Q2244.68 516.265 2243.67 516.919 Q2242.65 517.573 2241.16 518.024 Q2239.7 518.452 2238.08 518.452 Q2236.14 518.452 2234.15 517.843 L2234.15 526.838 Q2236.54 524.494 2240.01 524.494 Q2243.71 524.494 2246.26 527.47 Q2248.81 530.445 2248.81 534.594 Q2248.81 538.945 2245.79 541.92 Q2242.79 544.896 2238.73 544.896 Q2235.03 544.896 2232.69 542.258 Q2230.37 539.621 2230.37 536.442 Z" fill="#000000" fill-rule="nonzero" fill-opacity="1" /></svg>
